{
  "header": {
    "keySignatures": [
      {
        "key": "C",
        "scale": "major",
        "ticks": 0
      }
    ],
    "meta": [
      {
        "text": "Adagio in G-min      Albinoni, Tommaso (1671-1750) Italian ",
        "ticks": 0,
        "type": "marker"
      }
    ],
    "name": "",
    "ppq": 240,
    "tempos": [
      {
        "bpm": 52.000006933334255,
        "ticks": 0
      }
    ],
    "timeSignatures": [
      {
        "ticks": 0,
        "timeSignature": [
          3,
          4
        ],
        "measures": 0
      }
    ]
  },
  "tracks": [
    {
      "channel": 0,
      "controlChanges": {
        "7": [
          {
            "number": 7,
            "ticks": 0,
            "time": 0,
            "value": 0.8661417322834646
          }
        ],
        "10": [
          {
            "number": 10,
            "ticks": 0,
            "time": 0,
            "value": 0.1968503937007874
          }
        ]
      },
      "pitchBends": [],
      "instrument": {
        "family": "ensemble",
        "number": 49,
        "name": "string ensemble 2"
      },
      "name": "Strings",
      "notes": [
        {
          "duration": 0.28846150000003945,
          "durationTicks": 60,
          "midi": 72,
          "name": "C5",
          "ticks": 90660,
          "time": 435.86532650000004,
          "velocity": 0.8661417322834646
        },
        {
          "duration": 0.28846150000003945,
          "durationTicks": 60,
          "midi": 69,
          "name": "A4",
          "ticks": 90660,
          "time": 435.86532650000004,
          "velocity": 0.8661417322834646
        },
        {
          "duration": 0.28846150000003945,
          "durationTicks": 60,
          "midi": 75,
          "name": "D#5",
          "ticks": 90660,
          "time": 435.86532650000004,
          "velocity": 0.8661417322834646
        },
        {
          "duration": 1.1538459999999873,
          "durationTicks": 240,
          "midi": 72,
          "name": "C5",
          "ticks": 90720,
          "time": 436.1537880000001,
          "velocity": 0.8661417322834646
        },
        {
          "duration": 3.461537999999962,
          "durationTicks": 720,
          "midi": 67,
          "name": "G4",
          "ticks": 90720,
          "time": 436.1537880000001,
          "velocity": 0.8661417322834646
        },
        {
          "duration": 3.461537999999962,
          "durationTicks": 720,
          "midi": 74,
          "name": "D5",
          "ticks": 90720,
          "time": 436.1537880000001,
          "velocity": 0.8661417322834646
        },
        {
          "duration": 2.3076919999999745,
          "durationTicks": 480,
          "midi": 71,
          "name": "B4",
          "ticks": 90960,
          "time": 437.30763400000006,
          "velocity": 0.8661417322834646
        },
        {
          "duration": 2.3076920000000314,
          "durationTicks": 480,
          "midi": 68,
          "name": "G#4",
          "ticks": 91440,
          "time": 439.61532600000004,
          "velocity": 0.8661417322834646
        },
        {
          "duration": 2.3076920000000314,
          "durationTicks": 480,
          "midi": 74,
          "name": "D5",
          "ticks": 91440,
          "time": 439.61532600000004,
          "velocity": 0.8661417322834646
        },
        {
          "duration": 2.3076920000000314,
          "durationTicks": 480,
          "midi": 77,
          "name": "F5",
          "ticks": 91440,
          "time": 439.61532600000004,
          "velocity": 0.8661417322834646
        },
        {
          "duration": 0.2884614999999826,
          "durationTicks": 60,
          "midi": 68,
          "name": "G#4",
          "ticks": 92100,
          "time": 442.7884025000001,
          "velocity": 0.8661417322834646
        },
        {
          "duration": 0.2884614999999826,
          "durationTicks": 60,
          "midi": 74,
          "name": "D5",
          "ticks": 92100,
          "time": 442.7884025000001,
          "velocity": 0.8661417322834646
        },
        {
          "duration": 0.2884614999999826,
          "durationTicks": 60,
          "midi": 77,
          "name": "F5",
          "ticks": 92100,
          "time": 442.7884025000001,
          "velocity": 0.8661417322834646
        },
        {
          "duration": 1.1538459999999873,
          "durationTicks": 240,
          "midi": 74,
          "name": "D5",
          "ticks": 92160,
          "time": 443.07686400000006,
          "velocity": 0.8661417322834646
        },
        {
          "duration": 3.4615380000000187,
          "durationTicks": 720,
          "midi": 67,
          "name": "G4",
          "ticks": 92160,
          "time": 443.07686400000006,
          "velocity": 0.8661417322834646
        },
        {
          "duration": 3.4615380000000187,
          "durationTicks": 720,
          "midi": 75,
          "name": "D#5",
          "ticks": 92160,
          "time": 443.07686400000006,
          "velocity": 0.8661417322834646
        },
        {
          "duration": 2.3076920000000314,
          "durationTicks": 480,
          "midi": 72,
          "name": "C5",
          "ticks": 92400,
          "time": 444.23071000000004,
          "velocity": 0.8661417322834646
        },
        {
          "duration": 2.3076919999999745,
          "durationTicks": 480,
          "midi": 76,
          "name": "E5",
          "ticks": 92880,
          "time": 446.5384020000001,
          "velocity": 0.8661417322834646
        },
        {
          "duration": 2.3076919999999745,
          "durationTicks": 480,
          "midi": 70,
          "name": "A#4",
          "ticks": 92880,
          "time": 446.5384020000001,
          "velocity": 0.8661417322834646
        },
        {
          "duration": 2.3076919999999745,
          "durationTicks": 480,
          "midi": 79,
          "name": "G5",
          "ticks": 92880,
          "time": 446.5384020000001,
          "velocity": 0.8661417322834646
        },
        {
          "duration": 0.2884614999999826,
          "durationTicks": 60,
          "midi": 70,
          "name": "A#4",
          "ticks": 93540,
          "time": 449.71147850000006,
          "velocity": 0.8661417322834646
        },
        {
          "duration": 0.2884614999999826,
          "durationTicks": 60,
          "midi": 76,
          "name": "E5",
          "ticks": 93540,
          "time": 449.71147850000006,
          "velocity": 0.8661417322834646
        },
        {
          "duration": 0.2884614999999826,
          "durationTicks": 60,
          "midi": 79,
          "name": "G5",
          "ticks": 93540,
          "time": 449.71147850000006,
          "velocity": 0.8661417322834646
        },
        {
          "duration": 3.4615380000000187,
          "durationTicks": 720,
          "midi": 69,
          "name": "A4",
          "ticks": 93600,
          "time": 449.99994000000004,
          "velocity": 0.8661417322834646
        },
        {
          "duration": 1.1538460000000441,
          "durationTicks": 240,
          "midi": 76,
          "name": "E5",
          "ticks": 93600,
          "time": 449.99994000000004,
          "velocity": 0.8661417322834646
        },
        {
          "duration": 1.1538460000000441,
          "durationTicks": 240,
          "midi": 79,
          "name": "G5",
          "ticks": 93600,
          "time": 449.99994000000004,
          "velocity": 0.8661417322834646
        },
        {
          "duration": 2.3076919999999745,
          "durationTicks": 480,
          "midi": 74,
          "name": "D5",
          "ticks": 93840,
          "time": 451.1537860000001,
          "velocity": 0.8661417322834646
        },
        {
          "duration": 2.3076919999999745,
          "durationTicks": 480,
          "midi": 77,
          "name": "F5",
          "ticks": 93840,
          "time": 451.1537860000001,
          "velocity": 0.8661417322834646
        },
        {
          "duration": 2.3076919999999745,
          "durationTicks": 480,
          "midi": 63,
          "name": "D#4",
          "ticks": 94320,
          "time": 453.46147800000006,
          "velocity": 0.8661417322834646
        },
        {
          "duration": 2.3076919999999745,
          "durationTicks": 480,
          "midi": 70,
          "name": "A#4",
          "ticks": 94320,
          "time": 453.46147800000006,
          "velocity": 0.8661417322834646
        },
        {
          "duration": 2.3076919999999745,
          "durationTicks": 480,
          "midi": 75,
          "name": "D#5",
          "ticks": 94320,
          "time": 453.46147800000006,
          "velocity": 0.8661417322834646
        },
        {
          "duration": 0.28846150000003945,
          "durationTicks": 60,
          "midi": 63,
          "name": "D#4",
          "ticks": 94980,
          "time": 456.63455450000004,
          "velocity": 0.8661417322834646
        },
        {
          "duration": 0.28846150000003945,
          "durationTicks": 60,
          "midi": 70,
          "name": "A#4",
          "ticks": 94980,
          "time": 456.63455450000004,
          "velocity": 0.8661417322834646
        },
        {
          "duration": 0.28846150000003945,
          "durationTicks": 60,
          "midi": 75,
          "name": "D#5",
          "ticks": 94980,
          "time": 456.63455450000004,
          "velocity": 0.8661417322834646
        },
        {
          "duration": 1.1538459999999873,
          "durationTicks": 240,
          "midi": 63,
          "name": "D#4",
          "ticks": 95040,
          "time": 456.9230160000001,
          "velocity": 0.8661417322834646
        },
        {
          "duration": 2.3076919999999745,
          "durationTicks": 480,
          "midi": 70,
          "name": "A#4",
          "ticks": 95040,
          "time": 456.9230160000001,
          "velocity": 0.8661417322834646
        },
        {
          "duration": 1.1538459999999873,
          "durationTicks": 240,
          "midi": 75,
          "name": "D#5",
          "ticks": 95040,
          "time": 456.9230160000001,
          "velocity": 0.8661417322834646
        },
        {
          "duration": 2.3076919999999745,
          "durationTicks": 480,
          "midi": 64,
          "name": "E4",
          "ticks": 95280,
          "time": 458.07686200000006,
          "velocity": 0.8661417322834646
        },
        {
          "duration": 2.3076919999999745,
          "durationTicks": 480,
          "midi": 73,
          "name": "C#5",
          "ticks": 95280,
          "time": 458.07686200000006,
          "velocity": 0.8661417322834646
        },
        {
          "duration": 0.5769230000000221,
          "durationTicks": 120,
          "midi": 69,
          "name": "A4",
          "ticks": 95520,
          "time": 459.23070800000005,
          "velocity": 0.8661417322834646
        },
        {
          "duration": 0.5769229999999652,
          "durationTicks": 120,
          "midi": 67,
          "name": "G4",
          "ticks": 95640,
          "time": 459.8076310000001,
          "velocity": 0.8661417322834646
        },
        {
          "duration": 3.4615380000000187,
          "durationTicks": 720,
          "midi": 62,
          "name": "D4",
          "ticks": 95760,
          "time": 460.38455400000004,
          "velocity": 0.8661417322834646
        },
        {
          "duration": 3.4615380000000187,
          "durationTicks": 720,
          "midi": 65,
          "name": "F4",
          "ticks": 95760,
          "time": 460.38455400000004,
          "velocity": 0.8661417322834646
        },
        {
          "duration": 3.4615380000000187,
          "durationTicks": 720,
          "midi": 74,
          "name": "D5",
          "ticks": 95760,
          "time": 460.38455400000004,
          "velocity": 0.8661417322834646
        },
        {
          "duration": 2.3076920000000314,
          "durationTicks": 480,
          "midi": 63,
          "name": "D#4",
          "ticks": 96480,
          "time": 463.84609200000006,
          "velocity": 0.8661417322834646
        },
        {
          "duration": 2.3076920000000314,
          "durationTicks": 480,
          "midi": 72,
          "name": "C5",
          "ticks": 96480,
          "time": 463.84609200000006,
          "velocity": 0.8661417322834646
        },
        {
          "duration": 2.3076920000000314,
          "durationTicks": 480,
          "midi": 81,
          "name": "A5",
          "ticks": 96480,
          "time": 463.84609200000006,
          "velocity": 0.8661417322834646
        },
        {
          "duration": 0.28846150000003945,
          "durationTicks": 60,
          "midi": 63,
          "name": "D#4",
          "ticks": 97140,
          "time": 467.01916850000003,
          "velocity": 0.8661417322834646
        },
        {
          "duration": 0.28846150000003945,
          "durationTicks": 60,
          "midi": 72,
          "name": "C5",
          "ticks": 97140,
          "time": 467.01916850000003,
          "velocity": 0.8661417322834646
        },
        {
          "duration": 0.28846150000003945,
          "durationTicks": 60,
          "midi": 81,
          "name": "A5",
          "ticks": 97140,
          "time": 467.01916850000003,
          "velocity": 0.8661417322834646
        },
        {
          "duration": 3.461537999999962,
          "durationTicks": 720,
          "midi": 62,
          "name": "D4",
          "ticks": 97200,
          "time": 467.3076300000001,
          "velocity": 0.8661417322834646
        },
        {
          "duration": 3.461537999999962,
          "durationTicks": 720,
          "midi": 70,
          "name": "A#4",
          "ticks": 97200,
          "time": 467.3076300000001,
          "velocity": 0.8661417322834646
        },
        {
          "duration": 1.1538459999999873,
          "durationTicks": 240,
          "midi": 81,
          "name": "A5",
          "ticks": 97200,
          "time": 467.3076300000001,
          "velocity": 0.8661417322834646
        },
        {
          "duration": 2.3076919999999745,
          "durationTicks": 480,
          "midi": 79,
          "name": "G5",
          "ticks": 97440,
          "time": 468.46147600000006,
          "velocity": 0.8661417322834646
        },
        {
          "duration": 2.3076920000000314,
          "durationTicks": 480,
          "midi": 62,
          "name": "D4",
          "ticks": 97920,
          "time": 470.76916800000004,
          "velocity": 0.8661417322834646
        },
        {
          "duration": 2.3076920000000314,
          "durationTicks": 480,
          "midi": 68,
          "name": "G#4",
          "ticks": 97920,
          "time": 470.76916800000004,
          "velocity": 0.8661417322834646
        },
        {
          "duration": 2.3076920000000314,
          "durationTicks": 480,
          "midi": 77,
          "name": "F5",
          "ticks": 97920,
          "time": 470.76916800000004,
          "velocity": 0.8661417322834646
        },
        {
          "duration": 0.2884614999999826,
          "durationTicks": 60,
          "midi": 62,
          "name": "D4",
          "ticks": 98580,
          "time": 473.9422445000001,
          "velocity": 0.8661417322834646
        },
        {
          "duration": 0.2884614999999826,
          "durationTicks": 60,
          "midi": 68,
          "name": "G#4",
          "ticks": 98580,
          "time": 473.9422445000001,
          "velocity": 0.8661417322834646
        },
        {
          "duration": 0.2884614999999826,
          "durationTicks": 60,
          "midi": 77,
          "name": "F5",
          "ticks": 98580,
          "time": 473.9422445000001,
          "velocity": 0.8661417322834646
        },
        {
          "duration": 1.1538459999999873,
          "durationTicks": 240,
          "midi": 62,
          "name": "D4",
          "ticks": 98640,
          "time": 474.23070600000005,
          "velocity": 0.8661417322834646
        },
        {
          "duration": 3.4615380000000187,
          "durationTicks": 720,
          "midi": 67,
          "name": "G4",
          "ticks": 98640,
          "time": 474.23070600000005,
          "velocity": 0.8661417322834646
        },
        {
          "duration": 1.1538459999999873,
          "durationTicks": 240,
          "midi": 77,
          "name": "F5",
          "ticks": 98640,
          "time": 474.23070600000005,
          "velocity": 0.8661417322834646
        },
        {
          "duration": 2.3076920000000314,
          "durationTicks": 480,
          "midi": 60,
          "name": "C4",
          "ticks": 98880,
          "time": 475.38455200000004,
          "velocity": 0.8661417322834646
        },
        {
          "duration": 2.3076920000000314,
          "durationTicks": 480,
          "midi": 75,
          "name": "D#5",
          "ticks": 98880,
          "time": 475.38455200000004,
          "velocity": 0.8661417322834646
        },
        {
          "duration": 2.3076919999999745,
          "durationTicks": 480,
          "midi": 64,
          "name": "E4",
          "ticks": 99360,
          "time": 477.6922440000001,
          "velocity": 0.8661417322834646
        },
        {
          "duration": 2.3076919999999745,
          "durationTicks": 480,
          "midi": 67,
          "name": "G4",
          "ticks": 99360,
          "time": 477.6922440000001,
          "velocity": 0.8661417322834646
        },
        {
          "duration": 2.3076919999999745,
          "durationTicks": 480,
          "midi": 70,
          "name": "A#4",
          "ticks": 99360,
          "time": 477.6922440000001,
          "velocity": 0.8661417322834646
        }
      ],
      "endOfTrackTicks": 99840
    },
    {
      "channel": 1,
      "controlChanges": {
        "7": [
          {
            "number": 7,
            "ticks": 0,
            "time": 0,
            "value": 0.8661417322834646
          }
        ],
        "10": [
          {
            "number": 10,
            "ticks": 0,
            "time": 0,
            "value": 0.31496062992125984
          }
        ]
      },
      "pitchBends": [],
      "instrument": {
        "family": "ensemble",
        "number": 49,
        "name": "string ensemble 2"
      },
      "name": "Strings",
      "notes": [
        {
          "duration": 1.1538460000000015,
          "durationTicks": 240,
          "midi": 74,
          "name": "D5",
          "ticks": 6480,
          "time": 31.153842000000004,
          "velocity": 0.7086614173228346
        },
        {
          "duration": 0.8653844999999976,
          "durationTicks": 180,
          "midi": 72,
          "name": "C5",
          "ticks": 6720,
          "time": 32.307688000000006,
          "velocity": 0.7086614173228346
        },
        {
          "duration": 0.2884615000000039,
          "durationTicks": 60,
          "midi": 70,
          "name": "A#4",
          "ticks": 6900,
          "time": 33.1730725,
          "velocity": 0.7086614173228346
        },
        {
          "duration": 0.8653844999999976,
          "durationTicks": 180,
          "midi": 69,
          "name": "A4",
          "ticks": 6960,
          "time": 33.46153400000001,
          "velocity": 0.7086614173228346
        },
        {
          "duration": 0.2884614999999968,
          "durationTicks": 60,
          "midi": 67,
          "name": "G4",
          "ticks": 7140,
          "time": 34.326918500000005,
          "velocity": 0.7086614173228346
        },
        {
          "duration": 2.307692000000003,
          "durationTicks": 480,
          "midi": 67,
          "name": "G4",
          "ticks": 7200,
          "time": 34.61538,
          "velocity": 0.7086614173228346
        },
        {
          "duration": 1.1538460000000015,
          "durationTicks": 240,
          "midi": 66,
          "name": "F#4",
          "ticks": 7680,
          "time": 36.923072000000005,
          "velocity": 0.7086614173228346
        },
        {
          "duration": 1.1538460000000015,
          "durationTicks": 240,
          "midi": 75,
          "name": "D#5",
          "ticks": 7920,
          "time": 38.076918000000006,
          "velocity": 0.7086614173228346
        },
        {
          "duration": 0.8653844999999976,
          "durationTicks": 180,
          "midi": 74,
          "name": "D5",
          "ticks": 8160,
          "time": 39.23076400000001,
          "velocity": 0.7086614173228346
        },
        {
          "duration": 0.2884614999999968,
          "durationTicks": 60,
          "midi": 72,
          "name": "C5",
          "ticks": 8340,
          "time": 40.096148500000005,
          "velocity": 0.7086614173228346
        },
        {
          "duration": 0.8653845000000047,
          "durationTicks": 180,
          "midi": 70,
          "name": "A#4",
          "ticks": 8400,
          "time": 40.38461,
          "velocity": 0.7086614173228346
        },
        {
          "duration": 0.2884614999999968,
          "durationTicks": 60,
          "midi": 69,
          "name": "A4",
          "ticks": 8580,
          "time": 41.24999450000001,
          "velocity": 0.7086614173228346
        },
        {
          "duration": 2.307692000000003,
          "durationTicks": 480,
          "midi": 69,
          "name": "A4",
          "ticks": 8640,
          "time": 41.538456000000004,
          "velocity": 0.7086614173228346
        },
        {
          "duration": 1.1538460000000015,
          "durationTicks": 240,
          "midi": 67,
          "name": "G4",
          "ticks": 9120,
          "time": 43.84614800000001,
          "velocity": 0.7086614173228346
        },
        {
          "duration": 1.1538459999999944,
          "durationTicks": 240,
          "midi": 79,
          "name": "G5",
          "ticks": 9360,
          "time": 44.99999400000001,
          "velocity": 0.7086614173228346
        },
        {
          "duration": 0.5769230000000007,
          "durationTicks": 120,
          "midi": 77,
          "name": "F5",
          "ticks": 9600,
          "time": 46.15384,
          "velocity": 0.7086614173228346
        },
        {
          "duration": 0.5769230000000007,
          "durationTicks": 120,
          "midi": 79,
          "name": "G5",
          "ticks": 9720,
          "time": 46.730763,
          "velocity": 0.7086614173228346
        },
        {
          "duration": 0.3846153333333362,
          "durationTicks": 80,
          "midi": 75,
          "name": "D#5",
          "ticks": 9840,
          "time": 47.307686000000004,
          "velocity": 0.7086614173228346
        },
        {
          "duration": 0.3846153333333291,
          "durationTicks": 80,
          "midi": 77,
          "name": "F5",
          "ticks": 9920,
          "time": 47.69230133333334,
          "velocity": 0.7086614173228346
        },
        {
          "duration": 0.3846153333333362,
          "durationTicks": 80,
          "midi": 74,
          "name": "D5",
          "ticks": 10000,
          "time": 48.07691666666667,
          "velocity": 0.7086614173228346
        },
        {
          "duration": 3.4615380000000044,
          "durationTicks": 720,
          "midi": 75,
          "name": "D#5",
          "ticks": 10080,
          "time": 48.461532000000005,
          "velocity": 0.7086614173228346
        },
        {
          "duration": 1.1538459999999944,
          "durationTicks": 240,
          "midi": 77,
          "name": "F5",
          "ticks": 10800,
          "time": 51.92307000000001,
          "velocity": 0.7086614173228346
        },
        {
          "duration": 0.5769230000000007,
          "durationTicks": 120,
          "midi": 75,
          "name": "D#5",
          "ticks": 11040,
          "time": 53.076916000000004,
          "velocity": 0.7086614173228346
        },
        {
          "duration": 0.5769230000000007,
          "durationTicks": 120,
          "midi": 77,
          "name": "F5",
          "ticks": 11160,
          "time": 53.653839000000005,
          "velocity": 0.7086614173228346
        },
        {
          "duration": 0.3846153333333362,
          "durationTicks": 80,
          "midi": 74,
          "name": "D5",
          "ticks": 11280,
          "time": 54.230762000000006,
          "velocity": 0.7086614173228346
        },
        {
          "duration": 0.3846153333333291,
          "durationTicks": 80,
          "midi": 75,
          "name": "D#5",
          "ticks": 11360,
          "time": 54.61537733333334,
          "velocity": 0.7086614173228346
        },
        {
          "duration": 0.3846153333333362,
          "durationTicks": 80,
          "midi": 72,
          "name": "C5",
          "ticks": 11440,
          "time": 54.99999266666667,
          "velocity": 0.7086614173228346
        },
        {
          "duration": 3.4615379999999973,
          "durationTicks": 720,
          "midi": 74,
          "name": "D5",
          "ticks": 11520,
          "time": 55.38460800000001,
          "velocity": 0.7086614173228346
        },
        {
          "duration": 1.1538460000000015,
          "durationTicks": 240,
          "midi": 75,
          "name": "D#5",
          "ticks": 12240,
          "time": 58.846146000000005,
          "velocity": 0.7086614173228346
        },
        {
          "duration": 0.5769230000000007,
          "durationTicks": 120,
          "midi": 74,
          "name": "D5",
          "ticks": 12480,
          "time": 59.999992000000006,
          "velocity": 0.7086614173228346
        },
        {
          "duration": 0.5769230000000007,
          "durationTicks": 120,
          "midi": 75,
          "name": "D#5",
          "ticks": 12600,
          "time": 60.57691500000001,
          "velocity": 0.7086614173228346
        },
        {
          "duration": 0.3846153333333362,
          "durationTicks": 80,
          "midi": 72,
          "name": "C5",
          "ticks": 12720,
          "time": 61.15383800000001,
          "velocity": 0.7086614173228346
        },
        {
          "duration": 0.3846153333333291,
          "durationTicks": 80,
          "midi": 74,
          "name": "D5",
          "ticks": 12800,
          "time": 61.538453333333344,
          "velocity": 0.7086614173228346
        },
        {
          "duration": 0.3846153333333362,
          "durationTicks": 80,
          "midi": 70,
          "name": "A#4",
          "ticks": 12880,
          "time": 61.92306866666667,
          "velocity": 0.7086614173228346
        },
        {
          "duration": 3.4615380000000044,
          "durationTicks": 720,
          "midi": 72,
          "name": "C5",
          "ticks": 12960,
          "time": 62.30768400000001,
          "velocity": 0.7086614173228346
        },
        {
          "duration": 2.3076919999999888,
          "durationTicks": 480,
          "midi": 74,
          "name": "D5",
          "ticks": 13680,
          "time": 65.76922200000001,
          "velocity": 0.7086614173228346
        },
        {
          "duration": 1.1538460000000015,
          "durationTicks": 240,
          "midi": 75,
          "name": "D#5",
          "ticks": 14160,
          "time": 68.076914,
          "velocity": 0.7086614173228346
        },
        {
          "duration": 5.769230000000007,
          "durationTicks": 1200,
          "midi": 74,
          "name": "D5",
          "ticks": 14400,
          "time": 69.23076,
          "velocity": 0.7086614173228346
        },
        {
          "duration": 0.5769230000000078,
          "durationTicks": 120,
          "midi": 79,
          "name": "G5",
          "ticks": 15720,
          "time": 75.576913,
          "velocity": 0.7086614173228346
        },
        {
          "duration": 0.5769229999999936,
          "durationTicks": 120,
          "midi": 81,
          "name": "A5",
          "ticks": 15840,
          "time": 76.15383600000001,
          "velocity": 0.7086614173228346
        },
        {
          "duration": 0.5769230000000078,
          "durationTicks": 120,
          "midi": 82,
          "name": "A#5",
          "ticks": 15960,
          "time": 76.730759,
          "velocity": 0.7086614173228346
        },
        {
          "duration": 0.5769229999999936,
          "durationTicks": 120,
          "midi": 81,
          "name": "A5",
          "ticks": 16080,
          "time": 77.30768200000001,
          "velocity": 0.7086614173228346
        },
        {
          "duration": 0.5769230000000078,
          "durationTicks": 120,
          "midi": 79,
          "name": "G5",
          "ticks": 16200,
          "time": 77.88460500000001,
          "velocity": 0.7086614173228346
        },
        {
          "duration": 0.5769229999999936,
          "durationTicks": 120,
          "midi": 78,
          "name": "F#5",
          "ticks": 16320,
          "time": 78.46152800000002,
          "velocity": 0.7086614173228346
        },
        {
          "duration": 0.5769230000000078,
          "durationTicks": 120,
          "midi": 79,
          "name": "G5",
          "ticks": 16440,
          "time": 79.03845100000001,
          "velocity": 0.7086614173228346
        },
        {
          "duration": 3.4615379999999902,
          "durationTicks": 720,
          "midi": 77,
          "name": "F5",
          "ticks": 16560,
          "time": 79.61537400000002,
          "velocity": 0.7086614173228346
        },
        {
          "duration": 1.7307690000000093,
          "durationTicks": 360,
          "midi": 75,
          "name": "D#5",
          "ticks": 17280,
          "time": 83.07691200000001,
          "velocity": 0.7086614173228346
        },
        {
          "duration": 0.5769229999999936,
          "durationTicks": 120,
          "midi": 72,
          "name": "C5",
          "ticks": 17640,
          "time": 84.80768100000002,
          "velocity": 0.7086614173228346
        },
        {
          "duration": 0.8653845000000047,
          "durationTicks": 180,
          "midi": 75,
          "name": "D#5",
          "ticks": 17760,
          "time": 85.38460400000001,
          "velocity": 0.7086614173228346
        },
        {
          "duration": 0.2884614999999968,
          "durationTicks": 60,
          "midi": 79,
          "name": "G5",
          "ticks": 17940,
          "time": 86.24998850000001,
          "velocity": 0.7086614173228346
        },
        {
          "duration": 1.7307689999999951,
          "durationTicks": 360,
          "midi": 74,
          "name": "D5",
          "ticks": 18000,
          "time": 86.53845000000001,
          "velocity": 0.7086614173228346
        },
        {
          "duration": 0.5769230000000078,
          "durationTicks": 120,
          "midi": 70,
          "name": "A#4",
          "ticks": 18360,
          "time": 88.269219,
          "velocity": 0.7086614173228346
        },
        {
          "duration": 0.8653844999999905,
          "durationTicks": 180,
          "midi": 74,
          "name": "D5",
          "ticks": 18480,
          "time": 88.84614200000001,
          "velocity": 0.7086614173228346
        },
        {
          "duration": 0.28846150000001103,
          "durationTicks": 60,
          "midi": 79,
          "name": "G5",
          "ticks": 18660,
          "time": 89.7115265,
          "velocity": 0.7086614173228346
        },
        {
          "duration": 3.4615379999999902,
          "durationTicks": 720,
          "midi": 72,
          "name": "C5",
          "ticks": 18720,
          "time": 89.99998800000002,
          "velocity": 0.7086614173228346
        },
        {
          "duration": 3.4615380000000044,
          "durationTicks": 720,
          "midi": 70,
          "name": "A#4",
          "ticks": 19440,
          "time": 93.461526,
          "velocity": 0.7086614173228346
        },
        {
          "duration": 3.4615380000000044,
          "durationTicks": 720,
          "midi": 69,
          "name": "A4",
          "ticks": 20160,
          "time": 96.92306400000001,
          "velocity": 0.7086614173228346
        },
        {
          "duration": 3.4615380000000044,
          "durationTicks": 720,
          "midi": 67,
          "name": "G4",
          "ticks": 20880,
          "time": 100.38460200000002,
          "velocity": 0.7086614173228346
        },
        {
          "duration": 1.1538460000000157,
          "durationTicks": 240,
          "midi": 74,
          "name": "D5",
          "ticks": 26640,
          "time": 128.076906,
          "velocity": 0.7086614173228346
        },
        {
          "duration": 0.8653845000000047,
          "durationTicks": 180,
          "midi": 72,
          "name": "C5",
          "ticks": 26880,
          "time": 129.23075200000002,
          "velocity": 0.7086614173228346
        },
        {
          "duration": 0.2884614999999826,
          "durationTicks": 60,
          "midi": 70,
          "name": "A#4",
          "ticks": 27060,
          "time": 130.09613650000003,
          "velocity": 0.7086614173228346
        },
        {
          "duration": 0.8653845000000047,
          "durationTicks": 180,
          "midi": 69,
          "name": "A4",
          "ticks": 27120,
          "time": 130.384598,
          "velocity": 0.7086614173228346
        },
        {
          "duration": 0.28846150000001103,
          "durationTicks": 60,
          "midi": 67,
          "name": "G4",
          "ticks": 27300,
          "time": 131.24998250000002,
          "velocity": 0.7086614173228346
        },
        {
          "duration": 2.307692000000003,
          "durationTicks": 480,
          "midi": 67,
          "name": "G4",
          "ticks": 27360,
          "time": 131.53844400000003,
          "velocity": 0.7086614173228346
        },
        {
          "duration": 1.1538459999999873,
          "durationTicks": 240,
          "midi": 66,
          "name": "F#4",
          "ticks": 27840,
          "time": 133.84613600000003,
          "velocity": 0.7086614173228346
        },
        {
          "duration": 1.1538459999999873,
          "durationTicks": 240,
          "midi": 75,
          "name": "D#5",
          "ticks": 28080,
          "time": 134.99998200000002,
          "velocity": 0.7086614173228346
        },
        {
          "duration": 0.8653845000000047,
          "durationTicks": 180,
          "midi": 74,
          "name": "D5",
          "ticks": 28320,
          "time": 136.153828,
          "velocity": 0.7086614173228346
        },
        {
          "duration": 0.28846150000001103,
          "durationTicks": 60,
          "midi": 72,
          "name": "C5",
          "ticks": 28500,
          "time": 137.0192125,
          "velocity": 0.7086614173228346
        },
        {
          "duration": 0.8653845000000047,
          "durationTicks": 180,
          "midi": 70,
          "name": "A#4",
          "ticks": 28560,
          "time": 137.30767400000002,
          "velocity": 0.7086614173228346
        },
        {
          "duration": 0.2884614999999826,
          "durationTicks": 60,
          "midi": 69,
          "name": "A4",
          "ticks": 28740,
          "time": 138.17305850000002,
          "velocity": 0.7086614173228346
        },
        {
          "duration": 2.307692000000003,
          "durationTicks": 480,
          "midi": 69,
          "name": "A4",
          "ticks": 28800,
          "time": 138.46152,
          "velocity": 0.7086614173228346
        },
        {
          "duration": 1.1538460000000157,
          "durationTicks": 240,
          "midi": 67,
          "name": "G4",
          "ticks": 29280,
          "time": 140.769212,
          "velocity": 0.7086614173228346
        },
        {
          "duration": 1.1538459999999873,
          "durationTicks": 240,
          "midi": 79,
          "name": "G5",
          "ticks": 29520,
          "time": 141.92305800000003,
          "velocity": 0.7086614173228346
        },
        {
          "duration": 0.5769229999999936,
          "durationTicks": 120,
          "midi": 77,
          "name": "F5",
          "ticks": 29760,
          "time": 143.076904,
          "velocity": 0.7086614173228346
        },
        {
          "duration": 0.5769230000000221,
          "durationTicks": 120,
          "midi": 79,
          "name": "G5",
          "ticks": 29880,
          "time": 143.653827,
          "velocity": 0.7086614173228346
        },
        {
          "duration": 0.3846153333333291,
          "durationTicks": 80,
          "midi": 75,
          "name": "D#5",
          "ticks": 30000,
          "time": 144.23075000000003,
          "velocity": 0.7086614173228346
        },
        {
          "duration": 0.3846153333333291,
          "durationTicks": 80,
          "midi": 77,
          "name": "F5",
          "ticks": 30080,
          "time": 144.61536533333336,
          "velocity": 0.7086614173228346
        },
        {
          "duration": 0.3846153333333291,
          "durationTicks": 80,
          "midi": 74,
          "name": "D5",
          "ticks": 30160,
          "time": 144.9999806666667,
          "velocity": 0.7086614173228346
        },
        {
          "duration": 3.4615379999999902,
          "durationTicks": 720,
          "midi": 75,
          "name": "D#5",
          "ticks": 30240,
          "time": 145.38459600000002,
          "velocity": 0.7086614173228346
        },
        {
          "duration": 1.1538460000000157,
          "durationTicks": 240,
          "midi": 77,
          "name": "F5",
          "ticks": 30960,
          "time": 148.846134,
          "velocity": 0.7086614173228346
        },
        {
          "duration": 0.5769229999999936,
          "durationTicks": 120,
          "midi": 75,
          "name": "D#5",
          "ticks": 31200,
          "time": 149.99998000000002,
          "velocity": 0.7086614173228346
        },
        {
          "duration": 0.5769229999999936,
          "durationTicks": 120,
          "midi": 77,
          "name": "F5",
          "ticks": 31320,
          "time": 150.57690300000002,
          "velocity": 0.7086614173228346
        },
        {
          "duration": 0.3846153333333575,
          "durationTicks": 80,
          "midi": 74,
          "name": "D5",
          "ticks": 31440,
          "time": 151.153826,
          "velocity": 0.7086614173228346
        },
        {
          "duration": 0.38461533333330067,
          "durationTicks": 80,
          "midi": 75,
          "name": "D#5",
          "ticks": 31520,
          "time": 151.53844133333337,
          "velocity": 0.7086614173228346
        },
        {
          "duration": 0.3846153333333575,
          "durationTicks": 80,
          "midi": 72,
          "name": "C5",
          "ticks": 31600,
          "time": 151.92305666666667,
          "velocity": 0.7086614173228346
        },
        {
          "duration": 3.4615379999999902,
          "durationTicks": 720,
          "midi": 74,
          "name": "D5",
          "ticks": 31680,
          "time": 152.30767200000003,
          "velocity": 0.7086614173228346
        },
        {
          "duration": 1.1538460000000157,
          "durationTicks": 240,
          "midi": 75,
          "name": "D#5",
          "ticks": 32400,
          "time": 155.76921000000002,
          "velocity": 0.7086614173228346
        },
        {
          "duration": 0.5769229999999936,
          "durationTicks": 120,
          "midi": 74,
          "name": "D5",
          "ticks": 32640,
          "time": 156.92305600000003,
          "velocity": 0.7086614173228346
        },
        {
          "duration": 0.5769229999999936,
          "durationTicks": 120,
          "midi": 75,
          "name": "D#5",
          "ticks": 32760,
          "time": 157.49997900000002,
          "velocity": 0.7086614173228346
        },
        {
          "duration": 0.3846153333333575,
          "durationTicks": 80,
          "midi": 72,
          "name": "C5",
          "ticks": 32880,
          "time": 158.07690200000002,
          "velocity": 0.7086614173228346
        },
        {
          "duration": 0.38461533333330067,
          "durationTicks": 80,
          "midi": 74,
          "name": "D5",
          "ticks": 32960,
          "time": 158.46151733333338,
          "velocity": 0.7086614173228346
        },
        {
          "duration": 0.3846153333333575,
          "durationTicks": 80,
          "midi": 70,
          "name": "A#4",
          "ticks": 33040,
          "time": 158.84613266666668,
          "velocity": 0.7086614173228346
        },
        {
          "duration": 3.4615379999999902,
          "durationTicks": 720,
          "midi": 72,
          "name": "C5",
          "ticks": 33120,
          "time": 159.23074800000003,
          "velocity": 0.7086614173228346
        },
        {
          "duration": 2.307692000000003,
          "durationTicks": 480,
          "midi": 74,
          "name": "D5",
          "ticks": 33840,
          "time": 162.69228600000002,
          "velocity": 0.7086614173228346
        },
        {
          "duration": 1.1538459999999873,
          "durationTicks": 240,
          "midi": 75,
          "name": "D#5",
          "ticks": 34320,
          "time": 164.99997800000003,
          "velocity": 0.7086614173228346
        },
        {
          "duration": 5.769230000000022,
          "durationTicks": 1200,
          "midi": 74,
          "name": "D5",
          "ticks": 34560,
          "time": 166.15382400000001,
          "velocity": 0.7086614173228346
        },
        {
          "duration": 0.5769229999999936,
          "durationTicks": 120,
          "midi": 79,
          "name": "G5",
          "ticks": 35880,
          "time": 172.49997700000003,
          "velocity": 0.7086614173228346
        },
        {
          "duration": 0.5769229999999936,
          "durationTicks": 120,
          "midi": 81,
          "name": "A5",
          "ticks": 36000,
          "time": 173.07690000000002,
          "velocity": 0.7086614173228346
        },
        {
          "duration": 0.5769229999999936,
          "durationTicks": 120,
          "midi": 82,
          "name": "A#5",
          "ticks": 36120,
          "time": 173.65382300000002,
          "velocity": 0.7086614173228346
        },
        {
          "duration": 0.5769230000000221,
          "durationTicks": 120,
          "midi": 81,
          "name": "A5",
          "ticks": 36240,
          "time": 174.230746,
          "velocity": 0.7086614173228346
        },
        {
          "duration": 0.5769229999999936,
          "durationTicks": 120,
          "midi": 79,
          "name": "G5",
          "ticks": 36360,
          "time": 174.80766900000003,
          "velocity": 0.7086614173228346
        },
        {
          "duration": 0.5769229999999936,
          "durationTicks": 120,
          "midi": 78,
          "name": "F#5",
          "ticks": 36480,
          "time": 175.38459200000003,
          "velocity": 0.7086614173228346
        },
        {
          "duration": 0.5769229999999936,
          "durationTicks": 120,
          "midi": 79,
          "name": "G5",
          "ticks": 36600,
          "time": 175.96151500000002,
          "velocity": 0.7086614173228346
        },
        {
          "duration": 3.4615380000000187,
          "durationTicks": 720,
          "midi": 77,
          "name": "F5",
          "ticks": 36720,
          "time": 176.538438,
          "velocity": 0.7086614173228346
        },
        {
          "duration": 1.730768999999981,
          "durationTicks": 360,
          "midi": 75,
          "name": "D#5",
          "ticks": 37440,
          "time": 179.99997600000003,
          "velocity": 0.7086614173228346
        },
        {
          "duration": 0.5769230000000221,
          "durationTicks": 120,
          "midi": 72,
          "name": "C5",
          "ticks": 37800,
          "time": 181.730745,
          "velocity": 0.7086614173228346
        },
        {
          "duration": 0.8653844999999762,
          "durationTicks": 180,
          "midi": 75,
          "name": "D#5",
          "ticks": 37920,
          "time": 182.30766800000004,
          "velocity": 0.7086614173228346
        },
        {
          "duration": 0.28846150000001103,
          "durationTicks": 60,
          "midi": 79,
          "name": "G5",
          "ticks": 38100,
          "time": 183.1730525,
          "velocity": 0.7086614173228346
        },
        {
          "duration": 1.7307690000000093,
          "durationTicks": 360,
          "midi": 74,
          "name": "D5",
          "ticks": 38160,
          "time": 183.46151400000002,
          "velocity": 0.7086614173228346
        },
        {
          "duration": 0.5769229999999936,
          "durationTicks": 120,
          "midi": 70,
          "name": "A#4",
          "ticks": 38520,
          "time": 185.19228300000003,
          "velocity": 0.7086614173228346
        },
        {
          "duration": 0.8653845000000047,
          "durationTicks": 180,
          "midi": 74,
          "name": "D5",
          "ticks": 38640,
          "time": 185.76920600000003,
          "velocity": 0.7086614173228346
        },
        {
          "duration": 0.2884614999999826,
          "durationTicks": 60,
          "midi": 79,
          "name": "G5",
          "ticks": 38820,
          "time": 186.63459050000003,
          "velocity": 0.7086614173228346
        },
        {
          "duration": 3.4615380000000187,
          "durationTicks": 720,
          "midi": 72,
          "name": "C5",
          "ticks": 38880,
          "time": 186.923052,
          "velocity": 0.7086614173228346
        },
        {
          "duration": 3.4615379999999902,
          "durationTicks": 720,
          "midi": 70,
          "name": "A#4",
          "ticks": 39600,
          "time": 190.38459000000003,
          "velocity": 0.7086614173228346
        },
        {
          "duration": 3.4615379999999902,
          "durationTicks": 720,
          "midi": 69,
          "name": "A4",
          "ticks": 40320,
          "time": 193.84612800000002,
          "velocity": 0.7086614173228346
        },
        {
          "duration": 5.192307000000028,
          "durationTicks": 1080,
          "midi": 67,
          "name": "G4",
          "ticks": 41040,
          "time": 197.307666,
          "velocity": 0.4251968503937008
        },
        {
          "duration": 0.5769230000000221,
          "durationTicks": 120,
          "midi": 72,
          "name": "C5",
          "ticks": 55080,
          "time": 264.807657,
          "velocity": 0.8661417322834646
        },
        {
          "duration": 0.5769230000000221,
          "durationTicks": 120,
          "midi": 74,
          "name": "D5",
          "ticks": 55200,
          "time": 265.38458,
          "velocity": 0.8661417322834646
        },
        {
          "duration": 0.5769229999999652,
          "durationTicks": 120,
          "midi": 75,
          "name": "D#5",
          "ticks": 55320,
          "time": 265.96150300000005,
          "velocity": 0.8661417322834646
        },
        {
          "duration": 0.28846150000003945,
          "durationTicks": 60,
          "midi": 75,
          "name": "D#5",
          "ticks": 55440,
          "time": 266.538426,
          "velocity": 0.8661417322834646
        },
        {
          "duration": 0.2884614999999826,
          "durationTicks": 60,
          "midi": 74,
          "name": "D5",
          "ticks": 55500,
          "time": 266.82688750000005,
          "velocity": 0.8503937007874016
        },
        {
          "duration": 0.2884614999999826,
          "durationTicks": 60,
          "midi": 77,
          "name": "F5",
          "ticks": 55560,
          "time": 267.11534900000004,
          "velocity": 0.84251968503937
        },
        {
          "duration": 0.28846150000003945,
          "durationTicks": 60,
          "midi": 75,
          "name": "D#5",
          "ticks": 55620,
          "time": 267.4038105,
          "velocity": 0.8267716535433071
        },
        {
          "duration": 0.2884614999999826,
          "durationTicks": 60,
          "midi": 75,
          "name": "D#5",
          "ticks": 55680,
          "time": 267.69227200000006,
          "velocity": 0.8110236220472441
        },
        {
          "duration": 0.2884614999999826,
          "durationTicks": 60,
          "midi": 74,
          "name": "D5",
          "ticks": 55740,
          "time": 267.98073350000004,
          "velocity": 0.8031496062992126
        },
        {
          "duration": 0.2884614999999826,
          "durationTicks": 60,
          "midi": 74,
          "name": "D5",
          "ticks": 55800,
          "time": 268.269195,
          "velocity": 0.7874015748031497
        },
        {
          "duration": 0.28846150000003945,
          "durationTicks": 60,
          "midi": 72,
          "name": "C5",
          "ticks": 55860,
          "time": 268.5576565,
          "velocity": 0.7716535433070866
        },
        {
          "duration": 0.2884614999999826,
          "durationTicks": 60,
          "midi": 72,
          "name": "C5",
          "ticks": 55920,
          "time": 268.84611800000005,
          "velocity": 0.7637795275590551
        },
        {
          "duration": 0.2884614999999826,
          "durationTicks": 60,
          "midi": 71,
          "name": "B4",
          "ticks": 55980,
          "time": 269.13457950000003,
          "velocity": 0.7480314960629921
        },
        {
          "duration": 0.28846150000003945,
          "durationTicks": 60,
          "midi": 71,
          "name": "B4",
          "ticks": 56040,
          "time": 269.423041,
          "velocity": 0.7322834645669292
        },
        {
          "duration": 0.2884614999999826,
          "durationTicks": 60,
          "midi": 72,
          "name": "C5",
          "ticks": 56100,
          "time": 269.71150250000005,
          "velocity": 0.7244094488188977
        },
        {
          "duration": 0.14423075000001973,
          "durationTicks": 30,
          "midi": 71,
          "name": "B4",
          "ticks": 56160,
          "time": 269.99996400000003,
          "velocity": 0.7086614173228346
        },
        {
          "duration": 0.14423074999996288,
          "durationTicks": 30,
          "midi": 72,
          "name": "C5",
          "ticks": 56190,
          "time": 270.14419475000005,
          "velocity": 0.7086614173228346
        },
        {
          "duration": 2.596153500000014,
          "durationTicks": 540,
          "midi": 74,
          "name": "D5",
          "ticks": 56220,
          "time": 270.2884255,
          "velocity": 0.7086614173228346
        },
        {
          "duration": 0.5769230000000221,
          "durationTicks": 120,
          "midi": 72,
          "name": "C5",
          "ticks": 56760,
          "time": 272.88457900000003,
          "velocity": 0.7086614173228346
        },
        {
          "duration": 3.461537999999962,
          "durationTicks": 720,
          "midi": 72,
          "name": "C5",
          "ticks": 56880,
          "time": 273.46150200000005,
          "velocity": 0.6299212598425197
        },
        {
          "duration": 1.1538459999999873,
          "durationTicks": 240,
          "midi": 79,
          "name": "G5",
          "ticks": 63360,
          "time": 304.61534400000005,
          "velocity": 0.8661417322834646
        },
        {
          "duration": 0.8653845000000047,
          "durationTicks": 180,
          "midi": 77,
          "name": "F5",
          "ticks": 63600,
          "time": 305.76919000000004,
          "velocity": 0.8661417322834646
        },
        {
          "duration": 0.2884614999999826,
          "durationTicks": 60,
          "midi": 75,
          "name": "D#5",
          "ticks": 63780,
          "time": 306.63457450000004,
          "velocity": 0.8661417322834646
        },
        {
          "duration": 0.8653845000000047,
          "durationTicks": 180,
          "midi": 74,
          "name": "D5",
          "ticks": 63840,
          "time": 306.923036,
          "velocity": 0.8661417322834646
        },
        {
          "duration": 0.2884614999999826,
          "durationTicks": 60,
          "midi": 72,
          "name": "C5",
          "ticks": 64020,
          "time": 307.78842050000003,
          "velocity": 0.8661417322834646
        },
        {
          "duration": 2.3076920000000314,
          "durationTicks": 480,
          "midi": 72,
          "name": "C5",
          "ticks": 64080,
          "time": 308.076882,
          "velocity": 0.8661417322834646
        },
        {
          "duration": 1.1538459999999873,
          "durationTicks": 240,
          "midi": 71,
          "name": "B4",
          "ticks": 64560,
          "time": 310.38457400000004,
          "velocity": 0.8661417322834646
        },
        {
          "duration": 1.1538459999999873,
          "durationTicks": 240,
          "midi": 80,
          "name": "G#5",
          "ticks": 64800,
          "time": 311.53842000000003,
          "velocity": 0.8661417322834646
        },
        {
          "duration": 0.8653845000000047,
          "durationTicks": 180,
          "midi": 79,
          "name": "G5",
          "ticks": 65040,
          "time": 312.692266,
          "velocity": 0.8661417322834646
        },
        {
          "duration": 0.28846150000003945,
          "durationTicks": 60,
          "midi": 77,
          "name": "F5",
          "ticks": 65220,
          "time": 313.5576505,
          "velocity": 0.8661417322834646
        },
        {
          "duration": 0.8653845000000047,
          "durationTicks": 180,
          "midi": 75,
          "name": "D#5",
          "ticks": 65280,
          "time": 313.84611200000006,
          "velocity": 0.8661417322834646
        },
        {
          "duration": 0.2884614999999826,
          "durationTicks": 60,
          "midi": 74,
          "name": "D5",
          "ticks": 65460,
          "time": 314.71149650000007,
          "velocity": 0.8661417322834646
        },
        {
          "duration": 2.3076919999999745,
          "durationTicks": 480,
          "midi": 74,
          "name": "D5",
          "ticks": 65520,
          "time": 314.99995800000005,
          "velocity": 0.8661417322834646
        },
        {
          "duration": 1.1538460000000441,
          "durationTicks": 240,
          "midi": 72,
          "name": "C5",
          "ticks": 66000,
          "time": 317.30765,
          "velocity": 0.8661417322834646
        },
        {
          "duration": 1.1538459999999873,
          "durationTicks": 240,
          "midi": 84,
          "name": "C6",
          "ticks": 66240,
          "time": 318.46149600000007,
          "velocity": 0.8661417322834646
        },
        {
          "duration": 0.5769229999999652,
          "durationTicks": 120,
          "midi": 82,
          "name": "A#5",
          "ticks": 66480,
          "time": 319.61534200000006,
          "velocity": 0.8661417322834646
        },
        {
          "duration": 0.5769230000000221,
          "durationTicks": 120,
          "midi": 84,
          "name": "C6",
          "ticks": 66600,
          "time": 320.192265,
          "velocity": 0.8661417322834646
        },
        {
          "duration": 0.3846153333333291,
          "durationTicks": 80,
          "midi": 80,
          "name": "G#5",
          "ticks": 66720,
          "time": 320.76918800000004,
          "velocity": 0.8661417322834646
        },
        {
          "duration": 0.38461533333338593,
          "durationTicks": 80,
          "midi": 82,
          "name": "A#5",
          "ticks": 66800,
          "time": 321.15380333333337,
          "velocity": 0.8661417322834646
        },
        {
          "duration": 0.38461533333327225,
          "durationTicks": 80,
          "midi": 79,
          "name": "G5",
          "ticks": 66880,
          "time": 321.53841866666676,
          "velocity": 0.8661417322834646
        },
        {
          "duration": 3.4615380000000187,
          "durationTicks": 720,
          "midi": 80,
          "name": "G#5",
          "ticks": 66960,
          "time": 321.92303400000003,
          "velocity": 0.8661417322834646
        },
        {
          "duration": 1.1538459999999873,
          "durationTicks": 240,
          "midi": 82,
          "name": "A#5",
          "ticks": 67680,
          "time": 325.38457200000005,
          "velocity": 0.8661417322834646
        },
        {
          "duration": 0.5769230000000221,
          "durationTicks": 120,
          "midi": 80,
          "name": "G#5",
          "ticks": 67920,
          "time": 326.53841800000004,
          "velocity": 0.8661417322834646
        },
        {
          "duration": 0.5769229999999652,
          "durationTicks": 120,
          "midi": 82,
          "name": "A#5",
          "ticks": 68040,
          "time": 327.11534100000006,
          "velocity": 0.8661417322834646
        },
        {
          "duration": 0.3846153333333291,
          "durationTicks": 80,
          "midi": 79,
          "name": "G5",
          "ticks": 68160,
          "time": 327.692264,
          "velocity": 0.8661417322834646
        },
        {
          "duration": 0.38461533333338593,
          "durationTicks": 80,
          "midi": 80,
          "name": "G#5",
          "ticks": 68240,
          "time": 328.07687933333335,
          "velocity": 0.8661417322834646
        },
        {
          "duration": 0.3846153333333291,
          "durationTicks": 80,
          "midi": 77,
          "name": "F5",
          "ticks": 68320,
          "time": 328.46149466666674,
          "velocity": 0.8661417322834646
        },
        {
          "duration": 3.461537999999962,
          "durationTicks": 720,
          "midi": 79,
          "name": "G5",
          "ticks": 68400,
          "time": 328.84611000000007,
          "velocity": 0.8661417322834646
        },
        {
          "duration": 5.192307000000028,
          "durationTicks": 1080,
          "midi": 77,
          "name": "F5",
          "ticks": 69120,
          "time": 332.30764800000003,
          "velocity": 0.7086614173228346
        },
        {
          "duration": 0.5769229999999652,
          "durationTicks": 120,
          "midi": 77,
          "name": "F5",
          "ticks": 70200,
          "time": 337.49995500000006,
          "velocity": 0.7086614173228346
        },
        {
          "duration": 0.8653845000000047,
          "durationTicks": 180,
          "midi": 74,
          "name": "D5",
          "ticks": 70320,
          "time": 338.076878,
          "velocity": 0.7086614173228346
        },
        {
          "duration": 0.28846150000003945,
          "durationTicks": 60,
          "midi": 70,
          "name": "A#4",
          "ticks": 70500,
          "time": 338.9422625,
          "velocity": 0.7086614173228346
        },
        {
          "duration": 1.1538459999999873,
          "durationTicks": 240,
          "midi": 70,
          "name": "A#4",
          "ticks": 70560,
          "time": 339.23072400000007,
          "velocity": 0.7086614173228346
        },
        {
          "duration": 0.5769230000000221,
          "durationTicks": 120,
          "midi": 77,
          "name": "F5",
          "ticks": 71640,
          "time": 344.42303100000004,
          "velocity": 0.7086614173228346
        },
        {
          "duration": 0.8653845000000047,
          "durationTicks": 180,
          "midi": 74,
          "name": "D5",
          "ticks": 71760,
          "time": 344.99995400000006,
          "velocity": 0.7086614173228346
        },
        {
          "duration": 0.2884614999999826,
          "durationTicks": 60,
          "midi": 70,
          "name": "A#4",
          "ticks": 71940,
          "time": 345.86533850000006,
          "velocity": 0.7086614173228346
        },
        {
          "duration": 1.1538459999999873,
          "durationTicks": 240,
          "midi": 70,
          "name": "A#4",
          "ticks": 72000,
          "time": 346.15380000000005,
          "velocity": 0.7086614173228346
        },
        {
          "duration": 6.9230759999999805,
          "durationTicks": 1440,
          "midi": 70,
          "name": "A#4",
          "ticks": 72720,
          "time": 349.61533800000007,
          "velocity": 0.7086614173228346
        },
        {
          "duration": 2.1153843333333384,
          "durationTicks": 440,
          "midi": 79,
          "name": "G5",
          "ticks": 75000,
          "time": 360.57687500000003,
          "velocity": 0.7086614173228346
        },
        {
          "duration": 0.38461533333338593,
          "durationTicks": 80,
          "midi": 75,
          "name": "D#5",
          "ticks": 75440,
          "time": 362.69225933333337,
          "velocity": 0.7086614173228346
        },
        {
          "duration": 0.38461533333327225,
          "durationTicks": 80,
          "midi": 72,
          "name": "C5",
          "ticks": 75520,
          "time": 363.07687466666675,
          "velocity": 0.7086614173228346
        },
        {
          "duration": 2.3076920000000314,
          "durationTicks": 480,
          "midi": 70,
          "name": "A#4",
          "ticks": 75600,
          "time": 363.46149,
          "velocity": 0.7086614173228346
        },
        {
          "duration": 1.1538459999999873,
          "durationTicks": 240,
          "midi": 68,
          "name": "G#4",
          "ticks": 76080,
          "time": 365.76918200000006,
          "velocity": 0.7086614173228346
        },
        {
          "duration": 2.6923073333333036,
          "durationTicks": 560,
          "midi": 77,
          "name": "F5",
          "ticks": 76320,
          "time": 366.92302800000004,
          "velocity": 0.7086614173228346
        },
        {
          "duration": 0.38461533333338593,
          "durationTicks": 80,
          "midi": 74,
          "name": "D5",
          "ticks": 76880,
          "time": 369.61533533333335,
          "velocity": 0.7086614173228346
        },
        {
          "duration": 0.3846153333333291,
          "durationTicks": 80,
          "midi": 70,
          "name": "A#4",
          "ticks": 76960,
          "time": 369.99995066666673,
          "velocity": 0.7086614173228346
        },
        {
          "duration": 1.1538459999999873,
          "durationTicks": 240,
          "midi": 68,
          "name": "G#4",
          "ticks": 77040,
          "time": 370.38456600000006,
          "velocity": 0.7086614173228346
        },
        {
          "duration": 2.3076919999999745,
          "durationTicks": 480,
          "midi": 67,
          "name": "G4",
          "ticks": 77280,
          "time": 371.53841200000005,
          "velocity": 0.7086614173228346
        },
        {
          "duration": 3.4615380000000187,
          "durationTicks": 720,
          "midi": 65,
          "name": "F4",
          "ticks": 77760,
          "time": 373.846104,
          "velocity": 0.7086614173228346
        },
        {
          "duration": 1.7307690000000093,
          "durationTicks": 360,
          "midi": 67,
          "name": "G4",
          "ticks": 78480,
          "time": 377.30764200000004,
          "velocity": 0.7086614173228346
        },
        {
          "duration": 0.5769230000000221,
          "durationTicks": 120,
          "midi": 72,
          "name": "C5",
          "ticks": 78840,
          "time": 379.03841100000005,
          "velocity": 0.7086614173228346
        },
        {
          "duration": 0.8653844999999478,
          "durationTicks": 180,
          "midi": 67,
          "name": "G4",
          "ticks": 78960,
          "time": 379.6153340000001,
          "velocity": 0.7086614173228346
        },
        {
          "duration": 0.28846150000003945,
          "durationTicks": 60,
          "midi": 63,
          "name": "D#4",
          "ticks": 79140,
          "time": 380.4807185,
          "velocity": 0.7086614173228346
        },
        {
          "duration": 1.7307690000000093,
          "durationTicks": 360,
          "midi": 60,
          "name": "C4",
          "ticks": 79200,
          "time": 380.76918000000006,
          "velocity": 0.7086614173228346
        },
        {
          "duration": 1.7307690000000093,
          "durationTicks": 360,
          "midi": 60,
          "name": "C4",
          "ticks": 79920,
          "time": 384.230718,
          "velocity": 0.7086614173228346
        },
        {
          "duration": 0.5769230000000221,
          "durationTicks": 120,
          "midi": 72,
          "name": "C5",
          "ticks": 80280,
          "time": 385.96148700000003,
          "velocity": 0.7086614173228346
        },
        {
          "duration": 0.8653845000000047,
          "durationTicks": 180,
          "midi": 67,
          "name": "G4",
          "ticks": 80400,
          "time": 386.53841000000006,
          "velocity": 0.7086614173228346
        },
        {
          "duration": 0.2884614999999826,
          "durationTicks": 60,
          "midi": 63,
          "name": "D#4",
          "ticks": 80580,
          "time": 387.40379450000006,
          "velocity": 0.7086614173228346
        },
        {
          "duration": 1.7307690000000093,
          "durationTicks": 360,
          "midi": 60,
          "name": "C4",
          "ticks": 80640,
          "time": 387.69225600000004,
          "velocity": 0.7086614173228346
        },
        {
          "duration": 0.5769229999999652,
          "durationTicks": 120,
          "midi": 72,
          "name": "C5",
          "ticks": 81720,
          "time": 392.88456300000007,
          "velocity": 0.8661417322834646
        },
        {
          "duration": 0.5769230000000221,
          "durationTicks": 120,
          "midi": 71,
          "name": "B4",
          "ticks": 81840,
          "time": 393.46148600000004,
          "velocity": 0.8661417322834646
        },
        {
          "duration": 0.5769229999999652,
          "durationTicks": 120,
          "midi": 72,
          "name": "C5",
          "ticks": 81960,
          "time": 394.03840900000006,
          "velocity": 0.8661417322834646
        },
        {
          "duration": 2.3076920000000314,
          "durationTicks": 480,
          "midi": 73,
          "name": "C#5",
          "ticks": 82080,
          "time": 394.615332,
          "velocity": 0.8661417322834646
        },
        {
          "duration": 0.14423075000001973,
          "durationTicks": 30,
          "midi": 73,
          "name": "C#5",
          "ticks": 82560,
          "time": 396.92302400000005,
          "velocity": 0.8661417322834646
        },
        {
          "duration": 0.14423074999996288,
          "durationTicks": 30,
          "midi": 75,
          "name": "D#5",
          "ticks": 82590,
          "time": 397.0672547500001,
          "velocity": 0.8661417322834646
        },
        {
          "duration": 0.5769230000000221,
          "durationTicks": 120,
          "midi": 77,
          "name": "F5",
          "ticks": 82620,
          "time": 397.21148550000004,
          "velocity": 0.8661417322834646
        },
        {
          "duration": 0.14423075000001973,
          "durationTicks": 30,
          "midi": 75,
          "name": "D#5",
          "ticks": 82740,
          "time": 397.78840850000006,
          "velocity": 0.8661417322834646
        },
        {
          "duration": 0.14423074999996288,
          "durationTicks": 30,
          "midi": 73,
          "name": "C#5",
          "ticks": 82770,
          "time": 397.9326392500001,
          "velocity": 0.8661417322834646
        },
        {
          "duration": 2.3076920000000314,
          "durationTicks": 480,
          "midi": 72,
          "name": "C5",
          "ticks": 82800,
          "time": 398.07687000000004,
          "velocity": 0.8661417322834646
        },
        {
          "duration": 0.5769230000000221,
          "durationTicks": 120,
          "midi": 84,
          "name": "C6",
          "ticks": 83400,
          "time": 400.96148500000004,
          "velocity": 0.8661417322834646
        },
        {
          "duration": 0.5769229999999652,
          "durationTicks": 120,
          "midi": 86,
          "name": "D6",
          "ticks": 83520,
          "time": 401.53840800000006,
          "velocity": 0.8661417322834646
        },
        {
          "duration": 0.5769230000000221,
          "durationTicks": 120,
          "midi": 87,
          "name": "D#6",
          "ticks": 83640,
          "time": 402.115331,
          "velocity": 0.8661417322834646
        },
        {
          "duration": 0.5769230000000221,
          "durationTicks": 120,
          "midi": 86,
          "name": "D6",
          "ticks": 83760,
          "time": 402.69225400000005,
          "velocity": 0.8661417322834646
        },
        {
          "duration": 0.5769229999999652,
          "durationTicks": 120,
          "midi": 84,
          "name": "C6",
          "ticks": 83880,
          "time": 403.26917700000007,
          "velocity": 0.8661417322834646
        },
        {
          "duration": 0.5769230000000221,
          "durationTicks": 120,
          "midi": 83,
          "name": "B5",
          "ticks": 84000,
          "time": 403.84610000000004,
          "velocity": 0.8661417322834646
        },
        {
          "duration": 0.5769230000000221,
          "durationTicks": 120,
          "midi": 84,
          "name": "C6",
          "ticks": 84120,
          "time": 404.42302300000006,
          "velocity": 0.8661417322834646
        },
        {
          "duration": 2.3076919999999745,
          "durationTicks": 480,
          "midi": 82,
          "name": "A#5",
          "ticks": 84240,
          "time": 404.9999460000001,
          "velocity": 0.8661417322834646
        },
        {
          "duration": 0.14423075000001973,
          "durationTicks": 30,
          "midi": 82,
          "name": "A#5",
          "ticks": 84720,
          "time": 407.30763800000005,
          "velocity": 0.8661417322834646
        },
        {
          "duration": 0.14423074999996288,
          "durationTicks": 30,
          "midi": 84,
          "name": "C6",
          "ticks": 84750,
          "time": 407.4518687500001,
          "velocity": 0.8661417322834646
        },
        {
          "duration": 0.5769230000000221,
          "durationTicks": 120,
          "midi": 85,
          "name": "C#6",
          "ticks": 84780,
          "time": 407.59609950000004,
          "velocity": 0.8661417322834646
        },
        {
          "duration": 0.14423075000001973,
          "durationTicks": 30,
          "midi": 84,
          "name": "C6",
          "ticks": 84900,
          "time": 408.17302250000006,
          "velocity": 0.8661417322834646
        },
        {
          "duration": 0.14423074999996288,
          "durationTicks": 30,
          "midi": 82,
          "name": "A#5",
          "ticks": 84930,
          "time": 408.3172532500001,
          "velocity": 0.8661417322834646
        },
        {
          "duration": 1.7307690000000093,
          "durationTicks": 360,
          "midi": 80,
          "name": "G#5",
          "ticks": 84960,
          "time": 408.46148400000004,
          "velocity": 0.8661417322834646
        },
        {
          "duration": 0.5769230000000221,
          "durationTicks": 120,
          "midi": 77,
          "name": "F5",
          "ticks": 85320,
          "time": 410.19225300000005,
          "velocity": 0.8661417322834646
        },
        {
          "duration": 0.8653845000000047,
          "durationTicks": 180,
          "midi": 80,
          "name": "G#5",
          "ticks": 85440,
          "time": 410.7691760000001,
          "velocity": 0.8661417322834646
        },
        {
          "duration": 0.2884614999999826,
          "durationTicks": 60,
          "midi": 84,
          "name": "C6",
          "ticks": 85620,
          "time": 411.6345605000001,
          "velocity": 0.8661417322834646
        },
        {
          "duration": 1.7307690000000093,
          "durationTicks": 360,
          "midi": 79,
          "name": "G5",
          "ticks": 85680,
          "time": 411.92302200000006,
          "velocity": 0.8661417322834646
        },
        {
          "duration": 0.5769229999999652,
          "durationTicks": 120,
          "midi": 75,
          "name": "D#5",
          "ticks": 86040,
          "time": 413.65379100000007,
          "velocity": 0.8661417322834646
        },
        {
          "duration": 0.8653845000000047,
          "durationTicks": 180,
          "midi": 79,
          "name": "G5",
          "ticks": 86160,
          "time": 414.23071400000003,
          "velocity": 0.8661417322834646
        },
        {
          "duration": 0.28846150000003945,
          "durationTicks": 60,
          "midi": 84,
          "name": "C6",
          "ticks": 86340,
          "time": 415.09609850000004,
          "velocity": 0.8661417322834646
        },
        {
          "duration": 2.3076919999999745,
          "durationTicks": 480,
          "midi": 77,
          "name": "F5",
          "ticks": 86400,
          "time": 415.3845600000001,
          "velocity": 0.8661417322834646
        },
        {
          "duration": 0.14423075000001973,
          "durationTicks": 30,
          "midi": 77,
          "name": "F5",
          "ticks": 86880,
          "time": 417.69225200000005,
          "velocity": 0.8661417322834646
        },
        {
          "duration": 0.14423074999996288,
          "durationTicks": 30,
          "midi": 79,
          "name": "G5",
          "ticks": 86910,
          "time": 417.8364827500001,
          "velocity": 0.8661417322834646
        },
        {
          "duration": 0.5769230000000221,
          "durationTicks": 120,
          "midi": 80,
          "name": "G#5",
          "ticks": 86940,
          "time": 417.98071350000004,
          "velocity": 0.8661417322834646
        },
        {
          "duration": 0.14423075000001973,
          "durationTicks": 30,
          "midi": 79,
          "name": "G5",
          "ticks": 87060,
          "time": 418.55763650000006,
          "velocity": 0.8661417322834646
        },
        {
          "duration": 0.14423074999996288,
          "durationTicks": 30,
          "midi": 77,
          "name": "F5",
          "ticks": 87090,
          "time": 418.7018672500001,
          "velocity": 0.8661417322834646
        },
        {
          "duration": 2.3076920000000314,
          "durationTicks": 480,
          "midi": 75,
          "name": "D#5",
          "ticks": 87120,
          "time": 418.84609800000004,
          "velocity": 0.8661417322834646
        },
        {
          "duration": 0.14423074999996288,
          "durationTicks": 30,
          "midi": 75,
          "name": "D#5",
          "ticks": 87600,
          "time": 421.1537900000001,
          "velocity": 0.8661417322834646
        },
        {
          "duration": 0.14423075000001973,
          "durationTicks": 30,
          "midi": 77,
          "name": "F5",
          "ticks": 87630,
          "time": 421.29802075000003,
          "velocity": 0.8661417322834646
        },
        {
          "duration": 0.5769230000000221,
          "durationTicks": 120,
          "midi": 79,
          "name": "G5",
          "ticks": 87660,
          "time": 421.44225150000005,
          "velocity": 0.8661417322834646
        },
        {
          "duration": 0.14423074999996288,
          "durationTicks": 30,
          "midi": 77,
          "name": "F5",
          "ticks": 87780,
          "time": 422.0191745000001,
          "velocity": 0.8661417322834646
        },
        {
          "duration": 0.14423075000001973,
          "durationTicks": 30,
          "midi": 75,
          "name": "D#5",
          "ticks": 87810,
          "time": 422.16340525000004,
          "velocity": 0.8661417322834646
        },
        {
          "duration": 2.3076919999999745,
          "durationTicks": 480,
          "midi": 74,
          "name": "D5",
          "ticks": 87840,
          "time": 422.30763600000006,
          "velocity": 0.8661417322834646
        },
        {
          "duration": 0.14423075000001973,
          "durationTicks": 30,
          "midi": 74,
          "name": "D5",
          "ticks": 88320,
          "time": 424.61532800000003,
          "velocity": 0.8661417322834646
        },
        {
          "duration": 0.14423075000001973,
          "durationTicks": 30,
          "midi": 75,
          "name": "D#5",
          "ticks": 88350,
          "time": 424.75955875000005,
          "velocity": 0.8661417322834646
        },
        {
          "duration": 0.5769229999999652,
          "durationTicks": 120,
          "midi": 77,
          "name": "F5",
          "ticks": 88380,
          "time": 424.9037895000001,
          "velocity": 0.8661417322834646
        },
        {
          "duration": 0.14423075000001973,
          "durationTicks": 30,
          "midi": 75,
          "name": "D#5",
          "ticks": 88500,
          "time": 425.48071250000004,
          "velocity": 0.8661417322834646
        },
        {
          "duration": 0.14423075000001973,
          "durationTicks": 30,
          "midi": 74,
          "name": "D5",
          "ticks": 88530,
          "time": 425.62494325000006,
          "velocity": 0.8661417322834646
        },
        {
          "duration": 2.7692303999999694,
          "durationTicks": 576,
          "midi": 72,
          "name": "C5",
          "ticks": 88560,
          "time": 425.7691740000001,
          "velocity": 0.5039370078740157
        },
        {
          "duration": 6.9230759999999805,
          "durationTicks": 1440,
          "midi": 72,
          "name": "C5",
          "ticks": 88560,
          "time": 425.7691740000001,
          "velocity": 0.5039370078740157
        },
        {
          "duration": 2.4519227499999943,
          "durationTicks": 510,
          "midi": 72,
          "name": "C5",
          "ticks": 89520,
          "time": 430.3845580000001,
          "velocity": 0.8661417322834646
        },
        {
          "duration": 1.1538459999999873,
          "durationTicks": 240,
          "midi": 72,
          "name": "C5",
          "ticks": 90000,
          "time": 432.69225000000006,
          "velocity": 0.8661417322834646
        },
        {
          "duration": 0.14423074999996288,
          "durationTicks": 30,
          "midi": 74,
          "name": "D5",
          "ticks": 90030,
          "time": 432.8364807500001,
          "velocity": 0.8661417322834646
        },
        {
          "duration": 2.019230499999992,
          "durationTicks": 420,
          "midi": 75,
          "name": "D#5",
          "ticks": 90060,
          "time": 432.98071150000004,
          "velocity": 0.8661417322834646
        },
        {
          "duration": 0.2884614999999826,
          "durationTicks": 60,
          "midi": 70,
          "name": "A#4",
          "ticks": 100020,
          "time": 480.86532050000005,
          "velocity": 0.7086614173228346
        },
        {
          "duration": 3.4615380000000187,
          "durationTicks": 720,
          "midi": 70,
          "name": "A#4",
          "ticks": 100080,
          "time": 481.15378200000004,
          "velocity": 0.7086614173228346
        },
        {
          "duration": 0.14423075000001973,
          "durationTicks": 30,
          "midi": 69,
          "name": "A4",
          "ticks": 100800,
          "time": 484.61532000000005,
          "velocity": 0.7874015748031497
        },
        {
          "duration": 0.14423074999996288,
          "durationTicks": 30,
          "midi": 70,
          "name": "A#4",
          "ticks": 100830,
          "time": 484.7595507500001,
          "velocity": 0.7874015748031497
        },
        {
          "duration": 3.173076500000036,
          "durationTicks": 660,
          "midi": 72,
          "name": "C5",
          "ticks": 100860,
          "time": 484.90378150000004,
          "velocity": 0.7874015748031497
        },
        {
          "duration": 0.14423074999996288,
          "durationTicks": 30,
          "midi": 70,
          "name": "A#4",
          "ticks": 101520,
          "time": 488.0768580000001,
          "velocity": 0.7874015748031497
        },
        {
          "duration": 0.14423075000001973,
          "durationTicks": 30,
          "midi": 69,
          "name": "A4",
          "ticks": 101550,
          "time": 488.22108875000004,
          "velocity": 0.7874015748031497
        },
        {
          "duration": 3.173076500000036,
          "durationTicks": 660,
          "midi": 70,
          "name": "A#4",
          "ticks": 101580,
          "time": 488.36531950000006,
          "velocity": 0.7874015748031497
        },
        {
          "duration": 0.14423074999996288,
          "durationTicks": 30,
          "midi": 69,
          "name": "A4",
          "ticks": 102240,
          "time": 491.5383960000001,
          "velocity": 0.7874015748031497
        },
        {
          "duration": 0.14423075000001973,
          "durationTicks": 30,
          "midi": 67,
          "name": "G4",
          "ticks": 102270,
          "time": 491.68262675000005,
          "velocity": 0.7874015748031497
        },
        {
          "duration": 2.403845833333321,
          "durationTicks": 500,
          "midi": 69,
          "name": "A4",
          "ticks": 102300,
          "time": 491.8268575000001,
          "velocity": 0.7874015748031497
        },
        {
          "duration": 0.38461533333338593,
          "durationTicks": 80,
          "midi": 67,
          "name": "G4",
          "ticks": 102800,
          "time": 494.2307033333334,
          "velocity": 0.7874015748031497
        },
        {
          "duration": 0.38461533333327225,
          "durationTicks": 80,
          "midi": 66,
          "name": "F#4",
          "ticks": 102880,
          "time": 494.6153186666668,
          "velocity": 0.7874015748031497
        },
        {
          "duration": 10.384614,
          "durationTicks": 2160,
          "midi": 67,
          "name": "G4",
          "ticks": 102960,
          "time": 494.99993400000005,
          "velocity": 0.6299212598425197
        }
      ],
      "endOfTrackTicks": 105120
    },
    {
      "channel": 2,
      "controlChanges": {
        "7": [
          {
            "number": 7,
            "ticks": 0,
            "time": 0,
            "value": 0.8661417322834646
          }
        ],
        "10": [
          {
            "number": 10,
            "ticks": 0,
            "time": 0,
            "value": 0.2755905511811024
          }
        ]
      },
      "pitchBends": [],
      "instrument": {
        "family": "ensemble",
        "number": 49,
        "name": "string ensemble 2"
      },
      "name": "Strings",
      "notes": [
        {
          "duration": 0.8653845000000047,
          "durationTicks": 180,
          "midi": 60,
          "name": "C4",
          "ticks": 7200,
          "time": 34.61538,
          "velocity": 0.7086614173228346
        },
        {
          "duration": 0.2884614999999968,
          "durationTicks": 60,
          "midi": 62,
          "name": "D4",
          "ticks": 7380,
          "time": 35.48076450000001,
          "velocity": 0.7086614173228346
        },
        {
          "duration": 0.8653845000000047,
          "durationTicks": 180,
          "midi": 63,
          "name": "D#4",
          "ticks": 7440,
          "time": 35.769226,
          "velocity": 0.7086614173228346
        },
        {
          "duration": 0.2884614999999968,
          "durationTicks": 60,
          "midi": 62,
          "name": "D4",
          "ticks": 7620,
          "time": 36.63461050000001,
          "velocity": 0.7086614173228346
        },
        {
          "duration": 0.8653844999999976,
          "durationTicks": 180,
          "midi": 63,
          "name": "D#4",
          "ticks": 7680,
          "time": 36.923072000000005,
          "velocity": 0.7086614173228346
        },
        {
          "duration": 0.2884615000000039,
          "durationTicks": 60,
          "midi": 60,
          "name": "C4",
          "ticks": 7860,
          "time": 37.7884565,
          "velocity": 0.7086614173228346
        },
        {
          "duration": 1.7307690000000022,
          "durationTicks": 360,
          "midi": 66,
          "name": "F#4",
          "ticks": 7920,
          "time": 38.076918000000006,
          "velocity": 0.7086614173228346
        },
        {
          "duration": 0.8653845000000047,
          "durationTicks": 180,
          "midi": 62,
          "name": "D4",
          "ticks": 8640,
          "time": 41.538456000000004,
          "velocity": 0.7086614173228346
        },
        {
          "duration": 0.2884614999999968,
          "durationTicks": 60,
          "midi": 64,
          "name": "E4",
          "ticks": 8820,
          "time": 42.40384050000001,
          "velocity": 0.7086614173228346
        },
        {
          "duration": 0.8653844999999976,
          "durationTicks": 180,
          "midi": 66,
          "name": "F#4",
          "ticks": 8880,
          "time": 42.692302000000005,
          "velocity": 0.7086614173228346
        },
        {
          "duration": 0.2884615000000039,
          "durationTicks": 60,
          "midi": 62,
          "name": "D4",
          "ticks": 9060,
          "time": 43.5576865,
          "velocity": 0.7086614173228346
        },
        {
          "duration": 2.8846149999999966,
          "durationTicks": 600,
          "midi": 67,
          "name": "G4",
          "ticks": 9120,
          "time": 43.84614800000001,
          "velocity": 0.7086614173228346
        },
        {
          "duration": 2.307692000000003,
          "durationTicks": 480,
          "midi": 62,
          "name": "D4",
          "ticks": 9840,
          "time": 47.307686000000004,
          "velocity": 0.7086614173228346
        },
        {
          "duration": 0.5769230000000007,
          "durationTicks": 120,
          "midi": 60,
          "name": "C4",
          "ticks": 10320,
          "time": 49.61537800000001,
          "velocity": 0.7086614173228346
        },
        {
          "duration": 0.5769230000000007,
          "durationTicks": 120,
          "midi": 62,
          "name": "D4",
          "ticks": 10440,
          "time": 50.19230100000001,
          "velocity": 0.7086614173228346
        },
        {
          "duration": 0.3846153333333362,
          "durationTicks": 80,
          "midi": 58,
          "name": "A#3",
          "ticks": 10560,
          "time": 50.76922400000001,
          "velocity": 0.7086614173228346
        },
        {
          "duration": 0.3846153333333291,
          "durationTicks": 80,
          "midi": 60,
          "name": "C4",
          "ticks": 10640,
          "time": 51.153839333333345,
          "velocity": 0.7086614173228346
        },
        {
          "duration": 0.3846153333333362,
          "durationTicks": 80,
          "midi": 57,
          "name": "A3",
          "ticks": 10720,
          "time": 51.538454666666674,
          "velocity": 0.7086614173228346
        },
        {
          "duration": 2.307691999999996,
          "durationTicks": 480,
          "midi": 65,
          "name": "F4",
          "ticks": 10800,
          "time": 51.92307000000001,
          "velocity": 0.7086614173228346
        },
        {
          "duration": 2.307692000000003,
          "durationTicks": 480,
          "midi": 60,
          "name": "C4",
          "ticks": 11280,
          "time": 54.230762000000006,
          "velocity": 0.7086614173228346
        },
        {
          "duration": 0.5769230000000007,
          "durationTicks": 120,
          "midi": 58,
          "name": "A#3",
          "ticks": 11760,
          "time": 56.53845400000001,
          "velocity": 0.7086614173228346
        },
        {
          "duration": 0.5769230000000007,
          "durationTicks": 120,
          "midi": 60,
          "name": "C4",
          "ticks": 11880,
          "time": 57.11537700000001,
          "velocity": 0.7086614173228346
        },
        {
          "duration": 0.3846153333333362,
          "durationTicks": 80,
          "midi": 57,
          "name": "A3",
          "ticks": 12000,
          "time": 57.69230000000001,
          "velocity": 0.7086614173228346
        },
        {
          "duration": 0.384615333333322,
          "durationTicks": 80,
          "midi": 58,
          "name": "A#3",
          "ticks": 12080,
          "time": 58.076915333333346,
          "velocity": 0.7086614173228346
        },
        {
          "duration": 0.3846153333333362,
          "durationTicks": 80,
          "midi": 55,
          "name": "G3",
          "ticks": 12160,
          "time": 58.46153066666667,
          "velocity": 0.7086614173228346
        },
        {
          "duration": 2.307692000000003,
          "durationTicks": 480,
          "midi": 63,
          "name": "D#4",
          "ticks": 12240,
          "time": 58.846146000000005,
          "velocity": 0.7086614173228346
        },
        {
          "duration": 2.307692000000003,
          "durationTicks": 480,
          "midi": 58,
          "name": "A#3",
          "ticks": 12720,
          "time": 61.15383800000001,
          "velocity": 0.7086614173228346
        },
        {
          "duration": 0.5769229999999936,
          "durationTicks": 120,
          "midi": 57,
          "name": "A3",
          "ticks": 13200,
          "time": 63.46153000000001,
          "velocity": 0.7086614173228346
        },
        {
          "duration": 0.5769230000000078,
          "durationTicks": 120,
          "midi": 58,
          "name": "A#3",
          "ticks": 13320,
          "time": 64.038453,
          "velocity": 0.7086614173228346
        },
        {
          "duration": 0.3846153333333291,
          "durationTicks": 80,
          "midi": 60,
          "name": "C4",
          "ticks": 13440,
          "time": 64.61537600000001,
          "velocity": 0.7086614173228346
        },
        {
          "duration": 0.3846153333333291,
          "durationTicks": 80,
          "midi": 58,
          "name": "A#3",
          "ticks": 13520,
          "time": 64.99999133333334,
          "velocity": 0.7086614173228346
        },
        {
          "duration": 1.5384613333333448,
          "durationTicks": 320,
          "midi": 57,
          "name": "A3",
          "ticks": 13600,
          "time": 65.38460666666667,
          "velocity": 0.7086614173228346
        },
        {
          "duration": 0.5769229999999936,
          "durationTicks": 120,
          "midi": 55,
          "name": "G3",
          "ticks": 13920,
          "time": 66.92306800000001,
          "velocity": 0.7086614173228346
        },
        {
          "duration": 0.5769229999999936,
          "durationTicks": 120,
          "midi": 66,
          "name": "F#4",
          "ticks": 14040,
          "time": 67.49999100000001,
          "velocity": 0.7086614173228346
        },
        {
          "duration": 0.5769230000000078,
          "durationTicks": 120,
          "midi": 67,
          "name": "G4",
          "ticks": 14160,
          "time": 68.076914,
          "velocity": 0.7086614173228346
        },
        {
          "duration": 0.5769229999999936,
          "durationTicks": 120,
          "midi": 69,
          "name": "A4",
          "ticks": 14280,
          "time": 68.65383700000001,
          "velocity": 0.7086614173228346
        },
        {
          "duration": 5.769230000000007,
          "durationTicks": 1200,
          "midi": 67,
          "name": "G4",
          "ticks": 14400,
          "time": 69.23076,
          "velocity": 0.7086614173228346
        },
        {
          "duration": 5.769230000000007,
          "durationTicks": 1200,
          "midi": 74,
          "name": "D5",
          "ticks": 14400,
          "time": 69.23076,
          "velocity": 0.7086614173228346
        },
        {
          "duration": 0.8653844999999762,
          "durationTicks": 180,
          "midi": 60,
          "name": "C4",
          "ticks": 27360,
          "time": 131.53844400000003,
          "velocity": 0.7086614173228346
        },
        {
          "duration": 0.28846150000001103,
          "durationTicks": 60,
          "midi": 62,
          "name": "D4",
          "ticks": 27540,
          "time": 132.4038285,
          "velocity": 0.7086614173228346
        },
        {
          "duration": 0.8653845000000047,
          "durationTicks": 180,
          "midi": 63,
          "name": "D#4",
          "ticks": 27600,
          "time": 132.69229,
          "velocity": 0.7086614173228346
        },
        {
          "duration": 0.28846150000001103,
          "durationTicks": 60,
          "midi": 62,
          "name": "D4",
          "ticks": 27780,
          "time": 133.55767450000002,
          "velocity": 0.7086614173228346
        },
        {
          "duration": 0.8653844999999762,
          "durationTicks": 180,
          "midi": 63,
          "name": "D#4",
          "ticks": 27840,
          "time": 133.84613600000003,
          "velocity": 0.7086614173228346
        },
        {
          "duration": 0.28846150000001103,
          "durationTicks": 60,
          "midi": 60,
          "name": "C4",
          "ticks": 28020,
          "time": 134.7115205,
          "velocity": 0.7086614173228346
        },
        {
          "duration": 1.7307690000000093,
          "durationTicks": 360,
          "midi": 66,
          "name": "F#4",
          "ticks": 28080,
          "time": 134.99998200000002,
          "velocity": 0.7086614173228346
        },
        {
          "duration": 0.8653845000000047,
          "durationTicks": 180,
          "midi": 62,
          "name": "D4",
          "ticks": 28800,
          "time": 138.46152,
          "velocity": 0.7086614173228346
        },
        {
          "duration": 0.28846150000001103,
          "durationTicks": 60,
          "midi": 64,
          "name": "E4",
          "ticks": 28980,
          "time": 139.3269045,
          "velocity": 0.7086614173228346
        },
        {
          "duration": 0.8653845000000047,
          "durationTicks": 180,
          "midi": 66,
          "name": "F#4",
          "ticks": 29040,
          "time": 139.61536600000002,
          "velocity": 0.7086614173228346
        },
        {
          "duration": 0.2884614999999826,
          "durationTicks": 60,
          "midi": 62,
          "name": "D4",
          "ticks": 29220,
          "time": 140.48075050000003,
          "velocity": 0.7086614173228346
        },
        {
          "duration": 2.8846149999999966,
          "durationTicks": 600,
          "midi": 67,
          "name": "G4",
          "ticks": 29280,
          "time": 140.769212,
          "velocity": 0.7086614173228346
        },
        {
          "duration": 2.307692000000003,
          "durationTicks": 480,
          "midi": 62,
          "name": "D4",
          "ticks": 30000,
          "time": 144.23075000000003,
          "velocity": 0.7086614173228346
        },
        {
          "duration": 0.5769229999999936,
          "durationTicks": 120,
          "midi": 60,
          "name": "C4",
          "ticks": 30480,
          "time": 146.53844200000003,
          "velocity": 0.7086614173228346
        },
        {
          "duration": 0.5769229999999936,
          "durationTicks": 120,
          "midi": 62,
          "name": "D4",
          "ticks": 30600,
          "time": 147.11536500000003,
          "velocity": 0.7086614173228346
        },
        {
          "duration": 0.3846153333333575,
          "durationTicks": 80,
          "midi": 58,
          "name": "A#3",
          "ticks": 30720,
          "time": 147.69228800000002,
          "velocity": 0.7086614173228346
        },
        {
          "duration": 0.38461533333330067,
          "durationTicks": 80,
          "midi": 60,
          "name": "C4",
          "ticks": 30800,
          "time": 148.07690333333338,
          "velocity": 0.7086614173228346
        },
        {
          "duration": 0.3846153333333291,
          "durationTicks": 80,
          "midi": 57,
          "name": "A3",
          "ticks": 30880,
          "time": 148.46151866666668,
          "velocity": 0.7086614173228346
        },
        {
          "duration": 2.307692000000003,
          "durationTicks": 480,
          "midi": 65,
          "name": "F4",
          "ticks": 30960,
          "time": 148.846134,
          "velocity": 0.7086614173228346
        },
        {
          "duration": 2.307692000000003,
          "durationTicks": 480,
          "midi": 60,
          "name": "C4",
          "ticks": 31440,
          "time": 151.153826,
          "velocity": 0.7086614173228346
        },
        {
          "duration": 0.5769229999999936,
          "durationTicks": 120,
          "midi": 58,
          "name": "A#3",
          "ticks": 31920,
          "time": 153.461518,
          "velocity": 0.7086614173228346
        },
        {
          "duration": 0.5769230000000221,
          "durationTicks": 120,
          "midi": 60,
          "name": "C4",
          "ticks": 32040,
          "time": 154.038441,
          "velocity": 0.7086614173228346
        },
        {
          "duration": 0.3846153333333291,
          "durationTicks": 80,
          "midi": 57,
          "name": "A3",
          "ticks": 32160,
          "time": 154.61536400000003,
          "velocity": 0.7086614173228346
        },
        {
          "duration": 0.3846153333333291,
          "durationTicks": 80,
          "midi": 58,
          "name": "A#3",
          "ticks": 32240,
          "time": 154.99997933333336,
          "velocity": 0.7086614173228346
        },
        {
          "duration": 0.3846153333333291,
          "durationTicks": 80,
          "midi": 55,
          "name": "G3",
          "ticks": 32320,
          "time": 155.3845946666667,
          "velocity": 0.7086614173228346
        },
        {
          "duration": 2.307692000000003,
          "durationTicks": 480,
          "midi": 63,
          "name": "D#4",
          "ticks": 32400,
          "time": 155.76921000000002,
          "velocity": 0.7086614173228346
        },
        {
          "duration": 2.307692000000003,
          "durationTicks": 480,
          "midi": 58,
          "name": "A#3",
          "ticks": 32880,
          "time": 158.07690200000002,
          "velocity": 0.7086614173228346
        },
        {
          "duration": 0.5769229999999936,
          "durationTicks": 120,
          "midi": 57,
          "name": "A3",
          "ticks": 33360,
          "time": 160.38459400000002,
          "velocity": 0.7086614173228346
        },
        {
          "duration": 0.5769229999999936,
          "durationTicks": 120,
          "midi": 58,
          "name": "A#3",
          "ticks": 33480,
          "time": 160.96151700000001,
          "velocity": 0.7086614173228346
        },
        {
          "duration": 0.3846153333333575,
          "durationTicks": 80,
          "midi": 60,
          "name": "C4",
          "ticks": 33600,
          "time": 161.53844,
          "velocity": 0.7086614173228346
        },
        {
          "duration": 0.38461533333330067,
          "durationTicks": 80,
          "midi": 58,
          "name": "A#3",
          "ticks": 33680,
          "time": 161.92305533333337,
          "velocity": 0.7086614173228346
        },
        {
          "duration": 1.5384613333333448,
          "durationTicks": 320,
          "midi": 57,
          "name": "A3",
          "ticks": 33760,
          "time": 162.30767066666667,
          "velocity": 0.7086614173228346
        },
        {
          "duration": 0.5769230000000221,
          "durationTicks": 120,
          "midi": 55,
          "name": "G3",
          "ticks": 34080,
          "time": 163.846132,
          "velocity": 0.7086614173228346
        },
        {
          "duration": 0.5769229999999936,
          "durationTicks": 120,
          "midi": 66,
          "name": "F#4",
          "ticks": 34200,
          "time": 164.42305500000003,
          "velocity": 0.7086614173228346
        },
        {
          "duration": 0.5769229999999936,
          "durationTicks": 120,
          "midi": 67,
          "name": "G4",
          "ticks": 34320,
          "time": 164.99997800000003,
          "velocity": 0.7086614173228346
        },
        {
          "duration": 0.5769229999999936,
          "durationTicks": 120,
          "midi": 69,
          "name": "A4",
          "ticks": 34440,
          "time": 165.57690100000002,
          "velocity": 0.7086614173228346
        },
        {
          "duration": 5.769230000000022,
          "durationTicks": 1200,
          "midi": 74,
          "name": "D5",
          "ticks": 34560,
          "time": 166.15382400000001,
          "velocity": 0.7086614173228346
        },
        {
          "duration": 5.769230000000022,
          "durationTicks": 1200,
          "midi": 67,
          "name": "G4",
          "ticks": 34560,
          "time": 166.15382400000001,
          "velocity": 0.7086614173228346
        },
        {
          "duration": 1.1538459999999873,
          "durationTicks": 240,
          "midi": 67,
          "name": "G4",
          "ticks": 63360,
          "time": 304.61534400000005,
          "velocity": 0.8661417322834646
        },
        {
          "duration": 0.8653845000000047,
          "durationTicks": 180,
          "midi": 65,
          "name": "F4",
          "ticks": 63600,
          "time": 305.76919000000004,
          "velocity": 0.8661417322834646
        },
        {
          "duration": 0.2884614999999826,
          "durationTicks": 60,
          "midi": 63,
          "name": "D#4",
          "ticks": 63780,
          "time": 306.63457450000004,
          "velocity": 0.8661417322834646
        },
        {
          "duration": 0.8653845000000047,
          "durationTicks": 180,
          "midi": 62,
          "name": "D4",
          "ticks": 63840,
          "time": 306.923036,
          "velocity": 0.8661417322834646
        },
        {
          "duration": 0.2884614999999826,
          "durationTicks": 60,
          "midi": 60,
          "name": "C4",
          "ticks": 64020,
          "time": 307.78842050000003,
          "velocity": 0.8661417322834646
        },
        {
          "duration": 2.3076920000000314,
          "durationTicks": 480,
          "midi": 60,
          "name": "C4",
          "ticks": 64080,
          "time": 308.076882,
          "velocity": 0.8661417322834646
        },
        {
          "duration": 1.1538459999999873,
          "durationTicks": 240,
          "midi": 59,
          "name": "B3",
          "ticks": 64560,
          "time": 310.38457400000004,
          "velocity": 0.8661417322834646
        },
        {
          "duration": 1.1538459999999873,
          "durationTicks": 240,
          "midi": 68,
          "name": "G#4",
          "ticks": 64800,
          "time": 311.53842000000003,
          "velocity": 0.8661417322834646
        },
        {
          "duration": 0.8653845000000047,
          "durationTicks": 180,
          "midi": 67,
          "name": "G4",
          "ticks": 65040,
          "time": 312.692266,
          "velocity": 0.8661417322834646
        },
        {
          "duration": 0.28846150000003945,
          "durationTicks": 60,
          "midi": 65,
          "name": "F4",
          "ticks": 65220,
          "time": 313.5576505,
          "velocity": 0.8661417322834646
        },
        {
          "duration": 0.8653845000000047,
          "durationTicks": 180,
          "midi": 63,
          "name": "D#4",
          "ticks": 65280,
          "time": 313.84611200000006,
          "velocity": 0.8661417322834646
        },
        {
          "duration": 0.2884614999999826,
          "durationTicks": 60,
          "midi": 62,
          "name": "D4",
          "ticks": 65460,
          "time": 314.71149650000007,
          "velocity": 0.8661417322834646
        },
        {
          "duration": 2.3076919999999745,
          "durationTicks": 480,
          "midi": 62,
          "name": "D4",
          "ticks": 65520,
          "time": 314.99995800000005,
          "velocity": 0.8661417322834646
        },
        {
          "duration": 1.1538460000000441,
          "durationTicks": 240,
          "midi": 60,
          "name": "C4",
          "ticks": 66000,
          "time": 317.30765,
          "velocity": 0.8661417322834646
        },
        {
          "duration": 1.1538459999999873,
          "durationTicks": 240,
          "midi": 72,
          "name": "C5",
          "ticks": 66240,
          "time": 318.46149600000007,
          "velocity": 0.8661417322834646
        },
        {
          "duration": 0.5769229999999652,
          "durationTicks": 120,
          "midi": 70,
          "name": "A#4",
          "ticks": 66480,
          "time": 319.61534200000006,
          "velocity": 0.8661417322834646
        },
        {
          "duration": 0.5769230000000221,
          "durationTicks": 120,
          "midi": 72,
          "name": "C5",
          "ticks": 66600,
          "time": 320.192265,
          "velocity": 0.8661417322834646
        },
        {
          "duration": 0.3846153333333291,
          "durationTicks": 80,
          "midi": 68,
          "name": "G#4",
          "ticks": 66720,
          "time": 320.76918800000004,
          "velocity": 0.8661417322834646
        },
        {
          "duration": 0.38461533333338593,
          "durationTicks": 80,
          "midi": 70,
          "name": "A#4",
          "ticks": 66800,
          "time": 321.15380333333337,
          "velocity": 0.8661417322834646
        },
        {
          "duration": 0.38461533333327225,
          "durationTicks": 80,
          "midi": 67,
          "name": "G4",
          "ticks": 66880,
          "time": 321.53841866666676,
          "velocity": 0.8661417322834646
        },
        {
          "duration": 3.4615380000000187,
          "durationTicks": 720,
          "midi": 68,
          "name": "G#4",
          "ticks": 66960,
          "time": 321.92303400000003,
          "velocity": 0.8661417322834646
        },
        {
          "duration": 1.1538459999999873,
          "durationTicks": 240,
          "midi": 70,
          "name": "A#4",
          "ticks": 67680,
          "time": 325.38457200000005,
          "velocity": 0.8661417322834646
        },
        {
          "duration": 0.5769230000000221,
          "durationTicks": 120,
          "midi": 68,
          "name": "G#4",
          "ticks": 67920,
          "time": 326.53841800000004,
          "velocity": 0.8661417322834646
        },
        {
          "duration": 0.5769229999999652,
          "durationTicks": 120,
          "midi": 70,
          "name": "A#4",
          "ticks": 68040,
          "time": 327.11534100000006,
          "velocity": 0.8661417322834646
        },
        {
          "duration": 0.3846153333333291,
          "durationTicks": 80,
          "midi": 67,
          "name": "G4",
          "ticks": 68160,
          "time": 327.692264,
          "velocity": 0.8661417322834646
        },
        {
          "duration": 0.38461533333338593,
          "durationTicks": 80,
          "midi": 68,
          "name": "G#4",
          "ticks": 68240,
          "time": 328.07687933333335,
          "velocity": 0.8661417322834646
        },
        {
          "duration": 0.3846153333333291,
          "durationTicks": 80,
          "midi": 65,
          "name": "F4",
          "ticks": 68320,
          "time": 328.46149466666674,
          "velocity": 0.8661417322834646
        },
        {
          "duration": 3.461537999999962,
          "durationTicks": 720,
          "midi": 67,
          "name": "G4",
          "ticks": 68400,
          "time": 328.84611000000007,
          "velocity": 0.8661417322834646
        },
        {
          "duration": 1.7307690000000093,
          "durationTicks": 360,
          "midi": 69,
          "name": "A4",
          "ticks": 69120,
          "time": 332.30764800000003,
          "velocity": 0.7086614173228346
        },
        {
          "duration": 0.5769230000000221,
          "durationTicks": 120,
          "midi": 69,
          "name": "A4",
          "ticks": 69480,
          "time": 334.03841700000004,
          "velocity": 0.7086614173228346
        },
        {
          "duration": 0.8653845000000047,
          "durationTicks": 180,
          "midi": 70,
          "name": "A#4",
          "ticks": 69600,
          "time": 334.61534000000006,
          "velocity": 0.7086614173228346
        },
        {
          "duration": 0.2884614999999826,
          "durationTicks": 60,
          "midi": 72,
          "name": "C5",
          "ticks": 69780,
          "time": 335.48072450000006,
          "velocity": 0.7086614173228346
        },
        {
          "duration": 5.192306999999971,
          "durationTicks": 1080,
          "midi": 70,
          "name": "A#4",
          "ticks": 69840,
          "time": 335.76918600000005,
          "velocity": 0.7086614173228346
        },
        {
          "duration": 0.5769230000000221,
          "durationTicks": 120,
          "midi": 69,
          "name": "A4",
          "ticks": 70920,
          "time": 340.961493,
          "velocity": 0.7086614173228346
        },
        {
          "duration": 0.8653845000000047,
          "durationTicks": 180,
          "midi": 70,
          "name": "A#4",
          "ticks": 71040,
          "time": 341.53841600000004,
          "velocity": 0.7086614173228346
        },
        {
          "duration": 0.2884614999999826,
          "durationTicks": 60,
          "midi": 72,
          "name": "C5",
          "ticks": 71220,
          "time": 342.40380050000005,
          "velocity": 0.7086614173228346
        },
        {
          "duration": 5.192307000000028,
          "durationTicks": 1080,
          "midi": 70,
          "name": "A#4",
          "ticks": 71280,
          "time": 342.692262,
          "velocity": 0.7086614173228346
        },
        {
          "duration": 0.5769229999999652,
          "durationTicks": 120,
          "midi": 69,
          "name": "A4",
          "ticks": 72360,
          "time": 347.88456900000006,
          "velocity": 0.7086614173228346
        },
        {
          "duration": 0.8653845000000047,
          "durationTicks": 180,
          "midi": 70,
          "name": "A#4",
          "ticks": 72480,
          "time": 348.461492,
          "velocity": 0.7086614173228346
        },
        {
          "duration": 0.28846150000003945,
          "durationTicks": 60,
          "midi": 72,
          "name": "C5",
          "ticks": 72660,
          "time": 349.3268765,
          "velocity": 0.7086614173228346
        },
        {
          "duration": 0.5769230000000221,
          "durationTicks": 120,
          "midi": 72,
          "name": "C5",
          "ticks": 83400,
          "time": 400.96148500000004,
          "velocity": 0.8661417322834646
        },
        {
          "duration": 0.5769229999999652,
          "durationTicks": 120,
          "midi": 74,
          "name": "D5",
          "ticks": 83520,
          "time": 401.53840800000006,
          "velocity": 0.8661417322834646
        },
        {
          "duration": 0.5769230000000221,
          "durationTicks": 120,
          "midi": 75,
          "name": "D#5",
          "ticks": 83640,
          "time": 402.115331,
          "velocity": 0.8661417322834646
        },
        {
          "duration": 0.5769230000000221,
          "durationTicks": 120,
          "midi": 74,
          "name": "D5",
          "ticks": 83760,
          "time": 402.69225400000005,
          "velocity": 0.8661417322834646
        },
        {
          "duration": 0.5769229999999652,
          "durationTicks": 120,
          "midi": 72,
          "name": "C5",
          "ticks": 83880,
          "time": 403.26917700000007,
          "velocity": 0.8661417322834646
        },
        {
          "duration": 0.5769230000000221,
          "durationTicks": 120,
          "midi": 71,
          "name": "B4",
          "ticks": 84000,
          "time": 403.84610000000004,
          "velocity": 0.8661417322834646
        },
        {
          "duration": 0.5769230000000221,
          "durationTicks": 120,
          "midi": 72,
          "name": "C5",
          "ticks": 84120,
          "time": 404.42302300000006,
          "velocity": 0.8661417322834646
        },
        {
          "duration": 2.3076919999999745,
          "durationTicks": 480,
          "midi": 70,
          "name": "A#4",
          "ticks": 84240,
          "time": 404.9999460000001,
          "velocity": 0.8661417322834646
        },
        {
          "duration": 0.14423075000001973,
          "durationTicks": 30,
          "midi": 70,
          "name": "A#4",
          "ticks": 84720,
          "time": 407.30763800000005,
          "velocity": 0.8661417322834646
        },
        {
          "duration": 0.14423074999996288,
          "durationTicks": 30,
          "midi": 72,
          "name": "C5",
          "ticks": 84750,
          "time": 407.4518687500001,
          "velocity": 0.8661417322834646
        },
        {
          "duration": 0.5769230000000221,
          "durationTicks": 120,
          "midi": 73,
          "name": "C#5",
          "ticks": 84780,
          "time": 407.59609950000004,
          "velocity": 0.8661417322834646
        },
        {
          "duration": 0.14423075000001973,
          "durationTicks": 30,
          "midi": 72,
          "name": "C5",
          "ticks": 84900,
          "time": 408.17302250000006,
          "velocity": 0.8661417322834646
        },
        {
          "duration": 0.14423074999996288,
          "durationTicks": 30,
          "midi": 70,
          "name": "A#4",
          "ticks": 84930,
          "time": 408.3172532500001,
          "velocity": 0.8661417322834646
        },
        {
          "duration": 1.7307690000000093,
          "durationTicks": 360,
          "midi": 68,
          "name": "G#4",
          "ticks": 84960,
          "time": 408.46148400000004,
          "velocity": 0.8661417322834646
        },
        {
          "duration": 0.5769230000000221,
          "durationTicks": 120,
          "midi": 65,
          "name": "F4",
          "ticks": 85320,
          "time": 410.19225300000005,
          "velocity": 0.8661417322834646
        },
        {
          "duration": 0.8653845000000047,
          "durationTicks": 180,
          "midi": 68,
          "name": "G#4",
          "ticks": 85440,
          "time": 410.7691760000001,
          "velocity": 0.8661417322834646
        },
        {
          "duration": 0.2884614999999826,
          "durationTicks": 60,
          "midi": 72,
          "name": "C5",
          "ticks": 85620,
          "time": 411.6345605000001,
          "velocity": 0.8661417322834646
        },
        {
          "duration": 1.7307690000000093,
          "durationTicks": 360,
          "midi": 67,
          "name": "G4",
          "ticks": 85680,
          "time": 411.92302200000006,
          "velocity": 0.8661417322834646
        },
        {
          "duration": 0.5769229999999652,
          "durationTicks": 120,
          "midi": 63,
          "name": "D#4",
          "ticks": 86040,
          "time": 413.65379100000007,
          "velocity": 0.8661417322834646
        },
        {
          "duration": 0.8653845000000047,
          "durationTicks": 180,
          "midi": 67,
          "name": "G4",
          "ticks": 86160,
          "time": 414.23071400000003,
          "velocity": 0.8661417322834646
        },
        {
          "duration": 0.28846150000003945,
          "durationTicks": 60,
          "midi": 72,
          "name": "C5",
          "ticks": 86340,
          "time": 415.09609850000004,
          "velocity": 0.8661417322834646
        },
        {
          "duration": 2.3076919999999745,
          "durationTicks": 480,
          "midi": 65,
          "name": "F4",
          "ticks": 86400,
          "time": 415.3845600000001,
          "velocity": 0.8661417322834646
        },
        {
          "duration": 0.14423075000001973,
          "durationTicks": 30,
          "midi": 65,
          "name": "F4",
          "ticks": 86880,
          "time": 417.69225200000005,
          "velocity": 0.8661417322834646
        },
        {
          "duration": 0.14423074999996288,
          "durationTicks": 30,
          "midi": 67,
          "name": "G4",
          "ticks": 86910,
          "time": 417.8364827500001,
          "velocity": 0.8661417322834646
        },
        {
          "duration": 0.5769230000000221,
          "durationTicks": 120,
          "midi": 68,
          "name": "G#4",
          "ticks": 86940,
          "time": 417.98071350000004,
          "velocity": 0.8661417322834646
        },
        {
          "duration": 0.14423075000001973,
          "durationTicks": 30,
          "midi": 67,
          "name": "G4",
          "ticks": 87060,
          "time": 418.55763650000006,
          "velocity": 0.8661417322834646
        },
        {
          "duration": 0.14423074999996288,
          "durationTicks": 30,
          "midi": 65,
          "name": "F4",
          "ticks": 87090,
          "time": 418.7018672500001,
          "velocity": 0.8661417322834646
        },
        {
          "duration": 2.3076920000000314,
          "durationTicks": 480,
          "midi": 63,
          "name": "D#4",
          "ticks": 87120,
          "time": 418.84609800000004,
          "velocity": 0.8661417322834646
        },
        {
          "duration": 0.14423074999996288,
          "durationTicks": 30,
          "midi": 63,
          "name": "D#4",
          "ticks": 87600,
          "time": 421.1537900000001,
          "velocity": 0.8661417322834646
        },
        {
          "duration": 0.14423075000001973,
          "durationTicks": 30,
          "midi": 65,
          "name": "F4",
          "ticks": 87630,
          "time": 421.29802075000003,
          "velocity": 0.8661417322834646
        },
        {
          "duration": 0.5769230000000221,
          "durationTicks": 120,
          "midi": 67,
          "name": "G4",
          "ticks": 87660,
          "time": 421.44225150000005,
          "velocity": 0.8661417322834646
        },
        {
          "duration": 0.14423074999996288,
          "durationTicks": 30,
          "midi": 65,
          "name": "F4",
          "ticks": 87780,
          "time": 422.0191745000001,
          "velocity": 0.8661417322834646
        },
        {
          "duration": 0.14423075000001973,
          "durationTicks": 30,
          "midi": 63,
          "name": "D#4",
          "ticks": 87810,
          "time": 422.16340525000004,
          "velocity": 0.8661417322834646
        },
        {
          "duration": 2.3076919999999745,
          "durationTicks": 480,
          "midi": 62,
          "name": "D4",
          "ticks": 87840,
          "time": 422.30763600000006,
          "velocity": 0.8661417322834646
        },
        {
          "duration": 0.14423075000001973,
          "durationTicks": 30,
          "midi": 62,
          "name": "D4",
          "ticks": 88320,
          "time": 424.61532800000003,
          "velocity": 0.8661417322834646
        },
        {
          "duration": 0.14423075000001973,
          "durationTicks": 30,
          "midi": 63,
          "name": "D#4",
          "ticks": 88350,
          "time": 424.75955875000005,
          "velocity": 0.8661417322834646
        },
        {
          "duration": 0.5769229999999652,
          "durationTicks": 120,
          "midi": 65,
          "name": "F4",
          "ticks": 88380,
          "time": 424.9037895000001,
          "velocity": 0.8661417322834646
        },
        {
          "duration": 0.14423075000001973,
          "durationTicks": 30,
          "midi": 63,
          "name": "D#4",
          "ticks": 88500,
          "time": 425.48071250000004,
          "velocity": 0.8661417322834646
        },
        {
          "duration": 0.14423075000001973,
          "durationTicks": 30,
          "midi": 62,
          "name": "D4",
          "ticks": 88530,
          "time": 425.62494325000006,
          "velocity": 0.8661417322834646
        },
        {
          "duration": 0.5769229999999652,
          "durationTicks": 120,
          "midi": 60,
          "name": "C4",
          "ticks": 88560,
          "time": 425.7691740000001,
          "velocity": 0.7086614173228346
        },
        {
          "duration": 3.461537999999962,
          "durationTicks": 720,
          "midi": 60,
          "name": "C4",
          "ticks": 88560,
          "time": 425.7691740000001,
          "velocity": 0.8661417322834646
        },
        {
          "duration": 0.14423075000001973,
          "durationTicks": 30,
          "midi": 60,
          "name": "C4",
          "ticks": 89280,
          "time": 429.23071200000004,
          "velocity": 0.8661417322834646
        },
        {
          "duration": 0.14423075000001973,
          "durationTicks": 30,
          "midi": 62,
          "name": "D4",
          "ticks": 89310,
          "time": 429.37494275000006,
          "velocity": 0.8661417322834646
        },
        {
          "duration": 3.173076499999979,
          "durationTicks": 660,
          "midi": 63,
          "name": "D#4",
          "ticks": 89340,
          "time": 429.5191735000001,
          "velocity": 0.8661417322834646
        },
        {
          "duration": 0.14423075000001973,
          "durationTicks": 30,
          "midi": 60,
          "name": "C4",
          "ticks": 90000,
          "time": 432.69225000000006,
          "velocity": 0.8661417322834646
        },
        {
          "duration": 0.14423074999996288,
          "durationTicks": 30,
          "midi": 62,
          "name": "D4",
          "ticks": 90030,
          "time": 432.8364807500001,
          "velocity": 0.8661417322834646
        },
        {
          "duration": 2.019230499999992,
          "durationTicks": 420,
          "midi": 63,
          "name": "D#4",
          "ticks": 90060,
          "time": 432.98071150000004,
          "velocity": 0.8661417322834646
        },
        {
          "duration": 0.2884614999999826,
          "durationTicks": 60,
          "midi": 67,
          "name": "G4",
          "ticks": 100020,
          "time": 480.86532050000005,
          "velocity": 0.7086614173228346
        },
        {
          "duration": 3.4615380000000187,
          "durationTicks": 720,
          "midi": 67,
          "name": "G4",
          "ticks": 100080,
          "time": 481.15378200000004,
          "velocity": 0.7086614173228346
        },
        {
          "duration": 3.4615380000000187,
          "durationTicks": 720,
          "midi": 67,
          "name": "G4",
          "ticks": 100800,
          "time": 484.61532000000005,
          "velocity": 0.6299212598425197
        },
        {
          "duration": 3.4615380000000187,
          "durationTicks": 720,
          "midi": 69,
          "name": "A4",
          "ticks": 100800,
          "time": 484.61532000000005,
          "velocity": 0.6299212598425197
        },
        {
          "duration": 3.4615380000000187,
          "durationTicks": 720,
          "midi": 64,
          "name": "E4",
          "ticks": 101520,
          "time": 488.0768580000001,
          "velocity": 0.6299212598425197
        },
        {
          "duration": 3.4615380000000187,
          "durationTicks": 720,
          "midi": 67,
          "name": "G4",
          "ticks": 101520,
          "time": 488.0768580000001,
          "velocity": 0.6299212598425197
        },
        {
          "duration": 2.3076919999999745,
          "durationTicks": 480,
          "midi": 67,
          "name": "G4",
          "ticks": 102240,
          "time": 491.5383960000001,
          "velocity": 0.6299212598425197
        },
        {
          "duration": 1.1538459999999873,
          "durationTicks": 240,
          "midi": 66,
          "name": "F#4",
          "ticks": 102720,
          "time": 493.84608800000007,
          "velocity": 0.6299212598425197
        }
      ],
      "endOfTrackTicks": 102960
    },
    {
      "channel": 3,
      "controlChanges": {
        "7": [
          {
            "number": 7,
            "ticks": 0,
            "time": 0,
            "value": 0.8661417322834646
          }
        ],
        "10": [
          {
            "number": 10,
            "ticks": 0,
            "time": 0,
            "value": 0.5905511811023622
          }
        ]
      },
      "pitchBends": [],
      "instrument": {
        "family": "ensemble",
        "number": 49,
        "name": "string ensemble 2"
      },
      "name": "Strings",
      "notes": [
        {
          "duration": 2.019230499999999,
          "durationTicks": 420,
          "midi": 62,
          "name": "D4",
          "ticks": 6480,
          "time": 31.153842000000004,
          "velocity": 0.7086614173228346
        },
        {
          "duration": 0.2884615000000039,
          "durationTicks": 60,
          "midi": 55,
          "name": "G3",
          "ticks": 6900,
          "time": 33.1730725,
          "velocity": 0.7086614173228346
        },
        {
          "duration": 0.8653844999999976,
          "durationTicks": 180,
          "midi": 57,
          "name": "A3",
          "ticks": 6960,
          "time": 33.46153400000001,
          "velocity": 0.7086614173228346
        },
        {
          "duration": 0.2884614999999968,
          "durationTicks": 60,
          "midi": 58,
          "name": "A#3",
          "ticks": 7140,
          "time": 34.326918500000005,
          "velocity": 0.7086614173228346
        },
        {
          "duration": 5.4807685000000035,
          "durationTicks": 1140,
          "midi": 60,
          "name": "C4",
          "ticks": 7200,
          "time": 34.61538,
          "velocity": 0.7086614173228346
        },
        {
          "duration": 0.2884614999999968,
          "durationTicks": 60,
          "midi": 57,
          "name": "A3",
          "ticks": 8340,
          "time": 40.096148500000005,
          "velocity": 0.7086614173228346
        },
        {
          "duration": 0.8653845000000047,
          "durationTicks": 180,
          "midi": 58,
          "name": "A#3",
          "ticks": 8400,
          "time": 40.38461,
          "velocity": 0.7086614173228346
        },
        {
          "duration": 0.2884614999999968,
          "durationTicks": 60,
          "midi": 60,
          "name": "C4",
          "ticks": 8580,
          "time": 41.24999450000001,
          "velocity": 0.7086614173228346
        },
        {
          "duration": 3.4615380000000044,
          "durationTicks": 720,
          "midi": 62,
          "name": "D4",
          "ticks": 8640,
          "time": 41.538456000000004,
          "velocity": 0.7086614173228346
        },
        {
          "duration": 2.307691999999996,
          "durationTicks": 480,
          "midi": 62,
          "name": "D4",
          "ticks": 9360,
          "time": 44.99999400000001,
          "velocity": 0.7086614173228346
        },
        {
          "duration": 2.307692000000003,
          "durationTicks": 480,
          "midi": 67,
          "name": "G4",
          "ticks": 9840,
          "time": 47.307686000000004,
          "velocity": 0.7086614173228346
        },
        {
          "duration": 1.1538460000000015,
          "durationTicks": 240,
          "midi": 63,
          "name": "D#4",
          "ticks": 10320,
          "time": 49.61537800000001,
          "velocity": 0.7086614173228346
        },
        {
          "duration": 1.1538460000000015,
          "durationTicks": 240,
          "midi": 67,
          "name": "G4",
          "ticks": 10560,
          "time": 50.76922400000001,
          "velocity": 0.7086614173228346
        },
        {
          "duration": 2.307691999999996,
          "durationTicks": 480,
          "midi": 60,
          "name": "C4",
          "ticks": 10800,
          "time": 51.92307000000001,
          "velocity": 0.7086614173228346
        },
        {
          "duration": 2.307692000000003,
          "durationTicks": 480,
          "midi": 65,
          "name": "F4",
          "ticks": 11280,
          "time": 54.230762000000006,
          "velocity": 0.7086614173228346
        },
        {
          "duration": 1.1538460000000015,
          "durationTicks": 240,
          "midi": 62,
          "name": "D4",
          "ticks": 11760,
          "time": 56.53845400000001,
          "velocity": 0.7086614173228346
        },
        {
          "duration": 1.1538459999999944,
          "durationTicks": 240,
          "midi": 65,
          "name": "F4",
          "ticks": 12000,
          "time": 57.69230000000001,
          "velocity": 0.7086614173228346
        },
        {
          "duration": 2.307692000000003,
          "durationTicks": 480,
          "midi": 58,
          "name": "A#3",
          "ticks": 12240,
          "time": 58.846146000000005,
          "velocity": 0.7086614173228346
        },
        {
          "duration": 2.307692000000003,
          "durationTicks": 480,
          "midi": 63,
          "name": "D#4",
          "ticks": 12720,
          "time": 61.15383800000001,
          "velocity": 0.7086614173228346
        },
        {
          "duration": 1.1538460000000015,
          "durationTicks": 240,
          "midi": 60,
          "name": "C4",
          "ticks": 13200,
          "time": 63.46153000000001,
          "velocity": 0.7086614173228346
        },
        {
          "duration": 1.1538460000000015,
          "durationTicks": 240,
          "midi": 63,
          "name": "D#4",
          "ticks": 13440,
          "time": 64.61537600000001,
          "velocity": 0.7086614173228346
        },
        {
          "duration": 2.3076919999999888,
          "durationTicks": 480,
          "midi": 62,
          "name": "D4",
          "ticks": 13680,
          "time": 65.76922200000001,
          "velocity": 0.7086614173228346
        },
        {
          "duration": 1.1538460000000015,
          "durationTicks": 240,
          "midi": 60,
          "name": "C4",
          "ticks": 14160,
          "time": 68.076914,
          "velocity": 0.7086614173228346
        },
        {
          "duration": 5.769230000000007,
          "durationTicks": 1200,
          "midi": 58,
          "name": "A#3",
          "ticks": 14400,
          "time": 69.23076,
          "velocity": 0.7086614173228346
        },
        {
          "duration": 0.14423075000000551,
          "durationTicks": 30,
          "midi": 62,
          "name": "D4",
          "ticks": 17040,
          "time": 81.923066,
          "velocity": 0.7086614173228346
        },
        {
          "duration": 0.14423075000000551,
          "durationTicks": 30,
          "midi": 63,
          "name": "D#4",
          "ticks": 17070,
          "time": 82.06729675000001,
          "velocity": 0.7086614173228346
        },
        {
          "duration": 0.5769229999999936,
          "durationTicks": 120,
          "midi": 65,
          "name": "F4",
          "ticks": 17100,
          "time": 82.21152750000002,
          "velocity": 0.7086614173228346
        },
        {
          "duration": 0.14423075000000551,
          "durationTicks": 30,
          "midi": 63,
          "name": "D#4",
          "ticks": 17220,
          "time": 82.78845050000001,
          "velocity": 0.7086614173228346
        },
        {
          "duration": 0.1442307499999913,
          "durationTicks": 30,
          "midi": 62,
          "name": "D4",
          "ticks": 17250,
          "time": 82.93268125000002,
          "velocity": 0.7086614173228346
        },
        {
          "duration": 3.4615380000000044,
          "durationTicks": 720,
          "midi": 60,
          "name": "C4",
          "ticks": 17280,
          "time": 83.07691200000001,
          "velocity": 0.7086614173228346
        },
        {
          "duration": 3.4615380000000044,
          "durationTicks": 720,
          "midi": 62,
          "name": "D4",
          "ticks": 18000,
          "time": 86.53845000000001,
          "velocity": 0.7086614173228346
        },
        {
          "duration": 2.3076919999999888,
          "durationTicks": 480,
          "midi": 63,
          "name": "D#4",
          "ticks": 18720,
          "time": 89.99998800000002,
          "velocity": 0.7086614173228346
        },
        {
          "duration": 0.14423075000000551,
          "durationTicks": 30,
          "midi": 68,
          "name": "G#4",
          "ticks": 19200,
          "time": 92.30768,
          "velocity": 0.7086614173228346
        },
        {
          "duration": 0.14423075000000551,
          "durationTicks": 30,
          "midi": 70,
          "name": "A#4",
          "ticks": 19230,
          "time": 92.45191075000001,
          "velocity": 0.7086614173228346
        },
        {
          "duration": 0.5769229999999936,
          "durationTicks": 120,
          "midi": 72,
          "name": "C5",
          "ticks": 19260,
          "time": 92.59614150000002,
          "velocity": 0.7086614173228346
        },
        {
          "duration": 0.14423075000000551,
          "durationTicks": 30,
          "midi": 70,
          "name": "A#4",
          "ticks": 19380,
          "time": 93.17306450000001,
          "velocity": 0.7086614173228346
        },
        {
          "duration": 0.1442307499999913,
          "durationTicks": 30,
          "midi": 68,
          "name": "G#4",
          "ticks": 19410,
          "time": 93.31729525000002,
          "velocity": 0.7086614173228346
        },
        {
          "duration": 2.307692000000003,
          "durationTicks": 480,
          "midi": 67,
          "name": "G4",
          "ticks": 19440,
          "time": 93.461526,
          "velocity": 0.7086614173228346
        },
        {
          "duration": 0.14423075000000551,
          "durationTicks": 30,
          "midi": 67,
          "name": "G4",
          "ticks": 19920,
          "time": 95.76921800000001,
          "velocity": 0.7086614173228346
        },
        {
          "duration": 0.1442307499999913,
          "durationTicks": 30,
          "midi": 69,
          "name": "A4",
          "ticks": 19950,
          "time": 95.91344875000001,
          "velocity": 0.7086614173228346
        },
        {
          "duration": 0.5769230000000078,
          "durationTicks": 120,
          "midi": 70,
          "name": "A#4",
          "ticks": 19980,
          "time": 96.0576795,
          "velocity": 0.7086614173228346
        },
        {
          "duration": 0.14423075000000551,
          "durationTicks": 30,
          "midi": 69,
          "name": "A4",
          "ticks": 20100,
          "time": 96.63460250000001,
          "velocity": 0.7086614173228346
        },
        {
          "duration": 0.1442307499999913,
          "durationTicks": 30,
          "midi": 67,
          "name": "G4",
          "ticks": 20130,
          "time": 96.77883325000002,
          "velocity": 0.7086614173228346
        },
        {
          "duration": 2.307692000000003,
          "durationTicks": 480,
          "midi": 66,
          "name": "F#4",
          "ticks": 20160,
          "time": 96.92306400000001,
          "velocity": 0.7086614173228346
        },
        {
          "duration": 0.14423075000000551,
          "durationTicks": 30,
          "midi": 66,
          "name": "F#4",
          "ticks": 20640,
          "time": 99.23075600000001,
          "velocity": 0.7086614173228346
        },
        {
          "duration": 0.1442307499999913,
          "durationTicks": 30,
          "midi": 67,
          "name": "G4",
          "ticks": 20670,
          "time": 99.37498675000002,
          "velocity": 0.7086614173228346
        },
        {
          "duration": 0.5769230000000078,
          "durationTicks": 120,
          "midi": 69,
          "name": "A4",
          "ticks": 20700,
          "time": 99.51921750000001,
          "velocity": 0.7086614173228346
        },
        {
          "duration": 0.1442307499999913,
          "durationTicks": 30,
          "midi": 67,
          "name": "G4",
          "ticks": 20820,
          "time": 100.09614050000002,
          "velocity": 0.7086614173228346
        },
        {
          "duration": 0.14423075000000551,
          "durationTicks": 30,
          "midi": 66,
          "name": "F#4",
          "ticks": 20850,
          "time": 100.24037125000001,
          "velocity": 0.7086614173228346
        },
        {
          "duration": 3.4615380000000044,
          "durationTicks": 720,
          "midi": 67,
          "name": "G4",
          "ticks": 20880,
          "time": 100.38460200000002,
          "velocity": 0.7086614173228346
        },
        {
          "duration": 2.0192305000000204,
          "durationTicks": 420,
          "midi": 62,
          "name": "D4",
          "ticks": 26640,
          "time": 128.076906,
          "velocity": 0.7086614173228346
        },
        {
          "duration": 0.2884614999999826,
          "durationTicks": 60,
          "midi": 55,
          "name": "G3",
          "ticks": 27060,
          "time": 130.09613650000003,
          "velocity": 0.7086614173228346
        },
        {
          "duration": 0.8653845000000047,
          "durationTicks": 180,
          "midi": 57,
          "name": "A3",
          "ticks": 27120,
          "time": 130.384598,
          "velocity": 0.7086614173228346
        },
        {
          "duration": 0.28846150000001103,
          "durationTicks": 60,
          "midi": 58,
          "name": "A#3",
          "ticks": 27300,
          "time": 131.24998250000002,
          "velocity": 0.7086614173228346
        },
        {
          "duration": 5.480768499999982,
          "durationTicks": 1140,
          "midi": 60,
          "name": "C4",
          "ticks": 27360,
          "time": 131.53844400000003,
          "velocity": 0.7086614173228346
        },
        {
          "duration": 0.28846150000001103,
          "durationTicks": 60,
          "midi": 57,
          "name": "A3",
          "ticks": 28500,
          "time": 137.0192125,
          "velocity": 0.7086614173228346
        },
        {
          "duration": 0.8653845000000047,
          "durationTicks": 180,
          "midi": 58,
          "name": "A#3",
          "ticks": 28560,
          "time": 137.30767400000002,
          "velocity": 0.7086614173228346
        },
        {
          "duration": 0.2884614999999826,
          "durationTicks": 60,
          "midi": 60,
          "name": "C4",
          "ticks": 28740,
          "time": 138.17305850000002,
          "velocity": 0.7086614173228346
        },
        {
          "duration": 3.4615380000000187,
          "durationTicks": 720,
          "midi": 62,
          "name": "D4",
          "ticks": 28800,
          "time": 138.46152,
          "velocity": 0.7086614173228346
        },
        {
          "duration": 2.307692000000003,
          "durationTicks": 480,
          "midi": 62,
          "name": "D4",
          "ticks": 29520,
          "time": 141.92305800000003,
          "velocity": 0.7086614173228346
        },
        {
          "duration": 2.307692000000003,
          "durationTicks": 480,
          "midi": 67,
          "name": "G4",
          "ticks": 30000,
          "time": 144.23075000000003,
          "velocity": 0.7086614173228346
        },
        {
          "duration": 1.1538459999999873,
          "durationTicks": 240,
          "midi": 63,
          "name": "D#4",
          "ticks": 30480,
          "time": 146.53844200000003,
          "velocity": 0.7086614173228346
        },
        {
          "duration": 1.1538459999999873,
          "durationTicks": 240,
          "midi": 67,
          "name": "G4",
          "ticks": 30720,
          "time": 147.69228800000002,
          "velocity": 0.7086614173228346
        },
        {
          "duration": 2.307692000000003,
          "durationTicks": 480,
          "midi": 60,
          "name": "C4",
          "ticks": 30960,
          "time": 148.846134,
          "velocity": 0.7086614173228346
        },
        {
          "duration": 2.307692000000003,
          "durationTicks": 480,
          "midi": 65,
          "name": "F4",
          "ticks": 31440,
          "time": 151.153826,
          "velocity": 0.7086614173228346
        },
        {
          "duration": 1.1538460000000157,
          "durationTicks": 240,
          "midi": 62,
          "name": "D4",
          "ticks": 31920,
          "time": 153.461518,
          "velocity": 0.7086614173228346
        },
        {
          "duration": 1.1538459999999873,
          "durationTicks": 240,
          "midi": 65,
          "name": "F4",
          "ticks": 32160,
          "time": 154.61536400000003,
          "velocity": 0.7086614173228346
        },
        {
          "duration": 2.307692000000003,
          "durationTicks": 480,
          "midi": 58,
          "name": "A#3",
          "ticks": 32400,
          "time": 155.76921000000002,
          "velocity": 0.7086614173228346
        },
        {
          "duration": 2.307692000000003,
          "durationTicks": 480,
          "midi": 63,
          "name": "D#4",
          "ticks": 32880,
          "time": 158.07690200000002,
          "velocity": 0.7086614173228346
        },
        {
          "duration": 1.1538459999999873,
          "durationTicks": 240,
          "midi": 60,
          "name": "C4",
          "ticks": 33360,
          "time": 160.38459400000002,
          "velocity": 0.7086614173228346
        },
        {
          "duration": 1.1538460000000157,
          "durationTicks": 240,
          "midi": 63,
          "name": "D#4",
          "ticks": 33600,
          "time": 161.53844,
          "velocity": 0.7086614173228346
        },
        {
          "duration": 2.307692000000003,
          "durationTicks": 480,
          "midi": 62,
          "name": "D4",
          "ticks": 33840,
          "time": 162.69228600000002,
          "velocity": 0.7086614173228346
        },
        {
          "duration": 1.1538459999999873,
          "durationTicks": 240,
          "midi": 60,
          "name": "C4",
          "ticks": 34320,
          "time": 164.99997800000003,
          "velocity": 0.7086614173228346
        },
        {
          "duration": 5.769230000000022,
          "durationTicks": 1200,
          "midi": 58,
          "name": "A#3",
          "ticks": 34560,
          "time": 166.15382400000001,
          "velocity": 0.7086614173228346
        },
        {
          "duration": 0.14423075000001973,
          "durationTicks": 30,
          "midi": 62,
          "name": "D4",
          "ticks": 37200,
          "time": 178.84613000000002,
          "velocity": 0.7086614173228346
        },
        {
          "duration": 0.1442307499999913,
          "durationTicks": 30,
          "midi": 63,
          "name": "D#4",
          "ticks": 37230,
          "time": 178.99036075000004,
          "velocity": 0.7086614173228346
        },
        {
          "duration": 0.5769229999999936,
          "durationTicks": 120,
          "midi": 65,
          "name": "F4",
          "ticks": 37260,
          "time": 179.13459150000003,
          "velocity": 0.7086614173228346
        },
        {
          "duration": 0.1442307499999913,
          "durationTicks": 30,
          "midi": 63,
          "name": "D#4",
          "ticks": 37380,
          "time": 179.71151450000002,
          "velocity": 0.7086614173228346
        },
        {
          "duration": 0.14423075000001973,
          "durationTicks": 30,
          "midi": 62,
          "name": "D4",
          "ticks": 37410,
          "time": 179.85574525,
          "velocity": 0.7086614173228346
        },
        {
          "duration": 3.4615379999999902,
          "durationTicks": 720,
          "midi": 60,
          "name": "C4",
          "ticks": 37440,
          "time": 179.99997600000003,
          "velocity": 0.7086614173228346
        },
        {
          "duration": 3.4615379999999902,
          "durationTicks": 720,
          "midi": 62,
          "name": "D4",
          "ticks": 38160,
          "time": 183.46151400000002,
          "velocity": 0.7086614173228346
        },
        {
          "duration": 2.307692000000003,
          "durationTicks": 480,
          "midi": 63,
          "name": "D#4",
          "ticks": 38880,
          "time": 186.923052,
          "velocity": 0.7086614173228346
        },
        {
          "duration": 0.14423075000001973,
          "durationTicks": 30,
          "midi": 68,
          "name": "G#4",
          "ticks": 39360,
          "time": 189.23074400000002,
          "velocity": 0.7086614173228346
        },
        {
          "duration": 0.1442307499999913,
          "durationTicks": 30,
          "midi": 70,
          "name": "A#4",
          "ticks": 39390,
          "time": 189.37497475000004,
          "velocity": 0.7086614173228346
        },
        {
          "duration": 0.5769229999999936,
          "durationTicks": 120,
          "midi": 72,
          "name": "C5",
          "ticks": 39420,
          "time": 189.51920550000003,
          "velocity": 0.7086614173228346
        },
        {
          "duration": 0.1442307499999913,
          "durationTicks": 30,
          "midi": 70,
          "name": "A#4",
          "ticks": 39540,
          "time": 190.09612850000002,
          "velocity": 0.7086614173228346
        },
        {
          "duration": 0.14423075000001973,
          "durationTicks": 30,
          "midi": 68,
          "name": "G#4",
          "ticks": 39570,
          "time": 190.24035925,
          "velocity": 0.7086614173228346
        },
        {
          "duration": 2.307692000000003,
          "durationTicks": 480,
          "midi": 67,
          "name": "G4",
          "ticks": 39600,
          "time": 190.38459000000003,
          "velocity": 0.7086614173228346
        },
        {
          "duration": 0.1442307499999913,
          "durationTicks": 30,
          "midi": 67,
          "name": "G4",
          "ticks": 40080,
          "time": 192.69228200000003,
          "velocity": 0.7086614173228346
        },
        {
          "duration": 0.1442307499999913,
          "durationTicks": 30,
          "midi": 69,
          "name": "A4",
          "ticks": 40110,
          "time": 192.83651275000003,
          "velocity": 0.7086614173228346
        },
        {
          "duration": 0.5769230000000221,
          "durationTicks": 120,
          "midi": 70,
          "name": "A#4",
          "ticks": 40140,
          "time": 192.98074350000002,
          "velocity": 0.7086614173228346
        },
        {
          "duration": 0.1442307499999913,
          "durationTicks": 30,
          "midi": 69,
          "name": "A4",
          "ticks": 40260,
          "time": 193.55766650000004,
          "velocity": 0.7086614173228346
        },
        {
          "duration": 0.1442307499999913,
          "durationTicks": 30,
          "midi": 67,
          "name": "G4",
          "ticks": 40290,
          "time": 193.70189725000003,
          "velocity": 0.7086614173228346
        },
        {
          "duration": 2.307692000000003,
          "durationTicks": 480,
          "midi": 66,
          "name": "F#4",
          "ticks": 40320,
          "time": 193.84612800000002,
          "velocity": 0.7086614173228346
        },
        {
          "duration": 0.1442307499999913,
          "durationTicks": 30,
          "midi": 66,
          "name": "F#4",
          "ticks": 40800,
          "time": 196.15382000000002,
          "velocity": 0.7086614173228346
        },
        {
          "duration": 0.14423075000001973,
          "durationTicks": 30,
          "midi": 67,
          "name": "G4",
          "ticks": 40830,
          "time": 196.29805075000002,
          "velocity": 0.7086614173228346
        },
        {
          "duration": 0.5769229999999936,
          "durationTicks": 120,
          "midi": 69,
          "name": "A4",
          "ticks": 40860,
          "time": 196.44228150000004,
          "velocity": 0.7086614173228346
        },
        {
          "duration": 0.1442307499999913,
          "durationTicks": 30,
          "midi": 67,
          "name": "G4",
          "ticks": 40980,
          "time": 197.01920450000003,
          "velocity": 0.7086614173228346
        },
        {
          "duration": 0.1442307499999913,
          "durationTicks": 30,
          "midi": 66,
          "name": "F#4",
          "ticks": 41010,
          "time": 197.16343525000002,
          "velocity": 0.7086614173228346
        },
        {
          "duration": 5.192307000000028,
          "durationTicks": 1080,
          "midi": 67,
          "name": "G4",
          "ticks": 41040,
          "time": 197.307666,
          "velocity": 0.4251968503937008
        },
        {
          "duration": 2.019230499999992,
          "durationTicks": 420,
          "midi": 67,
          "name": "G4",
          "ticks": 63360,
          "time": 304.61534400000005,
          "velocity": 0.8661417322834646
        },
        {
          "duration": 0.2884614999999826,
          "durationTicks": 60,
          "midi": 60,
          "name": "C4",
          "ticks": 63780,
          "time": 306.63457450000004,
          "velocity": 0.8661417322834646
        },
        {
          "duration": 0.8653845000000047,
          "durationTicks": 180,
          "midi": 62,
          "name": "D4",
          "ticks": 63840,
          "time": 306.923036,
          "velocity": 0.8661417322834646
        },
        {
          "duration": 0.2884614999999826,
          "durationTicks": 60,
          "midi": 63,
          "name": "D#4",
          "ticks": 64020,
          "time": 307.78842050000003,
          "velocity": 0.8661417322834646
        },
        {
          "duration": 0.8653845000000047,
          "durationTicks": 180,
          "midi": 65,
          "name": "F4",
          "ticks": 64080,
          "time": 308.076882,
          "velocity": 0.8661417322834646
        },
        {
          "duration": 0.28846150000003945,
          "durationTicks": 60,
          "midi": 67,
          "name": "G4",
          "ticks": 64260,
          "time": 308.9422665,
          "velocity": 0.8661417322834646
        },
        {
          "duration": 0.8653845000000047,
          "durationTicks": 180,
          "midi": 68,
          "name": "G#4",
          "ticks": 64320,
          "time": 309.23072800000006,
          "velocity": 0.8661417322834646
        },
        {
          "duration": 0.2884614999999826,
          "durationTicks": 60,
          "midi": 67,
          "name": "G4",
          "ticks": 64500,
          "time": 310.09611250000006,
          "velocity": 0.8661417322834646
        },
        {
          "duration": 0.8653845000000047,
          "durationTicks": 180,
          "midi": 68,
          "name": "G#4",
          "ticks": 64560,
          "time": 310.38457400000004,
          "velocity": 0.8661417322834646
        },
        {
          "duration": 0.2884614999999826,
          "durationTicks": 60,
          "midi": 65,
          "name": "F4",
          "ticks": 64740,
          "time": 311.24995850000005,
          "velocity": 0.8661417322834646
        },
        {
          "duration": 2.019230499999992,
          "durationTicks": 420,
          "midi": 71,
          "name": "B4",
          "ticks": 64800,
          "time": 311.53842000000003,
          "velocity": 0.8661417322834646
        },
        {
          "duration": 0.28846150000003945,
          "durationTicks": 60,
          "midi": 62,
          "name": "D4",
          "ticks": 65220,
          "time": 313.5576505,
          "velocity": 0.8661417322834646
        },
        {
          "duration": 0.8653845000000047,
          "durationTicks": 180,
          "midi": 63,
          "name": "D#4",
          "ticks": 65280,
          "time": 313.84611200000006,
          "velocity": 0.8661417322834646
        },
        {
          "duration": 0.2884614999999826,
          "durationTicks": 60,
          "midi": 65,
          "name": "F4",
          "ticks": 65460,
          "time": 314.71149650000007,
          "velocity": 0.8661417322834646
        },
        {
          "duration": 0.8653845000000047,
          "durationTicks": 180,
          "midi": 67,
          "name": "G4",
          "ticks": 65520,
          "time": 314.99995800000005,
          "velocity": 0.8661417322834646
        },
        {
          "duration": 0.2884614999999826,
          "durationTicks": 60,
          "midi": 69,
          "name": "A4",
          "ticks": 65700,
          "time": 315.86534250000005,
          "velocity": 0.8661417322834646
        },
        {
          "duration": 0.8653845000000047,
          "durationTicks": 180,
          "midi": 71,
          "name": "B4",
          "ticks": 65760,
          "time": 316.15380400000004,
          "velocity": 0.8661417322834646
        },
        {
          "duration": 0.2884614999999826,
          "durationTicks": 60,
          "midi": 67,
          "name": "G4",
          "ticks": 65940,
          "time": 317.01918850000004,
          "velocity": 0.8661417322834646
        },
        {
          "duration": 1.1538460000000441,
          "durationTicks": 240,
          "midi": 72,
          "name": "C5",
          "ticks": 66000,
          "time": 317.30765,
          "velocity": 0.8661417322834646
        },
        {
          "duration": 1.1538459999999873,
          "durationTicks": 240,
          "midi": 72,
          "name": "C5",
          "ticks": 66240,
          "time": 318.46149600000007,
          "velocity": 0.8661417322834646
        },
        {
          "duration": 1.1538459999999873,
          "durationTicks": 240,
          "midi": 67,
          "name": "G4",
          "ticks": 66480,
          "time": 319.61534200000006,
          "velocity": 0.8661417322834646
        },
        {
          "duration": 1.1538459999999873,
          "durationTicks": 240,
          "midi": 60,
          "name": "C4",
          "ticks": 66720,
          "time": 320.76918800000004,
          "velocity": 0.8661417322834646
        },
        {
          "duration": 1.1538459999999873,
          "durationTicks": 240,
          "midi": 67,
          "name": "G4",
          "ticks": 66960,
          "time": 321.92303400000003,
          "velocity": 0.8661417322834646
        },
        {
          "duration": 0.5769230000000221,
          "durationTicks": 120,
          "midi": 65,
          "name": "F4",
          "ticks": 67200,
          "time": 323.07688,
          "velocity": 0.8661417322834646
        },
        {
          "duration": 0.5769230000000221,
          "durationTicks": 120,
          "midi": 67,
          "name": "G4",
          "ticks": 67320,
          "time": 323.65380300000004,
          "velocity": 0.8661417322834646
        },
        {
          "duration": 0.38461533333327225,
          "durationTicks": 80,
          "midi": 63,
          "name": "D#4",
          "ticks": 67440,
          "time": 324.23072600000006,
          "velocity": 0.8661417322834646
        },
        {
          "duration": 0.38461533333338593,
          "durationTicks": 80,
          "midi": 65,
          "name": "F4",
          "ticks": 67520,
          "time": 324.61534133333333,
          "velocity": 0.8661417322834646
        },
        {
          "duration": 0.3846153333333291,
          "durationTicks": 80,
          "midi": 62,
          "name": "D4",
          "ticks": 67600,
          "time": 324.9999566666667,
          "velocity": 0.8661417322834646
        },
        {
          "duration": 2.3076919999999745,
          "durationTicks": 480,
          "midi": 65,
          "name": "F4",
          "ticks": 67680,
          "time": 325.38457200000005,
          "velocity": 0.8661417322834646
        },
        {
          "duration": 1.1538460000000441,
          "durationTicks": 240,
          "midi": 58,
          "name": "A#3",
          "ticks": 68160,
          "time": 327.692264,
          "velocity": 0.8661417322834646
        },
        {
          "duration": 1.1538459999999873,
          "durationTicks": 240,
          "midi": 65,
          "name": "F4",
          "ticks": 68400,
          "time": 328.84611000000007,
          "velocity": 0.8661417322834646
        },
        {
          "duration": 0.5769229999999652,
          "durationTicks": 120,
          "midi": 63,
          "name": "D#4",
          "ticks": 68640,
          "time": 329.99995600000005,
          "velocity": 0.8661417322834646
        },
        {
          "duration": 0.5769230000000221,
          "durationTicks": 120,
          "midi": 65,
          "name": "F4",
          "ticks": 68760,
          "time": 330.576879,
          "velocity": 0.8661417322834646
        },
        {
          "duration": 0.3846153333333291,
          "durationTicks": 80,
          "midi": 62,
          "name": "D4",
          "ticks": 68880,
          "time": 331.15380200000004,
          "velocity": 0.8661417322834646
        },
        {
          "duration": 0.38461533333338593,
          "durationTicks": 80,
          "midi": 63,
          "name": "D#4",
          "ticks": 68960,
          "time": 331.53841733333337,
          "velocity": 0.8661417322834646
        },
        {
          "duration": 0.38461533333327225,
          "durationTicks": 80,
          "midi": 60,
          "name": "C4",
          "ticks": 69040,
          "time": 331.92303266666676,
          "velocity": 0.8661417322834646
        },
        {
          "duration": 3.4615380000000187,
          "durationTicks": 720,
          "midi": 63,
          "name": "D#4",
          "ticks": 69120,
          "time": 332.30764800000003,
          "velocity": 0.7086614173228346
        },
        {
          "duration": 2.3076919999999745,
          "durationTicks": 480,
          "midi": 62,
          "name": "D4",
          "ticks": 69840,
          "time": 335.76918600000005,
          "velocity": 0.7086614173228346
        },
        {
          "duration": 1.1538460000000441,
          "durationTicks": 240,
          "midi": 65,
          "name": "F4",
          "ticks": 70320,
          "time": 338.076878,
          "velocity": 0.7086614173228346
        },
        {
          "duration": 3.461537999999962,
          "durationTicks": 720,
          "midi": 67,
          "name": "G4",
          "ticks": 70560,
          "time": 339.23072400000007,
          "velocity": 0.7086614173228346
        },
        {
          "duration": 3.4615380000000187,
          "durationTicks": 720,
          "midi": 65,
          "name": "F4",
          "ticks": 71280,
          "time": 342.692262,
          "velocity": 0.7086614173228346
        },
        {
          "duration": 3.4615380000000187,
          "durationTicks": 720,
          "midi": 67,
          "name": "G4",
          "ticks": 72000,
          "time": 346.15380000000005,
          "velocity": 0.7086614173228346
        },
        {
          "duration": 6.9230759999999805,
          "durationTicks": 1440,
          "midi": 65,
          "name": "F4",
          "ticks": 72720,
          "time": 349.61533800000007,
          "velocity": 0.7086614173228346
        },
        {
          "duration": 3.4615380000000187,
          "durationTicks": 720,
          "midi": 60,
          "name": "C4",
          "ticks": 75600,
          "time": 363.46149,
          "velocity": 0.7086614173228346
        },
        {
          "duration": 3.4615380000000187,
          "durationTicks": 720,
          "midi": 58,
          "name": "A#3",
          "ticks": 76320,
          "time": 366.92302800000004,
          "velocity": 0.7086614173228346
        },
        {
          "duration": 0.5769229999999652,
          "durationTicks": 120,
          "midi": 63,
          "name": "D#4",
          "ticks": 77400,
          "time": 372.1153350000001,
          "velocity": 0.7086614173228346
        },
        {
          "duration": 0.8653845000000047,
          "durationTicks": 180,
          "midi": 58,
          "name": "A#3",
          "ticks": 77520,
          "time": 372.69225800000004,
          "velocity": 0.7086614173228346
        },
        {
          "duration": 0.2884614999999826,
          "durationTicks": 60,
          "midi": 55,
          "name": "G3",
          "ticks": 77700,
          "time": 373.55764250000004,
          "velocity": 0.7086614173228346
        },
        {
          "duration": 1.7307690000000093,
          "durationTicks": 360,
          "midi": 59,
          "name": "B3",
          "ticks": 77760,
          "time": 373.846104,
          "velocity": 0.7086614173228346
        },
        {
          "duration": 0.5769230000000221,
          "durationTicks": 120,
          "midi": 59,
          "name": "B3",
          "ticks": 78120,
          "time": 375.57687300000003,
          "velocity": 0.7086614173228346
        },
        {
          "duration": 0.8653845000000047,
          "durationTicks": 180,
          "midi": 60,
          "name": "C4",
          "ticks": 78240,
          "time": 376.15379600000006,
          "velocity": 0.7086614173228346
        },
        {
          "duration": 0.2884614999999826,
          "durationTicks": 60,
          "midi": 62,
          "name": "D4",
          "ticks": 78420,
          "time": 377.01918050000006,
          "velocity": 0.7086614173228346
        },
        {
          "duration": 3.4615380000000187,
          "durationTicks": 720,
          "midi": 60,
          "name": "C4",
          "ticks": 78480,
          "time": 377.30764200000004,
          "velocity": 0.7086614173228346
        },
        {
          "duration": 0.5769229999999652,
          "durationTicks": 120,
          "midi": 59,
          "name": "B3",
          "ticks": 79560,
          "time": 382.4999490000001,
          "velocity": 0.7086614173228346
        },
        {
          "duration": 0.8653845000000047,
          "durationTicks": 180,
          "midi": 60,
          "name": "C4",
          "ticks": 79680,
          "time": 383.07687200000004,
          "velocity": 0.7086614173228346
        },
        {
          "duration": 0.2884614999999826,
          "durationTicks": 60,
          "midi": 62,
          "name": "D4",
          "ticks": 79860,
          "time": 383.94225650000004,
          "velocity": 0.7086614173228346
        },
        {
          "duration": 5.192307000000028,
          "durationTicks": 1080,
          "midi": 60,
          "name": "C4",
          "ticks": 79920,
          "time": 384.230718,
          "velocity": 0.7086614173228346
        },
        {
          "duration": 0.5769230000000221,
          "durationTicks": 120,
          "midi": 59,
          "name": "B3",
          "ticks": 81000,
          "time": 389.42302500000005,
          "velocity": 0.7086614173228346
        },
        {
          "duration": 0.8653844999999478,
          "durationTicks": 180,
          "midi": 60,
          "name": "C4",
          "ticks": 81120,
          "time": 389.9999480000001,
          "velocity": 0.7086614173228346
        },
        {
          "duration": 0.28846150000003945,
          "durationTicks": 60,
          "midi": 62,
          "name": "D4",
          "ticks": 81300,
          "time": 390.8653325,
          "velocity": 0.7086614173228346
        },
        {
          "duration": 1.7307690000000093,
          "durationTicks": 360,
          "midi": 60,
          "name": "C4",
          "ticks": 81360,
          "time": 391.15379400000006,
          "velocity": 0.7086614173228346
        },
        {
          "duration": 0.5769229999999652,
          "durationTicks": 120,
          "midi": 60,
          "name": "C4",
          "ticks": 81720,
          "time": 392.88456300000007,
          "velocity": 0.8661417322834646
        },
        {
          "duration": 0.5769230000000221,
          "durationTicks": 120,
          "midi": 59,
          "name": "B3",
          "ticks": 81840,
          "time": 393.46148600000004,
          "velocity": 0.8661417322834646
        },
        {
          "duration": 0.5769229999999652,
          "durationTicks": 120,
          "midi": 60,
          "name": "C4",
          "ticks": 81960,
          "time": 394.03840900000006,
          "velocity": 0.8661417322834646
        },
        {
          "duration": 2.3076920000000314,
          "durationTicks": 480,
          "midi": 61,
          "name": "C#4",
          "ticks": 82080,
          "time": 394.615332,
          "velocity": 0.8661417322834646
        },
        {
          "duration": 1.1538459999999873,
          "durationTicks": 240,
          "midi": 68,
          "name": "G#4",
          "ticks": 82560,
          "time": 396.92302400000005,
          "velocity": 0.8661417322834646
        },
        {
          "duration": 2.3076920000000314,
          "durationTicks": 480,
          "midi": 63,
          "name": "D#4",
          "ticks": 82800,
          "time": 398.07687000000004,
          "velocity": 0.8661417322834646
        },
        {
          "duration": 2.3076920000000314,
          "durationTicks": 480,
          "midi": 67,
          "name": "G4",
          "ticks": 82800,
          "time": 398.07687000000004,
          "velocity": 0.8661417322834646
        },
        {
          "duration": 0.5769230000000221,
          "durationTicks": 120,
          "midi": 60,
          "name": "C4",
          "ticks": 83400,
          "time": 400.96148500000004,
          "velocity": 0.8661417322834646
        },
        {
          "duration": 0.5769229999999652,
          "durationTicks": 120,
          "midi": 62,
          "name": "D4",
          "ticks": 83520,
          "time": 401.53840800000006,
          "velocity": 0.8661417322834646
        },
        {
          "duration": 0.5769230000000221,
          "durationTicks": 120,
          "midi": 63,
          "name": "D#4",
          "ticks": 83640,
          "time": 402.115331,
          "velocity": 0.8661417322834646
        },
        {
          "duration": 0.5769230000000221,
          "durationTicks": 120,
          "midi": 62,
          "name": "D4",
          "ticks": 83760,
          "time": 402.69225400000005,
          "velocity": 0.8661417322834646
        },
        {
          "duration": 0.5769229999999652,
          "durationTicks": 120,
          "midi": 60,
          "name": "C4",
          "ticks": 83880,
          "time": 403.26917700000007,
          "velocity": 0.8661417322834646
        },
        {
          "duration": 0.5769230000000221,
          "durationTicks": 120,
          "midi": 59,
          "name": "B3",
          "ticks": 84000,
          "time": 403.84610000000004,
          "velocity": 0.8661417322834646
        },
        {
          "duration": 0.5769230000000221,
          "durationTicks": 120,
          "midi": 60,
          "name": "C4",
          "ticks": 84120,
          "time": 404.42302300000006,
          "velocity": 0.8661417322834646
        },
        {
          "duration": 2.3076919999999745,
          "durationTicks": 480,
          "midi": 58,
          "name": "A#3",
          "ticks": 84240,
          "time": 404.9999460000001,
          "velocity": 0.8661417322834646
        },
        {
          "duration": 0.14423075000001973,
          "durationTicks": 30,
          "midi": 55,
          "name": "G3",
          "ticks": 84720,
          "time": 407.30763800000005,
          "velocity": 0.8661417322834646
        },
        {
          "duration": 0.14423074999996288,
          "durationTicks": 30,
          "midi": 56,
          "name": "G#3",
          "ticks": 84750,
          "time": 407.4518687500001,
          "velocity": 0.8661417322834646
        },
        {
          "duration": 0.5769230000000221,
          "durationTicks": 120,
          "midi": 58,
          "name": "A#3",
          "ticks": 84780,
          "time": 407.59609950000004,
          "velocity": 0.8661417322834646
        },
        {
          "duration": 0.14423075000001973,
          "durationTicks": 30,
          "midi": 56,
          "name": "G#3",
          "ticks": 84900,
          "time": 408.17302250000006,
          "velocity": 0.8661417322834646
        },
        {
          "duration": 0.14423074999996288,
          "durationTicks": 30,
          "midi": 55,
          "name": "G3",
          "ticks": 84930,
          "time": 408.3172532500001,
          "velocity": 0.8661417322834646
        },
        {
          "duration": 2.3076920000000314,
          "durationTicks": 480,
          "midi": 60,
          "name": "C4",
          "ticks": 84960,
          "time": 408.46148400000004,
          "velocity": 0.8661417322834646
        },
        {
          "duration": 1.1538459999999873,
          "durationTicks": 240,
          "midi": 65,
          "name": "F4",
          "ticks": 85440,
          "time": 410.7691760000001,
          "velocity": 0.8661417322834646
        },
        {
          "duration": 3.4615380000000187,
          "durationTicks": 720,
          "midi": 60,
          "name": "C4",
          "ticks": 85680,
          "time": 411.92302200000006,
          "velocity": 0.8661417322834646
        },
        {
          "duration": 2.3076919999999745,
          "durationTicks": 480,
          "midi": 56,
          "name": "G#3",
          "ticks": 86400,
          "time": 415.3845600000001,
          "velocity": 0.8661417322834646
        },
        {
          "duration": 0.14423075000001973,
          "durationTicks": 30,
          "midi": 61,
          "name": "C#4",
          "ticks": 86880,
          "time": 417.69225200000005,
          "velocity": 0.8661417322834646
        },
        {
          "duration": 0.14423074999996288,
          "durationTicks": 30,
          "midi": 63,
          "name": "D#4",
          "ticks": 86910,
          "time": 417.8364827500001,
          "velocity": 0.8661417322834646
        },
        {
          "duration": 0.5769230000000221,
          "durationTicks": 120,
          "midi": 65,
          "name": "F4",
          "ticks": 86940,
          "time": 417.98071350000004,
          "velocity": 0.8661417322834646
        },
        {
          "duration": 0.14423075000001973,
          "durationTicks": 30,
          "midi": 63,
          "name": "D#4",
          "ticks": 87060,
          "time": 418.55763650000006,
          "velocity": 0.8661417322834646
        },
        {
          "duration": 0.14423074999996288,
          "durationTicks": 30,
          "midi": 61,
          "name": "C#4",
          "ticks": 87090,
          "time": 418.7018672500001,
          "velocity": 0.8661417322834646
        },
        {
          "duration": 2.3076920000000314,
          "durationTicks": 480,
          "midi": 60,
          "name": "C4",
          "ticks": 87120,
          "time": 418.84609800000004,
          "velocity": 0.8661417322834646
        },
        {
          "duration": 0.14423074999996288,
          "durationTicks": 30,
          "midi": 60,
          "name": "C4",
          "ticks": 87600,
          "time": 421.1537900000001,
          "velocity": 0.8661417322834646
        },
        {
          "duration": 0.14423075000001973,
          "durationTicks": 30,
          "midi": 62,
          "name": "D4",
          "ticks": 87630,
          "time": 421.29802075000003,
          "velocity": 0.8661417322834646
        },
        {
          "duration": 0.5769230000000221,
          "durationTicks": 120,
          "midi": 63,
          "name": "D#4",
          "ticks": 87660,
          "time": 421.44225150000005,
          "velocity": 0.8661417322834646
        },
        {
          "duration": 0.14423074999996288,
          "durationTicks": 30,
          "midi": 62,
          "name": "D4",
          "ticks": 87780,
          "time": 422.0191745000001,
          "velocity": 0.8661417322834646
        },
        {
          "duration": 0.14423075000001973,
          "durationTicks": 30,
          "midi": 60,
          "name": "C4",
          "ticks": 87810,
          "time": 422.16340525000004,
          "velocity": 0.8661417322834646
        },
        {
          "duration": 2.3076919999999745,
          "durationTicks": 480,
          "midi": 59,
          "name": "B3",
          "ticks": 87840,
          "time": 422.30763600000006,
          "velocity": 0.8661417322834646
        },
        {
          "duration": 0.14423075000001973,
          "durationTicks": 30,
          "midi": 59,
          "name": "B3",
          "ticks": 88320,
          "time": 424.61532800000003,
          "velocity": 0.8661417322834646
        },
        {
          "duration": 0.14423075000001973,
          "durationTicks": 30,
          "midi": 60,
          "name": "C4",
          "ticks": 88350,
          "time": 424.75955875000005,
          "velocity": 0.8661417322834646
        },
        {
          "duration": 0.5769229999999652,
          "durationTicks": 120,
          "midi": 62,
          "name": "D4",
          "ticks": 88380,
          "time": 424.9037895000001,
          "velocity": 0.8661417322834646
        },
        {
          "duration": 0.14423075000001973,
          "durationTicks": 30,
          "midi": 63,
          "name": "D#4",
          "ticks": 88500,
          "time": 425.48071250000004,
          "velocity": 0.8661417322834646
        },
        {
          "duration": 0.14423075000001973,
          "durationTicks": 30,
          "midi": 65,
          "name": "F4",
          "ticks": 88530,
          "time": 425.62494325000006,
          "velocity": 0.8661417322834646
        },
        {
          "duration": 3.461537999999962,
          "durationTicks": 720,
          "midi": 63,
          "name": "D#4",
          "ticks": 88560,
          "time": 425.7691740000001,
          "velocity": 0.6299212598425197
        },
        {
          "duration": 2.3076919999999745,
          "durationTicks": 480,
          "midi": 69,
          "name": "A4",
          "ticks": 90000,
          "time": 432.69225000000006,
          "velocity": 0.8661417322834646
        },
        {
          "duration": 0.2884614999999826,
          "durationTicks": 60,
          "midi": 64,
          "name": "E4",
          "ticks": 100020,
          "time": 480.86532050000005,
          "velocity": 0.7086614173228346
        },
        {
          "duration": 3.4615380000000187,
          "durationTicks": 720,
          "midi": 62,
          "name": "D4",
          "ticks": 100080,
          "time": 481.15378200000004,
          "velocity": 0.7086614173228346
        },
        {
          "duration": 3.4615380000000187,
          "durationTicks": 720,
          "midi": 63,
          "name": "D#4",
          "ticks": 100800,
          "time": 484.61532000000005,
          "velocity": 0.6299212598425197
        },
        {
          "duration": 3.4615380000000187,
          "durationTicks": 720,
          "midi": 64,
          "name": "E4",
          "ticks": 101520,
          "time": 488.0768580000001,
          "velocity": 0.6299212598425197
        },
        {
          "duration": 2.3076919999999745,
          "durationTicks": 480,
          "midi": 62,
          "name": "D4",
          "ticks": 102240,
          "time": 491.5383960000001,
          "velocity": 0.6299212598425197
        },
        {
          "duration": 1.1538459999999873,
          "durationTicks": 240,
          "midi": 60,
          "name": "C4",
          "ticks": 102720,
          "time": 493.84608800000007,
          "velocity": 0.6299212598425197
        },
        {
          "duration": 10.384614,
          "durationTicks": 2160,
          "midi": 58,
          "name": "A#3",
          "ticks": 102960,
          "time": 494.99993400000005,
          "velocity": 0.6299212598425197
        }
      ],
      "endOfTrackTicks": 105120
    },
    {
      "channel": 4,
      "controlChanges": {
        "7": [
          {
            "number": 7,
            "ticks": 0,
            "time": 0,
            "value": 0.8661417322834646
          }
        ],
        "10": [
          {
            "number": 10,
            "ticks": 0,
            "time": 0,
            "value": 0.7874015748031497
          }
        ]
      },
      "pitchBends": [],
      "instrument": {
        "family": "ensemble",
        "number": 49,
        "name": "string ensemble 2"
      },
      "name": "Strings",
      "notes": [
        {
          "duration": 5.769230000000007,
          "durationTicks": 1200,
          "midi": 38,
          "name": "D2",
          "ticks": 14400,
          "time": 69.23076,
          "velocity": 0.7086614173228346
        },
        {
          "duration": 5.769230000000007,
          "durationTicks": 1200,
          "midi": 50,
          "name": "D3",
          "ticks": 14400,
          "time": 69.23076,
          "velocity": 0.7086614173228346
        },
        {
          "duration": 5.769230000000022,
          "durationTicks": 1200,
          "midi": 50,
          "name": "D3",
          "ticks": 34560,
          "time": 166.15382400000001,
          "velocity": 0.7086614173228346
        },
        {
          "duration": 5.769230000000022,
          "durationTicks": 1200,
          "midi": 38,
          "name": "D2",
          "ticks": 34560,
          "time": 166.15382400000001,
          "velocity": 0.7086614173228346
        },
        {
          "duration": 34.615380000000016,
          "durationTicks": 7200,
          "midi": 31,
          "name": "G1",
          "ticks": 41040,
          "time": 197.307666,
          "velocity": 0.4251968503937008
        },
        {
          "duration": 44.71153250000003,
          "durationTicks": 9300,
          "midi": 43,
          "name": "G2",
          "ticks": 41040,
          "time": 197.307666,
          "velocity": 0.4251968503937008
        },
        {
          "duration": 0.2884614999999826,
          "durationTicks": 60,
          "midi": 43,
          "name": "G2",
          "ticks": 50340,
          "time": 242.01919850000004,
          "velocity": 0.5039370078740157
        },
        {
          "duration": 20.480766499999987,
          "durationTicks": 4260,
          "midi": 41,
          "name": "F2",
          "ticks": 50400,
          "time": 242.30766000000003,
          "velocity": 0.5039370078740157
        },
        {
          "duration": 0.28846150000003945,
          "durationTicks": 60,
          "midi": 41,
          "name": "F2",
          "ticks": 54660,
          "time": 262.7884265,
          "velocity": 0.6062992125984252
        },
        {
          "duration": 6.9230759999999805,
          "durationTicks": 1440,
          "midi": 26,
          "name": "D1",
          "ticks": 54720,
          "time": 263.07688800000005,
          "velocity": 0.6299212598425197
        },
        {
          "duration": 6.9230759999999805,
          "durationTicks": 1440,
          "midi": 38,
          "name": "D2",
          "ticks": 54720,
          "time": 263.07688800000005,
          "velocity": 0.6299212598425197
        },
        {
          "duration": 6.9230759999999805,
          "durationTicks": 1440,
          "midi": 38,
          "name": "D2",
          "ticks": 72720,
          "time": 349.61533800000007,
          "velocity": 0.7086614173228346
        },
        {
          "duration": 6.9230759999999805,
          "durationTicks": 1440,
          "midi": 50,
          "name": "D3",
          "ticks": 72720,
          "time": 349.61533800000007,
          "velocity": 0.7086614173228346
        },
        {
          "duration": 0.5769229999999652,
          "durationTicks": 120,
          "midi": 63,
          "name": "D#4",
          "ticks": 77400,
          "time": 372.1153350000001,
          "velocity": 0.7874015748031497
        },
        {
          "duration": 0.8653845000000047,
          "durationTicks": 180,
          "midi": 58,
          "name": "A#3",
          "ticks": 77520,
          "time": 372.69225800000004,
          "velocity": 0.7874015748031497
        },
        {
          "duration": 0.2884614999999826,
          "durationTicks": 60,
          "midi": 55,
          "name": "G3",
          "ticks": 77700,
          "time": 373.55764250000004,
          "velocity": 0.7874015748031497
        },
        {
          "duration": 3.4615380000000187,
          "durationTicks": 720,
          "midi": 53,
          "name": "F3",
          "ticks": 77760,
          "time": 373.846104,
          "velocity": 0.7086614173228346
        },
        {
          "duration": 3.4615380000000187,
          "durationTicks": 720,
          "midi": 55,
          "name": "G3",
          "ticks": 78480,
          "time": 377.30764200000004,
          "velocity": 0.7086614173228346
        },
        {
          "duration": 3.461537999999962,
          "durationTicks": 720,
          "midi": 56,
          "name": "G#3",
          "ticks": 79200,
          "time": 380.76918000000006,
          "velocity": 0.7086614173228346
        },
        {
          "duration": 3.4615380000000187,
          "durationTicks": 720,
          "midi": 55,
          "name": "G3",
          "ticks": 79920,
          "time": 384.230718,
          "velocity": 0.7086614173228346
        },
        {
          "duration": 3.4615380000000187,
          "durationTicks": 720,
          "midi": 56,
          "name": "G#3",
          "ticks": 80640,
          "time": 387.69225600000004,
          "velocity": 0.7086614173228346
        },
        {
          "duration": 3.461537999999962,
          "durationTicks": 720,
          "midi": 39,
          "name": "D#2",
          "ticks": 81360,
          "time": 391.15379400000006,
          "velocity": 0.7086614173228346
        },
        {
          "duration": 3.461537999999962,
          "durationTicks": 720,
          "midi": 55,
          "name": "G3",
          "ticks": 81360,
          "time": 391.15379400000006,
          "velocity": 0.7086614173228346
        },
        {
          "duration": 2.3076920000000314,
          "durationTicks": 480,
          "midi": 31,
          "name": "G1",
          "ticks": 82800,
          "time": 398.07687000000004,
          "velocity": 0.8661417322834646
        },
        {
          "duration": 2.3076920000000314,
          "durationTicks": 480,
          "midi": 43,
          "name": "G2",
          "ticks": 82800,
          "time": 398.07687000000004,
          "velocity": 0.8661417322834646
        },
        {
          "duration": 2.3076919999999745,
          "durationTicks": 480,
          "midi": 30,
          "name": "F#1",
          "ticks": 90000,
          "time": 432.69225000000006,
          "velocity": 0.8661417322834646
        },
        {
          "duration": 2.3076919999999745,
          "durationTicks": 480,
          "midi": 42,
          "name": "F#2",
          "ticks": 90000,
          "time": 432.69225000000006,
          "velocity": 0.8661417322834646
        },
        {
          "duration": 0.28846150000003945,
          "durationTicks": 60,
          "midi": 30,
          "name": "F#1",
          "ticks": 90660,
          "time": 435.86532650000004,
          "velocity": 0.8661417322834646
        },
        {
          "duration": 0.28846150000003945,
          "durationTicks": 60,
          "midi": 42,
          "name": "F#2",
          "ticks": 90660,
          "time": 435.86532650000004,
          "velocity": 0.8661417322834646
        },
        {
          "duration": 3.461537999999962,
          "durationTicks": 720,
          "midi": 31,
          "name": "G1",
          "ticks": 90720,
          "time": 436.1537880000001,
          "velocity": 0.8661417322834646
        },
        {
          "duration": 3.461537999999962,
          "durationTicks": 720,
          "midi": 43,
          "name": "G2",
          "ticks": 90720,
          "time": 436.1537880000001,
          "velocity": 0.8661417322834646
        },
        {
          "duration": 2.3076920000000314,
          "durationTicks": 480,
          "midi": 35,
          "name": "B1",
          "ticks": 91440,
          "time": 439.61532600000004,
          "velocity": 0.8661417322834646
        },
        {
          "duration": 2.3076920000000314,
          "durationTicks": 480,
          "midi": 47,
          "name": "B2",
          "ticks": 91440,
          "time": 439.61532600000004,
          "velocity": 0.8661417322834646
        },
        {
          "duration": 0.2884614999999826,
          "durationTicks": 60,
          "midi": 35,
          "name": "B1",
          "ticks": 92100,
          "time": 442.7884025000001,
          "velocity": 0.8661417322834646
        },
        {
          "duration": 0.2884614999999826,
          "durationTicks": 60,
          "midi": 47,
          "name": "B2",
          "ticks": 92100,
          "time": 442.7884025000001,
          "velocity": 0.8661417322834646
        },
        {
          "duration": 3.4615380000000187,
          "durationTicks": 720,
          "midi": 36,
          "name": "C2",
          "ticks": 92160,
          "time": 443.07686400000006,
          "velocity": 0.8661417322834646
        },
        {
          "duration": 3.4615380000000187,
          "durationTicks": 720,
          "midi": 48,
          "name": "C3",
          "ticks": 92160,
          "time": 443.07686400000006,
          "velocity": 0.8661417322834646
        },
        {
          "duration": 2.3076919999999745,
          "durationTicks": 480,
          "midi": 37,
          "name": "C#2",
          "ticks": 92880,
          "time": 446.5384020000001,
          "velocity": 0.8661417322834646
        },
        {
          "duration": 2.3076919999999745,
          "durationTicks": 480,
          "midi": 49,
          "name": "C#3",
          "ticks": 92880,
          "time": 446.5384020000001,
          "velocity": 0.8661417322834646
        },
        {
          "duration": 0.2884614999999826,
          "durationTicks": 60,
          "midi": 37,
          "name": "C#2",
          "ticks": 93540,
          "time": 449.71147850000006,
          "velocity": 0.8661417322834646
        },
        {
          "duration": 0.2884614999999826,
          "durationTicks": 60,
          "midi": 49,
          "name": "C#3",
          "ticks": 93540,
          "time": 449.71147850000006,
          "velocity": 0.8661417322834646
        },
        {
          "duration": 3.4615380000000187,
          "durationTicks": 720,
          "midi": 38,
          "name": "D2",
          "ticks": 93600,
          "time": 449.99994000000004,
          "velocity": 0.8661417322834646
        },
        {
          "duration": 3.4615380000000187,
          "durationTicks": 720,
          "midi": 50,
          "name": "D3",
          "ticks": 93600,
          "time": 449.99994000000004,
          "velocity": 0.8661417322834646
        },
        {
          "duration": 2.3076919999999745,
          "durationTicks": 480,
          "midi": 31,
          "name": "G1",
          "ticks": 94320,
          "time": 453.46147800000006,
          "velocity": 0.8661417322834646
        },
        {
          "duration": 2.3076919999999745,
          "durationTicks": 480,
          "midi": 43,
          "name": "G2",
          "ticks": 94320,
          "time": 453.46147800000006,
          "velocity": 0.8661417322834646
        },
        {
          "duration": 0.28846150000003945,
          "durationTicks": 60,
          "midi": 31,
          "name": "G1",
          "ticks": 94980,
          "time": 456.63455450000004,
          "velocity": 0.8661417322834646
        },
        {
          "duration": 0.28846150000003945,
          "durationTicks": 60,
          "midi": 43,
          "name": "G2",
          "ticks": 94980,
          "time": 456.63455450000004,
          "velocity": 0.8661417322834646
        },
        {
          "duration": 3.461537999999962,
          "durationTicks": 720,
          "midi": 33,
          "name": "A1",
          "ticks": 95040,
          "time": 456.9230160000001,
          "velocity": 0.8661417322834646
        },
        {
          "duration": 3.461537999999962,
          "durationTicks": 720,
          "midi": 45,
          "name": "A2",
          "ticks": 95040,
          "time": 456.9230160000001,
          "velocity": 0.8661417322834646
        },
        {
          "duration": 3.4615380000000187,
          "durationTicks": 720,
          "midi": 34,
          "name": "A#1",
          "ticks": 95760,
          "time": 460.38455400000004,
          "velocity": 0.8661417322834646
        },
        {
          "duration": 3.4615380000000187,
          "durationTicks": 720,
          "midi": 46,
          "name": "A#2",
          "ticks": 95760,
          "time": 460.38455400000004,
          "velocity": 0.8661417322834646
        },
        {
          "duration": 2.3076920000000314,
          "durationTicks": 480,
          "midi": 30,
          "name": "F#1",
          "ticks": 96480,
          "time": 463.84609200000006,
          "velocity": 0.8661417322834646
        },
        {
          "duration": 2.3076920000000314,
          "durationTicks": 480,
          "midi": 42,
          "name": "F#2",
          "ticks": 96480,
          "time": 463.84609200000006,
          "velocity": 0.8661417322834646
        },
        {
          "duration": 0.28846150000003945,
          "durationTicks": 60,
          "midi": 30,
          "name": "F#1",
          "ticks": 97140,
          "time": 467.01916850000003,
          "velocity": 0.8661417322834646
        },
        {
          "duration": 0.28846150000003945,
          "durationTicks": 60,
          "midi": 42,
          "name": "F#2",
          "ticks": 97140,
          "time": 467.01916850000003,
          "velocity": 0.8661417322834646
        },
        {
          "duration": 3.461537999999962,
          "durationTicks": 720,
          "midi": 31,
          "name": "G1",
          "ticks": 97200,
          "time": 467.3076300000001,
          "velocity": 0.8267716535433071
        },
        {
          "duration": 3.461537999999962,
          "durationTicks": 720,
          "midi": 43,
          "name": "G2",
          "ticks": 97200,
          "time": 467.3076300000001,
          "velocity": 0.8267716535433071
        },
        {
          "duration": 2.3076920000000314,
          "durationTicks": 480,
          "midi": 35,
          "name": "B1",
          "ticks": 97920,
          "time": 470.76916800000004,
          "velocity": 0.8267716535433071
        },
        {
          "duration": 2.3076920000000314,
          "durationTicks": 480,
          "midi": 47,
          "name": "B2",
          "ticks": 97920,
          "time": 470.76916800000004,
          "velocity": 0.8267716535433071
        },
        {
          "duration": 0.2884614999999826,
          "durationTicks": 60,
          "midi": 35,
          "name": "B1",
          "ticks": 98580,
          "time": 473.9422445000001,
          "velocity": 0.8267716535433071
        },
        {
          "duration": 0.2884614999999826,
          "durationTicks": 60,
          "midi": 47,
          "name": "B2",
          "ticks": 98580,
          "time": 473.9422445000001,
          "velocity": 0.8267716535433071
        },
        {
          "duration": 3.4615380000000187,
          "durationTicks": 720,
          "midi": 36,
          "name": "C2",
          "ticks": 98640,
          "time": 474.23070600000005,
          "velocity": 0.8267716535433071
        },
        {
          "duration": 3.4615380000000187,
          "durationTicks": 720,
          "midi": 48,
          "name": "C3",
          "ticks": 98640,
          "time": 474.23070600000005,
          "velocity": 0.8267716535433071
        },
        {
          "duration": 2.3076919999999745,
          "durationTicks": 480,
          "midi": 37,
          "name": "C#2",
          "ticks": 99360,
          "time": 477.6922440000001,
          "velocity": 0.8267716535433071
        },
        {
          "duration": 2.3076919999999745,
          "durationTicks": 480,
          "midi": 49,
          "name": "C#3",
          "ticks": 99360,
          "time": 477.6922440000001,
          "velocity": 0.8267716535433071
        },
        {
          "duration": 10.384614,
          "durationTicks": 2160,
          "midi": 31,
          "name": "G1",
          "ticks": 102960,
          "time": 494.99993400000005,
          "velocity": 0.7086614173228346
        },
        {
          "duration": 10.384614,
          "durationTicks": 2160,
          "midi": 43,
          "name": "G2",
          "ticks": 102960,
          "time": 494.99993400000005,
          "velocity": 0.7086614173228346
        }
      ],
      "endOfTrackTicks": 105120
    },
    {
      "channel": 5,
      "controlChanges": {
        "7": [
          {
            "number": 7,
            "ticks": 0,
            "time": 0,
            "value": 0.8661417322834646
          }
        ],
        "10": [
          {
            "number": 10,
            "ticks": 0,
            "time": 0,
            "value": 1
          }
        ]
      },
      "pitchBends": [],
      "instrument": {
        "family": "strings",
        "number": 45,
        "name": "pizzicato strings"
      },
      "name": "Pizzicato",
      "notes": [
        {
          "duration": 1.1538460000000001,
          "durationTicks": 240,
          "midi": 31,
          "name": "G1",
          "ticks": 720,
          "time": 3.4615380000000004,
          "velocity": 0.6299212598425197
        },
        {
          "duration": 1.1538460000000001,
          "durationTicks": 240,
          "midi": 43,
          "name": "G2",
          "ticks": 720,
          "time": 3.4615380000000004,
          "velocity": 0.6299212598425197
        },
        {
          "duration": 1.1538459999999997,
          "durationTicks": 240,
          "midi": 43,
          "name": "G2",
          "ticks": 960,
          "time": 4.615384000000001,
          "velocity": 0.6299212598425197
        },
        {
          "duration": 1.1538459999999997,
          "durationTicks": 240,
          "midi": 55,
          "name": "G3",
          "ticks": 960,
          "time": 4.615384000000001,
          "velocity": 0.6299212598425197
        },
        {
          "duration": 1.1538460000000006,
          "durationTicks": 240,
          "midi": 31,
          "name": "G1",
          "ticks": 1200,
          "time": 5.76923,
          "velocity": 0.6299212598425197
        },
        {
          "duration": 1.1538460000000006,
          "durationTicks": 240,
          "midi": 43,
          "name": "G2",
          "ticks": 1200,
          "time": 5.76923,
          "velocity": 0.6299212598425197
        },
        {
          "duration": 1.1538460000000006,
          "durationTicks": 240,
          "midi": 29,
          "name": "F1",
          "ticks": 1440,
          "time": 6.923076000000001,
          "velocity": 0.6299212598425197
        },
        {
          "duration": 1.1538460000000006,
          "durationTicks": 240,
          "midi": 41,
          "name": "F2",
          "ticks": 1440,
          "time": 6.923076000000001,
          "velocity": 0.6299212598425197
        },
        {
          "duration": 1.1538459999999997,
          "durationTicks": 240,
          "midi": 41,
          "name": "F2",
          "ticks": 1680,
          "time": 8.076922000000001,
          "velocity": 0.6299212598425197
        },
        {
          "duration": 1.1538459999999997,
          "durationTicks": 240,
          "midi": 53,
          "name": "F3",
          "ticks": 1680,
          "time": 8.076922000000001,
          "velocity": 0.6299212598425197
        },
        {
          "duration": 1.1538459999999997,
          "durationTicks": 240,
          "midi": 29,
          "name": "F1",
          "ticks": 1920,
          "time": 9.230768000000001,
          "velocity": 0.6299212598425197
        },
        {
          "duration": 1.1538459999999997,
          "durationTicks": 240,
          "midi": 41,
          "name": "F2",
          "ticks": 1920,
          "time": 9.230768000000001,
          "velocity": 0.6299212598425197
        },
        {
          "duration": 1.1538459999999997,
          "durationTicks": 240,
          "midi": 27,
          "name": "D#1",
          "ticks": 2160,
          "time": 10.384614000000001,
          "velocity": 0.6299212598425197
        },
        {
          "duration": 1.1538459999999997,
          "durationTicks": 240,
          "midi": 39,
          "name": "D#2",
          "ticks": 2160,
          "time": 10.384614000000001,
          "velocity": 0.6299212598425197
        },
        {
          "duration": 1.1538460000000015,
          "durationTicks": 240,
          "midi": 39,
          "name": "D#2",
          "ticks": 2400,
          "time": 11.53846,
          "velocity": 0.6299212598425197
        },
        {
          "duration": 1.1538460000000015,
          "durationTicks": 240,
          "midi": 51,
          "name": "D#3",
          "ticks": 2400,
          "time": 11.53846,
          "velocity": 0.6299212598425197
        },
        {
          "duration": 1.1538459999999997,
          "durationTicks": 240,
          "midi": 27,
          "name": "D#1",
          "ticks": 2640,
          "time": 12.692306000000002,
          "velocity": 0.6299212598425197
        },
        {
          "duration": 1.1538459999999997,
          "durationTicks": 240,
          "midi": 39,
          "name": "D#2",
          "ticks": 2640,
          "time": 12.692306000000002,
          "velocity": 0.6299212598425197
        },
        {
          "duration": 1.1538459999999997,
          "durationTicks": 240,
          "midi": 26,
          "name": "D1",
          "ticks": 2880,
          "time": 13.846152000000002,
          "velocity": 0.6299212598425197
        },
        {
          "duration": 1.1538459999999997,
          "durationTicks": 240,
          "midi": 38,
          "name": "D2",
          "ticks": 2880,
          "time": 13.846152000000002,
          "velocity": 0.6299212598425197
        },
        {
          "duration": 1.1538460000000015,
          "durationTicks": 240,
          "midi": 38,
          "name": "D2",
          "ticks": 3120,
          "time": 14.999998000000001,
          "velocity": 0.6299212598425197
        },
        {
          "duration": 1.1538460000000015,
          "durationTicks": 240,
          "midi": 50,
          "name": "D3",
          "ticks": 3120,
          "time": 14.999998000000001,
          "velocity": 0.6299212598425197
        },
        {
          "duration": 1.153845999999998,
          "durationTicks": 240,
          "midi": 26,
          "name": "D1",
          "ticks": 3360,
          "time": 16.153844000000003,
          "velocity": 0.6299212598425197
        },
        {
          "duration": 1.153845999999998,
          "durationTicks": 240,
          "midi": 38,
          "name": "D2",
          "ticks": 3360,
          "time": 16.153844000000003,
          "velocity": 0.6299212598425197
        },
        {
          "duration": 1.1538460000000015,
          "durationTicks": 240,
          "midi": 24,
          "name": "C1",
          "ticks": 3600,
          "time": 17.30769,
          "velocity": 0.6299212598425197
        },
        {
          "duration": 1.1538460000000015,
          "durationTicks": 240,
          "midi": 36,
          "name": "C2",
          "ticks": 3600,
          "time": 17.30769,
          "velocity": 0.6299212598425197
        },
        {
          "duration": 1.1538460000000015,
          "durationTicks": 240,
          "midi": 36,
          "name": "C2",
          "ticks": 3840,
          "time": 18.461536000000002,
          "velocity": 0.6299212598425197
        },
        {
          "duration": 1.1538460000000015,
          "durationTicks": 240,
          "midi": 48,
          "name": "C3",
          "ticks": 3840,
          "time": 18.461536000000002,
          "velocity": 0.6299212598425197
        },
        {
          "duration": 1.153845999999998,
          "durationTicks": 240,
          "midi": 24,
          "name": "C1",
          "ticks": 4080,
          "time": 19.615382000000004,
          "velocity": 0.6299212598425197
        },
        {
          "duration": 1.153845999999998,
          "durationTicks": 240,
          "midi": 36,
          "name": "C2",
          "ticks": 4080,
          "time": 19.615382000000004,
          "velocity": 0.6299212598425197
        },
        {
          "duration": 1.1538460000000015,
          "durationTicks": 240,
          "midi": 25,
          "name": "C#1",
          "ticks": 4320,
          "time": 20.769228000000002,
          "velocity": 0.6299212598425197
        },
        {
          "duration": 1.1538460000000015,
          "durationTicks": 240,
          "midi": 37,
          "name": "C#2",
          "ticks": 4320,
          "time": 20.769228000000002,
          "velocity": 0.6299212598425197
        },
        {
          "duration": 1.153845999999998,
          "durationTicks": 240,
          "midi": 37,
          "name": "C#2",
          "ticks": 4560,
          "time": 21.923074000000003,
          "velocity": 0.6299212598425197
        },
        {
          "duration": 1.153845999999998,
          "durationTicks": 240,
          "midi": 49,
          "name": "C#3",
          "ticks": 4560,
          "time": 21.923074000000003,
          "velocity": 0.6299212598425197
        },
        {
          "duration": 1.1538460000000015,
          "durationTicks": 240,
          "midi": 25,
          "name": "C#1",
          "ticks": 4800,
          "time": 23.07692,
          "velocity": 0.6299212598425197
        },
        {
          "duration": 1.1538460000000015,
          "durationTicks": 240,
          "midi": 37,
          "name": "C#2",
          "ticks": 4800,
          "time": 23.07692,
          "velocity": 0.6299212598425197
        },
        {
          "duration": 1.1538460000000015,
          "durationTicks": 240,
          "midi": 26,
          "name": "D1",
          "ticks": 5040,
          "time": 24.230766000000003,
          "velocity": 0.6299212598425197
        },
        {
          "duration": 1.1538460000000015,
          "durationTicks": 240,
          "midi": 38,
          "name": "D2",
          "ticks": 5040,
          "time": 24.230766000000003,
          "velocity": 0.6299212598425197
        },
        {
          "duration": 1.153845999999998,
          "durationTicks": 240,
          "midi": 38,
          "name": "D2",
          "ticks": 5280,
          "time": 25.384612000000004,
          "velocity": 0.6299212598425197
        },
        {
          "duration": 1.153845999999998,
          "durationTicks": 240,
          "midi": 50,
          "name": "D3",
          "ticks": 5280,
          "time": 25.384612000000004,
          "velocity": 0.6299212598425197
        },
        {
          "duration": 1.1538460000000015,
          "durationTicks": 240,
          "midi": 26,
          "name": "D1",
          "ticks": 5520,
          "time": 26.538458000000002,
          "velocity": 0.6299212598425197
        },
        {
          "duration": 1.1538460000000015,
          "durationTicks": 240,
          "midi": 38,
          "name": "D2",
          "ticks": 5520,
          "time": 26.538458000000002,
          "velocity": 0.6299212598425197
        },
        {
          "duration": 1.1538460000000015,
          "durationTicks": 240,
          "midi": 31,
          "name": "G1",
          "ticks": 5760,
          "time": 27.692304000000004,
          "velocity": 0.6299212598425197
        },
        {
          "duration": 1.1538460000000015,
          "durationTicks": 240,
          "midi": 43,
          "name": "G2",
          "ticks": 5760,
          "time": 27.692304000000004,
          "velocity": 0.6299212598425197
        },
        {
          "duration": 1.153845999999998,
          "durationTicks": 240,
          "midi": 43,
          "name": "G2",
          "ticks": 6000,
          "time": 28.846150000000005,
          "velocity": 0.6299212598425197
        },
        {
          "duration": 1.153845999999998,
          "durationTicks": 240,
          "midi": 55,
          "name": "G3",
          "ticks": 6000,
          "time": 28.846150000000005,
          "velocity": 0.6299212598425197
        },
        {
          "duration": 1.1538460000000015,
          "durationTicks": 240,
          "midi": 31,
          "name": "G1",
          "ticks": 6240,
          "time": 29.999996000000003,
          "velocity": 0.6299212598425197
        },
        {
          "duration": 1.1538460000000015,
          "durationTicks": 240,
          "midi": 43,
          "name": "G2",
          "ticks": 6240,
          "time": 29.999996000000003,
          "velocity": 0.6299212598425197
        },
        {
          "duration": 1.1538460000000015,
          "durationTicks": 240,
          "midi": 31,
          "name": "G1",
          "ticks": 6480,
          "time": 31.153842000000004,
          "velocity": 0.6299212598425197
        },
        {
          "duration": 1.1538460000000015,
          "durationTicks": 240,
          "midi": 43,
          "name": "G2",
          "ticks": 6480,
          "time": 31.153842000000004,
          "velocity": 0.6299212598425197
        },
        {
          "duration": 1.1538460000000015,
          "durationTicks": 240,
          "midi": 43,
          "name": "G2",
          "ticks": 6720,
          "time": 32.307688000000006,
          "velocity": 0.6299212598425197
        },
        {
          "duration": 1.1538460000000015,
          "durationTicks": 240,
          "midi": 55,
          "name": "G3",
          "ticks": 6720,
          "time": 32.307688000000006,
          "velocity": 0.6299212598425197
        },
        {
          "duration": 1.1538459999999944,
          "durationTicks": 240,
          "midi": 31,
          "name": "G1",
          "ticks": 6960,
          "time": 33.46153400000001,
          "velocity": 0.6299212598425197
        },
        {
          "duration": 1.1538459999999944,
          "durationTicks": 240,
          "midi": 43,
          "name": "G2",
          "ticks": 6960,
          "time": 33.46153400000001,
          "velocity": 0.6299212598425197
        },
        {
          "duration": 1.1538460000000015,
          "durationTicks": 240,
          "midi": 33,
          "name": "A1",
          "ticks": 7200,
          "time": 34.61538,
          "velocity": 0.6299212598425197
        },
        {
          "duration": 1.1538460000000015,
          "durationTicks": 240,
          "midi": 45,
          "name": "A2",
          "ticks": 7200,
          "time": 34.61538,
          "velocity": 0.6299212598425197
        },
        {
          "duration": 1.1538460000000015,
          "durationTicks": 240,
          "midi": 45,
          "name": "A2",
          "ticks": 7440,
          "time": 35.769226,
          "velocity": 0.6299212598425197
        },
        {
          "duration": 1.1538460000000015,
          "durationTicks": 240,
          "midi": 57,
          "name": "A3",
          "ticks": 7440,
          "time": 35.769226,
          "velocity": 0.6299212598425197
        },
        {
          "duration": 1.1538460000000015,
          "durationTicks": 240,
          "midi": 33,
          "name": "A1",
          "ticks": 7680,
          "time": 36.923072000000005,
          "velocity": 0.6299212598425197
        },
        {
          "duration": 1.1538460000000015,
          "durationTicks": 240,
          "midi": 45,
          "name": "A2",
          "ticks": 7680,
          "time": 36.923072000000005,
          "velocity": 0.6299212598425197
        },
        {
          "duration": 1.1538460000000015,
          "durationTicks": 240,
          "midi": 45,
          "name": "A2",
          "ticks": 7920,
          "time": 38.076918000000006,
          "velocity": 0.6299212598425197
        },
        {
          "duration": 1.1538460000000015,
          "durationTicks": 240,
          "midi": 33,
          "name": "A1",
          "ticks": 7920,
          "time": 38.076918000000006,
          "velocity": 0.6299212598425197
        },
        {
          "duration": 1.1538459999999944,
          "durationTicks": 240,
          "midi": 57,
          "name": "A3",
          "ticks": 8160,
          "time": 39.23076400000001,
          "velocity": 0.6299212598425197
        },
        {
          "duration": 1.1538459999999944,
          "durationTicks": 240,
          "midi": 45,
          "name": "A2",
          "ticks": 8160,
          "time": 39.23076400000001,
          "velocity": 0.6299212598425197
        },
        {
          "duration": 1.1538460000000015,
          "durationTicks": 240,
          "midi": 45,
          "name": "A2",
          "ticks": 8400,
          "time": 40.38461,
          "velocity": 0.6299212598425197
        },
        {
          "duration": 1.1538460000000015,
          "durationTicks": 240,
          "midi": 33,
          "name": "A1",
          "ticks": 8400,
          "time": 40.38461,
          "velocity": 0.6299212598425197
        },
        {
          "duration": 1.1538460000000015,
          "durationTicks": 240,
          "midi": 34,
          "name": "A#1",
          "ticks": 8640,
          "time": 41.538456000000004,
          "velocity": 0.6299212598425197
        },
        {
          "duration": 1.1538460000000015,
          "durationTicks": 240,
          "midi": 46,
          "name": "A#2",
          "ticks": 8640,
          "time": 41.538456000000004,
          "velocity": 0.6299212598425197
        },
        {
          "duration": 1.1538460000000015,
          "durationTicks": 240,
          "midi": 46,
          "name": "A#2",
          "ticks": 8880,
          "time": 42.692302000000005,
          "velocity": 0.6299212598425197
        },
        {
          "duration": 1.1538460000000015,
          "durationTicks": 240,
          "midi": 58,
          "name": "A#3",
          "ticks": 8880,
          "time": 42.692302000000005,
          "velocity": 0.6299212598425197
        },
        {
          "duration": 1.1538460000000015,
          "durationTicks": 240,
          "midi": 34,
          "name": "A#1",
          "ticks": 9120,
          "time": 43.84614800000001,
          "velocity": 0.6299212598425197
        },
        {
          "duration": 1.1538460000000015,
          "durationTicks": 240,
          "midi": 46,
          "name": "A#2",
          "ticks": 9120,
          "time": 43.84614800000001,
          "velocity": 0.6299212598425197
        },
        {
          "duration": 1.1538459999999944,
          "durationTicks": 240,
          "midi": 34,
          "name": "A#1",
          "ticks": 9360,
          "time": 44.99999400000001,
          "velocity": 0.6299212598425197
        },
        {
          "duration": 1.1538459999999944,
          "durationTicks": 240,
          "midi": 46,
          "name": "A#2",
          "ticks": 9360,
          "time": 44.99999400000001,
          "velocity": 0.6299212598425197
        },
        {
          "duration": 1.1538460000000015,
          "durationTicks": 240,
          "midi": 46,
          "name": "A#2",
          "ticks": 9600,
          "time": 46.15384,
          "velocity": 0.6299212598425197
        },
        {
          "duration": 1.1538460000000015,
          "durationTicks": 240,
          "midi": 58,
          "name": "A#3",
          "ticks": 9600,
          "time": 46.15384,
          "velocity": 0.6299212598425197
        },
        {
          "duration": 1.1538460000000015,
          "durationTicks": 240,
          "midi": 34,
          "name": "A#1",
          "ticks": 9840,
          "time": 47.307686000000004,
          "velocity": 0.6299212598425197
        },
        {
          "duration": 1.1538460000000015,
          "durationTicks": 240,
          "midi": 46,
          "name": "A#2",
          "ticks": 9840,
          "time": 47.307686000000004,
          "velocity": 0.6299212598425197
        },
        {
          "duration": 1.1538460000000015,
          "durationTicks": 240,
          "midi": 36,
          "name": "C2",
          "ticks": 10080,
          "time": 48.461532000000005,
          "velocity": 0.6299212598425197
        },
        {
          "duration": 1.1538460000000015,
          "durationTicks": 240,
          "midi": 48,
          "name": "C3",
          "ticks": 10080,
          "time": 48.461532000000005,
          "velocity": 0.6299212598425197
        },
        {
          "duration": 1.1538460000000015,
          "durationTicks": 240,
          "midi": 48,
          "name": "C3",
          "ticks": 10320,
          "time": 49.61537800000001,
          "velocity": 0.6299212598425197
        },
        {
          "duration": 1.1538460000000015,
          "durationTicks": 240,
          "midi": 60,
          "name": "C4",
          "ticks": 10320,
          "time": 49.61537800000001,
          "velocity": 0.6299212598425197
        },
        {
          "duration": 1.1538460000000015,
          "durationTicks": 240,
          "midi": 36,
          "name": "C2",
          "ticks": 10560,
          "time": 50.76922400000001,
          "velocity": 0.6299212598425197
        },
        {
          "duration": 1.1538460000000015,
          "durationTicks": 240,
          "midi": 48,
          "name": "C3",
          "ticks": 10560,
          "time": 50.76922400000001,
          "velocity": 0.6299212598425197
        },
        {
          "duration": 1.1538459999999944,
          "durationTicks": 240,
          "midi": 33,
          "name": "A1",
          "ticks": 10800,
          "time": 51.92307000000001,
          "velocity": 0.6299212598425197
        },
        {
          "duration": 1.1538459999999944,
          "durationTicks": 240,
          "midi": 45,
          "name": "A2",
          "ticks": 10800,
          "time": 51.92307000000001,
          "velocity": 0.6299212598425197
        },
        {
          "duration": 1.1538460000000015,
          "durationTicks": 240,
          "midi": 45,
          "name": "A2",
          "ticks": 11040,
          "time": 53.076916000000004,
          "velocity": 0.6299212598425197
        },
        {
          "duration": 1.1538460000000015,
          "durationTicks": 240,
          "midi": 57,
          "name": "A3",
          "ticks": 11040,
          "time": 53.076916000000004,
          "velocity": 0.6299212598425197
        },
        {
          "duration": 1.1538460000000015,
          "durationTicks": 240,
          "midi": 33,
          "name": "A1",
          "ticks": 11280,
          "time": 54.230762000000006,
          "velocity": 0.6299212598425197
        },
        {
          "duration": 1.1538460000000015,
          "durationTicks": 240,
          "midi": 45,
          "name": "A2",
          "ticks": 11280,
          "time": 54.230762000000006,
          "velocity": 0.6299212598425197
        },
        {
          "duration": 1.1538460000000015,
          "durationTicks": 240,
          "midi": 34,
          "name": "A#1",
          "ticks": 11520,
          "time": 55.38460800000001,
          "velocity": 0.6299212598425197
        },
        {
          "duration": 1.1538460000000015,
          "durationTicks": 240,
          "midi": 46,
          "name": "A#2",
          "ticks": 11520,
          "time": 55.38460800000001,
          "velocity": 0.6299212598425197
        },
        {
          "duration": 1.1538460000000015,
          "durationTicks": 240,
          "midi": 46,
          "name": "A#2",
          "ticks": 11760,
          "time": 56.53845400000001,
          "velocity": 0.6299212598425197
        },
        {
          "duration": 1.1538460000000015,
          "durationTicks": 240,
          "midi": 58,
          "name": "A#3",
          "ticks": 11760,
          "time": 56.53845400000001,
          "velocity": 0.6299212598425197
        },
        {
          "duration": 1.1538459999999944,
          "durationTicks": 240,
          "midi": 34,
          "name": "A#1",
          "ticks": 12000,
          "time": 57.69230000000001,
          "velocity": 0.6299212598425197
        },
        {
          "duration": 1.1538459999999944,
          "durationTicks": 240,
          "midi": 46,
          "name": "A#2",
          "ticks": 12000,
          "time": 57.69230000000001,
          "velocity": 0.6299212598425197
        },
        {
          "duration": 1.1538460000000015,
          "durationTicks": 240,
          "midi": 31,
          "name": "G1",
          "ticks": 12240,
          "time": 58.846146000000005,
          "velocity": 0.6299212598425197
        },
        {
          "duration": 1.1538460000000015,
          "durationTicks": 240,
          "midi": 43,
          "name": "G2",
          "ticks": 12240,
          "time": 58.846146000000005,
          "velocity": 0.6299212598425197
        },
        {
          "duration": 1.1538460000000015,
          "durationTicks": 240,
          "midi": 43,
          "name": "G2",
          "ticks": 12480,
          "time": 59.999992000000006,
          "velocity": 0.6299212598425197
        },
        {
          "duration": 1.1538460000000015,
          "durationTicks": 240,
          "midi": 55,
          "name": "G3",
          "ticks": 12480,
          "time": 59.999992000000006,
          "velocity": 0.6299212598425197
        },
        {
          "duration": 1.1538460000000015,
          "durationTicks": 240,
          "midi": 31,
          "name": "G1",
          "ticks": 12720,
          "time": 61.15383800000001,
          "velocity": 0.6299212598425197
        },
        {
          "duration": 1.1538460000000015,
          "durationTicks": 240,
          "midi": 43,
          "name": "G2",
          "ticks": 12720,
          "time": 61.15383800000001,
          "velocity": 0.6299212598425197
        },
        {
          "duration": 1.1538460000000015,
          "durationTicks": 240,
          "midi": 33,
          "name": "A1",
          "ticks": 12960,
          "time": 62.30768400000001,
          "velocity": 0.6299212598425197
        },
        {
          "duration": 1.1538460000000015,
          "durationTicks": 240,
          "midi": 45,
          "name": "A2",
          "ticks": 12960,
          "time": 62.30768400000001,
          "velocity": 0.6299212598425197
        },
        {
          "duration": 1.1538460000000015,
          "durationTicks": 240,
          "midi": 45,
          "name": "A2",
          "ticks": 13200,
          "time": 63.46153000000001,
          "velocity": 0.6299212598425197
        },
        {
          "duration": 1.1538460000000015,
          "durationTicks": 240,
          "midi": 57,
          "name": "A3",
          "ticks": 13200,
          "time": 63.46153000000001,
          "velocity": 0.6299212598425197
        },
        {
          "duration": 1.1538460000000015,
          "durationTicks": 240,
          "midi": 33,
          "name": "A1",
          "ticks": 13440,
          "time": 64.61537600000001,
          "velocity": 0.6299212598425197
        },
        {
          "duration": 1.1538460000000015,
          "durationTicks": 240,
          "midi": 45,
          "name": "A2",
          "ticks": 13440,
          "time": 64.61537600000001,
          "velocity": 0.6299212598425197
        },
        {
          "duration": 1.1538460000000015,
          "durationTicks": 240,
          "midi": 34,
          "name": "A#1",
          "ticks": 13680,
          "time": 65.76922200000001,
          "velocity": 0.6299212598425197
        },
        {
          "duration": 1.1538460000000015,
          "durationTicks": 240,
          "midi": 46,
          "name": "A#2",
          "ticks": 13680,
          "time": 65.76922200000001,
          "velocity": 0.6299212598425197
        },
        {
          "duration": 1.1538459999999873,
          "durationTicks": 240,
          "midi": 46,
          "name": "A#2",
          "ticks": 13920,
          "time": 66.92306800000001,
          "velocity": 0.6299212598425197
        },
        {
          "duration": 1.1538459999999873,
          "durationTicks": 240,
          "midi": 58,
          "name": "A#3",
          "ticks": 13920,
          "time": 66.92306800000001,
          "velocity": 0.6299212598425197
        },
        {
          "duration": 1.1538460000000015,
          "durationTicks": 240,
          "midi": 36,
          "name": "C2",
          "ticks": 14160,
          "time": 68.076914,
          "velocity": 0.6299212598425197
        },
        {
          "duration": 1.1538460000000015,
          "durationTicks": 240,
          "midi": 48,
          "name": "C3",
          "ticks": 14160,
          "time": 68.076914,
          "velocity": 0.6299212598425197
        },
        {
          "duration": 1.1538459999999873,
          "durationTicks": 240,
          "midi": 35,
          "name": "B1",
          "ticks": 16560,
          "time": 79.61537400000002,
          "velocity": 0.6299212598425197
        },
        {
          "duration": 1.1538459999999873,
          "durationTicks": 240,
          "midi": 47,
          "name": "B2",
          "ticks": 16560,
          "time": 79.61537400000002,
          "velocity": 0.6299212598425197
        },
        {
          "duration": 1.1538460000000015,
          "durationTicks": 240,
          "midi": 47,
          "name": "B2",
          "ticks": 16800,
          "time": 80.76922,
          "velocity": 0.6299212598425197
        },
        {
          "duration": 1.1538460000000015,
          "durationTicks": 240,
          "midi": 59,
          "name": "B3",
          "ticks": 16800,
          "time": 80.76922,
          "velocity": 0.6299212598425197
        },
        {
          "duration": 1.1538460000000015,
          "durationTicks": 240,
          "midi": 35,
          "name": "B1",
          "ticks": 17040,
          "time": 81.923066,
          "velocity": 0.6299212598425197
        },
        {
          "duration": 1.1538460000000015,
          "durationTicks": 240,
          "midi": 47,
          "name": "B2",
          "ticks": 17040,
          "time": 81.923066,
          "velocity": 0.6299212598425197
        },
        {
          "duration": 1.1538460000000015,
          "durationTicks": 240,
          "midi": 36,
          "name": "C2",
          "ticks": 17280,
          "time": 83.07691200000001,
          "velocity": 0.6299212598425197
        },
        {
          "duration": 1.1538460000000015,
          "durationTicks": 240,
          "midi": 48,
          "name": "C3",
          "ticks": 17280,
          "time": 83.07691200000001,
          "velocity": 0.6299212598425197
        },
        {
          "duration": 1.1538460000000015,
          "durationTicks": 240,
          "midi": 48,
          "name": "C3",
          "ticks": 17520,
          "time": 84.23075800000001,
          "velocity": 0.6299212598425197
        },
        {
          "duration": 1.1538460000000015,
          "durationTicks": 240,
          "midi": 60,
          "name": "C4",
          "ticks": 17520,
          "time": 84.23075800000001,
          "velocity": 0.6299212598425197
        },
        {
          "duration": 1.1538460000000015,
          "durationTicks": 240,
          "midi": 36,
          "name": "C2",
          "ticks": 17760,
          "time": 85.38460400000001,
          "velocity": 0.6299212598425197
        },
        {
          "duration": 1.1538460000000015,
          "durationTicks": 240,
          "midi": 48,
          "name": "C3",
          "ticks": 17760,
          "time": 85.38460400000001,
          "velocity": 0.6299212598425197
        },
        {
          "duration": 1.1538460000000015,
          "durationTicks": 240,
          "midi": 34,
          "name": "A#1",
          "ticks": 18000,
          "time": 86.53845000000001,
          "velocity": 0.6299212598425197
        },
        {
          "duration": 1.1538460000000015,
          "durationTicks": 240,
          "midi": 46,
          "name": "A#2",
          "ticks": 18000,
          "time": 86.53845000000001,
          "velocity": 0.6299212598425197
        },
        {
          "duration": 1.1538460000000015,
          "durationTicks": 240,
          "midi": 46,
          "name": "A#2",
          "ticks": 18240,
          "time": 87.69229600000001,
          "velocity": 0.6299212598425197
        },
        {
          "duration": 1.1538460000000015,
          "durationTicks": 240,
          "midi": 58,
          "name": "A#3",
          "ticks": 18240,
          "time": 87.69229600000001,
          "velocity": 0.6299212598425197
        },
        {
          "duration": 1.1538460000000015,
          "durationTicks": 240,
          "midi": 34,
          "name": "A#1",
          "ticks": 18480,
          "time": 88.84614200000001,
          "velocity": 0.6299212598425197
        },
        {
          "duration": 1.1538460000000015,
          "durationTicks": 240,
          "midi": 46,
          "name": "A#2",
          "ticks": 18480,
          "time": 88.84614200000001,
          "velocity": 0.6299212598425197
        },
        {
          "duration": 1.1538460000000015,
          "durationTicks": 240,
          "midi": 32,
          "name": "G#1",
          "ticks": 18720,
          "time": 89.99998800000002,
          "velocity": 0.6299212598425197
        },
        {
          "duration": 1.1538460000000015,
          "durationTicks": 240,
          "midi": 44,
          "name": "G#2",
          "ticks": 18720,
          "time": 89.99998800000002,
          "velocity": 0.6299212598425197
        },
        {
          "duration": 1.1538459999999873,
          "durationTicks": 240,
          "midi": 44,
          "name": "G#2",
          "ticks": 18960,
          "time": 91.15383400000002,
          "velocity": 0.6299212598425197
        },
        {
          "duration": 1.1538459999999873,
          "durationTicks": 240,
          "midi": 56,
          "name": "G#3",
          "ticks": 18960,
          "time": 91.15383400000002,
          "velocity": 0.6299212598425197
        },
        {
          "duration": 1.1538460000000015,
          "durationTicks": 240,
          "midi": 32,
          "name": "G#1",
          "ticks": 19200,
          "time": 92.30768,
          "velocity": 0.6299212598425197
        },
        {
          "duration": 1.1538460000000015,
          "durationTicks": 240,
          "midi": 44,
          "name": "G#2",
          "ticks": 19200,
          "time": 92.30768,
          "velocity": 0.6299212598425197
        },
        {
          "duration": 1.1538460000000015,
          "durationTicks": 240,
          "midi": 26,
          "name": "D1",
          "ticks": 19440,
          "time": 93.461526,
          "velocity": 0.6299212598425197
        },
        {
          "duration": 1.1538460000000015,
          "durationTicks": 240,
          "midi": 38,
          "name": "D2",
          "ticks": 19440,
          "time": 93.461526,
          "velocity": 0.6299212598425197
        },
        {
          "duration": 1.1538460000000015,
          "durationTicks": 240,
          "midi": 38,
          "name": "D2",
          "ticks": 19680,
          "time": 94.61537200000001,
          "velocity": 0.6299212598425197
        },
        {
          "duration": 1.1538460000000015,
          "durationTicks": 240,
          "midi": 50,
          "name": "D3",
          "ticks": 19680,
          "time": 94.61537200000001,
          "velocity": 0.6299212598425197
        },
        {
          "duration": 1.1538460000000015,
          "durationTicks": 240,
          "midi": 26,
          "name": "D1",
          "ticks": 19920,
          "time": 95.76921800000001,
          "velocity": 0.6299212598425197
        },
        {
          "duration": 1.1538460000000015,
          "durationTicks": 240,
          "midi": 38,
          "name": "D2",
          "ticks": 19920,
          "time": 95.76921800000001,
          "velocity": 0.6299212598425197
        },
        {
          "duration": 1.1538460000000015,
          "durationTicks": 240,
          "midi": 26,
          "name": "D1",
          "ticks": 20160,
          "time": 96.92306400000001,
          "velocity": 0.6299212598425197
        },
        {
          "duration": 1.1538460000000015,
          "durationTicks": 240,
          "midi": 38,
          "name": "D2",
          "ticks": 20160,
          "time": 96.92306400000001,
          "velocity": 0.6299212598425197
        },
        {
          "duration": 1.1538460000000015,
          "durationTicks": 240,
          "midi": 38,
          "name": "D2",
          "ticks": 20400,
          "time": 98.07691000000001,
          "velocity": 0.6299212598425197
        },
        {
          "duration": 1.1538460000000015,
          "durationTicks": 240,
          "midi": 50,
          "name": "D3",
          "ticks": 20400,
          "time": 98.07691000000001,
          "velocity": 0.6299212598425197
        },
        {
          "duration": 1.1538460000000015,
          "durationTicks": 240,
          "midi": 26,
          "name": "D1",
          "ticks": 20640,
          "time": 99.23075600000001,
          "velocity": 0.6299212598425197
        },
        {
          "duration": 1.1538460000000015,
          "durationTicks": 240,
          "midi": 38,
          "name": "D2",
          "ticks": 20640,
          "time": 99.23075600000001,
          "velocity": 0.6299212598425197
        },
        {
          "duration": 1.1538460000000015,
          "durationTicks": 240,
          "midi": 31,
          "name": "G1",
          "ticks": 20880,
          "time": 100.38460200000002,
          "velocity": 0.6299212598425197
        },
        {
          "duration": 1.1538460000000015,
          "durationTicks": 240,
          "midi": 43,
          "name": "G2",
          "ticks": 20880,
          "time": 100.38460200000002,
          "velocity": 0.6299212598425197
        },
        {
          "duration": 1.1538460000000015,
          "durationTicks": 240,
          "midi": 43,
          "name": "G2",
          "ticks": 21120,
          "time": 101.53844800000002,
          "velocity": 0.6299212598425197
        },
        {
          "duration": 1.1538460000000015,
          "durationTicks": 240,
          "midi": 55,
          "name": "G3",
          "ticks": 21120,
          "time": 101.53844800000002,
          "velocity": 0.6299212598425197
        },
        {
          "duration": 1.1538460000000015,
          "durationTicks": 240,
          "midi": 31,
          "name": "G1",
          "ticks": 21360,
          "time": 102.69229400000002,
          "velocity": 0.6299212598425197
        },
        {
          "duration": 1.1538460000000015,
          "durationTicks": 240,
          "midi": 43,
          "name": "G2",
          "ticks": 21360,
          "time": 102.69229400000002,
          "velocity": 0.6299212598425197
        },
        {
          "duration": 1.1538459999999873,
          "durationTicks": 240,
          "midi": 41,
          "name": "F2",
          "ticks": 21600,
          "time": 103.84614000000002,
          "velocity": 0.6299212598425197
        },
        {
          "duration": 1.1538459999999873,
          "durationTicks": 240,
          "midi": 29,
          "name": "F1",
          "ticks": 21600,
          "time": 103.84614000000002,
          "velocity": 0.6299212598425197
        },
        {
          "duration": 1.1538460000000015,
          "durationTicks": 240,
          "midi": 53,
          "name": "F3",
          "ticks": 21840,
          "time": 104.999986,
          "velocity": 0.6299212598425197
        },
        {
          "duration": 1.1538460000000015,
          "durationTicks": 240,
          "midi": 41,
          "name": "F2",
          "ticks": 21840,
          "time": 104.999986,
          "velocity": 0.6299212598425197
        },
        {
          "duration": 1.1538460000000015,
          "durationTicks": 240,
          "midi": 41,
          "name": "F2",
          "ticks": 22080,
          "time": 106.15383200000001,
          "velocity": 0.6299212598425197
        },
        {
          "duration": 1.1538460000000015,
          "durationTicks": 240,
          "midi": 29,
          "name": "F1",
          "ticks": 22080,
          "time": 106.15383200000001,
          "velocity": 0.6299212598425197
        },
        {
          "duration": 1.1538460000000015,
          "durationTicks": 240,
          "midi": 39,
          "name": "D#2",
          "ticks": 22320,
          "time": 107.30767800000001,
          "velocity": 0.6299212598425197
        },
        {
          "duration": 1.1538460000000015,
          "durationTicks": 240,
          "midi": 27,
          "name": "D#1",
          "ticks": 22320,
          "time": 107.30767800000001,
          "velocity": 0.6299212598425197
        },
        {
          "duration": 1.1538460000000015,
          "durationTicks": 240,
          "midi": 51,
          "name": "D#3",
          "ticks": 22560,
          "time": 108.46152400000001,
          "velocity": 0.6299212598425197
        },
        {
          "duration": 1.1538460000000015,
          "durationTicks": 240,
          "midi": 39,
          "name": "D#2",
          "ticks": 22560,
          "time": 108.46152400000001,
          "velocity": 0.6299212598425197
        },
        {
          "duration": 1.1538460000000015,
          "durationTicks": 240,
          "midi": 39,
          "name": "D#2",
          "ticks": 22800,
          "time": 109.61537000000001,
          "velocity": 0.6299212598425197
        },
        {
          "duration": 1.1538460000000015,
          "durationTicks": 240,
          "midi": 27,
          "name": "D#1",
          "ticks": 22800,
          "time": 109.61537000000001,
          "velocity": 0.6299212598425197
        },
        {
          "duration": 1.1538460000000015,
          "durationTicks": 240,
          "midi": 38,
          "name": "D2",
          "ticks": 23040,
          "time": 110.76921600000001,
          "velocity": 0.6299212598425197
        },
        {
          "duration": 1.1538460000000015,
          "durationTicks": 240,
          "midi": 26,
          "name": "D1",
          "ticks": 23040,
          "time": 110.76921600000001,
          "velocity": 0.6299212598425197
        },
        {
          "duration": 1.1538460000000015,
          "durationTicks": 240,
          "midi": 50,
          "name": "D3",
          "ticks": 23280,
          "time": 111.92306200000002,
          "velocity": 0.6299212598425197
        },
        {
          "duration": 1.1538460000000015,
          "durationTicks": 240,
          "midi": 38,
          "name": "D2",
          "ticks": 23280,
          "time": 111.92306200000002,
          "velocity": 0.6299212598425197
        },
        {
          "duration": 1.1538460000000015,
          "durationTicks": 240,
          "midi": 38,
          "name": "D2",
          "ticks": 23520,
          "time": 113.07690800000002,
          "velocity": 0.6299212598425197
        },
        {
          "duration": 1.1538460000000015,
          "durationTicks": 240,
          "midi": 26,
          "name": "D1",
          "ticks": 23520,
          "time": 113.07690800000002,
          "velocity": 0.6299212598425197
        },
        {
          "duration": 1.1538460000000015,
          "durationTicks": 240,
          "midi": 36,
          "name": "C2",
          "ticks": 23760,
          "time": 114.23075400000002,
          "velocity": 0.6299212598425197
        },
        {
          "duration": 1.1538460000000015,
          "durationTicks": 240,
          "midi": 24,
          "name": "C1",
          "ticks": 23760,
          "time": 114.23075400000002,
          "velocity": 0.6299212598425197
        },
        {
          "duration": 1.1538460000000015,
          "durationTicks": 240,
          "midi": 48,
          "name": "C3",
          "ticks": 24000,
          "time": 115.38460000000002,
          "velocity": 0.6299212598425197
        },
        {
          "duration": 1.1538460000000015,
          "durationTicks": 240,
          "midi": 36,
          "name": "C2",
          "ticks": 24000,
          "time": 115.38460000000002,
          "velocity": 0.6299212598425197
        },
        {
          "duration": 1.1538459999999873,
          "durationTicks": 240,
          "midi": 36,
          "name": "C2",
          "ticks": 24240,
          "time": 116.53844600000002,
          "velocity": 0.6299212598425197
        },
        {
          "duration": 1.1538459999999873,
          "durationTicks": 240,
          "midi": 24,
          "name": "C1",
          "ticks": 24240,
          "time": 116.53844600000002,
          "velocity": 0.6299212598425197
        },
        {
          "duration": 1.1538460000000015,
          "durationTicks": 240,
          "midi": 37,
          "name": "C#2",
          "ticks": 24480,
          "time": 117.69229200000001,
          "velocity": 0.6299212598425197
        },
        {
          "duration": 1.1538460000000015,
          "durationTicks": 240,
          "midi": 25,
          "name": "C#1",
          "ticks": 24480,
          "time": 117.69229200000001,
          "velocity": 0.6299212598425197
        },
        {
          "duration": 1.1538460000000015,
          "durationTicks": 240,
          "midi": 49,
          "name": "C#3",
          "ticks": 24720,
          "time": 118.84613800000001,
          "velocity": 0.6299212598425197
        },
        {
          "duration": 1.1538460000000015,
          "durationTicks": 240,
          "midi": 37,
          "name": "C#2",
          "ticks": 24720,
          "time": 118.84613800000001,
          "velocity": 0.6299212598425197
        },
        {
          "duration": 1.1538460000000015,
          "durationTicks": 240,
          "midi": 37,
          "name": "C#2",
          "ticks": 24960,
          "time": 119.99998400000001,
          "velocity": 0.6299212598425197
        },
        {
          "duration": 1.1538460000000015,
          "durationTicks": 240,
          "midi": 25,
          "name": "C#1",
          "ticks": 24960,
          "time": 119.99998400000001,
          "velocity": 0.6299212598425197
        },
        {
          "duration": 1.1538460000000015,
          "durationTicks": 240,
          "midi": 38,
          "name": "D2",
          "ticks": 25200,
          "time": 121.15383000000001,
          "velocity": 0.6299212598425197
        },
        {
          "duration": 1.1538460000000015,
          "durationTicks": 240,
          "midi": 26,
          "name": "D1",
          "ticks": 25200,
          "time": 121.15383000000001,
          "velocity": 0.6299212598425197
        },
        {
          "duration": 1.1538460000000015,
          "durationTicks": 240,
          "midi": 50,
          "name": "D3",
          "ticks": 25440,
          "time": 122.30767600000001,
          "velocity": 0.6299212598425197
        },
        {
          "duration": 1.1538460000000015,
          "durationTicks": 240,
          "midi": 38,
          "name": "D2",
          "ticks": 25440,
          "time": 122.30767600000001,
          "velocity": 0.6299212598425197
        },
        {
          "duration": 1.1538460000000015,
          "durationTicks": 240,
          "midi": 38,
          "name": "D2",
          "ticks": 25680,
          "time": 123.46152200000002,
          "velocity": 0.6299212598425197
        },
        {
          "duration": 1.1538460000000015,
          "durationTicks": 240,
          "midi": 26,
          "name": "D1",
          "ticks": 25680,
          "time": 123.46152200000002,
          "velocity": 0.6299212598425197
        },
        {
          "duration": 1.1538460000000015,
          "durationTicks": 240,
          "midi": 43,
          "name": "G2",
          "ticks": 25920,
          "time": 124.61536800000002,
          "velocity": 0.6299212598425197
        },
        {
          "duration": 1.1538460000000015,
          "durationTicks": 240,
          "midi": 31,
          "name": "G1",
          "ticks": 25920,
          "time": 124.61536800000002,
          "velocity": 0.6299212598425197
        },
        {
          "duration": 1.1538460000000015,
          "durationTicks": 240,
          "midi": 55,
          "name": "G3",
          "ticks": 26160,
          "time": 125.76921400000002,
          "velocity": 0.6299212598425197
        },
        {
          "duration": 1.1538460000000015,
          "durationTicks": 240,
          "midi": 43,
          "name": "G2",
          "ticks": 26160,
          "time": 125.76921400000002,
          "velocity": 0.6299212598425197
        },
        {
          "duration": 1.1538459999999873,
          "durationTicks": 240,
          "midi": 43,
          "name": "G2",
          "ticks": 26400,
          "time": 126.92306000000002,
          "velocity": 0.6299212598425197
        },
        {
          "duration": 1.1538459999999873,
          "durationTicks": 240,
          "midi": 31,
          "name": "G1",
          "ticks": 26400,
          "time": 126.92306000000002,
          "velocity": 0.6299212598425197
        },
        {
          "duration": 1.1538460000000157,
          "durationTicks": 240,
          "midi": 43,
          "name": "G2",
          "ticks": 26640,
          "time": 128.076906,
          "velocity": 0.6299212598425197
        },
        {
          "duration": 1.1538460000000157,
          "durationTicks": 240,
          "midi": 31,
          "name": "G1",
          "ticks": 26640,
          "time": 128.076906,
          "velocity": 0.6299212598425197
        },
        {
          "duration": 1.1538459999999873,
          "durationTicks": 240,
          "midi": 55,
          "name": "G3",
          "ticks": 26880,
          "time": 129.23075200000002,
          "velocity": 0.6299212598425197
        },
        {
          "duration": 1.1538459999999873,
          "durationTicks": 240,
          "midi": 43,
          "name": "G2",
          "ticks": 26880,
          "time": 129.23075200000002,
          "velocity": 0.6299212598425197
        },
        {
          "duration": 1.1538460000000157,
          "durationTicks": 240,
          "midi": 43,
          "name": "G2",
          "ticks": 27120,
          "time": 130.384598,
          "velocity": 0.6299212598425197
        },
        {
          "duration": 1.1538460000000157,
          "durationTicks": 240,
          "midi": 31,
          "name": "G1",
          "ticks": 27120,
          "time": 130.384598,
          "velocity": 0.6299212598425197
        },
        {
          "duration": 1.1538459999999873,
          "durationTicks": 240,
          "midi": 45,
          "name": "A2",
          "ticks": 27360,
          "time": 131.53844400000003,
          "velocity": 0.6299212598425197
        },
        {
          "duration": 1.1538459999999873,
          "durationTicks": 240,
          "midi": 33,
          "name": "A1",
          "ticks": 27360,
          "time": 131.53844400000003,
          "velocity": 0.6299212598425197
        },
        {
          "duration": 1.1538460000000157,
          "durationTicks": 240,
          "midi": 57,
          "name": "A3",
          "ticks": 27600,
          "time": 132.69229,
          "velocity": 0.6299212598425197
        },
        {
          "duration": 1.1538460000000157,
          "durationTicks": 240,
          "midi": 45,
          "name": "A2",
          "ticks": 27600,
          "time": 132.69229,
          "velocity": 0.6299212598425197
        },
        {
          "duration": 1.1538459999999873,
          "durationTicks": 240,
          "midi": 45,
          "name": "A2",
          "ticks": 27840,
          "time": 133.84613600000003,
          "velocity": 0.6299212598425197
        },
        {
          "duration": 1.1538459999999873,
          "durationTicks": 240,
          "midi": 33,
          "name": "A1",
          "ticks": 27840,
          "time": 133.84613600000003,
          "velocity": 0.6299212598425197
        },
        {
          "duration": 1.1538459999999873,
          "durationTicks": 240,
          "midi": 33,
          "name": "A1",
          "ticks": 28080,
          "time": 134.99998200000002,
          "velocity": 0.6299212598425197
        },
        {
          "duration": 1.1538459999999873,
          "durationTicks": 240,
          "midi": 45,
          "name": "A2",
          "ticks": 28080,
          "time": 134.99998200000002,
          "velocity": 0.6299212598425197
        },
        {
          "duration": 1.1538460000000157,
          "durationTicks": 240,
          "midi": 45,
          "name": "A2",
          "ticks": 28320,
          "time": 136.153828,
          "velocity": 0.6299212598425197
        },
        {
          "duration": 1.1538460000000157,
          "durationTicks": 240,
          "midi": 57,
          "name": "A3",
          "ticks": 28320,
          "time": 136.153828,
          "velocity": 0.6299212598425197
        },
        {
          "duration": 1.1538459999999873,
          "durationTicks": 240,
          "midi": 33,
          "name": "A1",
          "ticks": 28560,
          "time": 137.30767400000002,
          "velocity": 0.6299212598425197
        },
        {
          "duration": 1.1538459999999873,
          "durationTicks": 240,
          "midi": 45,
          "name": "A2",
          "ticks": 28560,
          "time": 137.30767400000002,
          "velocity": 0.6299212598425197
        },
        {
          "duration": 1.1538460000000157,
          "durationTicks": 240,
          "midi": 46,
          "name": "A#2",
          "ticks": 28800,
          "time": 138.46152,
          "velocity": 0.6299212598425197
        },
        {
          "duration": 1.1538460000000157,
          "durationTicks": 240,
          "midi": 34,
          "name": "A#1",
          "ticks": 28800,
          "time": 138.46152,
          "velocity": 0.6299212598425197
        },
        {
          "duration": 1.1538459999999873,
          "durationTicks": 240,
          "midi": 58,
          "name": "A#3",
          "ticks": 29040,
          "time": 139.61536600000002,
          "velocity": 0.6299212598425197
        },
        {
          "duration": 1.1538459999999873,
          "durationTicks": 240,
          "midi": 46,
          "name": "A#2",
          "ticks": 29040,
          "time": 139.61536600000002,
          "velocity": 0.6299212598425197
        },
        {
          "duration": 1.1538460000000157,
          "durationTicks": 240,
          "midi": 46,
          "name": "A#2",
          "ticks": 29280,
          "time": 140.769212,
          "velocity": 0.6299212598425197
        },
        {
          "duration": 1.1538460000000157,
          "durationTicks": 240,
          "midi": 34,
          "name": "A#1",
          "ticks": 29280,
          "time": 140.769212,
          "velocity": 0.6299212598425197
        },
        {
          "duration": 1.1538459999999873,
          "durationTicks": 240,
          "midi": 46,
          "name": "A#2",
          "ticks": 29520,
          "time": 141.92305800000003,
          "velocity": 0.6299212598425197
        },
        {
          "duration": 1.1538459999999873,
          "durationTicks": 240,
          "midi": 34,
          "name": "A#1",
          "ticks": 29520,
          "time": 141.92305800000003,
          "velocity": 0.6299212598425197
        },
        {
          "duration": 1.1538460000000157,
          "durationTicks": 240,
          "midi": 58,
          "name": "A#3",
          "ticks": 29760,
          "time": 143.076904,
          "velocity": 0.6299212598425197
        },
        {
          "duration": 1.1538460000000157,
          "durationTicks": 240,
          "midi": 46,
          "name": "A#2",
          "ticks": 29760,
          "time": 143.076904,
          "velocity": 0.6299212598425197
        },
        {
          "duration": 1.1538459999999873,
          "durationTicks": 240,
          "midi": 46,
          "name": "A#2",
          "ticks": 30000,
          "time": 144.23075000000003,
          "velocity": 0.6299212598425197
        },
        {
          "duration": 1.1538459999999873,
          "durationTicks": 240,
          "midi": 34,
          "name": "A#1",
          "ticks": 30000,
          "time": 144.23075000000003,
          "velocity": 0.6299212598425197
        },
        {
          "duration": 1.1538460000000157,
          "durationTicks": 240,
          "midi": 48,
          "name": "C3",
          "ticks": 30240,
          "time": 145.38459600000002,
          "velocity": 0.6299212598425197
        },
        {
          "duration": 1.1538460000000157,
          "durationTicks": 240,
          "midi": 36,
          "name": "C2",
          "ticks": 30240,
          "time": 145.38459600000002,
          "velocity": 0.6299212598425197
        },
        {
          "duration": 1.1538459999999873,
          "durationTicks": 240,
          "midi": 60,
          "name": "C4",
          "ticks": 30480,
          "time": 146.53844200000003,
          "velocity": 0.6299212598425197
        },
        {
          "duration": 1.1538459999999873,
          "durationTicks": 240,
          "midi": 48,
          "name": "C3",
          "ticks": 30480,
          "time": 146.53844200000003,
          "velocity": 0.6299212598425197
        },
        {
          "duration": 1.1538459999999873,
          "durationTicks": 240,
          "midi": 48,
          "name": "C3",
          "ticks": 30720,
          "time": 147.69228800000002,
          "velocity": 0.6299212598425197
        },
        {
          "duration": 1.1538459999999873,
          "durationTicks": 240,
          "midi": 36,
          "name": "C2",
          "ticks": 30720,
          "time": 147.69228800000002,
          "velocity": 0.6299212598425197
        },
        {
          "duration": 1.1538460000000157,
          "durationTicks": 240,
          "midi": 45,
          "name": "A2",
          "ticks": 30960,
          "time": 148.846134,
          "velocity": 0.6299212598425197
        },
        {
          "duration": 1.1538460000000157,
          "durationTicks": 240,
          "midi": 33,
          "name": "A1",
          "ticks": 30960,
          "time": 148.846134,
          "velocity": 0.6299212598425197
        },
        {
          "duration": 1.1538459999999873,
          "durationTicks": 240,
          "midi": 57,
          "name": "A3",
          "ticks": 31200,
          "time": 149.99998000000002,
          "velocity": 0.6299212598425197
        },
        {
          "duration": 1.1538459999999873,
          "durationTicks": 240,
          "midi": 45,
          "name": "A2",
          "ticks": 31200,
          "time": 149.99998000000002,
          "velocity": 0.6299212598425197
        },
        {
          "duration": 1.1538460000000157,
          "durationTicks": 240,
          "midi": 45,
          "name": "A2",
          "ticks": 31440,
          "time": 151.153826,
          "velocity": 0.6299212598425197
        },
        {
          "duration": 1.1538460000000157,
          "durationTicks": 240,
          "midi": 33,
          "name": "A1",
          "ticks": 31440,
          "time": 151.153826,
          "velocity": 0.6299212598425197
        },
        {
          "duration": 1.1538459999999873,
          "durationTicks": 240,
          "midi": 46,
          "name": "A#2",
          "ticks": 31680,
          "time": 152.30767200000003,
          "velocity": 0.6299212598425197
        },
        {
          "duration": 1.1538459999999873,
          "durationTicks": 240,
          "midi": 34,
          "name": "A#1",
          "ticks": 31680,
          "time": 152.30767200000003,
          "velocity": 0.6299212598425197
        },
        {
          "duration": 1.1538460000000157,
          "durationTicks": 240,
          "midi": 58,
          "name": "A#3",
          "ticks": 31920,
          "time": 153.461518,
          "velocity": 0.6299212598425197
        },
        {
          "duration": 1.1538460000000157,
          "durationTicks": 240,
          "midi": 46,
          "name": "A#2",
          "ticks": 31920,
          "time": 153.461518,
          "velocity": 0.6299212598425197
        },
        {
          "duration": 1.1538459999999873,
          "durationTicks": 240,
          "midi": 46,
          "name": "A#2",
          "ticks": 32160,
          "time": 154.61536400000003,
          "velocity": 0.6299212598425197
        },
        {
          "duration": 1.1538459999999873,
          "durationTicks": 240,
          "midi": 34,
          "name": "A#1",
          "ticks": 32160,
          "time": 154.61536400000003,
          "velocity": 0.6299212598425197
        },
        {
          "duration": 1.1538460000000157,
          "durationTicks": 240,
          "midi": 43,
          "name": "G2",
          "ticks": 32400,
          "time": 155.76921000000002,
          "velocity": 0.6299212598425197
        },
        {
          "duration": 1.1538460000000157,
          "durationTicks": 240,
          "midi": 31,
          "name": "G1",
          "ticks": 32400,
          "time": 155.76921000000002,
          "velocity": 0.6299212598425197
        },
        {
          "duration": 1.1538459999999873,
          "durationTicks": 240,
          "midi": 55,
          "name": "G3",
          "ticks": 32640,
          "time": 156.92305600000003,
          "velocity": 0.6299212598425197
        },
        {
          "duration": 1.1538459999999873,
          "durationTicks": 240,
          "midi": 43,
          "name": "G2",
          "ticks": 32640,
          "time": 156.92305600000003,
          "velocity": 0.6299212598425197
        },
        {
          "duration": 1.1538460000000157,
          "durationTicks": 240,
          "midi": 43,
          "name": "G2",
          "ticks": 32880,
          "time": 158.07690200000002,
          "velocity": 0.6299212598425197
        },
        {
          "duration": 1.1538460000000157,
          "durationTicks": 240,
          "midi": 31,
          "name": "G1",
          "ticks": 32880,
          "time": 158.07690200000002,
          "velocity": 0.6299212598425197
        },
        {
          "duration": 1.1538459999999873,
          "durationTicks": 240,
          "midi": 45,
          "name": "A2",
          "ticks": 33120,
          "time": 159.23074800000003,
          "velocity": 0.6299212598425197
        },
        {
          "duration": 1.1538459999999873,
          "durationTicks": 240,
          "midi": 33,
          "name": "A1",
          "ticks": 33120,
          "time": 159.23074800000003,
          "velocity": 0.6299212598425197
        },
        {
          "duration": 1.1538459999999873,
          "durationTicks": 240,
          "midi": 57,
          "name": "A3",
          "ticks": 33360,
          "time": 160.38459400000002,
          "velocity": 0.6299212598425197
        },
        {
          "duration": 1.1538459999999873,
          "durationTicks": 240,
          "midi": 45,
          "name": "A2",
          "ticks": 33360,
          "time": 160.38459400000002,
          "velocity": 0.6299212598425197
        },
        {
          "duration": 1.1538460000000157,
          "durationTicks": 240,
          "midi": 45,
          "name": "A2",
          "ticks": 33600,
          "time": 161.53844,
          "velocity": 0.6299212598425197
        },
        {
          "duration": 1.1538460000000157,
          "durationTicks": 240,
          "midi": 33,
          "name": "A1",
          "ticks": 33600,
          "time": 161.53844,
          "velocity": 0.6299212598425197
        },
        {
          "duration": 1.1538459999999873,
          "durationTicks": 240,
          "midi": 46,
          "name": "A#2",
          "ticks": 33840,
          "time": 162.69228600000002,
          "velocity": 0.6299212598425197
        },
        {
          "duration": 1.1538459999999873,
          "durationTicks": 240,
          "midi": 34,
          "name": "A#1",
          "ticks": 33840,
          "time": 162.69228600000002,
          "velocity": 0.6299212598425197
        },
        {
          "duration": 1.1538460000000157,
          "durationTicks": 240,
          "midi": 58,
          "name": "A#3",
          "ticks": 34080,
          "time": 163.846132,
          "velocity": 0.6299212598425197
        },
        {
          "duration": 1.1538460000000157,
          "durationTicks": 240,
          "midi": 46,
          "name": "A#2",
          "ticks": 34080,
          "time": 163.846132,
          "velocity": 0.6299212598425197
        },
        {
          "duration": 1.1538459999999873,
          "durationTicks": 240,
          "midi": 48,
          "name": "C3",
          "ticks": 34320,
          "time": 164.99997800000003,
          "velocity": 0.6299212598425197
        },
        {
          "duration": 1.1538459999999873,
          "durationTicks": 240,
          "midi": 36,
          "name": "C2",
          "ticks": 34320,
          "time": 164.99997800000003,
          "velocity": 0.6299212598425197
        },
        {
          "duration": 1.1538460000000157,
          "durationTicks": 240,
          "midi": 47,
          "name": "B2",
          "ticks": 36720,
          "time": 176.538438,
          "velocity": 0.6299212598425197
        },
        {
          "duration": 1.1538460000000157,
          "durationTicks": 240,
          "midi": 35,
          "name": "B1",
          "ticks": 36720,
          "time": 176.538438,
          "velocity": 0.6299212598425197
        },
        {
          "duration": 1.1538459999999873,
          "durationTicks": 240,
          "midi": 59,
          "name": "B3",
          "ticks": 36960,
          "time": 177.69228400000003,
          "velocity": 0.6299212598425197
        },
        {
          "duration": 1.1538459999999873,
          "durationTicks": 240,
          "midi": 47,
          "name": "B2",
          "ticks": 36960,
          "time": 177.69228400000003,
          "velocity": 0.6299212598425197
        },
        {
          "duration": 1.1538460000000157,
          "durationTicks": 240,
          "midi": 47,
          "name": "B2",
          "ticks": 37200,
          "time": 178.84613000000002,
          "velocity": 0.6299212598425197
        },
        {
          "duration": 1.1538460000000157,
          "durationTicks": 240,
          "midi": 35,
          "name": "B1",
          "ticks": 37200,
          "time": 178.84613000000002,
          "velocity": 0.6299212598425197
        },
        {
          "duration": 1.1538459999999873,
          "durationTicks": 240,
          "midi": 48,
          "name": "C3",
          "ticks": 37440,
          "time": 179.99997600000003,
          "velocity": 0.6299212598425197
        },
        {
          "duration": 1.1538459999999873,
          "durationTicks": 240,
          "midi": 36,
          "name": "C2",
          "ticks": 37440,
          "time": 179.99997600000003,
          "velocity": 0.6299212598425197
        },
        {
          "duration": 1.1538460000000157,
          "durationTicks": 240,
          "midi": 60,
          "name": "C4",
          "ticks": 37680,
          "time": 181.15382200000002,
          "velocity": 0.6299212598425197
        },
        {
          "duration": 1.1538460000000157,
          "durationTicks": 240,
          "midi": 48,
          "name": "C3",
          "ticks": 37680,
          "time": 181.15382200000002,
          "velocity": 0.6299212598425197
        },
        {
          "duration": 1.1538459999999873,
          "durationTicks": 240,
          "midi": 48,
          "name": "C3",
          "ticks": 37920,
          "time": 182.30766800000004,
          "velocity": 0.6299212598425197
        },
        {
          "duration": 1.1538459999999873,
          "durationTicks": 240,
          "midi": 36,
          "name": "C2",
          "ticks": 37920,
          "time": 182.30766800000004,
          "velocity": 0.6299212598425197
        },
        {
          "duration": 1.1538459999999873,
          "durationTicks": 240,
          "midi": 46,
          "name": "A#2",
          "ticks": 38160,
          "time": 183.46151400000002,
          "velocity": 0.6299212598425197
        },
        {
          "duration": 1.1538459999999873,
          "durationTicks": 240,
          "midi": 34,
          "name": "A#1",
          "ticks": 38160,
          "time": 183.46151400000002,
          "velocity": 0.6299212598425197
        },
        {
          "duration": 1.1538460000000157,
          "durationTicks": 240,
          "midi": 58,
          "name": "A#3",
          "ticks": 38400,
          "time": 184.61536,
          "velocity": 0.6299212598425197
        },
        {
          "duration": 1.1538460000000157,
          "durationTicks": 240,
          "midi": 46,
          "name": "A#2",
          "ticks": 38400,
          "time": 184.61536,
          "velocity": 0.6299212598425197
        },
        {
          "duration": 1.1538459999999873,
          "durationTicks": 240,
          "midi": 46,
          "name": "A#2",
          "ticks": 38640,
          "time": 185.76920600000003,
          "velocity": 0.6299212598425197
        },
        {
          "duration": 1.1538459999999873,
          "durationTicks": 240,
          "midi": 34,
          "name": "A#1",
          "ticks": 38640,
          "time": 185.76920600000003,
          "velocity": 0.6299212598425197
        },
        {
          "duration": 1.1538460000000157,
          "durationTicks": 240,
          "midi": 44,
          "name": "G#2",
          "ticks": 38880,
          "time": 186.923052,
          "velocity": 0.6299212598425197
        },
        {
          "duration": 1.1538460000000157,
          "durationTicks": 240,
          "midi": 32,
          "name": "G#1",
          "ticks": 38880,
          "time": 186.923052,
          "velocity": 0.6299212598425197
        },
        {
          "duration": 1.1538459999999873,
          "durationTicks": 240,
          "midi": 56,
          "name": "G#3",
          "ticks": 39120,
          "time": 188.07689800000003,
          "velocity": 0.6299212598425197
        },
        {
          "duration": 1.1538459999999873,
          "durationTicks": 240,
          "midi": 44,
          "name": "G#2",
          "ticks": 39120,
          "time": 188.07689800000003,
          "velocity": 0.6299212598425197
        },
        {
          "duration": 1.1538460000000157,
          "durationTicks": 240,
          "midi": 44,
          "name": "G#2",
          "ticks": 39360,
          "time": 189.23074400000002,
          "velocity": 0.6299212598425197
        },
        {
          "duration": 1.1538460000000157,
          "durationTicks": 240,
          "midi": 32,
          "name": "G#1",
          "ticks": 39360,
          "time": 189.23074400000002,
          "velocity": 0.6299212598425197
        },
        {
          "duration": 1.1538459999999873,
          "durationTicks": 240,
          "midi": 38,
          "name": "D2",
          "ticks": 39600,
          "time": 190.38459000000003,
          "velocity": 0.6299212598425197
        },
        {
          "duration": 1.1538459999999873,
          "durationTicks": 240,
          "midi": 26,
          "name": "D1",
          "ticks": 39600,
          "time": 190.38459000000003,
          "velocity": 0.6299212598425197
        },
        {
          "duration": 1.1538460000000157,
          "durationTicks": 240,
          "midi": 50,
          "name": "D3",
          "ticks": 39840,
          "time": 191.53843600000002,
          "velocity": 0.6299212598425197
        },
        {
          "duration": 1.1538460000000157,
          "durationTicks": 240,
          "midi": 38,
          "name": "D2",
          "ticks": 39840,
          "time": 191.53843600000002,
          "velocity": 0.6299212598425197
        },
        {
          "duration": 1.1538459999999873,
          "durationTicks": 240,
          "midi": 38,
          "name": "D2",
          "ticks": 40080,
          "time": 192.69228200000003,
          "velocity": 0.6299212598425197
        },
        {
          "duration": 1.1538459999999873,
          "durationTicks": 240,
          "midi": 26,
          "name": "D1",
          "ticks": 40080,
          "time": 192.69228200000003,
          "velocity": 0.6299212598425197
        },
        {
          "duration": 1.1538460000000157,
          "durationTicks": 240,
          "midi": 38,
          "name": "D2",
          "ticks": 40320,
          "time": 193.84612800000002,
          "velocity": 0.6299212598425197
        },
        {
          "duration": 1.1538460000000157,
          "durationTicks": 240,
          "midi": 26,
          "name": "D1",
          "ticks": 40320,
          "time": 193.84612800000002,
          "velocity": 0.6299212598425197
        },
        {
          "duration": 1.1538459999999873,
          "durationTicks": 240,
          "midi": 50,
          "name": "D3",
          "ticks": 40560,
          "time": 194.99997400000004,
          "velocity": 0.6299212598425197
        },
        {
          "duration": 1.1538459999999873,
          "durationTicks": 240,
          "midi": 38,
          "name": "D2",
          "ticks": 40560,
          "time": 194.99997400000004,
          "velocity": 0.6299212598425197
        },
        {
          "duration": 1.1538459999999873,
          "durationTicks": 240,
          "midi": 38,
          "name": "D2",
          "ticks": 40800,
          "time": 196.15382000000002,
          "velocity": 0.6299212598425197
        },
        {
          "duration": 1.1538459999999873,
          "durationTicks": 240,
          "midi": 26,
          "name": "D1",
          "ticks": 40800,
          "time": 196.15382000000002,
          "velocity": 0.6299212598425197
        },
        {
          "duration": 1.1538459999999873,
          "durationTicks": 240,
          "midi": 31,
          "name": "G1",
          "ticks": 56160,
          "time": 269.99996400000003,
          "velocity": 0.5039370078740157
        },
        {
          "duration": 1.1538459999999873,
          "durationTicks": 240,
          "midi": 43,
          "name": "G2",
          "ticks": 56160,
          "time": 269.99996400000003,
          "velocity": 0.5039370078740157
        },
        {
          "duration": 1.1538459999999873,
          "durationTicks": 240,
          "midi": 43,
          "name": "G2",
          "ticks": 56400,
          "time": 271.15381,
          "velocity": 0.5039370078740157
        },
        {
          "duration": 1.1538459999999873,
          "durationTicks": 240,
          "midi": 55,
          "name": "G3",
          "ticks": 56400,
          "time": 271.15381,
          "velocity": 0.5039370078740157
        },
        {
          "duration": 1.1538460000000441,
          "durationTicks": 240,
          "midi": 31,
          "name": "G1",
          "ticks": 56640,
          "time": 272.307656,
          "velocity": 0.5039370078740157
        },
        {
          "duration": 1.1538460000000441,
          "durationTicks": 240,
          "midi": 43,
          "name": "G2",
          "ticks": 56640,
          "time": 272.307656,
          "velocity": 0.5039370078740157
        },
        {
          "duration": 1.1538459999999873,
          "durationTicks": 240,
          "midi": 36,
          "name": "C2",
          "ticks": 56880,
          "time": 273.46150200000005,
          "velocity": 0.5039370078740157
        },
        {
          "duration": 1.1538459999999873,
          "durationTicks": 240,
          "midi": 48,
          "name": "C3",
          "ticks": 56880,
          "time": 273.46150200000005,
          "velocity": 0.5039370078740157
        },
        {
          "duration": 1.1538459999999873,
          "durationTicks": 240,
          "midi": 48,
          "name": "C3",
          "ticks": 57120,
          "time": 274.61534800000004,
          "velocity": 0.5039370078740157
        },
        {
          "duration": 1.1538459999999873,
          "durationTicks": 240,
          "midi": 60,
          "name": "C4",
          "ticks": 57120,
          "time": 274.61534800000004,
          "velocity": 0.5039370078740157
        },
        {
          "duration": 1.1538459999999873,
          "durationTicks": 240,
          "midi": 36,
          "name": "C2",
          "ticks": 57360,
          "time": 275.769194,
          "velocity": 0.5039370078740157
        },
        {
          "duration": 1.1538459999999873,
          "durationTicks": 240,
          "midi": 48,
          "name": "C3",
          "ticks": 57360,
          "time": 275.769194,
          "velocity": 0.5039370078740157
        },
        {
          "duration": 1.1538460000000441,
          "durationTicks": 240,
          "midi": 36,
          "name": "C2",
          "ticks": 57600,
          "time": 276.92304,
          "velocity": 0.5039370078740157
        },
        {
          "duration": 1.1538460000000441,
          "durationTicks": 240,
          "midi": 48,
          "name": "C3",
          "ticks": 57600,
          "time": 276.92304,
          "velocity": 0.5039370078740157
        },
        {
          "duration": 1.1538459999999873,
          "durationTicks": 240,
          "midi": 48,
          "name": "C3",
          "ticks": 57840,
          "time": 278.07688600000006,
          "velocity": 0.5039370078740157
        },
        {
          "duration": 1.1538459999999873,
          "durationTicks": 240,
          "midi": 60,
          "name": "C4",
          "ticks": 57840,
          "time": 278.07688600000006,
          "velocity": 0.5039370078740157
        },
        {
          "duration": 1.1538459999999873,
          "durationTicks": 240,
          "midi": 36,
          "name": "C2",
          "ticks": 58080,
          "time": 279.23073200000005,
          "velocity": 0.5039370078740157
        },
        {
          "duration": 1.1538459999999873,
          "durationTicks": 240,
          "midi": 48,
          "name": "C3",
          "ticks": 58080,
          "time": 279.23073200000005,
          "velocity": 0.5039370078740157
        },
        {
          "duration": 1.1538459999999873,
          "durationTicks": 240,
          "midi": 34,
          "name": "A#1",
          "ticks": 58320,
          "time": 280.38457800000003,
          "velocity": 0.5039370078740157
        },
        {
          "duration": 1.1538459999999873,
          "durationTicks": 240,
          "midi": 46,
          "name": "A#2",
          "ticks": 58320,
          "time": 280.38457800000003,
          "velocity": 0.5039370078740157
        },
        {
          "duration": 1.1538460000000441,
          "durationTicks": 240,
          "midi": 46,
          "name": "A#2",
          "ticks": 58560,
          "time": 281.538424,
          "velocity": 0.5039370078740157
        },
        {
          "duration": 1.1538460000000441,
          "durationTicks": 240,
          "midi": 58,
          "name": "A#3",
          "ticks": 58560,
          "time": 281.538424,
          "velocity": 0.5039370078740157
        },
        {
          "duration": 1.1538459999999873,
          "durationTicks": 240,
          "midi": 34,
          "name": "A#1",
          "ticks": 58800,
          "time": 282.69227000000006,
          "velocity": 0.5039370078740157
        },
        {
          "duration": 1.1538459999999873,
          "durationTicks": 240,
          "midi": 46,
          "name": "A#2",
          "ticks": 58800,
          "time": 282.69227000000006,
          "velocity": 0.5039370078740157
        },
        {
          "duration": 1.1538459999999873,
          "durationTicks": 240,
          "midi": 32,
          "name": "G#1",
          "ticks": 59040,
          "time": 283.84611600000005,
          "velocity": 0.5039370078740157
        },
        {
          "duration": 1.1538459999999873,
          "durationTicks": 240,
          "midi": 44,
          "name": "G#2",
          "ticks": 59040,
          "time": 283.84611600000005,
          "velocity": 0.5039370078740157
        },
        {
          "duration": 1.1538459999999873,
          "durationTicks": 240,
          "midi": 44,
          "name": "G#2",
          "ticks": 59280,
          "time": 284.99996200000004,
          "velocity": 0.5039370078740157
        },
        {
          "duration": 1.1538459999999873,
          "durationTicks": 240,
          "midi": 56,
          "name": "G#3",
          "ticks": 59280,
          "time": 284.99996200000004,
          "velocity": 0.5039370078740157
        },
        {
          "duration": 1.1538459999999873,
          "durationTicks": 240,
          "midi": 32,
          "name": "G#1",
          "ticks": 59520,
          "time": 286.153808,
          "velocity": 0.5039370078740157
        },
        {
          "duration": 1.1538459999999873,
          "durationTicks": 240,
          "midi": 44,
          "name": "G#2",
          "ticks": 59520,
          "time": 286.153808,
          "velocity": 0.5039370078740157
        },
        {
          "duration": 1.1538460000000441,
          "durationTicks": 240,
          "midi": 31,
          "name": "G1",
          "ticks": 59760,
          "time": 287.307654,
          "velocity": 0.5039370078740157
        },
        {
          "duration": 1.1538460000000441,
          "durationTicks": 240,
          "midi": 43,
          "name": "G2",
          "ticks": 59760,
          "time": 287.307654,
          "velocity": 0.5039370078740157
        },
        {
          "duration": 1.1538459999999873,
          "durationTicks": 240,
          "midi": 43,
          "name": "G2",
          "ticks": 60000,
          "time": 288.46150000000006,
          "velocity": 0.5039370078740157
        },
        {
          "duration": 1.1538459999999873,
          "durationTicks": 240,
          "midi": 55,
          "name": "G3",
          "ticks": 60000,
          "time": 288.46150000000006,
          "velocity": 0.5039370078740157
        },
        {
          "duration": 1.1538459999999873,
          "durationTicks": 240,
          "midi": 31,
          "name": "G1",
          "ticks": 60240,
          "time": 289.61534600000005,
          "velocity": 0.5039370078740157
        },
        {
          "duration": 1.1538459999999873,
          "durationTicks": 240,
          "midi": 43,
          "name": "G2",
          "ticks": 60240,
          "time": 289.61534600000005,
          "velocity": 0.5039370078740157
        },
        {
          "duration": 1.1538459999999873,
          "durationTicks": 240,
          "midi": 29,
          "name": "F1",
          "ticks": 60480,
          "time": 290.76919200000003,
          "velocity": 0.5039370078740157
        },
        {
          "duration": 1.1538459999999873,
          "durationTicks": 240,
          "midi": 41,
          "name": "F2",
          "ticks": 60480,
          "time": 290.76919200000003,
          "velocity": 0.5039370078740157
        },
        {
          "duration": 1.1538460000000441,
          "durationTicks": 240,
          "midi": 41,
          "name": "F2",
          "ticks": 60720,
          "time": 291.923038,
          "velocity": 0.5039370078740157
        },
        {
          "duration": 1.1538460000000441,
          "durationTicks": 240,
          "midi": 53,
          "name": "F3",
          "ticks": 60720,
          "time": 291.923038,
          "velocity": 0.5039370078740157
        },
        {
          "duration": 1.1538459999999873,
          "durationTicks": 240,
          "midi": 29,
          "name": "F1",
          "ticks": 60960,
          "time": 293.07688400000006,
          "velocity": 0.5039370078740157
        },
        {
          "duration": 1.1538459999999873,
          "durationTicks": 240,
          "midi": 41,
          "name": "F2",
          "ticks": 60960,
          "time": 293.07688400000006,
          "velocity": 0.5039370078740157
        },
        {
          "duration": 1.1538459999999873,
          "durationTicks": 240,
          "midi": 30,
          "name": "F#1",
          "ticks": 61200,
          "time": 294.23073000000005,
          "velocity": 0.5039370078740157
        },
        {
          "duration": 1.1538459999999873,
          "durationTicks": 240,
          "midi": 42,
          "name": "F#2",
          "ticks": 61200,
          "time": 294.23073000000005,
          "velocity": 0.5039370078740157
        },
        {
          "duration": 1.1538459999999873,
          "durationTicks": 240,
          "midi": 42,
          "name": "F#2",
          "ticks": 61440,
          "time": 295.38457600000004,
          "velocity": 0.5039370078740157
        },
        {
          "duration": 1.1538459999999873,
          "durationTicks": 240,
          "midi": 54,
          "name": "F#3",
          "ticks": 61440,
          "time": 295.38457600000004,
          "velocity": 0.5039370078740157
        },
        {
          "duration": 1.1538459999999873,
          "durationTicks": 240,
          "midi": 30,
          "name": "F#1",
          "ticks": 61680,
          "time": 296.538422,
          "velocity": 0.5039370078740157
        },
        {
          "duration": 1.1538459999999873,
          "durationTicks": 240,
          "midi": 42,
          "name": "F#2",
          "ticks": 61680,
          "time": 296.538422,
          "velocity": 0.5039370078740157
        },
        {
          "duration": 1.1538460000000441,
          "durationTicks": 240,
          "midi": 31,
          "name": "G1",
          "ticks": 61920,
          "time": 297.692268,
          "velocity": 0.5039370078740157
        },
        {
          "duration": 1.1538460000000441,
          "durationTicks": 240,
          "midi": 43,
          "name": "G2",
          "ticks": 61920,
          "time": 297.692268,
          "velocity": 0.5039370078740157
        },
        {
          "duration": 1.1538459999999873,
          "durationTicks": 240,
          "midi": 43,
          "name": "G2",
          "ticks": 62160,
          "time": 298.84611400000006,
          "velocity": 0.5039370078740157
        },
        {
          "duration": 1.1538459999999873,
          "durationTicks": 240,
          "midi": 55,
          "name": "G3",
          "ticks": 62160,
          "time": 298.84611400000006,
          "velocity": 0.5039370078740157
        },
        {
          "duration": 1.1538459999999873,
          "durationTicks": 240,
          "midi": 31,
          "name": "G1",
          "ticks": 62400,
          "time": 299.99996000000004,
          "velocity": 0.5039370078740157
        },
        {
          "duration": 1.1538459999999873,
          "durationTicks": 240,
          "midi": 43,
          "name": "G2",
          "ticks": 62400,
          "time": 299.99996000000004,
          "velocity": 0.5039370078740157
        },
        {
          "duration": 1.1538459999999873,
          "durationTicks": 240,
          "midi": 36,
          "name": "C2",
          "ticks": 62640,
          "time": 301.15380600000003,
          "velocity": 0.5039370078740157
        },
        {
          "duration": 1.1538459999999873,
          "durationTicks": 240,
          "midi": 48,
          "name": "C3",
          "ticks": 62640,
          "time": 301.15380600000003,
          "velocity": 0.5039370078740157
        },
        {
          "duration": 1.1538460000000441,
          "durationTicks": 240,
          "midi": 48,
          "name": "C3",
          "ticks": 62880,
          "time": 302.307652,
          "velocity": 0.5039370078740157
        },
        {
          "duration": 1.1538460000000441,
          "durationTicks": 240,
          "midi": 60,
          "name": "C4",
          "ticks": 62880,
          "time": 302.307652,
          "velocity": 0.5039370078740157
        },
        {
          "duration": 1.1538459999999873,
          "durationTicks": 240,
          "midi": 36,
          "name": "C2",
          "ticks": 63120,
          "time": 303.46149800000006,
          "velocity": 0.5039370078740157
        },
        {
          "duration": 1.1538459999999873,
          "durationTicks": 240,
          "midi": 48,
          "name": "C3",
          "ticks": 63120,
          "time": 303.46149800000006,
          "velocity": 0.5039370078740157
        },
        {
          "duration": 1.1538459999999873,
          "durationTicks": 240,
          "midi": 36,
          "name": "C2",
          "ticks": 63360,
          "time": 304.61534400000005,
          "velocity": 0.6299212598425197
        },
        {
          "duration": 1.1538459999999873,
          "durationTicks": 240,
          "midi": 48,
          "name": "C3",
          "ticks": 63360,
          "time": 304.61534400000005,
          "velocity": 0.6299212598425197
        },
        {
          "duration": 1.1538459999999873,
          "durationTicks": 240,
          "midi": 48,
          "name": "C3",
          "ticks": 63600,
          "time": 305.76919000000004,
          "velocity": 0.6299212598425197
        },
        {
          "duration": 1.1538459999999873,
          "durationTicks": 240,
          "midi": 60,
          "name": "C4",
          "ticks": 63600,
          "time": 305.76919000000004,
          "velocity": 0.6299212598425197
        },
        {
          "duration": 1.1538459999999873,
          "durationTicks": 240,
          "midi": 36,
          "name": "C2",
          "ticks": 63840,
          "time": 306.923036,
          "velocity": 0.6299212598425197
        },
        {
          "duration": 1.1538459999999873,
          "durationTicks": 240,
          "midi": 48,
          "name": "C3",
          "ticks": 63840,
          "time": 306.923036,
          "velocity": 0.6299212598425197
        },
        {
          "duration": 1.1538460000000441,
          "durationTicks": 240,
          "midi": 38,
          "name": "D2",
          "ticks": 64080,
          "time": 308.076882,
          "velocity": 0.6299212598425197
        },
        {
          "duration": 1.1538460000000441,
          "durationTicks": 240,
          "midi": 50,
          "name": "D3",
          "ticks": 64080,
          "time": 308.076882,
          "velocity": 0.6299212598425197
        },
        {
          "duration": 1.1538459999999873,
          "durationTicks": 240,
          "midi": 50,
          "name": "D3",
          "ticks": 64320,
          "time": 309.23072800000006,
          "velocity": 0.6299212598425197
        },
        {
          "duration": 1.1538459999999873,
          "durationTicks": 240,
          "midi": 62,
          "name": "D4",
          "ticks": 64320,
          "time": 309.23072800000006,
          "velocity": 0.6299212598425197
        },
        {
          "duration": 1.1538459999999873,
          "durationTicks": 240,
          "midi": 38,
          "name": "D2",
          "ticks": 64560,
          "time": 310.38457400000004,
          "velocity": 0.6299212598425197
        },
        {
          "duration": 1.1538459999999873,
          "durationTicks": 240,
          "midi": 50,
          "name": "D3",
          "ticks": 64560,
          "time": 310.38457400000004,
          "velocity": 0.6299212598425197
        },
        {
          "duration": 1.1538459999999873,
          "durationTicks": 240,
          "midi": 38,
          "name": "D2",
          "ticks": 64800,
          "time": 311.53842000000003,
          "velocity": 0.6299212598425197
        },
        {
          "duration": 1.1538459999999873,
          "durationTicks": 240,
          "midi": 50,
          "name": "D3",
          "ticks": 64800,
          "time": 311.53842000000003,
          "velocity": 0.6299212598425197
        },
        {
          "duration": 1.1538460000000441,
          "durationTicks": 240,
          "midi": 50,
          "name": "D3",
          "ticks": 65040,
          "time": 312.692266,
          "velocity": 0.6299212598425197
        },
        {
          "duration": 1.1538460000000441,
          "durationTicks": 240,
          "midi": 62,
          "name": "D4",
          "ticks": 65040,
          "time": 312.692266,
          "velocity": 0.6299212598425197
        },
        {
          "duration": 1.1538459999999873,
          "durationTicks": 240,
          "midi": 38,
          "name": "D2",
          "ticks": 65280,
          "time": 313.84611200000006,
          "velocity": 0.6299212598425197
        },
        {
          "duration": 1.1538459999999873,
          "durationTicks": 240,
          "midi": 50,
          "name": "D3",
          "ticks": 65280,
          "time": 313.84611200000006,
          "velocity": 0.6299212598425197
        },
        {
          "duration": 1.1538459999999873,
          "durationTicks": 240,
          "midi": 39,
          "name": "D#2",
          "ticks": 65520,
          "time": 314.99995800000005,
          "velocity": 0.6299212598425197
        },
        {
          "duration": 1.1538459999999873,
          "durationTicks": 240,
          "midi": 51,
          "name": "D#3",
          "ticks": 65520,
          "time": 314.99995800000005,
          "velocity": 0.6299212598425197
        },
        {
          "duration": 1.1538459999999873,
          "durationTicks": 240,
          "midi": 51,
          "name": "D#3",
          "ticks": 65760,
          "time": 316.15380400000004,
          "velocity": 0.6299212598425197
        },
        {
          "duration": 1.1538459999999873,
          "durationTicks": 240,
          "midi": 63,
          "name": "D#4",
          "ticks": 65760,
          "time": 316.15380400000004,
          "velocity": 0.6299212598425197
        },
        {
          "duration": 1.1538460000000441,
          "durationTicks": 240,
          "midi": 39,
          "name": "D#2",
          "ticks": 66000,
          "time": 317.30765,
          "velocity": 0.6299212598425197
        },
        {
          "duration": 1.1538460000000441,
          "durationTicks": 240,
          "midi": 51,
          "name": "D#3",
          "ticks": 66000,
          "time": 317.30765,
          "velocity": 0.6299212598425197
        },
        {
          "duration": 1.1538459999999873,
          "durationTicks": 240,
          "midi": 39,
          "name": "D#2",
          "ticks": 66240,
          "time": 318.46149600000007,
          "velocity": 0.6299212598425197
        },
        {
          "duration": 1.1538459999999873,
          "durationTicks": 240,
          "midi": 51,
          "name": "D#3",
          "ticks": 66240,
          "time": 318.46149600000007,
          "velocity": 0.6299212598425197
        },
        {
          "duration": 1.1538459999999873,
          "durationTicks": 240,
          "midi": 51,
          "name": "D#3",
          "ticks": 66480,
          "time": 319.61534200000006,
          "velocity": 0.6299212598425197
        },
        {
          "duration": 1.1538459999999873,
          "durationTicks": 240,
          "midi": 63,
          "name": "D#4",
          "ticks": 66480,
          "time": 319.61534200000006,
          "velocity": 0.6299212598425197
        },
        {
          "duration": 1.1538459999999873,
          "durationTicks": 240,
          "midi": 39,
          "name": "D#2",
          "ticks": 66720,
          "time": 320.76918800000004,
          "velocity": 0.6299212598425197
        },
        {
          "duration": 1.1538459999999873,
          "durationTicks": 240,
          "midi": 51,
          "name": "D#3",
          "ticks": 66720,
          "time": 320.76918800000004,
          "velocity": 0.6299212598425197
        },
        {
          "duration": 1.1538459999999873,
          "durationTicks": 240,
          "midi": 41,
          "name": "F2",
          "ticks": 66960,
          "time": 321.92303400000003,
          "velocity": 0.6299212598425197
        },
        {
          "duration": 1.1538459999999873,
          "durationTicks": 240,
          "midi": 53,
          "name": "F3",
          "ticks": 66960,
          "time": 321.92303400000003,
          "velocity": 0.6299212598425197
        },
        {
          "duration": 1.1538460000000441,
          "durationTicks": 240,
          "midi": 53,
          "name": "F3",
          "ticks": 67200,
          "time": 323.07688,
          "velocity": 0.6299212598425197
        },
        {
          "duration": 1.1538460000000441,
          "durationTicks": 240,
          "midi": 65,
          "name": "F4",
          "ticks": 67200,
          "time": 323.07688,
          "velocity": 0.6299212598425197
        },
        {
          "duration": 1.1538459999999873,
          "durationTicks": 240,
          "midi": 41,
          "name": "F2",
          "ticks": 67440,
          "time": 324.23072600000006,
          "velocity": 0.6299212598425197
        },
        {
          "duration": 1.1538459999999873,
          "durationTicks": 240,
          "midi": 53,
          "name": "F3",
          "ticks": 67440,
          "time": 324.23072600000006,
          "velocity": 0.6299212598425197
        },
        {
          "duration": 1.1538459999999873,
          "durationTicks": 240,
          "midi": 38,
          "name": "D2",
          "ticks": 67680,
          "time": 325.38457200000005,
          "velocity": 0.6299212598425197
        },
        {
          "duration": 1.1538459999999873,
          "durationTicks": 240,
          "midi": 50,
          "name": "D3",
          "ticks": 67680,
          "time": 325.38457200000005,
          "velocity": 0.6299212598425197
        },
        {
          "duration": 1.1538459999999873,
          "durationTicks": 240,
          "midi": 50,
          "name": "D3",
          "ticks": 67920,
          "time": 326.53841800000004,
          "velocity": 0.6299212598425197
        },
        {
          "duration": 1.1538459999999873,
          "durationTicks": 240,
          "midi": 62,
          "name": "D4",
          "ticks": 67920,
          "time": 326.53841800000004,
          "velocity": 0.6299212598425197
        },
        {
          "duration": 1.1538460000000441,
          "durationTicks": 240,
          "midi": 38,
          "name": "D2",
          "ticks": 68160,
          "time": 327.692264,
          "velocity": 0.6299212598425197
        },
        {
          "duration": 1.1538460000000441,
          "durationTicks": 240,
          "midi": 50,
          "name": "D3",
          "ticks": 68160,
          "time": 327.692264,
          "velocity": 0.6299212598425197
        },
        {
          "duration": 1.1538459999999873,
          "durationTicks": 240,
          "midi": 39,
          "name": "D#2",
          "ticks": 68400,
          "time": 328.84611000000007,
          "velocity": 0.6299212598425197
        },
        {
          "duration": 1.1538459999999873,
          "durationTicks": 240,
          "midi": 51,
          "name": "D#3",
          "ticks": 68400,
          "time": 328.84611000000007,
          "velocity": 0.6299212598425197
        },
        {
          "duration": 1.1538459999999873,
          "durationTicks": 240,
          "midi": 51,
          "name": "D#3",
          "ticks": 68640,
          "time": 329.99995600000005,
          "velocity": 0.6299212598425197
        },
        {
          "duration": 1.1538459999999873,
          "durationTicks": 240,
          "midi": 63,
          "name": "D#4",
          "ticks": 68640,
          "time": 329.99995600000005,
          "velocity": 0.6299212598425197
        },
        {
          "duration": 1.1538459999999873,
          "durationTicks": 240,
          "midi": 39,
          "name": "D#2",
          "ticks": 68880,
          "time": 331.15380200000004,
          "velocity": 0.6299212598425197
        },
        {
          "duration": 1.1538459999999873,
          "durationTicks": 240,
          "midi": 51,
          "name": "D#3",
          "ticks": 68880,
          "time": 331.15380200000004,
          "velocity": 0.6299212598425197
        },
        {
          "duration": 1.1538459999999873,
          "durationTicks": 240,
          "midi": 36,
          "name": "C2",
          "ticks": 69120,
          "time": 332.30764800000003,
          "velocity": 0.5039370078740157
        },
        {
          "duration": 1.1538459999999873,
          "durationTicks": 240,
          "midi": 48,
          "name": "C3",
          "ticks": 69120,
          "time": 332.30764800000003,
          "velocity": 0.5039370078740157
        },
        {
          "duration": 1.1538460000000441,
          "durationTicks": 240,
          "midi": 48,
          "name": "C3",
          "ticks": 69360,
          "time": 333.461494,
          "velocity": 0.5039370078740157
        },
        {
          "duration": 1.1538460000000441,
          "durationTicks": 240,
          "midi": 60,
          "name": "C4",
          "ticks": 69360,
          "time": 333.461494,
          "velocity": 0.5039370078740157
        },
        {
          "duration": 1.1538459999999873,
          "durationTicks": 240,
          "midi": 36,
          "name": "C2",
          "ticks": 69600,
          "time": 334.61534000000006,
          "velocity": 0.5039370078740157
        },
        {
          "duration": 1.1538459999999873,
          "durationTicks": 240,
          "midi": 48,
          "name": "C3",
          "ticks": 69600,
          "time": 334.61534000000006,
          "velocity": 0.5039370078740157
        },
        {
          "duration": 1.1538459999999873,
          "durationTicks": 240,
          "midi": 38,
          "name": "D2",
          "ticks": 69840,
          "time": 335.76918600000005,
          "velocity": 0.5039370078740157
        },
        {
          "duration": 1.1538459999999873,
          "durationTicks": 240,
          "midi": 50,
          "name": "D3",
          "ticks": 69840,
          "time": 335.76918600000005,
          "velocity": 0.5039370078740157
        },
        {
          "duration": 1.1538459999999873,
          "durationTicks": 240,
          "midi": 50,
          "name": "D3",
          "ticks": 70080,
          "time": 336.92303200000003,
          "velocity": 0.5039370078740157
        },
        {
          "duration": 1.1538459999999873,
          "durationTicks": 240,
          "midi": 62,
          "name": "D4",
          "ticks": 70080,
          "time": 336.92303200000003,
          "velocity": 0.5039370078740157
        },
        {
          "duration": 1.1538460000000441,
          "durationTicks": 240,
          "midi": 38,
          "name": "D2",
          "ticks": 70320,
          "time": 338.076878,
          "velocity": 0.5039370078740157
        },
        {
          "duration": 1.1538460000000441,
          "durationTicks": 240,
          "midi": 50,
          "name": "D3",
          "ticks": 70320,
          "time": 338.076878,
          "velocity": 0.5039370078740157
        },
        {
          "duration": 1.1538459999999873,
          "durationTicks": 240,
          "midi": 39,
          "name": "D#2",
          "ticks": 70560,
          "time": 339.23072400000007,
          "velocity": 0.5039370078740157
        },
        {
          "duration": 1.1538459999999873,
          "durationTicks": 240,
          "midi": 51,
          "name": "D#3",
          "ticks": 70560,
          "time": 339.23072400000007,
          "velocity": 0.5039370078740157
        },
        {
          "duration": 1.1538459999999873,
          "durationTicks": 240,
          "midi": 51,
          "name": "D#3",
          "ticks": 70800,
          "time": 340.38457000000005,
          "velocity": 0.5039370078740157
        },
        {
          "duration": 1.1538459999999873,
          "durationTicks": 240,
          "midi": 63,
          "name": "D#4",
          "ticks": 70800,
          "time": 340.38457000000005,
          "velocity": 0.5039370078740157
        },
        {
          "duration": 1.1538459999999873,
          "durationTicks": 240,
          "midi": 39,
          "name": "D#2",
          "ticks": 71040,
          "time": 341.53841600000004,
          "velocity": 0.5039370078740157
        },
        {
          "duration": 1.1538459999999873,
          "durationTicks": 240,
          "midi": 51,
          "name": "D#3",
          "ticks": 71040,
          "time": 341.53841600000004,
          "velocity": 0.5039370078740157
        },
        {
          "duration": 1.1538460000000441,
          "durationTicks": 240,
          "midi": 38,
          "name": "D2",
          "ticks": 71280,
          "time": 342.692262,
          "velocity": 0.5039370078740157
        },
        {
          "duration": 1.1538460000000441,
          "durationTicks": 240,
          "midi": 50,
          "name": "D3",
          "ticks": 71280,
          "time": 342.692262,
          "velocity": 0.5039370078740157
        },
        {
          "duration": 1.1538459999999873,
          "durationTicks": 240,
          "midi": 50,
          "name": "D3",
          "ticks": 71520,
          "time": 343.8461080000001,
          "velocity": 0.5039370078740157
        },
        {
          "duration": 1.1538459999999873,
          "durationTicks": 240,
          "midi": 62,
          "name": "D4",
          "ticks": 71520,
          "time": 343.8461080000001,
          "velocity": 0.5039370078740157
        },
        {
          "duration": 1.1538459999999873,
          "durationTicks": 240,
          "midi": 38,
          "name": "D2",
          "ticks": 71760,
          "time": 344.99995400000006,
          "velocity": 0.5039370078740157
        },
        {
          "duration": 1.1538459999999873,
          "durationTicks": 240,
          "midi": 50,
          "name": "D3",
          "ticks": 71760,
          "time": 344.99995400000006,
          "velocity": 0.5039370078740157
        },
        {
          "duration": 1.1538459999999873,
          "durationTicks": 240,
          "midi": 39,
          "name": "D#2",
          "ticks": 72000,
          "time": 346.15380000000005,
          "velocity": 0.5039370078740157
        },
        {
          "duration": 1.1538459999999873,
          "durationTicks": 240,
          "midi": 51,
          "name": "D#3",
          "ticks": 72000,
          "time": 346.15380000000005,
          "velocity": 0.5039370078740157
        },
        {
          "duration": 1.1538459999999873,
          "durationTicks": 240,
          "midi": 51,
          "name": "D#3",
          "ticks": 72240,
          "time": 347.30764600000003,
          "velocity": 0.5039370078740157
        },
        {
          "duration": 1.1538459999999873,
          "durationTicks": 240,
          "midi": 63,
          "name": "D#4",
          "ticks": 72240,
          "time": 347.30764600000003,
          "velocity": 0.5039370078740157
        },
        {
          "duration": 1.1538460000000441,
          "durationTicks": 240,
          "midi": 39,
          "name": "D#2",
          "ticks": 72480,
          "time": 348.461492,
          "velocity": 0.5039370078740157
        },
        {
          "duration": 1.1538460000000441,
          "durationTicks": 240,
          "midi": 51,
          "name": "D#3",
          "ticks": 72480,
          "time": 348.461492,
          "velocity": 0.5039370078740157
        },
        {
          "duration": 1.1538460000000441,
          "durationTicks": 240,
          "midi": 41,
          "name": "F2",
          "ticks": 75600,
          "time": 363.46149,
          "velocity": 0.5039370078740157
        },
        {
          "duration": 1.1538459999999873,
          "durationTicks": 240,
          "midi": 53,
          "name": "F3",
          "ticks": 75840,
          "time": 364.61533600000007,
          "velocity": 0.5039370078740157
        },
        {
          "duration": 1.1538459999999873,
          "durationTicks": 240,
          "midi": 41,
          "name": "F2",
          "ticks": 76080,
          "time": 365.76918200000006,
          "velocity": 0.5039370078740157
        },
        {
          "duration": 1.1538459999999873,
          "durationTicks": 240,
          "midi": 38,
          "name": "D2",
          "ticks": 76320,
          "time": 366.92302800000004,
          "velocity": 0.5039370078740157
        },
        {
          "duration": 1.1538459999999873,
          "durationTicks": 240,
          "midi": 50,
          "name": "D3",
          "ticks": 76560,
          "time": 368.07687400000003,
          "velocity": 0.5039370078740157
        },
        {
          "duration": 1.1538460000000441,
          "durationTicks": 240,
          "midi": 38,
          "name": "D2",
          "ticks": 76800,
          "time": 369.23072,
          "velocity": 0.5039370078740157
        },
        {
          "duration": 1.1538459999999873,
          "durationTicks": 240,
          "midi": 39,
          "name": "D#2",
          "ticks": 77040,
          "time": 370.38456600000006,
          "velocity": 0.5039370078740157
        },
        {
          "duration": 1.1538459999999873,
          "durationTicks": 240,
          "midi": 51,
          "name": "D#3",
          "ticks": 77280,
          "time": 371.53841200000005,
          "velocity": 0.5039370078740157
        },
        {
          "duration": 1.1538459999999873,
          "durationTicks": 240,
          "midi": 39,
          "name": "D#2",
          "ticks": 77520,
          "time": 372.69225800000004,
          "velocity": 0.5039370078740157
        },
        {
          "duration": 1.1538460000000441,
          "durationTicks": 240,
          "midi": 38,
          "name": "D2",
          "ticks": 77760,
          "time": 373.846104,
          "velocity": 0.5039370078740157
        },
        {
          "duration": 1.1538459999999873,
          "durationTicks": 240,
          "midi": 50,
          "name": "D3",
          "ticks": 78000,
          "time": 374.99995000000007,
          "velocity": 0.5039370078740157
        },
        {
          "duration": 1.1538459999999873,
          "durationTicks": 240,
          "midi": 38,
          "name": "D2",
          "ticks": 78240,
          "time": 376.15379600000006,
          "velocity": 0.5039370078740157
        },
        {
          "duration": 1.1538459999999873,
          "durationTicks": 240,
          "midi": 39,
          "name": "D#2",
          "ticks": 78480,
          "time": 377.30764200000004,
          "velocity": 0.5039370078740157
        },
        {
          "duration": 1.1538460000000441,
          "durationTicks": 240,
          "midi": 51,
          "name": "D#3",
          "ticks": 78720,
          "time": 378.46148800000003,
          "velocity": 0.5039370078740157
        },
        {
          "duration": 1.1538459999999873,
          "durationTicks": 240,
          "midi": 39,
          "name": "D#2",
          "ticks": 78960,
          "time": 379.6153340000001,
          "velocity": 0.5039370078740157
        },
        {
          "duration": 1.1538459999999873,
          "durationTicks": 240,
          "midi": 41,
          "name": "F2",
          "ticks": 79200,
          "time": 380.76918000000006,
          "velocity": 0.5039370078740157
        },
        {
          "duration": 1.1538459999999873,
          "durationTicks": 240,
          "midi": 53,
          "name": "F3",
          "ticks": 79440,
          "time": 381.92302600000005,
          "velocity": 0.5039370078740157
        },
        {
          "duration": 1.1538459999999873,
          "durationTicks": 240,
          "midi": 41,
          "name": "F2",
          "ticks": 79680,
          "time": 383.07687200000004,
          "velocity": 0.5039370078740157
        },
        {
          "duration": 1.1538460000000441,
          "durationTicks": 240,
          "midi": 39,
          "name": "D#2",
          "ticks": 79920,
          "time": 384.230718,
          "velocity": 0.5039370078740157
        },
        {
          "duration": 1.1538459999999873,
          "durationTicks": 240,
          "midi": 51,
          "name": "D#3",
          "ticks": 80160,
          "time": 385.38456400000007,
          "velocity": 0.5039370078740157
        },
        {
          "duration": 1.1538459999999873,
          "durationTicks": 240,
          "midi": 39,
          "name": "D#2",
          "ticks": 80400,
          "time": 386.53841000000006,
          "velocity": 0.5039370078740157
        },
        {
          "duration": 1.1538459999999873,
          "durationTicks": 240,
          "midi": 41,
          "name": "F2",
          "ticks": 80640,
          "time": 387.69225600000004,
          "velocity": 0.5039370078740157
        },
        {
          "duration": 1.1538460000000441,
          "durationTicks": 240,
          "midi": 53,
          "name": "F3",
          "ticks": 80880,
          "time": 388.84610200000003,
          "velocity": 0.5039370078740157
        },
        {
          "duration": 1.1538459999999873,
          "durationTicks": 240,
          "midi": 41,
          "name": "F2",
          "ticks": 81120,
          "time": 389.9999480000001,
          "velocity": 0.5039370078740157
        },
        {
          "duration": 1.1538460000000441,
          "durationTicks": 240,
          "midi": 29,
          "name": "F1",
          "ticks": 82080,
          "time": 394.615332,
          "velocity": 0.6299212598425197
        },
        {
          "duration": 1.1538460000000441,
          "durationTicks": 240,
          "midi": 41,
          "name": "F2",
          "ticks": 82080,
          "time": 394.615332,
          "velocity": 0.6299212598425197
        },
        {
          "duration": 1.1538459999999873,
          "durationTicks": 240,
          "midi": 41,
          "name": "F2",
          "ticks": 82320,
          "time": 395.76917800000007,
          "velocity": 0.6299212598425197
        },
        {
          "duration": 1.1538459999999873,
          "durationTicks": 240,
          "midi": 53,
          "name": "F3",
          "ticks": 82320,
          "time": 395.76917800000007,
          "velocity": 0.6299212598425197
        },
        {
          "duration": 1.1538459999999873,
          "durationTicks": 240,
          "midi": 29,
          "name": "F1",
          "ticks": 82560,
          "time": 396.92302400000005,
          "velocity": 0.6299212598425197
        },
        {
          "duration": 1.1538459999999873,
          "durationTicks": 240,
          "midi": 41,
          "name": "F2",
          "ticks": 82560,
          "time": 396.92302400000005,
          "velocity": 0.6299212598425197
        },
        {
          "duration": 1.1538459999999873,
          "durationTicks": 240,
          "midi": 28,
          "name": "E1",
          "ticks": 84240,
          "time": 404.9999460000001,
          "velocity": 0.6299212598425197
        },
        {
          "duration": 1.1538459999999873,
          "durationTicks": 240,
          "midi": 40,
          "name": "E2",
          "ticks": 84240,
          "time": 404.9999460000001,
          "velocity": 0.6299212598425197
        },
        {
          "duration": 1.1538459999999873,
          "durationTicks": 240,
          "midi": 40,
          "name": "E2",
          "ticks": 84480,
          "time": 406.15379200000007,
          "velocity": 0.6299212598425197
        },
        {
          "duration": 1.1538459999999873,
          "durationTicks": 240,
          "midi": 52,
          "name": "E3",
          "ticks": 84480,
          "time": 406.15379200000007,
          "velocity": 0.6299212598425197
        },
        {
          "duration": 1.1538459999999873,
          "durationTicks": 240,
          "midi": 28,
          "name": "E1",
          "ticks": 84720,
          "time": 407.30763800000005,
          "velocity": 0.6299212598425197
        },
        {
          "duration": 1.1538459999999873,
          "durationTicks": 240,
          "midi": 40,
          "name": "E2",
          "ticks": 84720,
          "time": 407.30763800000005,
          "velocity": 0.6299212598425197
        },
        {
          "duration": 1.1538459999999873,
          "durationTicks": 240,
          "midi": 29,
          "name": "F1",
          "ticks": 84960,
          "time": 408.46148400000004,
          "velocity": 0.6299212598425197
        },
        {
          "duration": 1.1538459999999873,
          "durationTicks": 240,
          "midi": 41,
          "name": "F2",
          "ticks": 84960,
          "time": 408.46148400000004,
          "velocity": 0.6299212598425197
        },
        {
          "duration": 1.1538460000000441,
          "durationTicks": 240,
          "midi": 41,
          "name": "F2",
          "ticks": 85200,
          "time": 409.61533000000003,
          "velocity": 0.6299212598425197
        },
        {
          "duration": 1.1538460000000441,
          "durationTicks": 240,
          "midi": 53,
          "name": "F3",
          "ticks": 85200,
          "time": 409.61533000000003,
          "velocity": 0.6299212598425197
        },
        {
          "duration": 1.1538459999999873,
          "durationTicks": 240,
          "midi": 29,
          "name": "F1",
          "ticks": 85440,
          "time": 410.7691760000001,
          "velocity": 0.6299212598425197
        },
        {
          "duration": 1.1538459999999873,
          "durationTicks": 240,
          "midi": 41,
          "name": "F2",
          "ticks": 85440,
          "time": 410.7691760000001,
          "velocity": 0.6299212598425197
        },
        {
          "duration": 1.1538459999999873,
          "durationTicks": 240,
          "midi": 27,
          "name": "D#1",
          "ticks": 85680,
          "time": 411.92302200000006,
          "velocity": 0.6299212598425197
        },
        {
          "duration": 1.1538459999999873,
          "durationTicks": 240,
          "midi": 39,
          "name": "D#2",
          "ticks": 85680,
          "time": 411.92302200000006,
          "velocity": 0.6299212598425197
        },
        {
          "duration": 1.1538459999999873,
          "durationTicks": 240,
          "midi": 39,
          "name": "D#2",
          "ticks": 85920,
          "time": 413.07686800000005,
          "velocity": 0.6299212598425197
        },
        {
          "duration": 1.1538459999999873,
          "durationTicks": 240,
          "midi": 51,
          "name": "D#3",
          "ticks": 85920,
          "time": 413.07686800000005,
          "velocity": 0.6299212598425197
        },
        {
          "duration": 1.1538460000000441,
          "durationTicks": 240,
          "midi": 27,
          "name": "D#1",
          "ticks": 86160,
          "time": 414.23071400000003,
          "velocity": 0.6299212598425197
        },
        {
          "duration": 1.1538460000000441,
          "durationTicks": 240,
          "midi": 39,
          "name": "D#2",
          "ticks": 86160,
          "time": 414.23071400000003,
          "velocity": 0.6299212598425197
        },
        {
          "duration": 1.1538459999999873,
          "durationTicks": 240,
          "midi": 25,
          "name": "C#1",
          "ticks": 86400,
          "time": 415.3845600000001,
          "velocity": 0.6299212598425197
        },
        {
          "duration": 1.1538459999999873,
          "durationTicks": 240,
          "midi": 37,
          "name": "C#2",
          "ticks": 86400,
          "time": 415.3845600000001,
          "velocity": 0.6299212598425197
        },
        {
          "duration": 1.1538459999999873,
          "durationTicks": 240,
          "midi": 37,
          "name": "C#2",
          "ticks": 86640,
          "time": 416.53840600000007,
          "velocity": 0.6299212598425197
        },
        {
          "duration": 1.1538459999999873,
          "durationTicks": 240,
          "midi": 49,
          "name": "C#3",
          "ticks": 86640,
          "time": 416.53840600000007,
          "velocity": 0.6299212598425197
        },
        {
          "duration": 1.1538459999999873,
          "durationTicks": 240,
          "midi": 25,
          "name": "C#1",
          "ticks": 86880,
          "time": 417.69225200000005,
          "velocity": 0.6299212598425197
        },
        {
          "duration": 1.1538459999999873,
          "durationTicks": 240,
          "midi": 37,
          "name": "C#2",
          "ticks": 86880,
          "time": 417.69225200000005,
          "velocity": 0.6299212598425197
        },
        {
          "duration": 1.1538459999999873,
          "durationTicks": 240,
          "midi": 31,
          "name": "G1",
          "ticks": 87120,
          "time": 418.84609800000004,
          "velocity": 0.6299212598425197
        },
        {
          "duration": 1.1538459999999873,
          "durationTicks": 240,
          "midi": 43,
          "name": "G2",
          "ticks": 87120,
          "time": 418.84609800000004,
          "velocity": 0.6299212598425197
        },
        {
          "duration": 1.1538460000000441,
          "durationTicks": 240,
          "midi": 43,
          "name": "G2",
          "ticks": 87360,
          "time": 419.999944,
          "velocity": 0.6299212598425197
        },
        {
          "duration": 1.1538460000000441,
          "durationTicks": 240,
          "midi": 55,
          "name": "G3",
          "ticks": 87360,
          "time": 419.999944,
          "velocity": 0.6299212598425197
        },
        {
          "duration": 1.1538459999999873,
          "durationTicks": 240,
          "midi": 31,
          "name": "G1",
          "ticks": 87600,
          "time": 421.1537900000001,
          "velocity": 0.6299212598425197
        },
        {
          "duration": 1.1538459999999873,
          "durationTicks": 240,
          "midi": 43,
          "name": "G2",
          "ticks": 87600,
          "time": 421.1537900000001,
          "velocity": 0.6299212598425197
        },
        {
          "duration": 1.1538459999999873,
          "durationTicks": 240,
          "midi": 31,
          "name": "G1",
          "ticks": 87840,
          "time": 422.30763600000006,
          "velocity": 0.5039370078740157
        },
        {
          "duration": 1.1538459999999873,
          "durationTicks": 240,
          "midi": 43,
          "name": "G2",
          "ticks": 87840,
          "time": 422.30763600000006,
          "velocity": 0.5039370078740157
        },
        {
          "duration": 1.1538459999999873,
          "durationTicks": 240,
          "midi": 43,
          "name": "G2",
          "ticks": 88080,
          "time": 423.46148200000005,
          "velocity": 0.5039370078740157
        },
        {
          "duration": 1.1538459999999873,
          "durationTicks": 240,
          "midi": 55,
          "name": "G3",
          "ticks": 88080,
          "time": 423.46148200000005,
          "velocity": 0.5039370078740157
        },
        {
          "duration": 1.1538460000000441,
          "durationTicks": 240,
          "midi": 31,
          "name": "G1",
          "ticks": 88320,
          "time": 424.61532800000003,
          "velocity": 0.5039370078740157
        },
        {
          "duration": 1.1538460000000441,
          "durationTicks": 240,
          "midi": 43,
          "name": "G2",
          "ticks": 88320,
          "time": 424.61532800000003,
          "velocity": 0.5039370078740157
        },
        {
          "duration": 1.1538459999999873,
          "durationTicks": 240,
          "midi": 32,
          "name": "G#1",
          "ticks": 88560,
          "time": 425.7691740000001,
          "velocity": 0.3937007874015748
        },
        {
          "duration": 1.1538459999999873,
          "durationTicks": 240,
          "midi": 44,
          "name": "G#2",
          "ticks": 88560,
          "time": 425.7691740000001,
          "velocity": 0.3937007874015748
        },
        {
          "duration": 1.1538459999999873,
          "durationTicks": 240,
          "midi": 44,
          "name": "G#2",
          "ticks": 88800,
          "time": 426.92302000000007,
          "velocity": 0.41732283464566927
        },
        {
          "duration": 1.1538459999999873,
          "durationTicks": 240,
          "midi": 56,
          "name": "G#3",
          "ticks": 88800,
          "time": 426.92302000000007,
          "velocity": 0.41732283464566927
        },
        {
          "duration": 1.1538459999999873,
          "durationTicks": 240,
          "midi": 32,
          "name": "G#1",
          "ticks": 89040,
          "time": 428.07686600000005,
          "velocity": 0.44881889763779526
        },
        {
          "duration": 1.1538459999999873,
          "durationTicks": 240,
          "midi": 44,
          "name": "G#2",
          "ticks": 89040,
          "time": 428.07686600000005,
          "velocity": 0.44881889763779526
        },
        {
          "duration": 1.1538460000000441,
          "durationTicks": 240,
          "midi": 31,
          "name": "G1",
          "ticks": 89280,
          "time": 429.23071200000004,
          "velocity": 0.6299212598425197
        },
        {
          "duration": 1.1538460000000441,
          "durationTicks": 240,
          "midi": 43,
          "name": "G2",
          "ticks": 89280,
          "time": 429.23071200000004,
          "velocity": 0.6299212598425197
        },
        {
          "duration": 1.1538459999999873,
          "durationTicks": 240,
          "midi": 43,
          "name": "G2",
          "ticks": 89520,
          "time": 430.3845580000001,
          "velocity": 0.6299212598425197
        },
        {
          "duration": 1.1538459999999873,
          "durationTicks": 240,
          "midi": 55,
          "name": "G3",
          "ticks": 89520,
          "time": 430.3845580000001,
          "velocity": 0.6299212598425197
        },
        {
          "duration": 1.1538459999999873,
          "durationTicks": 240,
          "midi": 31,
          "name": "G1",
          "ticks": 89760,
          "time": 431.53840400000007,
          "velocity": 0.6299212598425197
        },
        {
          "duration": 1.1538459999999873,
          "durationTicks": 240,
          "midi": 43,
          "name": "G2",
          "ticks": 89760,
          "time": 431.53840400000007,
          "velocity": 0.6299212598425197
        },
        {
          "duration": 0.23076919999999745,
          "durationTicks": 48,
          "midi": 37,
          "name": "C#2",
          "ticks": 100020,
          "time": 480.86532050000005,
          "velocity": 0.5039370078740157
        },
        {
          "duration": 0.23076919999999745,
          "durationTicks": 48,
          "midi": 49,
          "name": "C#3",
          "ticks": 100020,
          "time": 480.86532050000005,
          "velocity": 0.5039370078740157
        },
        {
          "duration": 0.9230768000000467,
          "durationTicks": 192,
          "midi": 26,
          "name": "D1",
          "ticks": 100080,
          "time": 481.15378200000004,
          "velocity": 0.5039370078740157
        },
        {
          "duration": 0.9230768000000467,
          "durationTicks": 192,
          "midi": 38,
          "name": "D2",
          "ticks": 100080,
          "time": 481.15378200000004,
          "velocity": 0.5039370078740157
        },
        {
          "duration": 0.9230767999999898,
          "durationTicks": 192,
          "midi": 38,
          "name": "D2",
          "ticks": 100320,
          "time": 482.3076280000001,
          "velocity": 0.5039370078740157
        },
        {
          "duration": 0.9230767999999898,
          "durationTicks": 192,
          "midi": 50,
          "name": "D3",
          "ticks": 100320,
          "time": 482.3076280000001,
          "velocity": 0.5039370078740157
        },
        {
          "duration": 0.9230767999999898,
          "durationTicks": 192,
          "midi": 26,
          "name": "D1",
          "ticks": 100560,
          "time": 483.46147400000007,
          "velocity": 0.5039370078740157
        },
        {
          "duration": 0.9230767999999898,
          "durationTicks": 192,
          "midi": 38,
          "name": "D2",
          "ticks": 100560,
          "time": 483.46147400000007,
          "velocity": 0.5039370078740157
        },
        {
          "duration": 0.9230768000000467,
          "durationTicks": 192,
          "midi": 24,
          "name": "C1",
          "ticks": 100800,
          "time": 484.61532000000005,
          "velocity": 0.5039370078740157
        },
        {
          "duration": 0.9230768000000467,
          "durationTicks": 192,
          "midi": 36,
          "name": "C2",
          "ticks": 100800,
          "time": 484.61532000000005,
          "velocity": 0.5039370078740157
        },
        {
          "duration": 0.9230768000000467,
          "durationTicks": 192,
          "midi": 36,
          "name": "C2",
          "ticks": 101040,
          "time": 485.76916600000004,
          "velocity": 0.5039370078740157
        },
        {
          "duration": 0.9230768000000467,
          "durationTicks": 192,
          "midi": 48,
          "name": "C3",
          "ticks": 101040,
          "time": 485.76916600000004,
          "velocity": 0.5039370078740157
        },
        {
          "duration": 0.9230767999999898,
          "durationTicks": 192,
          "midi": 24,
          "name": "C1",
          "ticks": 101280,
          "time": 486.9230120000001,
          "velocity": 0.5039370078740157
        },
        {
          "duration": 0.9230767999999898,
          "durationTicks": 192,
          "midi": 36,
          "name": "C2",
          "ticks": 101280,
          "time": 486.9230120000001,
          "velocity": 0.5039370078740157
        },
        {
          "duration": 0.9230767999999898,
          "durationTicks": 192,
          "midi": 25,
          "name": "C#1",
          "ticks": 101520,
          "time": 488.0768580000001,
          "velocity": 0.5039370078740157
        },
        {
          "duration": 0.9230767999999898,
          "durationTicks": 192,
          "midi": 37,
          "name": "C#2",
          "ticks": 101520,
          "time": 488.0768580000001,
          "velocity": 0.5039370078740157
        },
        {
          "duration": 0.9230767999999898,
          "durationTicks": 192,
          "midi": 37,
          "name": "C#2",
          "ticks": 101760,
          "time": 489.23070400000006,
          "velocity": 0.5039370078740157
        },
        {
          "duration": 0.9230767999999898,
          "durationTicks": 192,
          "midi": 49,
          "name": "C#3",
          "ticks": 101760,
          "time": 489.23070400000006,
          "velocity": 0.5039370078740157
        },
        {
          "duration": 0.9230768000000467,
          "durationTicks": 192,
          "midi": 25,
          "name": "C#1",
          "ticks": 102000,
          "time": 490.38455000000005,
          "velocity": 0.5039370078740157
        },
        {
          "duration": 0.9230768000000467,
          "durationTicks": 192,
          "midi": 37,
          "name": "C#2",
          "ticks": 102000,
          "time": 490.38455000000005,
          "velocity": 0.5039370078740157
        },
        {
          "duration": 0.9230767999999898,
          "durationTicks": 192,
          "midi": 26,
          "name": "D1",
          "ticks": 102240,
          "time": 491.5383960000001,
          "velocity": 0.5039370078740157
        },
        {
          "duration": 0.9230767999999898,
          "durationTicks": 192,
          "midi": 38,
          "name": "D2",
          "ticks": 102240,
          "time": 491.5383960000001,
          "velocity": 0.5039370078740157
        },
        {
          "duration": 0.9230767999999898,
          "durationTicks": 192,
          "midi": 38,
          "name": "D2",
          "ticks": 102480,
          "time": 492.6922420000001,
          "velocity": 0.5039370078740157
        },
        {
          "duration": 0.9230767999999898,
          "durationTicks": 192,
          "midi": 50,
          "name": "D3",
          "ticks": 102480,
          "time": 492.6922420000001,
          "velocity": 0.5039370078740157
        },
        {
          "duration": 0.9230767999999898,
          "durationTicks": 192,
          "midi": 26,
          "name": "D1",
          "ticks": 102720,
          "time": 493.84608800000007,
          "velocity": 0.5039370078740157
        },
        {
          "duration": 0.9230767999999898,
          "durationTicks": 192,
          "midi": 38,
          "name": "D2",
          "ticks": 102720,
          "time": 493.84608800000007,
          "velocity": 0.5039370078740157
        }
      ],
      "endOfTrackTicks": 102912
    },
    {
      "channel": 6,
      "controlChanges": {
        "7": [
          {
            "number": 7,
            "ticks": 0,
            "time": 0,
            "value": 0.8661417322834646
          }
        ],
        "10": [
          {
            "number": 10,
            "ticks": 0,
            "time": 0,
            "value": 0.4330708661417323
          }
        ]
      },
      "pitchBends": [],
      "instrument": {
        "family": "strings",
        "number": 40,
        "name": "violin"
      },
      "name": "Violin",
      "notes": [
        {
          "duration": 0.5769229999999936,
          "durationTicks": 120,
          "midi": 67,
          "name": "G4",
          "ticks": 42120,
          "time": 202.49997300000004,
          "velocity": 0.6299212598425197
        },
        {
          "duration": 0.2884614999999826,
          "durationTicks": 60,
          "midi": 68,
          "name": "G#4",
          "ticks": 42240,
          "time": 203.07689600000003,
          "velocity": 0.6299212598425197
        },
        {
          "duration": 0.28846150000001103,
          "durationTicks": 60,
          "midi": 67,
          "name": "G4",
          "ticks": 42300,
          "time": 203.36535750000002,
          "velocity": 0.6299212598425197
        },
        {
          "duration": 0.28846150000001103,
          "durationTicks": 60,
          "midi": 66,
          "name": "F#4",
          "ticks": 42360,
          "time": 203.65381900000003,
          "velocity": 0.6299212598425197
        },
        {
          "duration": 0.2884614999999826,
          "durationTicks": 60,
          "midi": 67,
          "name": "G4",
          "ticks": 42420,
          "time": 203.94228050000004,
          "velocity": 0.6299212598425197
        },
        {
          "duration": 0.28846150000001103,
          "durationTicks": 60,
          "midi": 65,
          "name": "F4",
          "ticks": 42480,
          "time": 204.23074200000002,
          "velocity": 0.6299212598425197
        },
        {
          "duration": 0.2884614999999826,
          "durationTicks": 60,
          "midi": 63,
          "name": "D#4",
          "ticks": 42540,
          "time": 204.51920350000003,
          "velocity": 0.6299212598425197
        },
        {
          "duration": 0.28846150000001103,
          "durationTicks": 60,
          "midi": 62,
          "name": "D4",
          "ticks": 42600,
          "time": 204.80766500000001,
          "velocity": 0.6299212598425197
        },
        {
          "duration": 0.28846150000001103,
          "durationTicks": 60,
          "midi": 63,
          "name": "D#4",
          "ticks": 42660,
          "time": 205.09612650000003,
          "velocity": 0.6299212598425197
        },
        {
          "duration": 0.2884614999999826,
          "durationTicks": 60,
          "midi": 65,
          "name": "F4",
          "ticks": 42720,
          "time": 205.38458800000004,
          "velocity": 0.6299212598425197
        },
        {
          "duration": 0.28846150000001103,
          "durationTicks": 60,
          "midi": 63,
          "name": "D#4",
          "ticks": 42780,
          "time": 205.67304950000002,
          "velocity": 0.6299212598425197
        },
        {
          "duration": 0.2884614999999826,
          "durationTicks": 60,
          "midi": 62,
          "name": "D4",
          "ticks": 42840,
          "time": 205.96151100000003,
          "velocity": 0.6299212598425197
        },
        {
          "duration": 0.28846150000001103,
          "durationTicks": 60,
          "midi": 63,
          "name": "D#4",
          "ticks": 42900,
          "time": 206.2499725,
          "velocity": 0.6299212598425197
        },
        {
          "duration": 0.28846150000001103,
          "durationTicks": 60,
          "midi": 62,
          "name": "D4",
          "ticks": 42960,
          "time": 206.53843400000002,
          "velocity": 0.6299212598425197
        },
        {
          "duration": 0.2884614999999826,
          "durationTicks": 60,
          "midi": 60,
          "name": "C4",
          "ticks": 43020,
          "time": 206.82689550000003,
          "velocity": 0.6299212598425197
        },
        {
          "duration": 0.28846150000001103,
          "durationTicks": 60,
          "midi": 59,
          "name": "B3",
          "ticks": 43080,
          "time": 207.11535700000002,
          "velocity": 0.6299212598425197
        },
        {
          "duration": 0.28846150000001103,
          "durationTicks": 60,
          "midi": 60,
          "name": "C4",
          "ticks": 43140,
          "time": 207.40381850000003,
          "velocity": 0.6299212598425197
        },
        {
          "duration": 3.4615379999999902,
          "durationTicks": 720,
          "midi": 62,
          "name": "D4",
          "ticks": 43200,
          "time": 207.69228000000004,
          "velocity": 0.6299212598425197
        },
        {
          "duration": 0.5769229999999936,
          "durationTicks": 120,
          "midi": 67,
          "name": "G4",
          "ticks": 44280,
          "time": 212.88458700000004,
          "velocity": 0.6299212598425197
        },
        {
          "duration": 0.2884614999999826,
          "durationTicks": 60,
          "midi": 68,
          "name": "G#4",
          "ticks": 44400,
          "time": 213.46151000000003,
          "velocity": 0.6299212598425197
        },
        {
          "duration": 0.28846150000001103,
          "durationTicks": 60,
          "midi": 67,
          "name": "G4",
          "ticks": 44460,
          "time": 213.74997150000002,
          "velocity": 0.6299212598425197
        },
        {
          "duration": 0.28846150000001103,
          "durationTicks": 60,
          "midi": 66,
          "name": "F#4",
          "ticks": 44520,
          "time": 214.03843300000003,
          "velocity": 0.6299212598425197
        },
        {
          "duration": 0.2884614999999826,
          "durationTicks": 60,
          "midi": 67,
          "name": "G4",
          "ticks": 44580,
          "time": 214.32689450000004,
          "velocity": 0.6299212598425197
        },
        {
          "duration": 0.28846150000001103,
          "durationTicks": 60,
          "midi": 65,
          "name": "F4",
          "ticks": 44640,
          "time": 214.61535600000002,
          "velocity": 0.6299212598425197
        },
        {
          "duration": 0.28846150000001103,
          "durationTicks": 60,
          "midi": 63,
          "name": "D#4",
          "ticks": 44700,
          "time": 214.90381750000003,
          "velocity": 0.6299212598425197
        },
        {
          "duration": 0.2884614999999826,
          "durationTicks": 60,
          "midi": 62,
          "name": "D4",
          "ticks": 44760,
          "time": 215.19227900000004,
          "velocity": 0.6299212598425197
        },
        {
          "duration": 0.28846150000001103,
          "durationTicks": 60,
          "midi": 63,
          "name": "D#4",
          "ticks": 44820,
          "time": 215.48074050000002,
          "velocity": 0.6299212598425197
        },
        {
          "duration": 0.2884614999999826,
          "durationTicks": 60,
          "midi": 65,
          "name": "F4",
          "ticks": 44880,
          "time": 215.76920200000004,
          "velocity": 0.6299212598425197
        },
        {
          "duration": 0.28846150000001103,
          "durationTicks": 60,
          "midi": 63,
          "name": "D#4",
          "ticks": 44940,
          "time": 216.05766350000002,
          "velocity": 0.6299212598425197
        },
        {
          "duration": 0.28846150000001103,
          "durationTicks": 60,
          "midi": 62,
          "name": "D4",
          "ticks": 45000,
          "time": 216.34612500000003,
          "velocity": 0.6299212598425197
        },
        {
          "duration": 0.2884614999999826,
          "durationTicks": 60,
          "midi": 63,
          "name": "D#4",
          "ticks": 45060,
          "time": 216.63458650000004,
          "velocity": 0.6299212598425197
        },
        {
          "duration": 0.28846150000001103,
          "durationTicks": 60,
          "midi": 63,
          "name": "D#4",
          "ticks": 45120,
          "time": 216.92304800000002,
          "velocity": 0.6299212598425197
        },
        {
          "duration": 0.2884614999999826,
          "durationTicks": 60,
          "midi": 62,
          "name": "D4",
          "ticks": 45180,
          "time": 217.21150950000003,
          "velocity": 0.6299212598425197
        },
        {
          "duration": 0.28846150000001103,
          "durationTicks": 60,
          "midi": 60,
          "name": "C4",
          "ticks": 45240,
          "time": 217.49997100000002,
          "velocity": 0.6299212598425197
        },
        {
          "duration": 0.28846150000001103,
          "durationTicks": 60,
          "midi": 59,
          "name": "B3",
          "ticks": 45300,
          "time": 217.78843250000003,
          "velocity": 0.6299212598425197
        },
        {
          "duration": 1.730768999999981,
          "durationTicks": 360,
          "midi": 60,
          "name": "C4",
          "ticks": 45360,
          "time": 218.07689400000004,
          "velocity": 0.6299212598425197
        },
        {
          "duration": 0.5769230000000221,
          "durationTicks": 120,
          "midi": 55,
          "name": "G3",
          "ticks": 45720,
          "time": 219.80766300000002,
          "velocity": 0.6299212598425197
        },
        {
          "duration": 0.2884614999999826,
          "durationTicks": 60,
          "midi": 60,
          "name": "C4",
          "ticks": 45840,
          "time": 220.38458600000004,
          "velocity": 0.6299212598425197
        },
        {
          "duration": 0.28846150000001103,
          "durationTicks": 60,
          "midi": 63,
          "name": "D#4",
          "ticks": 45900,
          "time": 220.67304750000002,
          "velocity": 0.6299212598425197
        },
        {
          "duration": 0.2884614999999826,
          "durationTicks": 60,
          "midi": 67,
          "name": "G4",
          "ticks": 45960,
          "time": 220.96150900000004,
          "velocity": 0.6299212598425197
        },
        {
          "duration": 0.28846150000001103,
          "durationTicks": 60,
          "midi": 72,
          "name": "C5",
          "ticks": 46020,
          "time": 221.24997050000002,
          "velocity": 0.6299212598425197
        },
        {
          "duration": 0.28846150000001103,
          "durationTicks": 60,
          "midi": 75,
          "name": "D#5",
          "ticks": 46080,
          "time": 221.53843200000003,
          "velocity": 0.6299212598425197
        },
        {
          "duration": 0.2884614999999826,
          "durationTicks": 60,
          "midi": 72,
          "name": "C5",
          "ticks": 46140,
          "time": 221.82689350000004,
          "velocity": 0.6299212598425197
        },
        {
          "duration": 0.28846150000001103,
          "durationTicks": 60,
          "midi": 67,
          "name": "G4",
          "ticks": 46200,
          "time": 222.11535500000002,
          "velocity": 0.6299212598425197
        },
        {
          "duration": 0.2884614999999826,
          "durationTicks": 60,
          "midi": 63,
          "name": "D#4",
          "ticks": 46260,
          "time": 222.40381650000003,
          "velocity": 0.6299212598425197
        },
        {
          "duration": 0.28846150000001103,
          "durationTicks": 60,
          "midi": 67,
          "name": "G4",
          "ticks": 46320,
          "time": 222.69227800000002,
          "velocity": 0.6299212598425197
        },
        {
          "duration": 0.28846150000001103,
          "durationTicks": 60,
          "midi": 72,
          "name": "C5",
          "ticks": 46380,
          "time": 222.98073950000003,
          "velocity": 0.6299212598425197
        },
        {
          "duration": 0.2884614999999826,
          "durationTicks": 60,
          "midi": 75,
          "name": "D#5",
          "ticks": 46440,
          "time": 223.26920100000004,
          "velocity": 0.6299212598425197
        },
        {
          "duration": 0.28846150000001103,
          "durationTicks": 60,
          "midi": 79,
          "name": "G5",
          "ticks": 46500,
          "time": 223.55766250000002,
          "velocity": 0.6299212598425197
        },
        {
          "duration": 0.28846150000001103,
          "durationTicks": 60,
          "midi": 75,
          "name": "D#5",
          "ticks": 46560,
          "time": 223.84612400000003,
          "velocity": 0.6299212598425197
        },
        {
          "duration": 0.2884614999999826,
          "durationTicks": 60,
          "midi": 72,
          "name": "C5",
          "ticks": 46620,
          "time": 224.13458550000004,
          "velocity": 0.6299212598425197
        },
        {
          "duration": 0.28846150000001103,
          "durationTicks": 60,
          "midi": 67,
          "name": "G4",
          "ticks": 46680,
          "time": 224.42304700000003,
          "velocity": 0.6299212598425197
        },
        {
          "duration": 0.2884614999999826,
          "durationTicks": 60,
          "midi": 72,
          "name": "C5",
          "ticks": 46740,
          "time": 224.71150850000004,
          "velocity": 0.6299212598425197
        },
        {
          "duration": 0.28846150000001103,
          "durationTicks": 60,
          "midi": 75,
          "name": "D#5",
          "ticks": 46800,
          "time": 224.99997000000002,
          "velocity": 0.6299212598425197
        },
        {
          "duration": 0.28846150000001103,
          "durationTicks": 60,
          "midi": 79,
          "name": "G5",
          "ticks": 46860,
          "time": 225.28843150000003,
          "velocity": 0.6299212598425197
        },
        {
          "duration": 0.2884614999999826,
          "durationTicks": 60,
          "midi": 84,
          "name": "C6",
          "ticks": 46920,
          "time": 225.57689300000004,
          "velocity": 0.6299212598425197
        },
        {
          "duration": 0.28846150000001103,
          "durationTicks": 60,
          "midi": 87,
          "name": "D#6",
          "ticks": 46980,
          "time": 225.86535450000002,
          "velocity": 0.6299212598425197
        },
        {
          "duration": 0.2884614999999826,
          "durationTicks": 60,
          "midi": 84,
          "name": "C6",
          "ticks": 47040,
          "time": 226.15381600000003,
          "velocity": 0.6299212598425197
        },
        {
          "duration": 0.28846150000001103,
          "durationTicks": 60,
          "midi": 79,
          "name": "G5",
          "ticks": 47100,
          "time": 226.44227750000002,
          "velocity": 0.6299212598425197
        },
        {
          "duration": 0.28846150000001103,
          "durationTicks": 60,
          "midi": 75,
          "name": "D#5",
          "ticks": 47160,
          "time": 226.73073900000003,
          "velocity": 0.6299212598425197
        },
        {
          "duration": 0.2884614999999826,
          "durationTicks": 60,
          "midi": 72,
          "name": "C5",
          "ticks": 47220,
          "time": 227.01920050000004,
          "velocity": 0.6299212598425197
        },
        {
          "duration": 0.28846150000001103,
          "durationTicks": 60,
          "midi": 75,
          "name": "D#5",
          "ticks": 47280,
          "time": 227.30766200000002,
          "velocity": 0.6299212598425197
        },
        {
          "duration": 0.2884614999999826,
          "durationTicks": 60,
          "midi": 79,
          "name": "G5",
          "ticks": 47340,
          "time": 227.59612350000003,
          "velocity": 0.6299212598425197
        },
        {
          "duration": 0.28846150000001103,
          "durationTicks": 60,
          "midi": 84,
          "name": "C6",
          "ticks": 47400,
          "time": 227.88458500000002,
          "velocity": 0.6299212598425197
        },
        {
          "duration": 0.28846150000001103,
          "durationTicks": 60,
          "midi": 87,
          "name": "D#6",
          "ticks": 47460,
          "time": 228.17304650000003,
          "velocity": 0.6299212598425197
        },
        {
          "duration": 1.730768999999981,
          "durationTicks": 360,
          "midi": 91,
          "name": "G6",
          "ticks": 47520,
          "time": 228.46150800000004,
          "velocity": 0.6299212598425197
        },
        {
          "duration": 0.5769229999999936,
          "durationTicks": 120,
          "midi": 72,
          "name": "C5",
          "ticks": 48600,
          "time": 233.65381500000004,
          "velocity": 0.6299212598425197
        },
        {
          "duration": 0.28846150000001103,
          "durationTicks": 60,
          "midi": 73,
          "name": "C#5",
          "ticks": 48720,
          "time": 234.23073800000003,
          "velocity": 0.6299212598425197
        },
        {
          "duration": 0.2884614999999826,
          "durationTicks": 60,
          "midi": 72,
          "name": "C5",
          "ticks": 48780,
          "time": 234.51919950000004,
          "velocity": 0.6299212598425197
        },
        {
          "duration": 0.28846150000001103,
          "durationTicks": 60,
          "midi": 71,
          "name": "B4",
          "ticks": 48840,
          "time": 234.80766100000002,
          "velocity": 0.6299212598425197
        },
        {
          "duration": 0.2884614999999826,
          "durationTicks": 60,
          "midi": 72,
          "name": "C5",
          "ticks": 48900,
          "time": 235.09612250000004,
          "velocity": 0.6299212598425197
        },
        {
          "duration": 0.28846150000001103,
          "durationTicks": 60,
          "midi": 70,
          "name": "A#4",
          "ticks": 48960,
          "time": 235.38458400000002,
          "velocity": 0.6299212598425197
        },
        {
          "duration": 0.28846150000001103,
          "durationTicks": 60,
          "midi": 68,
          "name": "G#4",
          "ticks": 49020,
          "time": 235.67304550000003,
          "velocity": 0.6299212598425197
        },
        {
          "duration": 0.2884614999999826,
          "durationTicks": 60,
          "midi": 67,
          "name": "G4",
          "ticks": 49080,
          "time": 235.96150700000004,
          "velocity": 0.6299212598425197
        },
        {
          "duration": 0.28846150000001103,
          "durationTicks": 60,
          "midi": 68,
          "name": "G#4",
          "ticks": 49140,
          "time": 236.24996850000002,
          "velocity": 0.6299212598425197
        },
        {
          "duration": 0.28846150000001103,
          "durationTicks": 60,
          "midi": 70,
          "name": "A#4",
          "ticks": 49200,
          "time": 236.53843000000003,
          "velocity": 0.6299212598425197
        },
        {
          "duration": 0.2884614999999826,
          "durationTicks": 60,
          "midi": 68,
          "name": "G#4",
          "ticks": 49260,
          "time": 236.82689150000004,
          "velocity": 0.6299212598425197
        },
        {
          "duration": 0.28846150000001103,
          "durationTicks": 60,
          "midi": 67,
          "name": "G4",
          "ticks": 49320,
          "time": 237.11535300000003,
          "velocity": 0.6299212598425197
        },
        {
          "duration": 0.2884614999999826,
          "durationTicks": 60,
          "midi": 68,
          "name": "G#4",
          "ticks": 49380,
          "time": 237.40381450000004,
          "velocity": 0.6299212598425197
        },
        {
          "duration": 0.28846150000001103,
          "durationTicks": 60,
          "midi": 67,
          "name": "G4",
          "ticks": 49440,
          "time": 237.69227600000002,
          "velocity": 0.6299212598425197
        },
        {
          "duration": 0.28846150000001103,
          "durationTicks": 60,
          "midi": 65,
          "name": "F4",
          "ticks": 49500,
          "time": 237.98073750000003,
          "velocity": 0.6299212598425197
        },
        {
          "duration": 0.2884614999999826,
          "durationTicks": 60,
          "midi": 64,
          "name": "E4",
          "ticks": 49560,
          "time": 238.26919900000004,
          "velocity": 0.6299212598425197
        },
        {
          "duration": 0.28846150000001103,
          "durationTicks": 60,
          "midi": 65,
          "name": "F4",
          "ticks": 49620,
          "time": 238.55766050000003,
          "velocity": 0.6299212598425197
        },
        {
          "duration": 3.4615379999999902,
          "durationTicks": 720,
          "midi": 67,
          "name": "G4",
          "ticks": 49680,
          "time": 238.84612200000004,
          "velocity": 0.6299212598425197
        },
        {
          "duration": 0.5769229999999936,
          "durationTicks": 120,
          "midi": 72,
          "name": "C5",
          "ticks": 50760,
          "time": 244.03842900000004,
          "velocity": 0.6299212598425197
        },
        {
          "duration": 0.28846150000001103,
          "durationTicks": 60,
          "midi": 73,
          "name": "C#5",
          "ticks": 50880,
          "time": 244.61535200000003,
          "velocity": 0.6299212598425197
        },
        {
          "duration": 0.2884614999999826,
          "durationTicks": 60,
          "midi": 72,
          "name": "C5",
          "ticks": 50940,
          "time": 244.90381350000004,
          "velocity": 0.6299212598425197
        },
        {
          "duration": 0.28846150000001103,
          "durationTicks": 60,
          "midi": 71,
          "name": "B4",
          "ticks": 51000,
          "time": 245.19227500000002,
          "velocity": 0.6299212598425197
        },
        {
          "duration": 0.28846150000001103,
          "durationTicks": 60,
          "midi": 72,
          "name": "C5",
          "ticks": 51060,
          "time": 245.48073650000003,
          "velocity": 0.6299212598425197
        },
        {
          "duration": 0.2884614999999826,
          "durationTicks": 60,
          "midi": 70,
          "name": "A#4",
          "ticks": 51120,
          "time": 245.76919800000005,
          "velocity": 0.6299212598425197
        },
        {
          "duration": 0.28846150000001103,
          "durationTicks": 60,
          "midi": 68,
          "name": "G#4",
          "ticks": 51180,
          "time": 246.05765950000003,
          "velocity": 0.6299212598425197
        },
        {
          "duration": 0.2884614999999826,
          "durationTicks": 60,
          "midi": 67,
          "name": "G4",
          "ticks": 51240,
          "time": 246.34612100000004,
          "velocity": 0.6299212598425197
        },
        {
          "duration": 0.28846150000001103,
          "durationTicks": 60,
          "midi": 68,
          "name": "G#4",
          "ticks": 51300,
          "time": 246.63458250000002,
          "velocity": 0.6299212598425197
        },
        {
          "duration": 0.28846150000001103,
          "durationTicks": 60,
          "midi": 70,
          "name": "A#4",
          "ticks": 51360,
          "time": 246.92304400000003,
          "velocity": 0.6299212598425197
        },
        {
          "duration": 0.2884614999999826,
          "durationTicks": 60,
          "midi": 68,
          "name": "G#4",
          "ticks": 51420,
          "time": 247.21150550000004,
          "velocity": 0.6299212598425197
        },
        {
          "duration": 0.28846150000001103,
          "durationTicks": 60,
          "midi": 67,
          "name": "G4",
          "ticks": 51480,
          "time": 247.49996700000003,
          "velocity": 0.6299212598425197
        },
        {
          "duration": 0.2884614999999826,
          "durationTicks": 60,
          "midi": 68,
          "name": "G#4",
          "ticks": 51540,
          "time": 247.78842850000004,
          "velocity": 0.6299212598425197
        },
        {
          "duration": 0.28846150000001103,
          "durationTicks": 60,
          "midi": 68,
          "name": "G#4",
          "ticks": 51600,
          "time": 248.07689000000002,
          "velocity": 0.6299212598425197
        },
        {
          "duration": 0.28846150000001103,
          "durationTicks": 60,
          "midi": 67,
          "name": "G4",
          "ticks": 51660,
          "time": 248.36535150000003,
          "velocity": 0.6299212598425197
        },
        {
          "duration": 0.2884614999999826,
          "durationTicks": 60,
          "midi": 65,
          "name": "F4",
          "ticks": 51720,
          "time": 248.65381300000004,
          "velocity": 0.6299212598425197
        },
        {
          "duration": 0.28846150000001103,
          "durationTicks": 60,
          "midi": 64,
          "name": "E4",
          "ticks": 51780,
          "time": 248.94227450000002,
          "velocity": 0.6299212598425197
        },
        {
          "duration": 1.7307690000000093,
          "durationTicks": 360,
          "midi": 65,
          "name": "F4",
          "ticks": 51840,
          "time": 249.23073600000004,
          "velocity": 0.6299212598425197
        },
        {
          "duration": 0.5769229999999936,
          "durationTicks": 120,
          "midi": 56,
          "name": "G#3",
          "ticks": 52200,
          "time": 250.96150500000005,
          "velocity": 0.6299212598425197
        },
        {
          "duration": 0.2884614999999826,
          "durationTicks": 60,
          "midi": 60,
          "name": "C4",
          "ticks": 52320,
          "time": 251.53842800000004,
          "velocity": 0.6299212598425197
        },
        {
          "duration": 0.28846150000001103,
          "durationTicks": 60,
          "midi": 65,
          "name": "F4",
          "ticks": 52380,
          "time": 251.82688950000002,
          "velocity": 0.6299212598425197
        },
        {
          "duration": 0.28846150000001103,
          "durationTicks": 60,
          "midi": 68,
          "name": "G#4",
          "ticks": 52440,
          "time": 252.11535100000003,
          "velocity": 0.6299212598425197
        },
        {
          "duration": 0.2884614999999826,
          "durationTicks": 60,
          "midi": 72,
          "name": "C5",
          "ticks": 52500,
          "time": 252.40381250000004,
          "velocity": 0.6299212598425197
        },
        {
          "duration": 0.28846150000001103,
          "durationTicks": 60,
          "midi": 68,
          "name": "G#4",
          "ticks": 52560,
          "time": 252.69227400000003,
          "velocity": 0.6299212598425197
        },
        {
          "duration": 0.2884614999999826,
          "durationTicks": 60,
          "midi": 65,
          "name": "F4",
          "ticks": 52620,
          "time": 252.98073550000004,
          "velocity": 0.6299212598425197
        },
        {
          "duration": 0.28846150000001103,
          "durationTicks": 60,
          "midi": 60,
          "name": "C4",
          "ticks": 52680,
          "time": 253.26919700000002,
          "velocity": 0.6299212598425197
        },
        {
          "duration": 0.28846150000001103,
          "durationTicks": 60,
          "midi": 65,
          "name": "F4",
          "ticks": 52740,
          "time": 253.55765850000003,
          "velocity": 0.6299212598425197
        },
        {
          "duration": 0.2884614999999826,
          "durationTicks": 60,
          "midi": 68,
          "name": "G#4",
          "ticks": 52800,
          "time": 253.84612000000004,
          "velocity": 0.6299212598425197
        },
        {
          "duration": 0.28846150000001103,
          "durationTicks": 60,
          "midi": 72,
          "name": "C5",
          "ticks": 52860,
          "time": 254.13458150000002,
          "velocity": 0.6299212598425197
        },
        {
          "duration": 0.28846150000001103,
          "durationTicks": 60,
          "midi": 77,
          "name": "F5",
          "ticks": 52920,
          "time": 254.42304300000004,
          "velocity": 0.6299212598425197
        },
        {
          "duration": 0.2884614999999826,
          "durationTicks": 60,
          "midi": 80,
          "name": "G#5",
          "ticks": 52980,
          "time": 254.71150450000005,
          "velocity": 0.6299212598425197
        },
        {
          "duration": 0.28846150000001103,
          "durationTicks": 60,
          "midi": 77,
          "name": "F5",
          "ticks": 53040,
          "time": 254.99996600000003,
          "velocity": 0.6299212598425197
        },
        {
          "duration": 0.2884614999999826,
          "durationTicks": 60,
          "midi": 72,
          "name": "C5",
          "ticks": 53100,
          "time": 255.28842750000004,
          "velocity": 0.6299212598425197
        },
        {
          "duration": 0.28846150000001103,
          "durationTicks": 60,
          "midi": 68,
          "name": "G#4",
          "ticks": 53160,
          "time": 255.57688900000002,
          "velocity": 0.6299212598425197
        },
        {
          "duration": 0.2884614999999826,
          "durationTicks": 60,
          "midi": 65,
          "name": "F4",
          "ticks": 53220,
          "time": 255.86535050000003,
          "velocity": 0.6299212598425197
        },
        {
          "duration": 0.28846150000003945,
          "durationTicks": 60,
          "midi": 68,
          "name": "G#4",
          "ticks": 53280,
          "time": 256.153812,
          "velocity": 0.6299212598425197
        },
        {
          "duration": 0.2884614999999826,
          "durationTicks": 60,
          "midi": 72,
          "name": "C5",
          "ticks": 53340,
          "time": 256.44227350000006,
          "velocity": 0.6299212598425197
        },
        {
          "duration": 0.2884614999999826,
          "durationTicks": 60,
          "midi": 77,
          "name": "F5",
          "ticks": 53400,
          "time": 256.73073500000004,
          "velocity": 0.6299212598425197
        },
        {
          "duration": 0.28846150000003945,
          "durationTicks": 60,
          "midi": 80,
          "name": "G#5",
          "ticks": 53460,
          "time": 257.0191965,
          "velocity": 0.6299212598425197
        },
        {
          "duration": 0.2884614999999826,
          "durationTicks": 60,
          "midi": 84,
          "name": "C6",
          "ticks": 53520,
          "time": 257.30765800000006,
          "velocity": 0.6299212598425197
        },
        {
          "duration": 0.2884614999999826,
          "durationTicks": 60,
          "midi": 80,
          "name": "G#5",
          "ticks": 53580,
          "time": 257.59611950000004,
          "velocity": 0.6299212598425197
        },
        {
          "duration": 0.2884614999999826,
          "durationTicks": 60,
          "midi": 77,
          "name": "F5",
          "ticks": 53640,
          "time": 257.884581,
          "velocity": 0.6299212598425197
        },
        {
          "duration": 0.28846150000003945,
          "durationTicks": 60,
          "midi": 72,
          "name": "C5",
          "ticks": 53700,
          "time": 258.1730425,
          "velocity": 0.6299212598425197
        },
        {
          "duration": 0.2884614999999826,
          "durationTicks": 60,
          "midi": 77,
          "name": "F5",
          "ticks": 53760,
          "time": 258.46150400000005,
          "velocity": 0.6299212598425197
        },
        {
          "duration": 0.2884614999999826,
          "durationTicks": 60,
          "midi": 80,
          "name": "G#5",
          "ticks": 53820,
          "time": 258.74996550000003,
          "velocity": 0.6299212598425197
        },
        {
          "duration": 0.28846150000003945,
          "durationTicks": 60,
          "midi": 84,
          "name": "C6",
          "ticks": 53880,
          "time": 259.038427,
          "velocity": 0.6299212598425197
        },
        {
          "duration": 0.2884614999999826,
          "durationTicks": 60,
          "midi": 89,
          "name": "F6",
          "ticks": 53940,
          "time": 259.32688850000005,
          "velocity": 0.6299212598425197
        },
        {
          "duration": 1.7307690000000093,
          "durationTicks": 360,
          "midi": 92,
          "name": "G#6",
          "ticks": 54000,
          "time": 259.61535000000003,
          "velocity": 0.6299212598425197
        },
        {
          "duration": 1.4423075000000267,
          "durationTicks": 300,
          "midi": 82,
          "name": "A#5",
          "ticks": 74160,
          "time": 356.53841400000005,
          "velocity": 0.6299212598425197
        },
        {
          "duration": 0.2884614999999826,
          "durationTicks": 60,
          "midi": 81,
          "name": "A5",
          "ticks": 74460,
          "time": 357.9807215000001,
          "velocity": 0.6299212598425197
        },
        {
          "duration": 0.2884614999999826,
          "durationTicks": 60,
          "midi": 79,
          "name": "G5",
          "ticks": 74520,
          "time": 358.26918300000006,
          "velocity": 0.6299212598425197
        },
        {
          "duration": 0.2884614999999826,
          "durationTicks": 60,
          "midi": 77,
          "name": "F5",
          "ticks": 74580,
          "time": 358.55764450000004,
          "velocity": 0.6299212598425197
        },
        {
          "duration": 0.28846150000003945,
          "durationTicks": 60,
          "midi": 75,
          "name": "D#5",
          "ticks": 74640,
          "time": 358.846106,
          "velocity": 0.6299212598425197
        },
        {
          "duration": 0.2884614999999826,
          "durationTicks": 60,
          "midi": 74,
          "name": "D5",
          "ticks": 74700,
          "time": 359.13456750000006,
          "velocity": 0.6299212598425197
        },
        {
          "duration": 0.2884614999999826,
          "durationTicks": 60,
          "midi": 72,
          "name": "C5",
          "ticks": 74760,
          "time": 359.42302900000004,
          "velocity": 0.6299212598425197
        },
        {
          "duration": 0.28846150000003945,
          "durationTicks": 60,
          "midi": 70,
          "name": "A#4",
          "ticks": 74820,
          "time": 359.7114905,
          "velocity": 0.6299212598425197
        },
        {
          "duration": 2.3076919999999745,
          "durationTicks": 480,
          "midi": 67,
          "name": "G4",
          "ticks": 74880,
          "time": 359.99995200000006,
          "velocity": 0.6299212598425197
        },
        {
          "duration": 0.5769230000000221,
          "durationTicks": 120,
          "midi": 55,
          "name": "G3",
          "ticks": 103320,
          "time": 496.73070300000006,
          "velocity": 0.7874015748031497
        },
        {
          "duration": 0.2884614999999826,
          "durationTicks": 60,
          "midi": 58,
          "name": "A#3",
          "ticks": 103440,
          "time": 497.3076260000001,
          "velocity": 0.7874015748031497
        },
        {
          "duration": 0.2884614999999826,
          "durationTicks": 60,
          "midi": 62,
          "name": "D4",
          "ticks": 103500,
          "time": 497.59608750000007,
          "velocity": 0.7874015748031497
        },
        {
          "duration": 0.28846150000003945,
          "durationTicks": 60,
          "midi": 67,
          "name": "G4",
          "ticks": 103560,
          "time": 497.88454900000005,
          "velocity": 0.7874015748031497
        },
        {
          "duration": 0.2884614999999826,
          "durationTicks": 60,
          "midi": 70,
          "name": "A#4",
          "ticks": 103620,
          "time": 498.1730105000001,
          "velocity": 0.7874015748031497
        },
        {
          "duration": 0.2884614999999826,
          "durationTicks": 60,
          "midi": 67,
          "name": "G4",
          "ticks": 103680,
          "time": 498.4614720000001,
          "velocity": 0.7874015748031497
        },
        {
          "duration": 0.2884614999999826,
          "durationTicks": 60,
          "midi": 62,
          "name": "D4",
          "ticks": 103740,
          "time": 498.74993350000005,
          "velocity": 0.7716535433070866
        },
        {
          "duration": 0.28846150000003945,
          "durationTicks": 60,
          "midi": 58,
          "name": "A#3",
          "ticks": 103800,
          "time": 499.03839500000004,
          "velocity": 0.7637795275590551
        },
        {
          "duration": 0.2884614999999826,
          "durationTicks": 60,
          "midi": 62,
          "name": "D4",
          "ticks": 103860,
          "time": 499.3268565000001,
          "velocity": 0.7480314960629921
        },
        {
          "duration": 0.2884614999999826,
          "durationTicks": 60,
          "midi": 67,
          "name": "G4",
          "ticks": 103920,
          "time": 499.61531800000006,
          "velocity": 0.7322834645669292
        },
        {
          "duration": 0.28846150000003945,
          "durationTicks": 60,
          "midi": 70,
          "name": "A#4",
          "ticks": 103980,
          "time": 499.90377950000004,
          "velocity": 0.7244094488188977
        },
        {
          "duration": 0.2884614999999826,
          "durationTicks": 60,
          "midi": 74,
          "name": "D5",
          "ticks": 104040,
          "time": 500.1922410000001,
          "velocity": 0.7086614173228346
        },
        {
          "duration": 0.2884614999999826,
          "durationTicks": 60,
          "midi": 79,
          "name": "G5",
          "ticks": 104100,
          "time": 500.48070250000006,
          "velocity": 0.6929133858267716
        },
        {
          "duration": 0.28846150000003945,
          "durationTicks": 60,
          "midi": 82,
          "name": "A#5",
          "ticks": 104160,
          "time": 500.76916400000005,
          "velocity": 0.6850393700787402
        },
        {
          "duration": 0.2884614999999826,
          "durationTicks": 60,
          "midi": 79,
          "name": "G5",
          "ticks": 104220,
          "time": 501.0576255000001,
          "velocity": 0.6692913385826772
        },
        {
          "duration": 0.2884614999999826,
          "durationTicks": 60,
          "midi": 82,
          "name": "A#5",
          "ticks": 104280,
          "time": 501.34608700000007,
          "velocity": 0.6535433070866141
        },
        {
          "duration": 0.28846150000003945,
          "durationTicks": 60,
          "midi": 86,
          "name": "D6",
          "ticks": 104340,
          "time": 501.63454850000005,
          "velocity": 0.6456692913385826
        },
        {
          "duration": 3.461537999999962,
          "durationTicks": 720,
          "midi": 91,
          "name": "G6",
          "ticks": 104400,
          "time": 501.9230100000001,
          "velocity": 0.6299212598425197
        }
      ],
      "endOfTrackTicks": 105120
    },
    {
      "channel": 7,
      "controlChanges": {
        "7": [
          {
            "number": 7,
            "ticks": 0,
            "time": 0,
            "value": 0.7086614173228346
          }
        ],
        "10": [
          {
            "number": 10,
            "ticks": 0,
            "time": 0,
            "value": 0.5748031496062992
          }
        ]
      },
      "pitchBends": [],
      "instrument": {
        "family": "organ",
        "number": 19,
        "name": "church organ"
      },
      "name": "Organ",
      "notes": [
        {
          "duration": 0.14423075000000019,
          "durationTicks": 30,
          "midi": 67,
          "name": "G4",
          "ticks": 2160,
          "time": 10.384614000000001,
          "velocity": 0.48031496062992124
        },
        {
          "duration": 6.923076,
          "durationTicks": 1440,
          "midi": 58,
          "name": "A#3",
          "ticks": 2160,
          "time": 10.384614000000001,
          "velocity": 0.48031496062992124
        },
        {
          "duration": 6.923076,
          "durationTicks": 1440,
          "midi": 63,
          "name": "D#4",
          "ticks": 2160,
          "time": 10.384614000000001,
          "velocity": 0.48031496062992124
        },
        {
          "duration": 3.461538000000001,
          "durationTicks": 720,
          "midi": 67,
          "name": "G4",
          "ticks": 2160,
          "time": 10.384614000000001,
          "velocity": 0.48031496062992124
        },
        {
          "duration": 0.14423075000000019,
          "durationTicks": 30,
          "midi": 69,
          "name": "A4",
          "ticks": 2190,
          "time": 10.528844750000001,
          "velocity": 0.48031496062992124
        },
        {
          "duration": 2.5961535,
          "durationTicks": 540,
          "midi": 70,
          "name": "A#4",
          "ticks": 2220,
          "time": 10.673075500000001,
          "velocity": 0.48031496062992124
        },
        {
          "duration": 2.884615000000002,
          "durationTicks": 600,
          "midi": 67,
          "name": "G4",
          "ticks": 2760,
          "time": 13.269229000000001,
          "velocity": 0.47244094488188976
        },
        {
          "duration": 3.461537999999999,
          "durationTicks": 720,
          "midi": 67,
          "name": "G4",
          "ticks": 2880,
          "time": 13.846152000000002,
          "velocity": 0.47244094488188976
        },
        {
          "duration": 0.14423075000000196,
          "durationTicks": 30,
          "midi": 69,
          "name": "A4",
          "ticks": 3600,
          "time": 17.30769,
          "velocity": 0.4645669291338583
        },
        {
          "duration": 3.461538000000001,
          "durationTicks": 720,
          "midi": 60,
          "name": "C4",
          "ticks": 3600,
          "time": 17.30769,
          "velocity": 0.4645669291338583
        },
        {
          "duration": 3.461538000000001,
          "durationTicks": 720,
          "midi": 63,
          "name": "D#4",
          "ticks": 3600,
          "time": 17.30769,
          "velocity": 0.4645669291338583
        },
        {
          "duration": 0.1442307499999984,
          "durationTicks": 30,
          "midi": 70,
          "name": "A#4",
          "ticks": 3630,
          "time": 17.451920750000003,
          "velocity": 0.4645669291338583
        },
        {
          "duration": 3.1730765000000005,
          "durationTicks": 660,
          "midi": 72,
          "name": "C5",
          "ticks": 3660,
          "time": 17.5961515,
          "velocity": 0.4645669291338583
        },
        {
          "duration": 0.14423075000000196,
          "durationTicks": 30,
          "midi": 70,
          "name": "A#4",
          "ticks": 4320,
          "time": 20.769228000000002,
          "velocity": 0.4566929133858268
        },
        {
          "duration": 3.461538000000001,
          "durationTicks": 720,
          "midi": 64,
          "name": "E4",
          "ticks": 4320,
          "time": 20.769228000000002,
          "velocity": 0.4566929133858268
        },
        {
          "duration": 3.461538000000001,
          "durationTicks": 720,
          "midi": 67,
          "name": "G4",
          "ticks": 4320,
          "time": 20.769228000000002,
          "velocity": 0.4566929133858268
        },
        {
          "duration": 0.1442307499999984,
          "durationTicks": 30,
          "midi": 69,
          "name": "A4",
          "ticks": 4350,
          "time": 20.913458750000004,
          "velocity": 0.4566929133858268
        },
        {
          "duration": 3.1730765000000005,
          "durationTicks": 660,
          "midi": 70,
          "name": "A#4",
          "ticks": 4380,
          "time": 21.057689500000002,
          "velocity": 0.4566929133858268
        },
        {
          "duration": 0.14423075000000196,
          "durationTicks": 30,
          "midi": 69,
          "name": "A4",
          "ticks": 5040,
          "time": 24.230766000000003,
          "velocity": 0.44881889763779526
        },
        {
          "duration": 2.3076919999999994,
          "durationTicks": 480,
          "midi": 62,
          "name": "D4",
          "ticks": 5040,
          "time": 24.230766000000003,
          "velocity": 0.44881889763779526
        },
        {
          "duration": 0.28846150000000037,
          "durationTicks": 60,
          "midi": 67,
          "name": "G4",
          "ticks": 5040,
          "time": 24.230766000000003,
          "velocity": 0.44881889763779526
        },
        {
          "duration": 2.1634612499999974,
          "durationTicks": 450,
          "midi": 67,
          "name": "G4",
          "ticks": 5070,
          "time": 24.374996750000005,
          "velocity": 0.44881889763779526
        },
        {
          "duration": 2.4038458333333317,
          "durationTicks": 500,
          "midi": 69,
          "name": "A4",
          "ticks": 5100,
          "time": 24.519227500000003,
          "velocity": 0.44881889763779526
        },
        {
          "duration": 1.1538460000000015,
          "durationTicks": 240,
          "midi": 60,
          "name": "C4",
          "ticks": 5520,
          "time": 26.538458000000002,
          "velocity": 0.4409448818897638
        },
        {
          "duration": 1.1538460000000015,
          "durationTicks": 240,
          "midi": 66,
          "name": "F#4",
          "ticks": 5520,
          "time": 26.538458000000002,
          "velocity": 0.4409448818897638
        },
        {
          "duration": 0.3846153333333362,
          "durationTicks": 80,
          "midi": 67,
          "name": "G4",
          "ticks": 5600,
          "time": 26.923073333333335,
          "velocity": 0.4409448818897638
        },
        {
          "duration": 0.38461533333333264,
          "durationTicks": 80,
          "midi": 66,
          "name": "F#4",
          "ticks": 5680,
          "time": 27.30768866666667,
          "velocity": 0.4409448818897638
        },
        {
          "duration": 6.923075999999998,
          "durationTicks": 1440,
          "midi": 58,
          "name": "A#3",
          "ticks": 5760,
          "time": 27.692304000000004,
          "velocity": 0.5039370078740157
        },
        {
          "duration": 6.923075999999998,
          "durationTicks": 1440,
          "midi": 62,
          "name": "D4",
          "ticks": 5760,
          "time": 27.692304000000004,
          "velocity": 0.5039370078740157
        },
        {
          "duration": 6.923075999999998,
          "durationTicks": 1440,
          "midi": 67,
          "name": "G4",
          "ticks": 5760,
          "time": 27.692304000000004,
          "velocity": 0.5039370078740157
        },
        {
          "duration": 0.8653845000000047,
          "durationTicks": 180,
          "midi": 60,
          "name": "C4",
          "ticks": 7200,
          "time": 34.61538,
          "velocity": 0.5039370078740157
        },
        {
          "duration": 3.4615380000000044,
          "durationTicks": 720,
          "midi": 60,
          "name": "C4",
          "ticks": 7200,
          "time": 34.61538,
          "velocity": 0.5039370078740157
        },
        {
          "duration": 0.2884614999999968,
          "durationTicks": 60,
          "midi": 62,
          "name": "D4",
          "ticks": 7380,
          "time": 35.48076450000001,
          "velocity": 0.5039370078740157
        },
        {
          "duration": 0.8653845000000047,
          "durationTicks": 180,
          "midi": 63,
          "name": "D#4",
          "ticks": 7440,
          "time": 35.769226,
          "velocity": 0.5039370078740157
        },
        {
          "duration": 0.2884614999999968,
          "durationTicks": 60,
          "midi": 62,
          "name": "D4",
          "ticks": 7620,
          "time": 36.63461050000001,
          "velocity": 0.5039370078740157
        },
        {
          "duration": 0.8653844999999976,
          "durationTicks": 180,
          "midi": 63,
          "name": "D#4",
          "ticks": 7680,
          "time": 36.923072000000005,
          "velocity": 0.5039370078740157
        },
        {
          "duration": 3.7499995000000013,
          "durationTicks": 780,
          "midi": 60,
          "name": "C4",
          "ticks": 7860,
          "time": 37.7884565,
          "velocity": 0.5039370078740157
        },
        {
          "duration": 3.4615379999999973,
          "durationTicks": 720,
          "midi": 66,
          "name": "F#4",
          "ticks": 7920,
          "time": 38.076918000000006,
          "velocity": 0.5039370078740157
        },
        {
          "duration": 0.8653845000000047,
          "durationTicks": 180,
          "midi": 62,
          "name": "D4",
          "ticks": 8640,
          "time": 41.538456000000004,
          "velocity": 0.5039370078740157
        },
        {
          "duration": 2.307692000000003,
          "durationTicks": 480,
          "midi": 62,
          "name": "D4",
          "ticks": 8640,
          "time": 41.538456000000004,
          "velocity": 0.5039370078740157
        },
        {
          "duration": 0.2884614999999968,
          "durationTicks": 60,
          "midi": 64,
          "name": "E4",
          "ticks": 8820,
          "time": 42.40384050000001,
          "velocity": 0.5039370078740157
        },
        {
          "duration": 0.8653844999999976,
          "durationTicks": 180,
          "midi": 66,
          "name": "F#4",
          "ticks": 8880,
          "time": 42.692302000000005,
          "velocity": 0.5039370078740157
        },
        {
          "duration": 4.903845500000003,
          "durationTicks": 1020,
          "midi": 62,
          "name": "D4",
          "ticks": 9060,
          "time": 43.5576865,
          "velocity": 0.5039370078740157
        },
        {
          "duration": 1.1538460000000015,
          "durationTicks": 240,
          "midi": 67,
          "name": "G4",
          "ticks": 9120,
          "time": 43.84614800000001,
          "velocity": 0.5039370078740157
        },
        {
          "duration": 2.307691999999996,
          "durationTicks": 480,
          "midi": 67,
          "name": "G4",
          "ticks": 9360,
          "time": 44.99999400000001,
          "velocity": 0.5039370078740157
        },
        {
          "duration": 3.4615379999999973,
          "durationTicks": 720,
          "midi": 67,
          "name": "G4",
          "ticks": 9360,
          "time": 44.99999400000001,
          "velocity": 0.5039370078740157
        },
        {
          "duration": 2.307692000000003,
          "durationTicks": 480,
          "midi": 62,
          "name": "D4",
          "ticks": 9840,
          "time": 47.307686000000004,
          "velocity": 0.5039370078740157
        },
        {
          "duration": 3.4615380000000044,
          "durationTicks": 720,
          "midi": 63,
          "name": "D#4",
          "ticks": 10080,
          "time": 48.461532000000005,
          "velocity": 0.5039370078740157
        },
        {
          "duration": 3.4615380000000044,
          "durationTicks": 720,
          "midi": 67,
          "name": "G4",
          "ticks": 10080,
          "time": 48.461532000000005,
          "velocity": 0.5039370078740157
        },
        {
          "duration": 0.5769230000000007,
          "durationTicks": 120,
          "midi": 60,
          "name": "C4",
          "ticks": 10320,
          "time": 49.61537800000001,
          "velocity": 0.5039370078740157
        },
        {
          "duration": 0.5769230000000007,
          "durationTicks": 120,
          "midi": 62,
          "name": "D4",
          "ticks": 10440,
          "time": 50.19230100000001,
          "velocity": 0.5039370078740157
        },
        {
          "duration": 0.3846153333333362,
          "durationTicks": 80,
          "midi": 58,
          "name": "A#3",
          "ticks": 10560,
          "time": 50.76922400000001,
          "velocity": 0.5039370078740157
        },
        {
          "duration": 0.3846153333333291,
          "durationTicks": 80,
          "midi": 60,
          "name": "C4",
          "ticks": 10640,
          "time": 51.153839333333345,
          "velocity": 0.5039370078740157
        },
        {
          "duration": 0.3846153333333362,
          "durationTicks": 80,
          "midi": 57,
          "name": "A3",
          "ticks": 10720,
          "time": 51.538454666666674,
          "velocity": 0.5039370078740157
        },
        {
          "duration": 3.4615379999999973,
          "durationTicks": 720,
          "midi": 60,
          "name": "C4",
          "ticks": 10800,
          "time": 51.92307000000001,
          "velocity": 0.5039370078740157
        },
        {
          "duration": 2.307691999999996,
          "durationTicks": 480,
          "midi": 65,
          "name": "F4",
          "ticks": 10800,
          "time": 51.92307000000001,
          "velocity": 0.5039370078740157
        },
        {
          "duration": 6.923075999999995,
          "durationTicks": 1440,
          "midi": 65,
          "name": "F4",
          "ticks": 10800,
          "time": 51.92307000000001,
          "velocity": 0.5039370078740157
        },
        {
          "duration": 2.307692000000003,
          "durationTicks": 480,
          "midi": 60,
          "name": "C4",
          "ticks": 11280,
          "time": 54.230762000000006,
          "velocity": 0.5039370078740157
        },
        {
          "duration": 3.4615379999999973,
          "durationTicks": 720,
          "midi": 62,
          "name": "D4",
          "ticks": 11520,
          "time": 55.38460800000001,
          "velocity": 0.5039370078740157
        },
        {
          "duration": 0.5769230000000007,
          "durationTicks": 120,
          "midi": 58,
          "name": "A#3",
          "ticks": 11760,
          "time": 56.53845400000001,
          "velocity": 0.5039370078740157
        },
        {
          "duration": 0.5769230000000007,
          "durationTicks": 120,
          "midi": 60,
          "name": "C4",
          "ticks": 11880,
          "time": 57.11537700000001,
          "velocity": 0.5039370078740157
        },
        {
          "duration": 0.3846153333333362,
          "durationTicks": 80,
          "midi": 57,
          "name": "A3",
          "ticks": 12000,
          "time": 57.69230000000001,
          "velocity": 0.5039370078740157
        },
        {
          "duration": 0.384615333333322,
          "durationTicks": 80,
          "midi": 58,
          "name": "A#3",
          "ticks": 12080,
          "time": 58.076915333333346,
          "velocity": 0.5039370078740157
        },
        {
          "duration": 0.3846153333333362,
          "durationTicks": 80,
          "midi": 55,
          "name": "G3",
          "ticks": 12160,
          "time": 58.46153066666667,
          "velocity": 0.5039370078740157
        },
        {
          "duration": 3.4615380000000044,
          "durationTicks": 720,
          "midi": 58,
          "name": "A#3",
          "ticks": 12240,
          "time": 58.846146000000005,
          "velocity": 0.5039370078740157
        },
        {
          "duration": 2.307692000000003,
          "durationTicks": 480,
          "midi": 63,
          "name": "D#4",
          "ticks": 12240,
          "time": 58.846146000000005,
          "velocity": 0.5039370078740157
        },
        {
          "duration": 3.4615380000000044,
          "durationTicks": 720,
          "midi": 63,
          "name": "D#4",
          "ticks": 12240,
          "time": 58.846146000000005,
          "velocity": 0.5039370078740157
        },
        {
          "duration": 2.307692000000003,
          "durationTicks": 480,
          "midi": 58,
          "name": "A#3",
          "ticks": 12720,
          "time": 61.15383800000001,
          "velocity": 0.5039370078740157
        },
        {
          "duration": 2.692307333333332,
          "durationTicks": 560,
          "midi": 60,
          "name": "C4",
          "ticks": 12960,
          "time": 62.30768400000001,
          "velocity": 0.5039370078740157
        },
        {
          "duration": 3.4615380000000044,
          "durationTicks": 720,
          "midi": 63,
          "name": "D#4",
          "ticks": 12960,
          "time": 62.30768400000001,
          "velocity": 0.5039370078740157
        },
        {
          "duration": 0.5769229999999936,
          "durationTicks": 120,
          "midi": 57,
          "name": "A3",
          "ticks": 13200,
          "time": 63.46153000000001,
          "velocity": 0.5039370078740157
        },
        {
          "duration": 0.5769230000000078,
          "durationTicks": 120,
          "midi": 58,
          "name": "A#3",
          "ticks": 13320,
          "time": 64.038453,
          "velocity": 0.5039370078740157
        },
        {
          "duration": 1.1538460000000015,
          "durationTicks": 240,
          "midi": 60,
          "name": "C4",
          "ticks": 13440,
          "time": 64.61537600000001,
          "velocity": 0.5039370078740157
        },
        {
          "duration": 0.3846153333333291,
          "durationTicks": 80,
          "midi": 58,
          "name": "A#3",
          "ticks": 13520,
          "time": 64.99999133333334,
          "velocity": 0.5039370078740157
        },
        {
          "duration": 1.5384613333333448,
          "durationTicks": 320,
          "midi": 57,
          "name": "A3",
          "ticks": 13600,
          "time": 65.38460666666667,
          "velocity": 0.5039370078740157
        },
        {
          "duration": 2.3076919999999888,
          "durationTicks": 480,
          "midi": 62,
          "name": "D4",
          "ticks": 13680,
          "time": 65.76922200000001,
          "velocity": 0.5039370078740157
        },
        {
          "duration": 0.5769229999999936,
          "durationTicks": 120,
          "midi": 55,
          "name": "G3",
          "ticks": 13920,
          "time": 66.92306800000001,
          "velocity": 0.5039370078740157
        },
        {
          "duration": 0.5769229999999936,
          "durationTicks": 120,
          "midi": 66,
          "name": "F#4",
          "ticks": 14040,
          "time": 67.49999100000001,
          "velocity": 0.5039370078740157
        },
        {
          "duration": 1.1538460000000015,
          "durationTicks": 240,
          "midi": 63,
          "name": "D#4",
          "ticks": 14160,
          "time": 68.076914,
          "velocity": 0.5039370078740157
        },
        {
          "duration": 0.5769230000000078,
          "durationTicks": 120,
          "midi": 67,
          "name": "G4",
          "ticks": 14160,
          "time": 68.076914,
          "velocity": 0.5039370078740157
        },
        {
          "duration": 0.5769229999999936,
          "durationTicks": 120,
          "midi": 69,
          "name": "A4",
          "ticks": 14280,
          "time": 68.65383700000001,
          "velocity": 0.5039370078740157
        },
        {
          "duration": 10.384614000000013,
          "durationTicks": 2160,
          "midi": 67,
          "name": "G4",
          "ticks": 14400,
          "time": 69.23076,
          "velocity": 0.5039370078740157
        },
        {
          "duration": 2.3076919999999888,
          "durationTicks": 480,
          "midi": 77,
          "name": "F5",
          "ticks": 16560,
          "time": 79.61537400000002,
          "velocity": 0.5039370078740157
        },
        {
          "duration": 3.4615379999999902,
          "durationTicks": 720,
          "midi": 68,
          "name": "G#4",
          "ticks": 16560,
          "time": 79.61537400000002,
          "velocity": 0.5039370078740157
        },
        {
          "duration": 3.4615379999999902,
          "durationTicks": 720,
          "midi": 74,
          "name": "D5",
          "ticks": 16560,
          "time": 79.61537400000002,
          "velocity": 0.5039370078740157
        },
        {
          "duration": 0.14423075000000551,
          "durationTicks": 30,
          "midi": 77,
          "name": "F5",
          "ticks": 17040,
          "time": 81.923066,
          "velocity": 0.5039370078740157
        },
        {
          "duration": 0.14423075000000551,
          "durationTicks": 30,
          "midi": 79,
          "name": "G5",
          "ticks": 17070,
          "time": 82.06729675000001,
          "velocity": 0.5039370078740157
        },
        {
          "duration": 0.5769229999999936,
          "durationTicks": 120,
          "midi": 80,
          "name": "G#5",
          "ticks": 17100,
          "time": 82.21152750000002,
          "velocity": 0.5039370078740157
        },
        {
          "duration": 0.14423075000000551,
          "durationTicks": 30,
          "midi": 79,
          "name": "G5",
          "ticks": 17220,
          "time": 82.78845050000001,
          "velocity": 0.5039370078740157
        },
        {
          "duration": 0.1442307499999913,
          "durationTicks": 30,
          "midi": 77,
          "name": "F5",
          "ticks": 17250,
          "time": 82.93268125000002,
          "velocity": 0.5039370078740157
        },
        {
          "duration": 3.4615380000000044,
          "durationTicks": 720,
          "midi": 67,
          "name": "G4",
          "ticks": 17280,
          "time": 83.07691200000001,
          "velocity": 0.5039370078740157
        },
        {
          "duration": 3.4615380000000044,
          "durationTicks": 720,
          "midi": 72,
          "name": "C5",
          "ticks": 17280,
          "time": 83.07691200000001,
          "velocity": 0.5039370078740157
        },
        {
          "duration": 3.4615380000000044,
          "durationTicks": 720,
          "midi": 75,
          "name": "D#5",
          "ticks": 17280,
          "time": 83.07691200000001,
          "velocity": 0.5039370078740157
        },
        {
          "duration": 3.4615380000000044,
          "durationTicks": 720,
          "midi": 67,
          "name": "G4",
          "ticks": 18000,
          "time": 86.53845000000001,
          "velocity": 0.5039370078740157
        },
        {
          "duration": 3.4615380000000044,
          "durationTicks": 720,
          "midi": 74,
          "name": "D5",
          "ticks": 18000,
          "time": 86.53845000000001,
          "velocity": 0.5039370078740157
        },
        {
          "duration": 2.3076919999999888,
          "durationTicks": 480,
          "midi": 72,
          "name": "C5",
          "ticks": 18720,
          "time": 89.99998800000002,
          "velocity": 0.5039370078740157
        },
        {
          "duration": 3.4615379999999902,
          "durationTicks": 720,
          "midi": 68,
          "name": "G#4",
          "ticks": 18720,
          "time": 89.99998800000002,
          "velocity": 0.5039370078740157
        },
        {
          "duration": 0.14423075000000551,
          "durationTicks": 30,
          "midi": 72,
          "name": "C5",
          "ticks": 19200,
          "time": 92.30768,
          "velocity": 0.5039370078740157
        },
        {
          "duration": 0.14423075000000551,
          "durationTicks": 30,
          "midi": 74,
          "name": "D5",
          "ticks": 19230,
          "time": 92.45191075000001,
          "velocity": 0.5039370078740157
        },
        {
          "duration": 0.5769229999999936,
          "durationTicks": 120,
          "midi": 75,
          "name": "D#5",
          "ticks": 19260,
          "time": 92.59614150000002,
          "velocity": 0.5039370078740157
        },
        {
          "duration": 0.14423075000000551,
          "durationTicks": 30,
          "midi": 74,
          "name": "D5",
          "ticks": 19380,
          "time": 93.17306450000001,
          "velocity": 0.5039370078740157
        },
        {
          "duration": 0.1442307499999913,
          "durationTicks": 30,
          "midi": 72,
          "name": "C5",
          "ticks": 19410,
          "time": 93.31729525000002,
          "velocity": 0.5039370078740157
        },
        {
          "duration": 2.307692000000003,
          "durationTicks": 480,
          "midi": 70,
          "name": "A#4",
          "ticks": 19440,
          "time": 93.461526,
          "velocity": 0.5039370078740157
        },
        {
          "duration": 3.4615380000000044,
          "durationTicks": 720,
          "midi": 67,
          "name": "G4",
          "ticks": 19440,
          "time": 93.461526,
          "velocity": 0.5039370078740157
        },
        {
          "duration": 0.14423075000000551,
          "durationTicks": 30,
          "midi": 70,
          "name": "A#4",
          "ticks": 19920,
          "time": 95.76921800000001,
          "velocity": 0.5039370078740157
        },
        {
          "duration": 0.1442307499999913,
          "durationTicks": 30,
          "midi": 72,
          "name": "C5",
          "ticks": 19950,
          "time": 95.91344875000001,
          "velocity": 0.5039370078740157
        },
        {
          "duration": 0.5769230000000078,
          "durationTicks": 120,
          "midi": 74,
          "name": "D5",
          "ticks": 19980,
          "time": 96.0576795,
          "velocity": 0.5039370078740157
        },
        {
          "duration": 0.14423075000000551,
          "durationTicks": 30,
          "midi": 72,
          "name": "C5",
          "ticks": 20100,
          "time": 96.63460250000001,
          "velocity": 0.5039370078740157
        },
        {
          "duration": 0.1442307499999913,
          "durationTicks": 30,
          "midi": 70,
          "name": "A#4",
          "ticks": 20130,
          "time": 96.77883325000002,
          "velocity": 0.5039370078740157
        },
        {
          "duration": 2.307692000000003,
          "durationTicks": 480,
          "midi": 69,
          "name": "A4",
          "ticks": 20160,
          "time": 96.92306400000001,
          "velocity": 0.5039370078740157
        },
        {
          "duration": 3.4615380000000044,
          "durationTicks": 720,
          "midi": 66,
          "name": "F#4",
          "ticks": 20160,
          "time": 96.92306400000001,
          "velocity": 0.5039370078740157
        },
        {
          "duration": 0.14423075000000551,
          "durationTicks": 30,
          "midi": 69,
          "name": "A4",
          "ticks": 20640,
          "time": 99.23075600000001,
          "velocity": 0.5039370078740157
        },
        {
          "duration": 0.1442307499999913,
          "durationTicks": 30,
          "midi": 70,
          "name": "A#4",
          "ticks": 20670,
          "time": 99.37498675000002,
          "velocity": 0.5039370078740157
        },
        {
          "duration": 0.5769230000000078,
          "durationTicks": 120,
          "midi": 72,
          "name": "C5",
          "ticks": 20700,
          "time": 99.51921750000001,
          "velocity": 0.5039370078740157
        },
        {
          "duration": 0.1442307499999913,
          "durationTicks": 30,
          "midi": 70,
          "name": "A#4",
          "ticks": 20820,
          "time": 100.09614050000002,
          "velocity": 0.5039370078740157
        },
        {
          "duration": 0.14423075000000551,
          "durationTicks": 30,
          "midi": 69,
          "name": "A4",
          "ticks": 20850,
          "time": 100.24037125000001,
          "velocity": 0.5039370078740157
        },
        {
          "duration": 6.923075999999995,
          "durationTicks": 1440,
          "midi": 67,
          "name": "G4",
          "ticks": 20880,
          "time": 100.38460200000002,
          "velocity": 0.5039370078740157
        },
        {
          "duration": 6.923075999999995,
          "durationTicks": 1440,
          "midi": 62,
          "name": "D4",
          "ticks": 20880,
          "time": 100.38460200000002,
          "velocity": 0.5039370078740157
        },
        {
          "duration": 6.923075999999995,
          "durationTicks": 1440,
          "midi": 58,
          "name": "A#3",
          "ticks": 20880,
          "time": 100.38460200000002,
          "velocity": 0.5039370078740157
        },
        {
          "duration": 0.14423075000000551,
          "durationTicks": 30,
          "midi": 67,
          "name": "G4",
          "ticks": 22320,
          "time": 107.30767800000001,
          "velocity": 0.6299212598425197
        },
        {
          "duration": 6.923076000000009,
          "durationTicks": 1440,
          "midi": 63,
          "name": "D#4",
          "ticks": 22320,
          "time": 107.30767800000001,
          "velocity": 0.6299212598425197
        },
        {
          "duration": 6.923076000000009,
          "durationTicks": 1440,
          "midi": 58,
          "name": "A#3",
          "ticks": 22320,
          "time": 107.30767800000001,
          "velocity": 0.6299212598425197
        },
        {
          "duration": 3.4615380000000044,
          "durationTicks": 720,
          "midi": 67,
          "name": "G4",
          "ticks": 22320,
          "time": 107.30767800000001,
          "velocity": 0.6299212598425197
        },
        {
          "duration": 0.14423075000000551,
          "durationTicks": 30,
          "midi": 69,
          "name": "A4",
          "ticks": 22350,
          "time": 107.45190875000002,
          "velocity": 0.6299212598425197
        },
        {
          "duration": 2.5961535,
          "durationTicks": 540,
          "midi": 70,
          "name": "A#4",
          "ticks": 22380,
          "time": 107.59613950000002,
          "velocity": 0.6299212598425197
        },
        {
          "duration": 4.038460999999998,
          "durationTicks": 840,
          "midi": 67,
          "name": "G4",
          "ticks": 22920,
          "time": 110.19229300000002,
          "velocity": 0.6299212598425197
        },
        {
          "duration": 3.4615379999999902,
          "durationTicks": 720,
          "midi": 63,
          "name": "D#4",
          "ticks": 23760,
          "time": 114.23075400000002,
          "velocity": 0.6299212598425197
        },
        {
          "duration": 3.4615379999999902,
          "durationTicks": 720,
          "midi": 60,
          "name": "C4",
          "ticks": 23760,
          "time": 114.23075400000002,
          "velocity": 0.6299212598425197
        },
        {
          "duration": 0.1442307499999913,
          "durationTicks": 30,
          "midi": 69,
          "name": "A4",
          "ticks": 23760,
          "time": 114.23075400000002,
          "velocity": 0.6299212598425197
        },
        {
          "duration": 0.14423075000000551,
          "durationTicks": 30,
          "midi": 70,
          "name": "A#4",
          "ticks": 23790,
          "time": 114.37498475000001,
          "velocity": 0.6299212598425197
        },
        {
          "duration": 3.1730764999999934,
          "durationTicks": 660,
          "midi": 72,
          "name": "C5",
          "ticks": 23820,
          "time": 114.51921550000002,
          "velocity": 0.6299212598425197
        },
        {
          "duration": 3.4615380000000044,
          "durationTicks": 720,
          "midi": 67,
          "name": "G4",
          "ticks": 24480,
          "time": 117.69229200000001,
          "velocity": 0.6299212598425197
        },
        {
          "duration": 3.4615380000000044,
          "durationTicks": 720,
          "midi": 64,
          "name": "E4",
          "ticks": 24480,
          "time": 117.69229200000001,
          "velocity": 0.6299212598425197
        },
        {
          "duration": 0.14423075000000551,
          "durationTicks": 30,
          "midi": 70,
          "name": "A#4",
          "ticks": 24480,
          "time": 117.69229200000001,
          "velocity": 0.6299212598425197
        },
        {
          "duration": 0.14423075000000551,
          "durationTicks": 30,
          "midi": 69,
          "name": "A4",
          "ticks": 24510,
          "time": 117.83652275000001,
          "velocity": 0.6299212598425197
        },
        {
          "duration": 3.1730764999999934,
          "durationTicks": 660,
          "midi": 70,
          "name": "A#4",
          "ticks": 24540,
          "time": 117.98075350000002,
          "velocity": 0.6299212598425197
        },
        {
          "duration": 0.2884614999999968,
          "durationTicks": 60,
          "midi": 67,
          "name": "G4",
          "ticks": 25200,
          "time": 121.15383000000001,
          "velocity": 0.6299212598425197
        },
        {
          "duration": 2.307692000000003,
          "durationTicks": 480,
          "midi": 62,
          "name": "D4",
          "ticks": 25200,
          "time": 121.15383000000001,
          "velocity": 0.6299212598425197
        },
        {
          "duration": 0.14423075000000551,
          "durationTicks": 30,
          "midi": 69,
          "name": "A4",
          "ticks": 25200,
          "time": 121.15383000000001,
          "velocity": 0.6299212598425197
        },
        {
          "duration": 2.1634612499999974,
          "durationTicks": 450,
          "midi": 67,
          "name": "G4",
          "ticks": 25230,
          "time": 121.29806075000002,
          "velocity": 0.6299212598425197
        },
        {
          "duration": 2.4038458333333352,
          "durationTicks": 500,
          "midi": 69,
          "name": "A4",
          "ticks": 25260,
          "time": 121.44229150000001,
          "velocity": 0.6299212598425197
        },
        {
          "duration": 1.1538460000000015,
          "durationTicks": 240,
          "midi": 66,
          "name": "F#4",
          "ticks": 25680,
          "time": 123.46152200000002,
          "velocity": 0.6299212598425197
        },
        {
          "duration": 1.1538460000000015,
          "durationTicks": 240,
          "midi": 60,
          "name": "C4",
          "ticks": 25680,
          "time": 123.46152200000002,
          "velocity": 0.6299212598425197
        },
        {
          "duration": 0.3846153333333433,
          "durationTicks": 80,
          "midi": 67,
          "name": "G4",
          "ticks": 25760,
          "time": 123.84613733333335,
          "velocity": 0.6299212598425197
        },
        {
          "duration": 0.3846153333333291,
          "durationTicks": 80,
          "midi": 66,
          "name": "F#4",
          "ticks": 25840,
          "time": 124.23075266666669,
          "velocity": 0.6299212598425197
        },
        {
          "duration": 6.923076000000009,
          "durationTicks": 1440,
          "midi": 67,
          "name": "G4",
          "ticks": 25920,
          "time": 124.61536800000002,
          "velocity": 0.5039370078740157
        },
        {
          "duration": 6.923076000000009,
          "durationTicks": 1440,
          "midi": 62,
          "name": "D4",
          "ticks": 25920,
          "time": 124.61536800000002,
          "velocity": 0.5039370078740157
        },
        {
          "duration": 6.923076000000009,
          "durationTicks": 1440,
          "midi": 58,
          "name": "A#3",
          "ticks": 25920,
          "time": 124.61536800000002,
          "velocity": 0.5039370078740157
        },
        {
          "duration": 0.8653844999999762,
          "durationTicks": 180,
          "midi": 60,
          "name": "C4",
          "ticks": 27360,
          "time": 131.53844400000003,
          "velocity": 0.5039370078740157
        },
        {
          "duration": 3.4615379999999902,
          "durationTicks": 720,
          "midi": 60,
          "name": "C4",
          "ticks": 27360,
          "time": 131.53844400000003,
          "velocity": 0.5039370078740157
        },
        {
          "duration": 0.28846150000001103,
          "durationTicks": 60,
          "midi": 62,
          "name": "D4",
          "ticks": 27540,
          "time": 132.4038285,
          "velocity": 0.5039370078740157
        },
        {
          "duration": 0.8653845000000047,
          "durationTicks": 180,
          "midi": 63,
          "name": "D#4",
          "ticks": 27600,
          "time": 132.69229,
          "velocity": 0.5039370078740157
        },
        {
          "duration": 0.28846150000001103,
          "durationTicks": 60,
          "midi": 62,
          "name": "D4",
          "ticks": 27780,
          "time": 133.55767450000002,
          "velocity": 0.5039370078740157
        },
        {
          "duration": 0.8653844999999762,
          "durationTicks": 180,
          "midi": 63,
          "name": "D#4",
          "ticks": 27840,
          "time": 133.84613600000003,
          "velocity": 0.5039370078740157
        },
        {
          "duration": 3.7499995000000013,
          "durationTicks": 780,
          "midi": 60,
          "name": "C4",
          "ticks": 28020,
          "time": 134.7115205,
          "velocity": 0.5039370078740157
        },
        {
          "duration": 3.4615379999999902,
          "durationTicks": 720,
          "midi": 66,
          "name": "F#4",
          "ticks": 28080,
          "time": 134.99998200000002,
          "velocity": 0.5039370078740157
        },
        {
          "duration": 0.8653845000000047,
          "durationTicks": 180,
          "midi": 62,
          "name": "D4",
          "ticks": 28800,
          "time": 138.46152,
          "velocity": 0.5039370078740157
        },
        {
          "duration": 2.307692000000003,
          "durationTicks": 480,
          "midi": 62,
          "name": "D4",
          "ticks": 28800,
          "time": 138.46152,
          "velocity": 0.5039370078740157
        },
        {
          "duration": 0.28846150000001103,
          "durationTicks": 60,
          "midi": 64,
          "name": "E4",
          "ticks": 28980,
          "time": 139.3269045,
          "velocity": 0.5039370078740157
        },
        {
          "duration": 0.8653845000000047,
          "durationTicks": 180,
          "midi": 66,
          "name": "F#4",
          "ticks": 29040,
          "time": 139.61536600000002,
          "velocity": 0.5039370078740157
        },
        {
          "duration": 4.9038454999999885,
          "durationTicks": 1020,
          "midi": 62,
          "name": "D4",
          "ticks": 29220,
          "time": 140.48075050000003,
          "velocity": 0.5039370078740157
        },
        {
          "duration": 1.1538460000000157,
          "durationTicks": 240,
          "midi": 67,
          "name": "G4",
          "ticks": 29280,
          "time": 140.769212,
          "velocity": 0.5039370078740157
        },
        {
          "duration": 2.307692000000003,
          "durationTicks": 480,
          "midi": 67,
          "name": "G4",
          "ticks": 29520,
          "time": 141.92305800000003,
          "velocity": 0.5039370078740157
        },
        {
          "duration": 3.4615379999999902,
          "durationTicks": 720,
          "midi": 67,
          "name": "G4",
          "ticks": 29520,
          "time": 141.92305800000003,
          "velocity": 0.5039370078740157
        },
        {
          "duration": 2.307692000000003,
          "durationTicks": 480,
          "midi": 62,
          "name": "D4",
          "ticks": 30000,
          "time": 144.23075000000003,
          "velocity": 0.5039370078740157
        },
        {
          "duration": 3.4615379999999902,
          "durationTicks": 720,
          "midi": 67,
          "name": "G4",
          "ticks": 30240,
          "time": 145.38459600000002,
          "velocity": 0.5039370078740157
        },
        {
          "duration": 3.4615379999999902,
          "durationTicks": 720,
          "midi": 63,
          "name": "D#4",
          "ticks": 30240,
          "time": 145.38459600000002,
          "velocity": 0.5039370078740157
        },
        {
          "duration": 0.5769229999999936,
          "durationTicks": 120,
          "midi": 60,
          "name": "C4",
          "ticks": 30480,
          "time": 146.53844200000003,
          "velocity": 0.5039370078740157
        },
        {
          "duration": 0.5769229999999936,
          "durationTicks": 120,
          "midi": 62,
          "name": "D4",
          "ticks": 30600,
          "time": 147.11536500000003,
          "velocity": 0.5039370078740157
        },
        {
          "duration": 0.3846153333333575,
          "durationTicks": 80,
          "midi": 58,
          "name": "A#3",
          "ticks": 30720,
          "time": 147.69228800000002,
          "velocity": 0.5039370078740157
        },
        {
          "duration": 0.38461533333330067,
          "durationTicks": 80,
          "midi": 60,
          "name": "C4",
          "ticks": 30800,
          "time": 148.07690333333338,
          "velocity": 0.5039370078740157
        },
        {
          "duration": 0.3846153333333291,
          "durationTicks": 80,
          "midi": 57,
          "name": "A3",
          "ticks": 30880,
          "time": 148.46151866666668,
          "velocity": 0.5039370078740157
        },
        {
          "duration": 2.307692000000003,
          "durationTicks": 480,
          "midi": 65,
          "name": "F4",
          "ticks": 30960,
          "time": 148.846134,
          "velocity": 0.5039370078740157
        },
        {
          "duration": 6.923076000000009,
          "durationTicks": 1440,
          "midi": 65,
          "name": "F4",
          "ticks": 30960,
          "time": 148.846134,
          "velocity": 0.5039370078740157
        },
        {
          "duration": 3.4615380000000187,
          "durationTicks": 720,
          "midi": 60,
          "name": "C4",
          "ticks": 30960,
          "time": 148.846134,
          "velocity": 0.5039370078740157
        },
        {
          "duration": 2.307692000000003,
          "durationTicks": 480,
          "midi": 60,
          "name": "C4",
          "ticks": 31440,
          "time": 151.153826,
          "velocity": 0.5039370078740157
        },
        {
          "duration": 3.4615379999999902,
          "durationTicks": 720,
          "midi": 62,
          "name": "D4",
          "ticks": 31680,
          "time": 152.30767200000003,
          "velocity": 0.5039370078740157
        },
        {
          "duration": 0.5769229999999936,
          "durationTicks": 120,
          "midi": 58,
          "name": "A#3",
          "ticks": 31920,
          "time": 153.461518,
          "velocity": 0.5039370078740157
        },
        {
          "duration": 0.5769230000000221,
          "durationTicks": 120,
          "midi": 60,
          "name": "C4",
          "ticks": 32040,
          "time": 154.038441,
          "velocity": 0.5039370078740157
        },
        {
          "duration": 0.3846153333333291,
          "durationTicks": 80,
          "midi": 57,
          "name": "A3",
          "ticks": 32160,
          "time": 154.61536400000003,
          "velocity": 0.5039370078740157
        },
        {
          "duration": 0.3846153333333291,
          "durationTicks": 80,
          "midi": 58,
          "name": "A#3",
          "ticks": 32240,
          "time": 154.99997933333336,
          "velocity": 0.5039370078740157
        },
        {
          "duration": 0.3846153333333291,
          "durationTicks": 80,
          "midi": 55,
          "name": "G3",
          "ticks": 32320,
          "time": 155.3845946666667,
          "velocity": 0.5039370078740157
        },
        {
          "duration": 2.307692000000003,
          "durationTicks": 480,
          "midi": 63,
          "name": "D#4",
          "ticks": 32400,
          "time": 155.76921000000002,
          "velocity": 0.5039370078740157
        },
        {
          "duration": 3.4615380000000187,
          "durationTicks": 720,
          "midi": 63,
          "name": "D#4",
          "ticks": 32400,
          "time": 155.76921000000002,
          "velocity": 0.5039370078740157
        },
        {
          "duration": 3.4615380000000187,
          "durationTicks": 720,
          "midi": 58,
          "name": "A#3",
          "ticks": 32400,
          "time": 155.76921000000002,
          "velocity": 0.5039370078740157
        },
        {
          "duration": 2.307692000000003,
          "durationTicks": 480,
          "midi": 58,
          "name": "A#3",
          "ticks": 32880,
          "time": 158.07690200000002,
          "velocity": 0.5039370078740157
        },
        {
          "duration": 3.4615379999999902,
          "durationTicks": 720,
          "midi": 63,
          "name": "D#4",
          "ticks": 33120,
          "time": 159.23074800000003,
          "velocity": 0.5039370078740157
        },
        {
          "duration": 2.692307333333332,
          "durationTicks": 560,
          "midi": 60,
          "name": "C4",
          "ticks": 33120,
          "time": 159.23074800000003,
          "velocity": 0.5039370078740157
        },
        {
          "duration": 0.5769229999999936,
          "durationTicks": 120,
          "midi": 57,
          "name": "A3",
          "ticks": 33360,
          "time": 160.38459400000002,
          "velocity": 0.5039370078740157
        },
        {
          "duration": 0.5769229999999936,
          "durationTicks": 120,
          "midi": 58,
          "name": "A#3",
          "ticks": 33480,
          "time": 160.96151700000001,
          "velocity": 0.5039370078740157
        },
        {
          "duration": 1.1538460000000157,
          "durationTicks": 240,
          "midi": 60,
          "name": "C4",
          "ticks": 33600,
          "time": 161.53844,
          "velocity": 0.5039370078740157
        },
        {
          "duration": 0.38461533333330067,
          "durationTicks": 80,
          "midi": 58,
          "name": "A#3",
          "ticks": 33680,
          "time": 161.92305533333337,
          "velocity": 0.5039370078740157
        },
        {
          "duration": 1.5384613333333448,
          "durationTicks": 320,
          "midi": 57,
          "name": "A3",
          "ticks": 33760,
          "time": 162.30767066666667,
          "velocity": 0.5039370078740157
        },
        {
          "duration": 2.307692000000003,
          "durationTicks": 480,
          "midi": 62,
          "name": "D4",
          "ticks": 33840,
          "time": 162.69228600000002,
          "velocity": 0.5039370078740157
        },
        {
          "duration": 0.5769230000000221,
          "durationTicks": 120,
          "midi": 55,
          "name": "G3",
          "ticks": 34080,
          "time": 163.846132,
          "velocity": 0.5039370078740157
        },
        {
          "duration": 0.5769229999999936,
          "durationTicks": 120,
          "midi": 66,
          "name": "F#4",
          "ticks": 34200,
          "time": 164.42305500000003,
          "velocity": 0.5039370078740157
        },
        {
          "duration": 0.5769229999999936,
          "durationTicks": 120,
          "midi": 67,
          "name": "G4",
          "ticks": 34320,
          "time": 164.99997800000003,
          "velocity": 0.5039370078740157
        },
        {
          "duration": 1.1538459999999873,
          "durationTicks": 240,
          "midi": 63,
          "name": "D#4",
          "ticks": 34320,
          "time": 164.99997800000003,
          "velocity": 0.5039370078740157
        },
        {
          "duration": 0.5769229999999936,
          "durationTicks": 120,
          "midi": 69,
          "name": "A4",
          "ticks": 34440,
          "time": 165.57690100000002,
          "velocity": 0.5039370078740157
        },
        {
          "duration": 10.384614,
          "durationTicks": 2160,
          "midi": 67,
          "name": "G4",
          "ticks": 34560,
          "time": 166.15382400000001,
          "velocity": 0.5039370078740157
        },
        {
          "duration": 3.4615380000000187,
          "durationTicks": 720,
          "midi": 74,
          "name": "D5",
          "ticks": 36720,
          "time": 176.538438,
          "velocity": 0.5039370078740157
        },
        {
          "duration": 3.4615380000000187,
          "durationTicks": 720,
          "midi": 68,
          "name": "G#4",
          "ticks": 36720,
          "time": 176.538438,
          "velocity": 0.5039370078740157
        },
        {
          "duration": 2.307692000000003,
          "durationTicks": 480,
          "midi": 77,
          "name": "F5",
          "ticks": 36720,
          "time": 176.538438,
          "velocity": 0.5039370078740157
        },
        {
          "duration": 0.14423075000001973,
          "durationTicks": 30,
          "midi": 77,
          "name": "F5",
          "ticks": 37200,
          "time": 178.84613000000002,
          "velocity": 0.5039370078740157
        },
        {
          "duration": 0.1442307499999913,
          "durationTicks": 30,
          "midi": 79,
          "name": "G5",
          "ticks": 37230,
          "time": 178.99036075000004,
          "velocity": 0.5039370078740157
        },
        {
          "duration": 0.5769229999999936,
          "durationTicks": 120,
          "midi": 80,
          "name": "G#5",
          "ticks": 37260,
          "time": 179.13459150000003,
          "velocity": 0.5039370078740157
        },
        {
          "duration": 0.1442307499999913,
          "durationTicks": 30,
          "midi": 79,
          "name": "G5",
          "ticks": 37380,
          "time": 179.71151450000002,
          "velocity": 0.5039370078740157
        },
        {
          "duration": 0.14423075000001973,
          "durationTicks": 30,
          "midi": 77,
          "name": "F5",
          "ticks": 37410,
          "time": 179.85574525,
          "velocity": 0.5039370078740157
        },
        {
          "duration": 3.4615379999999902,
          "durationTicks": 720,
          "midi": 75,
          "name": "D#5",
          "ticks": 37440,
          "time": 179.99997600000003,
          "velocity": 0.5039370078740157
        },
        {
          "duration": 3.4615379999999902,
          "durationTicks": 720,
          "midi": 72,
          "name": "C5",
          "ticks": 37440,
          "time": 179.99997600000003,
          "velocity": 0.5039370078740157
        },
        {
          "duration": 3.4615379999999902,
          "durationTicks": 720,
          "midi": 67,
          "name": "G4",
          "ticks": 37440,
          "time": 179.99997600000003,
          "velocity": 0.5039370078740157
        },
        {
          "duration": 3.4615379999999902,
          "durationTicks": 720,
          "midi": 74,
          "name": "D5",
          "ticks": 38160,
          "time": 183.46151400000002,
          "velocity": 0.5039370078740157
        },
        {
          "duration": 3.4615379999999902,
          "durationTicks": 720,
          "midi": 67,
          "name": "G4",
          "ticks": 38160,
          "time": 183.46151400000002,
          "velocity": 0.5039370078740157
        },
        {
          "duration": 3.4615380000000187,
          "durationTicks": 720,
          "midi": 68,
          "name": "G#4",
          "ticks": 38880,
          "time": 186.923052,
          "velocity": 0.5039370078740157
        },
        {
          "duration": 2.307692000000003,
          "durationTicks": 480,
          "midi": 72,
          "name": "C5",
          "ticks": 38880,
          "time": 186.923052,
          "velocity": 0.5039370078740157
        },
        {
          "duration": 0.14423075000001973,
          "durationTicks": 30,
          "midi": 72,
          "name": "C5",
          "ticks": 39360,
          "time": 189.23074400000002,
          "velocity": 0.5039370078740157
        },
        {
          "duration": 0.1442307499999913,
          "durationTicks": 30,
          "midi": 74,
          "name": "D5",
          "ticks": 39390,
          "time": 189.37497475000004,
          "velocity": 0.5039370078740157
        },
        {
          "duration": 0.5769229999999936,
          "durationTicks": 120,
          "midi": 75,
          "name": "D#5",
          "ticks": 39420,
          "time": 189.51920550000003,
          "velocity": 0.5039370078740157
        },
        {
          "duration": 0.1442307499999913,
          "durationTicks": 30,
          "midi": 74,
          "name": "D5",
          "ticks": 39540,
          "time": 190.09612850000002,
          "velocity": 0.5039370078740157
        },
        {
          "duration": 0.14423075000001973,
          "durationTicks": 30,
          "midi": 72,
          "name": "C5",
          "ticks": 39570,
          "time": 190.24035925,
          "velocity": 0.5039370078740157
        },
        {
          "duration": 3.4615379999999902,
          "durationTicks": 720,
          "midi": 67,
          "name": "G4",
          "ticks": 39600,
          "time": 190.38459000000003,
          "velocity": 0.5039370078740157
        },
        {
          "duration": 2.307692000000003,
          "durationTicks": 480,
          "midi": 70,
          "name": "A#4",
          "ticks": 39600,
          "time": 190.38459000000003,
          "velocity": 0.5039370078740157
        },
        {
          "duration": 0.1442307499999913,
          "durationTicks": 30,
          "midi": 70,
          "name": "A#4",
          "ticks": 40080,
          "time": 192.69228200000003,
          "velocity": 0.5039370078740157
        },
        {
          "duration": 0.1442307499999913,
          "durationTicks": 30,
          "midi": 72,
          "name": "C5",
          "ticks": 40110,
          "time": 192.83651275000003,
          "velocity": 0.5039370078740157
        },
        {
          "duration": 0.5769230000000221,
          "durationTicks": 120,
          "midi": 74,
          "name": "D5",
          "ticks": 40140,
          "time": 192.98074350000002,
          "velocity": 0.5039370078740157
        },
        {
          "duration": 0.1442307499999913,
          "durationTicks": 30,
          "midi": 72,
          "name": "C5",
          "ticks": 40260,
          "time": 193.55766650000004,
          "velocity": 0.5039370078740157
        },
        {
          "duration": 0.1442307499999913,
          "durationTicks": 30,
          "midi": 70,
          "name": "A#4",
          "ticks": 40290,
          "time": 193.70189725000003,
          "velocity": 0.5039370078740157
        },
        {
          "duration": 3.4615379999999902,
          "durationTicks": 720,
          "midi": 66,
          "name": "F#4",
          "ticks": 40320,
          "time": 193.84612800000002,
          "velocity": 0.5039370078740157
        },
        {
          "duration": 2.307692000000003,
          "durationTicks": 480,
          "midi": 69,
          "name": "A4",
          "ticks": 40320,
          "time": 193.84612800000002,
          "velocity": 0.5039370078740157
        },
        {
          "duration": 0.1442307499999913,
          "durationTicks": 30,
          "midi": 69,
          "name": "A4",
          "ticks": 40800,
          "time": 196.15382000000002,
          "velocity": 0.5039370078740157
        },
        {
          "duration": 0.14423075000001973,
          "durationTicks": 30,
          "midi": 70,
          "name": "A#4",
          "ticks": 40830,
          "time": 196.29805075000002,
          "velocity": 0.5039370078740157
        },
        {
          "duration": 0.5769229999999936,
          "durationTicks": 120,
          "midi": 72,
          "name": "C5",
          "ticks": 40860,
          "time": 196.44228150000004,
          "velocity": 0.5039370078740157
        },
        {
          "duration": 0.1442307499999913,
          "durationTicks": 30,
          "midi": 70,
          "name": "A#4",
          "ticks": 40980,
          "time": 197.01920450000003,
          "velocity": 0.5039370078740157
        },
        {
          "duration": 0.1442307499999913,
          "durationTicks": 30,
          "midi": 69,
          "name": "A4",
          "ticks": 41010,
          "time": 197.16343525000002,
          "velocity": 0.5039370078740157
        },
        {
          "duration": 13.557690500000007,
          "durationTicks": 2820,
          "midi": 59,
          "name": "B3",
          "ticks": 41040,
          "time": 197.307666,
          "velocity": 0.2992125984251969
        },
        {
          "duration": 13.557690500000007,
          "durationTicks": 2820,
          "midi": 62,
          "name": "D4",
          "ticks": 41040,
          "time": 197.307666,
          "velocity": 0.2992125984251969
        },
        {
          "duration": 13.557690500000007,
          "durationTicks": 2820,
          "midi": 67,
          "name": "G4",
          "ticks": 41040,
          "time": 197.307666,
          "velocity": 0.2992125984251969
        },
        {
          "duration": 0.28846150000001103,
          "durationTicks": 60,
          "midi": 59,
          "name": "B3",
          "ticks": 43860,
          "time": 210.86535650000002,
          "velocity": 0.2992125984251969
        },
        {
          "duration": 0.28846150000001103,
          "durationTicks": 60,
          "midi": 62,
          "name": "D4",
          "ticks": 43860,
          "time": 210.86535650000002,
          "velocity": 0.2992125984251969
        },
        {
          "duration": 0.28846150000001103,
          "durationTicks": 60,
          "midi": 67,
          "name": "G4",
          "ticks": 43860,
          "time": 210.86535650000002,
          "velocity": 0.2992125984251969
        },
        {
          "duration": 20.480766499999987,
          "durationTicks": 4260,
          "midi": 60,
          "name": "C4",
          "ticks": 43920,
          "time": 211.15381800000003,
          "velocity": 0.4015748031496063
        },
        {
          "duration": 20.480766499999987,
          "durationTicks": 4260,
          "midi": 67,
          "name": "G4",
          "ticks": 43920,
          "time": 211.15381800000003,
          "velocity": 0.4015748031496063
        },
        {
          "duration": 0.28846150000001103,
          "durationTicks": 60,
          "midi": 55,
          "name": "G3",
          "ticks": 48180,
          "time": 231.63458450000002,
          "velocity": 0.4015748031496063
        },
        {
          "duration": 0.28846150000001103,
          "durationTicks": 60,
          "midi": 60,
          "name": "C4",
          "ticks": 48180,
          "time": 231.63458450000002,
          "velocity": 0.4015748031496063
        },
        {
          "duration": 10.096152500000017,
          "durationTicks": 2100,
          "midi": 58,
          "name": "A#3",
          "ticks": 48240,
          "time": 231.92304600000003,
          "velocity": 0.4015748031496063
        },
        {
          "duration": 10.096152500000017,
          "durationTicks": 2100,
          "midi": 60,
          "name": "C4",
          "ticks": 48240,
          "time": 231.92304600000003,
          "velocity": 0.4015748031496063
        },
        {
          "duration": 0.2884614999999826,
          "durationTicks": 60,
          "midi": 58,
          "name": "A#3",
          "ticks": 50340,
          "time": 242.01919850000004,
          "velocity": 0.4015748031496063
        },
        {
          "duration": 0.2884614999999826,
          "durationTicks": 60,
          "midi": 60,
          "name": "C4",
          "ticks": 50340,
          "time": 242.01919850000004,
          "velocity": 0.4015748031496063
        },
        {
          "duration": 20.480766499999987,
          "durationTicks": 4260,
          "midi": 56,
          "name": "G#3",
          "ticks": 50400,
          "time": 242.30766000000003,
          "velocity": 0.4015748031496063
        },
        {
          "duration": 20.480766499999987,
          "durationTicks": 4260,
          "midi": 60,
          "name": "C4",
          "ticks": 50400,
          "time": 242.30766000000003,
          "velocity": 0.4015748031496063
        },
        {
          "duration": 20.480766499999987,
          "durationTicks": 4260,
          "midi": 65,
          "name": "F4",
          "ticks": 50400,
          "time": 242.30766000000003,
          "velocity": 0.4015748031496063
        },
        {
          "duration": 0.28846150000003945,
          "durationTicks": 60,
          "midi": 56,
          "name": "G#3",
          "ticks": 54660,
          "time": 262.7884265,
          "velocity": 0.48031496062992124
        },
        {
          "duration": 0.28846150000003945,
          "durationTicks": 60,
          "midi": 60,
          "name": "C4",
          "ticks": 54660,
          "time": 262.7884265,
          "velocity": 0.48031496062992124
        },
        {
          "duration": 0.28846150000003945,
          "durationTicks": 60,
          "midi": 65,
          "name": "F4",
          "ticks": 54660,
          "time": 262.7884265,
          "velocity": 0.48031496062992124
        },
        {
          "duration": 6.9230759999999805,
          "durationTicks": 1440,
          "midi": 57,
          "name": "A3",
          "ticks": 54720,
          "time": 263.07688800000005,
          "velocity": 0.5039370078740157
        },
        {
          "duration": 6.9230759999999805,
          "durationTicks": 1440,
          "midi": 60,
          "name": "C4",
          "ticks": 54720,
          "time": 263.07688800000005,
          "velocity": 0.5039370078740157
        },
        {
          "duration": 6.9230759999999805,
          "durationTicks": 1440,
          "midi": 66,
          "name": "F#4",
          "ticks": 54720,
          "time": 263.07688800000005,
          "velocity": 0.5039370078740157
        },
        {
          "duration": 3.4615380000000187,
          "durationTicks": 720,
          "midi": 59,
          "name": "B3",
          "ticks": 56160,
          "time": 269.99996400000003,
          "velocity": 0.5039370078740157
        },
        {
          "duration": 3.4615380000000187,
          "durationTicks": 720,
          "midi": 65,
          "name": "F4",
          "ticks": 56160,
          "time": 269.99996400000003,
          "velocity": 0.5039370078740157
        },
        {
          "duration": 3.461537999999962,
          "durationTicks": 720,
          "midi": 60,
          "name": "C4",
          "ticks": 56880,
          "time": 273.46150200000005,
          "velocity": 0.5039370078740157
        },
        {
          "duration": 3.461537999999962,
          "durationTicks": 720,
          "midi": 63,
          "name": "D#4",
          "ticks": 56880,
          "time": 273.46150200000005,
          "velocity": 0.5039370078740157
        },
        {
          "duration": 6.923076000000037,
          "durationTicks": 1440,
          "midi": 63,
          "name": "D#4",
          "ticks": 57600,
          "time": 276.92304,
          "velocity": 0.5039370078740157
        },
        {
          "duration": 6.923076000000037,
          "durationTicks": 1440,
          "midi": 67,
          "name": "G4",
          "ticks": 57600,
          "time": 276.92304,
          "velocity": 0.5039370078740157
        },
        {
          "duration": 6.923076000000037,
          "durationTicks": 1440,
          "midi": 72,
          "name": "C5",
          "ticks": 57600,
          "time": 276.92304,
          "velocity": 0.5039370078740157
        },
        {
          "duration": 0.14423074999996288,
          "durationTicks": 30,
          "midi": 72,
          "name": "C5",
          "ticks": 59040,
          "time": 283.84611600000005,
          "velocity": 0.5039370078740157
        },
        {
          "duration": 6.9230759999999805,
          "durationTicks": 1440,
          "midi": 63,
          "name": "D#4",
          "ticks": 59040,
          "time": 283.84611600000005,
          "velocity": 0.5039370078740157
        },
        {
          "duration": 6.9230759999999805,
          "durationTicks": 1440,
          "midi": 68,
          "name": "G#4",
          "ticks": 59040,
          "time": 283.84611600000005,
          "velocity": 0.5039370078740157
        },
        {
          "duration": 3.461537999999962,
          "durationTicks": 720,
          "midi": 72,
          "name": "C5",
          "ticks": 59040,
          "time": 283.84611600000005,
          "velocity": 0.5039370078740157
        },
        {
          "duration": 0.14423075000001973,
          "durationTicks": 30,
          "midi": 74,
          "name": "D5",
          "ticks": 59070,
          "time": 283.99034675,
          "velocity": 0.5039370078740157
        },
        {
          "duration": 2.596153500000014,
          "durationTicks": 540,
          "midi": 75,
          "name": "D#5",
          "ticks": 59100,
          "time": 284.13457750000003,
          "velocity": 0.5039370078740157
        },
        {
          "duration": 4.038460999999984,
          "durationTicks": 840,
          "midi": 72,
          "name": "C5",
          "ticks": 59640,
          "time": 286.73073100000005,
          "velocity": 0.5039370078740157
        },
        {
          "duration": 3.4615380000000187,
          "durationTicks": 720,
          "midi": 72,
          "name": "C5",
          "ticks": 59760,
          "time": 287.307654,
          "velocity": 0.5039370078740157
        },
        {
          "duration": 0.14423075000001973,
          "durationTicks": 30,
          "midi": 74,
          "name": "D5",
          "ticks": 60480,
          "time": 290.76919200000003,
          "velocity": 0.5039370078740157
        },
        {
          "duration": 3.4615380000000187,
          "durationTicks": 720,
          "midi": 65,
          "name": "F4",
          "ticks": 60480,
          "time": 290.76919200000003,
          "velocity": 0.5039370078740157
        },
        {
          "duration": 3.4615380000000187,
          "durationTicks": 720,
          "midi": 68,
          "name": "G#4",
          "ticks": 60480,
          "time": 290.76919200000003,
          "velocity": 0.5039370078740157
        },
        {
          "duration": 0.14423074999996288,
          "durationTicks": 30,
          "midi": 75,
          "name": "D#5",
          "ticks": 60510,
          "time": 290.91342275000005,
          "velocity": 0.5039370078740157
        },
        {
          "duration": 3.173076500000036,
          "durationTicks": 660,
          "midi": 77,
          "name": "F5",
          "ticks": 60540,
          "time": 291.0576535,
          "velocity": 0.5039370078740157
        },
        {
          "duration": 3.461537999999962,
          "durationTicks": 720,
          "midi": 69,
          "name": "A4",
          "ticks": 61200,
          "time": 294.23073000000005,
          "velocity": 0.5039370078740157
        },
        {
          "duration": 3.461537999999962,
          "durationTicks": 720,
          "midi": 72,
          "name": "C5",
          "ticks": 61200,
          "time": 294.23073000000005,
          "velocity": 0.5039370078740157
        },
        {
          "duration": 0.14423074999996288,
          "durationTicks": 30,
          "midi": 75,
          "name": "D#5",
          "ticks": 61200,
          "time": 294.23073000000005,
          "velocity": 0.5039370078740157
        },
        {
          "duration": 0.14423075000001973,
          "durationTicks": 30,
          "midi": 74,
          "name": "D5",
          "ticks": 61230,
          "time": 294.37496075,
          "velocity": 0.5039370078740157
        },
        {
          "duration": 3.173076499999979,
          "durationTicks": 660,
          "midi": 75,
          "name": "D#5",
          "ticks": 61260,
          "time": 294.51919150000003,
          "velocity": 0.5039370078740157
        },
        {
          "duration": 2.3076920000000314,
          "durationTicks": 480,
          "midi": 67,
          "name": "G4",
          "ticks": 61920,
          "time": 297.692268,
          "velocity": 0.5039370078740157
        },
        {
          "duration": 0.28846150000003945,
          "durationTicks": 60,
          "midi": 72,
          "name": "C5",
          "ticks": 61920,
          "time": 297.692268,
          "velocity": 0.5039370078740157
        },
        {
          "duration": 0.14423075000001973,
          "durationTicks": 30,
          "midi": 74,
          "name": "D5",
          "ticks": 61920,
          "time": 297.692268,
          "velocity": 0.5039370078740157
        },
        {
          "duration": 2.1634612500000117,
          "durationTicks": 450,
          "midi": 72,
          "name": "C5",
          "ticks": 61950,
          "time": 297.83649875000003,
          "velocity": 0.5039370078740157
        },
        {
          "duration": 2.403845833333321,
          "durationTicks": 500,
          "midi": 74,
          "name": "D5",
          "ticks": 61980,
          "time": 297.98072950000005,
          "velocity": 0.5039370078740157
        },
        {
          "duration": 1.1538459999999873,
          "durationTicks": 240,
          "midi": 65,
          "name": "F4",
          "ticks": 62400,
          "time": 299.99996000000004,
          "velocity": 0.5039370078740157
        },
        {
          "duration": 1.1538459999999873,
          "durationTicks": 240,
          "midi": 71,
          "name": "B4",
          "ticks": 62400,
          "time": 299.99996000000004,
          "velocity": 0.5039370078740157
        },
        {
          "duration": 0.3846153333333291,
          "durationTicks": 80,
          "midi": 72,
          "name": "C5",
          "ticks": 62480,
          "time": 300.3845753333334,
          "velocity": 0.5039370078740157
        },
        {
          "duration": 0.3846153333333291,
          "durationTicks": 80,
          "midi": 71,
          "name": "B4",
          "ticks": 62560,
          "time": 300.7691906666667,
          "velocity": 0.5039370078740157
        },
        {
          "duration": 6.9230759999999805,
          "durationTicks": 1440,
          "midi": 63,
          "name": "D#4",
          "ticks": 62640,
          "time": 301.15380600000003,
          "velocity": 0.5039370078740157
        },
        {
          "duration": 6.9230759999999805,
          "durationTicks": 1440,
          "midi": 67,
          "name": "G4",
          "ticks": 62640,
          "time": 301.15380600000003,
          "velocity": 0.5039370078740157
        },
        {
          "duration": 6.9230759999999805,
          "durationTicks": 1440,
          "midi": 72,
          "name": "C5",
          "ticks": 62640,
          "time": 301.15380600000003,
          "velocity": 0.5039370078740157
        },
        {
          "duration": 0.8653845000000047,
          "durationTicks": 180,
          "midi": 65,
          "name": "F4",
          "ticks": 64080,
          "time": 308.076882,
          "velocity": 0.5039370078740157
        },
        {
          "duration": 3.4615380000000187,
          "durationTicks": 720,
          "midi": 65,
          "name": "F4",
          "ticks": 64080,
          "time": 308.076882,
          "velocity": 0.5039370078740157
        },
        {
          "duration": 0.28846150000003945,
          "durationTicks": 60,
          "midi": 67,
          "name": "G4",
          "ticks": 64260,
          "time": 308.9422665,
          "velocity": 0.5039370078740157
        },
        {
          "duration": 0.8653845000000047,
          "durationTicks": 180,
          "midi": 68,
          "name": "G#4",
          "ticks": 64320,
          "time": 309.23072800000006,
          "velocity": 0.5039370078740157
        },
        {
          "duration": 0.2884614999999826,
          "durationTicks": 60,
          "midi": 67,
          "name": "G4",
          "ticks": 64500,
          "time": 310.09611250000006,
          "velocity": 0.5039370078740157
        },
        {
          "duration": 0.8653845000000047,
          "durationTicks": 180,
          "midi": 68,
          "name": "G#4",
          "ticks": 64560,
          "time": 310.38457400000004,
          "velocity": 0.5039370078740157
        },
        {
          "duration": 0.2884614999999826,
          "durationTicks": 60,
          "midi": 65,
          "name": "F4",
          "ticks": 64740,
          "time": 311.24995850000005,
          "velocity": 0.5039370078740157
        },
        {
          "duration": 3.4615380000000187,
          "durationTicks": 720,
          "midi": 65,
          "name": "F4",
          "ticks": 64800,
          "time": 311.53842000000003,
          "velocity": 0.5039370078740157
        },
        {
          "duration": 3.4615380000000187,
          "durationTicks": 720,
          "midi": 71,
          "name": "B4",
          "ticks": 64800,
          "time": 311.53842000000003,
          "velocity": 0.5039370078740157
        },
        {
          "duration": 0.8653845000000047,
          "durationTicks": 180,
          "midi": 67,
          "name": "G4",
          "ticks": 65520,
          "time": 314.99995800000005,
          "velocity": 0.5039370078740157
        },
        {
          "duration": 2.3076919999999745,
          "durationTicks": 480,
          "midi": 67,
          "name": "G4",
          "ticks": 65520,
          "time": 314.99995800000005,
          "velocity": 0.5039370078740157
        },
        {
          "duration": 0.2884614999999826,
          "durationTicks": 60,
          "midi": 69,
          "name": "A4",
          "ticks": 65700,
          "time": 315.86534250000005,
          "velocity": 0.5039370078740157
        },
        {
          "duration": 0.8653845000000047,
          "durationTicks": 180,
          "midi": 71,
          "name": "B4",
          "ticks": 65760,
          "time": 316.15380400000004,
          "velocity": 0.5039370078740157
        },
        {
          "duration": 4.9038454999999885,
          "durationTicks": 1020,
          "midi": 67,
          "name": "G4",
          "ticks": 65940,
          "time": 317.01918850000004,
          "velocity": 0.5039370078740157
        },
        {
          "duration": 4.615384000000006,
          "durationTicks": 960,
          "midi": 72,
          "name": "C5",
          "ticks": 66000,
          "time": 317.30765,
          "velocity": 0.5039370078740157
        },
        {
          "duration": 3.4615380000000187,
          "durationTicks": 720,
          "midi": 68,
          "name": "G#4",
          "ticks": 66960,
          "time": 321.92303400000003,
          "velocity": 0.5039370078740157
        },
        {
          "duration": 3.4615380000000187,
          "durationTicks": 720,
          "midi": 72,
          "name": "C5",
          "ticks": 66960,
          "time": 321.92303400000003,
          "velocity": 0.5039370078740157
        },
        {
          "duration": 1.1538459999999873,
          "durationTicks": 240,
          "midi": 67,
          "name": "G4",
          "ticks": 66960,
          "time": 321.92303400000003,
          "velocity": 0.5039370078740157
        },
        {
          "duration": 0.5769230000000221,
          "durationTicks": 120,
          "midi": 65,
          "name": "F4",
          "ticks": 67200,
          "time": 323.07688,
          "velocity": 0.5039370078740157
        },
        {
          "duration": 0.5769230000000221,
          "durationTicks": 120,
          "midi": 67,
          "name": "G4",
          "ticks": 67320,
          "time": 323.65380300000004,
          "velocity": 0.5039370078740157
        },
        {
          "duration": 0.38461533333327225,
          "durationTicks": 80,
          "midi": 63,
          "name": "D#4",
          "ticks": 67440,
          "time": 324.23072600000006,
          "velocity": 0.5039370078740157
        },
        {
          "duration": 0.38461533333338593,
          "durationTicks": 80,
          "midi": 65,
          "name": "F4",
          "ticks": 67520,
          "time": 324.61534133333333,
          "velocity": 0.5039370078740157
        },
        {
          "duration": 0.3846153333333291,
          "durationTicks": 80,
          "midi": 62,
          "name": "D4",
          "ticks": 67600,
          "time": 324.9999566666667,
          "velocity": 0.5039370078740157
        },
        {
          "duration": 2.8846149999999966,
          "durationTicks": 600,
          "midi": 70,
          "name": "A#4",
          "ticks": 67680,
          "time": 325.38457200000005,
          "velocity": 0.5039370078740157
        },
        {
          "duration": 3.4615380000000187,
          "durationTicks": 720,
          "midi": 65,
          "name": "F4",
          "ticks": 67680,
          "time": 325.38457200000005,
          "velocity": 0.5039370078740157
        },
        {
          "duration": 0.5769230000000221,
          "durationTicks": 120,
          "midi": 70,
          "name": "A#4",
          "ticks": 68280,
          "time": 328.26918700000004,
          "velocity": 0.5039370078740157
        },
        {
          "duration": 3.461537999999962,
          "durationTicks": 720,
          "midi": 67,
          "name": "G4",
          "ticks": 68400,
          "time": 328.84611000000007,
          "velocity": 0.5039370078740157
        },
        {
          "duration": 3.461537999999962,
          "durationTicks": 720,
          "midi": 70,
          "name": "A#4",
          "ticks": 68400,
          "time": 328.84611000000007,
          "velocity": 0.5039370078740157
        },
        {
          "duration": 1.1538459999999873,
          "durationTicks": 240,
          "midi": 65,
          "name": "F4",
          "ticks": 68400,
          "time": 328.84611000000007,
          "velocity": 0.5039370078740157
        },
        {
          "duration": 0.5769229999999652,
          "durationTicks": 120,
          "midi": 63,
          "name": "D#4",
          "ticks": 68640,
          "time": 329.99995600000005,
          "velocity": 0.5039370078740157
        },
        {
          "duration": 0.5769230000000221,
          "durationTicks": 120,
          "midi": 65,
          "name": "F4",
          "ticks": 68760,
          "time": 330.576879,
          "velocity": 0.5039370078740157
        },
        {
          "duration": 0.3846153333333291,
          "durationTicks": 80,
          "midi": 62,
          "name": "D4",
          "ticks": 68880,
          "time": 331.15380200000004,
          "velocity": 0.5039370078740157
        },
        {
          "duration": 0.38461533333338593,
          "durationTicks": 80,
          "midi": 63,
          "name": "D#4",
          "ticks": 68960,
          "time": 331.53841733333337,
          "velocity": 0.5039370078740157
        },
        {
          "duration": 0.38461533333327225,
          "durationTicks": 80,
          "midi": 60,
          "name": "C4",
          "ticks": 69040,
          "time": 331.92303266666676,
          "velocity": 0.5039370078740157
        },
        {
          "duration": 3.4615380000000187,
          "durationTicks": 720,
          "midi": 60,
          "name": "C4",
          "ticks": 69120,
          "time": 332.30764800000003,
          "velocity": 0.5039370078740157
        },
        {
          "duration": 3.4615380000000187,
          "durationTicks": 720,
          "midi": 63,
          "name": "D#4",
          "ticks": 69120,
          "time": 332.30764800000003,
          "velocity": 0.5039370078740157
        },
        {
          "duration": 3.4615380000000187,
          "durationTicks": 720,
          "midi": 69,
          "name": "A4",
          "ticks": 69120,
          "time": 332.30764800000003,
          "velocity": 0.5039370078740157
        },
        {
          "duration": 3.4615380000000187,
          "durationTicks": 720,
          "midi": 58,
          "name": "A#3",
          "ticks": 69840,
          "time": 335.76918600000005,
          "velocity": 0.5039370078740157
        },
        {
          "duration": 3.4615380000000187,
          "durationTicks": 720,
          "midi": 65,
          "name": "F4",
          "ticks": 69840,
          "time": 335.76918600000005,
          "velocity": 0.5039370078740157
        },
        {
          "duration": 3.4615380000000187,
          "durationTicks": 720,
          "midi": 70,
          "name": "A#4",
          "ticks": 69840,
          "time": 335.76918600000005,
          "velocity": 0.5039370078740157
        },
        {
          "duration": 3.461537999999962,
          "durationTicks": 720,
          "midi": 58,
          "name": "A#3",
          "ticks": 70560,
          "time": 339.23072400000007,
          "velocity": 0.5039370078740157
        },
        {
          "duration": 3.461537999999962,
          "durationTicks": 720,
          "midi": 67,
          "name": "G4",
          "ticks": 70560,
          "time": 339.23072400000007,
          "velocity": 0.5039370078740157
        },
        {
          "duration": 3.461537999999962,
          "durationTicks": 720,
          "midi": 70,
          "name": "A#4",
          "ticks": 70560,
          "time": 339.23072400000007,
          "velocity": 0.5039370078740157
        },
        {
          "duration": 3.4615380000000187,
          "durationTicks": 720,
          "midi": 58,
          "name": "A#3",
          "ticks": 71280,
          "time": 342.692262,
          "velocity": 0.5039370078740157
        },
        {
          "duration": 3.4615380000000187,
          "durationTicks": 720,
          "midi": 65,
          "name": "F4",
          "ticks": 71280,
          "time": 342.692262,
          "velocity": 0.5039370078740157
        },
        {
          "duration": 3.4615380000000187,
          "durationTicks": 720,
          "midi": 70,
          "name": "A#4",
          "ticks": 71280,
          "time": 342.692262,
          "velocity": 0.5039370078740157
        },
        {
          "duration": 3.4615380000000187,
          "durationTicks": 720,
          "midi": 58,
          "name": "A#3",
          "ticks": 72000,
          "time": 346.15380000000005,
          "velocity": 0.5039370078740157
        },
        {
          "duration": 3.4615380000000187,
          "durationTicks": 720,
          "midi": 67,
          "name": "G4",
          "ticks": 72000,
          "time": 346.15380000000005,
          "velocity": 0.5039370078740157
        },
        {
          "duration": 3.4615380000000187,
          "durationTicks": 720,
          "midi": 70,
          "name": "A#4",
          "ticks": 72000,
          "time": 346.15380000000005,
          "velocity": 0.5039370078740157
        },
        {
          "duration": 10.384614,
          "durationTicks": 2160,
          "midi": 58,
          "name": "A#3",
          "ticks": 72720,
          "time": 349.61533800000007,
          "velocity": 0.5039370078740157
        },
        {
          "duration": 10.384614,
          "durationTicks": 2160,
          "midi": 65,
          "name": "F4",
          "ticks": 72720,
          "time": 349.61533800000007,
          "velocity": 0.5039370078740157
        },
        {
          "duration": 10.384614,
          "durationTicks": 2160,
          "midi": 70,
          "name": "A#4",
          "ticks": 72720,
          "time": 349.61533800000007,
          "velocity": 0.5039370078740157
        },
        {
          "duration": 3.461537999999962,
          "durationTicks": 720,
          "midi": 55,
          "name": "G3",
          "ticks": 74880,
          "time": 359.99995200000006,
          "velocity": 0.5039370078740157
        },
        {
          "duration": 3.461537999999962,
          "durationTicks": 720,
          "midi": 60,
          "name": "C4",
          "ticks": 74880,
          "time": 359.99995200000006,
          "velocity": 0.5039370078740157
        },
        {
          "duration": 3.461537999999962,
          "durationTicks": 720,
          "midi": 67,
          "name": "G4",
          "ticks": 74880,
          "time": 359.99995200000006,
          "velocity": 0.5039370078740157
        },
        {
          "duration": 2.3076920000000314,
          "durationTicks": 480,
          "midi": 58,
          "name": "A#3",
          "ticks": 75600,
          "time": 363.46149,
          "velocity": 0.5039370078740157
        },
        {
          "duration": 3.4615380000000187,
          "durationTicks": 720,
          "midi": 60,
          "name": "C4",
          "ticks": 75600,
          "time": 363.46149,
          "velocity": 0.5039370078740157
        },
        {
          "duration": 3.4615380000000187,
          "durationTicks": 720,
          "midi": 65,
          "name": "F4",
          "ticks": 75600,
          "time": 363.46149,
          "velocity": 0.5039370078740157
        },
        {
          "duration": 1.1538459999999873,
          "durationTicks": 240,
          "midi": 56,
          "name": "G#3",
          "ticks": 76080,
          "time": 365.76918200000006,
          "velocity": 0.5039370078740157
        },
        {
          "duration": 3.4615380000000187,
          "durationTicks": 720,
          "midi": 58,
          "name": "A#3",
          "ticks": 76320,
          "time": 366.92302800000004,
          "velocity": 0.5039370078740157
        },
        {
          "duration": 3.4615380000000187,
          "durationTicks": 720,
          "midi": 65,
          "name": "F4",
          "ticks": 76320,
          "time": 366.92302800000004,
          "velocity": 0.5039370078740157
        },
        {
          "duration": 3.461537999999962,
          "durationTicks": 720,
          "midi": 58,
          "name": "A#3",
          "ticks": 77040,
          "time": 370.38456600000006,
          "velocity": 0.5039370078740157
        },
        {
          "duration": 3.461537999999962,
          "durationTicks": 720,
          "midi": 63,
          "name": "D#4",
          "ticks": 77040,
          "time": 370.38456600000006,
          "velocity": 0.5039370078740157
        },
        {
          "duration": 0.5769229999999652,
          "durationTicks": 120,
          "midi": 60,
          "name": "C4",
          "ticks": 81960,
          "time": 394.03840900000006,
          "velocity": 0.5039370078740157
        },
        {
          "duration": 0.5769229999999652,
          "durationTicks": 120,
          "midi": 67,
          "name": "G4",
          "ticks": 81960,
          "time": 394.03840900000006,
          "velocity": 0.5039370078740157
        },
        {
          "duration": 0.5769229999999652,
          "durationTicks": 120,
          "midi": 72,
          "name": "C5",
          "ticks": 81960,
          "time": 394.03840900000006,
          "velocity": 0.5039370078740157
        },
        {
          "duration": 3.4615380000000187,
          "durationTicks": 720,
          "midi": 61,
          "name": "C#4",
          "ticks": 82080,
          "time": 394.615332,
          "velocity": 0.6299212598425197
        },
        {
          "duration": 3.4615380000000187,
          "durationTicks": 720,
          "midi": 68,
          "name": "G#4",
          "ticks": 82080,
          "time": 394.615332,
          "velocity": 0.6299212598425197
        },
        {
          "duration": 3.4615380000000187,
          "durationTicks": 720,
          "midi": 73,
          "name": "C#5",
          "ticks": 82080,
          "time": 394.615332,
          "velocity": 0.6299212598425197
        },
        {
          "duration": 2.3076920000000314,
          "durationTicks": 480,
          "midi": 63,
          "name": "D#4",
          "ticks": 82800,
          "time": 398.07687000000004,
          "velocity": 0.6299212598425197
        },
        {
          "duration": 2.3076920000000314,
          "durationTicks": 480,
          "midi": 67,
          "name": "G4",
          "ticks": 82800,
          "time": 398.07687000000004,
          "velocity": 0.6299212598425197
        },
        {
          "duration": 2.3076920000000314,
          "durationTicks": 480,
          "midi": 72,
          "name": "C5",
          "ticks": 82800,
          "time": 398.07687000000004,
          "velocity": 0.6299212598425197
        },
        {
          "duration": 2.3076919999999745,
          "durationTicks": 480,
          "midi": 73,
          "name": "C#5",
          "ticks": 84240,
          "time": 404.9999460000001,
          "velocity": 0.6299212598425197
        },
        {
          "duration": 2.3076919999999745,
          "durationTicks": 480,
          "midi": 76,
          "name": "E5",
          "ticks": 84240,
          "time": 404.9999460000001,
          "velocity": 0.6299212598425197
        },
        {
          "duration": 2.3076919999999745,
          "durationTicks": 480,
          "midi": 79,
          "name": "G5",
          "ticks": 84240,
          "time": 404.9999460000001,
          "velocity": 0.6299212598425197
        },
        {
          "duration": 2.3076919999999745,
          "durationTicks": 480,
          "midi": 82,
          "name": "A#5",
          "ticks": 84240,
          "time": 404.9999460000001,
          "velocity": 0.8661417322834646
        },
        {
          "duration": 0.14423075000001973,
          "durationTicks": 30,
          "midi": 82,
          "name": "A#5",
          "ticks": 84720,
          "time": 407.30763800000005,
          "velocity": 0.8661417322834646
        },
        {
          "duration": 0.14423074999996288,
          "durationTicks": 30,
          "midi": 84,
          "name": "C6",
          "ticks": 84750,
          "time": 407.4518687500001,
          "velocity": 0.8661417322834646
        },
        {
          "duration": 0.5769230000000221,
          "durationTicks": 120,
          "midi": 85,
          "name": "C#6",
          "ticks": 84780,
          "time": 407.59609950000004,
          "velocity": 0.8661417322834646
        },
        {
          "duration": 0.14423075000001973,
          "durationTicks": 30,
          "midi": 84,
          "name": "C6",
          "ticks": 84900,
          "time": 408.17302250000006,
          "velocity": 0.8661417322834646
        },
        {
          "duration": 0.14423074999996288,
          "durationTicks": 30,
          "midi": 82,
          "name": "A#5",
          "ticks": 84930,
          "time": 408.3172532500001,
          "velocity": 0.8661417322834646
        },
        {
          "duration": 2.3076920000000314,
          "durationTicks": 480,
          "midi": 72,
          "name": "C5",
          "ticks": 84960,
          "time": 408.46148400000004,
          "velocity": 0.6299212598425197
        },
        {
          "duration": 2.3076920000000314,
          "durationTicks": 480,
          "midi": 77,
          "name": "F5",
          "ticks": 84960,
          "time": 408.46148400000004,
          "velocity": 0.6299212598425197
        },
        {
          "duration": 2.3076920000000314,
          "durationTicks": 480,
          "midi": 80,
          "name": "G#5",
          "ticks": 84960,
          "time": 408.46148400000004,
          "velocity": 0.6299212598425197
        },
        {
          "duration": 1.1538459999999873,
          "durationTicks": 240,
          "midi": 60,
          "name": "C4",
          "ticks": 85440,
          "time": 410.7691760000001,
          "velocity": 0.6299212598425197
        },
        {
          "duration": 1.1538459999999873,
          "durationTicks": 240,
          "midi": 65,
          "name": "F4",
          "ticks": 85440,
          "time": 410.7691760000001,
          "velocity": 0.6299212598425197
        },
        {
          "duration": 1.1538459999999873,
          "durationTicks": 240,
          "midi": 68,
          "name": "G#4",
          "ticks": 85440,
          "time": 410.7691760000001,
          "velocity": 0.6299212598425197
        },
        {
          "duration": 2.3076919999999745,
          "durationTicks": 480,
          "midi": 60,
          "name": "C4",
          "ticks": 85680,
          "time": 411.92302200000006,
          "velocity": 0.6299212598425197
        },
        {
          "duration": 2.3076919999999745,
          "durationTicks": 480,
          "midi": 63,
          "name": "D#4",
          "ticks": 85680,
          "time": 411.92302200000006,
          "velocity": 0.6299212598425197
        },
        {
          "duration": 2.3076919999999745,
          "durationTicks": 480,
          "midi": 67,
          "name": "G4",
          "ticks": 85680,
          "time": 411.92302200000006,
          "velocity": 0.6299212598425197
        },
        {
          "duration": 1.1538460000000441,
          "durationTicks": 240,
          "midi": 72,
          "name": "C5",
          "ticks": 86160,
          "time": 414.23071400000003,
          "velocity": 0.6299212598425197
        },
        {
          "duration": 1.1538460000000441,
          "durationTicks": 240,
          "midi": 75,
          "name": "D#5",
          "ticks": 86160,
          "time": 414.23071400000003,
          "velocity": 0.6299212598425197
        },
        {
          "duration": 1.1538460000000441,
          "durationTicks": 240,
          "midi": 79,
          "name": "G5",
          "ticks": 86160,
          "time": 414.23071400000003,
          "velocity": 0.6299212598425197
        },
        {
          "duration": 2.3076919999999745,
          "durationTicks": 480,
          "midi": 68,
          "name": "G#4",
          "ticks": 86400,
          "time": 415.3845600000001,
          "velocity": 0.8661417322834646
        },
        {
          "duration": 2.3076919999999745,
          "durationTicks": 480,
          "midi": 73,
          "name": "C#5",
          "ticks": 86400,
          "time": 415.3845600000001,
          "velocity": 0.8661417322834646
        },
        {
          "duration": 2.3076919999999745,
          "durationTicks": 480,
          "midi": 77,
          "name": "F5",
          "ticks": 86400,
          "time": 415.3845600000001,
          "velocity": 0.8661417322834646
        },
        {
          "duration": 0.14423075000001973,
          "durationTicks": 30,
          "midi": 61,
          "name": "C#4",
          "ticks": 86880,
          "time": 417.69225200000005,
          "velocity": 0.8661417322834646
        },
        {
          "duration": 0.14423075000001973,
          "durationTicks": 30,
          "midi": 77,
          "name": "F5",
          "ticks": 86880,
          "time": 417.69225200000005,
          "velocity": 0.8661417322834646
        },
        {
          "duration": 0.14423074999996288,
          "durationTicks": 30,
          "midi": 63,
          "name": "D#4",
          "ticks": 86910,
          "time": 417.8364827500001,
          "velocity": 0.8661417322834646
        },
        {
          "duration": 0.14423074999996288,
          "durationTicks": 30,
          "midi": 79,
          "name": "G5",
          "ticks": 86910,
          "time": 417.8364827500001,
          "velocity": 0.8661417322834646
        },
        {
          "duration": 0.5769230000000221,
          "durationTicks": 120,
          "midi": 65,
          "name": "F4",
          "ticks": 86940,
          "time": 417.98071350000004,
          "velocity": 0.8661417322834646
        },
        {
          "duration": 0.5769230000000221,
          "durationTicks": 120,
          "midi": 80,
          "name": "G#5",
          "ticks": 86940,
          "time": 417.98071350000004,
          "velocity": 0.8661417322834646
        },
        {
          "duration": 0.14423075000001973,
          "durationTicks": 30,
          "midi": 63,
          "name": "D#4",
          "ticks": 87060,
          "time": 418.55763650000006,
          "velocity": 0.8661417322834646
        },
        {
          "duration": 0.14423075000001973,
          "durationTicks": 30,
          "midi": 79,
          "name": "G5",
          "ticks": 87060,
          "time": 418.55763650000006,
          "velocity": 0.8661417322834646
        },
        {
          "duration": 0.14423074999996288,
          "durationTicks": 30,
          "midi": 61,
          "name": "C#4",
          "ticks": 87090,
          "time": 418.7018672500001,
          "velocity": 0.8661417322834646
        },
        {
          "duration": 0.14423074999996288,
          "durationTicks": 30,
          "midi": 77,
          "name": "F5",
          "ticks": 87090,
          "time": 418.7018672500001,
          "velocity": 0.8661417322834646
        },
        {
          "duration": 2.3076920000000314,
          "durationTicks": 480,
          "midi": 60,
          "name": "C4",
          "ticks": 87120,
          "time": 418.84609800000004,
          "velocity": 0.8661417322834646
        },
        {
          "duration": 2.3076920000000314,
          "durationTicks": 480,
          "midi": 63,
          "name": "D#4",
          "ticks": 87120,
          "time": 418.84609800000004,
          "velocity": 0.8661417322834646
        },
        {
          "duration": 2.3076920000000314,
          "durationTicks": 480,
          "midi": 67,
          "name": "G4",
          "ticks": 87120,
          "time": 418.84609800000004,
          "velocity": 0.8661417322834646
        },
        {
          "duration": 2.3076920000000314,
          "durationTicks": 480,
          "midi": 75,
          "name": "D#5",
          "ticks": 87120,
          "time": 418.84609800000004,
          "velocity": 0.8661417322834646
        },
        {
          "duration": 0.14423074999996288,
          "durationTicks": 30,
          "midi": 60,
          "name": "C4",
          "ticks": 87600,
          "time": 421.1537900000001,
          "velocity": 0.8661417322834646
        },
        {
          "duration": 0.14423074999996288,
          "durationTicks": 30,
          "midi": 75,
          "name": "D#5",
          "ticks": 87600,
          "time": 421.1537900000001,
          "velocity": 0.8661417322834646
        },
        {
          "duration": 0.14423075000001973,
          "durationTicks": 30,
          "midi": 62,
          "name": "D4",
          "ticks": 87630,
          "time": 421.29802075000003,
          "velocity": 0.8661417322834646
        },
        {
          "duration": 0.14423075000001973,
          "durationTicks": 30,
          "midi": 77,
          "name": "F5",
          "ticks": 87630,
          "time": 421.29802075000003,
          "velocity": 0.8661417322834646
        },
        {
          "duration": 0.5769230000000221,
          "durationTicks": 120,
          "midi": 63,
          "name": "D#4",
          "ticks": 87660,
          "time": 421.44225150000005,
          "velocity": 0.8661417322834646
        },
        {
          "duration": 0.5769230000000221,
          "durationTicks": 120,
          "midi": 79,
          "name": "G5",
          "ticks": 87660,
          "time": 421.44225150000005,
          "velocity": 0.8661417322834646
        },
        {
          "duration": 0.14423074999996288,
          "durationTicks": 30,
          "midi": 62,
          "name": "D4",
          "ticks": 87780,
          "time": 422.0191745000001,
          "velocity": 0.8661417322834646
        },
        {
          "duration": 0.14423074999996288,
          "durationTicks": 30,
          "midi": 77,
          "name": "F5",
          "ticks": 87780,
          "time": 422.0191745000001,
          "velocity": 0.8661417322834646
        },
        {
          "duration": 0.14423075000001973,
          "durationTicks": 30,
          "midi": 60,
          "name": "C4",
          "ticks": 87810,
          "time": 422.16340525000004,
          "velocity": 0.8661417322834646
        },
        {
          "duration": 0.14423075000001973,
          "durationTicks": 30,
          "midi": 75,
          "name": "D#5",
          "ticks": 87810,
          "time": 422.16340525000004,
          "velocity": 0.8661417322834646
        },
        {
          "duration": 2.3076919999999745,
          "durationTicks": 480,
          "midi": 62,
          "name": "D4",
          "ticks": 87840,
          "time": 422.30763600000006,
          "velocity": 0.8661417322834646
        },
        {
          "duration": 2.3076919999999745,
          "durationTicks": 480,
          "midi": 71,
          "name": "B4",
          "ticks": 87840,
          "time": 422.30763600000006,
          "velocity": 0.8661417322834646
        },
        {
          "duration": 2.3076919999999745,
          "durationTicks": 480,
          "midi": 74,
          "name": "D5",
          "ticks": 87840,
          "time": 422.30763600000006,
          "velocity": 0.8661417322834646
        },
        {
          "duration": 0.14423075000001973,
          "durationTicks": 30,
          "midi": 74,
          "name": "D5",
          "ticks": 88320,
          "time": 424.61532800000003,
          "velocity": 0.8661417322834646
        },
        {
          "duration": 0.14423075000001973,
          "durationTicks": 30,
          "midi": 75,
          "name": "D#5",
          "ticks": 88350,
          "time": 424.75955875000005,
          "velocity": 0.8661417322834646
        },
        {
          "duration": 0.5769229999999652,
          "durationTicks": 120,
          "midi": 77,
          "name": "F5",
          "ticks": 88380,
          "time": 424.9037895000001,
          "velocity": 0.8661417322834646
        },
        {
          "duration": 0.14423075000001973,
          "durationTicks": 30,
          "midi": 75,
          "name": "D#5",
          "ticks": 88500,
          "time": 425.48071250000004,
          "velocity": 0.8661417322834646
        },
        {
          "duration": 0.14423075000001973,
          "durationTicks": 30,
          "midi": 74,
          "name": "D5",
          "ticks": 88530,
          "time": 425.62494325000006,
          "velocity": 0.8661417322834646
        },
        {
          "duration": 3.461537999999962,
          "durationTicks": 720,
          "midi": 60,
          "name": "C4",
          "ticks": 88560,
          "time": 425.7691740000001,
          "velocity": 0.5039370078740157
        },
        {
          "duration": 3.461537999999962,
          "durationTicks": 720,
          "midi": 63,
          "name": "D#4",
          "ticks": 88560,
          "time": 425.7691740000001,
          "velocity": 0.5039370078740157
        },
        {
          "duration": 3.461537999999962,
          "durationTicks": 720,
          "midi": 68,
          "name": "G#4",
          "ticks": 88560,
          "time": 425.7691740000001,
          "velocity": 0.5039370078740157
        },
        {
          "duration": 3.461537999999962,
          "durationTicks": 720,
          "midi": 72,
          "name": "C5",
          "ticks": 88560,
          "time": 425.7691740000001,
          "velocity": 0.5039370078740157
        },
        {
          "duration": 0.14423075000001973,
          "durationTicks": 30,
          "midi": 60,
          "name": "C4",
          "ticks": 89280,
          "time": 429.23071200000004,
          "velocity": 0.5039370078740157
        },
        {
          "duration": 0.14423075000001973,
          "durationTicks": 30,
          "midi": 62,
          "name": "D4",
          "ticks": 89310,
          "time": 429.37494275000006,
          "velocity": 0.5039370078740157
        },
        {
          "duration": 3.173076499999979,
          "durationTicks": 660,
          "midi": 63,
          "name": "D#4",
          "ticks": 89340,
          "time": 429.5191735000001,
          "velocity": 0.5039370078740157
        },
        {
          "duration": 0.14423075000001973,
          "durationTicks": 30,
          "midi": 72,
          "name": "C5",
          "ticks": 90000,
          "time": 432.69225000000006,
          "velocity": 0.6299212598425197
        },
        {
          "duration": 0.14423074999996288,
          "durationTicks": 30,
          "midi": 74,
          "name": "D5",
          "ticks": 90030,
          "time": 432.8364807500001,
          "velocity": 0.6299212598425197
        },
        {
          "duration": 2.019230499999992,
          "durationTicks": 420,
          "midi": 75,
          "name": "D#5",
          "ticks": 90060,
          "time": 432.98071150000004,
          "velocity": 0.6299212598425197
        },
        {
          "duration": 0.28846150000003945,
          "durationTicks": 60,
          "midi": 63,
          "name": "D#4",
          "ticks": 90660,
          "time": 435.86532650000004,
          "velocity": 0.6299212598425197
        },
        {
          "duration": 0.28846150000003945,
          "durationTicks": 60,
          "midi": 69,
          "name": "A4",
          "ticks": 90660,
          "time": 435.86532650000004,
          "velocity": 0.6299212598425197
        },
        {
          "duration": 0.28846150000003945,
          "durationTicks": 60,
          "midi": 72,
          "name": "C5",
          "ticks": 90660,
          "time": 435.86532650000004,
          "velocity": 0.6299212598425197
        },
        {
          "duration": 0.28846150000003945,
          "durationTicks": 60,
          "midi": 75,
          "name": "D#5",
          "ticks": 90660,
          "time": 435.86532650000004,
          "velocity": 0.6299212598425197
        },
        {
          "duration": 3.461537999999962,
          "durationTicks": 720,
          "midi": 62,
          "name": "D4",
          "ticks": 90720,
          "time": 436.1537880000001,
          "velocity": 0.8661417322834646
        },
        {
          "duration": 3.461537999999962,
          "durationTicks": 720,
          "midi": 74,
          "name": "D5",
          "ticks": 90720,
          "time": 436.1537880000001,
          "velocity": 0.8661417322834646
        },
        {
          "duration": 3.461537999999962,
          "durationTicks": 720,
          "midi": 67,
          "name": "G4",
          "ticks": 90720,
          "time": 436.1537880000001,
          "velocity": 0.8661417322834646
        },
        {
          "duration": 1.1538459999999873,
          "durationTicks": 240,
          "midi": 72,
          "name": "C5",
          "ticks": 90720,
          "time": 436.1537880000001,
          "velocity": 0.8661417322834646
        },
        {
          "duration": 2.3076919999999745,
          "durationTicks": 480,
          "midi": 71,
          "name": "B4",
          "ticks": 90960,
          "time": 437.30763400000006,
          "velocity": 0.8661417322834646
        },
        {
          "duration": 2.3076920000000314,
          "durationTicks": 480,
          "midi": 65,
          "name": "F4",
          "ticks": 91440,
          "time": 439.61532600000004,
          "velocity": 0.8661417322834646
        },
        {
          "duration": 2.3076920000000314,
          "durationTicks": 480,
          "midi": 77,
          "name": "F5",
          "ticks": 91440,
          "time": 439.61532600000004,
          "velocity": 0.8661417322834646
        },
        {
          "duration": 2.3076920000000314,
          "durationTicks": 480,
          "midi": 74,
          "name": "D5",
          "ticks": 91440,
          "time": 439.61532600000004,
          "velocity": 0.8661417322834646
        },
        {
          "duration": 2.3076920000000314,
          "durationTicks": 480,
          "midi": 68,
          "name": "G#4",
          "ticks": 91440,
          "time": 439.61532600000004,
          "velocity": 0.8661417322834646
        },
        {
          "duration": 0.2884614999999826,
          "durationTicks": 60,
          "midi": 65,
          "name": "F4",
          "ticks": 92100,
          "time": 442.7884025000001,
          "velocity": 0.8661417322834646
        },
        {
          "duration": 0.2884614999999826,
          "durationTicks": 60,
          "midi": 77,
          "name": "F5",
          "ticks": 92100,
          "time": 442.7884025000001,
          "velocity": 0.8661417322834646
        },
        {
          "duration": 0.2884614999999826,
          "durationTicks": 60,
          "midi": 74,
          "name": "D5",
          "ticks": 92100,
          "time": 442.7884025000001,
          "velocity": 0.8661417322834646
        },
        {
          "duration": 0.2884614999999826,
          "durationTicks": 60,
          "midi": 68,
          "name": "G#4",
          "ticks": 92100,
          "time": 442.7884025000001,
          "velocity": 0.8661417322834646
        },
        {
          "duration": 3.4615380000000187,
          "durationTicks": 720,
          "midi": 63,
          "name": "D#4",
          "ticks": 92160,
          "time": 443.07686400000006,
          "velocity": 0.8661417322834646
        },
        {
          "duration": 3.4615380000000187,
          "durationTicks": 720,
          "midi": 75,
          "name": "D#5",
          "ticks": 92160,
          "time": 443.07686400000006,
          "velocity": 0.8661417322834646
        },
        {
          "duration": 3.4615380000000187,
          "durationTicks": 720,
          "midi": 67,
          "name": "G4",
          "ticks": 92160,
          "time": 443.07686400000006,
          "velocity": 0.8661417322834646
        },
        {
          "duration": 1.1538459999999873,
          "durationTicks": 240,
          "midi": 74,
          "name": "D5",
          "ticks": 92160,
          "time": 443.07686400000006,
          "velocity": 0.8661417322834646
        },
        {
          "duration": 2.3076920000000314,
          "durationTicks": 480,
          "midi": 72,
          "name": "C5",
          "ticks": 92400,
          "time": 444.23071000000004,
          "velocity": 0.8661417322834646
        },
        {
          "duration": 2.3076919999999745,
          "durationTicks": 480,
          "midi": 67,
          "name": "G4",
          "ticks": 92880,
          "time": 446.5384020000001,
          "velocity": 0.8661417322834646
        },
        {
          "duration": 2.3076919999999745,
          "durationTicks": 480,
          "midi": 79,
          "name": "G5",
          "ticks": 92880,
          "time": 446.5384020000001,
          "velocity": 0.8661417322834646
        },
        {
          "duration": 2.3076919999999745,
          "durationTicks": 480,
          "midi": 70,
          "name": "A#4",
          "ticks": 92880,
          "time": 446.5384020000001,
          "velocity": 0.8661417322834646
        },
        {
          "duration": 2.3076919999999745,
          "durationTicks": 480,
          "midi": 76,
          "name": "E5",
          "ticks": 92880,
          "time": 446.5384020000001,
          "velocity": 0.8661417322834646
        },
        {
          "duration": 0.2884614999999826,
          "durationTicks": 60,
          "midi": 67,
          "name": "G4",
          "ticks": 93540,
          "time": 449.71147850000006,
          "velocity": 0.8661417322834646
        },
        {
          "duration": 0.2884614999999826,
          "durationTicks": 60,
          "midi": 79,
          "name": "G5",
          "ticks": 93540,
          "time": 449.71147850000006,
          "velocity": 0.8661417322834646
        },
        {
          "duration": 0.2884614999999826,
          "durationTicks": 60,
          "midi": 76,
          "name": "E5",
          "ticks": 93540,
          "time": 449.71147850000006,
          "velocity": 0.8661417322834646
        },
        {
          "duration": 0.2884614999999826,
          "durationTicks": 60,
          "midi": 70,
          "name": "A#4",
          "ticks": 93540,
          "time": 449.71147850000006,
          "velocity": 0.8661417322834646
        },
        {
          "duration": 1.1538460000000441,
          "durationTicks": 240,
          "midi": 67,
          "name": "G4",
          "ticks": 93600,
          "time": 449.99994000000004,
          "velocity": 0.7795275590551181
        },
        {
          "duration": 1.1538460000000441,
          "durationTicks": 240,
          "midi": 79,
          "name": "G5",
          "ticks": 93600,
          "time": 449.99994000000004,
          "velocity": 0.7795275590551181
        },
        {
          "duration": 1.1538460000000441,
          "durationTicks": 240,
          "midi": 76,
          "name": "E5",
          "ticks": 93600,
          "time": 449.99994000000004,
          "velocity": 0.7795275590551181
        },
        {
          "duration": 3.4615380000000187,
          "durationTicks": 720,
          "midi": 69,
          "name": "A4",
          "ticks": 93600,
          "time": 449.99994000000004,
          "velocity": 0.7795275590551181
        },
        {
          "duration": 2.3076919999999745,
          "durationTicks": 480,
          "midi": 65,
          "name": "F4",
          "ticks": 93840,
          "time": 451.1537860000001,
          "velocity": 0.7795275590551181
        },
        {
          "duration": 2.3076919999999745,
          "durationTicks": 480,
          "midi": 77,
          "name": "F5",
          "ticks": 93840,
          "time": 451.1537860000001,
          "velocity": 0.7795275590551181
        },
        {
          "duration": 2.3076919999999745,
          "durationTicks": 480,
          "midi": 74,
          "name": "D5",
          "ticks": 93840,
          "time": 451.1537860000001,
          "velocity": 0.7795275590551181
        },
        {
          "duration": 2.3076919999999745,
          "durationTicks": 480,
          "midi": 75,
          "name": "D#5",
          "ticks": 94320,
          "time": 453.46147800000006,
          "velocity": 0.7795275590551181
        },
        {
          "duration": 2.3076919999999745,
          "durationTicks": 480,
          "midi": 70,
          "name": "A#4",
          "ticks": 94320,
          "time": 453.46147800000006,
          "velocity": 0.7795275590551181
        },
        {
          "duration": 2.3076919999999745,
          "durationTicks": 480,
          "midi": 63,
          "name": "D#4",
          "ticks": 94320,
          "time": 453.46147800000006,
          "velocity": 0.7795275590551181
        },
        {
          "duration": 0.28846150000003945,
          "durationTicks": 60,
          "midi": 75,
          "name": "D#5",
          "ticks": 94980,
          "time": 456.63455450000004,
          "velocity": 0.7795275590551181
        },
        {
          "duration": 0.28846150000003945,
          "durationTicks": 60,
          "midi": 70,
          "name": "A#4",
          "ticks": 94980,
          "time": 456.63455450000004,
          "velocity": 0.7795275590551181
        },
        {
          "duration": 0.28846150000003945,
          "durationTicks": 60,
          "midi": 63,
          "name": "D#4",
          "ticks": 94980,
          "time": 456.63455450000004,
          "velocity": 0.7795275590551181
        },
        {
          "duration": 1.1538459999999873,
          "durationTicks": 240,
          "midi": 75,
          "name": "D#5",
          "ticks": 95040,
          "time": 456.9230160000001,
          "velocity": 0.7795275590551181
        },
        {
          "duration": 2.3076919999999745,
          "durationTicks": 480,
          "midi": 70,
          "name": "A#4",
          "ticks": 95040,
          "time": 456.9230160000001,
          "velocity": 0.7795275590551181
        },
        {
          "duration": 1.1538459999999873,
          "durationTicks": 240,
          "midi": 63,
          "name": "D#4",
          "ticks": 95040,
          "time": 456.9230160000001,
          "velocity": 0.7795275590551181
        },
        {
          "duration": 2.3076919999999745,
          "durationTicks": 480,
          "midi": 73,
          "name": "C#5",
          "ticks": 95280,
          "time": 458.07686200000006,
          "velocity": 0.7795275590551181
        },
        {
          "duration": 2.3076919999999745,
          "durationTicks": 480,
          "midi": 64,
          "name": "E4",
          "ticks": 95280,
          "time": 458.07686200000006,
          "velocity": 0.7795275590551181
        },
        {
          "duration": 0.5769230000000221,
          "durationTicks": 120,
          "midi": 69,
          "name": "A4",
          "ticks": 95520,
          "time": 459.23070800000005,
          "velocity": 0.7795275590551181
        },
        {
          "duration": 0.5769229999999652,
          "durationTicks": 120,
          "midi": 67,
          "name": "G4",
          "ticks": 95640,
          "time": 459.8076310000001,
          "velocity": 0.7795275590551181
        },
        {
          "duration": 3.4615380000000187,
          "durationTicks": 720,
          "midi": 74,
          "name": "D5",
          "ticks": 95760,
          "time": 460.38455400000004,
          "velocity": 0.7795275590551181
        },
        {
          "duration": 3.4615380000000187,
          "durationTicks": 720,
          "midi": 65,
          "name": "F4",
          "ticks": 95760,
          "time": 460.38455400000004,
          "velocity": 0.7795275590551181
        },
        {
          "duration": 3.4615380000000187,
          "durationTicks": 720,
          "midi": 62,
          "name": "D4",
          "ticks": 95760,
          "time": 460.38455400000004,
          "velocity": 0.7795275590551181
        },
        {
          "duration": 2.3076920000000314,
          "durationTicks": 480,
          "midi": 75,
          "name": "D#5",
          "ticks": 96480,
          "time": 463.84609200000006,
          "velocity": 0.7795275590551181
        },
        {
          "duration": 2.3076920000000314,
          "durationTicks": 480,
          "midi": 69,
          "name": "A4",
          "ticks": 96480,
          "time": 463.84609200000006,
          "velocity": 0.7795275590551181
        },
        {
          "duration": 2.3076920000000314,
          "durationTicks": 480,
          "midi": 81,
          "name": "A5",
          "ticks": 96480,
          "time": 463.84609200000006,
          "velocity": 0.7795275590551181
        },
        {
          "duration": 2.3076920000000314,
          "durationTicks": 480,
          "midi": 72,
          "name": "C5",
          "ticks": 96480,
          "time": 463.84609200000006,
          "velocity": 0.7795275590551181
        },
        {
          "duration": 0.28846150000003945,
          "durationTicks": 60,
          "midi": 69,
          "name": "A4",
          "ticks": 97140,
          "time": 467.01916850000003,
          "velocity": 0.7795275590551181
        },
        {
          "duration": 0.28846150000003945,
          "durationTicks": 60,
          "midi": 75,
          "name": "D#5",
          "ticks": 97140,
          "time": 467.01916850000003,
          "velocity": 0.7795275590551181
        },
        {
          "duration": 0.28846150000003945,
          "durationTicks": 60,
          "midi": 81,
          "name": "A5",
          "ticks": 97140,
          "time": 467.01916850000003,
          "velocity": 0.7795275590551181
        },
        {
          "duration": 0.28846150000003945,
          "durationTicks": 60,
          "midi": 72,
          "name": "C5",
          "ticks": 97140,
          "time": 467.01916850000003,
          "velocity": 0.7795275590551181
        },
        {
          "duration": 1.1538459999999873,
          "durationTicks": 240,
          "midi": 69,
          "name": "A4",
          "ticks": 97200,
          "time": 467.3076300000001,
          "velocity": 0.8661417322834646
        },
        {
          "duration": 3.461537999999962,
          "durationTicks": 720,
          "midi": 74,
          "name": "D5",
          "ticks": 97200,
          "time": 467.3076300000001,
          "velocity": 0.8661417322834646
        },
        {
          "duration": 1.1538459999999873,
          "durationTicks": 240,
          "midi": 81,
          "name": "A5",
          "ticks": 97200,
          "time": 467.3076300000001,
          "velocity": 0.8661417322834646
        },
        {
          "duration": 3.461537999999962,
          "durationTicks": 720,
          "midi": 70,
          "name": "A#4",
          "ticks": 97200,
          "time": 467.3076300000001,
          "velocity": 0.8661417322834646
        },
        {
          "duration": 2.3076919999999745,
          "durationTicks": 480,
          "midi": 67,
          "name": "G4",
          "ticks": 97440,
          "time": 468.46147600000006,
          "velocity": 0.8661417322834646
        },
        {
          "duration": 2.3076919999999745,
          "durationTicks": 480,
          "midi": 79,
          "name": "G5",
          "ticks": 97440,
          "time": 468.46147600000006,
          "velocity": 0.8661417322834646
        },
        {
          "duration": 2.3076920000000314,
          "durationTicks": 480,
          "midi": 65,
          "name": "F4",
          "ticks": 97920,
          "time": 470.76916800000004,
          "velocity": 0.8661417322834646
        },
        {
          "duration": 2.3076920000000314,
          "durationTicks": 480,
          "midi": 77,
          "name": "F5",
          "ticks": 97920,
          "time": 470.76916800000004,
          "velocity": 0.8661417322834646
        },
        {
          "duration": 2.3076920000000314,
          "durationTicks": 480,
          "midi": 68,
          "name": "G#4",
          "ticks": 97920,
          "time": 470.76916800000004,
          "velocity": 0.8661417322834646
        },
        {
          "duration": 2.3076920000000314,
          "durationTicks": 480,
          "midi": 74,
          "name": "D5",
          "ticks": 97920,
          "time": 470.76916800000004,
          "velocity": 0.8661417322834646
        },
        {
          "duration": 0.2884614999999826,
          "durationTicks": 60,
          "midi": 65,
          "name": "F4",
          "ticks": 98580,
          "time": 473.9422445000001,
          "velocity": 0.8661417322834646
        },
        {
          "duration": 0.2884614999999826,
          "durationTicks": 60,
          "midi": 74,
          "name": "D5",
          "ticks": 98580,
          "time": 473.9422445000001,
          "velocity": 0.8661417322834646
        },
        {
          "duration": 0.2884614999999826,
          "durationTicks": 60,
          "midi": 77,
          "name": "F5",
          "ticks": 98580,
          "time": 473.9422445000001,
          "velocity": 0.8661417322834646
        },
        {
          "duration": 0.2884614999999826,
          "durationTicks": 60,
          "midi": 68,
          "name": "G#4",
          "ticks": 98580,
          "time": 473.9422445000001,
          "velocity": 0.8661417322834646
        },
        {
          "duration": 1.1538459999999873,
          "durationTicks": 240,
          "midi": 74,
          "name": "D5",
          "ticks": 98640,
          "time": 474.23070600000005,
          "velocity": 0.8661417322834646
        },
        {
          "duration": 1.1538459999999873,
          "durationTicks": 240,
          "midi": 77,
          "name": "F5",
          "ticks": 98640,
          "time": 474.23070600000005,
          "velocity": 0.8661417322834646
        },
        {
          "duration": 3.4615380000000187,
          "durationTicks": 720,
          "midi": 67,
          "name": "G4",
          "ticks": 98640,
          "time": 474.23070600000005,
          "velocity": 0.8661417322834646
        },
        {
          "duration": 1.1538459999999873,
          "durationTicks": 240,
          "midi": 62,
          "name": "D4",
          "ticks": 98640,
          "time": 474.23070600000005,
          "velocity": 0.8661417322834646
        },
        {
          "duration": 2.3076920000000314,
          "durationTicks": 480,
          "midi": 72,
          "name": "C5",
          "ticks": 98880,
          "time": 475.38455200000004,
          "velocity": 0.8661417322834646
        },
        {
          "duration": 2.3076920000000314,
          "durationTicks": 480,
          "midi": 75,
          "name": "D#5",
          "ticks": 98880,
          "time": 475.38455200000004,
          "velocity": 0.8661417322834646
        },
        {
          "duration": 2.3076920000000314,
          "durationTicks": 480,
          "midi": 60,
          "name": "C4",
          "ticks": 98880,
          "time": 475.38455200000004,
          "velocity": 0.8661417322834646
        },
        {
          "duration": 2.3076919999999745,
          "durationTicks": 480,
          "midi": 58,
          "name": "A#3",
          "ticks": 99360,
          "time": 477.6922440000001,
          "velocity": 0.6299212598425197
        },
        {
          "duration": 2.3076919999999745,
          "durationTicks": 480,
          "midi": 64,
          "name": "E4",
          "ticks": 99360,
          "time": 477.6922440000001,
          "velocity": 0.6299212598425197
        },
        {
          "duration": 2.3076919999999745,
          "durationTicks": 480,
          "midi": 67,
          "name": "G4",
          "ticks": 99360,
          "time": 477.6922440000001,
          "velocity": 0.6299212598425197
        },
        {
          "duration": 2.3076919999999745,
          "durationTicks": 480,
          "midi": 70,
          "name": "A#4",
          "ticks": 99360,
          "time": 477.6922440000001,
          "velocity": 0.6299212598425197
        },
        {
          "duration": 0.2884614999999826,
          "durationTicks": 60,
          "midi": 58,
          "name": "A#3",
          "ticks": 100020,
          "time": 480.86532050000005,
          "velocity": 0.5039370078740157
        },
        {
          "duration": 0.2884614999999826,
          "durationTicks": 60,
          "midi": 64,
          "name": "E4",
          "ticks": 100020,
          "time": 480.86532050000005,
          "velocity": 0.5039370078740157
        },
        {
          "duration": 0.2884614999999826,
          "durationTicks": 60,
          "midi": 67,
          "name": "G4",
          "ticks": 100020,
          "time": 480.86532050000005,
          "velocity": 0.5039370078740157
        },
        {
          "duration": 0.2884614999999826,
          "durationTicks": 60,
          "midi": 70,
          "name": "A#4",
          "ticks": 100020,
          "time": 480.86532050000005,
          "velocity": 0.5039370078740157
        },
        {
          "duration": 3.4615380000000187,
          "durationTicks": 720,
          "midi": 62,
          "name": "D4",
          "ticks": 100080,
          "time": 481.15378200000004,
          "velocity": 0.5039370078740157
        },
        {
          "duration": 3.4615380000000187,
          "durationTicks": 720,
          "midi": 67,
          "name": "G4",
          "ticks": 100080,
          "time": 481.15378200000004,
          "velocity": 0.5039370078740157
        },
        {
          "duration": 3.4615380000000187,
          "durationTicks": 720,
          "midi": 70,
          "name": "A#4",
          "ticks": 100080,
          "time": 481.15378200000004,
          "velocity": 0.5039370078740157
        },
        {
          "duration": 3.4615380000000187,
          "durationTicks": 720,
          "midi": 63,
          "name": "D#4",
          "ticks": 100800,
          "time": 484.61532000000005,
          "velocity": 0.5039370078740157
        },
        {
          "duration": 3.4615380000000187,
          "durationTicks": 720,
          "midi": 67,
          "name": "G4",
          "ticks": 100800,
          "time": 484.61532000000005,
          "velocity": 0.5039370078740157
        },
        {
          "duration": 3.4615380000000187,
          "durationTicks": 720,
          "midi": 69,
          "name": "A4",
          "ticks": 100800,
          "time": 484.61532000000005,
          "velocity": 0.5039370078740157
        },
        {
          "duration": 3.4615380000000187,
          "durationTicks": 720,
          "midi": 64,
          "name": "E4",
          "ticks": 101520,
          "time": 488.0768580000001,
          "velocity": 0.5039370078740157
        },
        {
          "duration": 3.4615380000000187,
          "durationTicks": 720,
          "midi": 67,
          "name": "G4",
          "ticks": 101520,
          "time": 488.0768580000001,
          "velocity": 0.5039370078740157
        },
        {
          "duration": 2.3076919999999745,
          "durationTicks": 480,
          "midi": 62,
          "name": "D4",
          "ticks": 102240,
          "time": 491.5383960000001,
          "velocity": 0.5039370078740157
        },
        {
          "duration": 2.3076919999999745,
          "durationTicks": 480,
          "midi": 57,
          "name": "A3",
          "ticks": 102240,
          "time": 491.5383960000001,
          "velocity": 0.5039370078740157
        },
        {
          "duration": 2.3076919999999745,
          "durationTicks": 480,
          "midi": 67,
          "name": "G4",
          "ticks": 102240,
          "time": 491.5383960000001,
          "velocity": 0.5039370078740157
        },
        {
          "duration": 1.1538459999999873,
          "durationTicks": 240,
          "midi": 62,
          "name": "D4",
          "ticks": 102720,
          "time": 493.84608800000007,
          "velocity": 0.5039370078740157
        },
        {
          "duration": 1.1538459999999873,
          "durationTicks": 240,
          "midi": 60,
          "name": "C4",
          "ticks": 102720,
          "time": 493.84608800000007,
          "velocity": 0.5039370078740157
        },
        {
          "duration": 1.1538459999999873,
          "durationTicks": 240,
          "midi": 66,
          "name": "F#4",
          "ticks": 102720,
          "time": 493.84608800000007,
          "velocity": 0.5039370078740157
        },
        {
          "duration": 10.384614,
          "durationTicks": 2160,
          "midi": 58,
          "name": "A#3",
          "ticks": 102960,
          "time": 494.99993400000005,
          "velocity": 0.5039370078740157
        },
        {
          "duration": 10.384614,
          "durationTicks": 2160,
          "midi": 62,
          "name": "D4",
          "ticks": 102960,
          "time": 494.99993400000005,
          "velocity": 0.5039370078740157
        },
        {
          "duration": 10.384614,
          "durationTicks": 2160,
          "midi": 67,
          "name": "G4",
          "ticks": 102960,
          "time": 494.99993400000005,
          "velocity": 0.5039370078740157
        }
      ],
      "endOfTrackTicks": 105120
    },
    {
      "channel": 8,
      "controlChanges": {
        "7": [
          {
            "number": 7,
            "ticks": 0,
            "time": 0,
            "value": 0.7480314960629921
          }
        ],
        "10": [
          {
            "number": 10,
            "ticks": 0,
            "time": 0,
            "value": 0.23622047244094488
          }
        ]
      },
      "pitchBends": [],
      "instrument": {
        "family": "organ",
        "number": 19,
        "name": "church organ"
      },
      "name": "Organ",
      "notes": [
        {
          "duration": 3.461538,
          "durationTicks": 720,
          "midi": 41,
          "name": "F2",
          "ticks": 1440,
          "time": 6.923076000000001,
          "velocity": 0.4881889763779528
        },
        {
          "duration": 3.461538000000001,
          "durationTicks": 720,
          "midi": 39,
          "name": "D#2",
          "ticks": 2160,
          "time": 10.384614000000001,
          "velocity": 0.48031496062992124
        },
        {
          "duration": 3.461537999999999,
          "durationTicks": 720,
          "midi": 38,
          "name": "D2",
          "ticks": 2880,
          "time": 13.846152000000002,
          "velocity": 0.47244094488188976
        },
        {
          "duration": 3.461538000000001,
          "durationTicks": 720,
          "midi": 36,
          "name": "C2",
          "ticks": 3600,
          "time": 17.30769,
          "velocity": 0.4645669291338583
        },
        {
          "duration": 3.461538000000001,
          "durationTicks": 720,
          "midi": 37,
          "name": "C#2",
          "ticks": 4320,
          "time": 20.769228000000002,
          "velocity": 0.4566929133858268
        },
        {
          "duration": 3.461538000000001,
          "durationTicks": 720,
          "midi": 38,
          "name": "D2",
          "ticks": 5040,
          "time": 24.230766000000003,
          "velocity": 0.44881889763779526
        },
        {
          "duration": 3.461538000000001,
          "durationTicks": 720,
          "midi": 43,
          "name": "G2",
          "ticks": 5760,
          "time": 27.692304000000004,
          "velocity": 0.5039370078740157
        },
        {
          "duration": 3.4615379999999973,
          "durationTicks": 720,
          "midi": 43,
          "name": "G2",
          "ticks": 6480,
          "time": 31.153842000000004,
          "velocity": 0.5039370078740157
        },
        {
          "duration": 6.923076000000002,
          "durationTicks": 1440,
          "midi": 45,
          "name": "A2",
          "ticks": 7200,
          "time": 34.61538,
          "velocity": 0.5039370078740157
        },
        {
          "duration": 6.923076000000002,
          "durationTicks": 1440,
          "midi": 46,
          "name": "A#2",
          "ticks": 8640,
          "time": 41.538456000000004,
          "velocity": 0.5039370078740157
        },
        {
          "duration": 3.4615380000000044,
          "durationTicks": 720,
          "midi": 48,
          "name": "C3",
          "ticks": 10080,
          "time": 48.461532000000005,
          "velocity": 0.5039370078740157
        },
        {
          "duration": 3.4615379999999973,
          "durationTicks": 720,
          "midi": 45,
          "name": "A2",
          "ticks": 10800,
          "time": 51.92307000000001,
          "velocity": 0.5039370078740157
        },
        {
          "duration": 3.4615379999999973,
          "durationTicks": 720,
          "midi": 46,
          "name": "A#2",
          "ticks": 11520,
          "time": 55.38460800000001,
          "velocity": 0.5039370078740157
        },
        {
          "duration": 3.4615380000000044,
          "durationTicks": 720,
          "midi": 43,
          "name": "G2",
          "ticks": 12240,
          "time": 58.846146000000005,
          "velocity": 0.5039370078740157
        },
        {
          "duration": 3.4615380000000044,
          "durationTicks": 720,
          "midi": 45,
          "name": "A2",
          "ticks": 12960,
          "time": 62.30768400000001,
          "velocity": 0.5039370078740157
        },
        {
          "duration": 1.1538460000000015,
          "durationTicks": 240,
          "midi": 46,
          "name": "A#2",
          "ticks": 13680,
          "time": 65.76922200000001,
          "velocity": 0.5039370078740157
        },
        {
          "duration": 1.1538459999999873,
          "durationTicks": 240,
          "midi": 55,
          "name": "G3",
          "ticks": 13920,
          "time": 66.92306800000001,
          "velocity": 0.5039370078740157
        },
        {
          "duration": 1.1538460000000015,
          "durationTicks": 240,
          "midi": 48,
          "name": "C3",
          "ticks": 14160,
          "time": 68.076914,
          "velocity": 0.5039370078740157
        },
        {
          "duration": 10.384614000000013,
          "durationTicks": 2160,
          "midi": 50,
          "name": "D3",
          "ticks": 14400,
          "time": 69.23076,
          "velocity": 0.5039370078740157
        },
        {
          "duration": 10.384614000000013,
          "durationTicks": 2160,
          "midi": 58,
          "name": "A#3",
          "ticks": 14400,
          "time": 69.23076,
          "velocity": 0.5039370078740157
        },
        {
          "duration": 3.4615379999999902,
          "durationTicks": 720,
          "midi": 47,
          "name": "B2",
          "ticks": 16560,
          "time": 79.61537400000002,
          "velocity": 0.5039370078740157
        },
        {
          "duration": 3.4615380000000044,
          "durationTicks": 720,
          "midi": 48,
          "name": "C3",
          "ticks": 17280,
          "time": 83.07691200000001,
          "velocity": 0.5039370078740157
        },
        {
          "duration": 3.4615380000000044,
          "durationTicks": 720,
          "midi": 46,
          "name": "A#2",
          "ticks": 18000,
          "time": 86.53845000000001,
          "velocity": 0.5039370078740157
        },
        {
          "duration": 3.4615379999999902,
          "durationTicks": 720,
          "midi": 44,
          "name": "G#2",
          "ticks": 18720,
          "time": 89.99998800000002,
          "velocity": 0.5039370078740157
        },
        {
          "duration": 6.923076000000009,
          "durationTicks": 1440,
          "midi": 50,
          "name": "D3",
          "ticks": 19440,
          "time": 93.461526,
          "velocity": 0.5039370078740157
        },
        {
          "duration": 3.4615380000000044,
          "durationTicks": 720,
          "midi": 43,
          "name": "G2",
          "ticks": 20880,
          "time": 100.38460200000002,
          "velocity": 0.6299212598425197
        },
        {
          "duration": 3.4615379999999902,
          "durationTicks": 720,
          "midi": 41,
          "name": "F2",
          "ticks": 21600,
          "time": 103.84614000000002,
          "velocity": 0.6299212598425197
        },
        {
          "duration": 3.4615380000000044,
          "durationTicks": 720,
          "midi": 39,
          "name": "D#2",
          "ticks": 22320,
          "time": 107.30767800000001,
          "velocity": 0.6299212598425197
        },
        {
          "duration": 3.4615380000000044,
          "durationTicks": 720,
          "midi": 38,
          "name": "D2",
          "ticks": 23040,
          "time": 110.76921600000001,
          "velocity": 0.6299212598425197
        },
        {
          "duration": 3.4615379999999902,
          "durationTicks": 720,
          "midi": 36,
          "name": "C2",
          "ticks": 23760,
          "time": 114.23075400000002,
          "velocity": 0.6299212598425197
        },
        {
          "duration": 3.4615380000000044,
          "durationTicks": 720,
          "midi": 37,
          "name": "C#2",
          "ticks": 24480,
          "time": 117.69229200000001,
          "velocity": 0.6299212598425197
        },
        {
          "duration": 3.4615380000000044,
          "durationTicks": 720,
          "midi": 38,
          "name": "D2",
          "ticks": 25200,
          "time": 121.15383000000001,
          "velocity": 0.6299212598425197
        },
        {
          "duration": 3.4615379999999902,
          "durationTicks": 720,
          "midi": 43,
          "name": "G2",
          "ticks": 25920,
          "time": 124.61536800000002,
          "velocity": 0.5039370078740157
        },
        {
          "duration": 3.4615380000000187,
          "durationTicks": 720,
          "midi": 43,
          "name": "G2",
          "ticks": 26640,
          "time": 128.076906,
          "velocity": 0.5039370078740157
        },
        {
          "duration": 6.9230759999999805,
          "durationTicks": 1440,
          "midi": 45,
          "name": "A2",
          "ticks": 27360,
          "time": 131.53844400000003,
          "velocity": 0.5039370078740157
        },
        {
          "duration": 6.923076000000009,
          "durationTicks": 1440,
          "midi": 46,
          "name": "A#2",
          "ticks": 28800,
          "time": 138.46152,
          "velocity": 0.5039370078740157
        },
        {
          "duration": 3.4615379999999902,
          "durationTicks": 720,
          "midi": 48,
          "name": "C3",
          "ticks": 30240,
          "time": 145.38459600000002,
          "velocity": 0.5039370078740157
        },
        {
          "duration": 3.4615380000000187,
          "durationTicks": 720,
          "midi": 45,
          "name": "A2",
          "ticks": 30960,
          "time": 148.846134,
          "velocity": 0.5039370078740157
        },
        {
          "duration": 3.4615379999999902,
          "durationTicks": 720,
          "midi": 46,
          "name": "A#2",
          "ticks": 31680,
          "time": 152.30767200000003,
          "velocity": 0.5039370078740157
        },
        {
          "duration": 3.4615380000000187,
          "durationTicks": 720,
          "midi": 43,
          "name": "G2",
          "ticks": 32400,
          "time": 155.76921000000002,
          "velocity": 0.5039370078740157
        },
        {
          "duration": 3.4615379999999902,
          "durationTicks": 720,
          "midi": 45,
          "name": "A2",
          "ticks": 33120,
          "time": 159.23074800000003,
          "velocity": 0.5039370078740157
        },
        {
          "duration": 1.1538459999999873,
          "durationTicks": 240,
          "midi": 46,
          "name": "A#2",
          "ticks": 33840,
          "time": 162.69228600000002,
          "velocity": 0.5039370078740157
        },
        {
          "duration": 1.1538460000000157,
          "durationTicks": 240,
          "midi": 55,
          "name": "G3",
          "ticks": 34080,
          "time": 163.846132,
          "velocity": 0.5039370078740157
        },
        {
          "duration": 1.1538459999999873,
          "durationTicks": 240,
          "midi": 48,
          "name": "C3",
          "ticks": 34320,
          "time": 164.99997800000003,
          "velocity": 0.5039370078740157
        },
        {
          "duration": 10.384614,
          "durationTicks": 2160,
          "midi": 58,
          "name": "A#3",
          "ticks": 34560,
          "time": 166.15382400000001,
          "velocity": 0.5039370078740157
        },
        {
          "duration": 10.384614,
          "durationTicks": 2160,
          "midi": 50,
          "name": "D3",
          "ticks": 34560,
          "time": 166.15382400000001,
          "velocity": 0.5039370078740157
        },
        {
          "duration": 3.4615380000000187,
          "durationTicks": 720,
          "midi": 47,
          "name": "B2",
          "ticks": 36720,
          "time": 176.538438,
          "velocity": 0.5039370078740157
        },
        {
          "duration": 3.4615379999999902,
          "durationTicks": 720,
          "midi": 48,
          "name": "C3",
          "ticks": 37440,
          "time": 179.99997600000003,
          "velocity": 0.5039370078740157
        },
        {
          "duration": 3.4615379999999902,
          "durationTicks": 720,
          "midi": 46,
          "name": "A#2",
          "ticks": 38160,
          "time": 183.46151400000002,
          "velocity": 0.5039370078740157
        },
        {
          "duration": 3.4615380000000187,
          "durationTicks": 720,
          "midi": 44,
          "name": "G#2",
          "ticks": 38880,
          "time": 186.923052,
          "velocity": 0.5039370078740157
        },
        {
          "duration": 6.9230759999999805,
          "durationTicks": 1440,
          "midi": 50,
          "name": "D3",
          "ticks": 39600,
          "time": 190.38459000000003,
          "velocity": 0.5039370078740157
        },
        {
          "duration": 13.557690500000007,
          "durationTicks": 2820,
          "midi": 43,
          "name": "G2",
          "ticks": 41040,
          "time": 197.307666,
          "velocity": 0.2992125984251969
        },
        {
          "duration": 13.557690500000007,
          "durationTicks": 2820,
          "midi": 50,
          "name": "D3",
          "ticks": 41040,
          "time": 197.307666,
          "velocity": 0.2992125984251969
        },
        {
          "duration": 13.557690500000007,
          "durationTicks": 2820,
          "midi": 53,
          "name": "F3",
          "ticks": 41040,
          "time": 197.307666,
          "velocity": 0.2992125984251969
        },
        {
          "duration": 0.28846150000001103,
          "durationTicks": 60,
          "midi": 43,
          "name": "G2",
          "ticks": 43860,
          "time": 210.86535650000002,
          "velocity": 0.2992125984251969
        },
        {
          "duration": 0.28846150000001103,
          "durationTicks": 60,
          "midi": 50,
          "name": "D3",
          "ticks": 43860,
          "time": 210.86535650000002,
          "velocity": 0.2992125984251969
        },
        {
          "duration": 0.28846150000001103,
          "durationTicks": 60,
          "midi": 53,
          "name": "F3",
          "ticks": 43860,
          "time": 210.86535650000002,
          "velocity": 0.2992125984251969
        },
        {
          "duration": 20.480766499999987,
          "durationTicks": 4260,
          "midi": 43,
          "name": "G2",
          "ticks": 43920,
          "time": 211.15381800000003,
          "velocity": 0.4015748031496063
        },
        {
          "duration": 20.480766499999987,
          "durationTicks": 4260,
          "midi": 51,
          "name": "D#3",
          "ticks": 43920,
          "time": 211.15381800000003,
          "velocity": 0.4015748031496063
        },
        {
          "duration": 0.28846150000001103,
          "durationTicks": 60,
          "midi": 43,
          "name": "G2",
          "ticks": 48180,
          "time": 231.63458450000002,
          "velocity": 0.4015748031496063
        },
        {
          "duration": 0.28846150000001103,
          "durationTicks": 60,
          "midi": 51,
          "name": "D#3",
          "ticks": 48180,
          "time": 231.63458450000002,
          "velocity": 0.4015748031496063
        },
        {
          "duration": 10.096152500000017,
          "durationTicks": 2100,
          "midi": 43,
          "name": "G2",
          "ticks": 48240,
          "time": 231.92304600000003,
          "velocity": 0.4015748031496063
        },
        {
          "duration": 10.096152500000017,
          "durationTicks": 2100,
          "midi": 51,
          "name": "D#3",
          "ticks": 48240,
          "time": 231.92304600000003,
          "velocity": 0.4015748031496063
        },
        {
          "duration": 0.2884614999999826,
          "durationTicks": 60,
          "midi": 43,
          "name": "G2",
          "ticks": 50340,
          "time": 242.01919850000004,
          "velocity": 0.4015748031496063
        },
        {
          "duration": 0.2884614999999826,
          "durationTicks": 60,
          "midi": 51,
          "name": "D#3",
          "ticks": 50340,
          "time": 242.01919850000004,
          "velocity": 0.4015748031496063
        },
        {
          "duration": 20.480766499999987,
          "durationTicks": 4260,
          "midi": 41,
          "name": "F2",
          "ticks": 50400,
          "time": 242.30766000000003,
          "velocity": 0.4015748031496063
        },
        {
          "duration": 20.480766499999987,
          "durationTicks": 4260,
          "midi": 53,
          "name": "F3",
          "ticks": 50400,
          "time": 242.30766000000003,
          "velocity": 0.4015748031496063
        },
        {
          "duration": 0.28846150000003945,
          "durationTicks": 60,
          "midi": 41,
          "name": "F2",
          "ticks": 54660,
          "time": 262.7884265,
          "velocity": 0.48031496062992124
        },
        {
          "duration": 6.9230759999999805,
          "durationTicks": 1440,
          "midi": 38,
          "name": "D2",
          "ticks": 54720,
          "time": 263.07688800000005,
          "velocity": 0.5039370078740157
        },
        {
          "duration": 3.4615380000000187,
          "durationTicks": 720,
          "midi": 43,
          "name": "G2",
          "ticks": 56160,
          "time": 269.99996400000003,
          "velocity": 0.5039370078740157
        },
        {
          "duration": 3.461537999999962,
          "durationTicks": 720,
          "midi": 36,
          "name": "C2",
          "ticks": 56880,
          "time": 273.46150200000005,
          "velocity": 0.5039370078740157
        },
        {
          "duration": 3.4615380000000187,
          "durationTicks": 720,
          "midi": 48,
          "name": "C3",
          "ticks": 57600,
          "time": 276.92304,
          "velocity": 0.5039370078740157
        },
        {
          "duration": 3.4615380000000187,
          "durationTicks": 720,
          "midi": 46,
          "name": "A#2",
          "ticks": 58320,
          "time": 280.38457800000003,
          "velocity": 0.5039370078740157
        },
        {
          "duration": 3.461537999999962,
          "durationTicks": 720,
          "midi": 44,
          "name": "G#2",
          "ticks": 59040,
          "time": 283.84611600000005,
          "velocity": 0.5039370078740157
        },
        {
          "duration": 3.4615380000000187,
          "durationTicks": 720,
          "midi": 43,
          "name": "G2",
          "ticks": 59760,
          "time": 287.307654,
          "velocity": 0.5039370078740157
        },
        {
          "duration": 3.4615380000000187,
          "durationTicks": 720,
          "midi": 41,
          "name": "F2",
          "ticks": 60480,
          "time": 290.76919200000003,
          "velocity": 0.5039370078740157
        },
        {
          "duration": 3.461537999999962,
          "durationTicks": 720,
          "midi": 42,
          "name": "F#2",
          "ticks": 61200,
          "time": 294.23073000000005,
          "velocity": 0.5039370078740157
        },
        {
          "duration": 3.4615380000000187,
          "durationTicks": 720,
          "midi": 43,
          "name": "G2",
          "ticks": 61920,
          "time": 297.692268,
          "velocity": 0.5039370078740157
        },
        {
          "duration": 6.9230759999999805,
          "durationTicks": 1440,
          "midi": 48,
          "name": "C3",
          "ticks": 62640,
          "time": 301.15380600000003,
          "velocity": 0.5039370078740157
        },
        {
          "duration": 3.4615380000000187,
          "durationTicks": 720,
          "midi": 50,
          "name": "D3",
          "ticks": 64080,
          "time": 308.076882,
          "velocity": 0.5039370078740157
        },
        {
          "duration": 3.4615380000000187,
          "durationTicks": 720,
          "midi": 50,
          "name": "D3",
          "ticks": 64800,
          "time": 311.53842000000003,
          "velocity": 0.5039370078740157
        },
        {
          "duration": 6.9230759999999805,
          "durationTicks": 1440,
          "midi": 51,
          "name": "D#3",
          "ticks": 65520,
          "time": 314.99995800000005,
          "velocity": 0.5039370078740157
        },
        {
          "duration": 3.4615380000000187,
          "durationTicks": 720,
          "midi": 53,
          "name": "F3",
          "ticks": 66960,
          "time": 321.92303400000003,
          "velocity": 0.5039370078740157
        },
        {
          "duration": 3.4615380000000187,
          "durationTicks": 720,
          "midi": 50,
          "name": "D3",
          "ticks": 67680,
          "time": 325.38457200000005,
          "velocity": 0.5039370078740157
        },
        {
          "duration": 3.461537999999962,
          "durationTicks": 720,
          "midi": 51,
          "name": "D#3",
          "ticks": 68400,
          "time": 328.84611000000007,
          "velocity": 0.5039370078740157
        },
        {
          "duration": 3.4615380000000187,
          "durationTicks": 720,
          "midi": 48,
          "name": "C3",
          "ticks": 69120,
          "time": 332.30764800000003,
          "velocity": 0.5039370078740157
        },
        {
          "duration": 3.4615380000000187,
          "durationTicks": 720,
          "midi": 50,
          "name": "D3",
          "ticks": 69840,
          "time": 335.76918600000005,
          "velocity": 0.5039370078740157
        },
        {
          "duration": 3.461537999999962,
          "durationTicks": 720,
          "midi": 51,
          "name": "D#3",
          "ticks": 70560,
          "time": 339.23072400000007,
          "velocity": 0.5039370078740157
        },
        {
          "duration": 3.4615380000000187,
          "durationTicks": 720,
          "midi": 50,
          "name": "D3",
          "ticks": 71280,
          "time": 342.692262,
          "velocity": 0.5039370078740157
        },
        {
          "duration": 3.4615380000000187,
          "durationTicks": 720,
          "midi": 51,
          "name": "D#3",
          "ticks": 72000,
          "time": 346.15380000000005,
          "velocity": 0.5039370078740157
        },
        {
          "duration": 10.384614,
          "durationTicks": 2160,
          "midi": 38,
          "name": "D2",
          "ticks": 72720,
          "time": 349.61533800000007,
          "velocity": 0.5039370078740157
        },
        {
          "duration": 10.384614,
          "durationTicks": 2160,
          "midi": 50,
          "name": "D3",
          "ticks": 72720,
          "time": 349.61533800000007,
          "velocity": 0.5039370078740157
        },
        {
          "duration": 3.461537999999962,
          "durationTicks": 720,
          "midi": 39,
          "name": "D#2",
          "ticks": 74880,
          "time": 359.99995200000006,
          "velocity": 0.5039370078740157
        },
        {
          "duration": 3.461537999999962,
          "durationTicks": 720,
          "midi": 51,
          "name": "D#3",
          "ticks": 74880,
          "time": 359.99995200000006,
          "velocity": 0.5039370078740157
        },
        {
          "duration": 3.4615380000000187,
          "durationTicks": 720,
          "midi": 41,
          "name": "F2",
          "ticks": 75600,
          "time": 363.46149,
          "velocity": 0.5039370078740157
        },
        {
          "duration": 3.4615380000000187,
          "durationTicks": 720,
          "midi": 53,
          "name": "F3",
          "ticks": 76320,
          "time": 366.92302800000004,
          "velocity": 0.5039370078740157
        },
        {
          "duration": 3.4615380000000187,
          "durationTicks": 720,
          "midi": 38,
          "name": "D2",
          "ticks": 76320,
          "time": 366.92302800000004,
          "velocity": 0.5039370078740157
        },
        {
          "duration": 1.1538459999999873,
          "durationTicks": 240,
          "midi": 56,
          "name": "G#3",
          "ticks": 77040,
          "time": 370.38456600000006,
          "velocity": 0.5039370078740157
        },
        {
          "duration": 3.461537999999962,
          "durationTicks": 720,
          "midi": 39,
          "name": "D#2",
          "ticks": 77040,
          "time": 370.38456600000006,
          "velocity": 0.5039370078740157
        },
        {
          "duration": 2.3076919999999745,
          "durationTicks": 480,
          "midi": 55,
          "name": "G3",
          "ticks": 77280,
          "time": 371.53841200000005,
          "velocity": 0.5039370078740157
        },
        {
          "duration": 2.3076920000000314,
          "durationTicks": 480,
          "midi": 53,
          "name": "F3",
          "ticks": 77760,
          "time": 373.846104,
          "velocity": 0.5039370078740157
        },
        {
          "duration": 2.3076920000000314,
          "durationTicks": 480,
          "midi": 59,
          "name": "B3",
          "ticks": 77760,
          "time": 373.846104,
          "velocity": 0.5039370078740157
        },
        {
          "duration": 2.3076920000000314,
          "durationTicks": 480,
          "midi": 38,
          "name": "D2",
          "ticks": 77760,
          "time": 373.846104,
          "velocity": 0.5039370078740157
        },
        {
          "duration": 0.2884614999999826,
          "durationTicks": 60,
          "midi": 53,
          "name": "F3",
          "ticks": 78420,
          "time": 377.01918050000006,
          "velocity": 0.5039370078740157
        },
        {
          "duration": 0.2884614999999826,
          "durationTicks": 60,
          "midi": 59,
          "name": "B3",
          "ticks": 78420,
          "time": 377.01918050000006,
          "velocity": 0.5039370078740157
        },
        {
          "duration": 0.2884614999999826,
          "durationTicks": 60,
          "midi": 38,
          "name": "D2",
          "ticks": 78420,
          "time": 377.01918050000006,
          "velocity": 0.5039370078740157
        },
        {
          "duration": 3.4615380000000187,
          "durationTicks": 720,
          "midi": 39,
          "name": "D#2",
          "ticks": 78480,
          "time": 377.30764200000004,
          "velocity": 0.5039370078740157
        },
        {
          "duration": 3.4615380000000187,
          "durationTicks": 720,
          "midi": 55,
          "name": "G3",
          "ticks": 78480,
          "time": 377.30764200000004,
          "velocity": 0.5039370078740157
        },
        {
          "duration": 3.4615380000000187,
          "durationTicks": 720,
          "midi": 60,
          "name": "C4",
          "ticks": 78480,
          "time": 377.30764200000004,
          "velocity": 0.5039370078740157
        },
        {
          "duration": 2.3076919999999745,
          "durationTicks": 480,
          "midi": 41,
          "name": "F2",
          "ticks": 79200,
          "time": 380.76918000000006,
          "velocity": 0.5039370078740157
        },
        {
          "duration": 2.3076919999999745,
          "durationTicks": 480,
          "midi": 56,
          "name": "G#3",
          "ticks": 79200,
          "time": 380.76918000000006,
          "velocity": 0.5039370078740157
        },
        {
          "duration": 2.3076919999999745,
          "durationTicks": 480,
          "midi": 60,
          "name": "C4",
          "ticks": 79200,
          "time": 380.76918000000006,
          "velocity": 0.5039370078740157
        },
        {
          "duration": 0.2884614999999826,
          "durationTicks": 60,
          "midi": 41,
          "name": "F2",
          "ticks": 79860,
          "time": 383.94225650000004,
          "velocity": 0.5039370078740157
        },
        {
          "duration": 0.2884614999999826,
          "durationTicks": 60,
          "midi": 56,
          "name": "G#3",
          "ticks": 79860,
          "time": 383.94225650000004,
          "velocity": 0.5039370078740157
        },
        {
          "duration": 0.2884614999999826,
          "durationTicks": 60,
          "midi": 60,
          "name": "C4",
          "ticks": 79860,
          "time": 383.94225650000004,
          "velocity": 0.5039370078740157
        },
        {
          "duration": 3.4615380000000187,
          "durationTicks": 720,
          "midi": 39,
          "name": "D#2",
          "ticks": 79920,
          "time": 384.230718,
          "velocity": 0.5039370078740157
        },
        {
          "duration": 3.4615380000000187,
          "durationTicks": 720,
          "midi": 55,
          "name": "G3",
          "ticks": 79920,
          "time": 384.230718,
          "velocity": 0.5039370078740157
        },
        {
          "duration": 3.4615380000000187,
          "durationTicks": 720,
          "midi": 60,
          "name": "C4",
          "ticks": 79920,
          "time": 384.230718,
          "velocity": 0.5039370078740157
        },
        {
          "duration": 2.3076920000000314,
          "durationTicks": 480,
          "midi": 41,
          "name": "F2",
          "ticks": 80640,
          "time": 387.69225600000004,
          "velocity": 0.5039370078740157
        },
        {
          "duration": 2.3076920000000314,
          "durationTicks": 480,
          "midi": 56,
          "name": "G#3",
          "ticks": 80640,
          "time": 387.69225600000004,
          "velocity": 0.5039370078740157
        },
        {
          "duration": 2.3076920000000314,
          "durationTicks": 480,
          "midi": 60,
          "name": "C4",
          "ticks": 80640,
          "time": 387.69225600000004,
          "velocity": 0.5039370078740157
        },
        {
          "duration": 0.28846150000003945,
          "durationTicks": 60,
          "midi": 41,
          "name": "F2",
          "ticks": 81300,
          "time": 390.8653325,
          "velocity": 0.5039370078740157
        },
        {
          "duration": 0.28846150000003945,
          "durationTicks": 60,
          "midi": 56,
          "name": "G#3",
          "ticks": 81300,
          "time": 390.8653325,
          "velocity": 0.5039370078740157
        },
        {
          "duration": 0.28846150000003945,
          "durationTicks": 60,
          "midi": 60,
          "name": "C4",
          "ticks": 81300,
          "time": 390.8653325,
          "velocity": 0.5039370078740157
        },
        {
          "duration": 2.3076919999999745,
          "durationTicks": 480,
          "midi": 39,
          "name": "D#2",
          "ticks": 81360,
          "time": 391.15379400000006,
          "velocity": 0.5039370078740157
        },
        {
          "duration": 2.3076919999999745,
          "durationTicks": 480,
          "midi": 55,
          "name": "G3",
          "ticks": 81360,
          "time": 391.15379400000006,
          "velocity": 0.5039370078740157
        },
        {
          "duration": 2.3076919999999745,
          "durationTicks": 480,
          "midi": 60,
          "name": "C4",
          "ticks": 81360,
          "time": 391.15379400000006,
          "velocity": 0.5039370078740157
        },
        {
          "duration": 0.5769229999999652,
          "durationTicks": 120,
          "midi": 39,
          "name": "D#2",
          "ticks": 81960,
          "time": 394.03840900000006,
          "velocity": 0.5039370078740157
        },
        {
          "duration": 0.5769229999999652,
          "durationTicks": 120,
          "midi": 51,
          "name": "D#3",
          "ticks": 81960,
          "time": 394.03840900000006,
          "velocity": 0.5039370078740157
        },
        {
          "duration": 3.4615380000000187,
          "durationTicks": 720,
          "midi": 41,
          "name": "F2",
          "ticks": 82080,
          "time": 394.615332,
          "velocity": 0.6299212598425197
        },
        {
          "duration": 3.4615380000000187,
          "durationTicks": 720,
          "midi": 53,
          "name": "F3",
          "ticks": 82080,
          "time": 394.615332,
          "velocity": 0.6299212598425197
        },
        {
          "duration": 2.3076920000000314,
          "durationTicks": 480,
          "midi": 43,
          "name": "G2",
          "ticks": 82800,
          "time": 398.07687000000004,
          "velocity": 0.6299212598425197
        },
        {
          "duration": 2.3076920000000314,
          "durationTicks": 480,
          "midi": 55,
          "name": "G3",
          "ticks": 82800,
          "time": 398.07687000000004,
          "velocity": 0.6299212598425197
        },
        {
          "duration": 2.3076919999999745,
          "durationTicks": 480,
          "midi": 49,
          "name": "C#3",
          "ticks": 84240,
          "time": 404.9999460000001,
          "velocity": 0.6299212598425197
        },
        {
          "duration": 2.3076919999999745,
          "durationTicks": 480,
          "midi": 52,
          "name": "E3",
          "ticks": 84240,
          "time": 404.9999460000001,
          "velocity": 0.6299212598425197
        },
        {
          "duration": 2.3076919999999745,
          "durationTicks": 480,
          "midi": 55,
          "name": "G3",
          "ticks": 84240,
          "time": 404.9999460000001,
          "velocity": 0.6299212598425197
        },
        {
          "duration": 2.3076919999999745,
          "durationTicks": 480,
          "midi": 58,
          "name": "A#3",
          "ticks": 84240,
          "time": 404.9999460000001,
          "velocity": 0.6299212598425197
        },
        {
          "duration": 0.14423075000001973,
          "durationTicks": 30,
          "midi": 55,
          "name": "G3",
          "ticks": 84720,
          "time": 407.30763800000005,
          "velocity": 0.6299212598425197
        },
        {
          "duration": 0.14423074999996288,
          "durationTicks": 30,
          "midi": 56,
          "name": "G#3",
          "ticks": 84750,
          "time": 407.4518687500001,
          "velocity": 0.6299212598425197
        },
        {
          "duration": 0.5769230000000221,
          "durationTicks": 120,
          "midi": 58,
          "name": "A#3",
          "ticks": 84780,
          "time": 407.59609950000004,
          "velocity": 0.6299212598425197
        },
        {
          "duration": 0.14423075000001973,
          "durationTicks": 30,
          "midi": 56,
          "name": "G#3",
          "ticks": 84900,
          "time": 408.17302250000006,
          "velocity": 0.6299212598425197
        },
        {
          "duration": 0.14423074999996288,
          "durationTicks": 30,
          "midi": 55,
          "name": "G3",
          "ticks": 84930,
          "time": 408.3172532500001,
          "velocity": 0.6299212598425197
        },
        {
          "duration": 2.3076920000000314,
          "durationTicks": 480,
          "midi": 48,
          "name": "C3",
          "ticks": 84960,
          "time": 408.46148400000004,
          "velocity": 0.6299212598425197
        },
        {
          "duration": 2.3076920000000314,
          "durationTicks": 480,
          "midi": 53,
          "name": "F3",
          "ticks": 84960,
          "time": 408.46148400000004,
          "velocity": 0.6299212598425197
        },
        {
          "duration": 2.3076920000000314,
          "durationTicks": 480,
          "midi": 56,
          "name": "G#3",
          "ticks": 84960,
          "time": 408.46148400000004,
          "velocity": 0.6299212598425197
        },
        {
          "duration": 1.1538459999999873,
          "durationTicks": 240,
          "midi": 48,
          "name": "C3",
          "ticks": 85440,
          "time": 410.7691760000001,
          "velocity": 0.6299212598425197
        },
        {
          "duration": 1.1538459999999873,
          "durationTicks": 240,
          "midi": 53,
          "name": "F3",
          "ticks": 85440,
          "time": 410.7691760000001,
          "velocity": 0.6299212598425197
        },
        {
          "duration": 1.1538459999999873,
          "durationTicks": 240,
          "midi": 56,
          "name": "G#3",
          "ticks": 85440,
          "time": 410.7691760000001,
          "velocity": 0.6299212598425197
        },
        {
          "duration": 2.3076919999999745,
          "durationTicks": 480,
          "midi": 48,
          "name": "C3",
          "ticks": 85680,
          "time": 411.92302200000006,
          "velocity": 0.6299212598425197
        },
        {
          "duration": 2.3076919999999745,
          "durationTicks": 480,
          "midi": 51,
          "name": "D#3",
          "ticks": 85680,
          "time": 411.92302200000006,
          "velocity": 0.6299212598425197
        },
        {
          "duration": 2.3076919999999745,
          "durationTicks": 480,
          "midi": 55,
          "name": "G3",
          "ticks": 85680,
          "time": 411.92302200000006,
          "velocity": 0.6299212598425197
        },
        {
          "duration": 1.1538460000000441,
          "durationTicks": 240,
          "midi": 48,
          "name": "C3",
          "ticks": 86160,
          "time": 414.23071400000003,
          "velocity": 0.6299212598425197
        },
        {
          "duration": 1.1538460000000441,
          "durationTicks": 240,
          "midi": 51,
          "name": "D#3",
          "ticks": 86160,
          "time": 414.23071400000003,
          "velocity": 0.6299212598425197
        },
        {
          "duration": 1.1538460000000441,
          "durationTicks": 240,
          "midi": 55,
          "name": "G3",
          "ticks": 86160,
          "time": 414.23071400000003,
          "velocity": 0.6299212598425197
        },
        {
          "duration": 3.461537999999962,
          "durationTicks": 720,
          "midi": 44,
          "name": "G#2",
          "ticks": 86400,
          "time": 415.3845600000001,
          "velocity": 0.6299212598425197
        },
        {
          "duration": 3.461537999999962,
          "durationTicks": 720,
          "midi": 49,
          "name": "C#3",
          "ticks": 86400,
          "time": 415.3845600000001,
          "velocity": 0.6299212598425197
        },
        {
          "duration": 3.461537999999962,
          "durationTicks": 720,
          "midi": 53,
          "name": "F3",
          "ticks": 86400,
          "time": 415.3845600000001,
          "velocity": 0.6299212598425197
        },
        {
          "duration": 3.4615380000000187,
          "durationTicks": 720,
          "midi": 55,
          "name": "G3",
          "ticks": 87120,
          "time": 418.84609800000004,
          "velocity": 0.6299212598425197
        },
        {
          "duration": 3.4615380000000187,
          "durationTicks": 720,
          "midi": 43,
          "name": "G2",
          "ticks": 87840,
          "time": 422.30763600000006,
          "velocity": 0.6299212598425197
        },
        {
          "duration": 2.3076919999999745,
          "durationTicks": 480,
          "midi": 53,
          "name": "F3",
          "ticks": 87840,
          "time": 422.30763600000006,
          "velocity": 0.6299212598425197
        },
        {
          "duration": 2.3076919999999745,
          "durationTicks": 480,
          "midi": 59,
          "name": "B3",
          "ticks": 87840,
          "time": 422.30763600000006,
          "velocity": 0.6299212598425197
        },
        {
          "duration": 0.14423075000001973,
          "durationTicks": 30,
          "midi": 59,
          "name": "B3",
          "ticks": 88320,
          "time": 424.61532800000003,
          "velocity": 0.6299212598425197
        },
        {
          "duration": 0.14423075000001973,
          "durationTicks": 30,
          "midi": 60,
          "name": "C4",
          "ticks": 88350,
          "time": 424.75955875000005,
          "velocity": 0.6299212598425197
        },
        {
          "duration": 0.5769229999999652,
          "durationTicks": 120,
          "midi": 62,
          "name": "D4",
          "ticks": 88380,
          "time": 424.9037895000001,
          "velocity": 0.6299212598425197
        },
        {
          "duration": 0.14423075000001973,
          "durationTicks": 30,
          "midi": 60,
          "name": "C4",
          "ticks": 88500,
          "time": 425.48071250000004,
          "velocity": 0.6299212598425197
        },
        {
          "duration": 0.14423075000001973,
          "durationTicks": 30,
          "midi": 59,
          "name": "B3",
          "ticks": 88530,
          "time": 425.62494325000006,
          "velocity": 0.6299212598425197
        },
        {
          "duration": 3.461537999999962,
          "durationTicks": 720,
          "midi": 44,
          "name": "G#2",
          "ticks": 88560,
          "time": 425.7691740000001,
          "velocity": 0.5039370078740157
        },
        {
          "duration": 3.461537999999962,
          "durationTicks": 720,
          "midi": 51,
          "name": "D#3",
          "ticks": 88560,
          "time": 425.7691740000001,
          "velocity": 0.5039370078740157
        },
        {
          "duration": 3.461537999999962,
          "durationTicks": 720,
          "midi": 56,
          "name": "G#3",
          "ticks": 88560,
          "time": 425.7691740000001,
          "velocity": 0.5039370078740157
        },
        {
          "duration": 3.4615380000000187,
          "durationTicks": 720,
          "midi": 43,
          "name": "G2",
          "ticks": 89280,
          "time": 429.23071200000004,
          "velocity": 0.5039370078740157
        },
        {
          "duration": 3.4615380000000187,
          "durationTicks": 720,
          "midi": 55,
          "name": "G3",
          "ticks": 89280,
          "time": 429.23071200000004,
          "velocity": 0.5039370078740157
        },
        {
          "duration": 2.3076919999999745,
          "durationTicks": 480,
          "midi": 42,
          "name": "F#2",
          "ticks": 90000,
          "time": 432.69225000000006,
          "velocity": 0.6299212598425197
        },
        {
          "duration": 0.28846150000003945,
          "durationTicks": 60,
          "midi": 42,
          "name": "F#2",
          "ticks": 90660,
          "time": 435.86532650000004,
          "velocity": 0.6299212598425197
        },
        {
          "duration": 3.461537999999962,
          "durationTicks": 720,
          "midi": 43,
          "name": "G2",
          "ticks": 90720,
          "time": 436.1537880000001,
          "velocity": 0.6299212598425197
        },
        {
          "duration": 2.3076920000000314,
          "durationTicks": 480,
          "midi": 47,
          "name": "B2",
          "ticks": 91440,
          "time": 439.61532600000004,
          "velocity": 0.8661417322834646
        },
        {
          "duration": 2.3076920000000314,
          "durationTicks": 480,
          "midi": 35,
          "name": "B1",
          "ticks": 91440,
          "time": 439.61532600000004,
          "velocity": 0.8661417322834646
        },
        {
          "duration": 0.2884614999999826,
          "durationTicks": 60,
          "midi": 47,
          "name": "B2",
          "ticks": 92100,
          "time": 442.7884025000001,
          "velocity": 0.8661417322834646
        },
        {
          "duration": 0.2884614999999826,
          "durationTicks": 60,
          "midi": 35,
          "name": "B1",
          "ticks": 92100,
          "time": 442.7884025000001,
          "velocity": 0.8661417322834646
        },
        {
          "duration": 3.4615380000000187,
          "durationTicks": 720,
          "midi": 48,
          "name": "C3",
          "ticks": 92160,
          "time": 443.07686400000006,
          "velocity": 0.8661417322834646
        },
        {
          "duration": 3.4615380000000187,
          "durationTicks": 720,
          "midi": 36,
          "name": "C2",
          "ticks": 92160,
          "time": 443.07686400000006,
          "velocity": 0.8661417322834646
        },
        {
          "duration": 2.3076919999999745,
          "durationTicks": 480,
          "midi": 49,
          "name": "C#3",
          "ticks": 92880,
          "time": 446.5384020000001,
          "velocity": 0.8661417322834646
        },
        {
          "duration": 2.3076919999999745,
          "durationTicks": 480,
          "midi": 37,
          "name": "C#2",
          "ticks": 92880,
          "time": 446.5384020000001,
          "velocity": 0.8661417322834646
        },
        {
          "duration": 0.2884614999999826,
          "durationTicks": 60,
          "midi": 49,
          "name": "C#3",
          "ticks": 93540,
          "time": 449.71147850000006,
          "velocity": 0.8661417322834646
        },
        {
          "duration": 0.2884614999999826,
          "durationTicks": 60,
          "midi": 37,
          "name": "C#2",
          "ticks": 93540,
          "time": 449.71147850000006,
          "velocity": 0.8661417322834646
        },
        {
          "duration": 3.4615380000000187,
          "durationTicks": 720,
          "midi": 50,
          "name": "D3",
          "ticks": 93600,
          "time": 449.99994000000004,
          "velocity": 0.7795275590551181
        },
        {
          "duration": 3.4615380000000187,
          "durationTicks": 720,
          "midi": 38,
          "name": "D2",
          "ticks": 93600,
          "time": 449.99994000000004,
          "velocity": 0.7795275590551181
        },
        {
          "duration": 2.3076919999999745,
          "durationTicks": 480,
          "midi": 43,
          "name": "G2",
          "ticks": 94320,
          "time": 453.46147800000006,
          "velocity": 0.7795275590551181
        },
        {
          "duration": 2.3076919999999745,
          "durationTicks": 480,
          "midi": 31,
          "name": "G1",
          "ticks": 94320,
          "time": 453.46147800000006,
          "velocity": 0.7795275590551181
        },
        {
          "duration": 0.28846150000003945,
          "durationTicks": 60,
          "midi": 43,
          "name": "G2",
          "ticks": 94980,
          "time": 456.63455450000004,
          "velocity": 0.7795275590551181
        },
        {
          "duration": 0.28846150000003945,
          "durationTicks": 60,
          "midi": 31,
          "name": "G1",
          "ticks": 94980,
          "time": 456.63455450000004,
          "velocity": 0.7795275590551181
        },
        {
          "duration": 3.461537999999962,
          "durationTicks": 720,
          "midi": 45,
          "name": "A2",
          "ticks": 95040,
          "time": 456.9230160000001,
          "velocity": 0.7795275590551181
        },
        {
          "duration": 3.461537999999962,
          "durationTicks": 720,
          "midi": 33,
          "name": "A1",
          "ticks": 95040,
          "time": 456.9230160000001,
          "velocity": 0.7795275590551181
        },
        {
          "duration": 3.4615380000000187,
          "durationTicks": 720,
          "midi": 46,
          "name": "A#2",
          "ticks": 95760,
          "time": 460.38455400000004,
          "velocity": 0.7795275590551181
        },
        {
          "duration": 3.4615380000000187,
          "durationTicks": 720,
          "midi": 34,
          "name": "A#1",
          "ticks": 95760,
          "time": 460.38455400000004,
          "velocity": 0.7795275590551181
        },
        {
          "duration": 2.3076920000000314,
          "durationTicks": 480,
          "midi": 42,
          "name": "F#2",
          "ticks": 96480,
          "time": 463.84609200000006,
          "velocity": 0.7795275590551181
        },
        {
          "duration": 2.3076920000000314,
          "durationTicks": 480,
          "midi": 30,
          "name": "F#1",
          "ticks": 96480,
          "time": 463.84609200000006,
          "velocity": 0.7795275590551181
        },
        {
          "duration": 0.28846150000003945,
          "durationTicks": 60,
          "midi": 42,
          "name": "F#2",
          "ticks": 97140,
          "time": 467.01916850000003,
          "velocity": 0.7795275590551181
        },
        {
          "duration": 0.28846150000003945,
          "durationTicks": 60,
          "midi": 30,
          "name": "F#1",
          "ticks": 97140,
          "time": 467.01916850000003,
          "velocity": 0.7795275590551181
        },
        {
          "duration": 3.461537999999962,
          "durationTicks": 720,
          "midi": 43,
          "name": "G2",
          "ticks": 97200,
          "time": 467.3076300000001,
          "velocity": 0.6299212598425197
        },
        {
          "duration": 3.461537999999962,
          "durationTicks": 720,
          "midi": 31,
          "name": "G1",
          "ticks": 97200,
          "time": 467.3076300000001,
          "velocity": 0.6299212598425197
        },
        {
          "duration": 2.3076920000000314,
          "durationTicks": 480,
          "midi": 47,
          "name": "B2",
          "ticks": 97920,
          "time": 470.76916800000004,
          "velocity": 0.6299212598425197
        },
        {
          "duration": 2.3076920000000314,
          "durationTicks": 480,
          "midi": 35,
          "name": "B1",
          "ticks": 97920,
          "time": 470.76916800000004,
          "velocity": 0.6299212598425197
        },
        {
          "duration": 0.2884614999999826,
          "durationTicks": 60,
          "midi": 47,
          "name": "B2",
          "ticks": 98580,
          "time": 473.9422445000001,
          "velocity": 0.6299212598425197
        },
        {
          "duration": 0.2884614999999826,
          "durationTicks": 60,
          "midi": 35,
          "name": "B1",
          "ticks": 98580,
          "time": 473.9422445000001,
          "velocity": 0.6299212598425197
        },
        {
          "duration": 3.4615380000000187,
          "durationTicks": 720,
          "midi": 48,
          "name": "C3",
          "ticks": 98640,
          "time": 474.23070600000005,
          "velocity": 0.6299212598425197
        },
        {
          "duration": 3.4615380000000187,
          "durationTicks": 720,
          "midi": 36,
          "name": "C2",
          "ticks": 98640,
          "time": 474.23070600000005,
          "velocity": 0.6299212598425197
        },
        {
          "duration": 2.3076919999999745,
          "durationTicks": 480,
          "midi": 49,
          "name": "C#3",
          "ticks": 99360,
          "time": 477.6922440000001,
          "velocity": 0.6299212598425197
        },
        {
          "duration": 0.2884614999999826,
          "durationTicks": 60,
          "midi": 49,
          "name": "C#3",
          "ticks": 100020,
          "time": 480.86532050000005,
          "velocity": 0.5039370078740157
        },
        {
          "duration": 3.4615380000000187,
          "durationTicks": 720,
          "midi": 38,
          "name": "D2",
          "ticks": 100080,
          "time": 481.15378200000004,
          "velocity": 0.5039370078740157
        },
        {
          "duration": 3.4615380000000187,
          "durationTicks": 720,
          "midi": 48,
          "name": "C3",
          "ticks": 100800,
          "time": 484.61532000000005,
          "velocity": 0.5039370078740157
        },
        {
          "duration": 3.4615380000000187,
          "durationTicks": 720,
          "midi": 49,
          "name": "C#3",
          "ticks": 101520,
          "time": 488.0768580000001,
          "velocity": 0.5039370078740157
        },
        {
          "duration": 3.461537999999962,
          "durationTicks": 720,
          "midi": 50,
          "name": "D3",
          "ticks": 102240,
          "time": 491.5383960000001,
          "velocity": 0.5039370078740157
        },
        {
          "duration": 10.384614,
          "durationTicks": 2160,
          "midi": 43,
          "name": "G2",
          "ticks": 102960,
          "time": 494.99993400000005,
          "velocity": 0.5039370078740157
        }
      ],
      "endOfTrackTicks": 105120
    },
    {
      "channel": 10,
      "controlChanges": {
        "7": [
          {
            "number": 7,
            "ticks": 0,
            "time": 0,
            "value": 0.7480314960629921
          }
        ],
        "10": [
          {
            "number": 10,
            "ticks": 0,
            "time": 0,
            "value": 0.31496062992125984
          }
        ]
      },
      "pitchBends": [],
      "instrument": {
        "family": "organ",
        "number": 19,
        "name": "church organ"
      },
      "name": "Organ",
      "notes": [
        {
          "duration": 6.923076,
          "durationTicks": 1440,
          "midi": 62,
          "name": "D4",
          "ticks": 720,
          "time": 3.4615380000000004,
          "velocity": 0.49606299212598426
        },
        {
          "duration": 6.923076,
          "durationTicks": 1440,
          "midi": 67,
          "name": "G4",
          "ticks": 720,
          "time": 3.4615380000000004,
          "velocity": 0.49606299212598426
        },
        {
          "duration": 6.923076,
          "durationTicks": 1440,
          "midi": 58,
          "name": "A#3",
          "ticks": 720,
          "time": 3.4615380000000004,
          "velocity": 0.49606299212598426
        },
        {
          "duration": 6.923076,
          "durationTicks": 1440,
          "midi": 58,
          "name": "A#3",
          "ticks": 720,
          "time": 3.4615380000000004,
          "velocity": 0.49606299212598426
        },
        {
          "duration": 3.4615380000000004,
          "durationTicks": 720,
          "midi": 31,
          "name": "G1",
          "ticks": 720,
          "time": 3.4615380000000004,
          "velocity": 0.49606299212598426
        },
        {
          "duration": 3.461538,
          "durationTicks": 720,
          "midi": 29,
          "name": "F1",
          "ticks": 1440,
          "time": 6.923076000000001,
          "velocity": 0.4881889763779528
        },
        {
          "duration": 3.461538000000001,
          "durationTicks": 720,
          "midi": 27,
          "name": "D#1",
          "ticks": 2160,
          "time": 10.384614000000001,
          "velocity": 0.48031496062992124
        },
        {
          "duration": 3.461537999999999,
          "durationTicks": 720,
          "midi": 26,
          "name": "D1",
          "ticks": 2880,
          "time": 13.846152000000002,
          "velocity": 0.47244094488188976
        },
        {
          "duration": 3.461538000000001,
          "durationTicks": 720,
          "midi": 24,
          "name": "C1",
          "ticks": 3600,
          "time": 17.30769,
          "velocity": 0.4645669291338583
        },
        {
          "duration": 3.461538000000001,
          "durationTicks": 720,
          "midi": 25,
          "name": "C#1",
          "ticks": 4320,
          "time": 20.769228000000002,
          "velocity": 0.4566929133858268
        },
        {
          "duration": 3.461538000000001,
          "durationTicks": 720,
          "midi": 26,
          "name": "D1",
          "ticks": 5040,
          "time": 24.230766000000003,
          "velocity": 0.44881889763779526
        },
        {
          "duration": 3.461538000000001,
          "durationTicks": 720,
          "midi": 31,
          "name": "G1",
          "ticks": 5760,
          "time": 27.692304000000004,
          "velocity": 0.5039370078740157
        },
        {
          "duration": 6.923076000000009,
          "durationTicks": 1440,
          "midi": 26,
          "name": "D1",
          "ticks": 19440,
          "time": 93.461526,
          "velocity": 0.5039370078740157
        },
        {
          "duration": 3.4615380000000044,
          "durationTicks": 720,
          "midi": 31,
          "name": "G1",
          "ticks": 20880,
          "time": 100.38460200000002,
          "velocity": 0.6299212598425197
        },
        {
          "duration": 3.4615379999999902,
          "durationTicks": 720,
          "midi": 29,
          "name": "F1",
          "ticks": 21600,
          "time": 103.84614000000002,
          "velocity": 0.6299212598425197
        },
        {
          "duration": 3.4615380000000044,
          "durationTicks": 720,
          "midi": 27,
          "name": "D#1",
          "ticks": 22320,
          "time": 107.30767800000001,
          "velocity": 0.6299212598425197
        },
        {
          "duration": 3.4615380000000044,
          "durationTicks": 720,
          "midi": 26,
          "name": "D1",
          "ticks": 23040,
          "time": 110.76921600000001,
          "velocity": 0.6299212598425197
        },
        {
          "duration": 3.4615379999999902,
          "durationTicks": 720,
          "midi": 24,
          "name": "C1",
          "ticks": 23760,
          "time": 114.23075400000002,
          "velocity": 0.6299212598425197
        },
        {
          "duration": 3.4615380000000044,
          "durationTicks": 720,
          "midi": 25,
          "name": "C#1",
          "ticks": 24480,
          "time": 117.69229200000001,
          "velocity": 0.6299212598425197
        },
        {
          "duration": 3.4615380000000044,
          "durationTicks": 720,
          "midi": 26,
          "name": "D1",
          "ticks": 25200,
          "time": 121.15383000000001,
          "velocity": 0.6299212598425197
        },
        {
          "duration": 3.4615379999999902,
          "durationTicks": 720,
          "midi": 31,
          "name": "G1",
          "ticks": 25920,
          "time": 124.61536800000002,
          "velocity": 0.5039370078740157
        },
        {
          "duration": 6.9230759999999805,
          "durationTicks": 1440,
          "midi": 26,
          "name": "D1",
          "ticks": 39600,
          "time": 190.38459000000003,
          "velocity": 0.5039370078740157
        },
        {
          "duration": 13.846152000000018,
          "durationTicks": 2880,
          "midi": 31,
          "name": "G1",
          "ticks": 41040,
          "time": 197.307666,
          "velocity": 0.2992125984251969
        },
        {
          "duration": 30.865380500000015,
          "durationTicks": 6420,
          "midi": 31,
          "name": "G1",
          "ticks": 43920,
          "time": 211.15381800000003,
          "velocity": 0.4015748031496063
        },
        {
          "duration": 0.2884614999999826,
          "durationTicks": 60,
          "midi": 31,
          "name": "G1",
          "ticks": 50340,
          "time": 242.01919850000004,
          "velocity": 0.4015748031496063
        },
        {
          "duration": 19.615381999999983,
          "durationTicks": 4080,
          "midi": 29,
          "name": "F1",
          "ticks": 50400,
          "time": 242.30766000000003,
          "velocity": 0.4015748031496063
        },
        {
          "duration": 3.4615380000000187,
          "durationTicks": 720,
          "midi": 36,
          "name": "C2",
          "ticks": 57600,
          "time": 276.92304,
          "velocity": 0.5039370078740157
        },
        {
          "duration": 3.4615380000000187,
          "durationTicks": 720,
          "midi": 34,
          "name": "A#1",
          "ticks": 58320,
          "time": 280.38457800000003,
          "velocity": 0.5039370078740157
        },
        {
          "duration": 3.461537999999962,
          "durationTicks": 720,
          "midi": 32,
          "name": "G#1",
          "ticks": 59040,
          "time": 283.84611600000005,
          "velocity": 0.5039370078740157
        },
        {
          "duration": 3.4615380000000187,
          "durationTicks": 720,
          "midi": 31,
          "name": "G1",
          "ticks": 59760,
          "time": 287.307654,
          "velocity": 0.5039370078740157
        },
        {
          "duration": 3.4615380000000187,
          "durationTicks": 720,
          "midi": 29,
          "name": "F1",
          "ticks": 60480,
          "time": 290.76919200000003,
          "velocity": 0.5039370078740157
        },
        {
          "duration": 3.461537999999962,
          "durationTicks": 720,
          "midi": 30,
          "name": "F#1",
          "ticks": 61200,
          "time": 294.23073000000005,
          "velocity": 0.5039370078740157
        },
        {
          "duration": 3.4615380000000187,
          "durationTicks": 720,
          "midi": 31,
          "name": "G1",
          "ticks": 61920,
          "time": 297.692268,
          "velocity": 0.5039370078740157
        },
        {
          "duration": 3.4615380000000187,
          "durationTicks": 720,
          "midi": 36,
          "name": "C2",
          "ticks": 62640,
          "time": 301.15380600000003,
          "velocity": 0.5039370078740157
        },
        {
          "duration": 0.5769229999999652,
          "durationTicks": 120,
          "midi": 27,
          "name": "D#1",
          "ticks": 81960,
          "time": 394.03840900000006,
          "velocity": 0.6299212598425197
        },
        {
          "duration": 3.4615380000000187,
          "durationTicks": 720,
          "midi": 29,
          "name": "F1",
          "ticks": 82080,
          "time": 394.615332,
          "velocity": 0.6299212598425197
        },
        {
          "duration": 2.3076920000000314,
          "durationTicks": 480,
          "midi": 31,
          "name": "G1",
          "ticks": 82800,
          "time": 398.07687000000004,
          "velocity": 0.6299212598425197
        },
        {
          "duration": 3.461537999999962,
          "durationTicks": 720,
          "midi": 28,
          "name": "E1",
          "ticks": 84240,
          "time": 404.9999460000001,
          "velocity": 0.6299212598425197
        },
        {
          "duration": 3.4615380000000187,
          "durationTicks": 720,
          "midi": 29,
          "name": "F1",
          "ticks": 84960,
          "time": 408.46148400000004,
          "velocity": 0.6299212598425197
        },
        {
          "duration": 3.4615380000000187,
          "durationTicks": 720,
          "midi": 39,
          "name": "D#2",
          "ticks": 85680,
          "time": 411.92302200000006,
          "velocity": 0.6299212598425197
        },
        {
          "duration": 3.461537999999962,
          "durationTicks": 720,
          "midi": 37,
          "name": "C#2",
          "ticks": 86400,
          "time": 415.3845600000001,
          "velocity": 0.6299212598425197
        },
        {
          "duration": 3.4615380000000187,
          "durationTicks": 720,
          "midi": 31,
          "name": "G1",
          "ticks": 87120,
          "time": 418.84609800000004,
          "velocity": 0.6299212598425197
        },
        {
          "duration": 3.4615380000000187,
          "durationTicks": 720,
          "midi": 31,
          "name": "G1",
          "ticks": 87840,
          "time": 422.30763600000006,
          "velocity": 0.6299212598425197
        },
        {
          "duration": 3.461537999999962,
          "durationTicks": 720,
          "midi": 32,
          "name": "G#1",
          "ticks": 88560,
          "time": 425.7691740000001,
          "velocity": 0.5039370078740157
        },
        {
          "duration": 3.4615380000000187,
          "durationTicks": 720,
          "midi": 31,
          "name": "G1",
          "ticks": 89280,
          "time": 429.23071200000004,
          "velocity": 0.5039370078740157
        },
        {
          "duration": 2.3076919999999745,
          "durationTicks": 480,
          "midi": 30,
          "name": "F#1",
          "ticks": 90000,
          "time": 432.69225000000006,
          "velocity": 0.6299212598425197
        },
        {
          "duration": 0.28846150000003945,
          "durationTicks": 60,
          "midi": 30,
          "name": "F#1",
          "ticks": 90660,
          "time": 435.86532650000004,
          "velocity": 0.6299212598425197
        },
        {
          "duration": 3.461537999999962,
          "durationTicks": 720,
          "midi": 31,
          "name": "G1",
          "ticks": 90720,
          "time": 436.1537880000001,
          "velocity": 0.6299212598425197
        },
        {
          "duration": 2.3076919999999745,
          "durationTicks": 480,
          "midi": 37,
          "name": "C#2",
          "ticks": 99360,
          "time": 477.6922440000001,
          "velocity": 0.6299212598425197
        },
        {
          "duration": 0.2884614999999826,
          "durationTicks": 60,
          "midi": 37,
          "name": "C#2",
          "ticks": 100020,
          "time": 480.86532050000005,
          "velocity": 0.5039370078740157
        },
        {
          "duration": 3.4615380000000187,
          "durationTicks": 720,
          "midi": 26,
          "name": "D1",
          "ticks": 100080,
          "time": 481.15378200000004,
          "velocity": 0.5039370078740157
        },
        {
          "duration": 3.4615380000000187,
          "durationTicks": 720,
          "midi": 24,
          "name": "C1",
          "ticks": 100800,
          "time": 484.61532000000005,
          "velocity": 0.5039370078740157
        },
        {
          "duration": 3.4615380000000187,
          "durationTicks": 720,
          "midi": 25,
          "name": "C#1",
          "ticks": 101520,
          "time": 488.0768580000001,
          "velocity": 0.5039370078740157
        },
        {
          "duration": 3.461537999999962,
          "durationTicks": 720,
          "midi": 26,
          "name": "D1",
          "ticks": 102240,
          "time": 491.5383960000001,
          "velocity": 0.5039370078740157
        },
        {
          "duration": 10.384614,
          "durationTicks": 2160,
          "midi": 31,
          "name": "G1",
          "ticks": 102960,
          "time": 494.99993400000005,
          "velocity": 0.5039370078740157
        }
      ],
      "endOfTrackTicks": 105120
    },
    {
      "channel": 0,
      "controlChanges": {},
      "pitchBends": [],
      "instrument": {
        "family": "piano",
        "number": 0,
        "name": "acoustic grand piano"
      },
      "name": "Albinoni : Adagio in G-min",
      "notes": [],
      "endOfTrackTicks": 0
    }
  ]
}