{
  "header": {
    "keySignatures": [],
    "meta": [],
    "name": "",
    "ppq": 96,
    "tempos": [
      {
        "bpm": 142.0000710000355,
        "ticks": 0
      }
    ],
    "timeSignatures": [
      {
        "ticks": 0,
        "timeSignature": [
          4,
          4
        ],
        "measures": 0
      }
    ]
  },
  "tracks": [
    {
      "channel": 0,
      "controlChanges": {},
      "pitchBends": [],
      "instrument": {
        "family": "piano",
        "number": 0,
        "name": "BASS"
      },
      "name": "BASS",
      "notes": [
        {
          "duration": 0.21126750000000002,
          "durationTicks": 48,
          "midi": 43,
          "name": "G2",
          "ticks": 0,
          "time": 0,
          "velocity": 0.7874015748031497
        },
        {
          "duration": 0.21126750000000002,
          "durationTicks": 48,
          "midi": 50,
          "name": "D3",
          "ticks": 48,
          "time": 0.21126750000000002,
          "velocity": 0.7874015748031497
        },
        {
          "duration": 0.2112675,
          "durationTicks": 48,
          "midi": 43,
          "name": "G2",
          "ticks": 96,
          "time": 0.42253500000000005,
          "velocity": 0.7874015748031497
        },
        {
          "duration": 0.21126750000000005,
          "durationTicks": 48,
          "midi": 50,
          "name": "D3",
          "ticks": 144,
          "time": 0.6338025,
          "velocity": 0.7874015748031497
        },
        {
          "duration": 0.21126750000000005,
          "durationTicks": 48,
          "midi": 43,
          "name": "G2",
          "ticks": 192,
          "time": 0.8450700000000001,
          "velocity": 0.7874015748031497
        },
        {
          "duration": 0.21126749999999994,
          "durationTicks": 48,
          "midi": 50,
          "name": "D3",
          "ticks": 240,
          "time": 1.0563375000000002,
          "velocity": 0.7874015748031497
        },
        {
          "duration": 0.21126750000000016,
          "durationTicks": 48,
          "midi": 43,
          "name": "G2",
          "ticks": 288,
          "time": 1.267605,
          "velocity": 0.7874015748031497
        },
        {
          "duration": 0.21126749999999994,
          "durationTicks": 48,
          "midi": 45,
          "name": "A2",
          "ticks": 336,
          "time": 1.4788725000000003,
          "velocity": 0.7874015748031497
        },
        {
          "duration": 0.21126749999999994,
          "durationTicks": 48,
          "midi": 45,
          "name": "A2",
          "ticks": 384,
          "time": 1.6901400000000002,
          "velocity": 0.7874015748031497
        },
        {
          "duration": 0.21126750000000016,
          "durationTicks": 48,
          "midi": 54,
          "name": "F#3",
          "ticks": 432,
          "time": 1.9014075000000001,
          "velocity": 0.7874015748031497
        },
        {
          "duration": 0.21126749999999994,
          "durationTicks": 48,
          "midi": 45,
          "name": "A2",
          "ticks": 480,
          "time": 2.1126750000000003,
          "velocity": 0.7874015748031497
        },
        {
          "duration": 0.21126749999999994,
          "durationTicks": 48,
          "midi": 54,
          "name": "F#3",
          "ticks": 528,
          "time": 2.3239425000000002,
          "velocity": 0.7874015748031497
        },
        {
          "duration": 0.21126749999999994,
          "durationTicks": 48,
          "midi": 45,
          "name": "A2",
          "ticks": 576,
          "time": 2.53521,
          "velocity": 0.7874015748031497
        },
        {
          "duration": 0.21126750000000039,
          "durationTicks": 48,
          "midi": 54,
          "name": "F#3",
          "ticks": 624,
          "time": 2.7464775,
          "velocity": 0.7874015748031497
        },
        {
          "duration": 0.21126749999999994,
          "durationTicks": 48,
          "midi": 45,
          "name": "A2",
          "ticks": 672,
          "time": 2.9577450000000005,
          "velocity": 0.7874015748031497
        },
        {
          "duration": 0.21126749999999994,
          "durationTicks": 48,
          "midi": 49,
          "name": "C#3",
          "ticks": 720,
          "time": 3.1690125000000005,
          "velocity": 0.7874015748031497
        },
        {
          "duration": 0.21126749999999994,
          "durationTicks": 48,
          "midi": 47,
          "name": "B2",
          "ticks": 768,
          "time": 3.3802800000000004,
          "velocity": 0.7874015748031497
        },
        {
          "duration": 0.21126749999999994,
          "durationTicks": 48,
          "midi": 50,
          "name": "D3",
          "ticks": 816,
          "time": 3.5915475000000003,
          "velocity": 0.7874015748031497
        },
        {
          "duration": 0.21126750000000039,
          "durationTicks": 48,
          "midi": 47,
          "name": "B2",
          "ticks": 864,
          "time": 3.8028150000000003,
          "velocity": 0.7874015748031497
        },
        {
          "duration": 0.21126749999999994,
          "durationTicks": 48,
          "midi": 50,
          "name": "D3",
          "ticks": 912,
          "time": 4.014082500000001,
          "velocity": 0.7874015748031497
        },
        {
          "duration": 0.21126749999999994,
          "durationTicks": 48,
          "midi": 47,
          "name": "B2",
          "ticks": 960,
          "time": 4.225350000000001,
          "velocity": 0.7874015748031497
        },
        {
          "duration": 0.21126749999999994,
          "durationTicks": 48,
          "midi": 50,
          "name": "D3",
          "ticks": 1008,
          "time": 4.4366175000000005,
          "velocity": 0.7874015748031497
        },
        {
          "duration": 0.21126749999999994,
          "durationTicks": 48,
          "midi": 47,
          "name": "B2",
          "ticks": 1056,
          "time": 4.6478850000000005,
          "velocity": 0.7874015748031497
        },
        {
          "duration": 0.21126749999999994,
          "durationTicks": 48,
          "midi": 50,
          "name": "D3",
          "ticks": 1104,
          "time": 4.8591525,
          "velocity": 0.7874015748031497
        },
        {
          "duration": 0.21126749999999994,
          "durationTicks": 48,
          "midi": 45,
          "name": "A2",
          "ticks": 1152,
          "time": 5.07042,
          "velocity": 0.7874015748031497
        },
        {
          "duration": 0.21126749999999994,
          "durationTicks": 48,
          "midi": 50,
          "name": "D3",
          "ticks": 1200,
          "time": 5.2816875,
          "velocity": 0.7874015748031497
        },
        {
          "duration": 0.21126750000000083,
          "durationTicks": 48,
          "midi": 45,
          "name": "A2",
          "ticks": 1248,
          "time": 5.492955,
          "velocity": 0.7874015748031497
        },
        {
          "duration": 0.21126749999999994,
          "durationTicks": 48,
          "midi": 50,
          "name": "D3",
          "ticks": 1296,
          "time": 5.704222500000001,
          "velocity": 0.7874015748031497
        },
        {
          "duration": 0.21126749999999994,
          "durationTicks": 48,
          "midi": 45,
          "name": "A2",
          "ticks": 1344,
          "time": 5.915490000000001,
          "velocity": 0.7874015748031497
        },
        {
          "duration": 0.21126749999999994,
          "durationTicks": 48,
          "midi": 50,
          "name": "D3",
          "ticks": 1392,
          "time": 6.126757500000001,
          "velocity": 0.7874015748031497
        },
        {
          "duration": 0.21126749999999994,
          "durationTicks": 48,
          "midi": 45,
          "name": "A2",
          "ticks": 1440,
          "time": 6.338025000000001,
          "velocity": 0.7874015748031497
        },
        {
          "duration": 0.21126749999999994,
          "durationTicks": 48,
          "midi": 50,
          "name": "D3",
          "ticks": 1488,
          "time": 6.549292500000001,
          "velocity": 0.7874015748031497
        },
        {
          "duration": 0.21126749999999994,
          "durationTicks": 48,
          "midi": 43,
          "name": "G2",
          "ticks": 1536,
          "time": 6.760560000000001,
          "velocity": 0.7874015748031497
        },
        {
          "duration": 0.21126749999999994,
          "durationTicks": 48,
          "midi": 50,
          "name": "D3",
          "ticks": 1584,
          "time": 6.971827500000001,
          "velocity": 0.7874015748031497
        },
        {
          "duration": 0.21126749999999994,
          "durationTicks": 48,
          "midi": 43,
          "name": "G2",
          "ticks": 1632,
          "time": 7.183095000000001,
          "velocity": 0.7874015748031497
        },
        {
          "duration": 0.21126749999999994,
          "durationTicks": 48,
          "midi": 50,
          "name": "D3",
          "ticks": 1680,
          "time": 7.394362500000001,
          "velocity": 0.7874015748031497
        },
        {
          "duration": 0.21126749999999994,
          "durationTicks": 48,
          "midi": 43,
          "name": "G2",
          "ticks": 1728,
          "time": 7.605630000000001,
          "velocity": 0.7874015748031497
        },
        {
          "duration": 0.21126750000000083,
          "durationTicks": 48,
          "midi": 50,
          "name": "D3",
          "ticks": 1776,
          "time": 7.8168975000000005,
          "velocity": 0.7874015748031497
        },
        {
          "duration": 0.21126749999999994,
          "durationTicks": 48,
          "midi": 43,
          "name": "G2",
          "ticks": 1824,
          "time": 8.028165000000001,
          "velocity": 0.7874015748031497
        },
        {
          "duration": 0.21126749999999994,
          "durationTicks": 48,
          "midi": 45,
          "name": "A2",
          "ticks": 1872,
          "time": 8.239432500000001,
          "velocity": 0.7874015748031497
        },
        {
          "duration": 0.21126749999999994,
          "durationTicks": 48,
          "midi": 45,
          "name": "A2",
          "ticks": 1920,
          "time": 8.450700000000001,
          "velocity": 0.7874015748031497
        },
        {
          "duration": 0.21126749999999994,
          "durationTicks": 48,
          "midi": 54,
          "name": "F#3",
          "ticks": 1968,
          "time": 8.661967500000001,
          "velocity": 0.7874015748031497
        },
        {
          "duration": 0.21126749999999994,
          "durationTicks": 48,
          "midi": 45,
          "name": "A2",
          "ticks": 2016,
          "time": 8.873235000000001,
          "velocity": 0.7874015748031497
        },
        {
          "duration": 0.21126749999999994,
          "durationTicks": 48,
          "midi": 54,
          "name": "F#3",
          "ticks": 2064,
          "time": 9.084502500000001,
          "velocity": 0.7874015748031497
        },
        {
          "duration": 0.21126749999999994,
          "durationTicks": 48,
          "midi": 45,
          "name": "A2",
          "ticks": 2112,
          "time": 9.295770000000001,
          "velocity": 0.7874015748031497
        },
        {
          "duration": 0.21126749999999994,
          "durationTicks": 48,
          "midi": 54,
          "name": "F#3",
          "ticks": 2160,
          "time": 9.507037500000001,
          "velocity": 0.7874015748031497
        },
        {
          "duration": 0.21126749999999994,
          "durationTicks": 48,
          "midi": 45,
          "name": "A2",
          "ticks": 2208,
          "time": 9.718305,
          "velocity": 0.7874015748031497
        },
        {
          "duration": 0.21126749999999994,
          "durationTicks": 48,
          "midi": 49,
          "name": "C#3",
          "ticks": 2256,
          "time": 9.9295725,
          "velocity": 0.7874015748031497
        },
        {
          "duration": 0.21126749999999994,
          "durationTicks": 48,
          "midi": 47,
          "name": "B2",
          "ticks": 2304,
          "time": 10.14084,
          "velocity": 0.7874015748031497
        },
        {
          "duration": 0.21126749999999994,
          "durationTicks": 48,
          "midi": 50,
          "name": "D3",
          "ticks": 2352,
          "time": 10.3521075,
          "velocity": 0.7874015748031497
        },
        {
          "duration": 0.21126749999999994,
          "durationTicks": 48,
          "midi": 47,
          "name": "B2",
          "ticks": 2400,
          "time": 10.563375,
          "velocity": 0.7874015748031497
        },
        {
          "duration": 0.21126749999999994,
          "durationTicks": 48,
          "midi": 50,
          "name": "D3",
          "ticks": 2448,
          "time": 10.7746425,
          "velocity": 0.7874015748031497
        },
        {
          "duration": 0.21126749999999994,
          "durationTicks": 48,
          "midi": 47,
          "name": "B2",
          "ticks": 2496,
          "time": 10.98591,
          "velocity": 0.7874015748031497
        },
        {
          "duration": 0.21126750000000172,
          "durationTicks": 48,
          "midi": 50,
          "name": "D3",
          "ticks": 2544,
          "time": 11.1971775,
          "velocity": 0.7874015748031497
        },
        {
          "duration": 0.21126749999999994,
          "durationTicks": 48,
          "midi": 47,
          "name": "B2",
          "ticks": 2592,
          "time": 11.408445000000002,
          "velocity": 0.7874015748031497
        },
        {
          "duration": 0.21126749999999994,
          "durationTicks": 48,
          "midi": 50,
          "name": "D3",
          "ticks": 2640,
          "time": 11.619712500000002,
          "velocity": 0.7874015748031497
        },
        {
          "duration": 0.21126749999999994,
          "durationTicks": 48,
          "midi": 45,
          "name": "A2",
          "ticks": 2688,
          "time": 11.830980000000002,
          "velocity": 0.7874015748031497
        },
        {
          "duration": 0.21126749999999994,
          "durationTicks": 48,
          "midi": 50,
          "name": "D3",
          "ticks": 2736,
          "time": 12.042247500000002,
          "velocity": 0.7874015748031497
        },
        {
          "duration": 0.21126749999999994,
          "durationTicks": 48,
          "midi": 45,
          "name": "A2",
          "ticks": 2784,
          "time": 12.253515000000002,
          "velocity": 0.7874015748031497
        },
        {
          "duration": 0.21126749999999994,
          "durationTicks": 48,
          "midi": 50,
          "name": "D3",
          "ticks": 2832,
          "time": 12.464782500000002,
          "velocity": 0.7874015748031497
        },
        {
          "duration": 0.21126749999999994,
          "durationTicks": 48,
          "midi": 45,
          "name": "A2",
          "ticks": 2880,
          "time": 12.676050000000002,
          "velocity": 0.7874015748031497
        },
        {
          "duration": 0.21126749999999994,
          "durationTicks": 48,
          "midi": 50,
          "name": "D3",
          "ticks": 2928,
          "time": 12.887317500000002,
          "velocity": 0.7874015748031497
        },
        {
          "duration": 0.21126749999999994,
          "durationTicks": 48,
          "midi": 45,
          "name": "A2",
          "ticks": 2976,
          "time": 13.098585000000002,
          "velocity": 0.7874015748031497
        },
        {
          "duration": 0.21126749999999994,
          "durationTicks": 48,
          "midi": 50,
          "name": "D3",
          "ticks": 3024,
          "time": 13.309852500000002,
          "velocity": 0.7874015748031497
        },
        {
          "duration": 0.21126749999999994,
          "durationTicks": 48,
          "midi": 43,
          "name": "G2",
          "ticks": 3072,
          "time": 13.521120000000002,
          "velocity": 0.7874015748031497
        },
        {
          "duration": 0.21126749999999994,
          "durationTicks": 48,
          "midi": 50,
          "name": "D3",
          "ticks": 3120,
          "time": 13.732387500000002,
          "velocity": 0.7874015748031497
        },
        {
          "duration": 0.21126749999999994,
          "durationTicks": 48,
          "midi": 43,
          "name": "G2",
          "ticks": 3168,
          "time": 13.943655000000001,
          "velocity": 0.7874015748031497
        },
        {
          "duration": 0.21126749999999994,
          "durationTicks": 48,
          "midi": 50,
          "name": "D3",
          "ticks": 3216,
          "time": 14.154922500000001,
          "velocity": 0.7874015748031497
        },
        {
          "duration": 0.21126749999999994,
          "durationTicks": 48,
          "midi": 43,
          "name": "G2",
          "ticks": 3264,
          "time": 14.366190000000001,
          "velocity": 0.7874015748031497
        },
        {
          "duration": 0.21126749999999994,
          "durationTicks": 48,
          "midi": 50,
          "name": "D3",
          "ticks": 3312,
          "time": 14.577457500000001,
          "velocity": 0.7874015748031497
        },
        {
          "duration": 0.21126749999999994,
          "durationTicks": 48,
          "midi": 43,
          "name": "G2",
          "ticks": 3360,
          "time": 14.788725000000001,
          "velocity": 0.7874015748031497
        },
        {
          "duration": 0.21126749999999994,
          "durationTicks": 48,
          "midi": 45,
          "name": "A2",
          "ticks": 3408,
          "time": 14.999992500000001,
          "velocity": 0.7874015748031497
        },
        {
          "duration": 0.21126749999999994,
          "durationTicks": 48,
          "midi": 45,
          "name": "A2",
          "ticks": 3456,
          "time": 15.211260000000001,
          "velocity": 0.7874015748031497
        },
        {
          "duration": 0.21126749999999994,
          "durationTicks": 48,
          "midi": 54,
          "name": "F#3",
          "ticks": 3504,
          "time": 15.422527500000001,
          "velocity": 0.7874015748031497
        },
        {
          "duration": 0.21126750000000172,
          "durationTicks": 48,
          "midi": 45,
          "name": "A2",
          "ticks": 3552,
          "time": 15.633795000000001,
          "velocity": 0.7874015748031497
        },
        {
          "duration": 0.21126749999999994,
          "durationTicks": 48,
          "midi": 54,
          "name": "F#3",
          "ticks": 3600,
          "time": 15.845062500000003,
          "velocity": 0.7874015748031497
        },
        {
          "duration": 0.21126749999999817,
          "durationTicks": 48,
          "midi": 45,
          "name": "A2",
          "ticks": 3648,
          "time": 16.056330000000003,
          "velocity": 0.7874015748031497
        },
        {
          "duration": 0.21126750000000172,
          "durationTicks": 48,
          "midi": 54,
          "name": "F#3",
          "ticks": 3696,
          "time": 16.2675975,
          "velocity": 0.7874015748031497
        },
        {
          "duration": 0.21126749999999817,
          "durationTicks": 48,
          "midi": 45,
          "name": "A2",
          "ticks": 3744,
          "time": 16.478865000000003,
          "velocity": 0.7874015748031497
        },
        {
          "duration": 0.21126750000000172,
          "durationTicks": 48,
          "midi": 49,
          "name": "C#3",
          "ticks": 3792,
          "time": 16.6901325,
          "velocity": 0.7874015748031497
        },
        {
          "duration": 0.21126749999999817,
          "durationTicks": 48,
          "midi": 47,
          "name": "B2",
          "ticks": 3840,
          "time": 16.901400000000002,
          "velocity": 0.7874015748031497
        },
        {
          "duration": 0.21126750000000172,
          "durationTicks": 48,
          "midi": 50,
          "name": "D3",
          "ticks": 3888,
          "time": 17.1126675,
          "velocity": 0.7874015748031497
        },
        {
          "duration": 0.21126749999999817,
          "durationTicks": 48,
          "midi": 47,
          "name": "B2",
          "ticks": 3936,
          "time": 17.323935000000002,
          "velocity": 0.7874015748031497
        },
        {
          "duration": 0.21126750000000172,
          "durationTicks": 48,
          "midi": 50,
          "name": "D3",
          "ticks": 3984,
          "time": 17.5352025,
          "velocity": 0.7874015748031497
        },
        {
          "duration": 0.21126749999999817,
          "durationTicks": 48,
          "midi": 47,
          "name": "B2",
          "ticks": 4032,
          "time": 17.746470000000002,
          "velocity": 0.7874015748031497
        },
        {
          "duration": 0.21126750000000172,
          "durationTicks": 48,
          "midi": 50,
          "name": "D3",
          "ticks": 4080,
          "time": 17.9577375,
          "velocity": 0.7874015748031497
        },
        {
          "duration": 0.21126750000000172,
          "durationTicks": 48,
          "midi": 47,
          "name": "B2",
          "ticks": 4128,
          "time": 18.169005000000002,
          "velocity": 0.7874015748031497
        },
        {
          "duration": 0.21126749999999817,
          "durationTicks": 48,
          "midi": 50,
          "name": "D3",
          "ticks": 4176,
          "time": 18.380272500000004,
          "velocity": 0.7874015748031497
        },
        {
          "duration": 0.21126750000000172,
          "durationTicks": 48,
          "midi": 45,
          "name": "A2",
          "ticks": 4224,
          "time": 18.591540000000002,
          "velocity": 0.7874015748031497
        },
        {
          "duration": 0.21126749999999817,
          "durationTicks": 48,
          "midi": 50,
          "name": "D3",
          "ticks": 4272,
          "time": 18.802807500000004,
          "velocity": 0.7874015748031497
        },
        {
          "duration": 0.21126750000000172,
          "durationTicks": 48,
          "midi": 45,
          "name": "A2",
          "ticks": 4320,
          "time": 19.014075000000002,
          "velocity": 0.7874015748031497
        },
        {
          "duration": 0.21126749999999817,
          "durationTicks": 48,
          "midi": 50,
          "name": "D3",
          "ticks": 4368,
          "time": 19.225342500000004,
          "velocity": 0.7874015748031497
        },
        {
          "duration": 0.21126750000000172,
          "durationTicks": 48,
          "midi": 45,
          "name": "A2",
          "ticks": 4416,
          "time": 19.43661,
          "velocity": 0.7874015748031497
        },
        {
          "duration": 0.21126749999999817,
          "durationTicks": 48,
          "midi": 50,
          "name": "D3",
          "ticks": 4464,
          "time": 19.647877500000003,
          "velocity": 0.7874015748031497
        },
        {
          "duration": 0.21126750000000172,
          "durationTicks": 48,
          "midi": 45,
          "name": "A2",
          "ticks": 4512,
          "time": 19.859145,
          "velocity": 0.7874015748031497
        },
        {
          "duration": 0.21126749999999817,
          "durationTicks": 48,
          "midi": 50,
          "name": "D3",
          "ticks": 4560,
          "time": 20.070412500000003,
          "velocity": 0.7874015748031497
        },
        {
          "duration": 0.21126750000000172,
          "durationTicks": 48,
          "midi": 43,
          "name": "G2",
          "ticks": 4608,
          "time": 20.28168,
          "velocity": 0.7874015748031497
        },
        {
          "duration": 0.21126749999999817,
          "durationTicks": 48,
          "midi": 50,
          "name": "D3",
          "ticks": 4656,
          "time": 20.492947500000003,
          "velocity": 0.7874015748031497
        },
        {
          "duration": 0.21126750000000172,
          "durationTicks": 48,
          "midi": 43,
          "name": "G2",
          "ticks": 4704,
          "time": 20.704215,
          "velocity": 0.7874015748031497
        },
        {
          "duration": 0.21126749999999817,
          "durationTicks": 48,
          "midi": 50,
          "name": "D3",
          "ticks": 4752,
          "time": 20.915482500000003,
          "velocity": 0.7874015748031497
        },
        {
          "duration": 0.21126750000000172,
          "durationTicks": 48,
          "midi": 43,
          "name": "G2",
          "ticks": 4800,
          "time": 21.12675,
          "velocity": 0.7874015748031497
        },
        {
          "duration": 0.21126749999999817,
          "durationTicks": 48,
          "midi": 50,
          "name": "D3",
          "ticks": 4848,
          "time": 21.338017500000003,
          "velocity": 0.7874015748031497
        },
        {
          "duration": 0.21126750000000172,
          "durationTicks": 48,
          "midi": 43,
          "name": "G2",
          "ticks": 4896,
          "time": 21.549285,
          "velocity": 0.7874015748031497
        },
        {
          "duration": 0.21126749999999817,
          "durationTicks": 48,
          "midi": 45,
          "name": "A2",
          "ticks": 4944,
          "time": 21.760552500000003,
          "velocity": 0.7874015748031497
        },
        {
          "duration": 0.21126750000000172,
          "durationTicks": 48,
          "midi": 45,
          "name": "A2",
          "ticks": 4992,
          "time": 21.97182,
          "velocity": 0.7874015748031497
        },
        {
          "duration": 0.21126749999999817,
          "durationTicks": 48,
          "midi": 54,
          "name": "F#3",
          "ticks": 5040,
          "time": 22.183087500000003,
          "velocity": 0.7874015748031497
        },
        {
          "duration": 0.21126750000000172,
          "durationTicks": 48,
          "midi": 45,
          "name": "A2",
          "ticks": 5088,
          "time": 22.394355,
          "velocity": 0.7874015748031497
        },
        {
          "duration": 0.21126750000000172,
          "durationTicks": 48,
          "midi": 54,
          "name": "F#3",
          "ticks": 5136,
          "time": 22.605622500000003,
          "velocity": 0.7874015748031497
        },
        {
          "duration": 0.21126749999999817,
          "durationTicks": 48,
          "midi": 45,
          "name": "A2",
          "ticks": 5184,
          "time": 22.816890000000004,
          "velocity": 0.7874015748031497
        },
        {
          "duration": 0.21126750000000172,
          "durationTicks": 48,
          "midi": 54,
          "name": "F#3",
          "ticks": 5232,
          "time": 23.028157500000002,
          "velocity": 0.7874015748031497
        },
        {
          "duration": 0.21126749999999817,
          "durationTicks": 48,
          "midi": 45,
          "name": "A2",
          "ticks": 5280,
          "time": 23.239425000000004,
          "velocity": 0.7874015748031497
        },
        {
          "duration": 0.21126750000000172,
          "durationTicks": 48,
          "midi": 49,
          "name": "C#3",
          "ticks": 5328,
          "time": 23.450692500000002,
          "velocity": 0.7874015748031497
        },
        {
          "duration": 0.21126749999999817,
          "durationTicks": 48,
          "midi": 47,
          "name": "B2",
          "ticks": 5376,
          "time": 23.661960000000004,
          "velocity": 0.7874015748031497
        },
        {
          "duration": 0.21126750000000172,
          "durationTicks": 48,
          "midi": 50,
          "name": "D3",
          "ticks": 5424,
          "time": 23.873227500000002,
          "velocity": 0.7874015748031497
        },
        {
          "duration": 0.21126749999999817,
          "durationTicks": 48,
          "midi": 47,
          "name": "B2",
          "ticks": 5472,
          "time": 24.084495000000004,
          "velocity": 0.7874015748031497
        },
        {
          "duration": 0.21126750000000172,
          "durationTicks": 48,
          "midi": 50,
          "name": "D3",
          "ticks": 5520,
          "time": 24.295762500000002,
          "velocity": 0.7874015748031497
        },
        {
          "duration": 0.21126749999999817,
          "durationTicks": 48,
          "midi": 47,
          "name": "B2",
          "ticks": 5568,
          "time": 24.507030000000004,
          "velocity": 0.7874015748031497
        },
        {
          "duration": 0.21126750000000172,
          "durationTicks": 48,
          "midi": 50,
          "name": "D3",
          "ticks": 5616,
          "time": 24.718297500000002,
          "velocity": 0.7874015748031497
        },
        {
          "duration": 0.21126749999999817,
          "durationTicks": 48,
          "midi": 47,
          "name": "B2",
          "ticks": 5664,
          "time": 24.929565000000004,
          "velocity": 0.7874015748031497
        },
        {
          "duration": 0.21126750000000172,
          "durationTicks": 48,
          "midi": 50,
          "name": "D3",
          "ticks": 5712,
          "time": 25.140832500000002,
          "velocity": 0.7874015748031497
        },
        {
          "duration": 0.21126749999999817,
          "durationTicks": 48,
          "midi": 45,
          "name": "A2",
          "ticks": 5760,
          "time": 25.352100000000004,
          "velocity": 0.7874015748031497
        },
        {
          "duration": 0.21126750000000172,
          "durationTicks": 48,
          "midi": 50,
          "name": "D3",
          "ticks": 5808,
          "time": 25.563367500000002,
          "velocity": 0.7874015748031497
        },
        {
          "duration": 0.21126749999999817,
          "durationTicks": 48,
          "midi": 45,
          "name": "A2",
          "ticks": 5856,
          "time": 25.774635000000004,
          "velocity": 0.7874015748031497
        },
        {
          "duration": 0.21126750000000172,
          "durationTicks": 48,
          "midi": 50,
          "name": "D3",
          "ticks": 5904,
          "time": 25.9859025,
          "velocity": 0.7874015748031497
        },
        {
          "duration": 0.21126749999999817,
          "durationTicks": 48,
          "midi": 45,
          "name": "A2",
          "ticks": 5952,
          "time": 26.197170000000003,
          "velocity": 0.7874015748031497
        },
        {
          "duration": 0.21126750000000172,
          "durationTicks": 48,
          "midi": 50,
          "name": "D3",
          "ticks": 6000,
          "time": 26.4084375,
          "velocity": 0.7874015748031497
        },
        {
          "duration": 0.21126749999999817,
          "durationTicks": 48,
          "midi": 45,
          "name": "A2",
          "ticks": 6048,
          "time": 26.619705000000003,
          "velocity": 0.7874015748031497
        },
        {
          "duration": 0.21126750000000172,
          "durationTicks": 48,
          "midi": 50,
          "name": "D3",
          "ticks": 6096,
          "time": 26.8309725,
          "velocity": 0.7874015748031497
        },
        {
          "duration": 0.21126750000000172,
          "durationTicks": 48,
          "midi": 43,
          "name": "G2",
          "ticks": 6144,
          "time": 27.042240000000003,
          "velocity": 0.7874015748031497
        },
        {
          "duration": 0.21126749999999817,
          "durationTicks": 48,
          "midi": 50,
          "name": "D3",
          "ticks": 6192,
          "time": 27.253507500000005,
          "velocity": 0.7874015748031497
        },
        {
          "duration": 0.21126750000000172,
          "durationTicks": 48,
          "midi": 43,
          "name": "G2",
          "ticks": 6240,
          "time": 27.464775000000003,
          "velocity": 0.7874015748031497
        },
        {
          "duration": 0.21126749999999817,
          "durationTicks": 48,
          "midi": 50,
          "name": "D3",
          "ticks": 6288,
          "time": 27.676042500000005,
          "velocity": 0.7874015748031497
        },
        {
          "duration": 0.21126750000000172,
          "durationTicks": 48,
          "midi": 43,
          "name": "G2",
          "ticks": 6336,
          "time": 27.887310000000003,
          "velocity": 0.7874015748031497
        },
        {
          "duration": 0.21126749999999817,
          "durationTicks": 48,
          "midi": 50,
          "name": "D3",
          "ticks": 6384,
          "time": 28.098577500000005,
          "velocity": 0.7874015748031497
        },
        {
          "duration": 0.21126750000000172,
          "durationTicks": 48,
          "midi": 43,
          "name": "G2",
          "ticks": 6432,
          "time": 28.309845000000003,
          "velocity": 0.7874015748031497
        },
        {
          "duration": 0.21126749999999817,
          "durationTicks": 48,
          "midi": 45,
          "name": "A2",
          "ticks": 6480,
          "time": 28.521112500000005,
          "velocity": 0.7874015748031497
        },
        {
          "duration": 0.21126750000000172,
          "durationTicks": 48,
          "midi": 45,
          "name": "A2",
          "ticks": 6528,
          "time": 28.732380000000003,
          "velocity": 0.7874015748031497
        },
        {
          "duration": 0.21126749999999817,
          "durationTicks": 48,
          "midi": 54,
          "name": "F#3",
          "ticks": 6576,
          "time": 28.943647500000004,
          "velocity": 0.7874015748031497
        },
        {
          "duration": 0.21126750000000172,
          "durationTicks": 48,
          "midi": 45,
          "name": "A2",
          "ticks": 6624,
          "time": 29.154915000000003,
          "velocity": 0.7874015748031497
        },
        {
          "duration": 0.21126749999999817,
          "durationTicks": 48,
          "midi": 54,
          "name": "F#3",
          "ticks": 6672,
          "time": 29.366182500000004,
          "velocity": 0.7874015748031497
        },
        {
          "duration": 0.21126750000000172,
          "durationTicks": 48,
          "midi": 45,
          "name": "A2",
          "ticks": 6720,
          "time": 29.577450000000002,
          "velocity": 0.7874015748031497
        },
        {
          "duration": 0.21126749999999817,
          "durationTicks": 48,
          "midi": 54,
          "name": "F#3",
          "ticks": 6768,
          "time": 29.788717500000004,
          "velocity": 0.7874015748031497
        },
        {
          "duration": 0.21126750000000172,
          "durationTicks": 48,
          "midi": 45,
          "name": "A2",
          "ticks": 6816,
          "time": 29.999985000000002,
          "velocity": 0.7874015748031497
        },
        {
          "duration": 0.21126749999999817,
          "durationTicks": 48,
          "midi": 49,
          "name": "C#3",
          "ticks": 6864,
          "time": 30.211252500000004,
          "velocity": 0.7874015748031497
        },
        {
          "duration": 0.21126750000000172,
          "durationTicks": 48,
          "midi": 47,
          "name": "B2",
          "ticks": 6912,
          "time": 30.422520000000002,
          "velocity": 0.7874015748031497
        },
        {
          "duration": 0.21126749999999817,
          "durationTicks": 48,
          "midi": 50,
          "name": "D3",
          "ticks": 6960,
          "time": 30.633787500000004,
          "velocity": 0.7874015748031497
        },
        {
          "duration": 0.21126750000000172,
          "durationTicks": 48,
          "midi": 47,
          "name": "B2",
          "ticks": 7008,
          "time": 30.845055000000002,
          "velocity": 0.7874015748031497
        },
        {
          "duration": 0.21126749999999817,
          "durationTicks": 48,
          "midi": 50,
          "name": "D3",
          "ticks": 7056,
          "time": 31.056322500000004,
          "velocity": 0.7874015748031497
        },
        {
          "duration": 0.21126750000000172,
          "durationTicks": 48,
          "midi": 47,
          "name": "B2",
          "ticks": 7104,
          "time": 31.267590000000002,
          "velocity": 0.7874015748031497
        },
        {
          "duration": 0.21126750000000172,
          "durationTicks": 48,
          "midi": 50,
          "name": "D3",
          "ticks": 7152,
          "time": 31.478857500000004,
          "velocity": 0.7874015748031497
        },
        {
          "duration": 0.21126749999999817,
          "durationTicks": 48,
          "midi": 47,
          "name": "B2",
          "ticks": 7200,
          "time": 31.690125000000005,
          "velocity": 0.7874015748031497
        },
        {
          "duration": 0.21126750000000172,
          "durationTicks": 48,
          "midi": 50,
          "name": "D3",
          "ticks": 7248,
          "time": 31.901392500000004,
          "velocity": 0.7874015748031497
        },
        {
          "duration": 0.21126749999999817,
          "durationTicks": 48,
          "midi": 45,
          "name": "A2",
          "ticks": 7296,
          "time": 32.112660000000005,
          "velocity": 0.7874015748031497
        },
        {
          "duration": 0.21126749999999817,
          "durationTicks": 48,
          "midi": 50,
          "name": "D3",
          "ticks": 7344,
          "time": 32.3239275,
          "velocity": 0.7874015748031497
        },
        {
          "duration": 0.21126750000000527,
          "durationTicks": 48,
          "midi": 45,
          "name": "A2",
          "ticks": 7392,
          "time": 32.535195,
          "velocity": 0.7874015748031497
        },
        {
          "duration": 0.21126749999999817,
          "durationTicks": 48,
          "midi": 50,
          "name": "D3",
          "ticks": 7440,
          "time": 32.74646250000001,
          "velocity": 0.7874015748031497
        },
        {
          "duration": 0.21126749999999817,
          "durationTicks": 48,
          "midi": 45,
          "name": "A2",
          "ticks": 7488,
          "time": 32.957730000000005,
          "velocity": 0.7874015748031497
        },
        {
          "duration": 0.21126749999999817,
          "durationTicks": 48,
          "midi": 50,
          "name": "D3",
          "ticks": 7536,
          "time": 33.1689975,
          "velocity": 0.7874015748031497
        },
        {
          "duration": 0.21126750000000527,
          "durationTicks": 48,
          "midi": 45,
          "name": "A2",
          "ticks": 7584,
          "time": 33.380265,
          "velocity": 0.7874015748031497
        },
        {
          "duration": 0.21126749999999817,
          "durationTicks": 48,
          "midi": 50,
          "name": "D3",
          "ticks": 7632,
          "time": 33.59153250000001,
          "velocity": 0.7874015748031497
        },
        {
          "duration": 0.21126749999999817,
          "durationTicks": 48,
          "midi": 43,
          "name": "G2",
          "ticks": 7680,
          "time": 33.802800000000005,
          "velocity": 0.7874015748031497
        },
        {
          "duration": 0.21126749999999817,
          "durationTicks": 48,
          "midi": 50,
          "name": "D3",
          "ticks": 7728,
          "time": 34.0140675,
          "velocity": 0.7874015748031497
        },
        {
          "duration": 0.21126750000000527,
          "durationTicks": 48,
          "midi": 43,
          "name": "G2",
          "ticks": 7776,
          "time": 34.225335,
          "velocity": 0.7874015748031497
        },
        {
          "duration": 0.21126749999999817,
          "durationTicks": 48,
          "midi": 50,
          "name": "D3",
          "ticks": 7824,
          "time": 34.436602500000006,
          "velocity": 0.7874015748031497
        },
        {
          "duration": 0.21126749999999817,
          "durationTicks": 48,
          "midi": 43,
          "name": "G2",
          "ticks": 7872,
          "time": 34.647870000000005,
          "velocity": 0.7874015748031497
        },
        {
          "duration": 0.21126749999999817,
          "durationTicks": 48,
          "midi": 50,
          "name": "D3",
          "ticks": 7920,
          "time": 34.8591375,
          "velocity": 0.7874015748031497
        },
        {
          "duration": 0.21126750000000527,
          "durationTicks": 48,
          "midi": 43,
          "name": "G2",
          "ticks": 7968,
          "time": 35.070405,
          "velocity": 0.7874015748031497
        },
        {
          "duration": 0.21126749999999817,
          "durationTicks": 48,
          "midi": 45,
          "name": "A2",
          "ticks": 8016,
          "time": 35.281672500000006,
          "velocity": 0.7874015748031497
        },
        {
          "duration": 0.21126749999999817,
          "durationTicks": 48,
          "midi": 45,
          "name": "A2",
          "ticks": 8064,
          "time": 35.492940000000004,
          "velocity": 0.7874015748031497
        },
        {
          "duration": 0.21126749999999817,
          "durationTicks": 48,
          "midi": 54,
          "name": "F#3",
          "ticks": 8112,
          "time": 35.7042075,
          "velocity": 0.7874015748031497
        },
        {
          "duration": 0.21126750000000527,
          "durationTicks": 48,
          "midi": 45,
          "name": "A2",
          "ticks": 8160,
          "time": 35.915475,
          "velocity": 0.7874015748031497
        },
        {
          "duration": 0.21126749999999817,
          "durationTicks": 48,
          "midi": 54,
          "name": "F#3",
          "ticks": 8208,
          "time": 36.126742500000006,
          "velocity": 0.7874015748031497
        },
        {
          "duration": 0.21126749999999817,
          "durationTicks": 48,
          "midi": 45,
          "name": "A2",
          "ticks": 8256,
          "time": 36.338010000000004,
          "velocity": 0.7874015748031497
        },
        {
          "duration": 0.21126750000000527,
          "durationTicks": 48,
          "midi": 54,
          "name": "F#3",
          "ticks": 8304,
          "time": 36.5492775,
          "velocity": 0.7874015748031497
        },
        {
          "duration": 0.21126749999999817,
          "durationTicks": 48,
          "midi": 45,
          "name": "A2",
          "ticks": 8352,
          "time": 36.76054500000001,
          "velocity": 0.7874015748031497
        },
        {
          "duration": 0.21126749999999817,
          "durationTicks": 48,
          "midi": 49,
          "name": "C#3",
          "ticks": 8400,
          "time": 36.971812500000006,
          "velocity": 0.7874015748031497
        },
        {
          "duration": 0.21126749999999817,
          "durationTicks": 48,
          "midi": 47,
          "name": "B2",
          "ticks": 8448,
          "time": 37.183080000000004,
          "velocity": 0.7874015748031497
        },
        {
          "duration": 0.21126750000000527,
          "durationTicks": 48,
          "midi": 50,
          "name": "D3",
          "ticks": 8496,
          "time": 37.3943475,
          "velocity": 0.7874015748031497
        },
        {
          "duration": 0.21126749999999817,
          "durationTicks": 48,
          "midi": 47,
          "name": "B2",
          "ticks": 8544,
          "time": 37.60561500000001,
          "velocity": 0.7874015748031497
        },
        {
          "duration": 0.21126749999999817,
          "durationTicks": 48,
          "midi": 50,
          "name": "D3",
          "ticks": 8592,
          "time": 37.816882500000006,
          "velocity": 0.7874015748031497
        },
        {
          "duration": 0.21126749999999817,
          "durationTicks": 48,
          "midi": 47,
          "name": "B2",
          "ticks": 8640,
          "time": 38.028150000000004,
          "velocity": 0.7874015748031497
        },
        {
          "duration": 0.21126750000000527,
          "durationTicks": 48,
          "midi": 50,
          "name": "D3",
          "ticks": 8688,
          "time": 38.2394175,
          "velocity": 0.7874015748031497
        },
        {
          "duration": 0.21126749999999817,
          "durationTicks": 48,
          "midi": 47,
          "name": "B2",
          "ticks": 8736,
          "time": 38.45068500000001,
          "velocity": 0.7874015748031497
        },
        {
          "duration": 0.2068660937499942,
          "durationTicks": 47,
          "midi": 50,
          "name": "D3",
          "ticks": 8784,
          "time": 38.661952500000005,
          "velocity": 0.7874015748031497
        },
        {
          "duration": 0.21126750000000527,
          "durationTicks": 48,
          "midi": 43,
          "name": "G2",
          "ticks": 15360,
          "time": 67.60560000000001,
          "velocity": 0.7874015748031497
        },
        {
          "duration": 0.21126749999999106,
          "durationTicks": 48,
          "midi": 50,
          "name": "D3",
          "ticks": 15408,
          "time": 67.81686750000001,
          "velocity": 0.7874015748031497
        },
        {
          "duration": 0.21126750000000527,
          "durationTicks": 48,
          "midi": 43,
          "name": "G2",
          "ticks": 15456,
          "time": 68.028135,
          "velocity": 0.7874015748031497
        },
        {
          "duration": 0.21126749999999106,
          "durationTicks": 48,
          "midi": 50,
          "name": "D3",
          "ticks": 15504,
          "time": 68.23940250000001,
          "velocity": 0.7874015748031497
        },
        {
          "duration": 0.21126750000000527,
          "durationTicks": 48,
          "midi": 43,
          "name": "G2",
          "ticks": 15552,
          "time": 68.45067,
          "velocity": 0.7874015748031497
        },
        {
          "duration": 0.21126750000000527,
          "durationTicks": 48,
          "midi": 50,
          "name": "D3",
          "ticks": 15600,
          "time": 68.66193750000001,
          "velocity": 0.7874015748031497
        },
        {
          "duration": 0.21126749999999106,
          "durationTicks": 48,
          "midi": 43,
          "name": "G2",
          "ticks": 15648,
          "time": 68.87320500000001,
          "velocity": 0.7874015748031497
        },
        {
          "duration": 0.21126750000000527,
          "durationTicks": 48,
          "midi": 45,
          "name": "A2",
          "ticks": 15696,
          "time": 69.0844725,
          "velocity": 0.7874015748031497
        },
        {
          "duration": 0.21126750000000527,
          "durationTicks": 48,
          "midi": 45,
          "name": "A2",
          "ticks": 15744,
          "time": 69.29574000000001,
          "velocity": 0.7874015748031497
        },
        {
          "duration": 0.21126749999999106,
          "durationTicks": 48,
          "midi": 54,
          "name": "F#3",
          "ticks": 15792,
          "time": 69.50700750000001,
          "velocity": 0.7874015748031497
        },
        {
          "duration": 0.21126750000000527,
          "durationTicks": 48,
          "midi": 45,
          "name": "A2",
          "ticks": 15840,
          "time": 69.718275,
          "velocity": 0.7874015748031497
        },
        {
          "duration": 0.21126749999999106,
          "durationTicks": 48,
          "midi": 54,
          "name": "F#3",
          "ticks": 15888,
          "time": 69.92954250000001,
          "velocity": 0.7874015748031497
        },
        {
          "duration": 0.21126750000000527,
          "durationTicks": 48,
          "midi": 45,
          "name": "A2",
          "ticks": 15936,
          "time": 70.14081,
          "velocity": 0.7874015748031497
        },
        {
          "duration": 0.21126750000000527,
          "durationTicks": 48,
          "midi": 54,
          "name": "F#3",
          "ticks": 15984,
          "time": 70.35207750000001,
          "velocity": 0.7874015748031497
        },
        {
          "duration": 0.21126749999999106,
          "durationTicks": 48,
          "midi": 45,
          "name": "A2",
          "ticks": 16032,
          "time": 70.56334500000001,
          "velocity": 0.7874015748031497
        },
        {
          "duration": 0.21126750000000527,
          "durationTicks": 48,
          "midi": 49,
          "name": "C#3",
          "ticks": 16080,
          "time": 70.7746125,
          "velocity": 0.7874015748031497
        },
        {
          "duration": 0.21126750000000527,
          "durationTicks": 48,
          "midi": 47,
          "name": "B2",
          "ticks": 16128,
          "time": 70.98588000000001,
          "velocity": 0.7874015748031497
        },
        {
          "duration": 0.21126749999999106,
          "durationTicks": 48,
          "midi": 50,
          "name": "D3",
          "ticks": 16176,
          "time": 71.19714750000001,
          "velocity": 0.7874015748031497
        },
        {
          "duration": 0.21126750000000527,
          "durationTicks": 48,
          "midi": 47,
          "name": "B2",
          "ticks": 16224,
          "time": 71.408415,
          "velocity": 0.7874015748031497
        },
        {
          "duration": 0.21126749999999106,
          "durationTicks": 48,
          "midi": 50,
          "name": "D3",
          "ticks": 16272,
          "time": 71.61968250000001,
          "velocity": 0.7874015748031497
        },
        {
          "duration": 0.21126750000000527,
          "durationTicks": 48,
          "midi": 47,
          "name": "B2",
          "ticks": 16320,
          "time": 71.83095,
          "velocity": 0.7874015748031497
        },
        {
          "duration": 0.21126750000000527,
          "durationTicks": 48,
          "midi": 50,
          "name": "D3",
          "ticks": 16368,
          "time": 72.0422175,
          "velocity": 0.7874015748031497
        },
        {
          "duration": 0.21126749999999106,
          "durationTicks": 48,
          "midi": 47,
          "name": "B2",
          "ticks": 16416,
          "time": 72.25348500000001,
          "velocity": 0.7874015748031497
        },
        {
          "duration": 0.21126750000000527,
          "durationTicks": 48,
          "midi": 50,
          "name": "D3",
          "ticks": 16464,
          "time": 72.4647525,
          "velocity": 0.7874015748031497
        },
        {
          "duration": 0.21126750000000527,
          "durationTicks": 48,
          "midi": 45,
          "name": "A2",
          "ticks": 16512,
          "time": 72.67602000000001,
          "velocity": 0.7874015748031497
        },
        {
          "duration": 0.21126749999999106,
          "durationTicks": 48,
          "midi": 50,
          "name": "D3",
          "ticks": 16560,
          "time": 72.88728750000001,
          "velocity": 0.7874015748031497
        },
        {
          "duration": 0.21126750000000527,
          "durationTicks": 48,
          "midi": 45,
          "name": "A2",
          "ticks": 16608,
          "time": 73.098555,
          "velocity": 0.7874015748031497
        },
        {
          "duration": 0.21126750000000527,
          "durationTicks": 48,
          "midi": 50,
          "name": "D3",
          "ticks": 16656,
          "time": 73.30982250000001,
          "velocity": 0.7874015748031497
        },
        {
          "duration": 0.21126749999999106,
          "durationTicks": 48,
          "midi": 45,
          "name": "A2",
          "ticks": 16704,
          "time": 73.52109000000002,
          "velocity": 0.7874015748031497
        },
        {
          "duration": 0.21126750000000527,
          "durationTicks": 48,
          "midi": 50,
          "name": "D3",
          "ticks": 16752,
          "time": 73.7323575,
          "velocity": 0.7874015748031497
        },
        {
          "duration": 0.21126749999999106,
          "durationTicks": 48,
          "midi": 45,
          "name": "A2",
          "ticks": 16800,
          "time": 73.94362500000001,
          "velocity": 0.7874015748031497
        },
        {
          "duration": 0.21126750000000527,
          "durationTicks": 48,
          "midi": 50,
          "name": "D3",
          "ticks": 16848,
          "time": 74.1548925,
          "velocity": 0.7874015748031497
        },
        {
          "duration": 0.21126750000000527,
          "durationTicks": 48,
          "midi": 43,
          "name": "G2",
          "ticks": 16896,
          "time": 74.36616000000001,
          "velocity": 0.7874015748031497
        },
        {
          "duration": 0.21126749999999106,
          "durationTicks": 48,
          "midi": 50,
          "name": "D3",
          "ticks": 16944,
          "time": 74.57742750000001,
          "velocity": 0.7874015748031497
        },
        {
          "duration": 0.21126750000000527,
          "durationTicks": 48,
          "midi": 43,
          "name": "G2",
          "ticks": 16992,
          "time": 74.788695,
          "velocity": 0.7874015748031497
        },
        {
          "duration": 0.21126750000000527,
          "durationTicks": 48,
          "midi": 50,
          "name": "D3",
          "ticks": 17040,
          "time": 74.99996250000001,
          "velocity": 0.7874015748031497
        },
        {
          "duration": 0.21126749999999106,
          "durationTicks": 48,
          "midi": 43,
          "name": "G2",
          "ticks": 17088,
          "time": 75.21123000000001,
          "velocity": 0.7874015748031497
        },
        {
          "duration": 0.21126750000000527,
          "durationTicks": 48,
          "midi": 50,
          "name": "D3",
          "ticks": 17136,
          "time": 75.4224975,
          "velocity": 0.7874015748031497
        },
        {
          "duration": 0.21126749999999106,
          "durationTicks": 48,
          "midi": 43,
          "name": "G2",
          "ticks": 17184,
          "time": 75.63376500000001,
          "velocity": 0.7874015748031497
        },
        {
          "duration": 0.21126750000000527,
          "durationTicks": 48,
          "midi": 45,
          "name": "A2",
          "ticks": 17232,
          "time": 75.8450325,
          "velocity": 0.7874015748031497
        },
        {
          "duration": 0.21126750000000527,
          "durationTicks": 48,
          "midi": 45,
          "name": "A2",
          "ticks": 17280,
          "time": 76.05630000000001,
          "velocity": 0.7874015748031497
        },
        {
          "duration": 0.21126749999999106,
          "durationTicks": 48,
          "midi": 54,
          "name": "F#3",
          "ticks": 17328,
          "time": 76.26756750000001,
          "velocity": 0.7874015748031497
        },
        {
          "duration": 0.21126750000000527,
          "durationTicks": 48,
          "midi": 45,
          "name": "A2",
          "ticks": 17376,
          "time": 76.478835,
          "velocity": 0.7874015748031497
        },
        {
          "duration": 0.21126750000000527,
          "durationTicks": 48,
          "midi": 54,
          "name": "F#3",
          "ticks": 17424,
          "time": 76.69010250000001,
          "velocity": 0.7874015748031497
        },
        {
          "duration": 0.21126749999999106,
          "durationTicks": 48,
          "midi": 45,
          "name": "A2",
          "ticks": 17472,
          "time": 76.90137000000001,
          "velocity": 0.7874015748031497
        },
        {
          "duration": 0.21126750000000527,
          "durationTicks": 48,
          "midi": 54,
          "name": "F#3",
          "ticks": 17520,
          "time": 77.1126375,
          "velocity": 0.7874015748031497
        },
        {
          "duration": 0.21126750000000527,
          "durationTicks": 48,
          "midi": 45,
          "name": "A2",
          "ticks": 17568,
          "time": 77.32390500000001,
          "velocity": 0.7874015748031497
        },
        {
          "duration": 0.21126749999999106,
          "durationTicks": 48,
          "midi": 49,
          "name": "C#3",
          "ticks": 17616,
          "time": 77.53517250000002,
          "velocity": 0.7874015748031497
        },
        {
          "duration": 0.21126750000000527,
          "durationTicks": 48,
          "midi": 47,
          "name": "B2",
          "ticks": 17664,
          "time": 77.74644,
          "velocity": 0.7874015748031497
        },
        {
          "duration": 0.21126749999999106,
          "durationTicks": 48,
          "midi": 50,
          "name": "D3",
          "ticks": 17712,
          "time": 77.95770750000001,
          "velocity": 0.7874015748031497
        },
        {
          "duration": 0.21126750000000527,
          "durationTicks": 48,
          "midi": 47,
          "name": "B2",
          "ticks": 17760,
          "time": 78.168975,
          "velocity": 0.7874015748031497
        },
        {
          "duration": 0.21126750000000527,
          "durationTicks": 48,
          "midi": 50,
          "name": "D3",
          "ticks": 17808,
          "time": 78.38024250000001,
          "velocity": 0.7874015748031497
        },
        {
          "duration": 0.21126749999999106,
          "durationTicks": 48,
          "midi": 47,
          "name": "B2",
          "ticks": 17856,
          "time": 78.59151000000001,
          "velocity": 0.7874015748031497
        },
        {
          "duration": 0.21126750000000527,
          "durationTicks": 48,
          "midi": 50,
          "name": "D3",
          "ticks": 17904,
          "time": 78.8027775,
          "velocity": 0.7874015748031497
        },
        {
          "duration": 0.21126750000000527,
          "durationTicks": 48,
          "midi": 47,
          "name": "B2",
          "ticks": 17952,
          "time": 79.01404500000001,
          "velocity": 0.7874015748031497
        },
        {
          "duration": 0.21126749999999106,
          "durationTicks": 48,
          "midi": 50,
          "name": "D3",
          "ticks": 18000,
          "time": 79.22531250000002,
          "velocity": 0.7874015748031497
        },
        {
          "duration": 0.21126750000000527,
          "durationTicks": 48,
          "midi": 45,
          "name": "A2",
          "ticks": 18048,
          "time": 79.43658,
          "velocity": 0.7874015748031497
        },
        {
          "duration": 0.21126749999999106,
          "durationTicks": 48,
          "midi": 50,
          "name": "D3",
          "ticks": 18096,
          "time": 79.64784750000001,
          "velocity": 0.7874015748031497
        },
        {
          "duration": 0.21126750000000527,
          "durationTicks": 48,
          "midi": 45,
          "name": "A2",
          "ticks": 18144,
          "time": 79.859115,
          "velocity": 0.7874015748031497
        },
        {
          "duration": 0.21126750000000527,
          "durationTicks": 48,
          "midi": 50,
          "name": "D3",
          "ticks": 18192,
          "time": 80.07038250000001,
          "velocity": 0.7874015748031497
        },
        {
          "duration": 0.21126749999999106,
          "durationTicks": 48,
          "midi": 45,
          "name": "A2",
          "ticks": 18240,
          "time": 80.28165000000001,
          "velocity": 0.7874015748031497
        },
        {
          "duration": 0.21126750000000527,
          "durationTicks": 48,
          "midi": 50,
          "name": "D3",
          "ticks": 18288,
          "time": 80.4929175,
          "velocity": 0.7874015748031497
        },
        {
          "duration": 0.21126750000000527,
          "durationTicks": 48,
          "midi": 45,
          "name": "A2",
          "ticks": 18336,
          "time": 80.70418500000001,
          "velocity": 0.7874015748031497
        },
        {
          "duration": 0.21126749999999106,
          "durationTicks": 48,
          "midi": 50,
          "name": "D3",
          "ticks": 18384,
          "time": 80.91545250000001,
          "velocity": 0.7874015748031497
        },
        {
          "duration": 0.21126750000000527,
          "durationTicks": 48,
          "midi": 43,
          "name": "G2",
          "ticks": 18432,
          "time": 81.12672,
          "velocity": 0.7874015748031497
        },
        {
          "duration": 0.21126750000000527,
          "durationTicks": 48,
          "midi": 50,
          "name": "D3",
          "ticks": 18480,
          "time": 81.33798750000001,
          "velocity": 0.7874015748031497
        },
        {
          "duration": 0.21126749999999106,
          "durationTicks": 48,
          "midi": 43,
          "name": "G2",
          "ticks": 18528,
          "time": 81.54925500000002,
          "velocity": 0.7874015748031497
        },
        {
          "duration": 0.21126750000000527,
          "durationTicks": 48,
          "midi": 50,
          "name": "D3",
          "ticks": 18576,
          "time": 81.76052250000001,
          "velocity": 0.7874015748031497
        },
        {
          "duration": 0.21126749999999106,
          "durationTicks": 48,
          "midi": 43,
          "name": "G2",
          "ticks": 18624,
          "time": 81.97179000000001,
          "velocity": 0.7874015748031497
        },
        {
          "duration": 0.21126750000000527,
          "durationTicks": 48,
          "midi": 50,
          "name": "D3",
          "ticks": 18672,
          "time": 82.1830575,
          "velocity": 0.7874015748031497
        },
        {
          "duration": 0.21126750000000527,
          "durationTicks": 48,
          "midi": 43,
          "name": "G2",
          "ticks": 18720,
          "time": 82.39432500000001,
          "velocity": 0.7874015748031497
        },
        {
          "duration": 0.21126749999999106,
          "durationTicks": 48,
          "midi": 45,
          "name": "A2",
          "ticks": 18768,
          "time": 82.60559250000001,
          "velocity": 0.7874015748031497
        },
        {
          "duration": 0.21126750000000527,
          "durationTicks": 48,
          "midi": 45,
          "name": "A2",
          "ticks": 18816,
          "time": 82.81686,
          "velocity": 0.7874015748031497
        },
        {
          "duration": 0.21126750000000527,
          "durationTicks": 48,
          "midi": 54,
          "name": "F#3",
          "ticks": 18864,
          "time": 83.02812750000001,
          "velocity": 0.7874015748031497
        },
        {
          "duration": 0.21126749999999106,
          "durationTicks": 48,
          "midi": 45,
          "name": "A2",
          "ticks": 18912,
          "time": 83.23939500000002,
          "velocity": 0.7874015748031497
        },
        {
          "duration": 0.21126750000000527,
          "durationTicks": 48,
          "midi": 54,
          "name": "F#3",
          "ticks": 18960,
          "time": 83.4506625,
          "velocity": 0.7874015748031497
        },
        {
          "duration": 0.21126749999999106,
          "durationTicks": 48,
          "midi": 45,
          "name": "A2",
          "ticks": 19008,
          "time": 83.66193000000001,
          "velocity": 0.7874015748031497
        },
        {
          "duration": 0.21126750000000527,
          "durationTicks": 48,
          "midi": 54,
          "name": "F#3",
          "ticks": 19056,
          "time": 83.8731975,
          "velocity": 0.7874015748031497
        },
        {
          "duration": 0.21126750000000527,
          "durationTicks": 48,
          "midi": 45,
          "name": "A2",
          "ticks": 19104,
          "time": 84.08446500000001,
          "velocity": 0.7874015748031497
        },
        {
          "duration": 0.21126749999999106,
          "durationTicks": 48,
          "midi": 49,
          "name": "C#3",
          "ticks": 19152,
          "time": 84.29573250000001,
          "velocity": 0.7874015748031497
        },
        {
          "duration": 0.21126750000000527,
          "durationTicks": 48,
          "midi": 47,
          "name": "B2",
          "ticks": 19200,
          "time": 84.507,
          "velocity": 0.7874015748031497
        },
        {
          "duration": 0.21126750000000527,
          "durationTicks": 48,
          "midi": 50,
          "name": "D3",
          "ticks": 19248,
          "time": 84.71826750000001,
          "velocity": 0.7874015748031497
        },
        {
          "duration": 0.21126749999999106,
          "durationTicks": 48,
          "midi": 47,
          "name": "B2",
          "ticks": 19296,
          "time": 84.92953500000002,
          "velocity": 0.7874015748031497
        },
        {
          "duration": 0.21126750000000527,
          "durationTicks": 48,
          "midi": 50,
          "name": "D3",
          "ticks": 19344,
          "time": 85.1408025,
          "velocity": 0.7874015748031497
        },
        {
          "duration": 0.21126749999999106,
          "durationTicks": 48,
          "midi": 47,
          "name": "B2",
          "ticks": 19392,
          "time": 85.35207000000001,
          "velocity": 0.7874015748031497
        },
        {
          "duration": 0.21126750000000527,
          "durationTicks": 48,
          "midi": 50,
          "name": "D3",
          "ticks": 19440,
          "time": 85.5633375,
          "velocity": 0.7874015748031497
        },
        {
          "duration": 0.21126750000000527,
          "durationTicks": 48,
          "midi": 47,
          "name": "B2",
          "ticks": 19488,
          "time": 85.77460500000001,
          "velocity": 0.7874015748031497
        },
        {
          "duration": 0.21126749999999106,
          "durationTicks": 48,
          "midi": 50,
          "name": "D3",
          "ticks": 19536,
          "time": 85.98587250000001,
          "velocity": 0.7874015748031497
        },
        {
          "duration": 0.21126750000000527,
          "durationTicks": 48,
          "midi": 45,
          "name": "A2",
          "ticks": 19584,
          "time": 86.19714,
          "velocity": 0.7874015748031497
        },
        {
          "duration": 0.21126750000000527,
          "durationTicks": 48,
          "midi": 50,
          "name": "D3",
          "ticks": 19632,
          "time": 86.40840750000001,
          "velocity": 0.7874015748031497
        },
        {
          "duration": 0.21126749999999106,
          "durationTicks": 48,
          "midi": 45,
          "name": "A2",
          "ticks": 19680,
          "time": 86.61967500000002,
          "velocity": 0.7874015748031497
        },
        {
          "duration": 0.21126750000000527,
          "durationTicks": 48,
          "midi": 50,
          "name": "D3",
          "ticks": 19728,
          "time": 86.8309425,
          "velocity": 0.7874015748031497
        },
        {
          "duration": 0.21126750000000527,
          "durationTicks": 48,
          "midi": 45,
          "name": "A2",
          "ticks": 19776,
          "time": 87.04221000000001,
          "velocity": 0.7874015748031497
        },
        {
          "duration": 0.21126749999999106,
          "durationTicks": 48,
          "midi": 50,
          "name": "D3",
          "ticks": 19824,
          "time": 87.25347750000002,
          "velocity": 0.7874015748031497
        },
        {
          "duration": 0.21126750000000527,
          "durationTicks": 48,
          "midi": 45,
          "name": "A2",
          "ticks": 19872,
          "time": 87.46474500000001,
          "velocity": 0.7874015748031497
        },
        {
          "duration": 0.21126749999999106,
          "durationTicks": 48,
          "midi": 50,
          "name": "D3",
          "ticks": 19920,
          "time": 87.67601250000001,
          "velocity": 0.7874015748031497
        },
        {
          "duration": 0.21126750000000527,
          "durationTicks": 48,
          "midi": 43,
          "name": "G2",
          "ticks": 19968,
          "time": 87.88728,
          "velocity": 0.7874015748031497
        },
        {
          "duration": 0.21126750000000527,
          "durationTicks": 48,
          "midi": 50,
          "name": "D3",
          "ticks": 20016,
          "time": 88.09854750000001,
          "velocity": 0.7874015748031497
        },
        {
          "duration": 0.21126749999999106,
          "durationTicks": 48,
          "midi": 43,
          "name": "G2",
          "ticks": 20064,
          "time": 88.30981500000001,
          "velocity": 0.7874015748031497
        },
        {
          "duration": 0.21126750000000527,
          "durationTicks": 48,
          "midi": 50,
          "name": "D3",
          "ticks": 20112,
          "time": 88.5210825,
          "velocity": 0.7874015748031497
        },
        {
          "duration": 0.21126750000000527,
          "durationTicks": 48,
          "midi": 43,
          "name": "G2",
          "ticks": 20160,
          "time": 88.73235000000001,
          "velocity": 0.7874015748031497
        },
        {
          "duration": 0.21126749999999106,
          "durationTicks": 48,
          "midi": 50,
          "name": "D3",
          "ticks": 20208,
          "time": 88.94361750000002,
          "velocity": 0.7874015748031497
        },
        {
          "duration": 0.21126750000000527,
          "durationTicks": 48,
          "midi": 43,
          "name": "G2",
          "ticks": 20256,
          "time": 89.15488500000001,
          "velocity": 0.7874015748031497
        },
        {
          "duration": 0.21126749999999106,
          "durationTicks": 48,
          "midi": 45,
          "name": "A2",
          "ticks": 20304,
          "time": 89.36615250000001,
          "velocity": 0.7874015748031497
        },
        {
          "duration": 0.21126750000000527,
          "durationTicks": 48,
          "midi": 45,
          "name": "A2",
          "ticks": 20352,
          "time": 89.57742,
          "velocity": 0.7874015748031497
        },
        {
          "duration": 0.21126750000000527,
          "durationTicks": 48,
          "midi": 54,
          "name": "F#3",
          "ticks": 20400,
          "time": 89.78868750000001,
          "velocity": 0.7874015748031497
        },
        {
          "duration": 0.21126749999999106,
          "durationTicks": 48,
          "midi": 45,
          "name": "A2",
          "ticks": 20448,
          "time": 89.99995500000001,
          "velocity": 0.7874015748031497
        },
        {
          "duration": 0.21126750000000527,
          "durationTicks": 48,
          "midi": 54,
          "name": "F#3",
          "ticks": 20496,
          "time": 90.2112225,
          "velocity": 0.7874015748031497
        },
        {
          "duration": 0.21126750000000527,
          "durationTicks": 48,
          "midi": 45,
          "name": "A2",
          "ticks": 20544,
          "time": 90.42249000000001,
          "velocity": 0.7874015748031497
        },
        {
          "duration": 0.21126749999999106,
          "durationTicks": 48,
          "midi": 54,
          "name": "F#3",
          "ticks": 20592,
          "time": 90.63375750000002,
          "velocity": 0.7874015748031497
        },
        {
          "duration": 0.21126750000000527,
          "durationTicks": 48,
          "midi": 45,
          "name": "A2",
          "ticks": 20640,
          "time": 90.845025,
          "velocity": 0.7874015748031497
        },
        {
          "duration": 0.21126750000000527,
          "durationTicks": 48,
          "midi": 49,
          "name": "C#3",
          "ticks": 20688,
          "time": 91.05629250000001,
          "velocity": 0.7874015748031497
        },
        {
          "duration": 0.21126749999999106,
          "durationTicks": 48,
          "midi": 47,
          "name": "B2",
          "ticks": 20736,
          "time": 91.26756000000002,
          "velocity": 0.7874015748031497
        },
        {
          "duration": 0.21126750000000527,
          "durationTicks": 48,
          "midi": 50,
          "name": "D3",
          "ticks": 20784,
          "time": 91.47882750000001,
          "velocity": 0.7874015748031497
        },
        {
          "duration": 0.21126749999999106,
          "durationTicks": 48,
          "midi": 47,
          "name": "B2",
          "ticks": 20832,
          "time": 91.69009500000001,
          "velocity": 0.7874015748031497
        },
        {
          "duration": 0.21126750000000527,
          "durationTicks": 48,
          "midi": 50,
          "name": "D3",
          "ticks": 20880,
          "time": 91.9013625,
          "velocity": 0.7874015748031497
        },
        {
          "duration": 0.21126750000000527,
          "durationTicks": 48,
          "midi": 47,
          "name": "B2",
          "ticks": 20928,
          "time": 92.11263000000001,
          "velocity": 0.7874015748031497
        },
        {
          "duration": 0.21126749999999106,
          "durationTicks": 48,
          "midi": 50,
          "name": "D3",
          "ticks": 20976,
          "time": 92.32389750000002,
          "velocity": 0.7874015748031497
        },
        {
          "duration": 0.21126750000000527,
          "durationTicks": 48,
          "midi": 47,
          "name": "B2",
          "ticks": 21024,
          "time": 92.535165,
          "velocity": 0.7874015748031497
        },
        {
          "duration": 0.21126750000000527,
          "durationTicks": 48,
          "midi": 50,
          "name": "D3",
          "ticks": 21072,
          "time": 92.74643250000001,
          "velocity": 0.7874015748031497
        },
        {
          "duration": 0.21126749999999106,
          "durationTicks": 48,
          "midi": 45,
          "name": "A2",
          "ticks": 21120,
          "time": 92.95770000000002,
          "velocity": 0.7874015748031497
        },
        {
          "duration": 0.21126750000000527,
          "durationTicks": 48,
          "midi": 50,
          "name": "D3",
          "ticks": 21168,
          "time": 93.16896750000001,
          "velocity": 0.7874015748031497
        },
        {
          "duration": 0.21126749999999106,
          "durationTicks": 48,
          "midi": 45,
          "name": "A2",
          "ticks": 21216,
          "time": 93.38023500000001,
          "velocity": 0.7874015748031497
        },
        {
          "duration": 0.21126750000000527,
          "durationTicks": 48,
          "midi": 50,
          "name": "D3",
          "ticks": 21264,
          "time": 93.5915025,
          "velocity": 0.7874015748031497
        },
        {
          "duration": 0.21126750000000527,
          "durationTicks": 48,
          "midi": 45,
          "name": "A2",
          "ticks": 21312,
          "time": 93.80277000000001,
          "velocity": 0.7874015748031497
        },
        {
          "duration": 0.21126749999999106,
          "durationTicks": 48,
          "midi": 50,
          "name": "D3",
          "ticks": 21360,
          "time": 94.01403750000001,
          "velocity": 0.7874015748031497
        },
        {
          "duration": 0.21126750000000527,
          "durationTicks": 48,
          "midi": 45,
          "name": "A2",
          "ticks": 21408,
          "time": 94.225305,
          "velocity": 0.7874015748031497
        },
        {
          "duration": 0.21126750000000527,
          "durationTicks": 48,
          "midi": 50,
          "name": "D3",
          "ticks": 21456,
          "time": 94.43657250000001,
          "velocity": 0.7874015748031497
        },
        {
          "duration": 0.21126749999999106,
          "durationTicks": 48,
          "midi": 43,
          "name": "G2",
          "ticks": 21504,
          "time": 94.64784000000002,
          "velocity": 0.7874015748031497
        },
        {
          "duration": 0.21126750000000527,
          "durationTicks": 48,
          "midi": 50,
          "name": "D3",
          "ticks": 21552,
          "time": 94.85910750000001,
          "velocity": 0.7874015748031497
        },
        {
          "duration": 0.21126750000000527,
          "durationTicks": 48,
          "midi": 43,
          "name": "G2",
          "ticks": 21600,
          "time": 95.07037500000001,
          "velocity": 0.7874015748031497
        },
        {
          "duration": 0.21126749999999106,
          "durationTicks": 48,
          "midi": 50,
          "name": "D3",
          "ticks": 21648,
          "time": 95.28164250000002,
          "velocity": 0.7874015748031497
        },
        {
          "duration": 0.21126750000000527,
          "durationTicks": 48,
          "midi": 43,
          "name": "G2",
          "ticks": 21696,
          "time": 95.49291000000001,
          "velocity": 0.7874015748031497
        },
        {
          "duration": 0.21126749999999106,
          "durationTicks": 48,
          "midi": 50,
          "name": "D3",
          "ticks": 21744,
          "time": 95.70417750000001,
          "velocity": 0.7874015748031497
        },
        {
          "duration": 0.21126750000000527,
          "durationTicks": 48,
          "midi": 43,
          "name": "G2",
          "ticks": 21792,
          "time": 95.915445,
          "velocity": 0.7874015748031497
        },
        {
          "duration": 0.21126750000000527,
          "durationTicks": 48,
          "midi": 45,
          "name": "A2",
          "ticks": 21840,
          "time": 96.12671250000001,
          "velocity": 0.7874015748031497
        },
        {
          "duration": 0.21126749999999106,
          "durationTicks": 48,
          "midi": 45,
          "name": "A2",
          "ticks": 21888,
          "time": 96.33798000000002,
          "velocity": 0.7874015748031497
        },
        {
          "duration": 0.21126750000000527,
          "durationTicks": 48,
          "midi": 54,
          "name": "F#3",
          "ticks": 21936,
          "time": 96.5492475,
          "velocity": 0.7874015748031497
        },
        {
          "duration": 0.21126750000000527,
          "durationTicks": 48,
          "midi": 45,
          "name": "A2",
          "ticks": 21984,
          "time": 96.76051500000001,
          "velocity": 0.7874015748031497
        },
        {
          "duration": 0.21126749999999106,
          "durationTicks": 48,
          "midi": 54,
          "name": "F#3",
          "ticks": 22032,
          "time": 96.97178250000002,
          "velocity": 0.7874015748031497
        },
        {
          "duration": 0.21126750000000527,
          "durationTicks": 48,
          "midi": 45,
          "name": "A2",
          "ticks": 22080,
          "time": 97.18305000000001,
          "velocity": 0.7874015748031497
        },
        {
          "duration": 0.21126749999999106,
          "durationTicks": 48,
          "midi": 54,
          "name": "F#3",
          "ticks": 22128,
          "time": 97.39431750000001,
          "velocity": 0.7874015748031497
        },
        {
          "duration": 0.21126750000000527,
          "durationTicks": 48,
          "midi": 45,
          "name": "A2",
          "ticks": 22176,
          "time": 97.605585,
          "velocity": 0.7874015748031497
        },
        {
          "duration": 0.21126750000000527,
          "durationTicks": 48,
          "midi": 49,
          "name": "C#3",
          "ticks": 22224,
          "time": 97.81685250000001,
          "velocity": 0.7874015748031497
        },
        {
          "duration": 0.21126749999999106,
          "durationTicks": 48,
          "midi": 47,
          "name": "B2",
          "ticks": 22272,
          "time": 98.02812000000002,
          "velocity": 0.7874015748031497
        },
        {
          "duration": 0.21126750000000527,
          "durationTicks": 48,
          "midi": 50,
          "name": "D3",
          "ticks": 22320,
          "time": 98.2393875,
          "velocity": 0.7874015748031497
        },
        {
          "duration": 0.21126750000000527,
          "durationTicks": 48,
          "midi": 47,
          "name": "B2",
          "ticks": 22368,
          "time": 98.45065500000001,
          "velocity": 0.7874015748031497
        },
        {
          "duration": 0.21126749999999106,
          "durationTicks": 48,
          "midi": 50,
          "name": "D3",
          "ticks": 22416,
          "time": 98.66192250000002,
          "velocity": 0.7874015748031497
        },
        {
          "duration": 0.21126750000000527,
          "durationTicks": 48,
          "midi": 47,
          "name": "B2",
          "ticks": 22464,
          "time": 98.87319000000001,
          "velocity": 0.7874015748031497
        },
        {
          "duration": 0.21126750000000527,
          "durationTicks": 48,
          "midi": 50,
          "name": "D3",
          "ticks": 22512,
          "time": 99.08445750000001,
          "velocity": 0.7874015748031497
        },
        {
          "duration": 0.21126749999999106,
          "durationTicks": 48,
          "midi": 47,
          "name": "B2",
          "ticks": 22560,
          "time": 99.29572500000002,
          "velocity": 0.7874015748031497
        },
        {
          "duration": 0.21126750000000527,
          "durationTicks": 48,
          "midi": 50,
          "name": "D3",
          "ticks": 22608,
          "time": 99.50699250000001,
          "velocity": 0.7874015748031497
        },
        {
          "duration": 0.21126749999999106,
          "durationTicks": 48,
          "midi": 45,
          "name": "A2",
          "ticks": 22656,
          "time": 99.71826000000001,
          "velocity": 0.7874015748031497
        },
        {
          "duration": 0.21126750000000527,
          "durationTicks": 48,
          "midi": 50,
          "name": "D3",
          "ticks": 22704,
          "time": 99.9295275,
          "velocity": 0.7874015748031497
        },
        {
          "duration": 0.21126750000000527,
          "durationTicks": 48,
          "midi": 45,
          "name": "A2",
          "ticks": 22752,
          "time": 100.14079500000001,
          "velocity": 0.7874015748031497
        },
        {
          "duration": 0.21126749999999106,
          "durationTicks": 48,
          "midi": 50,
          "name": "D3",
          "ticks": 22800,
          "time": 100.35206250000002,
          "velocity": 0.7874015748031497
        },
        {
          "duration": 0.21126750000000527,
          "durationTicks": 48,
          "midi": 45,
          "name": "A2",
          "ticks": 22848,
          "time": 100.56333000000001,
          "velocity": 0.7874015748031497
        },
        {
          "duration": 0.21126750000000527,
          "durationTicks": 48,
          "midi": 50,
          "name": "D3",
          "ticks": 22896,
          "time": 100.77459750000001,
          "velocity": 0.7874015748031497
        },
        {
          "duration": 0.21126749999999106,
          "durationTicks": 48,
          "midi": 45,
          "name": "A2",
          "ticks": 22944,
          "time": 100.98586500000002,
          "velocity": 0.7874015748031497
        },
        {
          "duration": 0.21126750000000527,
          "durationTicks": 48,
          "midi": 50,
          "name": "D3",
          "ticks": 22992,
          "time": 101.19713250000001,
          "velocity": 0.7874015748031497
        },
        {
          "duration": 0.21126749999999106,
          "durationTicks": 48,
          "midi": 43,
          "name": "G2",
          "ticks": 23040,
          "time": 101.40840000000001,
          "velocity": 0.7874015748031497
        },
        {
          "duration": 0.21126750000000527,
          "durationTicks": 48,
          "midi": 50,
          "name": "D3",
          "ticks": 23088,
          "time": 101.6196675,
          "velocity": 0.7874015748031497
        },
        {
          "duration": 0.21126750000000527,
          "durationTicks": 48,
          "midi": 43,
          "name": "G2",
          "ticks": 23136,
          "time": 101.83093500000001,
          "velocity": 0.7874015748031497
        },
        {
          "duration": 0.21126749999999106,
          "durationTicks": 48,
          "midi": 50,
          "name": "D3",
          "ticks": 23184,
          "time": 102.04220250000002,
          "velocity": 0.7874015748031497
        },
        {
          "duration": 0.21126750000000527,
          "durationTicks": 48,
          "midi": 43,
          "name": "G2",
          "ticks": 23232,
          "time": 102.25347000000001,
          "velocity": 0.7874015748031497
        },
        {
          "duration": 0.21126750000000527,
          "durationTicks": 48,
          "midi": 50,
          "name": "D3",
          "ticks": 23280,
          "time": 102.46473750000001,
          "velocity": 0.7874015748031497
        },
        {
          "duration": 0.21126749999999106,
          "durationTicks": 48,
          "midi": 43,
          "name": "G2",
          "ticks": 23328,
          "time": 102.67600500000002,
          "velocity": 0.7874015748031497
        },
        {
          "duration": 0.21126750000000527,
          "durationTicks": 48,
          "midi": 45,
          "name": "A2",
          "ticks": 23376,
          "time": 102.88727250000001,
          "velocity": 0.7874015748031497
        },
        {
          "duration": 0.21126749999999106,
          "durationTicks": 48,
          "midi": 45,
          "name": "A2",
          "ticks": 23424,
          "time": 103.09854000000001,
          "velocity": 0.7874015748031497
        },
        {
          "duration": 0.21126750000000527,
          "durationTicks": 48,
          "midi": 54,
          "name": "F#3",
          "ticks": 23472,
          "time": 103.3098075,
          "velocity": 0.7874015748031497
        },
        {
          "duration": 0.21126750000000527,
          "durationTicks": 48,
          "midi": 45,
          "name": "A2",
          "ticks": 23520,
          "time": 103.52107500000001,
          "velocity": 0.7874015748031497
        },
        {
          "duration": 0.21126749999999106,
          "durationTicks": 48,
          "midi": 54,
          "name": "F#3",
          "ticks": 23568,
          "time": 103.73234250000002,
          "velocity": 0.7874015748031497
        },
        {
          "duration": 0.21126750000000527,
          "durationTicks": 48,
          "midi": 45,
          "name": "A2",
          "ticks": 23616,
          "time": 103.94361,
          "velocity": 0.7874015748031497
        },
        {
          "duration": 0.21126750000000527,
          "durationTicks": 48,
          "midi": 54,
          "name": "F#3",
          "ticks": 23664,
          "time": 104.15487750000001,
          "velocity": 0.7874015748031497
        },
        {
          "duration": 0.21126749999999106,
          "durationTicks": 48,
          "midi": 45,
          "name": "A2",
          "ticks": 23712,
          "time": 104.36614500000002,
          "velocity": 0.7874015748031497
        },
        {
          "duration": 0.21126750000000527,
          "durationTicks": 48,
          "midi": 49,
          "name": "C#3",
          "ticks": 23760,
          "time": 104.57741250000001,
          "velocity": 0.7874015748031497
        },
        {
          "duration": 0.21126750000000527,
          "durationTicks": 48,
          "midi": 47,
          "name": "B2",
          "ticks": 23808,
          "time": 104.78868000000001,
          "velocity": 0.7874015748031497
        },
        {
          "duration": 0.21126749999999106,
          "durationTicks": 48,
          "midi": 50,
          "name": "D3",
          "ticks": 23856,
          "time": 104.99994750000002,
          "velocity": 0.7874015748031497
        },
        {
          "duration": 0.21126750000000527,
          "durationTicks": 48,
          "midi": 47,
          "name": "B2",
          "ticks": 23904,
          "time": 105.21121500000001,
          "velocity": 0.7874015748031497
        },
        {
          "duration": 0.21126749999999106,
          "durationTicks": 48,
          "midi": 50,
          "name": "D3",
          "ticks": 23952,
          "time": 105.42248250000002,
          "velocity": 0.7874015748031497
        },
        {
          "duration": 0.21126750000000527,
          "durationTicks": 48,
          "midi": 47,
          "name": "B2",
          "ticks": 24000,
          "time": 105.63375,
          "velocity": 0.7874015748031497
        },
        {
          "duration": 0.21126750000000527,
          "durationTicks": 48,
          "midi": 50,
          "name": "D3",
          "ticks": 24048,
          "time": 105.84501750000001,
          "velocity": 0.7874015748031497
        },
        {
          "duration": 0.21126749999999106,
          "durationTicks": 48,
          "midi": 47,
          "name": "B2",
          "ticks": 24096,
          "time": 106.05628500000002,
          "velocity": 0.7874015748031497
        },
        {
          "duration": 0.20686609375000842,
          "durationTicks": 47,
          "midi": 50,
          "name": "D3",
          "ticks": 24144,
          "time": 106.26755250000001,
          "velocity": 0.7874015748031497
        },
        {
          "duration": 0.21126750000000527,
          "durationTicks": 48,
          "midi": 31,
          "name": "G1",
          "ticks": 24576,
          "time": 108.16896000000001,
          "velocity": 0.8110236220472441
        },
        {
          "duration": 0.21126749999999106,
          "durationTicks": 48,
          "midi": 31,
          "name": "G1",
          "ticks": 24624,
          "time": 108.38022750000002,
          "velocity": 0.8110236220472441
        },
        {
          "duration": 0.21126750000000527,
          "durationTicks": 48,
          "midi": 31,
          "name": "G1",
          "ticks": 24672,
          "time": 108.59149500000001,
          "velocity": 0.8110236220472441
        },
        {
          "duration": 0.21126750000000527,
          "durationTicks": 48,
          "midi": 31,
          "name": "G1",
          "ticks": 24720,
          "time": 108.80276250000001,
          "velocity": 0.8110236220472441
        },
        {
          "duration": 0.21126749999999106,
          "durationTicks": 48,
          "midi": 31,
          "name": "G1",
          "ticks": 24768,
          "time": 109.01403000000002,
          "velocity": 0.8110236220472441
        },
        {
          "duration": 0.21126750000000527,
          "durationTicks": 48,
          "midi": 31,
          "name": "G1",
          "ticks": 24816,
          "time": 109.22529750000001,
          "velocity": 0.8110236220472441
        },
        {
          "duration": 0.21126749999999106,
          "durationTicks": 48,
          "midi": 31,
          "name": "G1",
          "ticks": 24864,
          "time": 109.43656500000002,
          "velocity": 0.8110236220472441
        },
        {
          "duration": 0.21126750000000527,
          "durationTicks": 48,
          "midi": 31,
          "name": "G1",
          "ticks": 24912,
          "time": 109.6478325,
          "velocity": 0.8110236220472441
        },
        {
          "duration": 0.21126750000000527,
          "durationTicks": 48,
          "midi": 33,
          "name": "A1",
          "ticks": 24960,
          "time": 109.85910000000001,
          "velocity": 0.8110236220472441
        },
        {
          "duration": 0.21126749999999106,
          "durationTicks": 48,
          "midi": 33,
          "name": "A1",
          "ticks": 25008,
          "time": 110.07036750000002,
          "velocity": 0.8110236220472441
        },
        {
          "duration": 0.21126750000000527,
          "durationTicks": 48,
          "midi": 33,
          "name": "A1",
          "ticks": 25056,
          "time": 110.28163500000001,
          "velocity": 0.8110236220472441
        },
        {
          "duration": 0.21126750000000527,
          "durationTicks": 48,
          "midi": 33,
          "name": "A1",
          "ticks": 25104,
          "time": 110.49290250000001,
          "velocity": 0.8110236220472441
        },
        {
          "duration": 0.21126749999999106,
          "durationTicks": 48,
          "midi": 33,
          "name": "A1",
          "ticks": 25152,
          "time": 110.70417000000002,
          "velocity": 0.8110236220472441
        },
        {
          "duration": 0.21126750000000527,
          "durationTicks": 48,
          "midi": 33,
          "name": "A1",
          "ticks": 25200,
          "time": 110.91543750000001,
          "velocity": 0.8110236220472441
        },
        {
          "duration": 0.21126749999999106,
          "durationTicks": 48,
          "midi": 33,
          "name": "A1",
          "ticks": 25248,
          "time": 111.12670500000002,
          "velocity": 0.8110236220472441
        },
        {
          "duration": 0.21126750000000527,
          "durationTicks": 48,
          "midi": 33,
          "name": "A1",
          "ticks": 25296,
          "time": 111.3379725,
          "velocity": 0.8110236220472441
        },
        {
          "duration": 0.21126750000000527,
          "durationTicks": 48,
          "midi": 35,
          "name": "B1",
          "ticks": 25344,
          "time": 111.54924000000001,
          "velocity": 0.8110236220472441
        },
        {
          "duration": 0.21126749999999106,
          "durationTicks": 48,
          "midi": 35,
          "name": "B1",
          "ticks": 25392,
          "time": 111.76050750000002,
          "velocity": 0.8110236220472441
        },
        {
          "duration": 0.21126750000000527,
          "durationTicks": 48,
          "midi": 35,
          "name": "B1",
          "ticks": 25440,
          "time": 111.97177500000001,
          "velocity": 0.8110236220472441
        },
        {
          "duration": 0.21126750000000527,
          "durationTicks": 48,
          "midi": 35,
          "name": "B1",
          "ticks": 25488,
          "time": 112.18304250000001,
          "velocity": 0.8110236220472441
        },
        {
          "duration": 0.21126749999999106,
          "durationTicks": 48,
          "midi": 35,
          "name": "B1",
          "ticks": 25536,
          "time": 112.39431000000002,
          "velocity": 0.8110236220472441
        },
        {
          "duration": 0.21126750000000527,
          "durationTicks": 48,
          "midi": 35,
          "name": "B1",
          "ticks": 25584,
          "time": 112.60557750000001,
          "velocity": 0.8110236220472441
        },
        {
          "duration": 0.21126750000000527,
          "durationTicks": 48,
          "midi": 35,
          "name": "B1",
          "ticks": 25632,
          "time": 112.81684500000001,
          "velocity": 0.8110236220472441
        },
        {
          "duration": 0.21126749999999106,
          "durationTicks": 48,
          "midi": 35,
          "name": "B1",
          "ticks": 25680,
          "time": 113.02811250000002,
          "velocity": 0.8110236220472441
        },
        {
          "duration": 0.21126750000000527,
          "durationTicks": 48,
          "midi": 38,
          "name": "D2",
          "ticks": 25728,
          "time": 113.23938000000001,
          "velocity": 0.8110236220472441
        },
        {
          "duration": 0.21126749999999106,
          "durationTicks": 48,
          "midi": 38,
          "name": "D2",
          "ticks": 25776,
          "time": 113.45064750000002,
          "velocity": 0.8110236220472441
        },
        {
          "duration": 0.21126750000000527,
          "durationTicks": 48,
          "midi": 38,
          "name": "D2",
          "ticks": 25824,
          "time": 113.66191500000001,
          "velocity": 0.8110236220472441
        },
        {
          "duration": 0.21126750000000527,
          "durationTicks": 48,
          "midi": 38,
          "name": "D2",
          "ticks": 25872,
          "time": 113.87318250000001,
          "velocity": 0.8110236220472441
        },
        {
          "duration": 0.21126749999999106,
          "durationTicks": 48,
          "midi": 38,
          "name": "D2",
          "ticks": 25920,
          "time": 114.08445000000002,
          "velocity": 0.8110236220472441
        },
        {
          "duration": 0.21126750000000527,
          "durationTicks": 48,
          "midi": 38,
          "name": "D2",
          "ticks": 25968,
          "time": 114.29571750000001,
          "velocity": 0.8110236220472441
        },
        {
          "duration": 0.21126750000000527,
          "durationTicks": 48,
          "midi": 38,
          "name": "D2",
          "ticks": 26016,
          "time": 114.50698500000001,
          "velocity": 0.8110236220472441
        },
        {
          "duration": 0.21126749999999106,
          "durationTicks": 48,
          "midi": 38,
          "name": "D2",
          "ticks": 26064,
          "time": 114.71825250000002,
          "velocity": 0.8110236220472441
        },
        {
          "duration": 0.21126750000000527,
          "durationTicks": 48,
          "midi": 31,
          "name": "G1",
          "ticks": 26112,
          "time": 114.92952000000001,
          "velocity": 0.8110236220472441
        },
        {
          "duration": 0.21126749999999106,
          "durationTicks": 48,
          "midi": 31,
          "name": "G1",
          "ticks": 26160,
          "time": 115.14078750000002,
          "velocity": 0.8110236220472441
        },
        {
          "duration": 0.21126750000000527,
          "durationTicks": 48,
          "midi": 31,
          "name": "G1",
          "ticks": 26208,
          "time": 115.35205500000001,
          "velocity": 0.8110236220472441
        },
        {
          "duration": 0.21126750000000527,
          "durationTicks": 48,
          "midi": 31,
          "name": "G1",
          "ticks": 26256,
          "time": 115.56332250000001,
          "velocity": 0.8110236220472441
        },
        {
          "duration": 0.21126749999999106,
          "durationTicks": 48,
          "midi": 31,
          "name": "G1",
          "ticks": 26304,
          "time": 115.77459000000002,
          "velocity": 0.8110236220472441
        },
        {
          "duration": 0.21126750000000527,
          "durationTicks": 48,
          "midi": 31,
          "name": "G1",
          "ticks": 26352,
          "time": 115.98585750000001,
          "velocity": 0.8110236220472441
        },
        {
          "duration": 0.21126750000000527,
          "durationTicks": 48,
          "midi": 31,
          "name": "G1",
          "ticks": 26400,
          "time": 116.19712500000001,
          "velocity": 0.8110236220472441
        },
        {
          "duration": 0.21126749999999106,
          "durationTicks": 48,
          "midi": 31,
          "name": "G1",
          "ticks": 26448,
          "time": 116.40839250000002,
          "velocity": 0.8110236220472441
        },
        {
          "duration": 0.21126750000000527,
          "durationTicks": 48,
          "midi": 33,
          "name": "A1",
          "ticks": 26496,
          "time": 116.61966000000001,
          "velocity": 0.8110236220472441
        },
        {
          "duration": 0.21126749999999106,
          "durationTicks": 48,
          "midi": 33,
          "name": "A1",
          "ticks": 26544,
          "time": 116.83092750000002,
          "velocity": 0.8110236220472441
        },
        {
          "duration": 0.21126750000000527,
          "durationTicks": 48,
          "midi": 33,
          "name": "A1",
          "ticks": 26592,
          "time": 117.042195,
          "velocity": 0.8110236220472441
        },
        {
          "duration": 0.21126750000000527,
          "durationTicks": 48,
          "midi": 33,
          "name": "A1",
          "ticks": 26640,
          "time": 117.25346250000001,
          "velocity": 0.8110236220472441
        },
        {
          "duration": 0.21126749999999106,
          "durationTicks": 48,
          "midi": 33,
          "name": "A1",
          "ticks": 26688,
          "time": 117.46473000000002,
          "velocity": 0.8110236220472441
        },
        {
          "duration": 0.21126750000000527,
          "durationTicks": 48,
          "midi": 33,
          "name": "A1",
          "ticks": 26736,
          "time": 117.67599750000001,
          "velocity": 0.8110236220472441
        },
        {
          "duration": 0.21126750000000527,
          "durationTicks": 48,
          "midi": 33,
          "name": "A1",
          "ticks": 26784,
          "time": 117.88726500000001,
          "velocity": 0.8110236220472441
        },
        {
          "duration": 0.21126749999999106,
          "durationTicks": 48,
          "midi": 33,
          "name": "A1",
          "ticks": 26832,
          "time": 118.09853250000002,
          "velocity": 0.8110236220472441
        },
        {
          "duration": 0.21126750000000527,
          "durationTicks": 48,
          "midi": 35,
          "name": "B1",
          "ticks": 26880,
          "time": 118.30980000000001,
          "velocity": 0.8110236220472441
        },
        {
          "duration": 0.21126750000000527,
          "durationTicks": 48,
          "midi": 35,
          "name": "B1",
          "ticks": 26928,
          "time": 118.52106750000002,
          "velocity": 0.8110236220472441
        },
        {
          "duration": 0.21126749999999106,
          "durationTicks": 48,
          "midi": 35,
          "name": "B1",
          "ticks": 26976,
          "time": 118.73233500000002,
          "velocity": 0.8110236220472441
        },
        {
          "duration": 0.21126750000000527,
          "durationTicks": 48,
          "midi": 35,
          "name": "B1",
          "ticks": 27024,
          "time": 118.94360250000001,
          "velocity": 0.8110236220472441
        },
        {
          "duration": 0.21126749999999106,
          "durationTicks": 48,
          "midi": 35,
          "name": "B1",
          "ticks": 27072,
          "time": 119.15487000000002,
          "velocity": 0.8110236220472441
        },
        {
          "duration": 0.21126750000000527,
          "durationTicks": 48,
          "midi": 35,
          "name": "B1",
          "ticks": 27120,
          "time": 119.36613750000001,
          "velocity": 0.8110236220472441
        },
        {
          "duration": 0.21126750000000527,
          "durationTicks": 48,
          "midi": 35,
          "name": "B1",
          "ticks": 27168,
          "time": 119.57740500000001,
          "velocity": 0.8110236220472441
        },
        {
          "duration": 0.21126749999999106,
          "durationTicks": 48,
          "midi": 35,
          "name": "B1",
          "ticks": 27216,
          "time": 119.78867250000002,
          "velocity": 0.8110236220472441
        },
        {
          "duration": 0.21126750000000527,
          "durationTicks": 48,
          "midi": 38,
          "name": "D2",
          "ticks": 27264,
          "time": 119.99994000000001,
          "velocity": 0.8110236220472441
        },
        {
          "duration": 0.21126750000000527,
          "durationTicks": 48,
          "midi": 38,
          "name": "D2",
          "ticks": 27312,
          "time": 120.21120750000001,
          "velocity": 0.8110236220472441
        },
        {
          "duration": 0.21126749999999106,
          "durationTicks": 48,
          "midi": 38,
          "name": "D2",
          "ticks": 27360,
          "time": 120.42247500000002,
          "velocity": 0.8110236220472441
        },
        {
          "duration": 0.21126750000000527,
          "durationTicks": 48,
          "midi": 38,
          "name": "D2",
          "ticks": 27408,
          "time": 120.63374250000001,
          "velocity": 0.8110236220472441
        },
        {
          "duration": 0.21126749999999106,
          "durationTicks": 48,
          "midi": 38,
          "name": "D2",
          "ticks": 27456,
          "time": 120.84501000000002,
          "velocity": 0.8110236220472441
        },
        {
          "duration": 0.21126750000000527,
          "durationTicks": 48,
          "midi": 38,
          "name": "D2",
          "ticks": 27504,
          "time": 121.05627750000001,
          "velocity": 0.8110236220472441
        },
        {
          "duration": 0.21126750000000527,
          "durationTicks": 48,
          "midi": 38,
          "name": "D2",
          "ticks": 27552,
          "time": 121.26754500000001,
          "velocity": 0.8110236220472441
        },
        {
          "duration": 0.21126749999999106,
          "durationTicks": 48,
          "midi": 38,
          "name": "D2",
          "ticks": 27600,
          "time": 121.47881250000002,
          "velocity": 0.8110236220472441
        },
        {
          "duration": 0.21126750000000527,
          "durationTicks": 48,
          "midi": 31,
          "name": "G1",
          "ticks": 27648,
          "time": 121.69008000000001,
          "velocity": 0.8110236220472441
        },
        {
          "duration": 0.21126750000000527,
          "durationTicks": 48,
          "midi": 31,
          "name": "G1",
          "ticks": 27696,
          "time": 121.90134750000001,
          "velocity": 0.8110236220472441
        },
        {
          "duration": 0.21126749999999106,
          "durationTicks": 48,
          "midi": 31,
          "name": "G1",
          "ticks": 27744,
          "time": 122.11261500000002,
          "velocity": 0.8110236220472441
        },
        {
          "duration": 0.21126750000000527,
          "durationTicks": 48,
          "midi": 31,
          "name": "G1",
          "ticks": 27792,
          "time": 122.32388250000001,
          "velocity": 0.8110236220472441
        },
        {
          "duration": 0.21126750000000527,
          "durationTicks": 48,
          "midi": 31,
          "name": "G1",
          "ticks": 27840,
          "time": 122.53515000000002,
          "velocity": 0.8110236220472441
        },
        {
          "duration": 0.21126749999999106,
          "durationTicks": 48,
          "midi": 31,
          "name": "G1",
          "ticks": 27888,
          "time": 122.74641750000002,
          "velocity": 0.8110236220472441
        },
        {
          "duration": 0.21126750000000527,
          "durationTicks": 48,
          "midi": 31,
          "name": "G1",
          "ticks": 27936,
          "time": 122.95768500000001,
          "velocity": 0.8110236220472441
        },
        {
          "duration": 0.21126749999999106,
          "durationTicks": 48,
          "midi": 31,
          "name": "G1",
          "ticks": 27984,
          "time": 123.16895250000002,
          "velocity": 0.8110236220472441
        },
        {
          "duration": 0.21126750000000527,
          "durationTicks": 48,
          "midi": 33,
          "name": "A1",
          "ticks": 28032,
          "time": 123.38022000000001,
          "velocity": 0.8110236220472441
        },
        {
          "duration": 0.21126750000000527,
          "durationTicks": 48,
          "midi": 33,
          "name": "A1",
          "ticks": 28080,
          "time": 123.59148750000001,
          "velocity": 0.8110236220472441
        },
        {
          "duration": 0.21126749999999106,
          "durationTicks": 48,
          "midi": 33,
          "name": "A1",
          "ticks": 28128,
          "time": 123.80275500000002,
          "velocity": 0.8110236220472441
        },
        {
          "duration": 0.21126750000000527,
          "durationTicks": 48,
          "midi": 33,
          "name": "A1",
          "ticks": 28176,
          "time": 124.01402250000001,
          "velocity": 0.8110236220472441
        },
        {
          "duration": 0.21126750000000527,
          "durationTicks": 48,
          "midi": 33,
          "name": "A1",
          "ticks": 28224,
          "time": 124.22529000000002,
          "velocity": 0.8110236220472441
        },
        {
          "duration": 0.21126749999999106,
          "durationTicks": 48,
          "midi": 33,
          "name": "A1",
          "ticks": 28272,
          "time": 124.43655750000002,
          "velocity": 0.8110236220472441
        },
        {
          "duration": 0.21126750000000527,
          "durationTicks": 48,
          "midi": 33,
          "name": "A1",
          "ticks": 28320,
          "time": 124.64782500000001,
          "velocity": 0.8110236220472441
        },
        {
          "duration": 0.21126749999999106,
          "durationTicks": 48,
          "midi": 33,
          "name": "A1",
          "ticks": 28368,
          "time": 124.85909250000002,
          "velocity": 0.8110236220472441
        },
        {
          "duration": 0.21126750000000527,
          "durationTicks": 48,
          "midi": 35,
          "name": "B1",
          "ticks": 28416,
          "time": 125.07036000000001,
          "velocity": 0.8110236220472441
        },
        {
          "duration": 0.21126750000000527,
          "durationTicks": 48,
          "midi": 35,
          "name": "B1",
          "ticks": 28464,
          "time": 125.28162750000001,
          "velocity": 0.8110236220472441
        },
        {
          "duration": 0.21126749999999106,
          "durationTicks": 48,
          "midi": 35,
          "name": "B1",
          "ticks": 28512,
          "time": 125.49289500000002,
          "velocity": 0.8110236220472441
        },
        {
          "duration": 0.21126750000000527,
          "durationTicks": 48,
          "midi": 35,
          "name": "B1",
          "ticks": 28560,
          "time": 125.70416250000001,
          "velocity": 0.8110236220472441
        },
        {
          "duration": 0.21126750000000527,
          "durationTicks": 48,
          "midi": 35,
          "name": "B1",
          "ticks": 28608,
          "time": 125.91543000000001,
          "velocity": 0.8110236220472441
        },
        {
          "duration": 0.21126749999999106,
          "durationTicks": 48,
          "midi": 35,
          "name": "B1",
          "ticks": 28656,
          "time": 126.12669750000002,
          "velocity": 0.8110236220472441
        },
        {
          "duration": 0.21126750000000527,
          "durationTicks": 48,
          "midi": 35,
          "name": "B1",
          "ticks": 28704,
          "time": 126.33796500000001,
          "velocity": 0.8110236220472441
        },
        {
          "duration": 0.21126750000000527,
          "durationTicks": 48,
          "midi": 35,
          "name": "B1",
          "ticks": 28752,
          "time": 126.54923250000002,
          "velocity": 0.8110236220472441
        },
        {
          "duration": 0.21126749999999106,
          "durationTicks": 48,
          "midi": 38,
          "name": "D2",
          "ticks": 28800,
          "time": 126.76050000000002,
          "velocity": 0.8110236220472441
        },
        {
          "duration": 0.21126750000000527,
          "durationTicks": 48,
          "midi": 38,
          "name": "D2",
          "ticks": 28848,
          "time": 126.97176750000001,
          "velocity": 0.8110236220472441
        },
        {
          "duration": 0.21126749999999106,
          "durationTicks": 48,
          "midi": 38,
          "name": "D2",
          "ticks": 28896,
          "time": 127.18303500000002,
          "velocity": 0.8110236220472441
        },
        {
          "duration": 0.21126750000000527,
          "durationTicks": 48,
          "midi": 38,
          "name": "D2",
          "ticks": 28944,
          "time": 127.39430250000001,
          "velocity": 0.8110236220472441
        },
        {
          "duration": 0.21126750000000527,
          "durationTicks": 48,
          "midi": 38,
          "name": "D2",
          "ticks": 28992,
          "time": 127.60557000000001,
          "velocity": 0.8110236220472441
        },
        {
          "duration": 0.21126749999999106,
          "durationTicks": 48,
          "midi": 38,
          "name": "D2",
          "ticks": 29040,
          "time": 127.81683750000002,
          "velocity": 0.8110236220472441
        },
        {
          "duration": 0.21126749999999106,
          "durationTicks": 48,
          "midi": 38,
          "name": "D2",
          "ticks": 29088,
          "time": 128.028105,
          "velocity": 0.8110236220472441
        },
        {
          "duration": 0.21126750000001948,
          "durationTicks": 48,
          "midi": 38,
          "name": "D2",
          "ticks": 29136,
          "time": 128.2393725,
          "velocity": 0.8110236220472441
        },
        {
          "duration": 0.21126749999999106,
          "durationTicks": 48,
          "midi": 31,
          "name": "G1",
          "ticks": 29184,
          "time": 128.45064000000002,
          "velocity": 0.8110236220472441
        },
        {
          "duration": 0.21126749999999106,
          "durationTicks": 48,
          "midi": 31,
          "name": "G1",
          "ticks": 29232,
          "time": 128.6619075,
          "velocity": 0.8110236220472441
        },
        {
          "duration": 0.21126750000001948,
          "durationTicks": 48,
          "midi": 31,
          "name": "G1",
          "ticks": 29280,
          "time": 128.873175,
          "velocity": 0.8110236220472441
        },
        {
          "duration": 0.21126749999999106,
          "durationTicks": 48,
          "midi": 31,
          "name": "G1",
          "ticks": 29328,
          "time": 129.08444250000002,
          "velocity": 0.8110236220472441
        },
        {
          "duration": 0.21126749999999106,
          "durationTicks": 48,
          "midi": 31,
          "name": "G1",
          "ticks": 29376,
          "time": 129.29571,
          "velocity": 0.8110236220472441
        },
        {
          "duration": 0.21126750000001948,
          "durationTicks": 48,
          "midi": 31,
          "name": "G1",
          "ticks": 29424,
          "time": 129.5069775,
          "velocity": 0.8110236220472441
        },
        {
          "duration": 0.21126749999999106,
          "durationTicks": 48,
          "midi": 31,
          "name": "G1",
          "ticks": 29472,
          "time": 129.71824500000002,
          "velocity": 0.8110236220472441
        },
        {
          "duration": 0.21126749999999106,
          "durationTicks": 48,
          "midi": 31,
          "name": "G1",
          "ticks": 29520,
          "time": 129.92951250000002,
          "velocity": 0.8110236220472441
        },
        {
          "duration": 0.21126750000001948,
          "durationTicks": 48,
          "midi": 33,
          "name": "A1",
          "ticks": 29568,
          "time": 130.14078,
          "velocity": 0.8110236220472441
        },
        {
          "duration": 0.21126749999999106,
          "durationTicks": 48,
          "midi": 33,
          "name": "A1",
          "ticks": 29616,
          "time": 130.35204750000003,
          "velocity": 0.8110236220472441
        },
        {
          "duration": 0.21126749999999106,
          "durationTicks": 48,
          "midi": 33,
          "name": "A1",
          "ticks": 29664,
          "time": 130.56331500000002,
          "velocity": 0.8110236220472441
        },
        {
          "duration": 0.21126750000001948,
          "durationTicks": 48,
          "midi": 33,
          "name": "A1",
          "ticks": 29712,
          "time": 130.7745825,
          "velocity": 0.8110236220472441
        },
        {
          "duration": 0.21126749999999106,
          "durationTicks": 48,
          "midi": 33,
          "name": "A1",
          "ticks": 29760,
          "time": 130.98585000000003,
          "velocity": 0.8110236220472441
        },
        {
          "duration": 0.21126749999999106,
          "durationTicks": 48,
          "midi": 33,
          "name": "A1",
          "ticks": 29808,
          "time": 131.19711750000002,
          "velocity": 0.8110236220472441
        },
        {
          "duration": 0.21126750000001948,
          "durationTicks": 48,
          "midi": 33,
          "name": "A1",
          "ticks": 29856,
          "time": 131.408385,
          "velocity": 0.8110236220472441
        },
        {
          "duration": 0.21126749999999106,
          "durationTicks": 48,
          "midi": 33,
          "name": "A1",
          "ticks": 29904,
          "time": 131.61965250000003,
          "velocity": 0.8110236220472441
        },
        {
          "duration": 0.21126749999999106,
          "durationTicks": 48,
          "midi": 35,
          "name": "B1",
          "ticks": 29952,
          "time": 131.83092000000002,
          "velocity": 0.8110236220472441
        },
        {
          "duration": 0.21126749999999106,
          "durationTicks": 48,
          "midi": 35,
          "name": "B1",
          "ticks": 30000,
          "time": 132.0421875,
          "velocity": 0.8110236220472441
        },
        {
          "duration": 0.21126750000001948,
          "durationTicks": 48,
          "midi": 35,
          "name": "B1",
          "ticks": 30048,
          "time": 132.253455,
          "velocity": 0.8110236220472441
        },
        {
          "duration": 0.21126749999999106,
          "durationTicks": 48,
          "midi": 35,
          "name": "B1",
          "ticks": 30096,
          "time": 132.46472250000002,
          "velocity": 0.8110236220472441
        },
        {
          "duration": 0.21126749999999106,
          "durationTicks": 48,
          "midi": 35,
          "name": "B1",
          "ticks": 30144,
          "time": 132.67599,
          "velocity": 0.8110236220472441
        },
        {
          "duration": 0.21126750000001948,
          "durationTicks": 48,
          "midi": 35,
          "name": "B1",
          "ticks": 30192,
          "time": 132.8872575,
          "velocity": 0.8110236220472441
        },
        {
          "duration": 0.21126749999999106,
          "durationTicks": 48,
          "midi": 35,
          "name": "B1",
          "ticks": 30240,
          "time": 133.09852500000002,
          "velocity": 0.8110236220472441
        },
        {
          "duration": 0.21126749999999106,
          "durationTicks": 48,
          "midi": 35,
          "name": "B1",
          "ticks": 30288,
          "time": 133.30979250000001,
          "velocity": 0.8110236220472441
        },
        {
          "duration": 0.21126750000001948,
          "durationTicks": 48,
          "midi": 38,
          "name": "D2",
          "ticks": 30336,
          "time": 133.52106,
          "velocity": 0.8110236220472441
        },
        {
          "duration": 0.21126749999999106,
          "durationTicks": 48,
          "midi": 38,
          "name": "D2",
          "ticks": 30384,
          "time": 133.73232750000003,
          "velocity": 0.8110236220472441
        },
        {
          "duration": 0.21126749999999106,
          "durationTicks": 48,
          "midi": 38,
          "name": "D2",
          "ticks": 30432,
          "time": 133.94359500000002,
          "velocity": 0.8110236220472441
        },
        {
          "duration": 0.21126750000001948,
          "durationTicks": 48,
          "midi": 38,
          "name": "D2",
          "ticks": 30480,
          "time": 134.1548625,
          "velocity": 0.8110236220472441
        },
        {
          "duration": 0.21126749999999106,
          "durationTicks": 48,
          "midi": 38,
          "name": "D2",
          "ticks": 30528,
          "time": 134.36613000000003,
          "velocity": 0.8110236220472441
        },
        {
          "duration": 0.21126749999999106,
          "durationTicks": 48,
          "midi": 38,
          "name": "D2",
          "ticks": 30576,
          "time": 134.57739750000002,
          "velocity": 0.8110236220472441
        },
        {
          "duration": 0.21126750000001948,
          "durationTicks": 48,
          "midi": 38,
          "name": "D2",
          "ticks": 30624,
          "time": 134.788665,
          "velocity": 0.8110236220472441
        },
        {
          "duration": 0.21126749999999106,
          "durationTicks": 48,
          "midi": 38,
          "name": "D2",
          "ticks": 30672,
          "time": 134.99993250000003,
          "velocity": 0.8110236220472441
        },
        {
          "duration": 0.21126749999999106,
          "durationTicks": 48,
          "midi": 43,
          "name": "G2",
          "ticks": 30720,
          "time": 135.21120000000002,
          "velocity": 0.7874015748031497
        },
        {
          "duration": 0.21126750000001948,
          "durationTicks": 48,
          "midi": 50,
          "name": "D3",
          "ticks": 30768,
          "time": 135.4224675,
          "velocity": 0.7874015748031497
        },
        {
          "duration": 0.21126749999999106,
          "durationTicks": 48,
          "midi": 43,
          "name": "G2",
          "ticks": 30816,
          "time": 135.63373500000003,
          "velocity": 0.7874015748031497
        },
        {
          "duration": 0.21126749999999106,
          "durationTicks": 48,
          "midi": 50,
          "name": "D3",
          "ticks": 30864,
          "time": 135.84500250000002,
          "velocity": 0.7874015748031497
        },
        {
          "duration": 0.21126749999999106,
          "durationTicks": 48,
          "midi": 43,
          "name": "G2",
          "ticks": 30912,
          "time": 136.05627,
          "velocity": 0.7874015748031497
        },
        {
          "duration": 0.21126750000001948,
          "durationTicks": 48,
          "midi": 50,
          "name": "D3",
          "ticks": 30960,
          "time": 136.2675375,
          "velocity": 0.7874015748031497
        },
        {
          "duration": 0.21126749999999106,
          "durationTicks": 48,
          "midi": 43,
          "name": "G2",
          "ticks": 31008,
          "time": 136.47880500000002,
          "velocity": 0.7874015748031497
        },
        {
          "duration": 0.21126749999999106,
          "durationTicks": 48,
          "midi": 45,
          "name": "A2",
          "ticks": 31056,
          "time": 136.6900725,
          "velocity": 0.7874015748031497
        },
        {
          "duration": 0.21126750000001948,
          "durationTicks": 48,
          "midi": 45,
          "name": "A2",
          "ticks": 31104,
          "time": 136.90134,
          "velocity": 0.7874015748031497
        },
        {
          "duration": 0.21126749999999106,
          "durationTicks": 48,
          "midi": 54,
          "name": "F#3",
          "ticks": 31152,
          "time": 137.11260750000002,
          "velocity": 0.7874015748031497
        },
        {
          "duration": 0.21126749999999106,
          "durationTicks": 48,
          "midi": 45,
          "name": "A2",
          "ticks": 31200,
          "time": 137.32387500000002,
          "velocity": 0.7874015748031497
        },
        {
          "duration": 0.21126750000001948,
          "durationTicks": 48,
          "midi": 54,
          "name": "F#3",
          "ticks": 31248,
          "time": 137.5351425,
          "velocity": 0.7874015748031497
        },
        {
          "duration": 0.21126749999999106,
          "durationTicks": 48,
          "midi": 45,
          "name": "A2",
          "ticks": 31296,
          "time": 137.74641000000003,
          "velocity": 0.7874015748031497
        },
        {
          "duration": 0.21126749999999106,
          "durationTicks": 48,
          "midi": 54,
          "name": "F#3",
          "ticks": 31344,
          "time": 137.95767750000002,
          "velocity": 0.7874015748031497
        },
        {
          "duration": 0.21126750000001948,
          "durationTicks": 48,
          "midi": 45,
          "name": "A2",
          "ticks": 31392,
          "time": 138.168945,
          "velocity": 0.7874015748031497
        },
        {
          "duration": 0.21126749999999106,
          "durationTicks": 48,
          "midi": 49,
          "name": "C#3",
          "ticks": 31440,
          "time": 138.38021250000003,
          "velocity": 0.7874015748031497
        },
        {
          "duration": 0.21126749999999106,
          "durationTicks": 48,
          "midi": 47,
          "name": "B2",
          "ticks": 31488,
          "time": 138.59148000000002,
          "velocity": 0.7874015748031497
        },
        {
          "duration": 0.21126750000001948,
          "durationTicks": 48,
          "midi": 50,
          "name": "D3",
          "ticks": 31536,
          "time": 138.8027475,
          "velocity": 0.7874015748031497
        },
        {
          "duration": 0.21126749999999106,
          "durationTicks": 48,
          "midi": 47,
          "name": "B2",
          "ticks": 31584,
          "time": 139.01401500000003,
          "velocity": 0.7874015748031497
        },
        {
          "duration": 0.21126749999999106,
          "durationTicks": 48,
          "midi": 50,
          "name": "D3",
          "ticks": 31632,
          "time": 139.22528250000002,
          "velocity": 0.7874015748031497
        },
        {
          "duration": 0.21126749999999106,
          "durationTicks": 48,
          "midi": 47,
          "name": "B2",
          "ticks": 31680,
          "time": 139.43655,
          "velocity": 0.7874015748031497
        },
        {
          "duration": 0.21126750000001948,
          "durationTicks": 48,
          "midi": 50,
          "name": "D3",
          "ticks": 31728,
          "time": 139.6478175,
          "velocity": 0.7874015748031497
        },
        {
          "duration": 0.21126749999999106,
          "durationTicks": 48,
          "midi": 47,
          "name": "B2",
          "ticks": 31776,
          "time": 139.85908500000002,
          "velocity": 0.7874015748031497
        },
        {
          "duration": 0.21126749999999106,
          "durationTicks": 48,
          "midi": 50,
          "name": "D3",
          "ticks": 31824,
          "time": 140.0703525,
          "velocity": 0.7874015748031497
        },
        {
          "duration": 0.21126750000001948,
          "durationTicks": 48,
          "midi": 45,
          "name": "A2",
          "ticks": 31872,
          "time": 140.28162,
          "velocity": 0.7874015748031497
        },
        {
          "duration": 0.21126749999999106,
          "durationTicks": 48,
          "midi": 50,
          "name": "D3",
          "ticks": 31920,
          "time": 140.49288750000002,
          "velocity": 0.7874015748031497
        },
        {
          "duration": 0.21126749999999106,
          "durationTicks": 48,
          "midi": 45,
          "name": "A2",
          "ticks": 31968,
          "time": 140.70415500000001,
          "velocity": 0.7874015748031497
        },
        {
          "duration": 0.21126750000001948,
          "durationTicks": 48,
          "midi": 50,
          "name": "D3",
          "ticks": 32016,
          "time": 140.9154225,
          "velocity": 0.7874015748031497
        },
        {
          "duration": 0.21126749999999106,
          "durationTicks": 48,
          "midi": 45,
          "name": "A2",
          "ticks": 32064,
          "time": 141.12669000000002,
          "velocity": 0.7874015748031497
        },
        {
          "duration": 0.21126749999999106,
          "durationTicks": 48,
          "midi": 50,
          "name": "D3",
          "ticks": 32112,
          "time": 141.33795750000002,
          "velocity": 0.7874015748031497
        },
        {
          "duration": 0.21126750000001948,
          "durationTicks": 48,
          "midi": 45,
          "name": "A2",
          "ticks": 32160,
          "time": 141.549225,
          "velocity": 0.7874015748031497
        },
        {
          "duration": 0.21126749999999106,
          "durationTicks": 48,
          "midi": 50,
          "name": "D3",
          "ticks": 32208,
          "time": 141.76049250000003,
          "velocity": 0.7874015748031497
        },
        {
          "duration": 0.21126749999999106,
          "durationTicks": 48,
          "midi": 43,
          "name": "G2",
          "ticks": 32256,
          "time": 141.97176000000002,
          "velocity": 0.7874015748031497
        },
        {
          "duration": 0.21126750000001948,
          "durationTicks": 48,
          "midi": 50,
          "name": "D3",
          "ticks": 32304,
          "time": 142.1830275,
          "velocity": 0.7874015748031497
        },
        {
          "duration": 0.21126749999999106,
          "durationTicks": 48,
          "midi": 43,
          "name": "G2",
          "ticks": 32352,
          "time": 142.39429500000003,
          "velocity": 0.7874015748031497
        },
        {
          "duration": 0.21126749999999106,
          "durationTicks": 48,
          "midi": 50,
          "name": "D3",
          "ticks": 32400,
          "time": 142.60556250000002,
          "velocity": 0.7874015748031497
        },
        {
          "duration": 0.21126750000001948,
          "durationTicks": 48,
          "midi": 43,
          "name": "G2",
          "ticks": 32448,
          "time": 142.81683,
          "velocity": 0.7874015748031497
        },
        {
          "duration": 0.21126749999999106,
          "durationTicks": 48,
          "midi": 50,
          "name": "D3",
          "ticks": 32496,
          "time": 143.02809750000003,
          "velocity": 0.7874015748031497
        },
        {
          "duration": 0.21126749999999106,
          "durationTicks": 48,
          "midi": 43,
          "name": "G2",
          "ticks": 32544,
          "time": 143.23936500000002,
          "velocity": 0.7874015748031497
        },
        {
          "duration": 0.21126749999999106,
          "durationTicks": 48,
          "midi": 45,
          "name": "A2",
          "ticks": 32592,
          "time": 143.4506325,
          "velocity": 0.7874015748031497
        },
        {
          "duration": 0.21126750000001948,
          "durationTicks": 48,
          "midi": 45,
          "name": "A2",
          "ticks": 32640,
          "time": 143.6619,
          "velocity": 0.7874015748031497
        },
        {
          "duration": 0.21126749999999106,
          "durationTicks": 48,
          "midi": 54,
          "name": "F#3",
          "ticks": 32688,
          "time": 143.87316750000002,
          "velocity": 0.7874015748031497
        },
        {
          "duration": 0.21126749999999106,
          "durationTicks": 48,
          "midi": 45,
          "name": "A2",
          "ticks": 32736,
          "time": 144.084435,
          "velocity": 0.7874015748031497
        },
        {
          "duration": 0.21126750000001948,
          "durationTicks": 48,
          "midi": 54,
          "name": "F#3",
          "ticks": 32784,
          "time": 144.2957025,
          "velocity": 0.7874015748031497
        },
        {
          "duration": 0.21126749999999106,
          "durationTicks": 48,
          "midi": 45,
          "name": "A2",
          "ticks": 32832,
          "time": 144.50697000000002,
          "velocity": 0.7874015748031497
        },
        {
          "duration": 0.21126749999999106,
          "durationTicks": 48,
          "midi": 54,
          "name": "F#3",
          "ticks": 32880,
          "time": 144.71823750000001,
          "velocity": 0.7874015748031497
        },
        {
          "duration": 0.21126750000001948,
          "durationTicks": 48,
          "midi": 45,
          "name": "A2",
          "ticks": 32928,
          "time": 144.929505,
          "velocity": 0.7874015748031497
        },
        {
          "duration": 0.21126749999999106,
          "durationTicks": 48,
          "midi": 49,
          "name": "C#3",
          "ticks": 32976,
          "time": 145.14077250000003,
          "velocity": 0.7874015748031497
        },
        {
          "duration": 0.21126749999999106,
          "durationTicks": 48,
          "midi": 47,
          "name": "B2",
          "ticks": 33024,
          "time": 145.35204000000002,
          "velocity": 0.7874015748031497
        },
        {
          "duration": 0.21126750000001948,
          "durationTicks": 48,
          "midi": 50,
          "name": "D3",
          "ticks": 33072,
          "time": 145.5633075,
          "velocity": 0.7874015748031497
        },
        {
          "duration": 0.21126749999999106,
          "durationTicks": 48,
          "midi": 47,
          "name": "B2",
          "ticks": 33120,
          "time": 145.77457500000003,
          "velocity": 0.7874015748031497
        },
        {
          "duration": 0.21126749999999106,
          "durationTicks": 48,
          "midi": 50,
          "name": "D3",
          "ticks": 33168,
          "time": 145.98584250000002,
          "velocity": 0.7874015748031497
        },
        {
          "duration": 0.21126750000001948,
          "durationTicks": 48,
          "midi": 47,
          "name": "B2",
          "ticks": 33216,
          "time": 146.19711,
          "velocity": 0.7874015748031497
        },
        {
          "duration": 0.21126749999999106,
          "durationTicks": 48,
          "midi": 50,
          "name": "D3",
          "ticks": 33264,
          "time": 146.40837750000003,
          "velocity": 0.7874015748031497
        },
        {
          "duration": 0.21126749999999106,
          "durationTicks": 48,
          "midi": 47,
          "name": "B2",
          "ticks": 33312,
          "time": 146.61964500000002,
          "velocity": 0.7874015748031497
        },
        {
          "duration": 0.21126750000001948,
          "durationTicks": 48,
          "midi": 50,
          "name": "D3",
          "ticks": 33360,
          "time": 146.8309125,
          "velocity": 0.7874015748031497
        },
        {
          "duration": 0.21126749999999106,
          "durationTicks": 48,
          "midi": 45,
          "name": "A2",
          "ticks": 33408,
          "time": 147.04218000000003,
          "velocity": 0.7874015748031497
        },
        {
          "duration": 0.21126749999999106,
          "durationTicks": 48,
          "midi": 50,
          "name": "D3",
          "ticks": 33456,
          "time": 147.25344750000002,
          "velocity": 0.7874015748031497
        },
        {
          "duration": 0.21126749999999106,
          "durationTicks": 48,
          "midi": 45,
          "name": "A2",
          "ticks": 33504,
          "time": 147.464715,
          "velocity": 0.7874015748031497
        },
        {
          "duration": 0.21126750000001948,
          "durationTicks": 48,
          "midi": 50,
          "name": "D3",
          "ticks": 33552,
          "time": 147.6759825,
          "velocity": 0.7874015748031497
        },
        {
          "duration": 0.21126749999999106,
          "durationTicks": 48,
          "midi": 45,
          "name": "A2",
          "ticks": 33600,
          "time": 147.88725000000002,
          "velocity": 0.7874015748031497
        },
        {
          "duration": 0.21126749999999106,
          "durationTicks": 48,
          "midi": 50,
          "name": "D3",
          "ticks": 33648,
          "time": 148.0985175,
          "velocity": 0.7874015748031497
        },
        {
          "duration": 0.21126750000001948,
          "durationTicks": 48,
          "midi": 45,
          "name": "A2",
          "ticks": 33696,
          "time": 148.309785,
          "velocity": 0.7874015748031497
        },
        {
          "duration": 0.21126749999999106,
          "durationTicks": 48,
          "midi": 50,
          "name": "D3",
          "ticks": 33744,
          "time": 148.52105250000002,
          "velocity": 0.7874015748031497
        },
        {
          "duration": 0.21126749999999106,
          "durationTicks": 48,
          "midi": 43,
          "name": "G2",
          "ticks": 33792,
          "time": 148.73232000000002,
          "velocity": 0.7874015748031497
        },
        {
          "duration": 0.21126750000001948,
          "durationTicks": 48,
          "midi": 50,
          "name": "D3",
          "ticks": 33840,
          "time": 148.9435875,
          "velocity": 0.7874015748031497
        },
        {
          "duration": 0.21126749999999106,
          "durationTicks": 48,
          "midi": 43,
          "name": "G2",
          "ticks": 33888,
          "time": 149.15485500000003,
          "velocity": 0.7874015748031497
        },
        {
          "duration": 0.21126749999999106,
          "durationTicks": 48,
          "midi": 50,
          "name": "D3",
          "ticks": 33936,
          "time": 149.36612250000002,
          "velocity": 0.7874015748031497
        },
        {
          "duration": 0.21126750000001948,
          "durationTicks": 48,
          "midi": 43,
          "name": "G2",
          "ticks": 33984,
          "time": 149.57739,
          "velocity": 0.7874015748031497
        },
        {
          "duration": 0.21126749999999106,
          "durationTicks": 48,
          "midi": 50,
          "name": "D3",
          "ticks": 34032,
          "time": 149.78865750000003,
          "velocity": 0.7874015748031497
        },
        {
          "duration": 0.21126749999999106,
          "durationTicks": 48,
          "midi": 43,
          "name": "G2",
          "ticks": 34080,
          "time": 149.99992500000002,
          "velocity": 0.7874015748031497
        },
        {
          "duration": 0.21126750000001948,
          "durationTicks": 48,
          "midi": 45,
          "name": "A2",
          "ticks": 34128,
          "time": 150.2111925,
          "velocity": 0.7874015748031497
        },
        {
          "duration": 0.21126749999999106,
          "durationTicks": 48,
          "midi": 45,
          "name": "A2",
          "ticks": 34176,
          "time": 150.42246000000003,
          "velocity": 0.7874015748031497
        },
        {
          "duration": 0.21126749999999106,
          "durationTicks": 48,
          "midi": 54,
          "name": "F#3",
          "ticks": 34224,
          "time": 150.63372750000002,
          "velocity": 0.7874015748031497
        },
        {
          "duration": 0.21126750000001948,
          "durationTicks": 48,
          "midi": 45,
          "name": "A2",
          "ticks": 34272,
          "time": 150.844995,
          "velocity": 0.7874015748031497
        },
        {
          "duration": 0.21126749999999106,
          "durationTicks": 48,
          "midi": 54,
          "name": "F#3",
          "ticks": 34320,
          "time": 151.05626250000003,
          "velocity": 0.7874015748031497
        },
        {
          "duration": 0.21126749999999106,
          "durationTicks": 48,
          "midi": 45,
          "name": "A2",
          "ticks": 34368,
          "time": 151.26753000000002,
          "velocity": 0.7874015748031497
        },
        {
          "duration": 0.21126749999999106,
          "durationTicks": 48,
          "midi": 54,
          "name": "F#3",
          "ticks": 34416,
          "time": 151.4787975,
          "velocity": 0.7874015748031497
        },
        {
          "duration": 0.21126750000001948,
          "durationTicks": 48,
          "midi": 45,
          "name": "A2",
          "ticks": 34464,
          "time": 151.690065,
          "velocity": 0.7874015748031497
        },
        {
          "duration": 0.21126749999999106,
          "durationTicks": 48,
          "midi": 49,
          "name": "C#3",
          "ticks": 34512,
          "time": 151.90133250000002,
          "velocity": 0.7874015748031497
        },
        {
          "duration": 0.21126749999999106,
          "durationTicks": 48,
          "midi": 47,
          "name": "B2",
          "ticks": 34560,
          "time": 152.11260000000001,
          "velocity": 0.7874015748031497
        },
        {
          "duration": 0.21126750000001948,
          "durationTicks": 48,
          "midi": 50,
          "name": "D3",
          "ticks": 34608,
          "time": 152.3238675,
          "velocity": 0.7874015748031497
        },
        {
          "duration": 0.21126749999999106,
          "durationTicks": 48,
          "midi": 47,
          "name": "B2",
          "ticks": 34656,
          "time": 152.53513500000003,
          "velocity": 0.7874015748031497
        },
        {
          "duration": 0.21126749999999106,
          "durationTicks": 48,
          "midi": 50,
          "name": "D3",
          "ticks": 34704,
          "time": 152.74640250000002,
          "velocity": 0.7874015748031497
        },
        {
          "duration": 0.21126750000001948,
          "durationTicks": 48,
          "midi": 47,
          "name": "B2",
          "ticks": 34752,
          "time": 152.95767,
          "velocity": 0.7874015748031497
        },
        {
          "duration": 0.21126749999999106,
          "durationTicks": 48,
          "midi": 50,
          "name": "D3",
          "ticks": 34800,
          "time": 153.16893750000003,
          "velocity": 0.7874015748031497
        },
        {
          "duration": 0.21126749999999106,
          "durationTicks": 48,
          "midi": 47,
          "name": "B2",
          "ticks": 34848,
          "time": 153.38020500000002,
          "velocity": 0.7874015748031497
        },
        {
          "duration": 0.21126750000001948,
          "durationTicks": 48,
          "midi": 50,
          "name": "D3",
          "ticks": 34896,
          "time": 153.5914725,
          "velocity": 0.7874015748031497
        },
        {
          "duration": 0.21126749999999106,
          "durationTicks": 48,
          "midi": 45,
          "name": "A2",
          "ticks": 34944,
          "time": 153.80274000000003,
          "velocity": 0.7874015748031497
        },
        {
          "duration": 0.21126749999999106,
          "durationTicks": 48,
          "midi": 50,
          "name": "D3",
          "ticks": 34992,
          "time": 154.01400750000002,
          "velocity": 0.7874015748031497
        },
        {
          "duration": 0.21126750000001948,
          "durationTicks": 48,
          "midi": 45,
          "name": "A2",
          "ticks": 35040,
          "time": 154.225275,
          "velocity": 0.7874015748031497
        },
        {
          "duration": 0.21126749999999106,
          "durationTicks": 48,
          "midi": 50,
          "name": "D3",
          "ticks": 35088,
          "time": 154.43654250000003,
          "velocity": 0.7874015748031497
        },
        {
          "duration": 0.21126749999999106,
          "durationTicks": 48,
          "midi": 45,
          "name": "A2",
          "ticks": 35136,
          "time": 154.64781000000002,
          "velocity": 0.7874015748031497
        },
        {
          "duration": 0.21126750000001948,
          "durationTicks": 48,
          "midi": 50,
          "name": "D3",
          "ticks": 35184,
          "time": 154.8590775,
          "velocity": 0.7874015748031497
        },
        {
          "duration": 0.21126749999999106,
          "durationTicks": 48,
          "midi": 45,
          "name": "A2",
          "ticks": 35232,
          "time": 155.07034500000003,
          "velocity": 0.7874015748031497
        },
        {
          "duration": 0.21126749999999106,
          "durationTicks": 48,
          "midi": 50,
          "name": "D3",
          "ticks": 35280,
          "time": 155.28161250000002,
          "velocity": 0.7874015748031497
        },
        {
          "duration": 0.21126749999999106,
          "durationTicks": 48,
          "midi": 43,
          "name": "G2",
          "ticks": 35328,
          "time": 155.49288,
          "velocity": 0.7874015748031497
        },
        {
          "duration": 0.21126750000001948,
          "durationTicks": 48,
          "midi": 50,
          "name": "D3",
          "ticks": 35376,
          "time": 155.7041475,
          "velocity": 0.7874015748031497
        },
        {
          "duration": 0.21126749999999106,
          "durationTicks": 48,
          "midi": 43,
          "name": "G2",
          "ticks": 35424,
          "time": 155.91541500000002,
          "velocity": 0.7874015748031497
        },
        {
          "duration": 0.21126749999999106,
          "durationTicks": 48,
          "midi": 50,
          "name": "D3",
          "ticks": 35472,
          "time": 156.12668250000002,
          "velocity": 0.7874015748031497
        },
        {
          "duration": 0.21126750000001948,
          "durationTicks": 48,
          "midi": 43,
          "name": "G2",
          "ticks": 35520,
          "time": 156.33795,
          "velocity": 0.7874015748031497
        },
        {
          "duration": 0.21126749999999106,
          "durationTicks": 48,
          "midi": 50,
          "name": "D3",
          "ticks": 35568,
          "time": 156.54921750000003,
          "velocity": 0.7874015748031497
        },
        {
          "duration": 0.21126749999999106,
          "durationTicks": 48,
          "midi": 43,
          "name": "G2",
          "ticks": 35616,
          "time": 156.76048500000002,
          "velocity": 0.7874015748031497
        },
        {
          "duration": 0.21126750000001948,
          "durationTicks": 48,
          "midi": 45,
          "name": "A2",
          "ticks": 35664,
          "time": 156.9717525,
          "velocity": 0.7874015748031497
        },
        {
          "duration": 0.21126749999999106,
          "durationTicks": 48,
          "midi": 45,
          "name": "A2",
          "ticks": 35712,
          "time": 157.18302000000003,
          "velocity": 0.7874015748031497
        },
        {
          "duration": 0.21126749999999106,
          "durationTicks": 48,
          "midi": 54,
          "name": "F#3",
          "ticks": 35760,
          "time": 157.39428750000002,
          "velocity": 0.7874015748031497
        },
        {
          "duration": 0.21126750000001948,
          "durationTicks": 48,
          "midi": 45,
          "name": "A2",
          "ticks": 35808,
          "time": 157.605555,
          "velocity": 0.7874015748031497
        },
        {
          "duration": 0.21126749999999106,
          "durationTicks": 48,
          "midi": 54,
          "name": "F#3",
          "ticks": 35856,
          "time": 157.81682250000003,
          "velocity": 0.7874015748031497
        },
        {
          "duration": 0.21126749999999106,
          "durationTicks": 48,
          "midi": 45,
          "name": "A2",
          "ticks": 35904,
          "time": 158.02809000000002,
          "velocity": 0.7874015748031497
        },
        {
          "duration": 0.21126750000001948,
          "durationTicks": 48,
          "midi": 54,
          "name": "F#3",
          "ticks": 35952,
          "time": 158.2393575,
          "velocity": 0.7874015748031497
        },
        {
          "duration": 0.21126749999999106,
          "durationTicks": 48,
          "midi": 45,
          "name": "A2",
          "ticks": 36000,
          "time": 158.45062500000003,
          "velocity": 0.7874015748031497
        },
        {
          "duration": 0.21126749999999106,
          "durationTicks": 48,
          "midi": 49,
          "name": "C#3",
          "ticks": 36048,
          "time": 158.66189250000002,
          "velocity": 0.7874015748031497
        },
        {
          "duration": 0.21126750000001948,
          "durationTicks": 48,
          "midi": 47,
          "name": "B2",
          "ticks": 36096,
          "time": 158.87316,
          "velocity": 0.7874015748031497
        },
        {
          "duration": 0.21126749999999106,
          "durationTicks": 48,
          "midi": 50,
          "name": "D3",
          "ticks": 36144,
          "time": 159.08442750000003,
          "velocity": 0.7874015748031497
        },
        {
          "duration": 0.21126749999999106,
          "durationTicks": 48,
          "midi": 47,
          "name": "B2",
          "ticks": 36192,
          "time": 159.29569500000002,
          "velocity": 0.7874015748031497
        },
        {
          "duration": 0.21126749999999106,
          "durationTicks": 48,
          "midi": 50,
          "name": "D3",
          "ticks": 36240,
          "time": 159.50696250000001,
          "velocity": 0.7874015748031497
        },
        {
          "duration": 0.21126750000001948,
          "durationTicks": 48,
          "midi": 47,
          "name": "B2",
          "ticks": 36288,
          "time": 159.71823,
          "velocity": 0.7874015748031497
        },
        {
          "duration": 0.21126749999999106,
          "durationTicks": 48,
          "midi": 50,
          "name": "D3",
          "ticks": 36336,
          "time": 159.92949750000002,
          "velocity": 0.7874015748031497
        },
        {
          "duration": 0.21126749999999106,
          "durationTicks": 48,
          "midi": 47,
          "name": "B2",
          "ticks": 36384,
          "time": 160.14076500000002,
          "velocity": 0.7874015748031497
        },
        {
          "duration": 0.2068660937499942,
          "durationTicks": 47,
          "midi": 50,
          "name": "D3",
          "ticks": 36432,
          "time": 160.3520325,
          "velocity": 0.7874015748031497
        },
        {
          "duration": 0.21126749999999106,
          "durationTicks": 48,
          "midi": 43,
          "name": "G2",
          "ticks": 43008,
          "time": 189.29568000000003,
          "velocity": 0.7874015748031497
        },
        {
          "duration": 0.21126749999999106,
          "durationTicks": 48,
          "midi": 50,
          "name": "D3",
          "ticks": 43056,
          "time": 189.50694750000002,
          "velocity": 0.7874015748031497
        },
        {
          "duration": 0.21126750000001948,
          "durationTicks": 48,
          "midi": 43,
          "name": "G2",
          "ticks": 43104,
          "time": 189.71821500000001,
          "velocity": 0.7874015748031497
        },
        {
          "duration": 0.21126749999999106,
          "durationTicks": 48,
          "midi": 50,
          "name": "D3",
          "ticks": 43152,
          "time": 189.92948250000003,
          "velocity": 0.7874015748031497
        },
        {
          "duration": 0.21126749999999106,
          "durationTicks": 48,
          "midi": 43,
          "name": "G2",
          "ticks": 43200,
          "time": 190.14075000000003,
          "velocity": 0.7874015748031497
        },
        {
          "duration": 0.21126750000001948,
          "durationTicks": 48,
          "midi": 50,
          "name": "D3",
          "ticks": 43248,
          "time": 190.35201750000002,
          "velocity": 0.7874015748031497
        },
        {
          "duration": 0.21126749999999106,
          "durationTicks": 48,
          "midi": 43,
          "name": "G2",
          "ticks": 43296,
          "time": 190.56328500000004,
          "velocity": 0.7874015748031497
        },
        {
          "duration": 0.21126749999999106,
          "durationTicks": 48,
          "midi": 45,
          "name": "A2",
          "ticks": 43344,
          "time": 190.77455250000003,
          "velocity": 0.7874015748031497
        },
        {
          "duration": 0.21126749999999106,
          "durationTicks": 48,
          "midi": 45,
          "name": "A2",
          "ticks": 43392,
          "time": 190.98582000000002,
          "velocity": 0.7874015748031497
        },
        {
          "duration": 0.21126750000001948,
          "durationTicks": 48,
          "midi": 54,
          "name": "F#3",
          "ticks": 43440,
          "time": 191.1970875,
          "velocity": 0.7874015748031497
        },
        {
          "duration": 0.21126749999999106,
          "durationTicks": 48,
          "midi": 45,
          "name": "A2",
          "ticks": 43488,
          "time": 191.40835500000003,
          "velocity": 0.7874015748031497
        },
        {
          "duration": 0.21126749999999106,
          "durationTicks": 48,
          "midi": 54,
          "name": "F#3",
          "ticks": 43536,
          "time": 191.61962250000002,
          "velocity": 0.7874015748031497
        },
        {
          "duration": 0.21126750000001948,
          "durationTicks": 48,
          "midi": 45,
          "name": "A2",
          "ticks": 43584,
          "time": 191.83089,
          "velocity": 0.7874015748031497
        },
        {
          "duration": 0.21126749999999106,
          "durationTicks": 48,
          "midi": 54,
          "name": "F#3",
          "ticks": 43632,
          "time": 192.04215750000003,
          "velocity": 0.7874015748031497
        },
        {
          "duration": 0.21126749999999106,
          "durationTicks": 48,
          "midi": 45,
          "name": "A2",
          "ticks": 43680,
          "time": 192.25342500000002,
          "velocity": 0.7874015748031497
        },
        {
          "duration": 0.21126750000001948,
          "durationTicks": 48,
          "midi": 49,
          "name": "C#3",
          "ticks": 43728,
          "time": 192.4646925,
          "velocity": 0.7874015748031497
        },
        {
          "duration": 0.21126749999999106,
          "durationTicks": 48,
          "midi": 47,
          "name": "B2",
          "ticks": 43776,
          "time": 192.67596000000003,
          "velocity": 0.7874015748031497
        },
        {
          "duration": 0.21126749999999106,
          "durationTicks": 48,
          "midi": 50,
          "name": "D3",
          "ticks": 43824,
          "time": 192.88722750000002,
          "velocity": 0.7874015748031497
        },
        {
          "duration": 0.21126750000001948,
          "durationTicks": 48,
          "midi": 47,
          "name": "B2",
          "ticks": 43872,
          "time": 193.098495,
          "velocity": 0.7874015748031497
        },
        {
          "duration": 0.21126749999999106,
          "durationTicks": 48,
          "midi": 50,
          "name": "D3",
          "ticks": 43920,
          "time": 193.30976250000003,
          "velocity": 0.7874015748031497
        },
        {
          "duration": 0.21126749999999106,
          "durationTicks": 48,
          "midi": 47,
          "name": "B2",
          "ticks": 43968,
          "time": 193.52103000000002,
          "velocity": 0.7874015748031497
        },
        {
          "duration": 0.21126750000001948,
          "durationTicks": 48,
          "midi": 50,
          "name": "D3",
          "ticks": 44016,
          "time": 193.73229750000002,
          "velocity": 0.7874015748031497
        },
        {
          "duration": 0.21126749999999106,
          "durationTicks": 48,
          "midi": 47,
          "name": "B2",
          "ticks": 44064,
          "time": 193.94356500000004,
          "velocity": 0.7874015748031497
        },
        {
          "duration": 0.21126749999999106,
          "durationTicks": 48,
          "midi": 50,
          "name": "D3",
          "ticks": 44112,
          "time": 194.15483250000003,
          "velocity": 0.7874015748031497
        },
        {
          "duration": 0.21126750000001948,
          "durationTicks": 48,
          "midi": 45,
          "name": "A2",
          "ticks": 44160,
          "time": 194.36610000000002,
          "velocity": 0.7874015748031497
        },
        {
          "duration": 0.21126749999999106,
          "durationTicks": 48,
          "midi": 50,
          "name": "D3",
          "ticks": 44208,
          "time": 194.57736750000004,
          "velocity": 0.7874015748031497
        },
        {
          "duration": 0.21126749999999106,
          "durationTicks": 48,
          "midi": 45,
          "name": "A2",
          "ticks": 44256,
          "time": 194.78863500000003,
          "velocity": 0.7874015748031497
        },
        {
          "duration": 0.21126749999999106,
          "durationTicks": 48,
          "midi": 50,
          "name": "D3",
          "ticks": 44304,
          "time": 194.99990250000002,
          "velocity": 0.7874015748031497
        },
        {
          "duration": 0.21126750000001948,
          "durationTicks": 48,
          "midi": 45,
          "name": "A2",
          "ticks": 44352,
          "time": 195.21117,
          "velocity": 0.7874015748031497
        },
        {
          "duration": 0.21126749999999106,
          "durationTicks": 48,
          "midi": 50,
          "name": "D3",
          "ticks": 44400,
          "time": 195.42243750000003,
          "velocity": 0.7874015748031497
        },
        {
          "duration": 0.21126749999999106,
          "durationTicks": 48,
          "midi": 45,
          "name": "A2",
          "ticks": 44448,
          "time": 195.63370500000002,
          "velocity": 0.7874015748031497
        },
        {
          "duration": 0.21126750000001948,
          "durationTicks": 48,
          "midi": 50,
          "name": "D3",
          "ticks": 44496,
          "time": 195.8449725,
          "velocity": 0.7874015748031497
        },
        {
          "duration": 0.21126749999999106,
          "durationTicks": 48,
          "midi": 43,
          "name": "G2",
          "ticks": 44544,
          "time": 196.05624000000003,
          "velocity": 0.7874015748031497
        },
        {
          "duration": 0.21126749999999106,
          "durationTicks": 48,
          "midi": 50,
          "name": "D3",
          "ticks": 44592,
          "time": 196.26750750000002,
          "velocity": 0.7874015748031497
        },
        {
          "duration": 0.21126750000001948,
          "durationTicks": 48,
          "midi": 43,
          "name": "G2",
          "ticks": 44640,
          "time": 196.478775,
          "velocity": 0.7874015748031497
        },
        {
          "duration": 0.21126749999999106,
          "durationTicks": 48,
          "midi": 50,
          "name": "D3",
          "ticks": 44688,
          "time": 196.69004250000003,
          "velocity": 0.7874015748031497
        },
        {
          "duration": 0.21126749999999106,
          "durationTicks": 48,
          "midi": 43,
          "name": "G2",
          "ticks": 44736,
          "time": 196.90131000000002,
          "velocity": 0.7874015748031497
        },
        {
          "duration": 0.21126750000001948,
          "durationTicks": 48,
          "midi": 50,
          "name": "D3",
          "ticks": 44784,
          "time": 197.11257750000001,
          "velocity": 0.7874015748031497
        },
        {
          "duration": 0.21126749999999106,
          "durationTicks": 48,
          "midi": 43,
          "name": "G2",
          "ticks": 44832,
          "time": 197.32384500000003,
          "velocity": 0.7874015748031497
        },
        {
          "duration": 0.21126749999999106,
          "durationTicks": 48,
          "midi": 45,
          "name": "A2",
          "ticks": 44880,
          "time": 197.53511250000003,
          "velocity": 0.7874015748031497
        },
        {
          "duration": 0.21126750000001948,
          "durationTicks": 48,
          "midi": 45,
          "name": "A2",
          "ticks": 44928,
          "time": 197.74638000000002,
          "velocity": 0.7874015748031497
        },
        {
          "duration": 0.21126749999999106,
          "durationTicks": 48,
          "midi": 54,
          "name": "F#3",
          "ticks": 44976,
          "time": 197.95764750000004,
          "velocity": 0.7874015748031497
        },
        {
          "duration": 0.21126749999999106,
          "durationTicks": 48,
          "midi": 45,
          "name": "A2",
          "ticks": 45024,
          "time": 198.16891500000003,
          "velocity": 0.7874015748031497
        },
        {
          "duration": 0.21126750000001948,
          "durationTicks": 48,
          "midi": 54,
          "name": "F#3",
          "ticks": 45072,
          "time": 198.38018250000002,
          "velocity": 0.7874015748031497
        },
        {
          "duration": 0.21126749999999106,
          "durationTicks": 48,
          "midi": 45,
          "name": "A2",
          "ticks": 45120,
          "time": 198.59145000000004,
          "velocity": 0.7874015748031497
        },
        {
          "duration": 0.21126749999999106,
          "durationTicks": 48,
          "midi": 54,
          "name": "F#3",
          "ticks": 45168,
          "time": 198.80271750000003,
          "velocity": 0.7874015748031497
        },
        {
          "duration": 0.21126749999999106,
          "durationTicks": 48,
          "midi": 45,
          "name": "A2",
          "ticks": 45216,
          "time": 199.01398500000002,
          "velocity": 0.7874015748031497
        },
        {
          "duration": 0.21126750000001948,
          "durationTicks": 48,
          "midi": 49,
          "name": "C#3",
          "ticks": 45264,
          "time": 199.2252525,
          "velocity": 0.7874015748031497
        },
        {
          "duration": 0.21126749999999106,
          "durationTicks": 48,
          "midi": 47,
          "name": "B2",
          "ticks": 45312,
          "time": 199.43652000000003,
          "velocity": 0.7874015748031497
        },
        {
          "duration": 0.21126749999999106,
          "durationTicks": 48,
          "midi": 50,
          "name": "D3",
          "ticks": 45360,
          "time": 199.64778750000002,
          "velocity": 0.7874015748031497
        },
        {
          "duration": 0.21126750000001948,
          "durationTicks": 48,
          "midi": 47,
          "name": "B2",
          "ticks": 45408,
          "time": 199.859055,
          "velocity": 0.7874015748031497
        },
        {
          "duration": 0.21126749999999106,
          "durationTicks": 48,
          "midi": 50,
          "name": "D3",
          "ticks": 45456,
          "time": 200.07032250000003,
          "velocity": 0.7874015748031497
        },
        {
          "duration": 0.21126749999999106,
          "durationTicks": 48,
          "midi": 47,
          "name": "B2",
          "ticks": 45504,
          "time": 200.28159000000002,
          "velocity": 0.7874015748031497
        },
        {
          "duration": 0.21126750000001948,
          "durationTicks": 48,
          "midi": 50,
          "name": "D3",
          "ticks": 45552,
          "time": 200.4928575,
          "velocity": 0.7874015748031497
        },
        {
          "duration": 0.21126749999999106,
          "durationTicks": 48,
          "midi": 47,
          "name": "B2",
          "ticks": 45600,
          "time": 200.70412500000003,
          "velocity": 0.7874015748031497
        },
        {
          "duration": 0.21126749999999106,
          "durationTicks": 48,
          "midi": 50,
          "name": "D3",
          "ticks": 45648,
          "time": 200.91539250000002,
          "velocity": 0.7874015748031497
        },
        {
          "duration": 0.21126750000001948,
          "durationTicks": 48,
          "midi": 45,
          "name": "A2",
          "ticks": 45696,
          "time": 201.12666000000002,
          "velocity": 0.7874015748031497
        },
        {
          "duration": 0.21126749999999106,
          "durationTicks": 48,
          "midi": 50,
          "name": "D3",
          "ticks": 45744,
          "time": 201.33792750000003,
          "velocity": 0.7874015748031497
        },
        {
          "duration": 0.21126749999999106,
          "durationTicks": 48,
          "midi": 45,
          "name": "A2",
          "ticks": 45792,
          "time": 201.54919500000003,
          "velocity": 0.7874015748031497
        },
        {
          "duration": 0.21126750000001948,
          "durationTicks": 48,
          "midi": 50,
          "name": "D3",
          "ticks": 45840,
          "time": 201.76046250000002,
          "velocity": 0.7874015748031497
        },
        {
          "duration": 0.21126749999999106,
          "durationTicks": 48,
          "midi": 45,
          "name": "A2",
          "ticks": 45888,
          "time": 201.97173000000004,
          "velocity": 0.7874015748031497
        },
        {
          "duration": 0.21126749999999106,
          "durationTicks": 48,
          "midi": 50,
          "name": "D3",
          "ticks": 45936,
          "time": 202.18299750000003,
          "velocity": 0.7874015748031497
        },
        {
          "duration": 0.21126749999999106,
          "durationTicks": 48,
          "midi": 45,
          "name": "A2",
          "ticks": 45984,
          "time": 202.39426500000002,
          "velocity": 0.7874015748031497
        },
        {
          "duration": 0.21126750000001948,
          "durationTicks": 48,
          "midi": 50,
          "name": "D3",
          "ticks": 46032,
          "time": 202.6055325,
          "velocity": 0.7874015748031497
        },
        {
          "duration": 0.21126749999999106,
          "durationTicks": 48,
          "midi": 43,
          "name": "G2",
          "ticks": 46080,
          "time": 202.81680000000003,
          "velocity": 0.7874015748031497
        },
        {
          "duration": 0.21126749999999106,
          "durationTicks": 48,
          "midi": 50,
          "name": "D3",
          "ticks": 46128,
          "time": 203.02806750000002,
          "velocity": 0.7874015748031497
        },
        {
          "duration": 0.21126750000001948,
          "durationTicks": 48,
          "midi": 43,
          "name": "G2",
          "ticks": 46176,
          "time": 203.239335,
          "velocity": 0.7874015748031497
        },
        {
          "duration": 0.21126749999999106,
          "durationTicks": 48,
          "midi": 50,
          "name": "D3",
          "ticks": 46224,
          "time": 203.45060250000003,
          "velocity": 0.7874015748031497
        },
        {
          "duration": 0.21126749999999106,
          "durationTicks": 48,
          "midi": 43,
          "name": "G2",
          "ticks": 46272,
          "time": 203.66187000000002,
          "velocity": 0.7874015748031497
        },
        {
          "duration": 0.21126750000001948,
          "durationTicks": 48,
          "midi": 50,
          "name": "D3",
          "ticks": 46320,
          "time": 203.8731375,
          "velocity": 0.7874015748031497
        },
        {
          "duration": 0.21126749999999106,
          "durationTicks": 48,
          "midi": 43,
          "name": "G2",
          "ticks": 46368,
          "time": 204.08440500000003,
          "velocity": 0.7874015748031497
        },
        {
          "duration": 0.21126749999999106,
          "durationTicks": 48,
          "midi": 45,
          "name": "A2",
          "ticks": 46416,
          "time": 204.29567250000002,
          "velocity": 0.7874015748031497
        },
        {
          "duration": 0.21126750000001948,
          "durationTicks": 48,
          "midi": 45,
          "name": "A2",
          "ticks": 46464,
          "time": 204.50694000000001,
          "velocity": 0.7874015748031497
        },
        {
          "duration": 0.21126749999999106,
          "durationTicks": 48,
          "midi": 54,
          "name": "F#3",
          "ticks": 46512,
          "time": 204.71820750000003,
          "velocity": 0.7874015748031497
        },
        {
          "duration": 0.21126749999999106,
          "durationTicks": 48,
          "midi": 45,
          "name": "A2",
          "ticks": 46560,
          "time": 204.92947500000002,
          "velocity": 0.7874015748031497
        },
        {
          "duration": 0.21126750000001948,
          "durationTicks": 48,
          "midi": 54,
          "name": "F#3",
          "ticks": 46608,
          "time": 205.14074250000002,
          "velocity": 0.7874015748031497
        },
        {
          "duration": 0.21126749999999106,
          "durationTicks": 48,
          "midi": 45,
          "name": "A2",
          "ticks": 46656,
          "time": 205.35201000000004,
          "velocity": 0.7874015748031497
        },
        {
          "duration": 0.21126749999999106,
          "durationTicks": 48,
          "midi": 54,
          "name": "F#3",
          "ticks": 46704,
          "time": 205.56327750000003,
          "velocity": 0.7874015748031497
        },
        {
          "duration": 0.21126750000001948,
          "durationTicks": 48,
          "midi": 45,
          "name": "A2",
          "ticks": 46752,
          "time": 205.77454500000002,
          "velocity": 0.7874015748031497
        },
        {
          "duration": 0.21126749999999106,
          "durationTicks": 48,
          "midi": 49,
          "name": "C#3",
          "ticks": 46800,
          "time": 205.98581250000004,
          "velocity": 0.7874015748031497
        },
        {
          "duration": 0.21126749999999106,
          "durationTicks": 48,
          "midi": 47,
          "name": "B2",
          "ticks": 46848,
          "time": 206.19708000000003,
          "velocity": 0.7874015748031497
        },
        {
          "duration": 0.21126749999999106,
          "durationTicks": 48,
          "midi": 50,
          "name": "D3",
          "ticks": 46896,
          "time": 206.40834750000002,
          "velocity": 0.7874015748031497
        },
        {
          "duration": 0.21126750000001948,
          "durationTicks": 48,
          "midi": 47,
          "name": "B2",
          "ticks": 46944,
          "time": 206.619615,
          "velocity": 0.7874015748031497
        },
        {
          "duration": 0.21126749999999106,
          "durationTicks": 48,
          "midi": 50,
          "name": "D3",
          "ticks": 46992,
          "time": 206.83088250000003,
          "velocity": 0.7874015748031497
        },
        {
          "duration": 0.21126749999999106,
          "durationTicks": 48,
          "midi": 47,
          "name": "B2",
          "ticks": 47040,
          "time": 207.04215000000002,
          "velocity": 0.7874015748031497
        },
        {
          "duration": 0.21126750000001948,
          "durationTicks": 48,
          "midi": 50,
          "name": "D3",
          "ticks": 47088,
          "time": 207.2534175,
          "velocity": 0.7874015748031497
        },
        {
          "duration": 0.21126749999999106,
          "durationTicks": 48,
          "midi": 47,
          "name": "B2",
          "ticks": 47136,
          "time": 207.46468500000003,
          "velocity": 0.7874015748031497
        },
        {
          "duration": 0.21126749999999106,
          "durationTicks": 48,
          "midi": 50,
          "name": "D3",
          "ticks": 47184,
          "time": 207.67595250000002,
          "velocity": 0.7874015748031497
        },
        {
          "duration": 0.21126750000001948,
          "durationTicks": 48,
          "midi": 45,
          "name": "A2",
          "ticks": 47232,
          "time": 207.88722,
          "velocity": 0.7874015748031497
        },
        {
          "duration": 0.21126749999999106,
          "durationTicks": 48,
          "midi": 50,
          "name": "D3",
          "ticks": 47280,
          "time": 208.09848750000003,
          "velocity": 0.7874015748031497
        },
        {
          "duration": 0.21126749999999106,
          "durationTicks": 48,
          "midi": 45,
          "name": "A2",
          "ticks": 47328,
          "time": 208.30975500000002,
          "velocity": 0.7874015748031497
        },
        {
          "duration": 0.21126750000001948,
          "durationTicks": 48,
          "midi": 50,
          "name": "D3",
          "ticks": 47376,
          "time": 208.52102250000002,
          "velocity": 0.7874015748031497
        },
        {
          "duration": 0.21126749999999106,
          "durationTicks": 48,
          "midi": 45,
          "name": "A2",
          "ticks": 47424,
          "time": 208.73229000000003,
          "velocity": 0.7874015748031497
        },
        {
          "duration": 0.21126749999999106,
          "durationTicks": 48,
          "midi": 50,
          "name": "D3",
          "ticks": 47472,
          "time": 208.94355750000003,
          "velocity": 0.7874015748031497
        },
        {
          "duration": 0.21126750000001948,
          "durationTicks": 48,
          "midi": 45,
          "name": "A2",
          "ticks": 47520,
          "time": 209.15482500000002,
          "velocity": 0.7874015748031497
        },
        {
          "duration": 0.21126749999999106,
          "durationTicks": 48,
          "midi": 50,
          "name": "D3",
          "ticks": 47568,
          "time": 209.36609250000004,
          "velocity": 0.7874015748031497
        },
        {
          "duration": 0.21126749999999106,
          "durationTicks": 48,
          "midi": 43,
          "name": "G2",
          "ticks": 47616,
          "time": 209.57736000000003,
          "velocity": 0.7874015748031497
        },
        {
          "duration": 0.21126750000001948,
          "durationTicks": 48,
          "midi": 50,
          "name": "D3",
          "ticks": 47664,
          "time": 209.78862750000002,
          "velocity": 0.7874015748031497
        },
        {
          "duration": 0.21126749999999106,
          "durationTicks": 48,
          "midi": 43,
          "name": "G2",
          "ticks": 47712,
          "time": 209.99989500000004,
          "velocity": 0.7874015748031497
        },
        {
          "duration": 0.21126749999999106,
          "durationTicks": 48,
          "midi": 50,
          "name": "D3",
          "ticks": 47760,
          "time": 210.21116250000003,
          "velocity": 0.7874015748031497
        },
        {
          "duration": 0.21126749999999106,
          "durationTicks": 48,
          "midi": 43,
          "name": "G2",
          "ticks": 47808,
          "time": 210.42243000000002,
          "velocity": 0.7874015748031497
        },
        {
          "duration": 0.21126750000001948,
          "durationTicks": 48,
          "midi": 50,
          "name": "D3",
          "ticks": 47856,
          "time": 210.6336975,
          "velocity": 0.7874015748031497
        },
        {
          "duration": 0.21126749999999106,
          "durationTicks": 48,
          "midi": 43,
          "name": "G2",
          "ticks": 47904,
          "time": 210.84496500000003,
          "velocity": 0.7874015748031497
        },
        {
          "duration": 0.21126749999999106,
          "durationTicks": 48,
          "midi": 45,
          "name": "A2",
          "ticks": 47952,
          "time": 211.05623250000002,
          "velocity": 0.7874015748031497
        },
        {
          "duration": 0.21126750000001948,
          "durationTicks": 48,
          "midi": 45,
          "name": "A2",
          "ticks": 48000,
          "time": 211.2675,
          "velocity": 0.7874015748031497
        },
        {
          "duration": 0.21126749999999106,
          "durationTicks": 48,
          "midi": 54,
          "name": "F#3",
          "ticks": 48048,
          "time": 211.47876750000003,
          "velocity": 0.7874015748031497
        },
        {
          "duration": 0.21126749999999106,
          "durationTicks": 48,
          "midi": 45,
          "name": "A2",
          "ticks": 48096,
          "time": 211.69003500000002,
          "velocity": 0.7874015748031497
        },
        {
          "duration": 0.21126750000001948,
          "durationTicks": 48,
          "midi": 54,
          "name": "F#3",
          "ticks": 48144,
          "time": 211.9013025,
          "velocity": 0.7874015748031497
        },
        {
          "duration": 0.21126749999999106,
          "durationTicks": 48,
          "midi": 45,
          "name": "A2",
          "ticks": 48192,
          "time": 212.11257000000003,
          "velocity": 0.7874015748031497
        },
        {
          "duration": 0.21126749999999106,
          "durationTicks": 48,
          "midi": 54,
          "name": "F#3",
          "ticks": 48240,
          "time": 212.32383750000002,
          "velocity": 0.7874015748031497
        },
        {
          "duration": 0.21126750000001948,
          "durationTicks": 48,
          "midi": 45,
          "name": "A2",
          "ticks": 48288,
          "time": 212.53510500000002,
          "velocity": 0.7874015748031497
        },
        {
          "duration": 0.21126749999999106,
          "durationTicks": 48,
          "midi": 49,
          "name": "C#3",
          "ticks": 48336,
          "time": 212.74637250000004,
          "velocity": 0.7874015748031497
        },
        {
          "duration": 0.21126749999999106,
          "durationTicks": 48,
          "midi": 47,
          "name": "B2",
          "ticks": 48384,
          "time": 212.95764000000003,
          "velocity": 0.7874015748031497
        },
        {
          "duration": 0.21126750000001948,
          "durationTicks": 48,
          "midi": 50,
          "name": "D3",
          "ticks": 48432,
          "time": 213.16890750000002,
          "velocity": 0.7874015748031497
        },
        {
          "duration": 0.21126749999999106,
          "durationTicks": 48,
          "midi": 47,
          "name": "B2",
          "ticks": 48480,
          "time": 213.38017500000004,
          "velocity": 0.7874015748031497
        },
        {
          "duration": 0.21126749999999106,
          "durationTicks": 48,
          "midi": 50,
          "name": "D3",
          "ticks": 48528,
          "time": 213.59144250000003,
          "velocity": 0.7874015748031497
        },
        {
          "duration": 0.21126750000001948,
          "durationTicks": 48,
          "midi": 47,
          "name": "B2",
          "ticks": 48576,
          "time": 213.80271000000002,
          "velocity": 0.7874015748031497
        },
        {
          "duration": 0.21126749999999106,
          "durationTicks": 48,
          "midi": 50,
          "name": "D3",
          "ticks": 48624,
          "time": 214.01397750000004,
          "velocity": 0.7874015748031497
        },
        {
          "duration": 0.21126749999999106,
          "durationTicks": 48,
          "midi": 47,
          "name": "B2",
          "ticks": 48672,
          "time": 214.22524500000003,
          "velocity": 0.7874015748031497
        },
        {
          "duration": 0.21126749999999106,
          "durationTicks": 48,
          "midi": 50,
          "name": "D3",
          "ticks": 48720,
          "time": 214.43651250000002,
          "velocity": 0.7874015748031497
        },
        {
          "duration": 0.21126750000001948,
          "durationTicks": 48,
          "midi": 45,
          "name": "A2",
          "ticks": 48768,
          "time": 214.64778,
          "velocity": 0.7874015748031497
        },
        {
          "duration": 0.21126749999999106,
          "durationTicks": 48,
          "midi": 50,
          "name": "D3",
          "ticks": 48816,
          "time": 214.85904750000003,
          "velocity": 0.7874015748031497
        },
        {
          "duration": 0.21126749999999106,
          "durationTicks": 48,
          "midi": 45,
          "name": "A2",
          "ticks": 48864,
          "time": 215.07031500000002,
          "velocity": 0.7874015748031497
        },
        {
          "duration": 0.21126750000001948,
          "durationTicks": 48,
          "midi": 50,
          "name": "D3",
          "ticks": 48912,
          "time": 215.2815825,
          "velocity": 0.7874015748031497
        },
        {
          "duration": 0.21126749999999106,
          "durationTicks": 48,
          "midi": 45,
          "name": "A2",
          "ticks": 48960,
          "time": 215.49285000000003,
          "velocity": 0.7874015748031497
        },
        {
          "duration": 0.21126749999999106,
          "durationTicks": 48,
          "midi": 50,
          "name": "D3",
          "ticks": 49008,
          "time": 215.70411750000002,
          "velocity": 0.7874015748031497
        },
        {
          "duration": 0.21126750000001948,
          "durationTicks": 48,
          "midi": 45,
          "name": "A2",
          "ticks": 49056,
          "time": 215.91538500000001,
          "velocity": 0.7874015748031497
        },
        {
          "duration": 0.21126749999999106,
          "durationTicks": 48,
          "midi": 50,
          "name": "D3",
          "ticks": 49104,
          "time": 216.12665250000003,
          "velocity": 0.7874015748031497
        },
        {
          "duration": 0.21126749999999106,
          "durationTicks": 48,
          "midi": 43,
          "name": "G2",
          "ticks": 49152,
          "time": 216.33792000000003,
          "velocity": 0.7874015748031497
        },
        {
          "duration": 0.21126750000001948,
          "durationTicks": 48,
          "midi": 50,
          "name": "D3",
          "ticks": 49200,
          "time": 216.54918750000002,
          "velocity": 0.7874015748031497
        },
        {
          "duration": 0.21126749999999106,
          "durationTicks": 48,
          "midi": 43,
          "name": "G2",
          "ticks": 49248,
          "time": 216.76045500000004,
          "velocity": 0.7874015748031497
        },
        {
          "duration": 0.21126749999999106,
          "durationTicks": 48,
          "midi": 50,
          "name": "D3",
          "ticks": 49296,
          "time": 216.97172250000003,
          "velocity": 0.7874015748031497
        },
        {
          "duration": 0.21126750000001948,
          "durationTicks": 48,
          "midi": 43,
          "name": "G2",
          "ticks": 49344,
          "time": 217.18299000000002,
          "velocity": 0.7874015748031497
        },
        {
          "duration": 0.21126749999999106,
          "durationTicks": 48,
          "midi": 50,
          "name": "D3",
          "ticks": 49392,
          "time": 217.39425750000004,
          "velocity": 0.7874015748031497
        },
        {
          "duration": 0.21126749999999106,
          "durationTicks": 48,
          "midi": 43,
          "name": "G2",
          "ticks": 49440,
          "time": 217.60552500000003,
          "velocity": 0.7874015748031497
        },
        {
          "duration": 0.21126750000001948,
          "durationTicks": 48,
          "midi": 45,
          "name": "A2",
          "ticks": 49488,
          "time": 217.81679250000002,
          "velocity": 0.7874015748031497
        },
        {
          "duration": 0.21126749999999106,
          "durationTicks": 48,
          "midi": 45,
          "name": "A2",
          "ticks": 49536,
          "time": 218.02806000000004,
          "velocity": 0.7874015748031497
        },
        {
          "duration": 0.21126749999999106,
          "durationTicks": 48,
          "midi": 54,
          "name": "F#3",
          "ticks": 49584,
          "time": 218.23932750000003,
          "velocity": 0.7874015748031497
        },
        {
          "duration": 0.21126749999999106,
          "durationTicks": 48,
          "midi": 45,
          "name": "A2",
          "ticks": 49632,
          "time": 218.45059500000002,
          "velocity": 0.7874015748031497
        },
        {
          "duration": 0.21126750000001948,
          "durationTicks": 48,
          "midi": 54,
          "name": "F#3",
          "ticks": 49680,
          "time": 218.6618625,
          "velocity": 0.7874015748031497
        },
        {
          "duration": 0.21126749999999106,
          "durationTicks": 48,
          "midi": 45,
          "name": "A2",
          "ticks": 49728,
          "time": 218.87313000000003,
          "velocity": 0.7874015748031497
        },
        {
          "duration": 0.21126749999999106,
          "durationTicks": 48,
          "midi": 54,
          "name": "F#3",
          "ticks": 49776,
          "time": 219.08439750000002,
          "velocity": 0.7874015748031497
        },
        {
          "duration": 0.21126750000001948,
          "durationTicks": 48,
          "midi": 45,
          "name": "A2",
          "ticks": 49824,
          "time": 219.295665,
          "velocity": 0.7874015748031497
        },
        {
          "duration": 0.21126749999999106,
          "durationTicks": 48,
          "midi": 49,
          "name": "C#3",
          "ticks": 49872,
          "time": 219.50693250000003,
          "velocity": 0.7874015748031497
        },
        {
          "duration": 0.21126749999999106,
          "durationTicks": 48,
          "midi": 47,
          "name": "B2",
          "ticks": 49920,
          "time": 219.71820000000002,
          "velocity": 0.7874015748031497
        },
        {
          "duration": 0.21126750000001948,
          "durationTicks": 48,
          "midi": 50,
          "name": "D3",
          "ticks": 49968,
          "time": 219.92946750000002,
          "velocity": 0.7874015748031497
        },
        {
          "duration": 0.21126749999999106,
          "durationTicks": 48,
          "midi": 47,
          "name": "B2",
          "ticks": 50016,
          "time": 220.14073500000003,
          "velocity": 0.7874015748031497
        },
        {
          "duration": 0.21126749999999106,
          "durationTicks": 48,
          "midi": 50,
          "name": "D3",
          "ticks": 50064,
          "time": 220.35200250000003,
          "velocity": 0.7874015748031497
        },
        {
          "duration": 0.21126750000001948,
          "durationTicks": 48,
          "midi": 47,
          "name": "B2",
          "ticks": 50112,
          "time": 220.56327000000002,
          "velocity": 0.7874015748031497
        },
        {
          "duration": 0.21126749999999106,
          "durationTicks": 48,
          "midi": 50,
          "name": "D3",
          "ticks": 50160,
          "time": 220.77453750000004,
          "velocity": 0.7874015748031497
        },
        {
          "duration": 0.21126749999999106,
          "durationTicks": 48,
          "midi": 47,
          "name": "B2",
          "ticks": 50208,
          "time": 220.98580500000003,
          "velocity": 0.7874015748031497
        },
        {
          "duration": 0.21126750000001948,
          "durationTicks": 48,
          "midi": 50,
          "name": "D3",
          "ticks": 50256,
          "time": 221.19707250000002,
          "velocity": 0.7874015748031497
        },
        {
          "duration": 0.21126749999999106,
          "durationTicks": 48,
          "midi": 45,
          "name": "A2",
          "ticks": 50304,
          "time": 221.40834000000004,
          "velocity": 0.7874015748031497
        },
        {
          "duration": 0.21126749999999106,
          "durationTicks": 48,
          "midi": 50,
          "name": "D3",
          "ticks": 50352,
          "time": 221.61960750000003,
          "velocity": 0.7874015748031497
        },
        {
          "duration": 0.21126750000001948,
          "durationTicks": 48,
          "midi": 45,
          "name": "A2",
          "ticks": 50400,
          "time": 221.83087500000002,
          "velocity": 0.7874015748031497
        },
        {
          "duration": 0.21126749999999106,
          "durationTicks": 48,
          "midi": 50,
          "name": "D3",
          "ticks": 50448,
          "time": 222.04214250000004,
          "velocity": 0.7874015748031497
        },
        {
          "duration": 0.21126749999999106,
          "durationTicks": 48,
          "midi": 45,
          "name": "A2",
          "ticks": 50496,
          "time": 222.25341000000003,
          "velocity": 0.7874015748031497
        },
        {
          "duration": 0.21126749999999106,
          "durationTicks": 48,
          "midi": 50,
          "name": "D3",
          "ticks": 50544,
          "time": 222.46467750000002,
          "velocity": 0.7874015748031497
        },
        {
          "duration": 0.21126750000001948,
          "durationTicks": 48,
          "midi": 45,
          "name": "A2",
          "ticks": 50592,
          "time": 222.675945,
          "velocity": 0.7874015748031497
        },
        {
          "duration": 0.21126749999999106,
          "durationTicks": 48,
          "midi": 50,
          "name": "D3",
          "ticks": 50640,
          "time": 222.88721250000003,
          "velocity": 0.7874015748031497
        },
        {
          "duration": 0.21126749999999106,
          "durationTicks": 48,
          "midi": 43,
          "name": "G2",
          "ticks": 50688,
          "time": 223.09848000000002,
          "velocity": 0.7874015748031497
        },
        {
          "duration": 0.21126750000001948,
          "durationTicks": 48,
          "midi": 50,
          "name": "D3",
          "ticks": 50736,
          "time": 223.30974750000001,
          "velocity": 0.7874015748031497
        },
        {
          "duration": 0.21126749999999106,
          "durationTicks": 48,
          "midi": 43,
          "name": "G2",
          "ticks": 50784,
          "time": 223.52101500000003,
          "velocity": 0.7874015748031497
        },
        {
          "duration": 0.21126749999999106,
          "durationTicks": 48,
          "midi": 50,
          "name": "D3",
          "ticks": 50832,
          "time": 223.73228250000003,
          "velocity": 0.7874015748031497
        },
        {
          "duration": 0.21126750000001948,
          "durationTicks": 48,
          "midi": 43,
          "name": "G2",
          "ticks": 50880,
          "time": 223.94355000000002,
          "velocity": 0.7874015748031497
        },
        {
          "duration": 0.21126749999999106,
          "durationTicks": 48,
          "midi": 50,
          "name": "D3",
          "ticks": 50928,
          "time": 224.15481750000004,
          "velocity": 0.7874015748031497
        },
        {
          "duration": 0.21126749999999106,
          "durationTicks": 48,
          "midi": 43,
          "name": "G2",
          "ticks": 50976,
          "time": 224.36608500000003,
          "velocity": 0.7874015748031497
        },
        {
          "duration": 0.21126750000001948,
          "durationTicks": 48,
          "midi": 45,
          "name": "A2",
          "ticks": 51024,
          "time": 224.57735250000002,
          "velocity": 0.7874015748031497
        },
        {
          "duration": 0.21126749999999106,
          "durationTicks": 48,
          "midi": 45,
          "name": "A2",
          "ticks": 51072,
          "time": 224.78862000000004,
          "velocity": 0.7874015748031497
        },
        {
          "duration": 0.21126749999999106,
          "durationTicks": 48,
          "midi": 54,
          "name": "F#3",
          "ticks": 51120,
          "time": 224.99988750000003,
          "velocity": 0.7874015748031497
        },
        {
          "duration": 0.21126750000001948,
          "durationTicks": 48,
          "midi": 45,
          "name": "A2",
          "ticks": 51168,
          "time": 225.21115500000002,
          "velocity": 0.7874015748031497
        },
        {
          "duration": 0.21126749999999106,
          "durationTicks": 48,
          "midi": 54,
          "name": "F#3",
          "ticks": 51216,
          "time": 225.42242250000004,
          "velocity": 0.7874015748031497
        },
        {
          "duration": 0.21126749999999106,
          "durationTicks": 48,
          "midi": 45,
          "name": "A2",
          "ticks": 51264,
          "time": 225.63369000000003,
          "velocity": 0.7874015748031497
        },
        {
          "duration": 0.21126750000001948,
          "durationTicks": 48,
          "midi": 54,
          "name": "F#3",
          "ticks": 51312,
          "time": 225.84495750000002,
          "velocity": 0.7874015748031497
        },
        {
          "duration": 0.21126749999999106,
          "durationTicks": 48,
          "midi": 45,
          "name": "A2",
          "ticks": 51360,
          "time": 226.05622500000004,
          "velocity": 0.7874015748031497
        },
        {
          "duration": 0.21126749999999106,
          "durationTicks": 48,
          "midi": 49,
          "name": "C#3",
          "ticks": 51408,
          "time": 226.26749250000003,
          "velocity": 0.7874015748031497
        },
        {
          "duration": 0.21126749999999106,
          "durationTicks": 48,
          "midi": 47,
          "name": "B2",
          "ticks": 51456,
          "time": 226.47876000000002,
          "velocity": 0.7874015748031497
        },
        {
          "duration": 0.21126750000001948,
          "durationTicks": 48,
          "midi": 50,
          "name": "D3",
          "ticks": 51504,
          "time": 226.6900275,
          "velocity": 0.7874015748031497
        },
        {
          "duration": 0.21126749999999106,
          "durationTicks": 48,
          "midi": 47,
          "name": "B2",
          "ticks": 51552,
          "time": 226.90129500000003,
          "velocity": 0.7874015748031497
        },
        {
          "duration": 0.21126749999999106,
          "durationTicks": 48,
          "midi": 50,
          "name": "D3",
          "ticks": 51600,
          "time": 227.11256250000002,
          "velocity": 0.7874015748031497
        },
        {
          "duration": 0.21126750000001948,
          "durationTicks": 48,
          "midi": 47,
          "name": "B2",
          "ticks": 51648,
          "time": 227.32383000000002,
          "velocity": 0.7874015748031497
        },
        {
          "duration": 0.21126749999999106,
          "durationTicks": 48,
          "midi": 50,
          "name": "D3",
          "ticks": 51696,
          "time": 227.53509750000003,
          "velocity": 0.7874015748031497
        },
        {
          "duration": 0.21126749999999106,
          "durationTicks": 48,
          "midi": 47,
          "name": "B2",
          "ticks": 51744,
          "time": 227.74636500000003,
          "velocity": 0.7874015748031497
        },
        {
          "duration": 0.20686609375002263,
          "durationTicks": 47,
          "midi": 50,
          "name": "D3",
          "ticks": 51792,
          "time": 227.95763250000002,
          "velocity": 0.7874015748031497
        },
        {
          "duration": 0.21126750000001948,
          "durationTicks": 48,
          "midi": 31,
          "name": "G1",
          "ticks": 52224,
          "time": 229.85904000000002,
          "velocity": 0.8110236220472441
        },
        {
          "duration": 0.21126749999999106,
          "durationTicks": 48,
          "midi": 31,
          "name": "G1",
          "ticks": 52272,
          "time": 230.07030750000004,
          "velocity": 0.8110236220472441
        },
        {
          "duration": 0.21126749999999106,
          "durationTicks": 48,
          "midi": 31,
          "name": "G1",
          "ticks": 52320,
          "time": 230.28157500000003,
          "velocity": 0.8110236220472441
        },
        {
          "duration": 0.21126749999999106,
          "durationTicks": 48,
          "midi": 31,
          "name": "G1",
          "ticks": 52368,
          "time": 230.49284250000002,
          "velocity": 0.8110236220472441
        },
        {
          "duration": 0.21126750000001948,
          "durationTicks": 48,
          "midi": 31,
          "name": "G1",
          "ticks": 52416,
          "time": 230.70411000000001,
          "velocity": 0.8110236220472441
        },
        {
          "duration": 0.21126749999999106,
          "durationTicks": 48,
          "midi": 31,
          "name": "G1",
          "ticks": 52464,
          "time": 230.91537750000003,
          "velocity": 0.8110236220472441
        },
        {
          "duration": 0.21126749999999106,
          "durationTicks": 48,
          "midi": 31,
          "name": "G1",
          "ticks": 52512,
          "time": 231.12664500000002,
          "velocity": 0.8110236220472441
        },
        {
          "duration": 0.21126750000001948,
          "durationTicks": 48,
          "midi": 31,
          "name": "G1",
          "ticks": 52560,
          "time": 231.33791250000002,
          "velocity": 0.8110236220472441
        },
        {
          "duration": 0.21126749999999106,
          "durationTicks": 48,
          "midi": 33,
          "name": "A1",
          "ticks": 52608,
          "time": 231.54918000000004,
          "velocity": 0.8110236220472441
        },
        {
          "duration": 0.21126749999999106,
          "durationTicks": 48,
          "midi": 33,
          "name": "A1",
          "ticks": 52656,
          "time": 231.76044750000003,
          "velocity": 0.8110236220472441
        },
        {
          "duration": 0.21126750000001948,
          "durationTicks": 48,
          "midi": 33,
          "name": "A1",
          "ticks": 52704,
          "time": 231.97171500000002,
          "velocity": 0.8110236220472441
        },
        {
          "duration": 0.21126749999999106,
          "durationTicks": 48,
          "midi": 33,
          "name": "A1",
          "ticks": 52752,
          "time": 232.18298250000004,
          "velocity": 0.8110236220472441
        },
        {
          "duration": 0.21126749999999106,
          "durationTicks": 48,
          "midi": 33,
          "name": "A1",
          "ticks": 52800,
          "time": 232.39425000000003,
          "velocity": 0.8110236220472441
        },
        {
          "duration": 0.21126750000001948,
          "durationTicks": 48,
          "midi": 33,
          "name": "A1",
          "ticks": 52848,
          "time": 232.60551750000002,
          "velocity": 0.8110236220472441
        },
        {
          "duration": 0.21126749999999106,
          "durationTicks": 48,
          "midi": 33,
          "name": "A1",
          "ticks": 52896,
          "time": 232.81678500000004,
          "velocity": 0.8110236220472441
        },
        {
          "duration": 0.21126749999999106,
          "durationTicks": 48,
          "midi": 33,
          "name": "A1",
          "ticks": 52944,
          "time": 233.02805250000003,
          "velocity": 0.8110236220472441
        },
        {
          "duration": 0.21126750000001948,
          "durationTicks": 48,
          "midi": 35,
          "name": "B1",
          "ticks": 52992,
          "time": 233.23932000000002,
          "velocity": 0.8110236220472441
        },
        {
          "duration": 0.21126749999999106,
          "durationTicks": 48,
          "midi": 35,
          "name": "B1",
          "ticks": 53040,
          "time": 233.45058750000004,
          "velocity": 0.8110236220472441
        },
        {
          "duration": 0.21126749999999106,
          "durationTicks": 48,
          "midi": 35,
          "name": "B1",
          "ticks": 53088,
          "time": 233.66185500000003,
          "velocity": 0.8110236220472441
        },
        {
          "duration": 0.21126749999999106,
          "durationTicks": 48,
          "midi": 35,
          "name": "B1",
          "ticks": 53136,
          "time": 233.87312250000002,
          "velocity": 0.8110236220472441
        },
        {
          "duration": 0.21126750000001948,
          "durationTicks": 48,
          "midi": 35,
          "name": "B1",
          "ticks": 53184,
          "time": 234.08439,
          "velocity": 0.8110236220472441
        },
        {
          "duration": 0.21126749999999106,
          "durationTicks": 48,
          "midi": 35,
          "name": "B1",
          "ticks": 53232,
          "time": 234.29565750000003,
          "velocity": 0.8110236220472441
        },
        {
          "duration": 0.21126749999999106,
          "durationTicks": 48,
          "midi": 35,
          "name": "B1",
          "ticks": 53280,
          "time": 234.50692500000002,
          "velocity": 0.8110236220472441
        },
        {
          "duration": 0.21126750000001948,
          "durationTicks": 48,
          "midi": 35,
          "name": "B1",
          "ticks": 53328,
          "time": 234.71819250000001,
          "velocity": 0.8110236220472441
        },
        {
          "duration": 0.21126749999999106,
          "durationTicks": 48,
          "midi": 38,
          "name": "D2",
          "ticks": 53376,
          "time": 234.92946000000003,
          "velocity": 0.8110236220472441
        },
        {
          "duration": 0.21126749999999106,
          "durationTicks": 48,
          "midi": 38,
          "name": "D2",
          "ticks": 53424,
          "time": 235.14072750000003,
          "velocity": 0.8110236220472441
        },
        {
          "duration": 0.21126750000001948,
          "durationTicks": 48,
          "midi": 38,
          "name": "D2",
          "ticks": 53472,
          "time": 235.35199500000002,
          "velocity": 0.8110236220472441
        },
        {
          "duration": 0.21126749999999106,
          "durationTicks": 48,
          "midi": 38,
          "name": "D2",
          "ticks": 53520,
          "time": 235.56326250000004,
          "velocity": 0.8110236220472441
        },
        {
          "duration": 0.21126749999999106,
          "durationTicks": 48,
          "midi": 38,
          "name": "D2",
          "ticks": 53568,
          "time": 235.77453000000003,
          "velocity": 0.8110236220472441
        },
        {
          "duration": 0.21126750000001948,
          "durationTicks": 48,
          "midi": 38,
          "name": "D2",
          "ticks": 53616,
          "time": 235.98579750000002,
          "velocity": 0.8110236220472441
        },
        {
          "duration": 0.21126749999999106,
          "durationTicks": 48,
          "midi": 38,
          "name": "D2",
          "ticks": 53664,
          "time": 236.19706500000004,
          "velocity": 0.8110236220472441
        },
        {
          "duration": 0.21126749999999106,
          "durationTicks": 48,
          "midi": 38,
          "name": "D2",
          "ticks": 53712,
          "time": 236.40833250000003,
          "velocity": 0.8110236220472441
        },
        {
          "duration": 0.21126750000001948,
          "durationTicks": 48,
          "midi": 31,
          "name": "G1",
          "ticks": 53760,
          "time": 236.61960000000002,
          "velocity": 0.8110236220472441
        },
        {
          "duration": 0.21126749999999106,
          "durationTicks": 48,
          "midi": 31,
          "name": "G1",
          "ticks": 53808,
          "time": 236.83086750000004,
          "velocity": 0.8110236220472441
        },
        {
          "duration": 0.21126749999999106,
          "durationTicks": 48,
          "midi": 31,
          "name": "G1",
          "ticks": 53856,
          "time": 237.04213500000003,
          "velocity": 0.8110236220472441
        },
        {
          "duration": 0.21126750000001948,
          "durationTicks": 48,
          "midi": 31,
          "name": "G1",
          "ticks": 53904,
          "time": 237.25340250000002,
          "velocity": 0.8110236220472441
        },
        {
          "duration": 0.21126749999999106,
          "durationTicks": 48,
          "midi": 31,
          "name": "G1",
          "ticks": 53952,
          "time": 237.46467000000004,
          "velocity": 0.8110236220472441
        },
        {
          "duration": 0.21126749999999106,
          "durationTicks": 48,
          "midi": 31,
          "name": "G1",
          "ticks": 54000,
          "time": 237.67593750000003,
          "velocity": 0.8110236220472441
        },
        {
          "duration": 0.21126749999999106,
          "durationTicks": 48,
          "midi": 31,
          "name": "G1",
          "ticks": 54048,
          "time": 237.88720500000002,
          "velocity": 0.8110236220472441
        },
        {
          "duration": 0.21126750000001948,
          "durationTicks": 48,
          "midi": 31,
          "name": "G1",
          "ticks": 54096,
          "time": 238.0984725,
          "velocity": 0.8110236220472441
        },
        {
          "duration": 0.21126749999999106,
          "durationTicks": 48,
          "midi": 33,
          "name": "A1",
          "ticks": 54144,
          "time": 238.30974000000003,
          "velocity": 0.8110236220472441
        },
        {
          "duration": 0.21126749999999106,
          "durationTicks": 48,
          "midi": 33,
          "name": "A1",
          "ticks": 54192,
          "time": 238.52100750000002,
          "velocity": 0.8110236220472441
        },
        {
          "duration": 0.21126750000001948,
          "durationTicks": 48,
          "midi": 33,
          "name": "A1",
          "ticks": 54240,
          "time": 238.73227500000002,
          "velocity": 0.8110236220472441
        },
        {
          "duration": 0.21126749999999106,
          "durationTicks": 48,
          "midi": 33,
          "name": "A1",
          "ticks": 54288,
          "time": 238.94354250000004,
          "velocity": 0.8110236220472441
        },
        {
          "duration": 0.21126749999999106,
          "durationTicks": 48,
          "midi": 33,
          "name": "A1",
          "ticks": 54336,
          "time": 239.15481000000003,
          "velocity": 0.8110236220472441
        },
        {
          "duration": 0.21126750000001948,
          "durationTicks": 48,
          "midi": 33,
          "name": "A1",
          "ticks": 54384,
          "time": 239.36607750000002,
          "velocity": 0.8110236220472441
        },
        {
          "duration": 0.21126749999999106,
          "durationTicks": 48,
          "midi": 33,
          "name": "A1",
          "ticks": 54432,
          "time": 239.57734500000004,
          "velocity": 0.8110236220472441
        },
        {
          "duration": 0.21126749999999106,
          "durationTicks": 48,
          "midi": 33,
          "name": "A1",
          "ticks": 54480,
          "time": 239.78861250000003,
          "velocity": 0.8110236220472441
        },
        {
          "duration": 0.21126750000001948,
          "durationTicks": 48,
          "midi": 35,
          "name": "B1",
          "ticks": 54528,
          "time": 239.99988000000002,
          "velocity": 0.8110236220472441
        },
        {
          "duration": 0.21126749999999106,
          "durationTicks": 48,
          "midi": 35,
          "name": "B1",
          "ticks": 54576,
          "time": 240.21114750000004,
          "velocity": 0.8110236220472441
        },
        {
          "duration": 0.21126749999999106,
          "durationTicks": 48,
          "midi": 35,
          "name": "B1",
          "ticks": 54624,
          "time": 240.42241500000003,
          "velocity": 0.8110236220472441
        },
        {
          "duration": 0.21126750000001948,
          "durationTicks": 48,
          "midi": 35,
          "name": "B1",
          "ticks": 54672,
          "time": 240.63368250000002,
          "velocity": 0.8110236220472441
        },
        {
          "duration": 0.21126749999999106,
          "durationTicks": 48,
          "midi": 35,
          "name": "B1",
          "ticks": 54720,
          "time": 240.84495000000004,
          "velocity": 0.8110236220472441
        },
        {
          "duration": 0.21126749999999106,
          "durationTicks": 48,
          "midi": 35,
          "name": "B1",
          "ticks": 54768,
          "time": 241.05621750000003,
          "velocity": 0.8110236220472441
        },
        {
          "duration": 0.21126750000001948,
          "durationTicks": 48,
          "midi": 35,
          "name": "B1",
          "ticks": 54816,
          "time": 241.26748500000002,
          "velocity": 0.8110236220472441
        },
        {
          "duration": 0.21126749999999106,
          "durationTicks": 48,
          "midi": 35,
          "name": "B1",
          "ticks": 54864,
          "time": 241.47875250000004,
          "velocity": 0.8110236220472441
        },
        {
          "duration": 0.21126749999999106,
          "durationTicks": 48,
          "midi": 38,
          "name": "D2",
          "ticks": 54912,
          "time": 241.69002000000003,
          "velocity": 0.8110236220472441
        },
        {
          "duration": 0.21126749999999106,
          "durationTicks": 48,
          "midi": 38,
          "name": "D2",
          "ticks": 54960,
          "time": 241.90128750000002,
          "velocity": 0.8110236220472441
        },
        {
          "duration": 0.21126750000001948,
          "durationTicks": 48,
          "midi": 38,
          "name": "D2",
          "ticks": 55008,
          "time": 242.11255500000001,
          "velocity": 0.8110236220472441
        },
        {
          "duration": 0.21126749999999106,
          "durationTicks": 48,
          "midi": 38,
          "name": "D2",
          "ticks": 55056,
          "time": 242.32382250000003,
          "velocity": 0.8110236220472441
        },
        {
          "duration": 0.21126749999999106,
          "durationTicks": 48,
          "midi": 38,
          "name": "D2",
          "ticks": 55104,
          "time": 242.53509000000003,
          "velocity": 0.8110236220472441
        },
        {
          "duration": 0.21126750000001948,
          "durationTicks": 48,
          "midi": 38,
          "name": "D2",
          "ticks": 55152,
          "time": 242.74635750000002,
          "velocity": 0.8110236220472441
        },
        {
          "duration": 0.21126749999999106,
          "durationTicks": 48,
          "midi": 38,
          "name": "D2",
          "ticks": 55200,
          "time": 242.95762500000004,
          "velocity": 0.8110236220472441
        },
        {
          "duration": 0.21126749999999106,
          "durationTicks": 48,
          "midi": 38,
          "name": "D2",
          "ticks": 55248,
          "time": 243.16889250000003,
          "velocity": 0.8110236220472441
        },
        {
          "duration": 0.21126750000001948,
          "durationTicks": 48,
          "midi": 31,
          "name": "G1",
          "ticks": 55296,
          "time": 243.38016000000002,
          "velocity": 0.8110236220472441
        },
        {
          "duration": 0.21126749999999106,
          "durationTicks": 48,
          "midi": 31,
          "name": "G1",
          "ticks": 55344,
          "time": 243.59142750000004,
          "velocity": 0.8110236220472441
        },
        {
          "duration": 0.21126749999999106,
          "durationTicks": 48,
          "midi": 31,
          "name": "G1",
          "ticks": 55392,
          "time": 243.80269500000003,
          "velocity": 0.8110236220472441
        },
        {
          "duration": 0.21126750000001948,
          "durationTicks": 48,
          "midi": 31,
          "name": "G1",
          "ticks": 55440,
          "time": 244.01396250000002,
          "velocity": 0.8110236220472441
        },
        {
          "duration": 0.21126749999999106,
          "durationTicks": 48,
          "midi": 31,
          "name": "G1",
          "ticks": 55488,
          "time": 244.22523000000004,
          "velocity": 0.8110236220472441
        },
        {
          "duration": 0.21126749999999106,
          "durationTicks": 48,
          "midi": 31,
          "name": "G1",
          "ticks": 55536,
          "time": 244.43649750000003,
          "velocity": 0.8110236220472441
        },
        {
          "duration": 0.21126750000001948,
          "durationTicks": 48,
          "midi": 31,
          "name": "G1",
          "ticks": 55584,
          "time": 244.64776500000002,
          "velocity": 0.8110236220472441
        },
        {
          "duration": 0.21126749999999106,
          "durationTicks": 48,
          "midi": 31,
          "name": "G1",
          "ticks": 55632,
          "time": 244.85903250000004,
          "velocity": 0.8110236220472441
        },
        {
          "duration": 0.21126749999999106,
          "durationTicks": 48,
          "midi": 33,
          "name": "A1",
          "ticks": 55680,
          "time": 245.07030000000003,
          "velocity": 0.8110236220472441
        },
        {
          "duration": 0.21126750000001948,
          "durationTicks": 48,
          "midi": 33,
          "name": "A1",
          "ticks": 55728,
          "time": 245.28156750000002,
          "velocity": 0.8110236220472441
        },
        {
          "duration": 0.21126749999999106,
          "durationTicks": 48,
          "midi": 33,
          "name": "A1",
          "ticks": 55776,
          "time": 245.49283500000004,
          "velocity": 0.8110236220472441
        },
        {
          "duration": 0.21126749999999106,
          "durationTicks": 48,
          "midi": 33,
          "name": "A1",
          "ticks": 55824,
          "time": 245.70410250000003,
          "velocity": 0.8110236220472441
        },
        {
          "duration": 0.21126749999999106,
          "durationTicks": 48,
          "midi": 33,
          "name": "A1",
          "ticks": 55872,
          "time": 245.91537000000002,
          "velocity": 0.8110236220472441
        },
        {
          "duration": 0.21126750000001948,
          "durationTicks": 48,
          "midi": 33,
          "name": "A1",
          "ticks": 55920,
          "time": 246.12663750000002,
          "velocity": 0.8110236220472441
        },
        {
          "duration": 0.21126749999999106,
          "durationTicks": 48,
          "midi": 33,
          "name": "A1",
          "ticks": 55968,
          "time": 246.33790500000003,
          "velocity": 0.8110236220472441
        },
        {
          "duration": 0.21126749999999106,
          "durationTicks": 48,
          "midi": 33,
          "name": "A1",
          "ticks": 56016,
          "time": 246.54917250000003,
          "velocity": 0.8110236220472441
        },
        {
          "duration": 0.21126750000001948,
          "durationTicks": 48,
          "midi": 35,
          "name": "B1",
          "ticks": 56064,
          "time": 246.76044000000002,
          "velocity": 0.8110236220472441
        },
        {
          "duration": 0.21126749999999106,
          "durationTicks": 48,
          "midi": 35,
          "name": "B1",
          "ticks": 56112,
          "time": 246.97170750000004,
          "velocity": 0.8110236220472441
        },
        {
          "duration": 0.21126749999999106,
          "durationTicks": 48,
          "midi": 35,
          "name": "B1",
          "ticks": 56160,
          "time": 247.18297500000003,
          "velocity": 0.8110236220472441
        },
        {
          "duration": 0.21126750000001948,
          "durationTicks": 48,
          "midi": 35,
          "name": "B1",
          "ticks": 56208,
          "time": 247.39424250000002,
          "velocity": 0.8110236220472441
        },
        {
          "duration": 0.21126749999999106,
          "durationTicks": 48,
          "midi": 35,
          "name": "B1",
          "ticks": 56256,
          "time": 247.60551000000004,
          "velocity": 0.8110236220472441
        },
        {
          "duration": 0.21126749999999106,
          "durationTicks": 48,
          "midi": 35,
          "name": "B1",
          "ticks": 56304,
          "time": 247.81677750000003,
          "velocity": 0.8110236220472441
        },
        {
          "duration": 0.21126750000001948,
          "durationTicks": 48,
          "midi": 35,
          "name": "B1",
          "ticks": 56352,
          "time": 248.02804500000002,
          "velocity": 0.8110236220472441
        },
        {
          "duration": 0.21126749999999106,
          "durationTicks": 48,
          "midi": 35,
          "name": "B1",
          "ticks": 56400,
          "time": 248.23931250000004,
          "velocity": 0.8110236220472441
        },
        {
          "duration": 0.21126749999999106,
          "durationTicks": 48,
          "midi": 38,
          "name": "D2",
          "ticks": 56448,
          "time": 248.45058000000003,
          "velocity": 0.8110236220472441
        },
        {
          "duration": 0.21126750000001948,
          "durationTicks": 48,
          "midi": 38,
          "name": "D2",
          "ticks": 56496,
          "time": 248.66184750000002,
          "velocity": 0.8110236220472441
        },
        {
          "duration": 0.21126749999999106,
          "durationTicks": 48,
          "midi": 38,
          "name": "D2",
          "ticks": 56544,
          "time": 248.87311500000004,
          "velocity": 0.8110236220472441
        },
        {
          "duration": 0.21126749999999106,
          "durationTicks": 48,
          "midi": 38,
          "name": "D2",
          "ticks": 56592,
          "time": 249.08438250000003,
          "velocity": 0.8110236220472441
        },
        {
          "duration": 0.21126750000001948,
          "durationTicks": 48,
          "midi": 38,
          "name": "D2",
          "ticks": 56640,
          "time": 249.29565000000002,
          "velocity": 0.8110236220472441
        },
        {
          "duration": 0.21126749999999106,
          "durationTicks": 48,
          "midi": 38,
          "name": "D2",
          "ticks": 56688,
          "time": 249.50691750000004,
          "velocity": 0.8110236220472441
        },
        {
          "duration": 0.21126749999999106,
          "durationTicks": 48,
          "midi": 38,
          "name": "D2",
          "ticks": 56736,
          "time": 249.71818500000003,
          "velocity": 0.8110236220472441
        },
        {
          "duration": 0.21126749999999106,
          "durationTicks": 48,
          "midi": 38,
          "name": "D2",
          "ticks": 56784,
          "time": 249.92945250000002,
          "velocity": 0.8110236220472441
        },
        {
          "duration": 0.21126750000001948,
          "durationTicks": 48,
          "midi": 31,
          "name": "G1",
          "ticks": 56832,
          "time": 250.14072000000002,
          "velocity": 0.8110236220472441
        },
        {
          "duration": 0.21126749999999106,
          "durationTicks": 48,
          "midi": 31,
          "name": "G1",
          "ticks": 56880,
          "time": 250.35198750000004,
          "velocity": 0.8110236220472441
        },
        {
          "duration": 0.21126749999999106,
          "durationTicks": 48,
          "midi": 31,
          "name": "G1",
          "ticks": 56928,
          "time": 250.56325500000003,
          "velocity": 0.8110236220472441
        },
        {
          "duration": 0.21126750000001948,
          "durationTicks": 48,
          "midi": 31,
          "name": "G1",
          "ticks": 56976,
          "time": 250.77452250000002,
          "velocity": 0.8110236220472441
        },
        {
          "duration": 0.21126749999999106,
          "durationTicks": 48,
          "midi": 31,
          "name": "G1",
          "ticks": 57024,
          "time": 250.98579000000004,
          "velocity": 0.8110236220472441
        },
        {
          "duration": 0.21126749999999106,
          "durationTicks": 48,
          "midi": 31,
          "name": "G1",
          "ticks": 57072,
          "time": 251.19705750000003,
          "velocity": 0.8110236220472441
        },
        {
          "duration": 0.21126750000001948,
          "durationTicks": 48,
          "midi": 31,
          "name": "G1",
          "ticks": 57120,
          "time": 251.40832500000002,
          "velocity": 0.8110236220472441
        },
        {
          "duration": 0.21126749999999106,
          "durationTicks": 48,
          "midi": 31,
          "name": "G1",
          "ticks": 57168,
          "time": 251.61959250000004,
          "velocity": 0.8110236220472441
        },
        {
          "duration": 0.21126749999999106,
          "durationTicks": 48,
          "midi": 33,
          "name": "A1",
          "ticks": 57216,
          "time": 251.83086000000003,
          "velocity": 0.8110236220472441
        },
        {
          "duration": 0.21126750000001948,
          "durationTicks": 48,
          "midi": 33,
          "name": "A1",
          "ticks": 57264,
          "time": 252.04212750000002,
          "velocity": 0.8110236220472441
        },
        {
          "duration": 0.21126749999999106,
          "durationTicks": 48,
          "midi": 33,
          "name": "A1",
          "ticks": 57312,
          "time": 252.25339500000004,
          "velocity": 0.8110236220472441
        },
        {
          "duration": 0.21126749999999106,
          "durationTicks": 48,
          "midi": 33,
          "name": "A1",
          "ticks": 57360,
          "time": 252.46466250000003,
          "velocity": 0.8110236220472441
        },
        {
          "duration": 0.21126750000001948,
          "durationTicks": 48,
          "midi": 33,
          "name": "A1",
          "ticks": 57408,
          "time": 252.67593000000002,
          "velocity": 0.8110236220472441
        },
        {
          "duration": 0.21126749999999106,
          "durationTicks": 48,
          "midi": 33,
          "name": "A1",
          "ticks": 57456,
          "time": 252.88719750000004,
          "velocity": 0.8110236220472441
        },
        {
          "duration": 0.21126749999999106,
          "durationTicks": 48,
          "midi": 33,
          "name": "A1",
          "ticks": 57504,
          "time": 253.09846500000003,
          "velocity": 0.8110236220472441
        },
        {
          "duration": 0.21126750000001948,
          "durationTicks": 48,
          "midi": 33,
          "name": "A1",
          "ticks": 57552,
          "time": 253.30973250000002,
          "velocity": 0.8110236220472441
        },
        {
          "duration": 0.21126749999999106,
          "durationTicks": 48,
          "midi": 35,
          "name": "B1",
          "ticks": 57600,
          "time": 253.52100000000004,
          "velocity": 0.8110236220472441
        },
        {
          "duration": 0.21126749999999106,
          "durationTicks": 48,
          "midi": 35,
          "name": "B1",
          "ticks": 57648,
          "time": 253.73226750000003,
          "velocity": 0.8110236220472441
        },
        {
          "duration": 0.21126749999999106,
          "durationTicks": 48,
          "midi": 35,
          "name": "B1",
          "ticks": 57696,
          "time": 253.94353500000003,
          "velocity": 0.8110236220472441
        },
        {
          "duration": 0.21126750000001948,
          "durationTicks": 48,
          "midi": 35,
          "name": "B1",
          "ticks": 57744,
          "time": 254.15480250000002,
          "velocity": 0.8110236220472441
        },
        {
          "duration": 0.21126749999999106,
          "durationTicks": 48,
          "midi": 35,
          "name": "B1",
          "ticks": 57792,
          "time": 254.36607000000004,
          "velocity": 0.8110236220472441
        },
        {
          "duration": 0.21126749999999106,
          "durationTicks": 48,
          "midi": 35,
          "name": "B1",
          "ticks": 57840,
          "time": 254.57733750000003,
          "velocity": 0.8110236220472441
        },
        {
          "duration": 0.21126750000001948,
          "durationTicks": 48,
          "midi": 35,
          "name": "B1",
          "ticks": 57888,
          "time": 254.78860500000002,
          "velocity": 0.8110236220472441
        },
        {
          "duration": 0.21126749999999106,
          "durationTicks": 48,
          "midi": 35,
          "name": "B1",
          "ticks": 57936,
          "time": 254.99987250000004,
          "velocity": 0.8110236220472441
        },
        {
          "duration": 0.21126749999999106,
          "durationTicks": 48,
          "midi": 38,
          "name": "D2",
          "ticks": 57984,
          "time": 255.21114000000003,
          "velocity": 0.8110236220472441
        },
        {
          "duration": 0.21126750000001948,
          "durationTicks": 48,
          "midi": 38,
          "name": "D2",
          "ticks": 58032,
          "time": 255.42240750000002,
          "velocity": 0.8110236220472441
        },
        {
          "duration": 0.21126749999999106,
          "durationTicks": 48,
          "midi": 38,
          "name": "D2",
          "ticks": 58080,
          "time": 255.63367500000004,
          "velocity": 0.8110236220472441
        },
        {
          "duration": 0.21126749999999106,
          "durationTicks": 48,
          "midi": 38,
          "name": "D2",
          "ticks": 58128,
          "time": 255.84494250000003,
          "velocity": 0.8110236220472441
        },
        {
          "duration": 0.21126750000001948,
          "durationTicks": 48,
          "midi": 38,
          "name": "D2",
          "ticks": 58176,
          "time": 256.05621,
          "velocity": 0.8110236220472441
        },
        {
          "duration": 0.21126749999996264,
          "durationTicks": 48,
          "midi": 38,
          "name": "D2",
          "ticks": 58224,
          "time": 256.26747750000004,
          "velocity": 0.8110236220472441
        },
        {
          "duration": 0.21126750000001948,
          "durationTicks": 48,
          "midi": 38,
          "name": "D2",
          "ticks": 58272,
          "time": 256.478745,
          "velocity": 0.8110236220472441
        },
        {
          "duration": 0.21126750000001948,
          "durationTicks": 48,
          "midi": 38,
          "name": "D2",
          "ticks": 58320,
          "time": 256.6900125,
          "velocity": 0.8110236220472441
        },
        {
          "duration": 0.21126750000001948,
          "durationTicks": 48,
          "midi": 49,
          "name": "C#3",
          "ticks": 59856,
          "time": 263.4505725,
          "velocity": 0.984251968503937
        },
        {
          "duration": 0.21126750000001948,
          "durationTicks": 48,
          "midi": 49,
          "name": "C#3",
          "ticks": 61392,
          "time": 270.2111325,
          "velocity": 0.984251968503937
        }
      ]
    },
    {
      "channel": 0,
      "controlChanges": {},
      "pitchBends": [],
      "instrument": {
        "family": "piano",
        "number": 0,
        "name": "MELODY"
      },
      "name": "MELODY",
      "notes": [
        {
          "duration": 0.4225349999999999,
          "durationTicks": 96,
          "midi": 90,
          "name": "F#6",
          "ticks": 3072,
          "time": 13.521120000000002,
          "velocity": 0.7874015748031497
        },
        {
          "duration": 0.4225349999999999,
          "durationTicks": 96,
          "midi": 86,
          "name": "D6",
          "ticks": 3168,
          "time": 13.943655000000001,
          "velocity": 0.7874015748031497
        },
        {
          "duration": 0.4225349999999999,
          "durationTicks": 96,
          "midi": 93,
          "name": "A6",
          "ticks": 3264,
          "time": 14.366190000000001,
          "velocity": 0.7874015748031497
        },
        {
          "duration": 0.21126749999999994,
          "durationTicks": 48,
          "midi": 88,
          "name": "E6",
          "ticks": 3360,
          "time": 14.788725000000001,
          "velocity": 0.7874015748031497
        },
        {
          "duration": 0.21126749999999994,
          "durationTicks": 48,
          "midi": 90,
          "name": "F#6",
          "ticks": 3408,
          "time": 14.999992500000001,
          "velocity": 0.7874015748031497
        },
        {
          "duration": 1.2676050000000014,
          "durationTicks": 288,
          "midi": 88,
          "name": "E6",
          "ticks": 3456,
          "time": 15.211260000000001,
          "velocity": 0.7874015748031497
        },
        {
          "duration": 0.4225349999999999,
          "durationTicks": 96,
          "midi": 91,
          "name": "G6",
          "ticks": 3744,
          "time": 16.478865000000003,
          "velocity": 0.7874015748031497
        },
        {
          "duration": 0.4225349999999999,
          "durationTicks": 96,
          "midi": 90,
          "name": "F#6",
          "ticks": 3840,
          "time": 16.901400000000002,
          "velocity": 0.7874015748031497
        },
        {
          "duration": 0.4225349999999999,
          "durationTicks": 96,
          "midi": 91,
          "name": "G6",
          "ticks": 3936,
          "time": 17.323935000000002,
          "velocity": 0.7874015748031497
        },
        {
          "duration": 0.4225349999999999,
          "durationTicks": 96,
          "midi": 90,
          "name": "F#6",
          "ticks": 4032,
          "time": 17.746470000000002,
          "velocity": 0.7874015748031497
        },
        {
          "duration": 0.21126750000000172,
          "durationTicks": 48,
          "midi": 88,
          "name": "E6",
          "ticks": 4128,
          "time": 18.169005000000002,
          "velocity": 0.7874015748031497
        },
        {
          "duration": 0.21126749999999817,
          "durationTicks": 48,
          "midi": 90,
          "name": "F#6",
          "ticks": 4176,
          "time": 18.380272500000004,
          "velocity": 0.7874015748031497
        },
        {
          "duration": 1.2676049999999996,
          "durationTicks": 288,
          "midi": 86,
          "name": "D6",
          "ticks": 4224,
          "time": 18.591540000000002,
          "velocity": 0.7874015748031497
        },
        {
          "duration": 0.4225349999999999,
          "durationTicks": 96,
          "midi": 88,
          "name": "E6",
          "ticks": 4512,
          "time": 19.859145,
          "velocity": 0.7874015748031497
        },
        {
          "duration": 0.4225349999999999,
          "durationTicks": 96,
          "midi": 90,
          "name": "F#6",
          "ticks": 4608,
          "time": 20.28168,
          "velocity": 0.7874015748031497
        },
        {
          "duration": 0.4225349999999999,
          "durationTicks": 96,
          "midi": 86,
          "name": "D6",
          "ticks": 4704,
          "time": 20.704215,
          "velocity": 0.7874015748031497
        },
        {
          "duration": 0.4225349999999999,
          "durationTicks": 96,
          "midi": 93,
          "name": "A6",
          "ticks": 4800,
          "time": 21.12675,
          "velocity": 0.7874015748031497
        },
        {
          "duration": 0.21126750000000172,
          "durationTicks": 48,
          "midi": 88,
          "name": "E6",
          "ticks": 4896,
          "time": 21.549285,
          "velocity": 0.7874015748031497
        },
        {
          "duration": 0.21126749999999817,
          "durationTicks": 48,
          "midi": 90,
          "name": "F#6",
          "ticks": 4944,
          "time": 21.760552500000003,
          "velocity": 0.7874015748031497
        },
        {
          "duration": 1.2676050000000032,
          "durationTicks": 288,
          "midi": 88,
          "name": "E6",
          "ticks": 4992,
          "time": 21.97182,
          "velocity": 0.7874015748031497
        },
        {
          "duration": 0.4225349999999999,
          "durationTicks": 96,
          "midi": 91,
          "name": "G6",
          "ticks": 5280,
          "time": 23.239425000000004,
          "velocity": 0.7874015748031497
        },
        {
          "duration": 0.4225349999999999,
          "durationTicks": 96,
          "midi": 90,
          "name": "F#6",
          "ticks": 5376,
          "time": 23.661960000000004,
          "velocity": 0.7874015748031497
        },
        {
          "duration": 0.4225349999999999,
          "durationTicks": 96,
          "midi": 91,
          "name": "G6",
          "ticks": 5472,
          "time": 24.084495000000004,
          "velocity": 0.7874015748031497
        },
        {
          "duration": 0.4225349999999999,
          "durationTicks": 96,
          "midi": 90,
          "name": "F#6",
          "ticks": 5568,
          "time": 24.507030000000004,
          "velocity": 0.7874015748031497
        },
        {
          "duration": 0.21126749999999817,
          "durationTicks": 48,
          "midi": 88,
          "name": "E6",
          "ticks": 5664,
          "time": 24.929565000000004,
          "velocity": 0.7874015748031497
        },
        {
          "duration": 0.21126750000000172,
          "durationTicks": 48,
          "midi": 90,
          "name": "F#6",
          "ticks": 5712,
          "time": 25.140832500000002,
          "velocity": 0.7874015748031497
        },
        {
          "duration": 1.2676049999999996,
          "durationTicks": 288,
          "midi": 86,
          "name": "D6",
          "ticks": 5760,
          "time": 25.352100000000004,
          "velocity": 0.7874015748031497
        },
        {
          "duration": 0.4225349999999999,
          "durationTicks": 96,
          "midi": 88,
          "name": "E6",
          "ticks": 6048,
          "time": 26.619705000000003,
          "velocity": 0.7874015748031497
        },
        {
          "duration": 0.4225349999999999,
          "durationTicks": 96,
          "midi": 90,
          "name": "F#6",
          "ticks": 6144,
          "time": 27.042240000000003,
          "velocity": 0.7874015748031497
        },
        {
          "duration": 0.4225349999999999,
          "durationTicks": 96,
          "midi": 86,
          "name": "D6",
          "ticks": 6240,
          "time": 27.464775000000003,
          "velocity": 0.7874015748031497
        },
        {
          "duration": 0.4225349999999999,
          "durationTicks": 96,
          "midi": 93,
          "name": "A6",
          "ticks": 6336,
          "time": 27.887310000000003,
          "velocity": 0.7874015748031497
        },
        {
          "duration": 0.21126750000000172,
          "durationTicks": 48,
          "midi": 88,
          "name": "E6",
          "ticks": 6432,
          "time": 28.309845000000003,
          "velocity": 0.7874015748031497
        },
        {
          "duration": 0.21126749999999817,
          "durationTicks": 48,
          "midi": 90,
          "name": "F#6",
          "ticks": 6480,
          "time": 28.521112500000005,
          "velocity": 0.7874015748031497
        },
        {
          "duration": 1.2676049999999996,
          "durationTicks": 288,
          "midi": 88,
          "name": "E6",
          "ticks": 6528,
          "time": 28.732380000000003,
          "velocity": 0.7874015748031497
        },
        {
          "duration": 0.4225349999999999,
          "durationTicks": 96,
          "midi": 91,
          "name": "G6",
          "ticks": 6816,
          "time": 29.999985000000002,
          "velocity": 0.7874015748031497
        },
        {
          "duration": 0.4225349999999999,
          "durationTicks": 96,
          "midi": 90,
          "name": "F#6",
          "ticks": 6912,
          "time": 30.422520000000002,
          "velocity": 0.7874015748031497
        },
        {
          "duration": 0.4225349999999999,
          "durationTicks": 96,
          "midi": 91,
          "name": "G6",
          "ticks": 7008,
          "time": 30.845055000000002,
          "velocity": 0.7874015748031497
        },
        {
          "duration": 0.42253500000000344,
          "durationTicks": 96,
          "midi": 90,
          "name": "F#6",
          "ticks": 7104,
          "time": 31.267590000000002,
          "velocity": 0.7874015748031497
        },
        {
          "duration": 0.21126749999999817,
          "durationTicks": 48,
          "midi": 88,
          "name": "E6",
          "ticks": 7200,
          "time": 31.690125000000005,
          "velocity": 0.7874015748031497
        },
        {
          "duration": 0.21126750000000172,
          "durationTicks": 48,
          "midi": 90,
          "name": "F#6",
          "ticks": 7248,
          "time": 31.901392500000004,
          "velocity": 0.7874015748031497
        },
        {
          "duration": 1.267604999999996,
          "durationTicks": 288,
          "midi": 86,
          "name": "D6",
          "ticks": 7296,
          "time": 32.112660000000005,
          "velocity": 0.7874015748031497
        },
        {
          "duration": 0.42253500000000344,
          "durationTicks": 96,
          "midi": 88,
          "name": "E6",
          "ticks": 7584,
          "time": 33.380265,
          "velocity": 0.7874015748031497
        },
        {
          "duration": 0.42253499999999633,
          "durationTicks": 96,
          "midi": 90,
          "name": "F#6",
          "ticks": 7680,
          "time": 33.802800000000005,
          "velocity": 0.7874015748031497
        },
        {
          "duration": 0.42253500000000344,
          "durationTicks": 96,
          "midi": 86,
          "name": "D6",
          "ticks": 7776,
          "time": 34.225335,
          "velocity": 0.7874015748031497
        },
        {
          "duration": 0.42253499999999633,
          "durationTicks": 96,
          "midi": 93,
          "name": "A6",
          "ticks": 7872,
          "time": 34.647870000000005,
          "velocity": 0.7874015748031497
        },
        {
          "duration": 0.21126750000000527,
          "durationTicks": 48,
          "midi": 88,
          "name": "E6",
          "ticks": 7968,
          "time": 35.070405,
          "velocity": 0.7874015748031497
        },
        {
          "duration": 0.21126749999999817,
          "durationTicks": 48,
          "midi": 90,
          "name": "F#6",
          "ticks": 8016,
          "time": 35.281672500000006,
          "velocity": 0.7874015748031497
        },
        {
          "duration": 1.2676050000000032,
          "durationTicks": 288,
          "midi": 88,
          "name": "E6",
          "ticks": 8064,
          "time": 35.492940000000004,
          "velocity": 0.7874015748031497
        },
        {
          "duration": 0.42253499999999633,
          "durationTicks": 96,
          "midi": 91,
          "name": "G6",
          "ticks": 8352,
          "time": 36.76054500000001,
          "velocity": 0.7874015748031497
        },
        {
          "duration": 0.42253500000000344,
          "durationTicks": 96,
          "midi": 90,
          "name": "F#6",
          "ticks": 8448,
          "time": 37.183080000000004,
          "velocity": 0.7874015748031497
        },
        {
          "duration": 0.42253499999999633,
          "durationTicks": 96,
          "midi": 91,
          "name": "G6",
          "ticks": 8544,
          "time": 37.60561500000001,
          "velocity": 0.7874015748031497
        },
        {
          "duration": 0.42253500000000344,
          "durationTicks": 96,
          "midi": 90,
          "name": "F#6",
          "ticks": 8640,
          "time": 38.028150000000004,
          "velocity": 0.7874015748031497
        },
        {
          "duration": 0.21126749999999817,
          "durationTicks": 48,
          "midi": 88,
          "name": "E6",
          "ticks": 8736,
          "time": 38.45068500000001,
          "velocity": 0.7874015748031497
        },
        {
          "duration": 0.21126749999999817,
          "durationTicks": 48,
          "midi": 90,
          "name": "F#6",
          "ticks": 8784,
          "time": 38.661952500000005,
          "velocity": 0.7874015748031497
        },
        {
          "duration": 1.2676050000000032,
          "durationTicks": 288,
          "midi": 86,
          "name": "D6",
          "ticks": 8832,
          "time": 38.87322,
          "velocity": 0.7874015748031497
        },
        {
          "duration": 0.42253499999999633,
          "durationTicks": 96,
          "midi": 88,
          "name": "E6",
          "ticks": 9120,
          "time": 40.14082500000001,
          "velocity": 0.7874015748031497
        },
        {
          "duration": 0.21126750000000527,
          "durationTicks": 48,
          "midi": 74,
          "name": "D5",
          "ticks": 9216,
          "time": 40.56336,
          "velocity": 0.8661417322834646
        },
        {
          "duration": 0.21126749999999817,
          "durationTicks": 48,
          "midi": 78,
          "name": "F#5",
          "ticks": 9264,
          "time": 40.77462750000001,
          "velocity": 0.8661417322834646
        },
        {
          "duration": 0.21126749999999817,
          "durationTicks": 48,
          "midi": 78,
          "name": "F#5",
          "ticks": 9312,
          "time": 40.985895000000006,
          "velocity": 0.8661417322834646
        },
        {
          "duration": 0.21126749999999817,
          "durationTicks": 48,
          "midi": 78,
          "name": "F#5",
          "ticks": 9360,
          "time": 41.197162500000005,
          "velocity": 0.8661417322834646
        },
        {
          "duration": 0.21126750000000527,
          "durationTicks": 48,
          "midi": 74,
          "name": "D5",
          "ticks": 9408,
          "time": 41.40843,
          "velocity": 0.8661417322834646
        },
        {
          "duration": 0.21126749999999817,
          "durationTicks": 48,
          "midi": 78,
          "name": "F#5",
          "ticks": 9456,
          "time": 41.61969750000001,
          "velocity": 0.8661417322834646
        },
        {
          "duration": 0.21126749999999817,
          "durationTicks": 48,
          "midi": 74,
          "name": "D5",
          "ticks": 9504,
          "time": 41.830965000000006,
          "velocity": 0.8661417322834646
        },
        {
          "duration": 0.21126749999999817,
          "durationTicks": 48,
          "midi": 79,
          "name": "G5",
          "ticks": 9552,
          "time": 42.042232500000004,
          "velocity": 0.8661417322834646
        },
        {
          "duration": 0.21126750000000527,
          "durationTicks": 48,
          "midi": 76,
          "name": "E5",
          "ticks": 9600,
          "time": 42.2535,
          "velocity": 0.8661417322834646
        },
        {
          "duration": 0.21126749999999817,
          "durationTicks": 48,
          "midi": 78,
          "name": "F#5",
          "ticks": 9648,
          "time": 42.46476750000001,
          "velocity": 0.8661417322834646
        },
        {
          "duration": 0.21126749999999817,
          "durationTicks": 48,
          "midi": 74,
          "name": "D5",
          "ticks": 9696,
          "time": 42.676035000000006,
          "velocity": 0.8661417322834646
        },
        {
          "duration": 0.21126749999999817,
          "durationTicks": 48,
          "midi": 74,
          "name": "D5",
          "ticks": 9744,
          "time": 42.887302500000004,
          "velocity": 0.8661417322834646
        },
        {
          "duration": 0.21126750000000527,
          "durationTicks": 48,
          "midi": 76,
          "name": "E5",
          "ticks": 9792,
          "time": 43.09857,
          "velocity": 0.8661417322834646
        },
        {
          "duration": 0.21126749999999817,
          "durationTicks": 48,
          "midi": 78,
          "name": "F#5",
          "ticks": 9840,
          "time": 43.30983750000001,
          "velocity": 0.8661417322834646
        },
        {
          "duration": 0.21126749999999817,
          "durationTicks": 48,
          "midi": 76,
          "name": "E5",
          "ticks": 9888,
          "time": 43.521105000000006,
          "velocity": 0.8661417322834646
        },
        {
          "duration": 0.21126749999999817,
          "durationTicks": 48,
          "midi": 74,
          "name": "D5",
          "ticks": 9936,
          "time": 43.732372500000004,
          "velocity": 0.8661417322834646
        },
        {
          "duration": 0.21126750000000527,
          "durationTicks": 48,
          "midi": 78,
          "name": "F#5",
          "ticks": 9984,
          "time": 43.94364,
          "velocity": 0.8661417322834646
        },
        {
          "duration": 0.21126749999999817,
          "durationTicks": 48,
          "midi": 74,
          "name": "D5",
          "ticks": 10032,
          "time": 44.15490750000001,
          "velocity": 0.8661417322834646
        },
        {
          "duration": 0.21126749999999817,
          "durationTicks": 48,
          "midi": 79,
          "name": "G5",
          "ticks": 10080,
          "time": 44.366175000000005,
          "velocity": 0.8661417322834646
        },
        {
          "duration": 0.21126749999999817,
          "durationTicks": 48,
          "midi": 74,
          "name": "D5",
          "ticks": 10128,
          "time": 44.577442500000004,
          "velocity": 0.8661417322834646
        },
        {
          "duration": 0.21126750000000527,
          "durationTicks": 48,
          "midi": 78,
          "name": "F#5",
          "ticks": 10176,
          "time": 44.78871,
          "velocity": 0.8661417322834646
        },
        {
          "duration": 0.21126749999999817,
          "durationTicks": 48,
          "midi": 74,
          "name": "D5",
          "ticks": 10224,
          "time": 44.99997750000001,
          "velocity": 0.8661417322834646
        },
        {
          "duration": 0.21126749999999817,
          "durationTicks": 48,
          "midi": 74,
          "name": "D5",
          "ticks": 10272,
          "time": 45.211245000000005,
          "velocity": 0.8661417322834646
        },
        {
          "duration": 0.21126750000000527,
          "durationTicks": 48,
          "midi": 79,
          "name": "G5",
          "ticks": 10320,
          "time": 45.4225125,
          "velocity": 0.8661417322834646
        },
        {
          "duration": 0.21126749999999817,
          "durationTicks": 48,
          "midi": 78,
          "name": "F#5",
          "ticks": 10368,
          "time": 45.63378000000001,
          "velocity": 0.8661417322834646
        },
        {
          "duration": 0.21126749999999817,
          "durationTicks": 48,
          "midi": 74,
          "name": "D5",
          "ticks": 10416,
          "time": 45.84504750000001,
          "velocity": 0.8661417322834646
        },
        {
          "duration": 0.21126749999999817,
          "durationTicks": 48,
          "midi": 78,
          "name": "F#5",
          "ticks": 10464,
          "time": 46.056315000000005,
          "velocity": 0.8661417322834646
        },
        {
          "duration": 0.21126750000000527,
          "durationTicks": 48,
          "midi": 79,
          "name": "G5",
          "ticks": 10512,
          "time": 46.2675825,
          "velocity": 0.8661417322834646
        },
        {
          "duration": 0.21126749999999817,
          "durationTicks": 48,
          "midi": 81,
          "name": "A5",
          "ticks": 10560,
          "time": 46.47885000000001,
          "velocity": 0.8661417322834646
        },
        {
          "duration": 0.21126749999999817,
          "durationTicks": 48,
          "midi": 79,
          "name": "G5",
          "ticks": 10608,
          "time": 46.69011750000001,
          "velocity": 0.8661417322834646
        },
        {
          "duration": 0.21126749999999817,
          "durationTicks": 48,
          "midi": 74,
          "name": "D5",
          "ticks": 10656,
          "time": 46.901385000000005,
          "velocity": 0.8661417322834646
        },
        {
          "duration": 0.21126749999999817,
          "durationTicks": 48,
          "midi": 74,
          "name": "D5",
          "ticks": 10752,
          "time": 47.32392000000001,
          "velocity": 0.8661417322834646
        },
        {
          "duration": 0.21126749999999817,
          "durationTicks": 48,
          "midi": 78,
          "name": "F#5",
          "ticks": 10800,
          "time": 47.535187500000006,
          "velocity": 0.8661417322834646
        },
        {
          "duration": 0.21126749999999817,
          "durationTicks": 48,
          "midi": 78,
          "name": "F#5",
          "ticks": 10848,
          "time": 47.746455000000005,
          "velocity": 0.8661417322834646
        },
        {
          "duration": 0.21126750000000527,
          "durationTicks": 48,
          "midi": 78,
          "name": "F#5",
          "ticks": 10896,
          "time": 47.9577225,
          "velocity": 0.8661417322834646
        },
        {
          "duration": 0.21126749999999817,
          "durationTicks": 48,
          "midi": 74,
          "name": "D5",
          "ticks": 10944,
          "time": 48.16899000000001,
          "velocity": 0.8661417322834646
        },
        {
          "duration": 0.21126749999999817,
          "durationTicks": 48,
          "midi": 78,
          "name": "F#5",
          "ticks": 10992,
          "time": 48.380257500000006,
          "velocity": 0.8661417322834646
        },
        {
          "duration": 0.21126749999999817,
          "durationTicks": 48,
          "midi": 74,
          "name": "D5",
          "ticks": 11040,
          "time": 48.591525000000004,
          "velocity": 0.8661417322834646
        },
        {
          "duration": 0.21126750000000527,
          "durationTicks": 48,
          "midi": 79,
          "name": "G5",
          "ticks": 11088,
          "time": 48.8027925,
          "velocity": 0.8661417322834646
        },
        {
          "duration": 0.21126749999999817,
          "durationTicks": 48,
          "midi": 76,
          "name": "E5",
          "ticks": 11136,
          "time": 49.01406000000001,
          "velocity": 0.8661417322834646
        },
        {
          "duration": 0.21126749999999817,
          "durationTicks": 48,
          "midi": 78,
          "name": "F#5",
          "ticks": 11184,
          "time": 49.225327500000006,
          "velocity": 0.8661417322834646
        },
        {
          "duration": 0.21126750000000527,
          "durationTicks": 48,
          "midi": 74,
          "name": "D5",
          "ticks": 11232,
          "time": 49.436595000000004,
          "velocity": 0.8661417322834646
        },
        {
          "duration": 0.21126749999999817,
          "durationTicks": 48,
          "midi": 74,
          "name": "D5",
          "ticks": 11280,
          "time": 49.64786250000001,
          "velocity": 0.8661417322834646
        },
        {
          "duration": 0.21126749999999817,
          "durationTicks": 48,
          "midi": 76,
          "name": "E5",
          "ticks": 11328,
          "time": 49.85913000000001,
          "velocity": 0.8661417322834646
        },
        {
          "duration": 0.21126749999999817,
          "durationTicks": 48,
          "midi": 78,
          "name": "F#5",
          "ticks": 11376,
          "time": 50.070397500000006,
          "velocity": 0.8661417322834646
        },
        {
          "duration": 0.21126750000000527,
          "durationTicks": 48,
          "midi": 76,
          "name": "E5",
          "ticks": 11424,
          "time": 50.281665000000004,
          "velocity": 0.8661417322834646
        },
        {
          "duration": 0.21126749999999817,
          "durationTicks": 48,
          "midi": 74,
          "name": "D5",
          "ticks": 11472,
          "time": 50.49293250000001,
          "velocity": 0.8661417322834646
        },
        {
          "duration": 0.21126749999999817,
          "durationTicks": 48,
          "midi": 78,
          "name": "F#5",
          "ticks": 11520,
          "time": 50.70420000000001,
          "velocity": 0.8661417322834646
        },
        {
          "duration": 0.21126749999999817,
          "durationTicks": 48,
          "midi": 74,
          "name": "D5",
          "ticks": 11568,
          "time": 50.915467500000005,
          "velocity": 0.8661417322834646
        },
        {
          "duration": 0.21126750000000527,
          "durationTicks": 48,
          "midi": 79,
          "name": "G5",
          "ticks": 11616,
          "time": 51.126735000000004,
          "velocity": 0.8661417322834646
        },
        {
          "duration": 0.21126749999999817,
          "durationTicks": 48,
          "midi": 74,
          "name": "D5",
          "ticks": 11664,
          "time": 51.33800250000001,
          "velocity": 0.8661417322834646
        },
        {
          "duration": 0.21126749999999817,
          "durationTicks": 48,
          "midi": 78,
          "name": "F#5",
          "ticks": 11712,
          "time": 51.54927000000001,
          "velocity": 0.8661417322834646
        },
        {
          "duration": 0.21126749999999817,
          "durationTicks": 48,
          "midi": 74,
          "name": "D5",
          "ticks": 11760,
          "time": 51.760537500000005,
          "velocity": 0.8661417322834646
        },
        {
          "duration": 0.21126750000000527,
          "durationTicks": 48,
          "midi": 74,
          "name": "D5",
          "ticks": 11808,
          "time": 51.971805,
          "velocity": 0.8661417322834646
        },
        {
          "duration": 0.21126749999999817,
          "durationTicks": 48,
          "midi": 79,
          "name": "G5",
          "ticks": 11856,
          "time": 52.18307250000001,
          "velocity": 0.8661417322834646
        },
        {
          "duration": 0.21126749999999817,
          "durationTicks": 48,
          "midi": 78,
          "name": "F#5",
          "ticks": 11904,
          "time": 52.39434000000001,
          "velocity": 0.8661417322834646
        },
        {
          "duration": 0.21126749999999817,
          "durationTicks": 48,
          "midi": 74,
          "name": "D5",
          "ticks": 11952,
          "time": 52.605607500000005,
          "velocity": 0.8661417322834646
        },
        {
          "duration": 0.21126750000000527,
          "durationTicks": 48,
          "midi": 78,
          "name": "F#5",
          "ticks": 12000,
          "time": 52.816875,
          "velocity": 0.8661417322834646
        },
        {
          "duration": 0.21126749999999817,
          "durationTicks": 48,
          "midi": 79,
          "name": "G5",
          "ticks": 12048,
          "time": 53.02814250000001,
          "velocity": 0.8661417322834646
        },
        {
          "duration": 0.21126749999999817,
          "durationTicks": 48,
          "midi": 81,
          "name": "A5",
          "ticks": 12096,
          "time": 53.23941000000001,
          "velocity": 0.8661417322834646
        },
        {
          "duration": 0.21126749999999817,
          "durationTicks": 48,
          "midi": 79,
          "name": "G5",
          "ticks": 12144,
          "time": 53.450677500000005,
          "velocity": 0.8661417322834646
        },
        {
          "duration": 0.21126750000000527,
          "durationTicks": 48,
          "midi": 74,
          "name": "D5",
          "ticks": 12192,
          "time": 53.661945,
          "velocity": 0.8661417322834646
        },
        {
          "duration": 0.21126749999999817,
          "durationTicks": 48,
          "midi": 74,
          "name": "D5",
          "ticks": 12288,
          "time": 54.084480000000006,
          "velocity": 0.8661417322834646
        },
        {
          "duration": 0.21126750000000527,
          "durationTicks": 48,
          "midi": 78,
          "name": "F#5",
          "ticks": 12336,
          "time": 54.295747500000004,
          "velocity": 0.8661417322834646
        },
        {
          "duration": 0.21126749999999817,
          "durationTicks": 48,
          "midi": 78,
          "name": "F#5",
          "ticks": 12384,
          "time": 54.50701500000001,
          "velocity": 0.8661417322834646
        },
        {
          "duration": 0.21126749999999817,
          "durationTicks": 48,
          "midi": 78,
          "name": "F#5",
          "ticks": 12432,
          "time": 54.71828250000001,
          "velocity": 0.8661417322834646
        },
        {
          "duration": 0.21126749999999817,
          "durationTicks": 48,
          "midi": 74,
          "name": "D5",
          "ticks": 12480,
          "time": 54.929550000000006,
          "velocity": 0.8661417322834646
        },
        {
          "duration": 0.21126750000000527,
          "durationTicks": 48,
          "midi": 78,
          "name": "F#5",
          "ticks": 12528,
          "time": 55.140817500000004,
          "velocity": 0.8661417322834646
        },
        {
          "duration": 0.21126749999999817,
          "durationTicks": 48,
          "midi": 74,
          "name": "D5",
          "ticks": 12576,
          "time": 55.35208500000001,
          "velocity": 0.8661417322834646
        },
        {
          "duration": 0.21126749999999817,
          "durationTicks": 48,
          "midi": 79,
          "name": "G5",
          "ticks": 12624,
          "time": 55.56335250000001,
          "velocity": 0.8661417322834646
        },
        {
          "duration": 0.21126749999999817,
          "durationTicks": 48,
          "midi": 76,
          "name": "E5",
          "ticks": 12672,
          "time": 55.774620000000006,
          "velocity": 0.8661417322834646
        },
        {
          "duration": 0.21126750000000527,
          "durationTicks": 48,
          "midi": 78,
          "name": "F#5",
          "ticks": 12720,
          "time": 55.985887500000004,
          "velocity": 0.8661417322834646
        },
        {
          "duration": 0.21126749999999817,
          "durationTicks": 48,
          "midi": 74,
          "name": "D5",
          "ticks": 12768,
          "time": 56.19715500000001,
          "velocity": 0.8661417322834646
        },
        {
          "duration": 0.21126749999999817,
          "durationTicks": 48,
          "midi": 74,
          "name": "D5",
          "ticks": 12816,
          "time": 56.40842250000001,
          "velocity": 0.8661417322834646
        },
        {
          "duration": 0.21126749999999817,
          "durationTicks": 48,
          "midi": 76,
          "name": "E5",
          "ticks": 12864,
          "time": 56.619690000000006,
          "velocity": 0.8661417322834646
        },
        {
          "duration": 0.21126750000000527,
          "durationTicks": 48,
          "midi": 78,
          "name": "F#5",
          "ticks": 12912,
          "time": 56.830957500000004,
          "velocity": 0.8661417322834646
        },
        {
          "duration": 0.21126749999999817,
          "durationTicks": 48,
          "midi": 76,
          "name": "E5",
          "ticks": 12960,
          "time": 57.04222500000001,
          "velocity": 0.8661417322834646
        },
        {
          "duration": 0.21126749999999817,
          "durationTicks": 48,
          "midi": 74,
          "name": "D5",
          "ticks": 13008,
          "time": 57.25349250000001,
          "velocity": 0.8661417322834646
        },
        {
          "duration": 0.21126749999999817,
          "durationTicks": 48,
          "midi": 78,
          "name": "F#5",
          "ticks": 13056,
          "time": 57.464760000000005,
          "velocity": 0.8661417322834646
        },
        {
          "duration": 0.21126750000000527,
          "durationTicks": 48,
          "midi": 74,
          "name": "D5",
          "ticks": 13104,
          "time": 57.676027500000004,
          "velocity": 0.8661417322834646
        },
        {
          "duration": 0.21126749999999817,
          "durationTicks": 48,
          "midi": 79,
          "name": "G5",
          "ticks": 13152,
          "time": 57.88729500000001,
          "velocity": 0.8661417322834646
        },
        {
          "duration": 0.21126749999999817,
          "durationTicks": 48,
          "midi": 74,
          "name": "D5",
          "ticks": 13200,
          "time": 58.09856250000001,
          "velocity": 0.8661417322834646
        },
        {
          "duration": 0.21126749999999817,
          "durationTicks": 48,
          "midi": 78,
          "name": "F#5",
          "ticks": 13248,
          "time": 58.309830000000005,
          "velocity": 0.8661417322834646
        },
        {
          "duration": 0.21126750000000527,
          "durationTicks": 48,
          "midi": 74,
          "name": "D5",
          "ticks": 13296,
          "time": 58.5210975,
          "velocity": 0.8661417322834646
        },
        {
          "duration": 0.21126749999999817,
          "durationTicks": 48,
          "midi": 74,
          "name": "D5",
          "ticks": 13344,
          "time": 58.73236500000001,
          "velocity": 0.8661417322834646
        },
        {
          "duration": 0.21126749999999817,
          "durationTicks": 48,
          "midi": 79,
          "name": "G5",
          "ticks": 13392,
          "time": 58.94363250000001,
          "velocity": 0.8661417322834646
        },
        {
          "duration": 0.21126750000000527,
          "durationTicks": 48,
          "midi": 78,
          "name": "F#5",
          "ticks": 13440,
          "time": 59.154900000000005,
          "velocity": 0.8661417322834646
        },
        {
          "duration": 0.21126749999999817,
          "durationTicks": 48,
          "midi": 74,
          "name": "D5",
          "ticks": 13488,
          "time": 59.36616750000001,
          "velocity": 0.8661417322834646
        },
        {
          "duration": 0.21126749999999817,
          "durationTicks": 48,
          "midi": 78,
          "name": "F#5",
          "ticks": 13536,
          "time": 59.57743500000001,
          "velocity": 0.8661417322834646
        },
        {
          "duration": 0.21126749999999817,
          "durationTicks": 48,
          "midi": 79,
          "name": "G5",
          "ticks": 13584,
          "time": 59.78870250000001,
          "velocity": 0.8661417322834646
        },
        {
          "duration": 0.21126750000000527,
          "durationTicks": 48,
          "midi": 81,
          "name": "A5",
          "ticks": 13632,
          "time": 59.999970000000005,
          "velocity": 0.8661417322834646
        },
        {
          "duration": 0.21126749999999817,
          "durationTicks": 48,
          "midi": 79,
          "name": "G5",
          "ticks": 13680,
          "time": 60.21123750000001,
          "velocity": 0.8661417322834646
        },
        {
          "duration": 0.21126749999999817,
          "durationTicks": 48,
          "midi": 74,
          "name": "D5",
          "ticks": 13728,
          "time": 60.42250500000001,
          "velocity": 0.8661417322834646
        },
        {
          "duration": 0.21126750000000527,
          "durationTicks": 48,
          "midi": 74,
          "name": "D5",
          "ticks": 13824,
          "time": 60.845040000000004,
          "velocity": 0.8661417322834646
        },
        {
          "duration": 0.21126749999999817,
          "durationTicks": 48,
          "midi": 78,
          "name": "F#5",
          "ticks": 13872,
          "time": 61.05630750000001,
          "velocity": 0.8661417322834646
        },
        {
          "duration": 0.21126749999999817,
          "durationTicks": 48,
          "midi": 78,
          "name": "F#5",
          "ticks": 13920,
          "time": 61.26757500000001,
          "velocity": 0.8661417322834646
        },
        {
          "duration": 0.21126749999999817,
          "durationTicks": 48,
          "midi": 78,
          "name": "F#5",
          "ticks": 13968,
          "time": 61.478842500000006,
          "velocity": 0.8661417322834646
        },
        {
          "duration": 0.21126750000000527,
          "durationTicks": 48,
          "midi": 74,
          "name": "D5",
          "ticks": 14016,
          "time": 61.690110000000004,
          "velocity": 0.8661417322834646
        },
        {
          "duration": 0.21126749999999817,
          "durationTicks": 48,
          "midi": 78,
          "name": "F#5",
          "ticks": 14064,
          "time": 61.90137750000001,
          "velocity": 0.8661417322834646
        },
        {
          "duration": 0.21126749999999817,
          "durationTicks": 48,
          "midi": 74,
          "name": "D5",
          "ticks": 14112,
          "time": 62.11264500000001,
          "velocity": 0.8661417322834646
        },
        {
          "duration": 0.21126749999999817,
          "durationTicks": 48,
          "midi": 79,
          "name": "G5",
          "ticks": 14160,
          "time": 62.323912500000006,
          "velocity": 0.8661417322834646
        },
        {
          "duration": 0.21126750000000527,
          "durationTicks": 48,
          "midi": 76,
          "name": "E5",
          "ticks": 14208,
          "time": 62.535180000000004,
          "velocity": 0.8661417322834646
        },
        {
          "duration": 0.21126749999999817,
          "durationTicks": 48,
          "midi": 78,
          "name": "F#5",
          "ticks": 14256,
          "time": 62.74644750000001,
          "velocity": 0.8661417322834646
        },
        {
          "duration": 0.21126749999999817,
          "durationTicks": 48,
          "midi": 74,
          "name": "D5",
          "ticks": 14304,
          "time": 62.95771500000001,
          "velocity": 0.8661417322834646
        },
        {
          "duration": 0.21126750000000527,
          "durationTicks": 48,
          "midi": 74,
          "name": "D5",
          "ticks": 14352,
          "time": 63.168982500000006,
          "velocity": 0.8661417322834646
        },
        {
          "duration": 0.21126749999999817,
          "durationTicks": 48,
          "midi": 76,
          "name": "E5",
          "ticks": 14400,
          "time": 63.38025000000001,
          "velocity": 0.8661417322834646
        },
        {
          "duration": 0.21126749999999817,
          "durationTicks": 48,
          "midi": 78,
          "name": "F#5",
          "ticks": 14448,
          "time": 63.59151750000001,
          "velocity": 0.8661417322834646
        },
        {
          "duration": 0.21126749999999817,
          "durationTicks": 48,
          "midi": 76,
          "name": "E5",
          "ticks": 14496,
          "time": 63.80278500000001,
          "velocity": 0.8661417322834646
        },
        {
          "duration": 0.21126750000000527,
          "durationTicks": 48,
          "midi": 74,
          "name": "D5",
          "ticks": 14544,
          "time": 64.0140525,
          "velocity": 0.8661417322834646
        },
        {
          "duration": 0.21126749999999106,
          "durationTicks": 48,
          "midi": 78,
          "name": "F#5",
          "ticks": 14592,
          "time": 64.22532000000001,
          "velocity": 0.8661417322834646
        },
        {
          "duration": 0.21126750000000527,
          "durationTicks": 48,
          "midi": 74,
          "name": "D5",
          "ticks": 14640,
          "time": 64.4365875,
          "velocity": 0.8661417322834646
        },
        {
          "duration": 0.21126750000000527,
          "durationTicks": 48,
          "midi": 79,
          "name": "G5",
          "ticks": 14688,
          "time": 64.647855,
          "velocity": 0.8661417322834646
        },
        {
          "duration": 0.21126749999999106,
          "durationTicks": 48,
          "midi": 74,
          "name": "D5",
          "ticks": 14736,
          "time": 64.85912250000001,
          "velocity": 0.8661417322834646
        },
        {
          "duration": 0.21126750000000527,
          "durationTicks": 48,
          "midi": 78,
          "name": "F#5",
          "ticks": 14784,
          "time": 65.07039,
          "velocity": 0.8661417322834646
        },
        {
          "duration": 0.21126750000000527,
          "durationTicks": 48,
          "midi": 74,
          "name": "D5",
          "ticks": 14832,
          "time": 65.28165750000001,
          "velocity": 0.8661417322834646
        },
        {
          "duration": 0.21126749999999106,
          "durationTicks": 48,
          "midi": 74,
          "name": "D5",
          "ticks": 14880,
          "time": 65.49292500000001,
          "velocity": 0.8661417322834646
        },
        {
          "duration": 0.21126750000000527,
          "durationTicks": 48,
          "midi": 79,
          "name": "G5",
          "ticks": 14928,
          "time": 65.7041925,
          "velocity": 0.8661417322834646
        },
        {
          "duration": 0.21126749999999106,
          "durationTicks": 48,
          "midi": 78,
          "name": "F#5",
          "ticks": 14976,
          "time": 65.91546000000001,
          "velocity": 0.8661417322834646
        },
        {
          "duration": 0.21126750000000527,
          "durationTicks": 48,
          "midi": 74,
          "name": "D5",
          "ticks": 15024,
          "time": 66.1267275,
          "velocity": 0.8661417322834646
        },
        {
          "duration": 0.21126750000000527,
          "durationTicks": 48,
          "midi": 78,
          "name": "F#5",
          "ticks": 15072,
          "time": 66.337995,
          "velocity": 0.8661417322834646
        },
        {
          "duration": 0.21126749999999106,
          "durationTicks": 48,
          "midi": 79,
          "name": "G5",
          "ticks": 15120,
          "time": 66.54926250000001,
          "velocity": 0.8661417322834646
        },
        {
          "duration": 0.21126750000000527,
          "durationTicks": 48,
          "midi": 81,
          "name": "A5",
          "ticks": 15168,
          "time": 66.76053,
          "velocity": 0.8661417322834646
        },
        {
          "duration": 0.21126750000000527,
          "durationTicks": 48,
          "midi": 79,
          "name": "G5",
          "ticks": 15216,
          "time": 66.97179750000001,
          "velocity": 0.8661417322834646
        },
        {
          "duration": 0.21126749999999106,
          "durationTicks": 48,
          "midi": 74,
          "name": "D5",
          "ticks": 15264,
          "time": 67.18306500000001,
          "velocity": 0.8661417322834646
        },
        {
          "duration": 0.21126750000000527,
          "durationTicks": 48,
          "midi": 66,
          "name": "F#4",
          "ticks": 24576,
          "time": 108.16896000000001,
          "velocity": 0.8110236220472441
        },
        {
          "duration": 0.21126749999999106,
          "durationTicks": 48,
          "midi": 66,
          "name": "F#4",
          "ticks": 24624,
          "time": 108.38022750000002,
          "velocity": 0.8110236220472441
        },
        {
          "duration": 0.21126750000000527,
          "durationTicks": 48,
          "midi": 66,
          "name": "F#4",
          "ticks": 24672,
          "time": 108.59149500000001,
          "velocity": 0.8110236220472441
        },
        {
          "duration": 0.21126750000000527,
          "durationTicks": 48,
          "midi": 66,
          "name": "F#4",
          "ticks": 24720,
          "time": 108.80276250000001,
          "velocity": 0.8110236220472441
        },
        {
          "duration": 0.21126749999999106,
          "durationTicks": 48,
          "midi": 66,
          "name": "F#4",
          "ticks": 24768,
          "time": 109.01403000000002,
          "velocity": 0.8110236220472441
        },
        {
          "duration": 0.21126750000000527,
          "durationTicks": 48,
          "midi": 62,
          "name": "D4",
          "ticks": 24816,
          "time": 109.22529750000001,
          "velocity": 0.8110236220472441
        },
        {
          "duration": 0.21126749999999106,
          "durationTicks": 48,
          "midi": 66,
          "name": "F#4",
          "ticks": 24864,
          "time": 109.43656500000002,
          "velocity": 0.8110236220472441
        },
        {
          "duration": 0.21126750000000527,
          "durationTicks": 48,
          "midi": 67,
          "name": "G4",
          "ticks": 24912,
          "time": 109.6478325,
          "velocity": 0.8110236220472441
        },
        {
          "duration": 0.21126750000000527,
          "durationTicks": 48,
          "midi": 66,
          "name": "F#4",
          "ticks": 24960,
          "time": 109.85910000000001,
          "velocity": 0.8110236220472441
        },
        {
          "duration": 0.21126749999999106,
          "durationTicks": 48,
          "midi": 66,
          "name": "F#4",
          "ticks": 25008,
          "time": 110.07036750000002,
          "velocity": 0.8110236220472441
        },
        {
          "duration": 0.21126750000000527,
          "durationTicks": 48,
          "midi": 66,
          "name": "F#4",
          "ticks": 25056,
          "time": 110.28163500000001,
          "velocity": 0.8110236220472441
        },
        {
          "duration": 0.21126750000000527,
          "durationTicks": 48,
          "midi": 66,
          "name": "F#4",
          "ticks": 25104,
          "time": 110.49290250000001,
          "velocity": 0.8110236220472441
        },
        {
          "duration": 0.21126749999999106,
          "durationTicks": 48,
          "midi": 66,
          "name": "F#4",
          "ticks": 25152,
          "time": 110.70417000000002,
          "velocity": 0.8110236220472441
        },
        {
          "duration": 0.21126750000000527,
          "durationTicks": 48,
          "midi": 62,
          "name": "D4",
          "ticks": 25200,
          "time": 110.91543750000001,
          "velocity": 0.8110236220472441
        },
        {
          "duration": 0.21126749999999106,
          "durationTicks": 48,
          "midi": 66,
          "name": "F#4",
          "ticks": 25248,
          "time": 111.12670500000002,
          "velocity": 0.8110236220472441
        },
        {
          "duration": 0.21126750000000527,
          "durationTicks": 48,
          "midi": 67,
          "name": "G4",
          "ticks": 25296,
          "time": 111.3379725,
          "velocity": 0.8110236220472441
        },
        {
          "duration": 0.21126750000000527,
          "durationTicks": 48,
          "midi": 66,
          "name": "F#4",
          "ticks": 25344,
          "time": 111.54924000000001,
          "velocity": 0.8110236220472441
        },
        {
          "duration": 0.21126749999999106,
          "durationTicks": 48,
          "midi": 66,
          "name": "F#4",
          "ticks": 25392,
          "time": 111.76050750000002,
          "velocity": 0.8110236220472441
        },
        {
          "duration": 0.21126750000000527,
          "durationTicks": 48,
          "midi": 66,
          "name": "F#4",
          "ticks": 25440,
          "time": 111.97177500000001,
          "velocity": 0.8110236220472441
        },
        {
          "duration": 0.21126750000000527,
          "durationTicks": 48,
          "midi": 66,
          "name": "F#4",
          "ticks": 25488,
          "time": 112.18304250000001,
          "velocity": 0.8110236220472441
        },
        {
          "duration": 0.21126749999999106,
          "durationTicks": 48,
          "midi": 66,
          "name": "F#4",
          "ticks": 25536,
          "time": 112.39431000000002,
          "velocity": 0.8110236220472441
        },
        {
          "duration": 0.21126750000000527,
          "durationTicks": 48,
          "midi": 62,
          "name": "D4",
          "ticks": 25584,
          "time": 112.60557750000001,
          "velocity": 0.8110236220472441
        },
        {
          "duration": 0.21126750000000527,
          "durationTicks": 48,
          "midi": 66,
          "name": "F#4",
          "ticks": 25632,
          "time": 112.81684500000001,
          "velocity": 0.8110236220472441
        },
        {
          "duration": 0.21126749999999106,
          "durationTicks": 48,
          "midi": 67,
          "name": "G4",
          "ticks": 25680,
          "time": 113.02811250000002,
          "velocity": 0.8110236220472441
        },
        {
          "duration": 0.21126750000000527,
          "durationTicks": 48,
          "midi": 66,
          "name": "F#4",
          "ticks": 25728,
          "time": 113.23938000000001,
          "velocity": 0.8110236220472441
        },
        {
          "duration": 0.21126749999999106,
          "durationTicks": 48,
          "midi": 66,
          "name": "F#4",
          "ticks": 25776,
          "time": 113.45064750000002,
          "velocity": 0.8110236220472441
        },
        {
          "duration": 0.21126750000000527,
          "durationTicks": 48,
          "midi": 66,
          "name": "F#4",
          "ticks": 25824,
          "time": 113.66191500000001,
          "velocity": 0.8110236220472441
        },
        {
          "duration": 0.21126750000000527,
          "durationTicks": 48,
          "midi": 66,
          "name": "F#4",
          "ticks": 25872,
          "time": 113.87318250000001,
          "velocity": 0.8110236220472441
        },
        {
          "duration": 0.21126749999999106,
          "durationTicks": 48,
          "midi": 66,
          "name": "F#4",
          "ticks": 25920,
          "time": 114.08445000000002,
          "velocity": 0.8110236220472441
        },
        {
          "duration": 0.21126750000000527,
          "durationTicks": 48,
          "midi": 67,
          "name": "G4",
          "ticks": 25968,
          "time": 114.29571750000001,
          "velocity": 0.8110236220472441
        },
        {
          "duration": 0.21126750000000527,
          "durationTicks": 48,
          "midi": 69,
          "name": "A4",
          "ticks": 26016,
          "time": 114.50698500000001,
          "velocity": 0.8110236220472441
        },
        {
          "duration": 0.21126749999999106,
          "durationTicks": 48,
          "midi": 62,
          "name": "D4",
          "ticks": 26064,
          "time": 114.71825250000002,
          "velocity": 0.8110236220472441
        },
        {
          "duration": 0.21126750000000527,
          "durationTicks": 48,
          "midi": 78,
          "name": "F#5",
          "ticks": 26112,
          "time": 114.92952000000001,
          "velocity": 0.8110236220472441
        },
        {
          "duration": 0.21126749999999106,
          "durationTicks": 48,
          "midi": 66,
          "name": "F#4",
          "ticks": 26160,
          "time": 115.14078750000002,
          "velocity": 0.8110236220472441
        },
        {
          "duration": 0.21126750000000527,
          "durationTicks": 48,
          "midi": 66,
          "name": "F#4",
          "ticks": 26208,
          "time": 115.35205500000001,
          "velocity": 0.8110236220472441
        },
        {
          "duration": 0.21126750000000527,
          "durationTicks": 48,
          "midi": 66,
          "name": "F#4",
          "ticks": 26256,
          "time": 115.56332250000001,
          "velocity": 0.8110236220472441
        },
        {
          "duration": 0.21126749999999106,
          "durationTicks": 48,
          "midi": 66,
          "name": "F#4",
          "ticks": 26304,
          "time": 115.77459000000002,
          "velocity": 0.8110236220472441
        },
        {
          "duration": 0.21126750000000527,
          "durationTicks": 48,
          "midi": 62,
          "name": "D4",
          "ticks": 26352,
          "time": 115.98585750000001,
          "velocity": 0.8110236220472441
        },
        {
          "duration": 0.21126750000000527,
          "durationTicks": 48,
          "midi": 66,
          "name": "F#4",
          "ticks": 26400,
          "time": 116.19712500000001,
          "velocity": 0.8110236220472441
        },
        {
          "duration": 0.21126749999999106,
          "durationTicks": 48,
          "midi": 67,
          "name": "G4",
          "ticks": 26448,
          "time": 116.40839250000002,
          "velocity": 0.8110236220472441
        },
        {
          "duration": 0.21126750000000527,
          "durationTicks": 48,
          "midi": 66,
          "name": "F#4",
          "ticks": 26496,
          "time": 116.61966000000001,
          "velocity": 0.8110236220472441
        },
        {
          "duration": 0.21126749999999106,
          "durationTicks": 48,
          "midi": 66,
          "name": "F#4",
          "ticks": 26544,
          "time": 116.83092750000002,
          "velocity": 0.8110236220472441
        },
        {
          "duration": 0.21126750000000527,
          "durationTicks": 48,
          "midi": 66,
          "name": "F#4",
          "ticks": 26592,
          "time": 117.042195,
          "velocity": 0.8110236220472441
        },
        {
          "duration": 0.21126750000000527,
          "durationTicks": 48,
          "midi": 66,
          "name": "F#4",
          "ticks": 26640,
          "time": 117.25346250000001,
          "velocity": 0.8110236220472441
        },
        {
          "duration": 0.21126749999999106,
          "durationTicks": 48,
          "midi": 66,
          "name": "F#4",
          "ticks": 26688,
          "time": 117.46473000000002,
          "velocity": 0.8110236220472441
        },
        {
          "duration": 0.21126750000000527,
          "durationTicks": 48,
          "midi": 62,
          "name": "D4",
          "ticks": 26736,
          "time": 117.67599750000001,
          "velocity": 0.8110236220472441
        },
        {
          "duration": 0.21126750000000527,
          "durationTicks": 48,
          "midi": 66,
          "name": "F#4",
          "ticks": 26784,
          "time": 117.88726500000001,
          "velocity": 0.8110236220472441
        },
        {
          "duration": 0.21126749999999106,
          "durationTicks": 48,
          "midi": 67,
          "name": "G4",
          "ticks": 26832,
          "time": 118.09853250000002,
          "velocity": 0.8110236220472441
        },
        {
          "duration": 0.21126750000000527,
          "durationTicks": 48,
          "midi": 66,
          "name": "F#4",
          "ticks": 26880,
          "time": 118.30980000000001,
          "velocity": 0.8110236220472441
        },
        {
          "duration": 0.21126750000000527,
          "durationTicks": 48,
          "midi": 66,
          "name": "F#4",
          "ticks": 26928,
          "time": 118.52106750000002,
          "velocity": 0.8110236220472441
        },
        {
          "duration": 0.21126749999999106,
          "durationTicks": 48,
          "midi": 66,
          "name": "F#4",
          "ticks": 26976,
          "time": 118.73233500000002,
          "velocity": 0.8110236220472441
        },
        {
          "duration": 0.21126750000000527,
          "durationTicks": 48,
          "midi": 66,
          "name": "F#4",
          "ticks": 27024,
          "time": 118.94360250000001,
          "velocity": 0.8110236220472441
        },
        {
          "duration": 0.21126749999999106,
          "durationTicks": 48,
          "midi": 66,
          "name": "F#4",
          "ticks": 27072,
          "time": 119.15487000000002,
          "velocity": 0.8110236220472441
        },
        {
          "duration": 0.21126750000000527,
          "durationTicks": 48,
          "midi": 62,
          "name": "D4",
          "ticks": 27120,
          "time": 119.36613750000001,
          "velocity": 0.8110236220472441
        },
        {
          "duration": 0.21126750000000527,
          "durationTicks": 48,
          "midi": 66,
          "name": "F#4",
          "ticks": 27168,
          "time": 119.57740500000001,
          "velocity": 0.8110236220472441
        },
        {
          "duration": 0.21126749999999106,
          "durationTicks": 48,
          "midi": 67,
          "name": "G4",
          "ticks": 27216,
          "time": 119.78867250000002,
          "velocity": 0.8110236220472441
        },
        {
          "duration": 0.21126750000000527,
          "durationTicks": 48,
          "midi": 66,
          "name": "F#4",
          "ticks": 27264,
          "time": 119.99994000000001,
          "velocity": 0.8110236220472441
        },
        {
          "duration": 0.21126750000000527,
          "durationTicks": 48,
          "midi": 67,
          "name": "G4",
          "ticks": 27312,
          "time": 120.21120750000001,
          "velocity": 0.8110236220472441
        },
        {
          "duration": 0.21126749999999106,
          "durationTicks": 48,
          "midi": 69,
          "name": "A4",
          "ticks": 27360,
          "time": 120.42247500000002,
          "velocity": 0.8110236220472441
        },
        {
          "duration": 0.21126750000000527,
          "durationTicks": 48,
          "midi": 67,
          "name": "G4",
          "ticks": 27408,
          "time": 120.63374250000001,
          "velocity": 0.8110236220472441
        },
        {
          "duration": 0.21126749999999106,
          "durationTicks": 48,
          "midi": 66,
          "name": "F#4",
          "ticks": 27456,
          "time": 120.84501000000002,
          "velocity": 0.8110236220472441
        },
        {
          "duration": 0.21126750000000527,
          "durationTicks": 48,
          "midi": 64,
          "name": "E4",
          "ticks": 27504,
          "time": 121.05627750000001,
          "velocity": 0.8110236220472441
        },
        {
          "duration": 0.21126750000000527,
          "durationTicks": 48,
          "midi": 66,
          "name": "F#4",
          "ticks": 27552,
          "time": 121.26754500000001,
          "velocity": 0.8110236220472441
        },
        {
          "duration": 0.21126749999999106,
          "durationTicks": 48,
          "midi": 62,
          "name": "D4",
          "ticks": 27600,
          "time": 121.47881250000002,
          "velocity": 0.8110236220472441
        },
        {
          "duration": 0.21126750000000527,
          "durationTicks": 48,
          "midi": 86,
          "name": "D6",
          "ticks": 27648,
          "time": 121.69008000000001,
          "velocity": 0.8110236220472441
        },
        {
          "duration": 0.21126750000000527,
          "durationTicks": 48,
          "midi": 78,
          "name": "F#5",
          "ticks": 27648,
          "time": 121.69008000000001,
          "velocity": 0.8110236220472441
        },
        {
          "duration": 0.21126750000000527,
          "durationTicks": 48,
          "midi": 78,
          "name": "F#5",
          "ticks": 27696,
          "time": 121.90134750000001,
          "velocity": 0.8110236220472441
        },
        {
          "duration": 0.21126750000000527,
          "durationTicks": 48,
          "midi": 66,
          "name": "F#4",
          "ticks": 27696,
          "time": 121.90134750000001,
          "velocity": 0.8110236220472441
        },
        {
          "duration": 0.21126749999999106,
          "durationTicks": 48,
          "midi": 78,
          "name": "F#5",
          "ticks": 27744,
          "time": 122.11261500000002,
          "velocity": 0.8110236220472441
        },
        {
          "duration": 0.21126749999999106,
          "durationTicks": 48,
          "midi": 66,
          "name": "F#4",
          "ticks": 27744,
          "time": 122.11261500000002,
          "velocity": 0.8110236220472441
        },
        {
          "duration": 0.21126750000000527,
          "durationTicks": 48,
          "midi": 78,
          "name": "F#5",
          "ticks": 27792,
          "time": 122.32388250000001,
          "velocity": 0.8110236220472441
        },
        {
          "duration": 0.21126750000000527,
          "durationTicks": 48,
          "midi": 66,
          "name": "F#4",
          "ticks": 27792,
          "time": 122.32388250000001,
          "velocity": 0.8110236220472441
        },
        {
          "duration": 0.21126750000000527,
          "durationTicks": 48,
          "midi": 78,
          "name": "F#5",
          "ticks": 27840,
          "time": 122.53515000000002,
          "velocity": 0.8110236220472441
        },
        {
          "duration": 0.21126750000000527,
          "durationTicks": 48,
          "midi": 66,
          "name": "F#4",
          "ticks": 27840,
          "time": 122.53515000000002,
          "velocity": 0.8110236220472441
        },
        {
          "duration": 0.21126749999999106,
          "durationTicks": 48,
          "midi": 74,
          "name": "D5",
          "ticks": 27888,
          "time": 122.74641750000002,
          "velocity": 0.8110236220472441
        },
        {
          "duration": 0.21126749999999106,
          "durationTicks": 48,
          "midi": 62,
          "name": "D4",
          "ticks": 27888,
          "time": 122.74641750000002,
          "velocity": 0.8110236220472441
        },
        {
          "duration": 0.21126750000000527,
          "durationTicks": 48,
          "midi": 78,
          "name": "F#5",
          "ticks": 27936,
          "time": 122.95768500000001,
          "velocity": 0.8110236220472441
        },
        {
          "duration": 0.21126750000000527,
          "durationTicks": 48,
          "midi": 66,
          "name": "F#4",
          "ticks": 27936,
          "time": 122.95768500000001,
          "velocity": 0.8110236220472441
        },
        {
          "duration": 0.21126749999999106,
          "durationTicks": 48,
          "midi": 79,
          "name": "G5",
          "ticks": 27984,
          "time": 123.16895250000002,
          "velocity": 0.8110236220472441
        },
        {
          "duration": 0.21126749999999106,
          "durationTicks": 48,
          "midi": 67,
          "name": "G4",
          "ticks": 27984,
          "time": 123.16895250000002,
          "velocity": 0.8110236220472441
        },
        {
          "duration": 0.21126750000000527,
          "durationTicks": 48,
          "midi": 78,
          "name": "F#5",
          "ticks": 28032,
          "time": 123.38022000000001,
          "velocity": 0.8110236220472441
        },
        {
          "duration": 0.21126750000000527,
          "durationTicks": 48,
          "midi": 66,
          "name": "F#4",
          "ticks": 28032,
          "time": 123.38022000000001,
          "velocity": 0.8110236220472441
        },
        {
          "duration": 0.21126750000000527,
          "durationTicks": 48,
          "midi": 78,
          "name": "F#5",
          "ticks": 28080,
          "time": 123.59148750000001,
          "velocity": 0.8110236220472441
        },
        {
          "duration": 0.21126750000000527,
          "durationTicks": 48,
          "midi": 66,
          "name": "F#4",
          "ticks": 28080,
          "time": 123.59148750000001,
          "velocity": 0.8110236220472441
        },
        {
          "duration": 0.21126749999999106,
          "durationTicks": 48,
          "midi": 78,
          "name": "F#5",
          "ticks": 28128,
          "time": 123.80275500000002,
          "velocity": 0.8110236220472441
        },
        {
          "duration": 0.21126749999999106,
          "durationTicks": 48,
          "midi": 66,
          "name": "F#4",
          "ticks": 28128,
          "time": 123.80275500000002,
          "velocity": 0.8110236220472441
        },
        {
          "duration": 0.21126750000000527,
          "durationTicks": 48,
          "midi": 78,
          "name": "F#5",
          "ticks": 28176,
          "time": 124.01402250000001,
          "velocity": 0.8110236220472441
        },
        {
          "duration": 0.21126750000000527,
          "durationTicks": 48,
          "midi": 66,
          "name": "F#4",
          "ticks": 28176,
          "time": 124.01402250000001,
          "velocity": 0.8110236220472441
        },
        {
          "duration": 0.21126750000000527,
          "durationTicks": 48,
          "midi": 78,
          "name": "F#5",
          "ticks": 28224,
          "time": 124.22529000000002,
          "velocity": 0.8110236220472441
        },
        {
          "duration": 0.21126750000000527,
          "durationTicks": 48,
          "midi": 66,
          "name": "F#4",
          "ticks": 28224,
          "time": 124.22529000000002,
          "velocity": 0.8110236220472441
        },
        {
          "duration": 0.21126749999999106,
          "durationTicks": 48,
          "midi": 74,
          "name": "D5",
          "ticks": 28272,
          "time": 124.43655750000002,
          "velocity": 0.8110236220472441
        },
        {
          "duration": 0.21126749999999106,
          "durationTicks": 48,
          "midi": 62,
          "name": "D4",
          "ticks": 28272,
          "time": 124.43655750000002,
          "velocity": 0.8110236220472441
        },
        {
          "duration": 0.21126750000000527,
          "durationTicks": 48,
          "midi": 78,
          "name": "F#5",
          "ticks": 28320,
          "time": 124.64782500000001,
          "velocity": 0.8110236220472441
        },
        {
          "duration": 0.21126750000000527,
          "durationTicks": 48,
          "midi": 66,
          "name": "F#4",
          "ticks": 28320,
          "time": 124.64782500000001,
          "velocity": 0.8110236220472441
        },
        {
          "duration": 0.21126749999999106,
          "durationTicks": 48,
          "midi": 79,
          "name": "G5",
          "ticks": 28368,
          "time": 124.85909250000002,
          "velocity": 0.8110236220472441
        },
        {
          "duration": 0.21126749999999106,
          "durationTicks": 48,
          "midi": 67,
          "name": "G4",
          "ticks": 28368,
          "time": 124.85909250000002,
          "velocity": 0.8110236220472441
        },
        {
          "duration": 0.21126750000000527,
          "durationTicks": 48,
          "midi": 78,
          "name": "F#5",
          "ticks": 28416,
          "time": 125.07036000000001,
          "velocity": 0.8110236220472441
        },
        {
          "duration": 0.21126750000000527,
          "durationTicks": 48,
          "midi": 66,
          "name": "F#4",
          "ticks": 28416,
          "time": 125.07036000000001,
          "velocity": 0.8110236220472441
        },
        {
          "duration": 0.21126750000000527,
          "durationTicks": 48,
          "midi": 78,
          "name": "F#5",
          "ticks": 28464,
          "time": 125.28162750000001,
          "velocity": 0.8110236220472441
        },
        {
          "duration": 0.21126750000000527,
          "durationTicks": 48,
          "midi": 66,
          "name": "F#4",
          "ticks": 28464,
          "time": 125.28162750000001,
          "velocity": 0.8110236220472441
        },
        {
          "duration": 0.21126749999999106,
          "durationTicks": 48,
          "midi": 78,
          "name": "F#5",
          "ticks": 28512,
          "time": 125.49289500000002,
          "velocity": 0.8110236220472441
        },
        {
          "duration": 0.21126749999999106,
          "durationTicks": 48,
          "midi": 66,
          "name": "F#4",
          "ticks": 28512,
          "time": 125.49289500000002,
          "velocity": 0.8110236220472441
        },
        {
          "duration": 0.21126750000000527,
          "durationTicks": 48,
          "midi": 78,
          "name": "F#5",
          "ticks": 28560,
          "time": 125.70416250000001,
          "velocity": 0.8110236220472441
        },
        {
          "duration": 0.21126750000000527,
          "durationTicks": 48,
          "midi": 66,
          "name": "F#4",
          "ticks": 28560,
          "time": 125.70416250000001,
          "velocity": 0.8110236220472441
        },
        {
          "duration": 0.21126750000000527,
          "durationTicks": 48,
          "midi": 78,
          "name": "F#5",
          "ticks": 28608,
          "time": 125.91543000000001,
          "velocity": 0.8110236220472441
        },
        {
          "duration": 0.21126750000000527,
          "durationTicks": 48,
          "midi": 66,
          "name": "F#4",
          "ticks": 28608,
          "time": 125.91543000000001,
          "velocity": 0.8110236220472441
        },
        {
          "duration": 0.21126749999999106,
          "durationTicks": 48,
          "midi": 74,
          "name": "D5",
          "ticks": 28656,
          "time": 126.12669750000002,
          "velocity": 0.8110236220472441
        },
        {
          "duration": 0.21126749999999106,
          "durationTicks": 48,
          "midi": 62,
          "name": "D4",
          "ticks": 28656,
          "time": 126.12669750000002,
          "velocity": 0.8110236220472441
        },
        {
          "duration": 0.21126750000000527,
          "durationTicks": 48,
          "midi": 78,
          "name": "F#5",
          "ticks": 28704,
          "time": 126.33796500000001,
          "velocity": 0.8110236220472441
        },
        {
          "duration": 0.21126750000000527,
          "durationTicks": 48,
          "midi": 66,
          "name": "F#4",
          "ticks": 28704,
          "time": 126.33796500000001,
          "velocity": 0.8110236220472441
        },
        {
          "duration": 0.21126750000000527,
          "durationTicks": 48,
          "midi": 79,
          "name": "G5",
          "ticks": 28752,
          "time": 126.54923250000002,
          "velocity": 0.8110236220472441
        },
        {
          "duration": 0.21126750000000527,
          "durationTicks": 48,
          "midi": 67,
          "name": "G4",
          "ticks": 28752,
          "time": 126.54923250000002,
          "velocity": 0.8110236220472441
        },
        {
          "duration": 0.21126749999999106,
          "durationTicks": 48,
          "midi": 78,
          "name": "F#5",
          "ticks": 28800,
          "time": 126.76050000000002,
          "velocity": 0.8110236220472441
        },
        {
          "duration": 0.21126749999999106,
          "durationTicks": 48,
          "midi": 66,
          "name": "F#4",
          "ticks": 28800,
          "time": 126.76050000000002,
          "velocity": 0.8110236220472441
        },
        {
          "duration": 0.21126750000000527,
          "durationTicks": 48,
          "midi": 79,
          "name": "G5",
          "ticks": 28848,
          "time": 126.97176750000001,
          "velocity": 0.8110236220472441
        },
        {
          "duration": 0.21126750000000527,
          "durationTicks": 48,
          "midi": 67,
          "name": "G4",
          "ticks": 28848,
          "time": 126.97176750000001,
          "velocity": 0.8110236220472441
        },
        {
          "duration": 0.21126749999999106,
          "durationTicks": 48,
          "midi": 81,
          "name": "A5",
          "ticks": 28896,
          "time": 127.18303500000002,
          "velocity": 0.8110236220472441
        },
        {
          "duration": 0.21126749999999106,
          "durationTicks": 48,
          "midi": 69,
          "name": "A4",
          "ticks": 28896,
          "time": 127.18303500000002,
          "velocity": 0.8110236220472441
        },
        {
          "duration": 0.21126750000000527,
          "durationTicks": 48,
          "midi": 79,
          "name": "G5",
          "ticks": 28944,
          "time": 127.39430250000001,
          "velocity": 0.8110236220472441
        },
        {
          "duration": 0.21126750000000527,
          "durationTicks": 48,
          "midi": 67,
          "name": "G4",
          "ticks": 28944,
          "time": 127.39430250000001,
          "velocity": 0.8110236220472441
        },
        {
          "duration": 0.21126750000000527,
          "durationTicks": 48,
          "midi": 78,
          "name": "F#5",
          "ticks": 28992,
          "time": 127.60557000000001,
          "velocity": 0.8110236220472441
        },
        {
          "duration": 0.21126750000000527,
          "durationTicks": 48,
          "midi": 66,
          "name": "F#4",
          "ticks": 28992,
          "time": 127.60557000000001,
          "velocity": 0.8110236220472441
        },
        {
          "duration": 0.21126749999999106,
          "durationTicks": 48,
          "midi": 76,
          "name": "E5",
          "ticks": 29040,
          "time": 127.81683750000002,
          "velocity": 0.8110236220472441
        },
        {
          "duration": 0.21126749999999106,
          "durationTicks": 48,
          "midi": 64,
          "name": "E4",
          "ticks": 29040,
          "time": 127.81683750000002,
          "velocity": 0.8110236220472441
        },
        {
          "duration": 0.21126749999999106,
          "durationTicks": 48,
          "midi": 78,
          "name": "F#5",
          "ticks": 29088,
          "time": 128.028105,
          "velocity": 0.8110236220472441
        },
        {
          "duration": 0.21126749999999106,
          "durationTicks": 48,
          "midi": 66,
          "name": "F#4",
          "ticks": 29088,
          "time": 128.028105,
          "velocity": 0.8110236220472441
        },
        {
          "duration": 0.21126750000001948,
          "durationTicks": 48,
          "midi": 76,
          "name": "E5",
          "ticks": 29136,
          "time": 128.2393725,
          "velocity": 0.8110236220472441
        },
        {
          "duration": 0.21126750000001948,
          "durationTicks": 48,
          "midi": 62,
          "name": "D4",
          "ticks": 29136,
          "time": 128.2393725,
          "velocity": 0.8110236220472441
        },
        {
          "duration": 0.21126749999999106,
          "durationTicks": 48,
          "midi": 86,
          "name": "D6",
          "ticks": 29184,
          "time": 128.45064000000002,
          "velocity": 0.8110236220472441
        },
        {
          "duration": 0.21126749999999106,
          "durationTicks": 48,
          "midi": 78,
          "name": "F#5",
          "ticks": 29232,
          "time": 128.6619075,
          "velocity": 0.8110236220472441
        },
        {
          "duration": 0.21126749999999106,
          "durationTicks": 48,
          "midi": 66,
          "name": "F#4",
          "ticks": 29232,
          "time": 128.6619075,
          "velocity": 0.8110236220472441
        },
        {
          "duration": 0.21126750000001948,
          "durationTicks": 48,
          "midi": 78,
          "name": "F#5",
          "ticks": 29280,
          "time": 128.873175,
          "velocity": 0.8110236220472441
        },
        {
          "duration": 0.21126750000001948,
          "durationTicks": 48,
          "midi": 66,
          "name": "F#4",
          "ticks": 29280,
          "time": 128.873175,
          "velocity": 0.8110236220472441
        },
        {
          "duration": 0.21126749999999106,
          "durationTicks": 48,
          "midi": 78,
          "name": "F#5",
          "ticks": 29328,
          "time": 129.08444250000002,
          "velocity": 0.8110236220472441
        },
        {
          "duration": 0.21126749999999106,
          "durationTicks": 48,
          "midi": 66,
          "name": "F#4",
          "ticks": 29328,
          "time": 129.08444250000002,
          "velocity": 0.8110236220472441
        },
        {
          "duration": 0.21126749999999106,
          "durationTicks": 48,
          "midi": 78,
          "name": "F#5",
          "ticks": 29376,
          "time": 129.29571,
          "velocity": 0.8110236220472441
        },
        {
          "duration": 0.21126749999999106,
          "durationTicks": 48,
          "midi": 66,
          "name": "F#4",
          "ticks": 29376,
          "time": 129.29571,
          "velocity": 0.8110236220472441
        },
        {
          "duration": 0.21126750000001948,
          "durationTicks": 48,
          "midi": 74,
          "name": "D5",
          "ticks": 29424,
          "time": 129.5069775,
          "velocity": 0.8110236220472441
        },
        {
          "duration": 0.21126750000001948,
          "durationTicks": 48,
          "midi": 62,
          "name": "D4",
          "ticks": 29424,
          "time": 129.5069775,
          "velocity": 0.8110236220472441
        },
        {
          "duration": 0.21126749999999106,
          "durationTicks": 48,
          "midi": 78,
          "name": "F#5",
          "ticks": 29472,
          "time": 129.71824500000002,
          "velocity": 0.8110236220472441
        },
        {
          "duration": 0.21126749999999106,
          "durationTicks": 48,
          "midi": 66,
          "name": "F#4",
          "ticks": 29472,
          "time": 129.71824500000002,
          "velocity": 0.8110236220472441
        },
        {
          "duration": 0.21126749999999106,
          "durationTicks": 48,
          "midi": 79,
          "name": "G5",
          "ticks": 29520,
          "time": 129.92951250000002,
          "velocity": 0.8110236220472441
        },
        {
          "duration": 0.21126749999999106,
          "durationTicks": 48,
          "midi": 67,
          "name": "G4",
          "ticks": 29520,
          "time": 129.92951250000002,
          "velocity": 0.8110236220472441
        },
        {
          "duration": 0.21126750000001948,
          "durationTicks": 48,
          "midi": 78,
          "name": "F#5",
          "ticks": 29568,
          "time": 130.14078,
          "velocity": 0.8110236220472441
        },
        {
          "duration": 0.21126750000001948,
          "durationTicks": 48,
          "midi": 66,
          "name": "F#4",
          "ticks": 29568,
          "time": 130.14078,
          "velocity": 0.8110236220472441
        },
        {
          "duration": 0.21126749999999106,
          "durationTicks": 48,
          "midi": 78,
          "name": "F#5",
          "ticks": 29616,
          "time": 130.35204750000003,
          "velocity": 0.8110236220472441
        },
        {
          "duration": 0.21126749999999106,
          "durationTicks": 48,
          "midi": 66,
          "name": "F#4",
          "ticks": 29616,
          "time": 130.35204750000003,
          "velocity": 0.8110236220472441
        },
        {
          "duration": 0.21126749999999106,
          "durationTicks": 48,
          "midi": 78,
          "name": "F#5",
          "ticks": 29664,
          "time": 130.56331500000002,
          "velocity": 0.8110236220472441
        },
        {
          "duration": 0.21126749999999106,
          "durationTicks": 48,
          "midi": 66,
          "name": "F#4",
          "ticks": 29664,
          "time": 130.56331500000002,
          "velocity": 0.8110236220472441
        },
        {
          "duration": 0.21126750000001948,
          "durationTicks": 48,
          "midi": 78,
          "name": "F#5",
          "ticks": 29712,
          "time": 130.7745825,
          "velocity": 0.8110236220472441
        },
        {
          "duration": 0.21126750000001948,
          "durationTicks": 48,
          "midi": 66,
          "name": "F#4",
          "ticks": 29712,
          "time": 130.7745825,
          "velocity": 0.8110236220472441
        },
        {
          "duration": 0.21126749999999106,
          "durationTicks": 48,
          "midi": 78,
          "name": "F#5",
          "ticks": 29760,
          "time": 130.98585000000003,
          "velocity": 0.8110236220472441
        },
        {
          "duration": 0.21126749999999106,
          "durationTicks": 48,
          "midi": 66,
          "name": "F#4",
          "ticks": 29760,
          "time": 130.98585000000003,
          "velocity": 0.8110236220472441
        },
        {
          "duration": 0.21126749999999106,
          "durationTicks": 48,
          "midi": 74,
          "name": "D5",
          "ticks": 29808,
          "time": 131.19711750000002,
          "velocity": 0.8110236220472441
        },
        {
          "duration": 0.21126749999999106,
          "durationTicks": 48,
          "midi": 62,
          "name": "D4",
          "ticks": 29808,
          "time": 131.19711750000002,
          "velocity": 0.8110236220472441
        },
        {
          "duration": 0.21126750000001948,
          "durationTicks": 48,
          "midi": 78,
          "name": "F#5",
          "ticks": 29856,
          "time": 131.408385,
          "velocity": 0.8110236220472441
        },
        {
          "duration": 0.21126750000001948,
          "durationTicks": 48,
          "midi": 66,
          "name": "F#4",
          "ticks": 29856,
          "time": 131.408385,
          "velocity": 0.8110236220472441
        },
        {
          "duration": 0.21126749999999106,
          "durationTicks": 48,
          "midi": 79,
          "name": "G5",
          "ticks": 29904,
          "time": 131.61965250000003,
          "velocity": 0.8110236220472441
        },
        {
          "duration": 0.21126749999999106,
          "durationTicks": 48,
          "midi": 67,
          "name": "G4",
          "ticks": 29904,
          "time": 131.61965250000003,
          "velocity": 0.8110236220472441
        },
        {
          "duration": 0.21126749999999106,
          "durationTicks": 48,
          "midi": 78,
          "name": "F#5",
          "ticks": 29952,
          "time": 131.83092000000002,
          "velocity": 0.8110236220472441
        },
        {
          "duration": 0.21126749999999106,
          "durationTicks": 48,
          "midi": 66,
          "name": "F#4",
          "ticks": 29952,
          "time": 131.83092000000002,
          "velocity": 0.8110236220472441
        },
        {
          "duration": 0.21126749999999106,
          "durationTicks": 48,
          "midi": 78,
          "name": "F#5",
          "ticks": 30000,
          "time": 132.0421875,
          "velocity": 0.8110236220472441
        },
        {
          "duration": 0.21126749999999106,
          "durationTicks": 48,
          "midi": 66,
          "name": "F#4",
          "ticks": 30000,
          "time": 132.0421875,
          "velocity": 0.8110236220472441
        },
        {
          "duration": 0.21126750000001948,
          "durationTicks": 48,
          "midi": 78,
          "name": "F#5",
          "ticks": 30048,
          "time": 132.253455,
          "velocity": 0.8110236220472441
        },
        {
          "duration": 0.21126750000001948,
          "durationTicks": 48,
          "midi": 66,
          "name": "F#4",
          "ticks": 30048,
          "time": 132.253455,
          "velocity": 0.8110236220472441
        },
        {
          "duration": 0.21126749999999106,
          "durationTicks": 48,
          "midi": 78,
          "name": "F#5",
          "ticks": 30096,
          "time": 132.46472250000002,
          "velocity": 0.8110236220472441
        },
        {
          "duration": 0.21126749999999106,
          "durationTicks": 48,
          "midi": 66,
          "name": "F#4",
          "ticks": 30096,
          "time": 132.46472250000002,
          "velocity": 0.8110236220472441
        },
        {
          "duration": 0.21126749999999106,
          "durationTicks": 48,
          "midi": 78,
          "name": "F#5",
          "ticks": 30144,
          "time": 132.67599,
          "velocity": 0.8110236220472441
        },
        {
          "duration": 0.21126749999999106,
          "durationTicks": 48,
          "midi": 66,
          "name": "F#4",
          "ticks": 30144,
          "time": 132.67599,
          "velocity": 0.8110236220472441
        },
        {
          "duration": 0.21126750000001948,
          "durationTicks": 48,
          "midi": 74,
          "name": "D5",
          "ticks": 30192,
          "time": 132.8872575,
          "velocity": 0.8110236220472441
        },
        {
          "duration": 0.21126750000001948,
          "durationTicks": 48,
          "midi": 62,
          "name": "D4",
          "ticks": 30192,
          "time": 132.8872575,
          "velocity": 0.8110236220472441
        },
        {
          "duration": 0.21126749999999106,
          "durationTicks": 48,
          "midi": 78,
          "name": "F#5",
          "ticks": 30240,
          "time": 133.09852500000002,
          "velocity": 0.8110236220472441
        },
        {
          "duration": 0.21126749999999106,
          "durationTicks": 48,
          "midi": 66,
          "name": "F#4",
          "ticks": 30240,
          "time": 133.09852500000002,
          "velocity": 0.8110236220472441
        },
        {
          "duration": 0.21126749999999106,
          "durationTicks": 48,
          "midi": 79,
          "name": "G5",
          "ticks": 30288,
          "time": 133.30979250000001,
          "velocity": 0.8110236220472441
        },
        {
          "duration": 0.21126749999999106,
          "durationTicks": 48,
          "midi": 67,
          "name": "G4",
          "ticks": 30288,
          "time": 133.30979250000001,
          "velocity": 0.8110236220472441
        },
        {
          "duration": 0.21126750000001948,
          "durationTicks": 48,
          "midi": 78,
          "name": "F#5",
          "ticks": 30336,
          "time": 133.52106,
          "velocity": 0.8110236220472441
        },
        {
          "duration": 0.21126750000001948,
          "durationTicks": 48,
          "midi": 66,
          "name": "F#4",
          "ticks": 30336,
          "time": 133.52106,
          "velocity": 0.8110236220472441
        },
        {
          "duration": 0.21126749999999106,
          "durationTicks": 48,
          "midi": 79,
          "name": "G5",
          "ticks": 30384,
          "time": 133.73232750000003,
          "velocity": 0.8110236220472441
        },
        {
          "duration": 0.21126749999999106,
          "durationTicks": 48,
          "midi": 67,
          "name": "G4",
          "ticks": 30384,
          "time": 133.73232750000003,
          "velocity": 0.8110236220472441
        },
        {
          "duration": 0.21126749999999106,
          "durationTicks": 48,
          "midi": 81,
          "name": "A5",
          "ticks": 30432,
          "time": 133.94359500000002,
          "velocity": 0.8110236220472441
        },
        {
          "duration": 0.21126749999999106,
          "durationTicks": 48,
          "midi": 69,
          "name": "A4",
          "ticks": 30432,
          "time": 133.94359500000002,
          "velocity": 0.8110236220472441
        },
        {
          "duration": 0.21126750000001948,
          "durationTicks": 48,
          "midi": 79,
          "name": "G5",
          "ticks": 30480,
          "time": 134.1548625,
          "velocity": 0.8110236220472441
        },
        {
          "duration": 0.21126750000001948,
          "durationTicks": 48,
          "midi": 67,
          "name": "G4",
          "ticks": 30480,
          "time": 134.1548625,
          "velocity": 0.8110236220472441
        },
        {
          "duration": 0.21126749999999106,
          "durationTicks": 48,
          "midi": 78,
          "name": "F#5",
          "ticks": 30528,
          "time": 134.36613000000003,
          "velocity": 0.8110236220472441
        },
        {
          "duration": 0.21126749999999106,
          "durationTicks": 48,
          "midi": 66,
          "name": "F#4",
          "ticks": 30528,
          "time": 134.36613000000003,
          "velocity": 0.8110236220472441
        },
        {
          "duration": 0.21126749999999106,
          "durationTicks": 48,
          "midi": 76,
          "name": "E5",
          "ticks": 30576,
          "time": 134.57739750000002,
          "velocity": 0.8110236220472441
        },
        {
          "duration": 0.21126749999999106,
          "durationTicks": 48,
          "midi": 64,
          "name": "E4",
          "ticks": 30576,
          "time": 134.57739750000002,
          "velocity": 0.8110236220472441
        },
        {
          "duration": 0.21126750000001948,
          "durationTicks": 48,
          "midi": 78,
          "name": "F#5",
          "ticks": 30624,
          "time": 134.788665,
          "velocity": 0.8110236220472441
        },
        {
          "duration": 0.21126750000001948,
          "durationTicks": 48,
          "midi": 66,
          "name": "F#4",
          "ticks": 30624,
          "time": 134.788665,
          "velocity": 0.8110236220472441
        },
        {
          "duration": 0.21126749999999106,
          "durationTicks": 48,
          "midi": 76,
          "name": "E5",
          "ticks": 30672,
          "time": 134.99993250000003,
          "velocity": 0.8110236220472441
        },
        {
          "duration": 0.21126749999999106,
          "durationTicks": 48,
          "midi": 62,
          "name": "D4",
          "ticks": 30672,
          "time": 134.99993250000003,
          "velocity": 0.8110236220472441
        },
        {
          "duration": 0.42253500000001054,
          "durationTicks": 96,
          "midi": 90,
          "name": "F#6",
          "ticks": 30720,
          "time": 135.21120000000002,
          "velocity": 0.7874015748031497
        },
        {
          "duration": 0.4225349999999821,
          "durationTicks": 96,
          "midi": 86,
          "name": "D6",
          "ticks": 30816,
          "time": 135.63373500000003,
          "velocity": 0.7874015748031497
        },
        {
          "duration": 0.42253500000001054,
          "durationTicks": 96,
          "midi": 93,
          "name": "A6",
          "ticks": 30912,
          "time": 136.05627,
          "velocity": 0.7874015748031497
        },
        {
          "duration": 0.21126749999999106,
          "durationTicks": 48,
          "midi": 88,
          "name": "E6",
          "ticks": 31008,
          "time": 136.47880500000002,
          "velocity": 0.7874015748031497
        },
        {
          "duration": 0.21126749999999106,
          "durationTicks": 48,
          "midi": 90,
          "name": "F#6",
          "ticks": 31056,
          "time": 136.6900725,
          "velocity": 0.7874015748031497
        },
        {
          "duration": 1.2676050000000032,
          "durationTicks": 288,
          "midi": 88,
          "name": "E6",
          "ticks": 31104,
          "time": 136.90134,
          "velocity": 0.7874015748031497
        },
        {
          "duration": 0.42253500000001054,
          "durationTicks": 96,
          "midi": 91,
          "name": "G6",
          "ticks": 31392,
          "time": 138.168945,
          "velocity": 0.7874015748031497
        },
        {
          "duration": 0.42253500000001054,
          "durationTicks": 96,
          "midi": 90,
          "name": "F#6",
          "ticks": 31488,
          "time": 138.59148000000002,
          "velocity": 0.7874015748031497
        },
        {
          "duration": 0.4225349999999821,
          "durationTicks": 96,
          "midi": 91,
          "name": "G6",
          "ticks": 31584,
          "time": 139.01401500000003,
          "velocity": 0.7874015748031497
        },
        {
          "duration": 0.42253500000001054,
          "durationTicks": 96,
          "midi": 90,
          "name": "F#6",
          "ticks": 31680,
          "time": 139.43655,
          "velocity": 0.7874015748031497
        },
        {
          "duration": 0.21126749999999106,
          "durationTicks": 48,
          "midi": 88,
          "name": "E6",
          "ticks": 31776,
          "time": 139.85908500000002,
          "velocity": 0.7874015748031497
        },
        {
          "duration": 0.21126749999999106,
          "durationTicks": 48,
          "midi": 90,
          "name": "F#6",
          "ticks": 31824,
          "time": 140.0703525,
          "velocity": 0.7874015748031497
        },
        {
          "duration": 1.2676050000000032,
          "durationTicks": 288,
          "midi": 86,
          "name": "D6",
          "ticks": 31872,
          "time": 140.28162,
          "velocity": 0.7874015748031497
        },
        {
          "duration": 0.42253500000001054,
          "durationTicks": 96,
          "midi": 88,
          "name": "E6",
          "ticks": 32160,
          "time": 141.549225,
          "velocity": 0.7874015748031497
        },
        {
          "duration": 0.42253500000001054,
          "durationTicks": 96,
          "midi": 90,
          "name": "F#6",
          "ticks": 32256,
          "time": 141.97176000000002,
          "velocity": 0.7874015748031497
        },
        {
          "duration": 0.4225349999999821,
          "durationTicks": 96,
          "midi": 86,
          "name": "D6",
          "ticks": 32352,
          "time": 142.39429500000003,
          "velocity": 0.7874015748031497
        },
        {
          "duration": 0.42253500000001054,
          "durationTicks": 96,
          "midi": 93,
          "name": "A6",
          "ticks": 32448,
          "time": 142.81683,
          "velocity": 0.7874015748031497
        },
        {
          "duration": 0.21126749999999106,
          "durationTicks": 48,
          "midi": 88,
          "name": "E6",
          "ticks": 32544,
          "time": 143.23936500000002,
          "velocity": 0.7874015748031497
        },
        {
          "duration": 0.21126749999999106,
          "durationTicks": 48,
          "midi": 90,
          "name": "F#6",
          "ticks": 32592,
          "time": 143.4506325,
          "velocity": 0.7874015748031497
        },
        {
          "duration": 1.2676050000000032,
          "durationTicks": 288,
          "midi": 88,
          "name": "E6",
          "ticks": 32640,
          "time": 143.6619,
          "velocity": 0.7874015748031497
        },
        {
          "duration": 0.42253500000001054,
          "durationTicks": 96,
          "midi": 91,
          "name": "G6",
          "ticks": 32928,
          "time": 144.929505,
          "velocity": 0.7874015748031497
        },
        {
          "duration": 0.42253500000001054,
          "durationTicks": 96,
          "midi": 90,
          "name": "F#6",
          "ticks": 33024,
          "time": 145.35204000000002,
          "velocity": 0.7874015748031497
        },
        {
          "duration": 0.4225349999999821,
          "durationTicks": 96,
          "midi": 91,
          "name": "G6",
          "ticks": 33120,
          "time": 145.77457500000003,
          "velocity": 0.7874015748031497
        },
        {
          "duration": 0.42253500000001054,
          "durationTicks": 96,
          "midi": 90,
          "name": "F#6",
          "ticks": 33216,
          "time": 146.19711,
          "velocity": 0.7874015748031497
        },
        {
          "duration": 0.21126749999999106,
          "durationTicks": 48,
          "midi": 88,
          "name": "E6",
          "ticks": 33312,
          "time": 146.61964500000002,
          "velocity": 0.7874015748031497
        },
        {
          "duration": 0.21126750000001948,
          "durationTicks": 48,
          "midi": 90,
          "name": "F#6",
          "ticks": 33360,
          "time": 146.8309125,
          "velocity": 0.7874015748031497
        },
        {
          "duration": 1.2676049999999748,
          "durationTicks": 288,
          "midi": 86,
          "name": "D6",
          "ticks": 33408,
          "time": 147.04218000000003,
          "velocity": 0.7874015748031497
        },
        {
          "duration": 0.42253500000001054,
          "durationTicks": 96,
          "midi": 88,
          "name": "E6",
          "ticks": 33696,
          "time": 148.309785,
          "velocity": 0.7874015748031497
        },
        {
          "duration": 0.42253500000001054,
          "durationTicks": 96,
          "midi": 90,
          "name": "F#6",
          "ticks": 33792,
          "time": 148.73232000000002,
          "velocity": 0.7874015748031497
        },
        {
          "duration": 0.4225349999999821,
          "durationTicks": 96,
          "midi": 86,
          "name": "D6",
          "ticks": 33888,
          "time": 149.15485500000003,
          "velocity": 0.7874015748031497
        },
        {
          "duration": 0.42253500000001054,
          "durationTicks": 96,
          "midi": 93,
          "name": "A6",
          "ticks": 33984,
          "time": 149.57739,
          "velocity": 0.7874015748031497
        },
        {
          "duration": 0.21126749999999106,
          "durationTicks": 48,
          "midi": 88,
          "name": "E6",
          "ticks": 34080,
          "time": 149.99992500000002,
          "velocity": 0.7874015748031497
        },
        {
          "duration": 0.21126750000001948,
          "durationTicks": 48,
          "midi": 90,
          "name": "F#6",
          "ticks": 34128,
          "time": 150.2111925,
          "velocity": 0.7874015748031497
        },
        {
          "duration": 1.2676049999999748,
          "durationTicks": 288,
          "midi": 88,
          "name": "E6",
          "ticks": 34176,
          "time": 150.42246000000003,
          "velocity": 0.7874015748031497
        },
        {
          "duration": 0.42253500000001054,
          "durationTicks": 96,
          "midi": 91,
          "name": "G6",
          "ticks": 34464,
          "time": 151.690065,
          "velocity": 0.7874015748031497
        },
        {
          "duration": 0.42253500000001054,
          "durationTicks": 96,
          "midi": 90,
          "name": "F#6",
          "ticks": 34560,
          "time": 152.11260000000001,
          "velocity": 0.7874015748031497
        },
        {
          "duration": 0.4225349999999821,
          "durationTicks": 96,
          "midi": 91,
          "name": "G6",
          "ticks": 34656,
          "time": 152.53513500000003,
          "velocity": 0.7874015748031497
        },
        {
          "duration": 0.42253500000001054,
          "durationTicks": 96,
          "midi": 90,
          "name": "F#6",
          "ticks": 34752,
          "time": 152.95767,
          "velocity": 0.7874015748031497
        },
        {
          "duration": 0.21126749999999106,
          "durationTicks": 48,
          "midi": 88,
          "name": "E6",
          "ticks": 34848,
          "time": 153.38020500000002,
          "velocity": 0.7874015748031497
        },
        {
          "duration": 0.21126750000001948,
          "durationTicks": 48,
          "midi": 90,
          "name": "F#6",
          "ticks": 34896,
          "time": 153.5914725,
          "velocity": 0.7874015748031497
        },
        {
          "duration": 1.2676050000000032,
          "durationTicks": 288,
          "midi": 86,
          "name": "D6",
          "ticks": 34944,
          "time": 153.80274000000003,
          "velocity": 0.7874015748031497
        },
        {
          "duration": 0.4225349999999821,
          "durationTicks": 96,
          "midi": 88,
          "name": "E6",
          "ticks": 35232,
          "time": 155.07034500000003,
          "velocity": 0.7874015748031497
        },
        {
          "duration": 0.42253500000001054,
          "durationTicks": 96,
          "midi": 90,
          "name": "F#6",
          "ticks": 35328,
          "time": 155.49288,
          "velocity": 0.7874015748031497
        },
        {
          "duration": 0.4225349999999821,
          "durationTicks": 96,
          "midi": 86,
          "name": "D6",
          "ticks": 35424,
          "time": 155.91541500000002,
          "velocity": 0.7874015748031497
        },
        {
          "duration": 0.42253500000001054,
          "durationTicks": 96,
          "midi": 93,
          "name": "A6",
          "ticks": 35520,
          "time": 156.33795,
          "velocity": 0.7874015748031497
        },
        {
          "duration": 0.21126749999999106,
          "durationTicks": 48,
          "midi": 88,
          "name": "E6",
          "ticks": 35616,
          "time": 156.76048500000002,
          "velocity": 0.7874015748031497
        },
        {
          "duration": 0.21126750000001948,
          "durationTicks": 48,
          "midi": 90,
          "name": "F#6",
          "ticks": 35664,
          "time": 156.9717525,
          "velocity": 0.7874015748031497
        },
        {
          "duration": 1.2676050000000032,
          "durationTicks": 288,
          "midi": 88,
          "name": "E6",
          "ticks": 35712,
          "time": 157.18302000000003,
          "velocity": 0.7874015748031497
        },
        {
          "duration": 0.4225349999999821,
          "durationTicks": 96,
          "midi": 91,
          "name": "G6",
          "ticks": 36000,
          "time": 158.45062500000003,
          "velocity": 0.7874015748031497
        },
        {
          "duration": 0.42253500000001054,
          "durationTicks": 96,
          "midi": 90,
          "name": "F#6",
          "ticks": 36096,
          "time": 158.87316,
          "velocity": 0.7874015748031497
        },
        {
          "duration": 0.4225349999999821,
          "durationTicks": 96,
          "midi": 91,
          "name": "G6",
          "ticks": 36192,
          "time": 159.29569500000002,
          "velocity": 0.7874015748031497
        },
        {
          "duration": 0.42253500000001054,
          "durationTicks": 96,
          "midi": 90,
          "name": "F#6",
          "ticks": 36288,
          "time": 159.71823,
          "velocity": 0.7874015748031497
        },
        {
          "duration": 0.21126749999999106,
          "durationTicks": 48,
          "midi": 88,
          "name": "E6",
          "ticks": 36384,
          "time": 160.14076500000002,
          "velocity": 0.7874015748031497
        },
        {
          "duration": 0.21126750000001948,
          "durationTicks": 48,
          "midi": 90,
          "name": "F#6",
          "ticks": 36432,
          "time": 160.3520325,
          "velocity": 0.7874015748031497
        },
        {
          "duration": 1.2676050000000032,
          "durationTicks": 288,
          "midi": 86,
          "name": "D6",
          "ticks": 36480,
          "time": 160.56330000000003,
          "velocity": 0.7874015748031497
        },
        {
          "duration": 0.4225349999999821,
          "durationTicks": 96,
          "midi": 88,
          "name": "E6",
          "ticks": 36768,
          "time": 161.83090500000003,
          "velocity": 0.7874015748031497
        },
        {
          "duration": 0.21126750000001948,
          "durationTicks": 48,
          "midi": 74,
          "name": "D5",
          "ticks": 36864,
          "time": 162.25344,
          "velocity": 0.8661417322834646
        },
        {
          "duration": 0.21126749999999106,
          "durationTicks": 48,
          "midi": 78,
          "name": "F#5",
          "ticks": 36912,
          "time": 162.46470750000003,
          "velocity": 0.8661417322834646
        },
        {
          "duration": 0.21126749999999106,
          "durationTicks": 48,
          "midi": 78,
          "name": "F#5",
          "ticks": 36960,
          "time": 162.67597500000002,
          "velocity": 0.8661417322834646
        },
        {
          "duration": 0.21126750000001948,
          "durationTicks": 48,
          "midi": 78,
          "name": "F#5",
          "ticks": 37008,
          "time": 162.8872425,
          "velocity": 0.8661417322834646
        },
        {
          "duration": 0.21126749999999106,
          "durationTicks": 48,
          "midi": 74,
          "name": "D5",
          "ticks": 37056,
          "time": 163.09851000000003,
          "velocity": 0.8661417322834646
        },
        {
          "duration": 0.21126749999999106,
          "durationTicks": 48,
          "midi": 78,
          "name": "F#5",
          "ticks": 37104,
          "time": 163.30977750000002,
          "velocity": 0.8661417322834646
        },
        {
          "duration": 0.21126749999999106,
          "durationTicks": 48,
          "midi": 74,
          "name": "D5",
          "ticks": 37152,
          "time": 163.52104500000002,
          "velocity": 0.8661417322834646
        },
        {
          "duration": 0.21126750000001948,
          "durationTicks": 48,
          "midi": 79,
          "name": "G5",
          "ticks": 37200,
          "time": 163.7323125,
          "velocity": 0.8661417322834646
        },
        {
          "duration": 0.21126749999999106,
          "durationTicks": 48,
          "midi": 76,
          "name": "E5",
          "ticks": 37248,
          "time": 163.94358000000003,
          "velocity": 0.8661417322834646
        },
        {
          "duration": 0.21126749999999106,
          "durationTicks": 48,
          "midi": 78,
          "name": "F#5",
          "ticks": 37296,
          "time": 164.15484750000002,
          "velocity": 0.8661417322834646
        },
        {
          "duration": 0.21126750000001948,
          "durationTicks": 48,
          "midi": 74,
          "name": "D5",
          "ticks": 37344,
          "time": 164.366115,
          "velocity": 0.8661417322834646
        },
        {
          "duration": 0.21126749999999106,
          "durationTicks": 48,
          "midi": 74,
          "name": "D5",
          "ticks": 37392,
          "time": 164.57738250000003,
          "velocity": 0.8661417322834646
        },
        {
          "duration": 0.21126749999999106,
          "durationTicks": 48,
          "midi": 76,
          "name": "E5",
          "ticks": 37440,
          "time": 164.78865000000002,
          "velocity": 0.8661417322834646
        },
        {
          "duration": 0.21126750000001948,
          "durationTicks": 48,
          "midi": 78,
          "name": "F#5",
          "ticks": 37488,
          "time": 164.9999175,
          "velocity": 0.8661417322834646
        },
        {
          "duration": 0.21126749999999106,
          "durationTicks": 48,
          "midi": 76,
          "name": "E5",
          "ticks": 37536,
          "time": 165.21118500000003,
          "velocity": 0.8661417322834646
        },
        {
          "duration": 0.21126749999999106,
          "durationTicks": 48,
          "midi": 74,
          "name": "D5",
          "ticks": 37584,
          "time": 165.42245250000002,
          "velocity": 0.8661417322834646
        },
        {
          "duration": 0.21126750000001948,
          "durationTicks": 48,
          "midi": 78,
          "name": "F#5",
          "ticks": 37632,
          "time": 165.63372,
          "velocity": 0.8661417322834646
        },
        {
          "duration": 0.21126749999999106,
          "durationTicks": 48,
          "midi": 74,
          "name": "D5",
          "ticks": 37680,
          "time": 165.84498750000003,
          "velocity": 0.8661417322834646
        },
        {
          "duration": 0.21126749999999106,
          "durationTicks": 48,
          "midi": 79,
          "name": "G5",
          "ticks": 37728,
          "time": 166.05625500000002,
          "velocity": 0.8661417322834646
        },
        {
          "duration": 0.21126750000001948,
          "durationTicks": 48,
          "midi": 74,
          "name": "D5",
          "ticks": 37776,
          "time": 166.2675225,
          "velocity": 0.8661417322834646
        },
        {
          "duration": 0.21126749999999106,
          "durationTicks": 48,
          "midi": 78,
          "name": "F#5",
          "ticks": 37824,
          "time": 166.47879000000003,
          "velocity": 0.8661417322834646
        },
        {
          "duration": 0.21126749999999106,
          "durationTicks": 48,
          "midi": 74,
          "name": "D5",
          "ticks": 37872,
          "time": 166.69005750000002,
          "velocity": 0.8661417322834646
        },
        {
          "duration": 0.21126750000001948,
          "durationTicks": 48,
          "midi": 74,
          "name": "D5",
          "ticks": 37920,
          "time": 166.901325,
          "velocity": 0.8661417322834646
        },
        {
          "duration": 0.21126749999999106,
          "durationTicks": 48,
          "midi": 79,
          "name": "G5",
          "ticks": 37968,
          "time": 167.11259250000003,
          "velocity": 0.8661417322834646
        },
        {
          "duration": 0.21126749999999106,
          "durationTicks": 48,
          "midi": 78,
          "name": "F#5",
          "ticks": 38016,
          "time": 167.32386000000002,
          "velocity": 0.8661417322834646
        },
        {
          "duration": 0.21126749999999106,
          "durationTicks": 48,
          "midi": 74,
          "name": "D5",
          "ticks": 38064,
          "time": 167.53512750000002,
          "velocity": 0.8661417322834646
        },
        {
          "duration": 0.21126750000001948,
          "durationTicks": 48,
          "midi": 78,
          "name": "F#5",
          "ticks": 38112,
          "time": 167.746395,
          "velocity": 0.8661417322834646
        },
        {
          "duration": 0.21126749999999106,
          "durationTicks": 48,
          "midi": 79,
          "name": "G5",
          "ticks": 38160,
          "time": 167.95766250000003,
          "velocity": 0.8661417322834646
        },
        {
          "duration": 0.21126749999999106,
          "durationTicks": 48,
          "midi": 81,
          "name": "A5",
          "ticks": 38208,
          "time": 168.16893000000002,
          "velocity": 0.8661417322834646
        },
        {
          "duration": 0.21126750000001948,
          "durationTicks": 48,
          "midi": 79,
          "name": "G5",
          "ticks": 38256,
          "time": 168.3801975,
          "velocity": 0.8661417322834646
        },
        {
          "duration": 0.21126749999999106,
          "durationTicks": 48,
          "midi": 74,
          "name": "D5",
          "ticks": 38304,
          "time": 168.59146500000003,
          "velocity": 0.8661417322834646
        },
        {
          "duration": 0.21126750000001948,
          "durationTicks": 48,
          "midi": 74,
          "name": "D5",
          "ticks": 38400,
          "time": 169.014,
          "velocity": 0.8661417322834646
        },
        {
          "duration": 0.21126749999999106,
          "durationTicks": 48,
          "midi": 78,
          "name": "F#5",
          "ticks": 38448,
          "time": 169.22526750000003,
          "velocity": 0.8661417322834646
        },
        {
          "duration": 0.21126749999999106,
          "durationTicks": 48,
          "midi": 78,
          "name": "F#5",
          "ticks": 38496,
          "time": 169.43653500000002,
          "velocity": 0.8661417322834646
        },
        {
          "duration": 0.21126750000001948,
          "durationTicks": 48,
          "midi": 78,
          "name": "F#5",
          "ticks": 38544,
          "time": 169.6478025,
          "velocity": 0.8661417322834646
        },
        {
          "duration": 0.21126749999999106,
          "durationTicks": 48,
          "midi": 74,
          "name": "D5",
          "ticks": 38592,
          "time": 169.85907000000003,
          "velocity": 0.8661417322834646
        },
        {
          "duration": 0.21126749999999106,
          "durationTicks": 48,
          "midi": 78,
          "name": "F#5",
          "ticks": 38640,
          "time": 170.07033750000002,
          "velocity": 0.8661417322834646
        },
        {
          "duration": 0.21126750000001948,
          "durationTicks": 48,
          "midi": 74,
          "name": "D5",
          "ticks": 38688,
          "time": 170.281605,
          "velocity": 0.8661417322834646
        },
        {
          "duration": 0.21126749999999106,
          "durationTicks": 48,
          "midi": 79,
          "name": "G5",
          "ticks": 38736,
          "time": 170.49287250000003,
          "velocity": 0.8661417322834646
        },
        {
          "duration": 0.21126749999999106,
          "durationTicks": 48,
          "midi": 76,
          "name": "E5",
          "ticks": 38784,
          "time": 170.70414000000002,
          "velocity": 0.8661417322834646
        },
        {
          "duration": 0.21126749999999106,
          "durationTicks": 48,
          "midi": 78,
          "name": "F#5",
          "ticks": 38832,
          "time": 170.91540750000001,
          "velocity": 0.8661417322834646
        },
        {
          "duration": 0.21126750000001948,
          "durationTicks": 48,
          "midi": 74,
          "name": "D5",
          "ticks": 38880,
          "time": 171.126675,
          "velocity": 0.8661417322834646
        },
        {
          "duration": 0.21126749999999106,
          "durationTicks": 48,
          "midi": 74,
          "name": "D5",
          "ticks": 38928,
          "time": 171.33794250000003,
          "velocity": 0.8661417322834646
        },
        {
          "duration": 0.21126749999999106,
          "durationTicks": 48,
          "midi": 76,
          "name": "E5",
          "ticks": 38976,
          "time": 171.54921000000002,
          "velocity": 0.8661417322834646
        },
        {
          "duration": 0.21126750000001948,
          "durationTicks": 48,
          "midi": 78,
          "name": "F#5",
          "ticks": 39024,
          "time": 171.7604775,
          "velocity": 0.8661417322834646
        },
        {
          "duration": 0.21126749999999106,
          "durationTicks": 48,
          "midi": 76,
          "name": "E5",
          "ticks": 39072,
          "time": 171.97174500000003,
          "velocity": 0.8661417322834646
        },
        {
          "duration": 0.21126749999999106,
          "durationTicks": 48,
          "midi": 74,
          "name": "D5",
          "ticks": 39120,
          "time": 172.18301250000002,
          "velocity": 0.8661417322834646
        },
        {
          "duration": 0.21126750000001948,
          "durationTicks": 48,
          "midi": 78,
          "name": "F#5",
          "ticks": 39168,
          "time": 172.39428,
          "velocity": 0.8661417322834646
        },
        {
          "duration": 0.21126749999999106,
          "durationTicks": 48,
          "midi": 74,
          "name": "D5",
          "ticks": 39216,
          "time": 172.60554750000003,
          "velocity": 0.8661417322834646
        },
        {
          "duration": 0.21126749999999106,
          "durationTicks": 48,
          "midi": 79,
          "name": "G5",
          "ticks": 39264,
          "time": 172.81681500000002,
          "velocity": 0.8661417322834646
        },
        {
          "duration": 0.21126750000001948,
          "durationTicks": 48,
          "midi": 74,
          "name": "D5",
          "ticks": 39312,
          "time": 173.0280825,
          "velocity": 0.8661417322834646
        },
        {
          "duration": 0.21126749999999106,
          "durationTicks": 48,
          "midi": 78,
          "name": "F#5",
          "ticks": 39360,
          "time": 173.23935000000003,
          "velocity": 0.8661417322834646
        },
        {
          "duration": 0.21126749999999106,
          "durationTicks": 48,
          "midi": 74,
          "name": "D5",
          "ticks": 39408,
          "time": 173.45061750000002,
          "velocity": 0.8661417322834646
        },
        {
          "duration": 0.21126750000001948,
          "durationTicks": 48,
          "midi": 74,
          "name": "D5",
          "ticks": 39456,
          "time": 173.661885,
          "velocity": 0.8661417322834646
        },
        {
          "duration": 0.21126749999999106,
          "durationTicks": 48,
          "midi": 79,
          "name": "G5",
          "ticks": 39504,
          "time": 173.87315250000003,
          "velocity": 0.8661417322834646
        },
        {
          "duration": 0.21126749999999106,
          "durationTicks": 48,
          "midi": 78,
          "name": "F#5",
          "ticks": 39552,
          "time": 174.08442000000002,
          "velocity": 0.8661417322834646
        },
        {
          "duration": 0.21126750000001948,
          "durationTicks": 48,
          "midi": 74,
          "name": "D5",
          "ticks": 39600,
          "time": 174.2956875,
          "velocity": 0.8661417322834646
        },
        {
          "duration": 0.21126749999999106,
          "durationTicks": 48,
          "midi": 78,
          "name": "F#5",
          "ticks": 39648,
          "time": 174.50695500000003,
          "velocity": 0.8661417322834646
        },
        {
          "duration": 0.21126749999999106,
          "durationTicks": 48,
          "midi": 79,
          "name": "G5",
          "ticks": 39696,
          "time": 174.71822250000002,
          "velocity": 0.8661417322834646
        },
        {
          "duration": 0.21126749999999106,
          "durationTicks": 48,
          "midi": 81,
          "name": "A5",
          "ticks": 39744,
          "time": 174.92949000000002,
          "velocity": 0.8661417322834646
        },
        {
          "duration": 0.21126750000001948,
          "durationTicks": 48,
          "midi": 79,
          "name": "G5",
          "ticks": 39792,
          "time": 175.1407575,
          "velocity": 0.8661417322834646
        },
        {
          "duration": 0.21126749999999106,
          "durationTicks": 48,
          "midi": 74,
          "name": "D5",
          "ticks": 39840,
          "time": 175.35202500000003,
          "velocity": 0.8661417322834646
        },
        {
          "duration": 0.21126750000001948,
          "durationTicks": 48,
          "midi": 74,
          "name": "D5",
          "ticks": 39936,
          "time": 175.77456,
          "velocity": 0.8661417322834646
        },
        {
          "duration": 0.21126749999999106,
          "durationTicks": 48,
          "midi": 78,
          "name": "F#5",
          "ticks": 39984,
          "time": 175.98582750000003,
          "velocity": 0.8661417322834646
        },
        {
          "duration": 0.21126749999999106,
          "durationTicks": 48,
          "midi": 78,
          "name": "F#5",
          "ticks": 40032,
          "time": 176.19709500000002,
          "velocity": 0.8661417322834646
        },
        {
          "duration": 0.21126750000001948,
          "durationTicks": 48,
          "midi": 78,
          "name": "F#5",
          "ticks": 40080,
          "time": 176.4083625,
          "velocity": 0.8661417322834646
        },
        {
          "duration": 0.21126749999999106,
          "durationTicks": 48,
          "midi": 74,
          "name": "D5",
          "ticks": 40128,
          "time": 176.61963000000003,
          "velocity": 0.8661417322834646
        },
        {
          "duration": 0.21126749999999106,
          "durationTicks": 48,
          "midi": 78,
          "name": "F#5",
          "ticks": 40176,
          "time": 176.83089750000002,
          "velocity": 0.8661417322834646
        },
        {
          "duration": 0.21126750000001948,
          "durationTicks": 48,
          "midi": 74,
          "name": "D5",
          "ticks": 40224,
          "time": 177.042165,
          "velocity": 0.8661417322834646
        },
        {
          "duration": 0.21126749999999106,
          "durationTicks": 48,
          "midi": 79,
          "name": "G5",
          "ticks": 40272,
          "time": 177.25343250000003,
          "velocity": 0.8661417322834646
        },
        {
          "duration": 0.21126749999999106,
          "durationTicks": 48,
          "midi": 76,
          "name": "E5",
          "ticks": 40320,
          "time": 177.46470000000002,
          "velocity": 0.8661417322834646
        },
        {
          "duration": 0.21126750000001948,
          "durationTicks": 48,
          "midi": 78,
          "name": "F#5",
          "ticks": 40368,
          "time": 177.6759675,
          "velocity": 0.8661417322834646
        },
        {
          "duration": 0.21126749999999106,
          "durationTicks": 48,
          "midi": 74,
          "name": "D5",
          "ticks": 40416,
          "time": 177.88723500000003,
          "velocity": 0.8661417322834646
        },
        {
          "duration": 0.21126749999999106,
          "durationTicks": 48,
          "midi": 74,
          "name": "D5",
          "ticks": 40464,
          "time": 178.09850250000002,
          "velocity": 0.8661417322834646
        },
        {
          "duration": 0.21126750000001948,
          "durationTicks": 48,
          "midi": 76,
          "name": "E5",
          "ticks": 40512,
          "time": 178.30977000000001,
          "velocity": 0.8661417322834646
        },
        {
          "duration": 0.21126749999999106,
          "durationTicks": 48,
          "midi": 78,
          "name": "F#5",
          "ticks": 40560,
          "time": 178.52103750000003,
          "velocity": 0.8661417322834646
        },
        {
          "duration": 0.21126749999999106,
          "durationTicks": 48,
          "midi": 76,
          "name": "E5",
          "ticks": 40608,
          "time": 178.73230500000003,
          "velocity": 0.8661417322834646
        },
        {
          "duration": 0.21126749999999106,
          "durationTicks": 48,
          "midi": 74,
          "name": "D5",
          "ticks": 40656,
          "time": 178.94357250000002,
          "velocity": 0.8661417322834646
        },
        {
          "duration": 0.21126750000001948,
          "durationTicks": 48,
          "midi": 78,
          "name": "F#5",
          "ticks": 40704,
          "time": 179.15484,
          "velocity": 0.8661417322834646
        },
        {
          "duration": 0.21126749999999106,
          "durationTicks": 48,
          "midi": 74,
          "name": "D5",
          "ticks": 40752,
          "time": 179.36610750000003,
          "velocity": 0.8661417322834646
        },
        {
          "duration": 0.21126749999999106,
          "durationTicks": 48,
          "midi": 79,
          "name": "G5",
          "ticks": 40800,
          "time": 179.57737500000002,
          "velocity": 0.8661417322834646
        },
        {
          "duration": 0.21126750000001948,
          "durationTicks": 48,
          "midi": 74,
          "name": "D5",
          "ticks": 40848,
          "time": 179.7886425,
          "velocity": 0.8661417322834646
        },
        {
          "duration": 0.21126749999999106,
          "durationTicks": 48,
          "midi": 78,
          "name": "F#5",
          "ticks": 40896,
          "time": 179.99991000000003,
          "velocity": 0.8661417322834646
        },
        {
          "duration": 0.21126749999999106,
          "durationTicks": 48,
          "midi": 74,
          "name": "D5",
          "ticks": 40944,
          "time": 180.21117750000002,
          "velocity": 0.8661417322834646
        },
        {
          "duration": 0.21126750000001948,
          "durationTicks": 48,
          "midi": 74,
          "name": "D5",
          "ticks": 40992,
          "time": 180.422445,
          "velocity": 0.8661417322834646
        },
        {
          "duration": 0.21126749999999106,
          "durationTicks": 48,
          "midi": 79,
          "name": "G5",
          "ticks": 41040,
          "time": 180.63371250000003,
          "velocity": 0.8661417322834646
        },
        {
          "duration": 0.21126749999999106,
          "durationTicks": 48,
          "midi": 78,
          "name": "F#5",
          "ticks": 41088,
          "time": 180.84498000000002,
          "velocity": 0.8661417322834646
        },
        {
          "duration": 0.21126750000001948,
          "durationTicks": 48,
          "midi": 74,
          "name": "D5",
          "ticks": 41136,
          "time": 181.0562475,
          "velocity": 0.8661417322834646
        },
        {
          "duration": 0.21126749999999106,
          "durationTicks": 48,
          "midi": 78,
          "name": "F#5",
          "ticks": 41184,
          "time": 181.26751500000003,
          "velocity": 0.8661417322834646
        },
        {
          "duration": 0.21126749999999106,
          "durationTicks": 48,
          "midi": 79,
          "name": "G5",
          "ticks": 41232,
          "time": 181.47878250000002,
          "velocity": 0.8661417322834646
        },
        {
          "duration": 0.21126750000001948,
          "durationTicks": 48,
          "midi": 81,
          "name": "A5",
          "ticks": 41280,
          "time": 181.69005,
          "velocity": 0.8661417322834646
        },
        {
          "duration": 0.21126749999999106,
          "durationTicks": 48,
          "midi": 79,
          "name": "G5",
          "ticks": 41328,
          "time": 181.90131750000003,
          "velocity": 0.8661417322834646
        },
        {
          "duration": 0.21126749999999106,
          "durationTicks": 48,
          "midi": 74,
          "name": "D5",
          "ticks": 41376,
          "time": 182.11258500000002,
          "velocity": 0.8661417322834646
        },
        {
          "duration": 0.21126749999999106,
          "durationTicks": 48,
          "midi": 74,
          "name": "D5",
          "ticks": 41472,
          "time": 182.53512000000003,
          "velocity": 0.8661417322834646
        },
        {
          "duration": 0.21126749999999106,
          "durationTicks": 48,
          "midi": 78,
          "name": "F#5",
          "ticks": 41520,
          "time": 182.74638750000003,
          "velocity": 0.8661417322834646
        },
        {
          "duration": 0.21126749999999106,
          "durationTicks": 48,
          "midi": 78,
          "name": "F#5",
          "ticks": 41568,
          "time": 182.95765500000002,
          "velocity": 0.8661417322834646
        },
        {
          "duration": 0.21126750000001948,
          "durationTicks": 48,
          "midi": 78,
          "name": "F#5",
          "ticks": 41616,
          "time": 183.1689225,
          "velocity": 0.8661417322834646
        },
        {
          "duration": 0.21126749999999106,
          "durationTicks": 48,
          "midi": 74,
          "name": "D5",
          "ticks": 41664,
          "time": 183.38019000000003,
          "velocity": 0.8661417322834646
        },
        {
          "duration": 0.21126749999999106,
          "durationTicks": 48,
          "midi": 78,
          "name": "F#5",
          "ticks": 41712,
          "time": 183.59145750000002,
          "velocity": 0.8661417322834646
        },
        {
          "duration": 0.21126750000001948,
          "durationTicks": 48,
          "midi": 74,
          "name": "D5",
          "ticks": 41760,
          "time": 183.802725,
          "velocity": 0.8661417322834646
        },
        {
          "duration": 0.21126749999999106,
          "durationTicks": 48,
          "midi": 79,
          "name": "G5",
          "ticks": 41808,
          "time": 184.01399250000003,
          "velocity": 0.8661417322834646
        },
        {
          "duration": 0.21126749999999106,
          "durationTicks": 48,
          "midi": 76,
          "name": "E5",
          "ticks": 41856,
          "time": 184.22526000000002,
          "velocity": 0.8661417322834646
        },
        {
          "duration": 0.21126750000001948,
          "durationTicks": 48,
          "midi": 78,
          "name": "F#5",
          "ticks": 41904,
          "time": 184.4365275,
          "velocity": 0.8661417322834646
        },
        {
          "duration": 0.21126749999999106,
          "durationTicks": 48,
          "midi": 74,
          "name": "D5",
          "ticks": 41952,
          "time": 184.64779500000003,
          "velocity": 0.8661417322834646
        },
        {
          "duration": 0.21126749999999106,
          "durationTicks": 48,
          "midi": 74,
          "name": "D5",
          "ticks": 42000,
          "time": 184.85906250000002,
          "velocity": 0.8661417322834646
        },
        {
          "duration": 0.21126750000001948,
          "durationTicks": 48,
          "midi": 76,
          "name": "E5",
          "ticks": 42048,
          "time": 185.07033,
          "velocity": 0.8661417322834646
        },
        {
          "duration": 0.21126749999999106,
          "durationTicks": 48,
          "midi": 78,
          "name": "F#5",
          "ticks": 42096,
          "time": 185.28159750000003,
          "velocity": 0.8661417322834646
        },
        {
          "duration": 0.21126749999999106,
          "durationTicks": 48,
          "midi": 76,
          "name": "E5",
          "ticks": 42144,
          "time": 185.49286500000002,
          "velocity": 0.8661417322834646
        },
        {
          "duration": 0.21126750000001948,
          "durationTicks": 48,
          "midi": 74,
          "name": "D5",
          "ticks": 42192,
          "time": 185.70413250000001,
          "velocity": 0.8661417322834646
        },
        {
          "duration": 0.21126749999999106,
          "durationTicks": 48,
          "midi": 78,
          "name": "F#5",
          "ticks": 42240,
          "time": 185.91540000000003,
          "velocity": 0.8661417322834646
        },
        {
          "duration": 0.21126749999999106,
          "durationTicks": 48,
          "midi": 74,
          "name": "D5",
          "ticks": 42288,
          "time": 186.12666750000002,
          "velocity": 0.8661417322834646
        },
        {
          "duration": 0.21126750000001948,
          "durationTicks": 48,
          "midi": 79,
          "name": "G5",
          "ticks": 42336,
          "time": 186.33793500000002,
          "velocity": 0.8661417322834646
        },
        {
          "duration": 0.21126749999999106,
          "durationTicks": 48,
          "midi": 74,
          "name": "D5",
          "ticks": 42384,
          "time": 186.54920250000004,
          "velocity": 0.8661417322834646
        },
        {
          "duration": 0.21126749999999106,
          "durationTicks": 48,
          "midi": 78,
          "name": "F#5",
          "ticks": 42432,
          "time": 186.76047000000003,
          "velocity": 0.8661417322834646
        },
        {
          "duration": 0.21126749999999106,
          "durationTicks": 48,
          "midi": 74,
          "name": "D5",
          "ticks": 42480,
          "time": 186.97173750000002,
          "velocity": 0.8661417322834646
        },
        {
          "duration": 0.21126750000001948,
          "durationTicks": 48,
          "midi": 74,
          "name": "D5",
          "ticks": 42528,
          "time": 187.183005,
          "velocity": 0.8661417322834646
        },
        {
          "duration": 0.21126749999999106,
          "durationTicks": 48,
          "midi": 79,
          "name": "G5",
          "ticks": 42576,
          "time": 187.39427250000003,
          "velocity": 0.8661417322834646
        },
        {
          "duration": 0.21126749999999106,
          "durationTicks": 48,
          "midi": 78,
          "name": "F#5",
          "ticks": 42624,
          "time": 187.60554000000002,
          "velocity": 0.8661417322834646
        },
        {
          "duration": 0.21126750000001948,
          "durationTicks": 48,
          "midi": 74,
          "name": "D5",
          "ticks": 42672,
          "time": 187.8168075,
          "velocity": 0.8661417322834646
        },
        {
          "duration": 0.21126749999999106,
          "durationTicks": 48,
          "midi": 78,
          "name": "F#5",
          "ticks": 42720,
          "time": 188.02807500000003,
          "velocity": 0.8661417322834646
        },
        {
          "duration": 0.21126749999999106,
          "durationTicks": 48,
          "midi": 79,
          "name": "G5",
          "ticks": 42768,
          "time": 188.23934250000002,
          "velocity": 0.8661417322834646
        },
        {
          "duration": 0.21126750000001948,
          "durationTicks": 48,
          "midi": 81,
          "name": "A5",
          "ticks": 42816,
          "time": 188.45061,
          "velocity": 0.8661417322834646
        },
        {
          "duration": 0.21126749999999106,
          "durationTicks": 48,
          "midi": 79,
          "name": "G5",
          "ticks": 42864,
          "time": 188.66187750000003,
          "velocity": 0.8661417322834646
        },
        {
          "duration": 0.21126749999999106,
          "durationTicks": 48,
          "midi": 74,
          "name": "D5",
          "ticks": 42912,
          "time": 188.87314500000002,
          "velocity": 0.8661417322834646
        },
        {
          "duration": 0.21126750000001948,
          "durationTicks": 48,
          "midi": 74,
          "name": "D5",
          "ticks": 52224,
          "time": 229.85904000000002,
          "velocity": 0.8661417322834646
        },
        {
          "duration": 0.21126749999999106,
          "durationTicks": 48,
          "midi": 78,
          "name": "F#5",
          "ticks": 52272,
          "time": 230.07030750000004,
          "velocity": 0.8661417322834646
        },
        {
          "duration": 0.21126749999999106,
          "durationTicks": 48,
          "midi": 78,
          "name": "F#5",
          "ticks": 52320,
          "time": 230.28157500000003,
          "velocity": 0.8661417322834646
        },
        {
          "duration": 0.21126749999999106,
          "durationTicks": 48,
          "midi": 78,
          "name": "F#5",
          "ticks": 52368,
          "time": 230.49284250000002,
          "velocity": 0.8661417322834646
        },
        {
          "duration": 0.21126750000001948,
          "durationTicks": 48,
          "midi": 74,
          "name": "D5",
          "ticks": 52416,
          "time": 230.70411000000001,
          "velocity": 0.8661417322834646
        },
        {
          "duration": 0.21126749999999106,
          "durationTicks": 48,
          "midi": 78,
          "name": "F#5",
          "ticks": 52464,
          "time": 230.91537750000003,
          "velocity": 0.8661417322834646
        },
        {
          "duration": 0.21126749999999106,
          "durationTicks": 48,
          "midi": 78,
          "name": "F#5",
          "ticks": 52512,
          "time": 231.12664500000002,
          "velocity": 0.8661417322834646
        },
        {
          "duration": 0.21126750000001948,
          "durationTicks": 48,
          "midi": 79,
          "name": "G5",
          "ticks": 52560,
          "time": 231.33791250000002,
          "velocity": 0.8661417322834646
        },
        {
          "duration": 0.21126749999999106,
          "durationTicks": 48,
          "midi": 76,
          "name": "E5",
          "ticks": 52608,
          "time": 231.54918000000004,
          "velocity": 0.8661417322834646
        },
        {
          "duration": 0.21126749999999106,
          "durationTicks": 48,
          "midi": 78,
          "name": "F#5",
          "ticks": 52656,
          "time": 231.76044750000003,
          "velocity": 0.8661417322834646
        },
        {
          "duration": 0.21126750000001948,
          "durationTicks": 48,
          "midi": 74,
          "name": "D5",
          "ticks": 52704,
          "time": 231.97171500000002,
          "velocity": 0.8661417322834646
        },
        {
          "duration": 0.21126749999999106,
          "durationTicks": 48,
          "midi": 74,
          "name": "D5",
          "ticks": 52752,
          "time": 232.18298250000004,
          "velocity": 0.8661417322834646
        },
        {
          "duration": 0.21126749999999106,
          "durationTicks": 48,
          "midi": 76,
          "name": "E5",
          "ticks": 52800,
          "time": 232.39425000000003,
          "velocity": 0.8661417322834646
        },
        {
          "duration": 0.21126750000001948,
          "durationTicks": 48,
          "midi": 78,
          "name": "F#5",
          "ticks": 52848,
          "time": 232.60551750000002,
          "velocity": 0.8661417322834646
        },
        {
          "duration": 0.21126749999999106,
          "durationTicks": 48,
          "midi": 76,
          "name": "E5",
          "ticks": 52896,
          "time": 232.81678500000004,
          "velocity": 0.8661417322834646
        },
        {
          "duration": 0.21126749999999106,
          "durationTicks": 48,
          "midi": 74,
          "name": "D5",
          "ticks": 52944,
          "time": 233.02805250000003,
          "velocity": 0.8661417322834646
        },
        {
          "duration": 0.21126750000001948,
          "durationTicks": 48,
          "midi": 78,
          "name": "F#5",
          "ticks": 52992,
          "time": 233.23932000000002,
          "velocity": 0.8661417322834646
        },
        {
          "duration": 0.21126749999999106,
          "durationTicks": 48,
          "midi": 74,
          "name": "D5",
          "ticks": 53040,
          "time": 233.45058750000004,
          "velocity": 0.8661417322834646
        },
        {
          "duration": 0.21126749999999106,
          "durationTicks": 48,
          "midi": 79,
          "name": "G5",
          "ticks": 53088,
          "time": 233.66185500000003,
          "velocity": 0.8661417322834646
        },
        {
          "duration": 0.21126749999999106,
          "durationTicks": 48,
          "midi": 74,
          "name": "D5",
          "ticks": 53136,
          "time": 233.87312250000002,
          "velocity": 0.8661417322834646
        },
        {
          "duration": 0.21126750000001948,
          "durationTicks": 48,
          "midi": 78,
          "name": "F#5",
          "ticks": 53184,
          "time": 234.08439,
          "velocity": 0.8661417322834646
        },
        {
          "duration": 0.21126749999999106,
          "durationTicks": 48,
          "midi": 74,
          "name": "D5",
          "ticks": 53232,
          "time": 234.29565750000003,
          "velocity": 0.8661417322834646
        },
        {
          "duration": 0.21126749999999106,
          "durationTicks": 48,
          "midi": 74,
          "name": "D5",
          "ticks": 53280,
          "time": 234.50692500000002,
          "velocity": 0.8661417322834646
        },
        {
          "duration": 0.21126750000001948,
          "durationTicks": 48,
          "midi": 79,
          "name": "G5",
          "ticks": 53328,
          "time": 234.71819250000001,
          "velocity": 0.8661417322834646
        },
        {
          "duration": 0.21126749999999106,
          "durationTicks": 48,
          "midi": 78,
          "name": "F#5",
          "ticks": 53376,
          "time": 234.92946000000003,
          "velocity": 0.8661417322834646
        },
        {
          "duration": 0.21126749999999106,
          "durationTicks": 48,
          "midi": 74,
          "name": "D5",
          "ticks": 53424,
          "time": 235.14072750000003,
          "velocity": 0.8661417322834646
        },
        {
          "duration": 0.21126750000001948,
          "durationTicks": 48,
          "midi": 78,
          "name": "F#5",
          "ticks": 53472,
          "time": 235.35199500000002,
          "velocity": 0.8661417322834646
        },
        {
          "duration": 0.21126749999999106,
          "durationTicks": 48,
          "midi": 79,
          "name": "G5",
          "ticks": 53520,
          "time": 235.56326250000004,
          "velocity": 0.8661417322834646
        },
        {
          "duration": 0.21126749999999106,
          "durationTicks": 48,
          "midi": 81,
          "name": "A5",
          "ticks": 53568,
          "time": 235.77453000000003,
          "velocity": 0.8661417322834646
        },
        {
          "duration": 0.21126750000001948,
          "durationTicks": 48,
          "midi": 79,
          "name": "G5",
          "ticks": 53616,
          "time": 235.98579750000002,
          "velocity": 0.8661417322834646
        },
        {
          "duration": 0.21126749999999106,
          "durationTicks": 48,
          "midi": 74,
          "name": "D5",
          "ticks": 53664,
          "time": 236.19706500000004,
          "velocity": 0.8661417322834646
        },
        {
          "duration": 0.21126749999999106,
          "durationTicks": 48,
          "midi": 73,
          "name": "C#5",
          "ticks": 53712,
          "time": 236.40833250000003,
          "velocity": 0.984251968503937
        },
        {
          "duration": 0.21126749999999106,
          "durationTicks": 48,
          "midi": 73,
          "name": "C#5",
          "ticks": 53712,
          "time": 236.40833250000003,
          "velocity": 0.8661417322834646
        },
        {
          "duration": 0.21126750000001948,
          "durationTicks": 48,
          "midi": 74,
          "name": "D5",
          "ticks": 53760,
          "time": 236.61960000000002,
          "velocity": 0.8661417322834646
        },
        {
          "duration": 0.21126749999999106,
          "durationTicks": 48,
          "midi": 78,
          "name": "F#5",
          "ticks": 53808,
          "time": 236.83086750000004,
          "velocity": 0.8661417322834646
        },
        {
          "duration": 0.21126749999999106,
          "durationTicks": 48,
          "midi": 78,
          "name": "F#5",
          "ticks": 53856,
          "time": 237.04213500000003,
          "velocity": 0.8661417322834646
        },
        {
          "duration": 0.21126750000001948,
          "durationTicks": 48,
          "midi": 78,
          "name": "F#5",
          "ticks": 53904,
          "time": 237.25340250000002,
          "velocity": 0.8661417322834646
        },
        {
          "duration": 0.21126749999999106,
          "durationTicks": 48,
          "midi": 74,
          "name": "D5",
          "ticks": 53952,
          "time": 237.46467000000004,
          "velocity": 0.8661417322834646
        },
        {
          "duration": 0.21126749999999106,
          "durationTicks": 48,
          "midi": 78,
          "name": "F#5",
          "ticks": 54000,
          "time": 237.67593750000003,
          "velocity": 0.8661417322834646
        },
        {
          "duration": 0.21126749999999106,
          "durationTicks": 48,
          "midi": 78,
          "name": "F#5",
          "ticks": 54048,
          "time": 237.88720500000002,
          "velocity": 0.8661417322834646
        },
        {
          "duration": 0.21126750000001948,
          "durationTicks": 48,
          "midi": 79,
          "name": "G5",
          "ticks": 54096,
          "time": 238.0984725,
          "velocity": 0.8661417322834646
        },
        {
          "duration": 0.21126749999999106,
          "durationTicks": 48,
          "midi": 76,
          "name": "E5",
          "ticks": 54144,
          "time": 238.30974000000003,
          "velocity": 0.8661417322834646
        },
        {
          "duration": 0.21126749999999106,
          "durationTicks": 48,
          "midi": 78,
          "name": "F#5",
          "ticks": 54192,
          "time": 238.52100750000002,
          "velocity": 0.8661417322834646
        },
        {
          "duration": 0.21126750000001948,
          "durationTicks": 48,
          "midi": 74,
          "name": "D5",
          "ticks": 54240,
          "time": 238.73227500000002,
          "velocity": 0.8661417322834646
        },
        {
          "duration": 0.21126749999999106,
          "durationTicks": 48,
          "midi": 74,
          "name": "D5",
          "ticks": 54288,
          "time": 238.94354250000004,
          "velocity": 0.8661417322834646
        },
        {
          "duration": 0.21126749999999106,
          "durationTicks": 48,
          "midi": 76,
          "name": "E5",
          "ticks": 54336,
          "time": 239.15481000000003,
          "velocity": 0.8661417322834646
        },
        {
          "duration": 0.21126750000001948,
          "durationTicks": 48,
          "midi": 78,
          "name": "F#5",
          "ticks": 54384,
          "time": 239.36607750000002,
          "velocity": 0.8661417322834646
        },
        {
          "duration": 0.21126749999999106,
          "durationTicks": 48,
          "midi": 76,
          "name": "E5",
          "ticks": 54432,
          "time": 239.57734500000004,
          "velocity": 0.8661417322834646
        },
        {
          "duration": 0.21126749999999106,
          "durationTicks": 48,
          "midi": 74,
          "name": "D5",
          "ticks": 54480,
          "time": 239.78861250000003,
          "velocity": 0.8661417322834646
        },
        {
          "duration": 0.21126750000001948,
          "durationTicks": 48,
          "midi": 78,
          "name": "F#5",
          "ticks": 54528,
          "time": 239.99988000000002,
          "velocity": 0.8661417322834646
        },
        {
          "duration": 0.21126749999999106,
          "durationTicks": 48,
          "midi": 74,
          "name": "D5",
          "ticks": 54576,
          "time": 240.21114750000004,
          "velocity": 0.8661417322834646
        },
        {
          "duration": 0.21126749999999106,
          "durationTicks": 48,
          "midi": 79,
          "name": "G5",
          "ticks": 54624,
          "time": 240.42241500000003,
          "velocity": 0.8661417322834646
        },
        {
          "duration": 0.21126750000001948,
          "durationTicks": 48,
          "midi": 74,
          "name": "D5",
          "ticks": 54672,
          "time": 240.63368250000002,
          "velocity": 0.8661417322834646
        },
        {
          "duration": 0.21126749999999106,
          "durationTicks": 48,
          "midi": 78,
          "name": "F#5",
          "ticks": 54720,
          "time": 240.84495000000004,
          "velocity": 0.8661417322834646
        },
        {
          "duration": 0.21126749999999106,
          "durationTicks": 48,
          "midi": 74,
          "name": "D5",
          "ticks": 54768,
          "time": 241.05621750000003,
          "velocity": 0.8661417322834646
        },
        {
          "duration": 0.21126750000001948,
          "durationTicks": 48,
          "midi": 74,
          "name": "D5",
          "ticks": 54816,
          "time": 241.26748500000002,
          "velocity": 0.8661417322834646
        },
        {
          "duration": 0.21126749999999106,
          "durationTicks": 48,
          "midi": 79,
          "name": "G5",
          "ticks": 54864,
          "time": 241.47875250000004,
          "velocity": 0.8661417322834646
        },
        {
          "duration": 0.21126749999999106,
          "durationTicks": 48,
          "midi": 78,
          "name": "F#5",
          "ticks": 54912,
          "time": 241.69002000000003,
          "velocity": 0.8661417322834646
        },
        {
          "duration": 0.21126749999999106,
          "durationTicks": 48,
          "midi": 74,
          "name": "D5",
          "ticks": 54960,
          "time": 241.90128750000002,
          "velocity": 0.8661417322834646
        },
        {
          "duration": 0.21126750000001948,
          "durationTicks": 48,
          "midi": 78,
          "name": "F#5",
          "ticks": 55008,
          "time": 242.11255500000001,
          "velocity": 0.8661417322834646
        },
        {
          "duration": 0.21126749999999106,
          "durationTicks": 48,
          "midi": 79,
          "name": "G5",
          "ticks": 55056,
          "time": 242.32382250000003,
          "velocity": 0.8661417322834646
        },
        {
          "duration": 0.21126749999999106,
          "durationTicks": 48,
          "midi": 81,
          "name": "A5",
          "ticks": 55104,
          "time": 242.53509000000003,
          "velocity": 0.8661417322834646
        },
        {
          "duration": 0.21126750000001948,
          "durationTicks": 48,
          "midi": 79,
          "name": "G5",
          "ticks": 55152,
          "time": 242.74635750000002,
          "velocity": 0.8661417322834646
        },
        {
          "duration": 0.21126749999999106,
          "durationTicks": 48,
          "midi": 74,
          "name": "D5",
          "ticks": 55200,
          "time": 242.95762500000004,
          "velocity": 0.8661417322834646
        },
        {
          "duration": 0.21126749999999106,
          "durationTicks": 48,
          "midi": 73,
          "name": "C#5",
          "ticks": 55248,
          "time": 243.16889250000003,
          "velocity": 0.984251968503937
        },
        {
          "duration": 0.21126749999999106,
          "durationTicks": 48,
          "midi": 73,
          "name": "C#5",
          "ticks": 55248,
          "time": 243.16889250000003,
          "velocity": 0.8661417322834646
        },
        {
          "duration": 0.21126750000001948,
          "durationTicks": 48,
          "midi": 74,
          "name": "D5",
          "ticks": 55296,
          "time": 243.38016000000002,
          "velocity": 0.8661417322834646
        },
        {
          "duration": 0.21126749999999106,
          "durationTicks": 48,
          "midi": 78,
          "name": "F#5",
          "ticks": 55344,
          "time": 243.59142750000004,
          "velocity": 0.8661417322834646
        },
        {
          "duration": 0.21126749999999106,
          "durationTicks": 48,
          "midi": 74,
          "name": "D5",
          "ticks": 55392,
          "time": 243.80269500000003,
          "velocity": 0.8661417322834646
        },
        {
          "duration": 0.21126750000001948,
          "durationTicks": 48,
          "midi": 78,
          "name": "F#5",
          "ticks": 55440,
          "time": 244.01396250000002,
          "velocity": 0.8661417322834646
        },
        {
          "duration": 0.21126749999999106,
          "durationTicks": 48,
          "midi": 74,
          "name": "D5",
          "ticks": 55488,
          "time": 244.22523000000004,
          "velocity": 0.8661417322834646
        },
        {
          "duration": 0.21126749999999106,
          "durationTicks": 48,
          "midi": 78,
          "name": "F#5",
          "ticks": 55536,
          "time": 244.43649750000003,
          "velocity": 0.8661417322834646
        },
        {
          "duration": 0.21126750000001948,
          "durationTicks": 48,
          "midi": 78,
          "name": "F#5",
          "ticks": 55584,
          "time": 244.64776500000002,
          "velocity": 0.8661417322834646
        },
        {
          "duration": 0.21126749999999106,
          "durationTicks": 48,
          "midi": 79,
          "name": "G5",
          "ticks": 55632,
          "time": 244.85903250000004,
          "velocity": 0.8661417322834646
        },
        {
          "duration": 0.21126749999999106,
          "durationTicks": 48,
          "midi": 76,
          "name": "E5",
          "ticks": 55680,
          "time": 245.07030000000003,
          "velocity": 0.8661417322834646
        },
        {
          "duration": 0.21126750000001948,
          "durationTicks": 48,
          "midi": 78,
          "name": "F#5",
          "ticks": 55728,
          "time": 245.28156750000002,
          "velocity": 0.8661417322834646
        },
        {
          "duration": 0.21126749999999106,
          "durationTicks": 48,
          "midi": 74,
          "name": "D5",
          "ticks": 55776,
          "time": 245.49283500000004,
          "velocity": 0.8661417322834646
        },
        {
          "duration": 0.21126749999999106,
          "durationTicks": 48,
          "midi": 74,
          "name": "D5",
          "ticks": 55824,
          "time": 245.70410250000003,
          "velocity": 0.8661417322834646
        },
        {
          "duration": 0.21126749999999106,
          "durationTicks": 48,
          "midi": 76,
          "name": "E5",
          "ticks": 55872,
          "time": 245.91537000000002,
          "velocity": 0.8661417322834646
        },
        {
          "duration": 0.21126750000001948,
          "durationTicks": 48,
          "midi": 78,
          "name": "F#5",
          "ticks": 55920,
          "time": 246.12663750000002,
          "velocity": 0.8661417322834646
        },
        {
          "duration": 0.21126749999999106,
          "durationTicks": 48,
          "midi": 76,
          "name": "E5",
          "ticks": 55968,
          "time": 246.33790500000003,
          "velocity": 0.8661417322834646
        },
        {
          "duration": 0.21126749999999106,
          "durationTicks": 48,
          "midi": 74,
          "name": "D5",
          "ticks": 56016,
          "time": 246.54917250000003,
          "velocity": 0.8661417322834646
        },
        {
          "duration": 0.21126750000001948,
          "durationTicks": 48,
          "midi": 78,
          "name": "F#5",
          "ticks": 56064,
          "time": 246.76044000000002,
          "velocity": 0.8661417322834646
        },
        {
          "duration": 0.21126749999999106,
          "durationTicks": 48,
          "midi": 74,
          "name": "D5",
          "ticks": 56112,
          "time": 246.97170750000004,
          "velocity": 0.8661417322834646
        },
        {
          "duration": 0.21126749999999106,
          "durationTicks": 48,
          "midi": 79,
          "name": "G5",
          "ticks": 56160,
          "time": 247.18297500000003,
          "velocity": 0.8661417322834646
        },
        {
          "duration": 0.21126750000001948,
          "durationTicks": 48,
          "midi": 74,
          "name": "D5",
          "ticks": 56208,
          "time": 247.39424250000002,
          "velocity": 0.8661417322834646
        },
        {
          "duration": 0.21126749999999106,
          "durationTicks": 48,
          "midi": 78,
          "name": "F#5",
          "ticks": 56256,
          "time": 247.60551000000004,
          "velocity": 0.8661417322834646
        },
        {
          "duration": 0.21126749999999106,
          "durationTicks": 48,
          "midi": 74,
          "name": "D5",
          "ticks": 56304,
          "time": 247.81677750000003,
          "velocity": 0.8661417322834646
        },
        {
          "duration": 0.21126750000001948,
          "durationTicks": 48,
          "midi": 74,
          "name": "D5",
          "ticks": 56352,
          "time": 248.02804500000002,
          "velocity": 0.8661417322834646
        },
        {
          "duration": 0.21126749999999106,
          "durationTicks": 48,
          "midi": 79,
          "name": "G5",
          "ticks": 56400,
          "time": 248.23931250000004,
          "velocity": 0.8661417322834646
        },
        {
          "duration": 0.21126749999999106,
          "durationTicks": 48,
          "midi": 78,
          "name": "F#5",
          "ticks": 56448,
          "time": 248.45058000000003,
          "velocity": 0.8661417322834646
        },
        {
          "duration": 0.21126750000001948,
          "durationTicks": 48,
          "midi": 74,
          "name": "D5",
          "ticks": 56496,
          "time": 248.66184750000002,
          "velocity": 0.8661417322834646
        },
        {
          "duration": 0.21126749999999106,
          "durationTicks": 48,
          "midi": 78,
          "name": "F#5",
          "ticks": 56544,
          "time": 248.87311500000004,
          "velocity": 0.8661417322834646
        },
        {
          "duration": 0.21126749999999106,
          "durationTicks": 48,
          "midi": 79,
          "name": "G5",
          "ticks": 56592,
          "time": 249.08438250000003,
          "velocity": 0.8661417322834646
        },
        {
          "duration": 0.21126750000001948,
          "durationTicks": 48,
          "midi": 81,
          "name": "A5",
          "ticks": 56640,
          "time": 249.29565000000002,
          "velocity": 0.8661417322834646
        },
        {
          "duration": 0.21126749999999106,
          "durationTicks": 48,
          "midi": 79,
          "name": "G5",
          "ticks": 56688,
          "time": 249.50691750000004,
          "velocity": 0.8661417322834646
        },
        {
          "duration": 0.21126749999999106,
          "durationTicks": 48,
          "midi": 74,
          "name": "D5",
          "ticks": 56736,
          "time": 249.71818500000003,
          "velocity": 0.8661417322834646
        },
        {
          "duration": 0.21126750000001948,
          "durationTicks": 48,
          "midi": 74,
          "name": "D5",
          "ticks": 56832,
          "time": 250.14072000000002,
          "velocity": 0.8661417322834646
        },
        {
          "duration": 0.21126749999999106,
          "durationTicks": 48,
          "midi": 78,
          "name": "F#5",
          "ticks": 56880,
          "time": 250.35198750000004,
          "velocity": 0.8661417322834646
        },
        {
          "duration": 0.21126749999999106,
          "durationTicks": 48,
          "midi": 74,
          "name": "D5",
          "ticks": 56928,
          "time": 250.56325500000003,
          "velocity": 0.8661417322834646
        },
        {
          "duration": 0.21126750000001948,
          "durationTicks": 48,
          "midi": 78,
          "name": "F#5",
          "ticks": 56976,
          "time": 250.77452250000002,
          "velocity": 0.8661417322834646
        },
        {
          "duration": 0.21126749999999106,
          "durationTicks": 48,
          "midi": 74,
          "name": "D5",
          "ticks": 57024,
          "time": 250.98579000000004,
          "velocity": 0.8661417322834646
        },
        {
          "duration": 0.21126749999999106,
          "durationTicks": 48,
          "midi": 78,
          "name": "F#5",
          "ticks": 57072,
          "time": 251.19705750000003,
          "velocity": 0.8661417322834646
        },
        {
          "duration": 0.21126750000001948,
          "durationTicks": 48,
          "midi": 78,
          "name": "F#5",
          "ticks": 57120,
          "time": 251.40832500000002,
          "velocity": 0.8661417322834646
        },
        {
          "duration": 0.21126749999999106,
          "durationTicks": 48,
          "midi": 79,
          "name": "G5",
          "ticks": 57168,
          "time": 251.61959250000004,
          "velocity": 0.8661417322834646
        },
        {
          "duration": 0.21126749999999106,
          "durationTicks": 48,
          "midi": 76,
          "name": "E5",
          "ticks": 57216,
          "time": 251.83086000000003,
          "velocity": 0.8661417322834646
        },
        {
          "duration": 0.21126750000001948,
          "durationTicks": 48,
          "midi": 78,
          "name": "F#5",
          "ticks": 57264,
          "time": 252.04212750000002,
          "velocity": 0.8661417322834646
        },
        {
          "duration": 0.21126749999999106,
          "durationTicks": 48,
          "midi": 74,
          "name": "D5",
          "ticks": 57312,
          "time": 252.25339500000004,
          "velocity": 0.8661417322834646
        },
        {
          "duration": 0.21126749999999106,
          "durationTicks": 48,
          "midi": 74,
          "name": "D5",
          "ticks": 57360,
          "time": 252.46466250000003,
          "velocity": 0.8661417322834646
        },
        {
          "duration": 0.21126750000001948,
          "durationTicks": 48,
          "midi": 76,
          "name": "E5",
          "ticks": 57408,
          "time": 252.67593000000002,
          "velocity": 0.8661417322834646
        },
        {
          "duration": 0.21126749999999106,
          "durationTicks": 48,
          "midi": 78,
          "name": "F#5",
          "ticks": 57456,
          "time": 252.88719750000004,
          "velocity": 0.8661417322834646
        },
        {
          "duration": 0.21126749999999106,
          "durationTicks": 48,
          "midi": 76,
          "name": "E5",
          "ticks": 57504,
          "time": 253.09846500000003,
          "velocity": 0.8661417322834646
        },
        {
          "duration": 0.21126750000001948,
          "durationTicks": 48,
          "midi": 74,
          "name": "D5",
          "ticks": 57552,
          "time": 253.30973250000002,
          "velocity": 0.8661417322834646
        },
        {
          "duration": 0.21126749999999106,
          "durationTicks": 48,
          "midi": 78,
          "name": "F#5",
          "ticks": 57600,
          "time": 253.52100000000004,
          "velocity": 0.8661417322834646
        },
        {
          "duration": 0.21126749999999106,
          "durationTicks": 48,
          "midi": 74,
          "name": "D5",
          "ticks": 57648,
          "time": 253.73226750000003,
          "velocity": 0.8661417322834646
        },
        {
          "duration": 0.21126749999999106,
          "durationTicks": 48,
          "midi": 79,
          "name": "G5",
          "ticks": 57696,
          "time": 253.94353500000003,
          "velocity": 0.8661417322834646
        },
        {
          "duration": 0.21126750000001948,
          "durationTicks": 48,
          "midi": 74,
          "name": "D5",
          "ticks": 57744,
          "time": 254.15480250000002,
          "velocity": 0.8661417322834646
        },
        {
          "duration": 0.21126749999999106,
          "durationTicks": 48,
          "midi": 78,
          "name": "F#5",
          "ticks": 57792,
          "time": 254.36607000000004,
          "velocity": 0.8661417322834646
        },
        {
          "duration": 0.21126749999999106,
          "durationTicks": 48,
          "midi": 74,
          "name": "D5",
          "ticks": 57840,
          "time": 254.57733750000003,
          "velocity": 0.8661417322834646
        },
        {
          "duration": 0.21126750000001948,
          "durationTicks": 48,
          "midi": 74,
          "name": "D5",
          "ticks": 57888,
          "time": 254.78860500000002,
          "velocity": 0.8661417322834646
        },
        {
          "duration": 0.21126749999999106,
          "durationTicks": 48,
          "midi": 79,
          "name": "G5",
          "ticks": 57936,
          "time": 254.99987250000004,
          "velocity": 0.8661417322834646
        },
        {
          "duration": 0.21126749999999106,
          "durationTicks": 48,
          "midi": 78,
          "name": "F#5",
          "ticks": 57984,
          "time": 255.21114000000003,
          "velocity": 0.8661417322834646
        },
        {
          "duration": 0.21126750000001948,
          "durationTicks": 48,
          "midi": 74,
          "name": "D5",
          "ticks": 58032,
          "time": 255.42240750000002,
          "velocity": 0.8661417322834646
        },
        {
          "duration": 0.21126749999999106,
          "durationTicks": 48,
          "midi": 78,
          "name": "F#5",
          "ticks": 58080,
          "time": 255.63367500000004,
          "velocity": 0.8661417322834646
        },
        {
          "duration": 0.21126749999999106,
          "durationTicks": 48,
          "midi": 79,
          "name": "G5",
          "ticks": 58128,
          "time": 255.84494250000003,
          "velocity": 0.8661417322834646
        },
        {
          "duration": 0.21126750000001948,
          "durationTicks": 48,
          "midi": 81,
          "name": "A5",
          "ticks": 58176,
          "time": 256.05621,
          "velocity": 0.8661417322834646
        },
        {
          "duration": 0.21126749999996264,
          "durationTicks": 48,
          "midi": 79,
          "name": "G5",
          "ticks": 58224,
          "time": 256.26747750000004,
          "velocity": 0.8661417322834646
        },
        {
          "duration": 0.21126750000001948,
          "durationTicks": 48,
          "midi": 74,
          "name": "D5",
          "ticks": 58272,
          "time": 256.478745,
          "velocity": 0.8661417322834646
        }
      ]
    },
    {
      "channel": 0,
      "controlChanges": {},
      "pitchBends": [],
      "instrument": {
        "family": "piano",
        "number": 0,
        "name": "RHYTHM"
      },
      "name": "RHYTHM",
      "notes": [
        {
          "duration": 0,
          "durationTicks": 0,
          "midi": 67,
          "name": "G4",
          "ticks": 6216,
          "time": 27.359141250000004,
          "velocity": 0.007874015748031496
        },
        {
          "duration": 0,
          "durationTicks": 0,
          "midi": 69,
          "name": "A4",
          "ticks": 6216,
          "time": 27.359141250000004,
          "velocity": 0.007874015748031496
        },
        {
          "duration": 0,
          "durationTicks": 0,
          "midi": 74,
          "name": "D5",
          "ticks": 6216,
          "time": 27.359141250000004,
          "velocity": 0.007874015748031496
        },
        {
          "duration": 0,
          "durationTicks": 0,
          "midi": 67,
          "name": "G4",
          "ticks": 6288,
          "time": 27.676042500000005,
          "velocity": 0.031496062992125984
        },
        {
          "duration": 0,
          "durationTicks": 0,
          "midi": 69,
          "name": "A4",
          "ticks": 6288,
          "time": 27.676042500000005,
          "velocity": 0.031496062992125984
        },
        {
          "duration": 0,
          "durationTicks": 0,
          "midi": 74,
          "name": "D5",
          "ticks": 6288,
          "time": 27.676042500000005,
          "velocity": 0.031496062992125984
        },
        {
          "duration": 0.4225349999999999,
          "durationTicks": 96,
          "midi": 74,
          "name": "D5",
          "ticks": 6432,
          "time": 28.309845000000003,
          "velocity": 0.07874015748031496
        },
        {
          "duration": 0.4225349999999999,
          "durationTicks": 96,
          "midi": 69,
          "name": "A4",
          "ticks": 6432,
          "time": 28.309845000000003,
          "velocity": 0.07874015748031496
        },
        {
          "duration": 0.4225349999999999,
          "durationTicks": 96,
          "midi": 67,
          "name": "G4",
          "ticks": 6432,
          "time": 28.309845000000003,
          "velocity": 0.07874015748031496
        },
        {
          "duration": 0.3169012500000008,
          "durationTicks": 72,
          "midi": 73,
          "name": "C#5",
          "ticks": 6528,
          "time": 28.732380000000003,
          "velocity": 0.10236220472440945
        },
        {
          "duration": 0.3169012500000008,
          "durationTicks": 72,
          "midi": 78,
          "name": "F#5",
          "ticks": 6528,
          "time": 28.732380000000003,
          "velocity": 0.10236220472440945
        },
        {
          "duration": 0.3169012500000008,
          "durationTicks": 72,
          "midi": 69,
          "name": "A4",
          "ticks": 6528,
          "time": 28.732380000000003,
          "velocity": 0.10236220472440945
        },
        {
          "duration": 0.3169012500000008,
          "durationTicks": 72,
          "midi": 78,
          "name": "F#5",
          "ticks": 6600,
          "time": 29.049281250000003,
          "velocity": 0.12598425196850394
        },
        {
          "duration": 0.3169012500000008,
          "durationTicks": 72,
          "midi": 73,
          "name": "C#5",
          "ticks": 6600,
          "time": 29.049281250000003,
          "velocity": 0.12598425196850394
        },
        {
          "duration": 0.3169012500000008,
          "durationTicks": 72,
          "midi": 69,
          "name": "A4",
          "ticks": 6600,
          "time": 29.049281250000003,
          "velocity": 0.12598425196850394
        },
        {
          "duration": 0.3169012500000008,
          "durationTicks": 72,
          "midi": 69,
          "name": "A4",
          "ticks": 6672,
          "time": 29.366182500000004,
          "velocity": 0.14960629921259844
        },
        {
          "duration": 0.3169012500000008,
          "durationTicks": 72,
          "midi": 78,
          "name": "F#5",
          "ticks": 6672,
          "time": 29.366182500000004,
          "velocity": 0.14960629921259844
        },
        {
          "duration": 0.3169012500000008,
          "durationTicks": 72,
          "midi": 73,
          "name": "C#5",
          "ticks": 6672,
          "time": 29.366182500000004,
          "velocity": 0.14960629921259844
        },
        {
          "duration": 0.4225349999999999,
          "durationTicks": 96,
          "midi": 78,
          "name": "F#5",
          "ticks": 6816,
          "time": 29.999985000000002,
          "velocity": 0.1968503937007874
        },
        {
          "duration": 0.4225349999999999,
          "durationTicks": 96,
          "midi": 73,
          "name": "C#5",
          "ticks": 6816,
          "time": 29.999985000000002,
          "velocity": 0.1968503937007874
        },
        {
          "duration": 0.4225349999999999,
          "durationTicks": 96,
          "midi": 69,
          "name": "A4",
          "ticks": 6816,
          "time": 29.999985000000002,
          "velocity": 0.1968503937007874
        },
        {
          "duration": 0.3169012500000008,
          "durationTicks": 72,
          "midi": 69,
          "name": "A4",
          "ticks": 6912,
          "time": 30.422520000000002,
          "velocity": 0.2204724409448819
        },
        {
          "duration": 0.3169012500000008,
          "durationTicks": 72,
          "midi": 74,
          "name": "D5",
          "ticks": 6912,
          "time": 30.422520000000002,
          "velocity": 0.2204724409448819
        },
        {
          "duration": 0.3169012500000008,
          "durationTicks": 72,
          "midi": 66,
          "name": "F#4",
          "ticks": 6912,
          "time": 30.422520000000002,
          "velocity": 0.2204724409448819
        },
        {
          "duration": 0.3169012500000008,
          "durationTicks": 72,
          "midi": 66,
          "name": "F#4",
          "ticks": 6984,
          "time": 30.739421250000003,
          "velocity": 0.2440944881889764
        },
        {
          "duration": 0.3169012500000008,
          "durationTicks": 72,
          "midi": 69,
          "name": "A4",
          "ticks": 6984,
          "time": 30.739421250000003,
          "velocity": 0.2440944881889764
        },
        {
          "duration": 0.3169012500000008,
          "durationTicks": 72,
          "midi": 74,
          "name": "D5",
          "ticks": 6984,
          "time": 30.739421250000003,
          "velocity": 0.2440944881889764
        },
        {
          "duration": 0.3169012500000008,
          "durationTicks": 72,
          "midi": 66,
          "name": "F#4",
          "ticks": 7056,
          "time": 31.056322500000004,
          "velocity": 0.2677165354330709
        },
        {
          "duration": 0.3169012500000008,
          "durationTicks": 72,
          "midi": 74,
          "name": "D5",
          "ticks": 7056,
          "time": 31.056322500000004,
          "velocity": 0.2677165354330709
        },
        {
          "duration": 0.3169012500000008,
          "durationTicks": 72,
          "midi": 69,
          "name": "A4",
          "ticks": 7056,
          "time": 31.056322500000004,
          "velocity": 0.2677165354330709
        },
        {
          "duration": 0.4225349999999999,
          "durationTicks": 96,
          "midi": 74,
          "name": "D5",
          "ticks": 7200,
          "time": 31.690125000000005,
          "velocity": 0.31496062992125984
        },
        {
          "duration": 0.4225349999999999,
          "durationTicks": 96,
          "midi": 69,
          "name": "A4",
          "ticks": 7200,
          "time": 31.690125000000005,
          "velocity": 0.31496062992125984
        },
        {
          "duration": 0.4225349999999999,
          "durationTicks": 96,
          "midi": 66,
          "name": "F#4",
          "ticks": 7200,
          "time": 31.690125000000005,
          "velocity": 0.31496062992125984
        },
        {
          "duration": 0.3169012500000008,
          "durationTicks": 72,
          "midi": 74,
          "name": "D5",
          "ticks": 7296,
          "time": 32.112660000000005,
          "velocity": 0.33858267716535434
        },
        {
          "duration": 0.3169012500000008,
          "durationTicks": 72,
          "midi": 69,
          "name": "A4",
          "ticks": 7296,
          "time": 32.112660000000005,
          "velocity": 0.33858267716535434
        },
        {
          "duration": 0.3169012500000008,
          "durationTicks": 72,
          "midi": 64,
          "name": "E4",
          "ticks": 7296,
          "time": 32.112660000000005,
          "velocity": 0.33858267716535434
        },
        {
          "duration": 0.3169012500000008,
          "durationTicks": 72,
          "midi": 74,
          "name": "D5",
          "ticks": 7368,
          "time": 32.429561250000006,
          "velocity": 0.36220472440944884
        },
        {
          "duration": 0.3169012500000008,
          "durationTicks": 72,
          "midi": 69,
          "name": "A4",
          "ticks": 7368,
          "time": 32.429561250000006,
          "velocity": 0.36220472440944884
        },
        {
          "duration": 0.3169012500000008,
          "durationTicks": 72,
          "midi": 64,
          "name": "E4",
          "ticks": 7368,
          "time": 32.429561250000006,
          "velocity": 0.36220472440944884
        },
        {
          "duration": 0.3169012499999937,
          "durationTicks": 72,
          "midi": 74,
          "name": "D5",
          "ticks": 7440,
          "time": 32.74646250000001,
          "velocity": 0.3858267716535433
        },
        {
          "duration": 0.3169012499999937,
          "durationTicks": 72,
          "midi": 69,
          "name": "A4",
          "ticks": 7440,
          "time": 32.74646250000001,
          "velocity": 0.3858267716535433
        },
        {
          "duration": 0.3169012499999937,
          "durationTicks": 72,
          "midi": 64,
          "name": "E4",
          "ticks": 7440,
          "time": 32.74646250000001,
          "velocity": 0.3858267716535433
        },
        {
          "duration": 0.42253500000000344,
          "durationTicks": 96,
          "midi": 64,
          "name": "E4",
          "ticks": 7584,
          "time": 33.380265,
          "velocity": 0.4330708661417323
        },
        {
          "duration": 0.42253500000000344,
          "durationTicks": 96,
          "midi": 69,
          "name": "A4",
          "ticks": 7584,
          "time": 33.380265,
          "velocity": 0.4330708661417323
        },
        {
          "duration": 0.42253500000000344,
          "durationTicks": 96,
          "midi": 74,
          "name": "D5",
          "ticks": 7584,
          "time": 33.380265,
          "velocity": 0.4330708661417323
        },
        {
          "duration": 0.3169012500000008,
          "durationTicks": 72,
          "midi": 74,
          "name": "D5",
          "ticks": 7680,
          "time": 33.802800000000005,
          "velocity": 0.4566929133858268
        },
        {
          "duration": 0.3169012500000008,
          "durationTicks": 72,
          "midi": 69,
          "name": "A4",
          "ticks": 7680,
          "time": 33.802800000000005,
          "velocity": 0.4566929133858268
        },
        {
          "duration": 0.3169012500000008,
          "durationTicks": 72,
          "midi": 67,
          "name": "G4",
          "ticks": 7680,
          "time": 33.802800000000005,
          "velocity": 0.4566929133858268
        },
        {
          "duration": 0.3169012500000008,
          "durationTicks": 72,
          "midi": 74,
          "name": "D5",
          "ticks": 7752,
          "time": 34.119701250000006,
          "velocity": 0.48031496062992124
        },
        {
          "duration": 0.3169012500000008,
          "durationTicks": 72,
          "midi": 69,
          "name": "A4",
          "ticks": 7752,
          "time": 34.119701250000006,
          "velocity": 0.48031496062992124
        },
        {
          "duration": 0.3169012500000008,
          "durationTicks": 72,
          "midi": 67,
          "name": "G4",
          "ticks": 7752,
          "time": 34.119701250000006,
          "velocity": 0.48031496062992124
        },
        {
          "duration": 0.3169012500000008,
          "durationTicks": 72,
          "midi": 74,
          "name": "D5",
          "ticks": 7824,
          "time": 34.436602500000006,
          "velocity": 0.5039370078740157
        },
        {
          "duration": 0.3169012500000008,
          "durationTicks": 72,
          "midi": 69,
          "name": "A4",
          "ticks": 7824,
          "time": 34.436602500000006,
          "velocity": 0.5039370078740157
        },
        {
          "duration": 0.3169012500000008,
          "durationTicks": 72,
          "midi": 67,
          "name": "G4",
          "ticks": 7824,
          "time": 34.436602500000006,
          "velocity": 0.5039370078740157
        },
        {
          "duration": 0.42253500000000344,
          "durationTicks": 96,
          "midi": 74,
          "name": "D5",
          "ticks": 7968,
          "time": 35.070405,
          "velocity": 0.5511811023622047
        },
        {
          "duration": 0.42253500000000344,
          "durationTicks": 96,
          "midi": 69,
          "name": "A4",
          "ticks": 7968,
          "time": 35.070405,
          "velocity": 0.5511811023622047
        },
        {
          "duration": 0.42253500000000344,
          "durationTicks": 96,
          "midi": 67,
          "name": "G4",
          "ticks": 7968,
          "time": 35.070405,
          "velocity": 0.5511811023622047
        },
        {
          "duration": 0.3169012500000008,
          "durationTicks": 72,
          "midi": 69,
          "name": "A4",
          "ticks": 8064,
          "time": 35.492940000000004,
          "velocity": 0.5748031496062992
        },
        {
          "duration": 0.3169012500000008,
          "durationTicks": 72,
          "midi": 78,
          "name": "F#5",
          "ticks": 8064,
          "time": 35.492940000000004,
          "velocity": 0.5748031496062992
        },
        {
          "duration": 0.3169012500000008,
          "durationTicks": 72,
          "midi": 73,
          "name": "C#5",
          "ticks": 8064,
          "time": 35.492940000000004,
          "velocity": 0.5748031496062992
        },
        {
          "duration": 0.3169012500000008,
          "durationTicks": 72,
          "midi": 69,
          "name": "A4",
          "ticks": 8136,
          "time": 35.809841250000005,
          "velocity": 0.5984251968503937
        },
        {
          "duration": 0.3169012500000008,
          "durationTicks": 72,
          "midi": 73,
          "name": "C#5",
          "ticks": 8136,
          "time": 35.809841250000005,
          "velocity": 0.5984251968503937
        },
        {
          "duration": 0.3169012500000008,
          "durationTicks": 72,
          "midi": 78,
          "name": "F#5",
          "ticks": 8136,
          "time": 35.809841250000005,
          "velocity": 0.5984251968503937
        },
        {
          "duration": 0.3169012500000008,
          "durationTicks": 72,
          "midi": 69,
          "name": "A4",
          "ticks": 8208,
          "time": 36.126742500000006,
          "velocity": 0.6220472440944882
        },
        {
          "duration": 0.3169012500000008,
          "durationTicks": 72,
          "midi": 78,
          "name": "F#5",
          "ticks": 8208,
          "time": 36.126742500000006,
          "velocity": 0.6220472440944882
        },
        {
          "duration": 0.3169012500000008,
          "durationTicks": 72,
          "midi": 73,
          "name": "C#5",
          "ticks": 8208,
          "time": 36.126742500000006,
          "velocity": 0.6220472440944882
        },
        {
          "duration": 0.42253499999999633,
          "durationTicks": 96,
          "midi": 69,
          "name": "A4",
          "ticks": 8352,
          "time": 36.76054500000001,
          "velocity": 0.6692913385826772
        },
        {
          "duration": 0.42253499999999633,
          "durationTicks": 96,
          "midi": 73,
          "name": "C#5",
          "ticks": 8352,
          "time": 36.76054500000001,
          "velocity": 0.6692913385826772
        },
        {
          "duration": 0.42253499999999633,
          "durationTicks": 96,
          "midi": 78,
          "name": "F#5",
          "ticks": 8352,
          "time": 36.76054500000001,
          "velocity": 0.6692913385826772
        },
        {
          "duration": 0.3169012500000008,
          "durationTicks": 72,
          "midi": 69,
          "name": "A4",
          "ticks": 8448,
          "time": 37.183080000000004,
          "velocity": 0.6929133858267716
        },
        {
          "duration": 0.3169012500000008,
          "durationTicks": 72,
          "midi": 74,
          "name": "D5",
          "ticks": 8448,
          "time": 37.183080000000004,
          "velocity": 0.6929133858267716
        },
        {
          "duration": 0.3169012500000008,
          "durationTicks": 72,
          "midi": 66,
          "name": "F#4",
          "ticks": 8448,
          "time": 37.183080000000004,
          "velocity": 0.6929133858267716
        },
        {
          "duration": 0.3169012500000008,
          "durationTicks": 72,
          "midi": 74,
          "name": "D5",
          "ticks": 8520,
          "time": 37.499981250000005,
          "velocity": 0.7165354330708661
        },
        {
          "duration": 0.3169012500000008,
          "durationTicks": 72,
          "midi": 69,
          "name": "A4",
          "ticks": 8520,
          "time": 37.499981250000005,
          "velocity": 0.7165354330708661
        },
        {
          "duration": 0.3169012500000008,
          "durationTicks": 72,
          "midi": 66,
          "name": "F#4",
          "ticks": 8520,
          "time": 37.499981250000005,
          "velocity": 0.7165354330708661
        },
        {
          "duration": 0.3169012500000008,
          "durationTicks": 72,
          "midi": 69,
          "name": "A4",
          "ticks": 8592,
          "time": 37.816882500000006,
          "velocity": 0.7401574803149606
        },
        {
          "duration": 0.3169012500000008,
          "durationTicks": 72,
          "midi": 74,
          "name": "D5",
          "ticks": 8592,
          "time": 37.816882500000006,
          "velocity": 0.7401574803149606
        },
        {
          "duration": 0.3169012500000008,
          "durationTicks": 72,
          "midi": 66,
          "name": "F#4",
          "ticks": 8592,
          "time": 37.816882500000006,
          "velocity": 0.7401574803149606
        },
        {
          "duration": 0.42253499999999633,
          "durationTicks": 96,
          "midi": 74,
          "name": "D5",
          "ticks": 8736,
          "time": 38.45068500000001,
          "velocity": 0.7795275590551181
        },
        {
          "duration": 0.42253499999999633,
          "durationTicks": 96,
          "midi": 69,
          "name": "A4",
          "ticks": 8736,
          "time": 38.45068500000001,
          "velocity": 0.7795275590551181
        },
        {
          "duration": 0.42253499999999633,
          "durationTicks": 96,
          "midi": 66,
          "name": "F#4",
          "ticks": 8736,
          "time": 38.45068500000001,
          "velocity": 0.7795275590551181
        },
        {
          "duration": 0.3169012500000008,
          "durationTicks": 72,
          "midi": 62,
          "name": "D4",
          "ticks": 9216,
          "time": 40.56336,
          "velocity": 0.7874015748031497
        },
        {
          "duration": 0.3169012500000008,
          "durationTicks": 72,
          "midi": 57,
          "name": "A3",
          "ticks": 9216,
          "time": 40.56336,
          "velocity": 0.7874015748031497
        },
        {
          "duration": 0.3169012500000008,
          "durationTicks": 72,
          "midi": 55,
          "name": "G3",
          "ticks": 9216,
          "time": 40.56336,
          "velocity": 0.7874015748031497
        },
        {
          "duration": 0.3169012500000008,
          "durationTicks": 72,
          "midi": 62,
          "name": "D4",
          "ticks": 9288,
          "time": 40.880261250000004,
          "velocity": 0.7874015748031497
        },
        {
          "duration": 0.3169012500000008,
          "durationTicks": 72,
          "midi": 57,
          "name": "A3",
          "ticks": 9288,
          "time": 40.880261250000004,
          "velocity": 0.7874015748031497
        },
        {
          "duration": 0.3169012500000008,
          "durationTicks": 72,
          "midi": 55,
          "name": "G3",
          "ticks": 9288,
          "time": 40.880261250000004,
          "velocity": 0.7874015748031497
        },
        {
          "duration": 0.3169012500000008,
          "durationTicks": 72,
          "midi": 62,
          "name": "D4",
          "ticks": 9360,
          "time": 41.197162500000005,
          "velocity": 0.7874015748031497
        },
        {
          "duration": 0.3169012500000008,
          "durationTicks": 72,
          "midi": 57,
          "name": "A3",
          "ticks": 9360,
          "time": 41.197162500000005,
          "velocity": 0.7874015748031497
        },
        {
          "duration": 0.3169012500000008,
          "durationTicks": 72,
          "midi": 55,
          "name": "G3",
          "ticks": 9360,
          "time": 41.197162500000005,
          "velocity": 0.7874015748031497
        },
        {
          "duration": 0.42253499999999633,
          "durationTicks": 96,
          "midi": 62,
          "name": "D4",
          "ticks": 9504,
          "time": 41.830965000000006,
          "velocity": 0.7874015748031497
        },
        {
          "duration": 0.42253499999999633,
          "durationTicks": 96,
          "midi": 57,
          "name": "A3",
          "ticks": 9504,
          "time": 41.830965000000006,
          "velocity": 0.7874015748031497
        },
        {
          "duration": 0.42253499999999633,
          "durationTicks": 96,
          "midi": 55,
          "name": "G3",
          "ticks": 9504,
          "time": 41.830965000000006,
          "velocity": 0.7874015748031497
        },
        {
          "duration": 0.3169012500000008,
          "durationTicks": 72,
          "midi": 57,
          "name": "A3",
          "ticks": 9600,
          "time": 42.2535,
          "velocity": 0.7874015748031497
        },
        {
          "duration": 0.3169012500000008,
          "durationTicks": 72,
          "midi": 66,
          "name": "F#4",
          "ticks": 9600,
          "time": 42.2535,
          "velocity": 0.7874015748031497
        },
        {
          "duration": 0.3169012500000008,
          "durationTicks": 72,
          "midi": 61,
          "name": "C#4",
          "ticks": 9600,
          "time": 42.2535,
          "velocity": 0.7874015748031497
        },
        {
          "duration": 0.3169012500000008,
          "durationTicks": 72,
          "midi": 57,
          "name": "A3",
          "ticks": 9672,
          "time": 42.57040125,
          "velocity": 0.7874015748031497
        },
        {
          "duration": 0.3169012500000008,
          "durationTicks": 72,
          "midi": 61,
          "name": "C#4",
          "ticks": 9672,
          "time": 42.57040125,
          "velocity": 0.7874015748031497
        },
        {
          "duration": 0.3169012500000008,
          "durationTicks": 72,
          "midi": 66,
          "name": "F#4",
          "ticks": 9672,
          "time": 42.57040125,
          "velocity": 0.7874015748031497
        },
        {
          "duration": 0.3169012500000008,
          "durationTicks": 72,
          "midi": 57,
          "name": "A3",
          "ticks": 9744,
          "time": 42.887302500000004,
          "velocity": 0.7874015748031497
        },
        {
          "duration": 0.3169012500000008,
          "durationTicks": 72,
          "midi": 66,
          "name": "F#4",
          "ticks": 9744,
          "time": 42.887302500000004,
          "velocity": 0.7874015748031497
        },
        {
          "duration": 0.3169012500000008,
          "durationTicks": 72,
          "midi": 61,
          "name": "C#4",
          "ticks": 9744,
          "time": 42.887302500000004,
          "velocity": 0.7874015748031497
        },
        {
          "duration": 0.42253499999999633,
          "durationTicks": 96,
          "midi": 57,
          "name": "A3",
          "ticks": 9888,
          "time": 43.521105000000006,
          "velocity": 0.7874015748031497
        },
        {
          "duration": 0.42253499999999633,
          "durationTicks": 96,
          "midi": 61,
          "name": "C#4",
          "ticks": 9888,
          "time": 43.521105000000006,
          "velocity": 0.7874015748031497
        },
        {
          "duration": 0.42253499999999633,
          "durationTicks": 96,
          "midi": 66,
          "name": "F#4",
          "ticks": 9888,
          "time": 43.521105000000006,
          "velocity": 0.7874015748031497
        },
        {
          "duration": 0.3169012500000008,
          "durationTicks": 72,
          "midi": 57,
          "name": "A3",
          "ticks": 9984,
          "time": 43.94364,
          "velocity": 0.7874015748031497
        },
        {
          "duration": 0.3169012500000008,
          "durationTicks": 72,
          "midi": 62,
          "name": "D4",
          "ticks": 9984,
          "time": 43.94364,
          "velocity": 0.7874015748031497
        },
        {
          "duration": 0.3169012500000008,
          "durationTicks": 72,
          "midi": 54,
          "name": "F#3",
          "ticks": 9984,
          "time": 43.94364,
          "velocity": 0.7874015748031497
        },
        {
          "duration": 0.3169012500000008,
          "durationTicks": 72,
          "midi": 62,
          "name": "D4",
          "ticks": 10056,
          "time": 44.26054125,
          "velocity": 0.7874015748031497
        },
        {
          "duration": 0.3169012500000008,
          "durationTicks": 72,
          "midi": 57,
          "name": "A3",
          "ticks": 10056,
          "time": 44.26054125,
          "velocity": 0.7874015748031497
        },
        {
          "duration": 0.3169012500000008,
          "durationTicks": 72,
          "midi": 54,
          "name": "F#3",
          "ticks": 10056,
          "time": 44.26054125,
          "velocity": 0.7874015748031497
        },
        {
          "duration": 0.3169012500000008,
          "durationTicks": 72,
          "midi": 57,
          "name": "A3",
          "ticks": 10128,
          "time": 44.577442500000004,
          "velocity": 0.7874015748031497
        },
        {
          "duration": 0.3169012500000008,
          "durationTicks": 72,
          "midi": 62,
          "name": "D4",
          "ticks": 10128,
          "time": 44.577442500000004,
          "velocity": 0.7874015748031497
        },
        {
          "duration": 0.3169012500000008,
          "durationTicks": 72,
          "midi": 54,
          "name": "F#3",
          "ticks": 10128,
          "time": 44.577442500000004,
          "velocity": 0.7874015748031497
        },
        {
          "duration": 0.42253500000000344,
          "durationTicks": 96,
          "midi": 62,
          "name": "D4",
          "ticks": 10272,
          "time": 45.211245000000005,
          "velocity": 0.7874015748031497
        },
        {
          "duration": 0.42253500000000344,
          "durationTicks": 96,
          "midi": 57,
          "name": "A3",
          "ticks": 10272,
          "time": 45.211245000000005,
          "velocity": 0.7874015748031497
        },
        {
          "duration": 0.42253500000000344,
          "durationTicks": 96,
          "midi": 54,
          "name": "F#3",
          "ticks": 10272,
          "time": 45.211245000000005,
          "velocity": 0.7874015748031497
        },
        {
          "duration": 0.3169012499999937,
          "durationTicks": 72,
          "midi": 62,
          "name": "D4",
          "ticks": 10368,
          "time": 45.63378000000001,
          "velocity": 0.7874015748031497
        },
        {
          "duration": 0.3169012499999937,
          "durationTicks": 72,
          "midi": 57,
          "name": "A3",
          "ticks": 10368,
          "time": 45.63378000000001,
          "velocity": 0.7874015748031497
        },
        {
          "duration": 0.3169012499999937,
          "durationTicks": 72,
          "midi": 52,
          "name": "E3",
          "ticks": 10368,
          "time": 45.63378000000001,
          "velocity": 0.7874015748031497
        },
        {
          "duration": 0.3169012500000008,
          "durationTicks": 72,
          "midi": 62,
          "name": "D4",
          "ticks": 10440,
          "time": 45.95068125,
          "velocity": 0.7874015748031497
        },
        {
          "duration": 0.3169012500000008,
          "durationTicks": 72,
          "midi": 57,
          "name": "A3",
          "ticks": 10440,
          "time": 45.95068125,
          "velocity": 0.7874015748031497
        },
        {
          "duration": 0.3169012500000008,
          "durationTicks": 72,
          "midi": 52,
          "name": "E3",
          "ticks": 10440,
          "time": 45.95068125,
          "velocity": 0.7874015748031497
        },
        {
          "duration": 0.3169012500000008,
          "durationTicks": 72,
          "midi": 62,
          "name": "D4",
          "ticks": 10512,
          "time": 46.2675825,
          "velocity": 0.7874015748031497
        },
        {
          "duration": 0.3169012500000008,
          "durationTicks": 72,
          "midi": 57,
          "name": "A3",
          "ticks": 10512,
          "time": 46.2675825,
          "velocity": 0.7874015748031497
        },
        {
          "duration": 0.3169012500000008,
          "durationTicks": 72,
          "midi": 52,
          "name": "E3",
          "ticks": 10512,
          "time": 46.2675825,
          "velocity": 0.7874015748031497
        },
        {
          "duration": 0.42253500000000344,
          "durationTicks": 96,
          "midi": 62,
          "name": "D4",
          "ticks": 10656,
          "time": 46.901385000000005,
          "velocity": 0.7874015748031497
        },
        {
          "duration": 0.42253500000000344,
          "durationTicks": 96,
          "midi": 57,
          "name": "A3",
          "ticks": 10656,
          "time": 46.901385000000005,
          "velocity": 0.7874015748031497
        },
        {
          "duration": 0.42253500000000344,
          "durationTicks": 96,
          "midi": 52,
          "name": "E3",
          "ticks": 10656,
          "time": 46.901385000000005,
          "velocity": 0.7874015748031497
        },
        {
          "duration": 0.21126750000000527,
          "durationTicks": 48,
          "midi": 61,
          "name": "C#4",
          "ticks": 10704,
          "time": 47.1126525,
          "velocity": 0.984251968503937
        },
        {
          "duration": 0.3169012500000008,
          "durationTicks": 72,
          "midi": 62,
          "name": "D4",
          "ticks": 10752,
          "time": 47.32392000000001,
          "velocity": 0.7874015748031497
        },
        {
          "duration": 0.3169012500000008,
          "durationTicks": 72,
          "midi": 57,
          "name": "A3",
          "ticks": 10752,
          "time": 47.32392000000001,
          "velocity": 0.7874015748031497
        },
        {
          "duration": 0.3169012500000008,
          "durationTicks": 72,
          "midi": 55,
          "name": "G3",
          "ticks": 10752,
          "time": 47.32392000000001,
          "velocity": 0.7874015748031497
        },
        {
          "duration": 0.3169012499999937,
          "durationTicks": 72,
          "midi": 62,
          "name": "D4",
          "ticks": 10824,
          "time": 47.64082125000001,
          "velocity": 0.7874015748031497
        },
        {
          "duration": 0.3169012499999937,
          "durationTicks": 72,
          "midi": 57,
          "name": "A3",
          "ticks": 10824,
          "time": 47.64082125000001,
          "velocity": 0.7874015748031497
        },
        {
          "duration": 0.3169012499999937,
          "durationTicks": 72,
          "midi": 55,
          "name": "G3",
          "ticks": 10824,
          "time": 47.64082125000001,
          "velocity": 0.7874015748031497
        },
        {
          "duration": 0.3169012500000008,
          "durationTicks": 72,
          "midi": 62,
          "name": "D4",
          "ticks": 10896,
          "time": 47.9577225,
          "velocity": 0.7874015748031497
        },
        {
          "duration": 0.3169012500000008,
          "durationTicks": 72,
          "midi": 57,
          "name": "A3",
          "ticks": 10896,
          "time": 47.9577225,
          "velocity": 0.7874015748031497
        },
        {
          "duration": 0.3169012500000008,
          "durationTicks": 72,
          "midi": 55,
          "name": "G3",
          "ticks": 10896,
          "time": 47.9577225,
          "velocity": 0.7874015748031497
        },
        {
          "duration": 0.42253500000000344,
          "durationTicks": 96,
          "midi": 62,
          "name": "D4",
          "ticks": 11040,
          "time": 48.591525000000004,
          "velocity": 0.7874015748031497
        },
        {
          "duration": 0.42253500000000344,
          "durationTicks": 96,
          "midi": 57,
          "name": "A3",
          "ticks": 11040,
          "time": 48.591525000000004,
          "velocity": 0.7874015748031497
        },
        {
          "duration": 0.42253500000000344,
          "durationTicks": 96,
          "midi": 55,
          "name": "G3",
          "ticks": 11040,
          "time": 48.591525000000004,
          "velocity": 0.7874015748031497
        },
        {
          "duration": 0.3169012500000008,
          "durationTicks": 72,
          "midi": 57,
          "name": "A3",
          "ticks": 11136,
          "time": 49.01406000000001,
          "velocity": 0.7874015748031497
        },
        {
          "duration": 0.3169012500000008,
          "durationTicks": 72,
          "midi": 66,
          "name": "F#4",
          "ticks": 11136,
          "time": 49.01406000000001,
          "velocity": 0.7874015748031497
        },
        {
          "duration": 0.3169012500000008,
          "durationTicks": 72,
          "midi": 61,
          "name": "C#4",
          "ticks": 11136,
          "time": 49.01406000000001,
          "velocity": 0.7874015748031497
        },
        {
          "duration": 0.3169012500000008,
          "durationTicks": 72,
          "midi": 57,
          "name": "A3",
          "ticks": 11208,
          "time": 49.33096125000001,
          "velocity": 0.7874015748031497
        },
        {
          "duration": 0.3169012500000008,
          "durationTicks": 72,
          "midi": 61,
          "name": "C#4",
          "ticks": 11208,
          "time": 49.33096125000001,
          "velocity": 0.7874015748031497
        },
        {
          "duration": 0.3169012500000008,
          "durationTicks": 72,
          "midi": 66,
          "name": "F#4",
          "ticks": 11208,
          "time": 49.33096125000001,
          "velocity": 0.7874015748031497
        },
        {
          "duration": 0.3169012499999937,
          "durationTicks": 72,
          "midi": 57,
          "name": "A3",
          "ticks": 11280,
          "time": 49.64786250000001,
          "velocity": 0.7874015748031497
        },
        {
          "duration": 0.3169012499999937,
          "durationTicks": 72,
          "midi": 66,
          "name": "F#4",
          "ticks": 11280,
          "time": 49.64786250000001,
          "velocity": 0.7874015748031497
        },
        {
          "duration": 0.3169012499999937,
          "durationTicks": 72,
          "midi": 61,
          "name": "C#4",
          "ticks": 11280,
          "time": 49.64786250000001,
          "velocity": 0.7874015748031497
        },
        {
          "duration": 0.42253500000000344,
          "durationTicks": 96,
          "midi": 57,
          "name": "A3",
          "ticks": 11424,
          "time": 50.281665000000004,
          "velocity": 0.7874015748031497
        },
        {
          "duration": 0.42253500000000344,
          "durationTicks": 96,
          "midi": 61,
          "name": "C#4",
          "ticks": 11424,
          "time": 50.281665000000004,
          "velocity": 0.7874015748031497
        },
        {
          "duration": 0.42253500000000344,
          "durationTicks": 96,
          "midi": 66,
          "name": "F#4",
          "ticks": 11424,
          "time": 50.281665000000004,
          "velocity": 0.7874015748031497
        },
        {
          "duration": 0.3169012500000008,
          "durationTicks": 72,
          "midi": 57,
          "name": "A3",
          "ticks": 11520,
          "time": 50.70420000000001,
          "velocity": 0.7874015748031497
        },
        {
          "duration": 0.3169012500000008,
          "durationTicks": 72,
          "midi": 62,
          "name": "D4",
          "ticks": 11520,
          "time": 50.70420000000001,
          "velocity": 0.7874015748031497
        },
        {
          "duration": 0.3169012500000008,
          "durationTicks": 72,
          "midi": 54,
          "name": "F#3",
          "ticks": 11520,
          "time": 50.70420000000001,
          "velocity": 0.7874015748031497
        },
        {
          "duration": 0.3169012500000008,
          "durationTicks": 72,
          "midi": 62,
          "name": "D4",
          "ticks": 11592,
          "time": 51.02110125000001,
          "velocity": 0.7874015748031497
        },
        {
          "duration": 0.3169012500000008,
          "durationTicks": 72,
          "midi": 57,
          "name": "A3",
          "ticks": 11592,
          "time": 51.02110125000001,
          "velocity": 0.7874015748031497
        },
        {
          "duration": 0.3169012500000008,
          "durationTicks": 72,
          "midi": 54,
          "name": "F#3",
          "ticks": 11592,
          "time": 51.02110125000001,
          "velocity": 0.7874015748031497
        },
        {
          "duration": 0.3169012499999937,
          "durationTicks": 72,
          "midi": 57,
          "name": "A3",
          "ticks": 11664,
          "time": 51.33800250000001,
          "velocity": 0.7874015748031497
        },
        {
          "duration": 0.3169012499999937,
          "durationTicks": 72,
          "midi": 62,
          "name": "D4",
          "ticks": 11664,
          "time": 51.33800250000001,
          "velocity": 0.7874015748031497
        },
        {
          "duration": 0.3169012499999937,
          "durationTicks": 72,
          "midi": 54,
          "name": "F#3",
          "ticks": 11664,
          "time": 51.33800250000001,
          "velocity": 0.7874015748031497
        },
        {
          "duration": 0.42253500000000344,
          "durationTicks": 96,
          "midi": 62,
          "name": "D4",
          "ticks": 11808,
          "time": 51.971805,
          "velocity": 0.7874015748031497
        },
        {
          "duration": 0.42253500000000344,
          "durationTicks": 96,
          "midi": 57,
          "name": "A3",
          "ticks": 11808,
          "time": 51.971805,
          "velocity": 0.7874015748031497
        },
        {
          "duration": 0.42253500000000344,
          "durationTicks": 96,
          "midi": 54,
          "name": "F#3",
          "ticks": 11808,
          "time": 51.971805,
          "velocity": 0.7874015748031497
        },
        {
          "duration": 0.3169012500000008,
          "durationTicks": 72,
          "midi": 62,
          "name": "D4",
          "ticks": 11904,
          "time": 52.39434000000001,
          "velocity": 0.7874015748031497
        },
        {
          "duration": 0.3169012500000008,
          "durationTicks": 72,
          "midi": 57,
          "name": "A3",
          "ticks": 11904,
          "time": 52.39434000000001,
          "velocity": 0.7874015748031497
        },
        {
          "duration": 0.3169012500000008,
          "durationTicks": 72,
          "midi": 52,
          "name": "E3",
          "ticks": 11904,
          "time": 52.39434000000001,
          "velocity": 0.7874015748031497
        },
        {
          "duration": 0.3169012500000008,
          "durationTicks": 72,
          "midi": 62,
          "name": "D4",
          "ticks": 11976,
          "time": 52.71124125000001,
          "velocity": 0.7874015748031497
        },
        {
          "duration": 0.3169012500000008,
          "durationTicks": 72,
          "midi": 57,
          "name": "A3",
          "ticks": 11976,
          "time": 52.71124125000001,
          "velocity": 0.7874015748031497
        },
        {
          "duration": 0.3169012500000008,
          "durationTicks": 72,
          "midi": 52,
          "name": "E3",
          "ticks": 11976,
          "time": 52.71124125000001,
          "velocity": 0.7874015748031497
        },
        {
          "duration": 0.3169012500000008,
          "durationTicks": 72,
          "midi": 62,
          "name": "D4",
          "ticks": 12048,
          "time": 53.02814250000001,
          "velocity": 0.7874015748031497
        },
        {
          "duration": 0.3169012500000008,
          "durationTicks": 72,
          "midi": 57,
          "name": "A3",
          "ticks": 12048,
          "time": 53.02814250000001,
          "velocity": 0.7874015748031497
        },
        {
          "duration": 0.3169012500000008,
          "durationTicks": 72,
          "midi": 52,
          "name": "E3",
          "ticks": 12048,
          "time": 53.02814250000001,
          "velocity": 0.7874015748031497
        },
        {
          "duration": 0.42253500000000344,
          "durationTicks": 96,
          "midi": 62,
          "name": "D4",
          "ticks": 12192,
          "time": 53.661945,
          "velocity": 0.7874015748031497
        },
        {
          "duration": 0.42253500000000344,
          "durationTicks": 96,
          "midi": 57,
          "name": "A3",
          "ticks": 12192,
          "time": 53.661945,
          "velocity": 0.7874015748031497
        },
        {
          "duration": 0.42253500000000344,
          "durationTicks": 96,
          "midi": 52,
          "name": "E3",
          "ticks": 12192,
          "time": 53.661945,
          "velocity": 0.7874015748031497
        },
        {
          "duration": 0.21126749999999817,
          "durationTicks": 48,
          "midi": 61,
          "name": "C#4",
          "ticks": 12240,
          "time": 53.87321250000001,
          "velocity": 0.984251968503937
        },
        {
          "duration": 0.3169012500000008,
          "durationTicks": 72,
          "midi": 62,
          "name": "D4",
          "ticks": 12288,
          "time": 54.084480000000006,
          "velocity": 0.7874015748031497
        },
        {
          "duration": 0.3169012500000008,
          "durationTicks": 72,
          "midi": 57,
          "name": "A3",
          "ticks": 12288,
          "time": 54.084480000000006,
          "velocity": 0.7874015748031497
        },
        {
          "duration": 0.3169012500000008,
          "durationTicks": 72,
          "midi": 55,
          "name": "G3",
          "ticks": 12288,
          "time": 54.084480000000006,
          "velocity": 0.7874015748031497
        },
        {
          "duration": 0.3169012500000008,
          "durationTicks": 72,
          "midi": 62,
          "name": "D4",
          "ticks": 12360,
          "time": 54.40138125000001,
          "velocity": 0.7874015748031497
        },
        {
          "duration": 0.3169012500000008,
          "durationTicks": 72,
          "midi": 57,
          "name": "A3",
          "ticks": 12360,
          "time": 54.40138125000001,
          "velocity": 0.7874015748031497
        },
        {
          "duration": 0.3169012500000008,
          "durationTicks": 72,
          "midi": 55,
          "name": "G3",
          "ticks": 12360,
          "time": 54.40138125000001,
          "velocity": 0.7874015748031497
        },
        {
          "duration": 0.3169012500000008,
          "durationTicks": 72,
          "midi": 62,
          "name": "D4",
          "ticks": 12432,
          "time": 54.71828250000001,
          "velocity": 0.7874015748031497
        },
        {
          "duration": 0.3169012500000008,
          "durationTicks": 72,
          "midi": 57,
          "name": "A3",
          "ticks": 12432,
          "time": 54.71828250000001,
          "velocity": 0.7874015748031497
        },
        {
          "duration": 0.3169012500000008,
          "durationTicks": 72,
          "midi": 55,
          "name": "G3",
          "ticks": 12432,
          "time": 54.71828250000001,
          "velocity": 0.7874015748031497
        },
        {
          "duration": 0.42253499999999633,
          "durationTicks": 96,
          "midi": 62,
          "name": "D4",
          "ticks": 12576,
          "time": 55.35208500000001,
          "velocity": 0.7874015748031497
        },
        {
          "duration": 0.42253499999999633,
          "durationTicks": 96,
          "midi": 57,
          "name": "A3",
          "ticks": 12576,
          "time": 55.35208500000001,
          "velocity": 0.7874015748031497
        },
        {
          "duration": 0.42253499999999633,
          "durationTicks": 96,
          "midi": 55,
          "name": "G3",
          "ticks": 12576,
          "time": 55.35208500000001,
          "velocity": 0.7874015748031497
        },
        {
          "duration": 0.3169012500000008,
          "durationTicks": 72,
          "midi": 57,
          "name": "A3",
          "ticks": 12672,
          "time": 55.774620000000006,
          "velocity": 0.7874015748031497
        },
        {
          "duration": 0.3169012500000008,
          "durationTicks": 72,
          "midi": 66,
          "name": "F#4",
          "ticks": 12672,
          "time": 55.774620000000006,
          "velocity": 0.7874015748031497
        },
        {
          "duration": 0.3169012500000008,
          "durationTicks": 72,
          "midi": 61,
          "name": "C#4",
          "ticks": 12672,
          "time": 55.774620000000006,
          "velocity": 0.7874015748031497
        },
        {
          "duration": 0.3169012500000008,
          "durationTicks": 72,
          "midi": 57,
          "name": "A3",
          "ticks": 12744,
          "time": 56.09152125000001,
          "velocity": 0.7874015748031497
        },
        {
          "duration": 0.3169012500000008,
          "durationTicks": 72,
          "midi": 61,
          "name": "C#4",
          "ticks": 12744,
          "time": 56.09152125000001,
          "velocity": 0.7874015748031497
        },
        {
          "duration": 0.3169012500000008,
          "durationTicks": 72,
          "midi": 66,
          "name": "F#4",
          "ticks": 12744,
          "time": 56.09152125000001,
          "velocity": 0.7874015748031497
        },
        {
          "duration": 0.3169012500000008,
          "durationTicks": 72,
          "midi": 57,
          "name": "A3",
          "ticks": 12816,
          "time": 56.40842250000001,
          "velocity": 0.7874015748031497
        },
        {
          "duration": 0.3169012500000008,
          "durationTicks": 72,
          "midi": 66,
          "name": "F#4",
          "ticks": 12816,
          "time": 56.40842250000001,
          "velocity": 0.7874015748031497
        },
        {
          "duration": 0.3169012500000008,
          "durationTicks": 72,
          "midi": 61,
          "name": "C#4",
          "ticks": 12816,
          "time": 56.40842250000001,
          "velocity": 0.7874015748031497
        },
        {
          "duration": 0.42253499999999633,
          "durationTicks": 96,
          "midi": 57,
          "name": "A3",
          "ticks": 12960,
          "time": 57.04222500000001,
          "velocity": 0.7874015748031497
        },
        {
          "duration": 0.42253499999999633,
          "durationTicks": 96,
          "midi": 61,
          "name": "C#4",
          "ticks": 12960,
          "time": 57.04222500000001,
          "velocity": 0.7874015748031497
        },
        {
          "duration": 0.42253499999999633,
          "durationTicks": 96,
          "midi": 66,
          "name": "F#4",
          "ticks": 12960,
          "time": 57.04222500000001,
          "velocity": 0.7874015748031497
        },
        {
          "duration": 0.3169012500000008,
          "durationTicks": 72,
          "midi": 57,
          "name": "A3",
          "ticks": 13056,
          "time": 57.464760000000005,
          "velocity": 0.7874015748031497
        },
        {
          "duration": 0.3169012500000008,
          "durationTicks": 72,
          "midi": 62,
          "name": "D4",
          "ticks": 13056,
          "time": 57.464760000000005,
          "velocity": 0.7874015748031497
        },
        {
          "duration": 0.3169012500000008,
          "durationTicks": 72,
          "midi": 54,
          "name": "F#3",
          "ticks": 13056,
          "time": 57.464760000000005,
          "velocity": 0.7874015748031497
        },
        {
          "duration": 0.3169012500000008,
          "durationTicks": 72,
          "midi": 62,
          "name": "D4",
          "ticks": 13128,
          "time": 57.781661250000006,
          "velocity": 0.7874015748031497
        },
        {
          "duration": 0.3169012500000008,
          "durationTicks": 72,
          "midi": 57,
          "name": "A3",
          "ticks": 13128,
          "time": 57.781661250000006,
          "velocity": 0.7874015748031497
        },
        {
          "duration": 0.3169012500000008,
          "durationTicks": 72,
          "midi": 54,
          "name": "F#3",
          "ticks": 13128,
          "time": 57.781661250000006,
          "velocity": 0.7874015748031497
        },
        {
          "duration": 0.3169012500000008,
          "durationTicks": 72,
          "midi": 57,
          "name": "A3",
          "ticks": 13200,
          "time": 58.09856250000001,
          "velocity": 0.7874015748031497
        },
        {
          "duration": 0.3169012500000008,
          "durationTicks": 72,
          "midi": 62,
          "name": "D4",
          "ticks": 13200,
          "time": 58.09856250000001,
          "velocity": 0.7874015748031497
        },
        {
          "duration": 0.3169012500000008,
          "durationTicks": 72,
          "midi": 54,
          "name": "F#3",
          "ticks": 13200,
          "time": 58.09856250000001,
          "velocity": 0.7874015748031497
        },
        {
          "duration": 0.42253499999999633,
          "durationTicks": 96,
          "midi": 62,
          "name": "D4",
          "ticks": 13344,
          "time": 58.73236500000001,
          "velocity": 0.7874015748031497
        },
        {
          "duration": 0.42253499999999633,
          "durationTicks": 96,
          "midi": 57,
          "name": "A3",
          "ticks": 13344,
          "time": 58.73236500000001,
          "velocity": 0.7874015748031497
        },
        {
          "duration": 0.42253499999999633,
          "durationTicks": 96,
          "midi": 54,
          "name": "F#3",
          "ticks": 13344,
          "time": 58.73236500000001,
          "velocity": 0.7874015748031497
        },
        {
          "duration": 0.3169012500000008,
          "durationTicks": 72,
          "midi": 62,
          "name": "D4",
          "ticks": 13440,
          "time": 59.154900000000005,
          "velocity": 0.7874015748031497
        },
        {
          "duration": 0.3169012500000008,
          "durationTicks": 72,
          "midi": 57,
          "name": "A3",
          "ticks": 13440,
          "time": 59.154900000000005,
          "velocity": 0.7874015748031497
        },
        {
          "duration": 0.3169012500000008,
          "durationTicks": 72,
          "midi": 52,
          "name": "E3",
          "ticks": 13440,
          "time": 59.154900000000005,
          "velocity": 0.7874015748031497
        },
        {
          "duration": 0.3169012500000008,
          "durationTicks": 72,
          "midi": 62,
          "name": "D4",
          "ticks": 13512,
          "time": 59.471801250000006,
          "velocity": 0.7874015748031497
        },
        {
          "duration": 0.3169012500000008,
          "durationTicks": 72,
          "midi": 57,
          "name": "A3",
          "ticks": 13512,
          "time": 59.471801250000006,
          "velocity": 0.7874015748031497
        },
        {
          "duration": 0.3169012500000008,
          "durationTicks": 72,
          "midi": 52,
          "name": "E3",
          "ticks": 13512,
          "time": 59.471801250000006,
          "velocity": 0.7874015748031497
        },
        {
          "duration": 0.3169012500000008,
          "durationTicks": 72,
          "midi": 62,
          "name": "D4",
          "ticks": 13584,
          "time": 59.78870250000001,
          "velocity": 0.7874015748031497
        },
        {
          "duration": 0.3169012500000008,
          "durationTicks": 72,
          "midi": 57,
          "name": "A3",
          "ticks": 13584,
          "time": 59.78870250000001,
          "velocity": 0.7874015748031497
        },
        {
          "duration": 0.3169012500000008,
          "durationTicks": 72,
          "midi": 52,
          "name": "E3",
          "ticks": 13584,
          "time": 59.78870250000001,
          "velocity": 0.7874015748031497
        },
        {
          "duration": 0.42253499999999633,
          "durationTicks": 96,
          "midi": 62,
          "name": "D4",
          "ticks": 13728,
          "time": 60.42250500000001,
          "velocity": 0.7874015748031497
        },
        {
          "duration": 0.42253499999999633,
          "durationTicks": 96,
          "midi": 57,
          "name": "A3",
          "ticks": 13728,
          "time": 60.42250500000001,
          "velocity": 0.7874015748031497
        },
        {
          "duration": 0.42253499999999633,
          "durationTicks": 96,
          "midi": 52,
          "name": "E3",
          "ticks": 13728,
          "time": 60.42250500000001,
          "velocity": 0.7874015748031497
        },
        {
          "duration": 0.21126749999999817,
          "durationTicks": 48,
          "midi": 61,
          "name": "C#4",
          "ticks": 13776,
          "time": 60.633772500000006,
          "velocity": 0.984251968503937
        },
        {
          "duration": 0.3169012500000008,
          "durationTicks": 72,
          "midi": 62,
          "name": "D4",
          "ticks": 13824,
          "time": 60.845040000000004,
          "velocity": 0.7874015748031497
        },
        {
          "duration": 0.3169012500000008,
          "durationTicks": 72,
          "midi": 57,
          "name": "A3",
          "ticks": 13824,
          "time": 60.845040000000004,
          "velocity": 0.7874015748031497
        },
        {
          "duration": 0.3169012500000008,
          "durationTicks": 72,
          "midi": 55,
          "name": "G3",
          "ticks": 13824,
          "time": 60.845040000000004,
          "velocity": 0.7874015748031497
        },
        {
          "duration": 0.3169012500000008,
          "durationTicks": 72,
          "midi": 62,
          "name": "D4",
          "ticks": 13896,
          "time": 61.161941250000005,
          "velocity": 0.7874015748031497
        },
        {
          "duration": 0.3169012500000008,
          "durationTicks": 72,
          "midi": 57,
          "name": "A3",
          "ticks": 13896,
          "time": 61.161941250000005,
          "velocity": 0.7874015748031497
        },
        {
          "duration": 0.3169012500000008,
          "durationTicks": 72,
          "midi": 55,
          "name": "G3",
          "ticks": 13896,
          "time": 61.161941250000005,
          "velocity": 0.7874015748031497
        },
        {
          "duration": 0.3169012500000008,
          "durationTicks": 72,
          "midi": 62,
          "name": "D4",
          "ticks": 13968,
          "time": 61.478842500000006,
          "velocity": 0.7874015748031497
        },
        {
          "duration": 0.3169012500000008,
          "durationTicks": 72,
          "midi": 57,
          "name": "A3",
          "ticks": 13968,
          "time": 61.478842500000006,
          "velocity": 0.7874015748031497
        },
        {
          "duration": 0.3169012500000008,
          "durationTicks": 72,
          "midi": 55,
          "name": "G3",
          "ticks": 13968,
          "time": 61.478842500000006,
          "velocity": 0.7874015748031497
        },
        {
          "duration": 0.42253499999999633,
          "durationTicks": 96,
          "midi": 62,
          "name": "D4",
          "ticks": 14112,
          "time": 62.11264500000001,
          "velocity": 0.7874015748031497
        },
        {
          "duration": 0.42253499999999633,
          "durationTicks": 96,
          "midi": 57,
          "name": "A3",
          "ticks": 14112,
          "time": 62.11264500000001,
          "velocity": 0.7874015748031497
        },
        {
          "duration": 0.42253499999999633,
          "durationTicks": 96,
          "midi": 55,
          "name": "G3",
          "ticks": 14112,
          "time": 62.11264500000001,
          "velocity": 0.7874015748031497
        },
        {
          "duration": 0.3169012500000008,
          "durationTicks": 72,
          "midi": 57,
          "name": "A3",
          "ticks": 14208,
          "time": 62.535180000000004,
          "velocity": 0.7874015748031497
        },
        {
          "duration": 0.3169012500000008,
          "durationTicks": 72,
          "midi": 66,
          "name": "F#4",
          "ticks": 14208,
          "time": 62.535180000000004,
          "velocity": 0.7874015748031497
        },
        {
          "duration": 0.3169012500000008,
          "durationTicks": 72,
          "midi": 61,
          "name": "C#4",
          "ticks": 14208,
          "time": 62.535180000000004,
          "velocity": 0.7874015748031497
        },
        {
          "duration": 0.3169012500000008,
          "durationTicks": 72,
          "midi": 57,
          "name": "A3",
          "ticks": 14280,
          "time": 62.852081250000005,
          "velocity": 0.7874015748031497
        },
        {
          "duration": 0.3169012500000008,
          "durationTicks": 72,
          "midi": 61,
          "name": "C#4",
          "ticks": 14280,
          "time": 62.852081250000005,
          "velocity": 0.7874015748031497
        },
        {
          "duration": 0.3169012500000008,
          "durationTicks": 72,
          "midi": 66,
          "name": "F#4",
          "ticks": 14280,
          "time": 62.852081250000005,
          "velocity": 0.7874015748031497
        },
        {
          "duration": 0.3169012500000008,
          "durationTicks": 72,
          "midi": 57,
          "name": "A3",
          "ticks": 14352,
          "time": 63.168982500000006,
          "velocity": 0.7874015748031497
        },
        {
          "duration": 0.3169012500000008,
          "durationTicks": 72,
          "midi": 66,
          "name": "F#4",
          "ticks": 14352,
          "time": 63.168982500000006,
          "velocity": 0.7874015748031497
        },
        {
          "duration": 0.3169012500000008,
          "durationTicks": 72,
          "midi": 61,
          "name": "C#4",
          "ticks": 14352,
          "time": 63.168982500000006,
          "velocity": 0.7874015748031497
        },
        {
          "duration": 0.42253500000000344,
          "durationTicks": 96,
          "midi": 57,
          "name": "A3",
          "ticks": 14496,
          "time": 63.80278500000001,
          "velocity": 0.7874015748031497
        },
        {
          "duration": 0.42253500000000344,
          "durationTicks": 96,
          "midi": 61,
          "name": "C#4",
          "ticks": 14496,
          "time": 63.80278500000001,
          "velocity": 0.7874015748031497
        },
        {
          "duration": 0.42253500000000344,
          "durationTicks": 96,
          "midi": 66,
          "name": "F#4",
          "ticks": 14496,
          "time": 63.80278500000001,
          "velocity": 0.7874015748031497
        },
        {
          "duration": 0.3169012500000008,
          "durationTicks": 72,
          "midi": 57,
          "name": "A3",
          "ticks": 14592,
          "time": 64.22532000000001,
          "velocity": 0.7874015748031497
        },
        {
          "duration": 0.3169012500000008,
          "durationTicks": 72,
          "midi": 62,
          "name": "D4",
          "ticks": 14592,
          "time": 64.22532000000001,
          "velocity": 0.7874015748031497
        },
        {
          "duration": 0.3169012500000008,
          "durationTicks": 72,
          "midi": 54,
          "name": "F#3",
          "ticks": 14592,
          "time": 64.22532000000001,
          "velocity": 0.7874015748031497
        },
        {
          "duration": 0.3169012500000008,
          "durationTicks": 72,
          "midi": 62,
          "name": "D4",
          "ticks": 14664,
          "time": 64.54222125000001,
          "velocity": 0.7874015748031497
        },
        {
          "duration": 0.3169012500000008,
          "durationTicks": 72,
          "midi": 57,
          "name": "A3",
          "ticks": 14664,
          "time": 64.54222125000001,
          "velocity": 0.7874015748031497
        },
        {
          "duration": 0.3169012500000008,
          "durationTicks": 72,
          "midi": 54,
          "name": "F#3",
          "ticks": 14664,
          "time": 64.54222125000001,
          "velocity": 0.7874015748031497
        },
        {
          "duration": 0.3169012500000008,
          "durationTicks": 72,
          "midi": 57,
          "name": "A3",
          "ticks": 14736,
          "time": 64.85912250000001,
          "velocity": 0.7874015748031497
        },
        {
          "duration": 0.3169012500000008,
          "durationTicks": 72,
          "midi": 62,
          "name": "D4",
          "ticks": 14736,
          "time": 64.85912250000001,
          "velocity": 0.7874015748031497
        },
        {
          "duration": 0.3169012500000008,
          "durationTicks": 72,
          "midi": 54,
          "name": "F#3",
          "ticks": 14736,
          "time": 64.85912250000001,
          "velocity": 0.7874015748031497
        },
        {
          "duration": 0.42253499999999633,
          "durationTicks": 96,
          "midi": 62,
          "name": "D4",
          "ticks": 14880,
          "time": 65.49292500000001,
          "velocity": 0.7874015748031497
        },
        {
          "duration": 0.42253499999999633,
          "durationTicks": 96,
          "midi": 57,
          "name": "A3",
          "ticks": 14880,
          "time": 65.49292500000001,
          "velocity": 0.7874015748031497
        },
        {
          "duration": 0.42253499999999633,
          "durationTicks": 96,
          "midi": 54,
          "name": "F#3",
          "ticks": 14880,
          "time": 65.49292500000001,
          "velocity": 0.7874015748031497
        },
        {
          "duration": 0.3169012500000008,
          "durationTicks": 72,
          "midi": 62,
          "name": "D4",
          "ticks": 14976,
          "time": 65.91546000000001,
          "velocity": 0.7874015748031497
        },
        {
          "duration": 0.3169012500000008,
          "durationTicks": 72,
          "midi": 57,
          "name": "A3",
          "ticks": 14976,
          "time": 65.91546000000001,
          "velocity": 0.7874015748031497
        },
        {
          "duration": 0.3169012500000008,
          "durationTicks": 72,
          "midi": 52,
          "name": "E3",
          "ticks": 14976,
          "time": 65.91546000000001,
          "velocity": 0.7874015748031497
        },
        {
          "duration": 0.3169012500000008,
          "durationTicks": 72,
          "midi": 62,
          "name": "D4",
          "ticks": 15048,
          "time": 66.23236125000001,
          "velocity": 0.7874015748031497
        },
        {
          "duration": 0.3169012500000008,
          "durationTicks": 72,
          "midi": 57,
          "name": "A3",
          "ticks": 15048,
          "time": 66.23236125000001,
          "velocity": 0.7874015748031497
        },
        {
          "duration": 0.3169012500000008,
          "durationTicks": 72,
          "midi": 52,
          "name": "E3",
          "ticks": 15048,
          "time": 66.23236125000001,
          "velocity": 0.7874015748031497
        },
        {
          "duration": 0.3169012500000008,
          "durationTicks": 72,
          "midi": 62,
          "name": "D4",
          "ticks": 15120,
          "time": 66.54926250000001,
          "velocity": 0.7874015748031497
        },
        {
          "duration": 0.3169012500000008,
          "durationTicks": 72,
          "midi": 57,
          "name": "A3",
          "ticks": 15120,
          "time": 66.54926250000001,
          "velocity": 0.7874015748031497
        },
        {
          "duration": 0.3169012500000008,
          "durationTicks": 72,
          "midi": 52,
          "name": "E3",
          "ticks": 15120,
          "time": 66.54926250000001,
          "velocity": 0.7874015748031497
        },
        {
          "duration": 0.42253499999999633,
          "durationTicks": 96,
          "midi": 62,
          "name": "D4",
          "ticks": 15264,
          "time": 67.18306500000001,
          "velocity": 0.7874015748031497
        },
        {
          "duration": 0.42253499999999633,
          "durationTicks": 96,
          "midi": 57,
          "name": "A3",
          "ticks": 15264,
          "time": 67.18306500000001,
          "velocity": 0.7874015748031497
        },
        {
          "duration": 0.42253499999999633,
          "durationTicks": 96,
          "midi": 52,
          "name": "E3",
          "ticks": 15264,
          "time": 67.18306500000001,
          "velocity": 0.7874015748031497
        },
        {
          "duration": 0,
          "durationTicks": 0,
          "midi": 67,
          "name": "G4",
          "ticks": 33864,
          "time": 149.04922125000002,
          "velocity": 0.007874015748031496
        },
        {
          "duration": 0,
          "durationTicks": 0,
          "midi": 69,
          "name": "A4",
          "ticks": 33864,
          "time": 149.04922125000002,
          "velocity": 0.007874015748031496
        },
        {
          "duration": 0,
          "durationTicks": 0,
          "midi": 74,
          "name": "D5",
          "ticks": 33864,
          "time": 149.04922125000002,
          "velocity": 0.007874015748031496
        },
        {
          "duration": 0,
          "durationTicks": 0,
          "midi": 67,
          "name": "G4",
          "ticks": 33936,
          "time": 149.36612250000002,
          "velocity": 0.031496062992125984
        },
        {
          "duration": 0,
          "durationTicks": 0,
          "midi": 69,
          "name": "A4",
          "ticks": 33936,
          "time": 149.36612250000002,
          "velocity": 0.031496062992125984
        },
        {
          "duration": 0,
          "durationTicks": 0,
          "midi": 74,
          "name": "D5",
          "ticks": 33936,
          "time": 149.36612250000002,
          "velocity": 0.031496062992125984
        },
        {
          "duration": 0.42253500000001054,
          "durationTicks": 96,
          "midi": 74,
          "name": "D5",
          "ticks": 34080,
          "time": 149.99992500000002,
          "velocity": 0.07874015748031496
        },
        {
          "duration": 0.42253500000001054,
          "durationTicks": 96,
          "midi": 69,
          "name": "A4",
          "ticks": 34080,
          "time": 149.99992500000002,
          "velocity": 0.07874015748031496
        },
        {
          "duration": 0.42253500000001054,
          "durationTicks": 96,
          "midi": 67,
          "name": "G4",
          "ticks": 34080,
          "time": 149.99992500000002,
          "velocity": 0.07874015748031496
        },
        {
          "duration": 0.3169012500000008,
          "durationTicks": 72,
          "midi": 73,
          "name": "C#5",
          "ticks": 34176,
          "time": 150.42246000000003,
          "velocity": 0.10236220472440945
        },
        {
          "duration": 0.3169012500000008,
          "durationTicks": 72,
          "midi": 78,
          "name": "F#5",
          "ticks": 34176,
          "time": 150.42246000000003,
          "velocity": 0.10236220472440945
        },
        {
          "duration": 0.3169012500000008,
          "durationTicks": 72,
          "midi": 69,
          "name": "A4",
          "ticks": 34176,
          "time": 150.42246000000003,
          "velocity": 0.10236220472440945
        },
        {
          "duration": 0.3169012500000008,
          "durationTicks": 72,
          "midi": 78,
          "name": "F#5",
          "ticks": 34248,
          "time": 150.73936125000003,
          "velocity": 0.12598425196850394
        },
        {
          "duration": 0.3169012500000008,
          "durationTicks": 72,
          "midi": 73,
          "name": "C#5",
          "ticks": 34248,
          "time": 150.73936125000003,
          "velocity": 0.12598425196850394
        },
        {
          "duration": 0.3169012500000008,
          "durationTicks": 72,
          "midi": 69,
          "name": "A4",
          "ticks": 34248,
          "time": 150.73936125000003,
          "velocity": 0.12598425196850394
        },
        {
          "duration": 0.3169012500000008,
          "durationTicks": 72,
          "midi": 69,
          "name": "A4",
          "ticks": 34320,
          "time": 151.05626250000003,
          "velocity": 0.14960629921259844
        },
        {
          "duration": 0.3169012500000008,
          "durationTicks": 72,
          "midi": 78,
          "name": "F#5",
          "ticks": 34320,
          "time": 151.05626250000003,
          "velocity": 0.14960629921259844
        },
        {
          "duration": 0.3169012500000008,
          "durationTicks": 72,
          "midi": 73,
          "name": "C#5",
          "ticks": 34320,
          "time": 151.05626250000003,
          "velocity": 0.14960629921259844
        },
        {
          "duration": 0.42253500000001054,
          "durationTicks": 96,
          "midi": 78,
          "name": "F#5",
          "ticks": 34464,
          "time": 151.690065,
          "velocity": 0.1968503937007874
        },
        {
          "duration": 0.42253500000001054,
          "durationTicks": 96,
          "midi": 73,
          "name": "C#5",
          "ticks": 34464,
          "time": 151.690065,
          "velocity": 0.1968503937007874
        },
        {
          "duration": 0.42253500000001054,
          "durationTicks": 96,
          "midi": 69,
          "name": "A4",
          "ticks": 34464,
          "time": 151.690065,
          "velocity": 0.1968503937007874
        },
        {
          "duration": 0.3169012500000008,
          "durationTicks": 72,
          "midi": 69,
          "name": "A4",
          "ticks": 34560,
          "time": 152.11260000000001,
          "velocity": 0.2204724409448819
        },
        {
          "duration": 0.3169012500000008,
          "durationTicks": 72,
          "midi": 74,
          "name": "D5",
          "ticks": 34560,
          "time": 152.11260000000001,
          "velocity": 0.2204724409448819
        },
        {
          "duration": 0.3169012500000008,
          "durationTicks": 72,
          "midi": 66,
          "name": "F#4",
          "ticks": 34560,
          "time": 152.11260000000001,
          "velocity": 0.2204724409448819
        },
        {
          "duration": 0.3169012500000008,
          "durationTicks": 72,
          "midi": 66,
          "name": "F#4",
          "ticks": 34632,
          "time": 152.42950125000002,
          "velocity": 0.2440944881889764
        },
        {
          "duration": 0.3169012500000008,
          "durationTicks": 72,
          "midi": 69,
          "name": "A4",
          "ticks": 34632,
          "time": 152.42950125000002,
          "velocity": 0.2440944881889764
        },
        {
          "duration": 0.3169012500000008,
          "durationTicks": 72,
          "midi": 74,
          "name": "D5",
          "ticks": 34632,
          "time": 152.42950125000002,
          "velocity": 0.2440944881889764
        },
        {
          "duration": 0.3169012500000008,
          "durationTicks": 72,
          "midi": 66,
          "name": "F#4",
          "ticks": 34704,
          "time": 152.74640250000002,
          "velocity": 0.2677165354330709
        },
        {
          "duration": 0.3169012500000008,
          "durationTicks": 72,
          "midi": 74,
          "name": "D5",
          "ticks": 34704,
          "time": 152.74640250000002,
          "velocity": 0.2677165354330709
        },
        {
          "duration": 0.3169012500000008,
          "durationTicks": 72,
          "midi": 69,
          "name": "A4",
          "ticks": 34704,
          "time": 152.74640250000002,
          "velocity": 0.2677165354330709
        },
        {
          "duration": 0.42253500000001054,
          "durationTicks": 96,
          "midi": 74,
          "name": "D5",
          "ticks": 34848,
          "time": 153.38020500000002,
          "velocity": 0.31496062992125984
        },
        {
          "duration": 0.42253500000001054,
          "durationTicks": 96,
          "midi": 69,
          "name": "A4",
          "ticks": 34848,
          "time": 153.38020500000002,
          "velocity": 0.31496062992125984
        },
        {
          "duration": 0.42253500000001054,
          "durationTicks": 96,
          "midi": 66,
          "name": "F#4",
          "ticks": 34848,
          "time": 153.38020500000002,
          "velocity": 0.31496062992125984
        },
        {
          "duration": 0.3169012500000008,
          "durationTicks": 72,
          "midi": 74,
          "name": "D5",
          "ticks": 34944,
          "time": 153.80274000000003,
          "velocity": 0.33858267716535434
        },
        {
          "duration": 0.3169012500000008,
          "durationTicks": 72,
          "midi": 69,
          "name": "A4",
          "ticks": 34944,
          "time": 153.80274000000003,
          "velocity": 0.33858267716535434
        },
        {
          "duration": 0.3169012500000008,
          "durationTicks": 72,
          "midi": 64,
          "name": "E4",
          "ticks": 34944,
          "time": 153.80274000000003,
          "velocity": 0.33858267716535434
        },
        {
          "duration": 0.3169012500000008,
          "durationTicks": 72,
          "midi": 74,
          "name": "D5",
          "ticks": 35016,
          "time": 154.11964125000003,
          "velocity": 0.36220472440944884
        },
        {
          "duration": 0.3169012500000008,
          "durationTicks": 72,
          "midi": 69,
          "name": "A4",
          "ticks": 35016,
          "time": 154.11964125000003,
          "velocity": 0.36220472440944884
        },
        {
          "duration": 0.3169012500000008,
          "durationTicks": 72,
          "midi": 64,
          "name": "E4",
          "ticks": 35016,
          "time": 154.11964125000003,
          "velocity": 0.36220472440944884
        },
        {
          "duration": 0.3169012500000008,
          "durationTicks": 72,
          "midi": 74,
          "name": "D5",
          "ticks": 35088,
          "time": 154.43654250000003,
          "velocity": 0.3858267716535433
        },
        {
          "duration": 0.3169012500000008,
          "durationTicks": 72,
          "midi": 69,
          "name": "A4",
          "ticks": 35088,
          "time": 154.43654250000003,
          "velocity": 0.3858267716535433
        },
        {
          "duration": 0.3169012500000008,
          "durationTicks": 72,
          "midi": 64,
          "name": "E4",
          "ticks": 35088,
          "time": 154.43654250000003,
          "velocity": 0.3858267716535433
        },
        {
          "duration": 0.4225349999999821,
          "durationTicks": 96,
          "midi": 64,
          "name": "E4",
          "ticks": 35232,
          "time": 155.07034500000003,
          "velocity": 0.4330708661417323
        },
        {
          "duration": 0.4225349999999821,
          "durationTicks": 96,
          "midi": 69,
          "name": "A4",
          "ticks": 35232,
          "time": 155.07034500000003,
          "velocity": 0.4330708661417323
        },
        {
          "duration": 0.4225349999999821,
          "durationTicks": 96,
          "midi": 74,
          "name": "D5",
          "ticks": 35232,
          "time": 155.07034500000003,
          "velocity": 0.4330708661417323
        },
        {
          "duration": 0.3169012500000008,
          "durationTicks": 72,
          "midi": 74,
          "name": "D5",
          "ticks": 35328,
          "time": 155.49288,
          "velocity": 0.4566929133858268
        },
        {
          "duration": 0.3169012500000008,
          "durationTicks": 72,
          "midi": 69,
          "name": "A4",
          "ticks": 35328,
          "time": 155.49288,
          "velocity": 0.4566929133858268
        },
        {
          "duration": 0.3169012500000008,
          "durationTicks": 72,
          "midi": 67,
          "name": "G4",
          "ticks": 35328,
          "time": 155.49288,
          "velocity": 0.4566929133858268
        },
        {
          "duration": 0.3169012500000008,
          "durationTicks": 72,
          "midi": 74,
          "name": "D5",
          "ticks": 35400,
          "time": 155.80978125000001,
          "velocity": 0.48031496062992124
        },
        {
          "duration": 0.3169012500000008,
          "durationTicks": 72,
          "midi": 69,
          "name": "A4",
          "ticks": 35400,
          "time": 155.80978125000001,
          "velocity": 0.48031496062992124
        },
        {
          "duration": 0.3169012500000008,
          "durationTicks": 72,
          "midi": 67,
          "name": "G4",
          "ticks": 35400,
          "time": 155.80978125000001,
          "velocity": 0.48031496062992124
        },
        {
          "duration": 0.3169012500000008,
          "durationTicks": 72,
          "midi": 74,
          "name": "D5",
          "ticks": 35472,
          "time": 156.12668250000002,
          "velocity": 0.5039370078740157
        },
        {
          "duration": 0.3169012500000008,
          "durationTicks": 72,
          "midi": 69,
          "name": "A4",
          "ticks": 35472,
          "time": 156.12668250000002,
          "velocity": 0.5039370078740157
        },
        {
          "duration": 0.3169012500000008,
          "durationTicks": 72,
          "midi": 67,
          "name": "G4",
          "ticks": 35472,
          "time": 156.12668250000002,
          "velocity": 0.5039370078740157
        },
        {
          "duration": 0.42253500000001054,
          "durationTicks": 96,
          "midi": 74,
          "name": "D5",
          "ticks": 35616,
          "time": 156.76048500000002,
          "velocity": 0.5511811023622047
        },
        {
          "duration": 0.42253500000001054,
          "durationTicks": 96,
          "midi": 69,
          "name": "A4",
          "ticks": 35616,
          "time": 156.76048500000002,
          "velocity": 0.5511811023622047
        },
        {
          "duration": 0.42253500000001054,
          "durationTicks": 96,
          "midi": 67,
          "name": "G4",
          "ticks": 35616,
          "time": 156.76048500000002,
          "velocity": 0.5511811023622047
        },
        {
          "duration": 0.3169012500000008,
          "durationTicks": 72,
          "midi": 69,
          "name": "A4",
          "ticks": 35712,
          "time": 157.18302000000003,
          "velocity": 0.5748031496062992
        },
        {
          "duration": 0.3169012500000008,
          "durationTicks": 72,
          "midi": 78,
          "name": "F#5",
          "ticks": 35712,
          "time": 157.18302000000003,
          "velocity": 0.5748031496062992
        },
        {
          "duration": 0.3169012500000008,
          "durationTicks": 72,
          "midi": 73,
          "name": "C#5",
          "ticks": 35712,
          "time": 157.18302000000003,
          "velocity": 0.5748031496062992
        },
        {
          "duration": 0.3169012500000008,
          "durationTicks": 72,
          "midi": 69,
          "name": "A4",
          "ticks": 35784,
          "time": 157.49992125000003,
          "velocity": 0.5984251968503937
        },
        {
          "duration": 0.3169012500000008,
          "durationTicks": 72,
          "midi": 73,
          "name": "C#5",
          "ticks": 35784,
          "time": 157.49992125000003,
          "velocity": 0.5984251968503937
        },
        {
          "duration": 0.3169012500000008,
          "durationTicks": 72,
          "midi": 78,
          "name": "F#5",
          "ticks": 35784,
          "time": 157.49992125000003,
          "velocity": 0.5984251968503937
        },
        {
          "duration": 0.3169012500000008,
          "durationTicks": 72,
          "midi": 69,
          "name": "A4",
          "ticks": 35856,
          "time": 157.81682250000003,
          "velocity": 0.6220472440944882
        },
        {
          "duration": 0.3169012500000008,
          "durationTicks": 72,
          "midi": 78,
          "name": "F#5",
          "ticks": 35856,
          "time": 157.81682250000003,
          "velocity": 0.6220472440944882
        },
        {
          "duration": 0.3169012500000008,
          "durationTicks": 72,
          "midi": 73,
          "name": "C#5",
          "ticks": 35856,
          "time": 157.81682250000003,
          "velocity": 0.6220472440944882
        },
        {
          "duration": 0.4225349999999821,
          "durationTicks": 96,
          "midi": 69,
          "name": "A4",
          "ticks": 36000,
          "time": 158.45062500000003,
          "velocity": 0.6692913385826772
        },
        {
          "duration": 0.4225349999999821,
          "durationTicks": 96,
          "midi": 73,
          "name": "C#5",
          "ticks": 36000,
          "time": 158.45062500000003,
          "velocity": 0.6692913385826772
        },
        {
          "duration": 0.4225349999999821,
          "durationTicks": 96,
          "midi": 78,
          "name": "F#5",
          "ticks": 36000,
          "time": 158.45062500000003,
          "velocity": 0.6692913385826772
        },
        {
          "duration": 0.3169012500000008,
          "durationTicks": 72,
          "midi": 69,
          "name": "A4",
          "ticks": 36096,
          "time": 158.87316,
          "velocity": 0.6929133858267716
        },
        {
          "duration": 0.3169012500000008,
          "durationTicks": 72,
          "midi": 74,
          "name": "D5",
          "ticks": 36096,
          "time": 158.87316,
          "velocity": 0.6929133858267716
        },
        {
          "duration": 0.3169012500000008,
          "durationTicks": 72,
          "midi": 66,
          "name": "F#4",
          "ticks": 36096,
          "time": 158.87316,
          "velocity": 0.6929133858267716
        },
        {
          "duration": 0.3169012500000008,
          "durationTicks": 72,
          "midi": 74,
          "name": "D5",
          "ticks": 36168,
          "time": 159.19006125,
          "velocity": 0.7165354330708661
        },
        {
          "duration": 0.3169012500000008,
          "durationTicks": 72,
          "midi": 69,
          "name": "A4",
          "ticks": 36168,
          "time": 159.19006125,
          "velocity": 0.7165354330708661
        },
        {
          "duration": 0.3169012500000008,
          "durationTicks": 72,
          "midi": 66,
          "name": "F#4",
          "ticks": 36168,
          "time": 159.19006125,
          "velocity": 0.7165354330708661
        },
        {
          "duration": 0.3169012500000008,
          "durationTicks": 72,
          "midi": 69,
          "name": "A4",
          "ticks": 36240,
          "time": 159.50696250000001,
          "velocity": 0.7401574803149606
        },
        {
          "duration": 0.3169012500000008,
          "durationTicks": 72,
          "midi": 74,
          "name": "D5",
          "ticks": 36240,
          "time": 159.50696250000001,
          "velocity": 0.7401574803149606
        },
        {
          "duration": 0.3169012500000008,
          "durationTicks": 72,
          "midi": 66,
          "name": "F#4",
          "ticks": 36240,
          "time": 159.50696250000001,
          "velocity": 0.7401574803149606
        },
        {
          "duration": 0.42253500000001054,
          "durationTicks": 96,
          "midi": 74,
          "name": "D5",
          "ticks": 36384,
          "time": 160.14076500000002,
          "velocity": 0.7795275590551181
        },
        {
          "duration": 0.42253500000001054,
          "durationTicks": 96,
          "midi": 69,
          "name": "A4",
          "ticks": 36384,
          "time": 160.14076500000002,
          "velocity": 0.7795275590551181
        },
        {
          "duration": 0.42253500000001054,
          "durationTicks": 96,
          "midi": 66,
          "name": "F#4",
          "ticks": 36384,
          "time": 160.14076500000002,
          "velocity": 0.7795275590551181
        },
        {
          "duration": 0.3169012500000008,
          "durationTicks": 72,
          "midi": 62,
          "name": "D4",
          "ticks": 36864,
          "time": 162.25344,
          "velocity": 0.7874015748031497
        },
        {
          "duration": 0.3169012500000008,
          "durationTicks": 72,
          "midi": 57,
          "name": "A3",
          "ticks": 36864,
          "time": 162.25344,
          "velocity": 0.7874015748031497
        },
        {
          "duration": 0.3169012500000008,
          "durationTicks": 72,
          "midi": 55,
          "name": "G3",
          "ticks": 36864,
          "time": 162.25344,
          "velocity": 0.7874015748031497
        },
        {
          "duration": 0.3169012500000008,
          "durationTicks": 72,
          "midi": 62,
          "name": "D4",
          "ticks": 36936,
          "time": 162.57034125,
          "velocity": 0.7874015748031497
        },
        {
          "duration": 0.3169012500000008,
          "durationTicks": 72,
          "midi": 57,
          "name": "A3",
          "ticks": 36936,
          "time": 162.57034125,
          "velocity": 0.7874015748031497
        },
        {
          "duration": 0.3169012500000008,
          "durationTicks": 72,
          "midi": 55,
          "name": "G3",
          "ticks": 36936,
          "time": 162.57034125,
          "velocity": 0.7874015748031497
        },
        {
          "duration": 0.3169012500000008,
          "durationTicks": 72,
          "midi": 62,
          "name": "D4",
          "ticks": 37008,
          "time": 162.8872425,
          "velocity": 0.7874015748031497
        },
        {
          "duration": 0.3169012500000008,
          "durationTicks": 72,
          "midi": 57,
          "name": "A3",
          "ticks": 37008,
          "time": 162.8872425,
          "velocity": 0.7874015748031497
        },
        {
          "duration": 0.3169012500000008,
          "durationTicks": 72,
          "midi": 55,
          "name": "G3",
          "ticks": 37008,
          "time": 162.8872425,
          "velocity": 0.7874015748031497
        },
        {
          "duration": 0.42253500000001054,
          "durationTicks": 96,
          "midi": 62,
          "name": "D4",
          "ticks": 37152,
          "time": 163.52104500000002,
          "velocity": 0.7874015748031497
        },
        {
          "duration": 0.42253500000001054,
          "durationTicks": 96,
          "midi": 57,
          "name": "A3",
          "ticks": 37152,
          "time": 163.52104500000002,
          "velocity": 0.7874015748031497
        },
        {
          "duration": 0.42253500000001054,
          "durationTicks": 96,
          "midi": 55,
          "name": "G3",
          "ticks": 37152,
          "time": 163.52104500000002,
          "velocity": 0.7874015748031497
        },
        {
          "duration": 0.3169012500000008,
          "durationTicks": 72,
          "midi": 57,
          "name": "A3",
          "ticks": 37248,
          "time": 163.94358000000003,
          "velocity": 0.7874015748031497
        },
        {
          "duration": 0.3169012500000008,
          "durationTicks": 72,
          "midi": 66,
          "name": "F#4",
          "ticks": 37248,
          "time": 163.94358000000003,
          "velocity": 0.7874015748031497
        },
        {
          "duration": 0.3169012500000008,
          "durationTicks": 72,
          "midi": 61,
          "name": "C#4",
          "ticks": 37248,
          "time": 163.94358000000003,
          "velocity": 0.7874015748031497
        },
        {
          "duration": 0.3169012500000008,
          "durationTicks": 72,
          "midi": 57,
          "name": "A3",
          "ticks": 37320,
          "time": 164.26048125000003,
          "velocity": 0.7874015748031497
        },
        {
          "duration": 0.3169012500000008,
          "durationTicks": 72,
          "midi": 61,
          "name": "C#4",
          "ticks": 37320,
          "time": 164.26048125000003,
          "velocity": 0.7874015748031497
        },
        {
          "duration": 0.3169012500000008,
          "durationTicks": 72,
          "midi": 66,
          "name": "F#4",
          "ticks": 37320,
          "time": 164.26048125000003,
          "velocity": 0.7874015748031497
        },
        {
          "duration": 0.3169012500000008,
          "durationTicks": 72,
          "midi": 57,
          "name": "A3",
          "ticks": 37392,
          "time": 164.57738250000003,
          "velocity": 0.7874015748031497
        },
        {
          "duration": 0.3169012500000008,
          "durationTicks": 72,
          "midi": 66,
          "name": "F#4",
          "ticks": 37392,
          "time": 164.57738250000003,
          "velocity": 0.7874015748031497
        },
        {
          "duration": 0.3169012500000008,
          "durationTicks": 72,
          "midi": 61,
          "name": "C#4",
          "ticks": 37392,
          "time": 164.57738250000003,
          "velocity": 0.7874015748031497
        },
        {
          "duration": 0.4225349999999821,
          "durationTicks": 96,
          "midi": 57,
          "name": "A3",
          "ticks": 37536,
          "time": 165.21118500000003,
          "velocity": 0.7874015748031497
        },
        {
          "duration": 0.4225349999999821,
          "durationTicks": 96,
          "midi": 61,
          "name": "C#4",
          "ticks": 37536,
          "time": 165.21118500000003,
          "velocity": 0.7874015748031497
        },
        {
          "duration": 0.4225349999999821,
          "durationTicks": 96,
          "midi": 66,
          "name": "F#4",
          "ticks": 37536,
          "time": 165.21118500000003,
          "velocity": 0.7874015748031497
        },
        {
          "duration": 0.3169012500000008,
          "durationTicks": 72,
          "midi": 57,
          "name": "A3",
          "ticks": 37632,
          "time": 165.63372,
          "velocity": 0.7874015748031497
        },
        {
          "duration": 0.3169012500000008,
          "durationTicks": 72,
          "midi": 62,
          "name": "D4",
          "ticks": 37632,
          "time": 165.63372,
          "velocity": 0.7874015748031497
        },
        {
          "duration": 0.3169012500000008,
          "durationTicks": 72,
          "midi": 54,
          "name": "F#3",
          "ticks": 37632,
          "time": 165.63372,
          "velocity": 0.7874015748031497
        },
        {
          "duration": 0.3169012500000008,
          "durationTicks": 72,
          "midi": 62,
          "name": "D4",
          "ticks": 37704,
          "time": 165.95062125,
          "velocity": 0.7874015748031497
        },
        {
          "duration": 0.3169012500000008,
          "durationTicks": 72,
          "midi": 57,
          "name": "A3",
          "ticks": 37704,
          "time": 165.95062125,
          "velocity": 0.7874015748031497
        },
        {
          "duration": 0.3169012500000008,
          "durationTicks": 72,
          "midi": 54,
          "name": "F#3",
          "ticks": 37704,
          "time": 165.95062125,
          "velocity": 0.7874015748031497
        },
        {
          "duration": 0.3169012500000008,
          "durationTicks": 72,
          "midi": 57,
          "name": "A3",
          "ticks": 37776,
          "time": 166.2675225,
          "velocity": 0.7874015748031497
        },
        {
          "duration": 0.3169012500000008,
          "durationTicks": 72,
          "midi": 62,
          "name": "D4",
          "ticks": 37776,
          "time": 166.2675225,
          "velocity": 0.7874015748031497
        },
        {
          "duration": 0.3169012500000008,
          "durationTicks": 72,
          "midi": 54,
          "name": "F#3",
          "ticks": 37776,
          "time": 166.2675225,
          "velocity": 0.7874015748031497
        },
        {
          "duration": 0.42253500000001054,
          "durationTicks": 96,
          "midi": 62,
          "name": "D4",
          "ticks": 37920,
          "time": 166.901325,
          "velocity": 0.7874015748031497
        },
        {
          "duration": 0.42253500000001054,
          "durationTicks": 96,
          "midi": 57,
          "name": "A3",
          "ticks": 37920,
          "time": 166.901325,
          "velocity": 0.7874015748031497
        },
        {
          "duration": 0.42253500000001054,
          "durationTicks": 96,
          "midi": 54,
          "name": "F#3",
          "ticks": 37920,
          "time": 166.901325,
          "velocity": 0.7874015748031497
        },
        {
          "duration": 0.3169012500000008,
          "durationTicks": 72,
          "midi": 62,
          "name": "D4",
          "ticks": 38016,
          "time": 167.32386000000002,
          "velocity": 0.7874015748031497
        },
        {
          "duration": 0.3169012500000008,
          "durationTicks": 72,
          "midi": 57,
          "name": "A3",
          "ticks": 38016,
          "time": 167.32386000000002,
          "velocity": 0.7874015748031497
        },
        {
          "duration": 0.3169012500000008,
          "durationTicks": 72,
          "midi": 52,
          "name": "E3",
          "ticks": 38016,
          "time": 167.32386000000002,
          "velocity": 0.7874015748031497
        },
        {
          "duration": 0.3169012500000008,
          "durationTicks": 72,
          "midi": 62,
          "name": "D4",
          "ticks": 38088,
          "time": 167.64076125000003,
          "velocity": 0.7874015748031497
        },
        {
          "duration": 0.3169012500000008,
          "durationTicks": 72,
          "midi": 57,
          "name": "A3",
          "ticks": 38088,
          "time": 167.64076125000003,
          "velocity": 0.7874015748031497
        },
        {
          "duration": 0.3169012500000008,
          "durationTicks": 72,
          "midi": 52,
          "name": "E3",
          "ticks": 38088,
          "time": 167.64076125000003,
          "velocity": 0.7874015748031497
        },
        {
          "duration": 0.3169012500000008,
          "durationTicks": 72,
          "midi": 62,
          "name": "D4",
          "ticks": 38160,
          "time": 167.95766250000003,
          "velocity": 0.7874015748031497
        },
        {
          "duration": 0.3169012500000008,
          "durationTicks": 72,
          "midi": 57,
          "name": "A3",
          "ticks": 38160,
          "time": 167.95766250000003,
          "velocity": 0.7874015748031497
        },
        {
          "duration": 0.3169012500000008,
          "durationTicks": 72,
          "midi": 52,
          "name": "E3",
          "ticks": 38160,
          "time": 167.95766250000003,
          "velocity": 0.7874015748031497
        },
        {
          "duration": 0.4225349999999821,
          "durationTicks": 96,
          "midi": 62,
          "name": "D4",
          "ticks": 38304,
          "time": 168.59146500000003,
          "velocity": 0.7874015748031497
        },
        {
          "duration": 0.4225349999999821,
          "durationTicks": 96,
          "midi": 57,
          "name": "A3",
          "ticks": 38304,
          "time": 168.59146500000003,
          "velocity": 0.7874015748031497
        },
        {
          "duration": 0.4225349999999821,
          "durationTicks": 96,
          "midi": 52,
          "name": "E3",
          "ticks": 38304,
          "time": 168.59146500000003,
          "velocity": 0.7874015748031497
        },
        {
          "duration": 0.21126749999999106,
          "durationTicks": 48,
          "midi": 61,
          "name": "C#4",
          "ticks": 38352,
          "time": 168.80273250000002,
          "velocity": 0.984251968503937
        },
        {
          "duration": 0.3169012500000008,
          "durationTicks": 72,
          "midi": 62,
          "name": "D4",
          "ticks": 38400,
          "time": 169.014,
          "velocity": 0.7874015748031497
        },
        {
          "duration": 0.3169012500000008,
          "durationTicks": 72,
          "midi": 57,
          "name": "A3",
          "ticks": 38400,
          "time": 169.014,
          "velocity": 0.7874015748031497
        },
        {
          "duration": 0.3169012500000008,
          "durationTicks": 72,
          "midi": 55,
          "name": "G3",
          "ticks": 38400,
          "time": 169.014,
          "velocity": 0.7874015748031497
        },
        {
          "duration": 0.3169012500000008,
          "durationTicks": 72,
          "midi": 62,
          "name": "D4",
          "ticks": 38472,
          "time": 169.33090125,
          "velocity": 0.7874015748031497
        },
        {
          "duration": 0.3169012500000008,
          "durationTicks": 72,
          "midi": 57,
          "name": "A3",
          "ticks": 38472,
          "time": 169.33090125,
          "velocity": 0.7874015748031497
        },
        {
          "duration": 0.3169012500000008,
          "durationTicks": 72,
          "midi": 55,
          "name": "G3",
          "ticks": 38472,
          "time": 169.33090125,
          "velocity": 0.7874015748031497
        },
        {
          "duration": 0.3169012500000008,
          "durationTicks": 72,
          "midi": 62,
          "name": "D4",
          "ticks": 38544,
          "time": 169.6478025,
          "velocity": 0.7874015748031497
        },
        {
          "duration": 0.3169012500000008,
          "durationTicks": 72,
          "midi": 57,
          "name": "A3",
          "ticks": 38544,
          "time": 169.6478025,
          "velocity": 0.7874015748031497
        },
        {
          "duration": 0.3169012500000008,
          "durationTicks": 72,
          "midi": 55,
          "name": "G3",
          "ticks": 38544,
          "time": 169.6478025,
          "velocity": 0.7874015748031497
        },
        {
          "duration": 0.42253500000001054,
          "durationTicks": 96,
          "midi": 62,
          "name": "D4",
          "ticks": 38688,
          "time": 170.281605,
          "velocity": 0.7874015748031497
        },
        {
          "duration": 0.42253500000001054,
          "durationTicks": 96,
          "midi": 57,
          "name": "A3",
          "ticks": 38688,
          "time": 170.281605,
          "velocity": 0.7874015748031497
        },
        {
          "duration": 0.42253500000001054,
          "durationTicks": 96,
          "midi": 55,
          "name": "G3",
          "ticks": 38688,
          "time": 170.281605,
          "velocity": 0.7874015748031497
        },
        {
          "duration": 0.3169012500000008,
          "durationTicks": 72,
          "midi": 57,
          "name": "A3",
          "ticks": 38784,
          "time": 170.70414000000002,
          "velocity": 0.7874015748031497
        },
        {
          "duration": 0.3169012500000008,
          "durationTicks": 72,
          "midi": 66,
          "name": "F#4",
          "ticks": 38784,
          "time": 170.70414000000002,
          "velocity": 0.7874015748031497
        },
        {
          "duration": 0.3169012500000008,
          "durationTicks": 72,
          "midi": 61,
          "name": "C#4",
          "ticks": 38784,
          "time": 170.70414000000002,
          "velocity": 0.7874015748031497
        },
        {
          "duration": 0.3169012500000008,
          "durationTicks": 72,
          "midi": 57,
          "name": "A3",
          "ticks": 38856,
          "time": 171.02104125000002,
          "velocity": 0.7874015748031497
        },
        {
          "duration": 0.3169012500000008,
          "durationTicks": 72,
          "midi": 61,
          "name": "C#4",
          "ticks": 38856,
          "time": 171.02104125000002,
          "velocity": 0.7874015748031497
        },
        {
          "duration": 0.3169012500000008,
          "durationTicks": 72,
          "midi": 66,
          "name": "F#4",
          "ticks": 38856,
          "time": 171.02104125000002,
          "velocity": 0.7874015748031497
        },
        {
          "duration": 0.3169012500000008,
          "durationTicks": 72,
          "midi": 57,
          "name": "A3",
          "ticks": 38928,
          "time": 171.33794250000003,
          "velocity": 0.7874015748031497
        },
        {
          "duration": 0.3169012500000008,
          "durationTicks": 72,
          "midi": 66,
          "name": "F#4",
          "ticks": 38928,
          "time": 171.33794250000003,
          "velocity": 0.7874015748031497
        },
        {
          "duration": 0.3169012500000008,
          "durationTicks": 72,
          "midi": 61,
          "name": "C#4",
          "ticks": 38928,
          "time": 171.33794250000003,
          "velocity": 0.7874015748031497
        },
        {
          "duration": 0.4225349999999821,
          "durationTicks": 96,
          "midi": 57,
          "name": "A3",
          "ticks": 39072,
          "time": 171.97174500000003,
          "velocity": 0.7874015748031497
        },
        {
          "duration": 0.4225349999999821,
          "durationTicks": 96,
          "midi": 61,
          "name": "C#4",
          "ticks": 39072,
          "time": 171.97174500000003,
          "velocity": 0.7874015748031497
        },
        {
          "duration": 0.4225349999999821,
          "durationTicks": 96,
          "midi": 66,
          "name": "F#4",
          "ticks": 39072,
          "time": 171.97174500000003,
          "velocity": 0.7874015748031497
        },
        {
          "duration": 0.3169012500000008,
          "durationTicks": 72,
          "midi": 57,
          "name": "A3",
          "ticks": 39168,
          "time": 172.39428,
          "velocity": 0.7874015748031497
        },
        {
          "duration": 0.3169012500000008,
          "durationTicks": 72,
          "midi": 62,
          "name": "D4",
          "ticks": 39168,
          "time": 172.39428,
          "velocity": 0.7874015748031497
        },
        {
          "duration": 0.3169012500000008,
          "durationTicks": 72,
          "midi": 54,
          "name": "F#3",
          "ticks": 39168,
          "time": 172.39428,
          "velocity": 0.7874015748031497
        },
        {
          "duration": 0.3169012500000008,
          "durationTicks": 72,
          "midi": 62,
          "name": "D4",
          "ticks": 39240,
          "time": 172.71118125,
          "velocity": 0.7874015748031497
        },
        {
          "duration": 0.3169012500000008,
          "durationTicks": 72,
          "midi": 57,
          "name": "A3",
          "ticks": 39240,
          "time": 172.71118125,
          "velocity": 0.7874015748031497
        },
        {
          "duration": 0.3169012500000008,
          "durationTicks": 72,
          "midi": 54,
          "name": "F#3",
          "ticks": 39240,
          "time": 172.71118125,
          "velocity": 0.7874015748031497
        },
        {
          "duration": 0.3169012500000008,
          "durationTicks": 72,
          "midi": 57,
          "name": "A3",
          "ticks": 39312,
          "time": 173.0280825,
          "velocity": 0.7874015748031497
        },
        {
          "duration": 0.3169012500000008,
          "durationTicks": 72,
          "midi": 62,
          "name": "D4",
          "ticks": 39312,
          "time": 173.0280825,
          "velocity": 0.7874015748031497
        },
        {
          "duration": 0.3169012500000008,
          "durationTicks": 72,
          "midi": 54,
          "name": "F#3",
          "ticks": 39312,
          "time": 173.0280825,
          "velocity": 0.7874015748031497
        },
        {
          "duration": 0.42253500000001054,
          "durationTicks": 96,
          "midi": 62,
          "name": "D4",
          "ticks": 39456,
          "time": 173.661885,
          "velocity": 0.7874015748031497
        },
        {
          "duration": 0.42253500000001054,
          "durationTicks": 96,
          "midi": 57,
          "name": "A3",
          "ticks": 39456,
          "time": 173.661885,
          "velocity": 0.7874015748031497
        },
        {
          "duration": 0.42253500000001054,
          "durationTicks": 96,
          "midi": 54,
          "name": "F#3",
          "ticks": 39456,
          "time": 173.661885,
          "velocity": 0.7874015748031497
        },
        {
          "duration": 0.3169012500000008,
          "durationTicks": 72,
          "midi": 62,
          "name": "D4",
          "ticks": 39552,
          "time": 174.08442000000002,
          "velocity": 0.7874015748031497
        },
        {
          "duration": 0.3169012500000008,
          "durationTicks": 72,
          "midi": 57,
          "name": "A3",
          "ticks": 39552,
          "time": 174.08442000000002,
          "velocity": 0.7874015748031497
        },
        {
          "duration": 0.3169012500000008,
          "durationTicks": 72,
          "midi": 52,
          "name": "E3",
          "ticks": 39552,
          "time": 174.08442000000002,
          "velocity": 0.7874015748031497
        },
        {
          "duration": 0.3169012500000008,
          "durationTicks": 72,
          "midi": 62,
          "name": "D4",
          "ticks": 39624,
          "time": 174.40132125000002,
          "velocity": 0.7874015748031497
        },
        {
          "duration": 0.3169012500000008,
          "durationTicks": 72,
          "midi": 57,
          "name": "A3",
          "ticks": 39624,
          "time": 174.40132125000002,
          "velocity": 0.7874015748031497
        },
        {
          "duration": 0.3169012500000008,
          "durationTicks": 72,
          "midi": 52,
          "name": "E3",
          "ticks": 39624,
          "time": 174.40132125000002,
          "velocity": 0.7874015748031497
        },
        {
          "duration": 0.3169012500000008,
          "durationTicks": 72,
          "midi": 62,
          "name": "D4",
          "ticks": 39696,
          "time": 174.71822250000002,
          "velocity": 0.7874015748031497
        },
        {
          "duration": 0.3169012500000008,
          "durationTicks": 72,
          "midi": 57,
          "name": "A3",
          "ticks": 39696,
          "time": 174.71822250000002,
          "velocity": 0.7874015748031497
        },
        {
          "duration": 0.3169012500000008,
          "durationTicks": 72,
          "midi": 52,
          "name": "E3",
          "ticks": 39696,
          "time": 174.71822250000002,
          "velocity": 0.7874015748031497
        },
        {
          "duration": 0.4225349999999821,
          "durationTicks": 96,
          "midi": 62,
          "name": "D4",
          "ticks": 39840,
          "time": 175.35202500000003,
          "velocity": 0.7874015748031497
        },
        {
          "duration": 0.4225349999999821,
          "durationTicks": 96,
          "midi": 57,
          "name": "A3",
          "ticks": 39840,
          "time": 175.35202500000003,
          "velocity": 0.7874015748031497
        },
        {
          "duration": 0.4225349999999821,
          "durationTicks": 96,
          "midi": 52,
          "name": "E3",
          "ticks": 39840,
          "time": 175.35202500000003,
          "velocity": 0.7874015748031497
        },
        {
          "duration": 0.21126749999999106,
          "durationTicks": 48,
          "midi": 61,
          "name": "C#4",
          "ticks": 39888,
          "time": 175.56329250000002,
          "velocity": 0.984251968503937
        },
        {
          "duration": 0.3169012500000008,
          "durationTicks": 72,
          "midi": 62,
          "name": "D4",
          "ticks": 39936,
          "time": 175.77456,
          "velocity": 0.7874015748031497
        },
        {
          "duration": 0.3169012500000008,
          "durationTicks": 72,
          "midi": 57,
          "name": "A3",
          "ticks": 39936,
          "time": 175.77456,
          "velocity": 0.7874015748031497
        },
        {
          "duration": 0.3169012500000008,
          "durationTicks": 72,
          "midi": 55,
          "name": "G3",
          "ticks": 39936,
          "time": 175.77456,
          "velocity": 0.7874015748031497
        },
        {
          "duration": 0.3169012500000008,
          "durationTicks": 72,
          "midi": 62,
          "name": "D4",
          "ticks": 40008,
          "time": 176.09146125,
          "velocity": 0.7874015748031497
        },
        {
          "duration": 0.3169012500000008,
          "durationTicks": 72,
          "midi": 57,
          "name": "A3",
          "ticks": 40008,
          "time": 176.09146125,
          "velocity": 0.7874015748031497
        },
        {
          "duration": 0.3169012500000008,
          "durationTicks": 72,
          "midi": 55,
          "name": "G3",
          "ticks": 40008,
          "time": 176.09146125,
          "velocity": 0.7874015748031497
        },
        {
          "duration": 0.3169012500000008,
          "durationTicks": 72,
          "midi": 62,
          "name": "D4",
          "ticks": 40080,
          "time": 176.4083625,
          "velocity": 0.7874015748031497
        },
        {
          "duration": 0.3169012500000008,
          "durationTicks": 72,
          "midi": 57,
          "name": "A3",
          "ticks": 40080,
          "time": 176.4083625,
          "velocity": 0.7874015748031497
        },
        {
          "duration": 0.3169012500000008,
          "durationTicks": 72,
          "midi": 55,
          "name": "G3",
          "ticks": 40080,
          "time": 176.4083625,
          "velocity": 0.7874015748031497
        },
        {
          "duration": 0.42253500000001054,
          "durationTicks": 96,
          "midi": 62,
          "name": "D4",
          "ticks": 40224,
          "time": 177.042165,
          "velocity": 0.7874015748031497
        },
        {
          "duration": 0.42253500000001054,
          "durationTicks": 96,
          "midi": 57,
          "name": "A3",
          "ticks": 40224,
          "time": 177.042165,
          "velocity": 0.7874015748031497
        },
        {
          "duration": 0.42253500000001054,
          "durationTicks": 96,
          "midi": 55,
          "name": "G3",
          "ticks": 40224,
          "time": 177.042165,
          "velocity": 0.7874015748031497
        },
        {
          "duration": 0.3169012500000008,
          "durationTicks": 72,
          "midi": 57,
          "name": "A3",
          "ticks": 40320,
          "time": 177.46470000000002,
          "velocity": 0.7874015748031497
        },
        {
          "duration": 0.3169012500000008,
          "durationTicks": 72,
          "midi": 66,
          "name": "F#4",
          "ticks": 40320,
          "time": 177.46470000000002,
          "velocity": 0.7874015748031497
        },
        {
          "duration": 0.3169012500000008,
          "durationTicks": 72,
          "midi": 61,
          "name": "C#4",
          "ticks": 40320,
          "time": 177.46470000000002,
          "velocity": 0.7874015748031497
        },
        {
          "duration": 0.3169012500000008,
          "durationTicks": 72,
          "midi": 57,
          "name": "A3",
          "ticks": 40392,
          "time": 177.78160125000002,
          "velocity": 0.7874015748031497
        },
        {
          "duration": 0.3169012500000008,
          "durationTicks": 72,
          "midi": 61,
          "name": "C#4",
          "ticks": 40392,
          "time": 177.78160125000002,
          "velocity": 0.7874015748031497
        },
        {
          "duration": 0.3169012500000008,
          "durationTicks": 72,
          "midi": 66,
          "name": "F#4",
          "ticks": 40392,
          "time": 177.78160125000002,
          "velocity": 0.7874015748031497
        },
        {
          "duration": 0.3169012500000008,
          "durationTicks": 72,
          "midi": 57,
          "name": "A3",
          "ticks": 40464,
          "time": 178.09850250000002,
          "velocity": 0.7874015748031497
        },
        {
          "duration": 0.3169012500000008,
          "durationTicks": 72,
          "midi": 66,
          "name": "F#4",
          "ticks": 40464,
          "time": 178.09850250000002,
          "velocity": 0.7874015748031497
        },
        {
          "duration": 0.3169012500000008,
          "durationTicks": 72,
          "midi": 61,
          "name": "C#4",
          "ticks": 40464,
          "time": 178.09850250000002,
          "velocity": 0.7874015748031497
        },
        {
          "duration": 0.4225349999999821,
          "durationTicks": 96,
          "midi": 57,
          "name": "A3",
          "ticks": 40608,
          "time": 178.73230500000003,
          "velocity": 0.7874015748031497
        },
        {
          "duration": 0.4225349999999821,
          "durationTicks": 96,
          "midi": 61,
          "name": "C#4",
          "ticks": 40608,
          "time": 178.73230500000003,
          "velocity": 0.7874015748031497
        },
        {
          "duration": 0.4225349999999821,
          "durationTicks": 96,
          "midi": 66,
          "name": "F#4",
          "ticks": 40608,
          "time": 178.73230500000003,
          "velocity": 0.7874015748031497
        },
        {
          "duration": 0.3169012500000008,
          "durationTicks": 72,
          "midi": 57,
          "name": "A3",
          "ticks": 40704,
          "time": 179.15484,
          "velocity": 0.7874015748031497
        },
        {
          "duration": 0.3169012500000008,
          "durationTicks": 72,
          "midi": 62,
          "name": "D4",
          "ticks": 40704,
          "time": 179.15484,
          "velocity": 0.7874015748031497
        },
        {
          "duration": 0.3169012500000008,
          "durationTicks": 72,
          "midi": 54,
          "name": "F#3",
          "ticks": 40704,
          "time": 179.15484,
          "velocity": 0.7874015748031497
        },
        {
          "duration": 0.3169012500000008,
          "durationTicks": 72,
          "midi": 62,
          "name": "D4",
          "ticks": 40776,
          "time": 179.47174125,
          "velocity": 0.7874015748031497
        },
        {
          "duration": 0.3169012500000008,
          "durationTicks": 72,
          "midi": 57,
          "name": "A3",
          "ticks": 40776,
          "time": 179.47174125,
          "velocity": 0.7874015748031497
        },
        {
          "duration": 0.3169012500000008,
          "durationTicks": 72,
          "midi": 54,
          "name": "F#3",
          "ticks": 40776,
          "time": 179.47174125,
          "velocity": 0.7874015748031497
        },
        {
          "duration": 0.3169012500000008,
          "durationTicks": 72,
          "midi": 57,
          "name": "A3",
          "ticks": 40848,
          "time": 179.7886425,
          "velocity": 0.7874015748031497
        },
        {
          "duration": 0.3169012500000008,
          "durationTicks": 72,
          "midi": 62,
          "name": "D4",
          "ticks": 40848,
          "time": 179.7886425,
          "velocity": 0.7874015748031497
        },
        {
          "duration": 0.3169012500000008,
          "durationTicks": 72,
          "midi": 54,
          "name": "F#3",
          "ticks": 40848,
          "time": 179.7886425,
          "velocity": 0.7874015748031497
        },
        {
          "duration": 0.42253500000001054,
          "durationTicks": 96,
          "midi": 62,
          "name": "D4",
          "ticks": 40992,
          "time": 180.422445,
          "velocity": 0.7874015748031497
        },
        {
          "duration": 0.42253500000001054,
          "durationTicks": 96,
          "midi": 57,
          "name": "A3",
          "ticks": 40992,
          "time": 180.422445,
          "velocity": 0.7874015748031497
        },
        {
          "duration": 0.42253500000001054,
          "durationTicks": 96,
          "midi": 54,
          "name": "F#3",
          "ticks": 40992,
          "time": 180.422445,
          "velocity": 0.7874015748031497
        },
        {
          "duration": 0.3169012500000008,
          "durationTicks": 72,
          "midi": 62,
          "name": "D4",
          "ticks": 41088,
          "time": 180.84498000000002,
          "velocity": 0.7874015748031497
        },
        {
          "duration": 0.3169012500000008,
          "durationTicks": 72,
          "midi": 57,
          "name": "A3",
          "ticks": 41088,
          "time": 180.84498000000002,
          "velocity": 0.7874015748031497
        },
        {
          "duration": 0.3169012500000008,
          "durationTicks": 72,
          "midi": 52,
          "name": "E3",
          "ticks": 41088,
          "time": 180.84498000000002,
          "velocity": 0.7874015748031497
        },
        {
          "duration": 0.3169012500000008,
          "durationTicks": 72,
          "midi": 62,
          "name": "D4",
          "ticks": 41160,
          "time": 181.16188125000002,
          "velocity": 0.7874015748031497
        },
        {
          "duration": 0.3169012500000008,
          "durationTicks": 72,
          "midi": 57,
          "name": "A3",
          "ticks": 41160,
          "time": 181.16188125000002,
          "velocity": 0.7874015748031497
        },
        {
          "duration": 0.3169012500000008,
          "durationTicks": 72,
          "midi": 52,
          "name": "E3",
          "ticks": 41160,
          "time": 181.16188125000002,
          "velocity": 0.7874015748031497
        },
        {
          "duration": 0.3169012500000008,
          "durationTicks": 72,
          "midi": 62,
          "name": "D4",
          "ticks": 41232,
          "time": 181.47878250000002,
          "velocity": 0.7874015748031497
        },
        {
          "duration": 0.3169012500000008,
          "durationTicks": 72,
          "midi": 57,
          "name": "A3",
          "ticks": 41232,
          "time": 181.47878250000002,
          "velocity": 0.7874015748031497
        },
        {
          "duration": 0.3169012500000008,
          "durationTicks": 72,
          "midi": 52,
          "name": "E3",
          "ticks": 41232,
          "time": 181.47878250000002,
          "velocity": 0.7874015748031497
        },
        {
          "duration": 0.42253500000001054,
          "durationTicks": 96,
          "midi": 62,
          "name": "D4",
          "ticks": 41376,
          "time": 182.11258500000002,
          "velocity": 0.7874015748031497
        },
        {
          "duration": 0.42253500000001054,
          "durationTicks": 96,
          "midi": 57,
          "name": "A3",
          "ticks": 41376,
          "time": 182.11258500000002,
          "velocity": 0.7874015748031497
        },
        {
          "duration": 0.42253500000001054,
          "durationTicks": 96,
          "midi": 52,
          "name": "E3",
          "ticks": 41376,
          "time": 182.11258500000002,
          "velocity": 0.7874015748031497
        },
        {
          "duration": 0.21126750000001948,
          "durationTicks": 48,
          "midi": 61,
          "name": "C#4",
          "ticks": 41424,
          "time": 182.32385250000002,
          "velocity": 0.984251968503937
        },
        {
          "duration": 0.3169012500000008,
          "durationTicks": 72,
          "midi": 62,
          "name": "D4",
          "ticks": 41472,
          "time": 182.53512000000003,
          "velocity": 0.7874015748031497
        },
        {
          "duration": 0.3169012500000008,
          "durationTicks": 72,
          "midi": 57,
          "name": "A3",
          "ticks": 41472,
          "time": 182.53512000000003,
          "velocity": 0.7874015748031497
        },
        {
          "duration": 0.3169012500000008,
          "durationTicks": 72,
          "midi": 55,
          "name": "G3",
          "ticks": 41472,
          "time": 182.53512000000003,
          "velocity": 0.7874015748031497
        },
        {
          "duration": 0.3169012499999724,
          "durationTicks": 72,
          "midi": 62,
          "name": "D4",
          "ticks": 41544,
          "time": 182.85202125000004,
          "velocity": 0.7874015748031497
        },
        {
          "duration": 0.3169012499999724,
          "durationTicks": 72,
          "midi": 57,
          "name": "A3",
          "ticks": 41544,
          "time": 182.85202125000004,
          "velocity": 0.7874015748031497
        },
        {
          "duration": 0.3169012499999724,
          "durationTicks": 72,
          "midi": 55,
          "name": "G3",
          "ticks": 41544,
          "time": 182.85202125000004,
          "velocity": 0.7874015748031497
        },
        {
          "duration": 0.3169012500000008,
          "durationTicks": 72,
          "midi": 62,
          "name": "D4",
          "ticks": 41616,
          "time": 183.1689225,
          "velocity": 0.7874015748031497
        },
        {
          "duration": 0.3169012500000008,
          "durationTicks": 72,
          "midi": 57,
          "name": "A3",
          "ticks": 41616,
          "time": 183.1689225,
          "velocity": 0.7874015748031497
        },
        {
          "duration": 0.3169012500000008,
          "durationTicks": 72,
          "midi": 55,
          "name": "G3",
          "ticks": 41616,
          "time": 183.1689225,
          "velocity": 0.7874015748031497
        },
        {
          "duration": 0.42253500000001054,
          "durationTicks": 96,
          "midi": 62,
          "name": "D4",
          "ticks": 41760,
          "time": 183.802725,
          "velocity": 0.7874015748031497
        },
        {
          "duration": 0.42253500000001054,
          "durationTicks": 96,
          "midi": 57,
          "name": "A3",
          "ticks": 41760,
          "time": 183.802725,
          "velocity": 0.7874015748031497
        },
        {
          "duration": 0.42253500000001054,
          "durationTicks": 96,
          "midi": 55,
          "name": "G3",
          "ticks": 41760,
          "time": 183.802725,
          "velocity": 0.7874015748031497
        },
        {
          "duration": 0.3169012500000008,
          "durationTicks": 72,
          "midi": 57,
          "name": "A3",
          "ticks": 41856,
          "time": 184.22526000000002,
          "velocity": 0.7874015748031497
        },
        {
          "duration": 0.3169012500000008,
          "durationTicks": 72,
          "midi": 66,
          "name": "F#4",
          "ticks": 41856,
          "time": 184.22526000000002,
          "velocity": 0.7874015748031497
        },
        {
          "duration": 0.3169012500000008,
          "durationTicks": 72,
          "midi": 61,
          "name": "C#4",
          "ticks": 41856,
          "time": 184.22526000000002,
          "velocity": 0.7874015748031497
        },
        {
          "duration": 0.3169012500000008,
          "durationTicks": 72,
          "midi": 57,
          "name": "A3",
          "ticks": 41928,
          "time": 184.54216125000002,
          "velocity": 0.7874015748031497
        },
        {
          "duration": 0.3169012500000008,
          "durationTicks": 72,
          "midi": 61,
          "name": "C#4",
          "ticks": 41928,
          "time": 184.54216125000002,
          "velocity": 0.7874015748031497
        },
        {
          "duration": 0.3169012500000008,
          "durationTicks": 72,
          "midi": 66,
          "name": "F#4",
          "ticks": 41928,
          "time": 184.54216125000002,
          "velocity": 0.7874015748031497
        },
        {
          "duration": 0.3169012500000008,
          "durationTicks": 72,
          "midi": 57,
          "name": "A3",
          "ticks": 42000,
          "time": 184.85906250000002,
          "velocity": 0.7874015748031497
        },
        {
          "duration": 0.3169012500000008,
          "durationTicks": 72,
          "midi": 66,
          "name": "F#4",
          "ticks": 42000,
          "time": 184.85906250000002,
          "velocity": 0.7874015748031497
        },
        {
          "duration": 0.3169012500000008,
          "durationTicks": 72,
          "midi": 61,
          "name": "C#4",
          "ticks": 42000,
          "time": 184.85906250000002,
          "velocity": 0.7874015748031497
        },
        {
          "duration": 0.42253500000001054,
          "durationTicks": 96,
          "midi": 57,
          "name": "A3",
          "ticks": 42144,
          "time": 185.49286500000002,
          "velocity": 0.7874015748031497
        },
        {
          "duration": 0.42253500000001054,
          "durationTicks": 96,
          "midi": 61,
          "name": "C#4",
          "ticks": 42144,
          "time": 185.49286500000002,
          "velocity": 0.7874015748031497
        },
        {
          "duration": 0.42253500000001054,
          "durationTicks": 96,
          "midi": 66,
          "name": "F#4",
          "ticks": 42144,
          "time": 185.49286500000002,
          "velocity": 0.7874015748031497
        },
        {
          "duration": 0.3169012500000008,
          "durationTicks": 72,
          "midi": 57,
          "name": "A3",
          "ticks": 42240,
          "time": 185.91540000000003,
          "velocity": 0.7874015748031497
        },
        {
          "duration": 0.3169012500000008,
          "durationTicks": 72,
          "midi": 62,
          "name": "D4",
          "ticks": 42240,
          "time": 185.91540000000003,
          "velocity": 0.7874015748031497
        },
        {
          "duration": 0.3169012500000008,
          "durationTicks": 72,
          "midi": 54,
          "name": "F#3",
          "ticks": 42240,
          "time": 185.91540000000003,
          "velocity": 0.7874015748031497
        },
        {
          "duration": 0.3169012500000008,
          "durationTicks": 72,
          "midi": 62,
          "name": "D4",
          "ticks": 42312,
          "time": 186.23230125000003,
          "velocity": 0.7874015748031497
        },
        {
          "duration": 0.3169012500000008,
          "durationTicks": 72,
          "midi": 57,
          "name": "A3",
          "ticks": 42312,
          "time": 186.23230125000003,
          "velocity": 0.7874015748031497
        },
        {
          "duration": 0.3169012500000008,
          "durationTicks": 72,
          "midi": 54,
          "name": "F#3",
          "ticks": 42312,
          "time": 186.23230125000003,
          "velocity": 0.7874015748031497
        },
        {
          "duration": 0.3169012499999724,
          "durationTicks": 72,
          "midi": 57,
          "name": "A3",
          "ticks": 42384,
          "time": 186.54920250000004,
          "velocity": 0.7874015748031497
        },
        {
          "duration": 0.3169012499999724,
          "durationTicks": 72,
          "midi": 62,
          "name": "D4",
          "ticks": 42384,
          "time": 186.54920250000004,
          "velocity": 0.7874015748031497
        },
        {
          "duration": 0.3169012499999724,
          "durationTicks": 72,
          "midi": 54,
          "name": "F#3",
          "ticks": 42384,
          "time": 186.54920250000004,
          "velocity": 0.7874015748031497
        },
        {
          "duration": 0.42253500000001054,
          "durationTicks": 96,
          "midi": 62,
          "name": "D4",
          "ticks": 42528,
          "time": 187.183005,
          "velocity": 0.7874015748031497
        },
        {
          "duration": 0.42253500000001054,
          "durationTicks": 96,
          "midi": 57,
          "name": "A3",
          "ticks": 42528,
          "time": 187.183005,
          "velocity": 0.7874015748031497
        },
        {
          "duration": 0.42253500000001054,
          "durationTicks": 96,
          "midi": 54,
          "name": "F#3",
          "ticks": 42528,
          "time": 187.183005,
          "velocity": 0.7874015748031497
        },
        {
          "duration": 0.3169012500000008,
          "durationTicks": 72,
          "midi": 62,
          "name": "D4",
          "ticks": 42624,
          "time": 187.60554000000002,
          "velocity": 0.7874015748031497
        },
        {
          "duration": 0.3169012500000008,
          "durationTicks": 72,
          "midi": 57,
          "name": "A3",
          "ticks": 42624,
          "time": 187.60554000000002,
          "velocity": 0.7874015748031497
        },
        {
          "duration": 0.3169012500000008,
          "durationTicks": 72,
          "midi": 52,
          "name": "E3",
          "ticks": 42624,
          "time": 187.60554000000002,
          "velocity": 0.7874015748031497
        },
        {
          "duration": 0.3169012500000008,
          "durationTicks": 72,
          "midi": 62,
          "name": "D4",
          "ticks": 42696,
          "time": 187.92244125000002,
          "velocity": 0.7874015748031497
        },
        {
          "duration": 0.3169012500000008,
          "durationTicks": 72,
          "midi": 57,
          "name": "A3",
          "ticks": 42696,
          "time": 187.92244125000002,
          "velocity": 0.7874015748031497
        },
        {
          "duration": 0.3169012500000008,
          "durationTicks": 72,
          "midi": 52,
          "name": "E3",
          "ticks": 42696,
          "time": 187.92244125000002,
          "velocity": 0.7874015748031497
        },
        {
          "duration": 0.3169012500000008,
          "durationTicks": 72,
          "midi": 62,
          "name": "D4",
          "ticks": 42768,
          "time": 188.23934250000002,
          "velocity": 0.7874015748031497
        },
        {
          "duration": 0.3169012500000008,
          "durationTicks": 72,
          "midi": 57,
          "name": "A3",
          "ticks": 42768,
          "time": 188.23934250000002,
          "velocity": 0.7874015748031497
        },
        {
          "duration": 0.3169012500000008,
          "durationTicks": 72,
          "midi": 52,
          "name": "E3",
          "ticks": 42768,
          "time": 188.23934250000002,
          "velocity": 0.7874015748031497
        },
        {
          "duration": 0.42253500000001054,
          "durationTicks": 96,
          "midi": 62,
          "name": "D4",
          "ticks": 42912,
          "time": 188.87314500000002,
          "velocity": 0.7874015748031497
        },
        {
          "duration": 0.42253500000001054,
          "durationTicks": 96,
          "midi": 57,
          "name": "A3",
          "ticks": 42912,
          "time": 188.87314500000002,
          "velocity": 0.7874015748031497
        },
        {
          "duration": 0.42253500000001054,
          "durationTicks": 96,
          "midi": 52,
          "name": "E3",
          "ticks": 42912,
          "time": 188.87314500000002,
          "velocity": 0.7874015748031497
        },
        {
          "duration": 0.21126750000001948,
          "durationTicks": 48,
          "midi": 61,
          "name": "C#4",
          "ticks": 42960,
          "time": 189.0844125,
          "velocity": 0.984251968503937
        }
      ]
    },
    {
      "channel": 0,
      "controlChanges": {},
      "pitchBends": [],
      "instrument": {
        "family": "piano",
        "number": 0,
        "name": "MELODY2"
      },
      "name": "MELODY2",
      "notes": [
        {
          "duration": 0.21126750000000527,
          "durationTicks": 48,
          "midi": 61,
          "name": "C#4",
          "ticks": 15312,
          "time": 67.3943325,
          "velocity": 0.984251968503937
        },
        {
          "duration": 0.21126750000000527,
          "durationTicks": 48,
          "midi": 74,
          "name": "D5",
          "ticks": 15360,
          "time": 67.60560000000001,
          "velocity": 0.6850393700787402
        },
        {
          "duration": 0.42253499999999633,
          "durationTicks": 96,
          "midi": 62,
          "name": "D4",
          "ticks": 15456,
          "time": 68.028135,
          "velocity": 0.44881889763779526
        },
        {
          "duration": 0.21126750000000527,
          "durationTicks": 48,
          "midi": 74,
          "name": "D5",
          "ticks": 15456,
          "time": 68.028135,
          "velocity": 0.6850393700787402
        },
        {
          "duration": 0.42253500000001054,
          "durationTicks": 96,
          "midi": 69,
          "name": "A4",
          "ticks": 15552,
          "time": 68.45067,
          "velocity": 0.4645669291338583
        },
        {
          "duration": 0.21126750000000527,
          "durationTicks": 48,
          "midi": 74,
          "name": "D5",
          "ticks": 15552,
          "time": 68.45067,
          "velocity": 0.6850393700787402
        },
        {
          "duration": 0.21126749999999106,
          "durationTicks": 48,
          "midi": 62,
          "name": "D4",
          "ticks": 15648,
          "time": 68.87320500000001,
          "velocity": 0.48031496062992124
        },
        {
          "duration": 0.21126749999999106,
          "durationTicks": 48,
          "midi": 78,
          "name": "F#5",
          "ticks": 15648,
          "time": 68.87320500000001,
          "velocity": 0.6850393700787402
        },
        {
          "duration": 1.6901399999999995,
          "durationTicks": 384,
          "midi": 64,
          "name": "E4",
          "ticks": 15696,
          "time": 69.0844725,
          "velocity": 0.4881889763779528
        },
        {
          "duration": 0.21126750000000527,
          "durationTicks": 48,
          "midi": 79,
          "name": "G5",
          "ticks": 15696,
          "time": 69.0844725,
          "velocity": 0.6850393700787402
        },
        {
          "duration": 1.4788724999999943,
          "durationTicks": 336,
          "midi": 76,
          "name": "E5",
          "ticks": 15744,
          "time": 69.29574000000001,
          "velocity": 0.6850393700787402
        },
        {
          "duration": 0.21126750000000527,
          "durationTicks": 48,
          "midi": 74,
          "name": "D5",
          "ticks": 16080,
          "time": 70.7746125,
          "velocity": 0.6850393700787402
        },
        {
          "duration": 0.21126750000000527,
          "durationTicks": 48,
          "midi": 66,
          "name": "F#4",
          "ticks": 16128,
          "time": 70.98588000000001,
          "velocity": 0.5511811023622047
        },
        {
          "duration": 0.21126750000000527,
          "durationTicks": 48,
          "midi": 78,
          "name": "F#5",
          "ticks": 16128,
          "time": 70.98588000000001,
          "velocity": 0.6850393700787402
        },
        {
          "duration": 0.42253499999999633,
          "durationTicks": 96,
          "midi": 67,
          "name": "G4",
          "ticks": 16176,
          "time": 71.19714750000001,
          "velocity": 0.5590551181102362
        },
        {
          "duration": 0.21126750000000527,
          "durationTicks": 48,
          "midi": 79,
          "name": "G5",
          "ticks": 16224,
          "time": 71.408415,
          "velocity": 0.6850393700787402
        },
        {
          "duration": 0.42253499999999633,
          "durationTicks": 96,
          "midi": 66,
          "name": "F#4",
          "ticks": 16272,
          "time": 71.61968250000001,
          "velocity": 0.5748031496062992
        },
        {
          "duration": 0.21126750000000527,
          "durationTicks": 48,
          "midi": 78,
          "name": "F#5",
          "ticks": 16320,
          "time": 71.83095,
          "velocity": 0.6850393700787402
        },
        {
          "duration": 0.42253499999999633,
          "durationTicks": 96,
          "midi": 64,
          "name": "E4",
          "ticks": 16368,
          "time": 72.0422175,
          "velocity": 0.5905511811023622
        },
        {
          "duration": 0.21126749999999106,
          "durationTicks": 48,
          "midi": 74,
          "name": "D5",
          "ticks": 16416,
          "time": 72.25348500000001,
          "velocity": 0.6850393700787402
        },
        {
          "duration": 1.6901399999999995,
          "durationTicks": 384,
          "midi": 62,
          "name": "D4",
          "ticks": 16464,
          "time": 72.4647525,
          "velocity": 0.6062992125984252
        },
        {
          "duration": 0.21126750000000527,
          "durationTicks": 48,
          "midi": 79,
          "name": "G5",
          "ticks": 16464,
          "time": 72.4647525,
          "velocity": 0.6850393700787402
        },
        {
          "duration": 0.21126750000000527,
          "durationTicks": 48,
          "midi": 78,
          "name": "F#5",
          "ticks": 16512,
          "time": 72.67602000000001,
          "velocity": 0.6850393700787402
        },
        {
          "duration": 0.21126750000000527,
          "durationTicks": 48,
          "midi": 78,
          "name": "F#5",
          "ticks": 16608,
          "time": 73.098555,
          "velocity": 0.6850393700787402
        },
        {
          "duration": 0.21126750000000527,
          "durationTicks": 48,
          "midi": 79,
          "name": "G5",
          "ticks": 16656,
          "time": 73.30982250000001,
          "velocity": 0.6850393700787402
        },
        {
          "duration": 0.21126749999999106,
          "durationTicks": 48,
          "midi": 81,
          "name": "A5",
          "ticks": 16704,
          "time": 73.52109000000002,
          "velocity": 0.6850393700787402
        },
        {
          "duration": 0.21126750000000527,
          "durationTicks": 48,
          "midi": 79,
          "name": "G5",
          "ticks": 16752,
          "time": 73.7323575,
          "velocity": 0.6850393700787402
        },
        {
          "duration": 0.21126749999999106,
          "durationTicks": 48,
          "midi": 74,
          "name": "D5",
          "ticks": 16800,
          "time": 73.94362500000001,
          "velocity": 0.6850393700787402
        },
        {
          "duration": 0.21126750000000527,
          "durationTicks": 48,
          "midi": 78,
          "name": "F#5",
          "ticks": 16896,
          "time": 74.36616000000001,
          "velocity": 0.6850393700787402
        },
        {
          "duration": 0.42253500000001054,
          "durationTicks": 96,
          "midi": 62,
          "name": "D4",
          "ticks": 16992,
          "time": 74.788695,
          "velocity": 0.6929133858267716
        },
        {
          "duration": 0.21126750000000527,
          "durationTicks": 48,
          "midi": 78,
          "name": "F#5",
          "ticks": 16992,
          "time": 74.788695,
          "velocity": 0.6850393700787402
        },
        {
          "duration": 0.42253499999999633,
          "durationTicks": 96,
          "midi": 69,
          "name": "A4",
          "ticks": 17088,
          "time": 75.21123000000001,
          "velocity": 0.7086614173228346
        },
        {
          "duration": 0.21126749999999106,
          "durationTicks": 48,
          "midi": 78,
          "name": "F#5",
          "ticks": 17088,
          "time": 75.21123000000001,
          "velocity": 0.6850393700787402
        },
        {
          "duration": 0.21126749999999106,
          "durationTicks": 48,
          "midi": 62,
          "name": "D4",
          "ticks": 17184,
          "time": 75.63376500000001,
          "velocity": 0.7165354330708661
        },
        {
          "duration": 0.21126749999999106,
          "durationTicks": 48,
          "midi": 81,
          "name": "A5",
          "ticks": 17184,
          "time": 75.63376500000001,
          "velocity": 0.6850393700787402
        },
        {
          "duration": 1.6901400000000137,
          "durationTicks": 384,
          "midi": 64,
          "name": "E4",
          "ticks": 17232,
          "time": 75.8450325,
          "velocity": 0.7244094488188977
        },
        {
          "duration": 0.21126750000000527,
          "durationTicks": 48,
          "midi": 74,
          "name": "D5",
          "ticks": 17232,
          "time": 75.8450325,
          "velocity": 0.6850393700787402
        },
        {
          "duration": 0.6338025000000016,
          "durationTicks": 144,
          "midi": 76,
          "name": "E5",
          "ticks": 17280,
          "time": 76.05630000000001,
          "velocity": 0.6850393700787402
        },
        {
          "duration": 0.21126750000000527,
          "durationTicks": 48,
          "midi": 81,
          "name": "A5",
          "ticks": 17424,
          "time": 76.69010250000001,
          "velocity": 0.6850393700787402
        },
        {
          "duration": 0.21126750000000527,
          "durationTicks": 48,
          "midi": 81,
          "name": "A5",
          "ticks": 17520,
          "time": 77.1126375,
          "velocity": 0.6850393700787402
        },
        {
          "duration": 0.21126750000000527,
          "durationTicks": 48,
          "midi": 79,
          "name": "G5",
          "ticks": 17568,
          "time": 77.32390500000001,
          "velocity": 0.6850393700787402
        },
        {
          "duration": 0.21126749999999106,
          "durationTicks": 48,
          "midi": 76,
          "name": "E5",
          "ticks": 17616,
          "time": 77.53517250000002,
          "velocity": 0.6850393700787402
        },
        {
          "duration": 0.42253499999999633,
          "durationTicks": 96,
          "midi": 66,
          "name": "F#4",
          "ticks": 17664,
          "time": 77.74644,
          "velocity": 0.7952755905511811
        },
        {
          "duration": 0.21126750000000527,
          "durationTicks": 48,
          "midi": 78,
          "name": "F#5",
          "ticks": 17664,
          "time": 77.74644,
          "velocity": 0.6850393700787402
        },
        {
          "duration": 0.21126749999999106,
          "durationTicks": 48,
          "midi": 79,
          "name": "G5",
          "ticks": 17712,
          "time": 77.95770750000001,
          "velocity": 0.6850393700787402
        },
        {
          "duration": 0.21126750000000527,
          "durationTicks": 48,
          "midi": 67,
          "name": "G4",
          "ticks": 17760,
          "time": 78.168975,
          "velocity": 0.8110236220472441
        },
        {
          "duration": 0.21126750000000527,
          "durationTicks": 48,
          "midi": 78,
          "name": "F#5",
          "ticks": 17760,
          "time": 78.168975,
          "velocity": 0.6850393700787402
        },
        {
          "duration": 0.6338025000000016,
          "durationTicks": 144,
          "midi": 66,
          "name": "F#4",
          "ticks": 17808,
          "time": 78.38024250000001,
          "velocity": 0.8188976377952756
        },
        {
          "duration": 0.21126750000000527,
          "durationTicks": 48,
          "midi": 79,
          "name": "G5",
          "ticks": 17808,
          "time": 78.38024250000001,
          "velocity": 0.6850393700787402
        },
        {
          "duration": 0.42253499999999633,
          "durationTicks": 96,
          "midi": 78,
          "name": "F#5",
          "ticks": 17856,
          "time": 78.59151000000001,
          "velocity": 0.6850393700787402
        },
        {
          "duration": 0.21126750000000527,
          "durationTicks": 48,
          "midi": 62,
          "name": "D4",
          "ticks": 17952,
          "time": 79.01404500000001,
          "velocity": 0.84251968503937
        },
        {
          "duration": 0.21126750000000527,
          "durationTicks": 48,
          "midi": 74,
          "name": "D5",
          "ticks": 17952,
          "time": 79.01404500000001,
          "velocity": 0.6850393700787402
        },
        {
          "duration": 0.42253499999999633,
          "durationTicks": 96,
          "midi": 66,
          "name": "F#4",
          "ticks": 18000,
          "time": 79.22531250000002,
          "velocity": 0.8503937007874016
        },
        {
          "duration": 0.21126750000000527,
          "durationTicks": 48,
          "midi": 78,
          "name": "F#5",
          "ticks": 18048,
          "time": 79.43658,
          "velocity": 0.6850393700787402
        },
        {
          "duration": 0.42253499999999633,
          "durationTicks": 96,
          "midi": 67,
          "name": "G4",
          "ticks": 18096,
          "time": 79.64784750000001,
          "velocity": 0.8661417322834646
        },
        {
          "duration": 0.21126749999999106,
          "durationTicks": 48,
          "midi": 79,
          "name": "G5",
          "ticks": 18096,
          "time": 79.64784750000001,
          "velocity": 0.6850393700787402
        },
        {
          "duration": 0.21126750000000527,
          "durationTicks": 48,
          "midi": 78,
          "name": "F#5",
          "ticks": 18144,
          "time": 79.859115,
          "velocity": 0.6850393700787402
        },
        {
          "duration": 0.42253499999999633,
          "durationTicks": 96,
          "midi": 66,
          "name": "F#4",
          "ticks": 18192,
          "time": 80.07038250000001,
          "velocity": 0.8818897637795275
        },
        {
          "duration": 0.21126750000000527,
          "durationTicks": 48,
          "midi": 79,
          "name": "G5",
          "ticks": 18192,
          "time": 80.07038250000001,
          "velocity": 0.6850393700787402
        },
        {
          "duration": 0.21126749999999106,
          "durationTicks": 48,
          "midi": 81,
          "name": "A5",
          "ticks": 18240,
          "time": 80.28165000000001,
          "velocity": 0.6850393700787402
        },
        {
          "duration": 0.21126750000000527,
          "durationTicks": 48,
          "midi": 64,
          "name": "E4",
          "ticks": 18288,
          "time": 80.4929175,
          "velocity": 0.889763779527559
        },
        {
          "duration": 0.42253499999999633,
          "durationTicks": 96,
          "midi": 62,
          "name": "D4",
          "ticks": 18336,
          "time": 80.70418500000001,
          "velocity": 0.8976377952755905
        },
        {
          "duration": 0.42253499999999633,
          "durationTicks": 96,
          "midi": 74,
          "name": "D5",
          "ticks": 18336,
          "time": 80.70418500000001,
          "velocity": 0.6850393700787402
        },
        {
          "duration": 0.21126750000000527,
          "durationTicks": 48,
          "midi": 86,
          "name": "D6",
          "ticks": 18432,
          "time": 81.12672,
          "velocity": 0.7086614173228346
        },
        {
          "duration": 0.21126750000000527,
          "durationTicks": 48,
          "midi": 74,
          "name": "D5",
          "ticks": 18432,
          "time": 81.12672,
          "velocity": 0.7086614173228346
        },
        {
          "duration": 0.21126749999999106,
          "durationTicks": 48,
          "midi": 86,
          "name": "D6",
          "ticks": 18528,
          "time": 81.54925500000002,
          "velocity": 0.7086614173228346
        },
        {
          "duration": 0.21126749999999106,
          "durationTicks": 48,
          "midi": 74,
          "name": "D5",
          "ticks": 18528,
          "time": 81.54925500000002,
          "velocity": 0.7086614173228346
        },
        {
          "duration": 0.42253499999999633,
          "durationTicks": 96,
          "midi": 62,
          "name": "D4",
          "ticks": 18528,
          "time": 81.54925500000002,
          "velocity": 0.8661417322834646
        },
        {
          "duration": 0.21126749999999106,
          "durationTicks": 48,
          "midi": 86,
          "name": "D6",
          "ticks": 18624,
          "time": 81.97179000000001,
          "velocity": 0.7086614173228346
        },
        {
          "duration": 0.21126749999999106,
          "durationTicks": 48,
          "midi": 74,
          "name": "D5",
          "ticks": 18624,
          "time": 81.97179000000001,
          "velocity": 0.7086614173228346
        },
        {
          "duration": 0.42253499999999633,
          "durationTicks": 96,
          "midi": 69,
          "name": "A4",
          "ticks": 18624,
          "time": 81.97179000000001,
          "velocity": 0.8661417322834646
        },
        {
          "duration": 0.21126750000000527,
          "durationTicks": 48,
          "midi": 90,
          "name": "F#6",
          "ticks": 18720,
          "time": 82.39432500000001,
          "velocity": 0.7086614173228346
        },
        {
          "duration": 0.21126750000000527,
          "durationTicks": 48,
          "midi": 78,
          "name": "F#5",
          "ticks": 18720,
          "time": 82.39432500000001,
          "velocity": 0.7086614173228346
        },
        {
          "duration": 0.21126750000000527,
          "durationTicks": 48,
          "midi": 62,
          "name": "D4",
          "ticks": 18720,
          "time": 82.39432500000001,
          "velocity": 0.8661417322834646
        },
        {
          "duration": 0.21126749999999106,
          "durationTicks": 48,
          "midi": 79,
          "name": "G5",
          "ticks": 18768,
          "time": 82.60559250000001,
          "velocity": 0.7086614173228346
        },
        {
          "duration": 0.21126749999999106,
          "durationTicks": 48,
          "midi": 91,
          "name": "G6",
          "ticks": 18768,
          "time": 82.60559250000001,
          "velocity": 0.7086614173228346
        },
        {
          "duration": 1.6901399999999995,
          "durationTicks": 384,
          "midi": 64,
          "name": "E4",
          "ticks": 18768,
          "time": 82.60559250000001,
          "velocity": 0.8661417322834646
        },
        {
          "duration": 1.4788725000000085,
          "durationTicks": 336,
          "midi": 88,
          "name": "E6",
          "ticks": 18816,
          "time": 82.81686,
          "velocity": 0.7086614173228346
        },
        {
          "duration": 1.4788725000000085,
          "durationTicks": 336,
          "midi": 76,
          "name": "E5",
          "ticks": 18816,
          "time": 82.81686,
          "velocity": 0.7086614173228346
        },
        {
          "duration": 0.21126749999999106,
          "durationTicks": 48,
          "midi": 74,
          "name": "D5",
          "ticks": 19152,
          "time": 84.29573250000001,
          "velocity": 0.7086614173228346
        },
        {
          "duration": 0.21126749999999106,
          "durationTicks": 48,
          "midi": 86,
          "name": "D6",
          "ticks": 19152,
          "time": 84.29573250000001,
          "velocity": 0.7086614173228346
        },
        {
          "duration": 0.21126750000000527,
          "durationTicks": 48,
          "midi": 90,
          "name": "F#6",
          "ticks": 19200,
          "time": 84.507,
          "velocity": 0.7086614173228346
        },
        {
          "duration": 0.21126750000000527,
          "durationTicks": 48,
          "midi": 78,
          "name": "F#5",
          "ticks": 19200,
          "time": 84.507,
          "velocity": 0.7086614173228346
        },
        {
          "duration": 0.21126750000000527,
          "durationTicks": 48,
          "midi": 66,
          "name": "F#4",
          "ticks": 19200,
          "time": 84.507,
          "velocity": 0.8661417322834646
        },
        {
          "duration": 0.42253499999999633,
          "durationTicks": 96,
          "midi": 67,
          "name": "G4",
          "ticks": 19248,
          "time": 84.71826750000001,
          "velocity": 0.8661417322834646
        },
        {
          "duration": 0.21126749999999106,
          "durationTicks": 48,
          "midi": 91,
          "name": "G6",
          "ticks": 19296,
          "time": 84.92953500000002,
          "velocity": 0.7086614173228346
        },
        {
          "duration": 0.21126749999999106,
          "durationTicks": 48,
          "midi": 79,
          "name": "G5",
          "ticks": 19296,
          "time": 84.92953500000002,
          "velocity": 0.7086614173228346
        },
        {
          "duration": 0.42253499999999633,
          "durationTicks": 96,
          "midi": 66,
          "name": "F#4",
          "ticks": 19344,
          "time": 85.1408025,
          "velocity": 0.8661417322834646
        },
        {
          "duration": 0.21126749999999106,
          "durationTicks": 48,
          "midi": 90,
          "name": "F#6",
          "ticks": 19392,
          "time": 85.35207000000001,
          "velocity": 0.7086614173228346
        },
        {
          "duration": 0.21126749999999106,
          "durationTicks": 48,
          "midi": 78,
          "name": "F#5",
          "ticks": 19392,
          "time": 85.35207000000001,
          "velocity": 0.7086614173228346
        },
        {
          "duration": 0.42253500000001054,
          "durationTicks": 96,
          "midi": 64,
          "name": "E4",
          "ticks": 19440,
          "time": 85.5633375,
          "velocity": 0.8661417322834646
        },
        {
          "duration": 0.21126750000000527,
          "durationTicks": 48,
          "midi": 86,
          "name": "D6",
          "ticks": 19488,
          "time": 85.77460500000001,
          "velocity": 0.7086614173228346
        },
        {
          "duration": 0.21126750000000527,
          "durationTicks": 48,
          "midi": 74,
          "name": "D5",
          "ticks": 19488,
          "time": 85.77460500000001,
          "velocity": 0.7086614173228346
        },
        {
          "duration": 0.21126749999999106,
          "durationTicks": 48,
          "midi": 79,
          "name": "G5",
          "ticks": 19536,
          "time": 85.98587250000001,
          "velocity": 0.7086614173228346
        },
        {
          "duration": 0.21126749999999106,
          "durationTicks": 48,
          "midi": 91,
          "name": "G6",
          "ticks": 19536,
          "time": 85.98587250000001,
          "velocity": 0.7086614173228346
        },
        {
          "duration": 1.9014074999999906,
          "durationTicks": 432,
          "midi": 62,
          "name": "D4",
          "ticks": 19536,
          "time": 85.98587250000001,
          "velocity": 0.8661417322834646
        },
        {
          "duration": 0.21126750000000527,
          "durationTicks": 48,
          "midi": 90,
          "name": "F#6",
          "ticks": 19584,
          "time": 86.19714,
          "velocity": 0.7086614173228346
        },
        {
          "duration": 0.21126750000000527,
          "durationTicks": 48,
          "midi": 78,
          "name": "F#5",
          "ticks": 19584,
          "time": 86.19714,
          "velocity": 0.7086614173228346
        },
        {
          "duration": 0.21126749999999106,
          "durationTicks": 48,
          "midi": 78,
          "name": "F#5",
          "ticks": 19680,
          "time": 86.61967500000002,
          "velocity": 0.7086614173228346
        },
        {
          "duration": 0.21126749999999106,
          "durationTicks": 48,
          "midi": 90,
          "name": "F#6",
          "ticks": 19680,
          "time": 86.61967500000002,
          "velocity": 0.7086614173228346
        },
        {
          "duration": 0.21126750000000527,
          "durationTicks": 48,
          "midi": 79,
          "name": "G5",
          "ticks": 19728,
          "time": 86.8309425,
          "velocity": 0.7086614173228346
        },
        {
          "duration": 0.21126750000000527,
          "durationTicks": 48,
          "midi": 91,
          "name": "G6",
          "ticks": 19728,
          "time": 86.8309425,
          "velocity": 0.7086614173228346
        },
        {
          "duration": 0.21126750000000527,
          "durationTicks": 48,
          "midi": 93,
          "name": "A6",
          "ticks": 19776,
          "time": 87.04221000000001,
          "velocity": 0.7086614173228346
        },
        {
          "duration": 0.21126750000000527,
          "durationTicks": 48,
          "midi": 81,
          "name": "A5",
          "ticks": 19776,
          "time": 87.04221000000001,
          "velocity": 0.7086614173228346
        },
        {
          "duration": 0.21126749999999106,
          "durationTicks": 48,
          "midi": 79,
          "name": "G5",
          "ticks": 19824,
          "time": 87.25347750000002,
          "velocity": 0.7086614173228346
        },
        {
          "duration": 0.21126749999999106,
          "durationTicks": 48,
          "midi": 91,
          "name": "G6",
          "ticks": 19824,
          "time": 87.25347750000002,
          "velocity": 0.7086614173228346
        },
        {
          "duration": 0.21126750000000527,
          "durationTicks": 48,
          "midi": 86,
          "name": "D6",
          "ticks": 19872,
          "time": 87.46474500000001,
          "velocity": 0.7086614173228346
        },
        {
          "duration": 0.21126750000000527,
          "durationTicks": 48,
          "midi": 74,
          "name": "D5",
          "ticks": 19872,
          "time": 87.46474500000001,
          "velocity": 0.7086614173228346
        },
        {
          "duration": 0.21126750000000527,
          "durationTicks": 48,
          "midi": 90,
          "name": "F#6",
          "ticks": 19968,
          "time": 87.88728,
          "velocity": 0.7086614173228346
        },
        {
          "duration": 0.21126750000000527,
          "durationTicks": 48,
          "midi": 78,
          "name": "F#5",
          "ticks": 19968,
          "time": 87.88728,
          "velocity": 0.7086614173228346
        },
        {
          "duration": 0.21126749999999106,
          "durationTicks": 48,
          "midi": 90,
          "name": "F#6",
          "ticks": 20064,
          "time": 88.30981500000001,
          "velocity": 0.7086614173228346
        },
        {
          "duration": 0.21126749999999106,
          "durationTicks": 48,
          "midi": 78,
          "name": "F#5",
          "ticks": 20064,
          "time": 88.30981500000001,
          "velocity": 0.7086614173228346
        },
        {
          "duration": 0.42253499999999633,
          "durationTicks": 96,
          "midi": 62,
          "name": "D4",
          "ticks": 20064,
          "time": 88.30981500000001,
          "velocity": 0.8661417322834646
        },
        {
          "duration": 0.21126750000000527,
          "durationTicks": 48,
          "midi": 90,
          "name": "F#6",
          "ticks": 20160,
          "time": 88.73235000000001,
          "velocity": 0.7086614173228346
        },
        {
          "duration": 0.21126750000000527,
          "durationTicks": 48,
          "midi": 78,
          "name": "F#5",
          "ticks": 20160,
          "time": 88.73235000000001,
          "velocity": 0.7086614173228346
        },
        {
          "duration": 0.42253499999999633,
          "durationTicks": 96,
          "midi": 69,
          "name": "A4",
          "ticks": 20160,
          "time": 88.73235000000001,
          "velocity": 0.8661417322834646
        },
        {
          "duration": 0.21126750000000527,
          "durationTicks": 48,
          "midi": 93,
          "name": "A6",
          "ticks": 20256,
          "time": 89.15488500000001,
          "velocity": 0.7086614173228346
        },
        {
          "duration": 0.21126750000000527,
          "durationTicks": 48,
          "midi": 81,
          "name": "A5",
          "ticks": 20256,
          "time": 89.15488500000001,
          "velocity": 0.7086614173228346
        },
        {
          "duration": 0.21126750000000527,
          "durationTicks": 48,
          "midi": 62,
          "name": "D4",
          "ticks": 20256,
          "time": 89.15488500000001,
          "velocity": 0.8661417322834646
        },
        {
          "duration": 0.21126749999999106,
          "durationTicks": 48,
          "midi": 74,
          "name": "D5",
          "ticks": 20304,
          "time": 89.36615250000001,
          "velocity": 0.7086614173228346
        },
        {
          "duration": 0.21126749999999106,
          "durationTicks": 48,
          "midi": 86,
          "name": "D6",
          "ticks": 20304,
          "time": 89.36615250000001,
          "velocity": 0.7086614173228346
        },
        {
          "duration": 1.6901399999999995,
          "durationTicks": 384,
          "midi": 64,
          "name": "E4",
          "ticks": 20304,
          "time": 89.36615250000001,
          "velocity": 0.8661417322834646
        },
        {
          "duration": 0.6338025000000016,
          "durationTicks": 144,
          "midi": 88,
          "name": "E6",
          "ticks": 20352,
          "time": 89.57742,
          "velocity": 0.7086614173228346
        },
        {
          "duration": 0.6338025000000016,
          "durationTicks": 144,
          "midi": 76,
          "name": "E5",
          "ticks": 20352,
          "time": 89.57742,
          "velocity": 0.7086614173228346
        },
        {
          "duration": 0.21126750000000527,
          "durationTicks": 48,
          "midi": 93,
          "name": "A6",
          "ticks": 20496,
          "time": 90.2112225,
          "velocity": 0.7086614173228346
        },
        {
          "duration": 0.21126750000000527,
          "durationTicks": 48,
          "midi": 81,
          "name": "A5",
          "ticks": 20496,
          "time": 90.2112225,
          "velocity": 0.7086614173228346
        },
        {
          "duration": 0.21126749999999106,
          "durationTicks": 48,
          "midi": 81,
          "name": "A5",
          "ticks": 20592,
          "time": 90.63375750000002,
          "velocity": 0.7086614173228346
        },
        {
          "duration": 0.21126749999999106,
          "durationTicks": 48,
          "midi": 93,
          "name": "A6",
          "ticks": 20592,
          "time": 90.63375750000002,
          "velocity": 0.7086614173228346
        },
        {
          "duration": 0.21126750000000527,
          "durationTicks": 48,
          "midi": 79,
          "name": "G5",
          "ticks": 20640,
          "time": 90.845025,
          "velocity": 0.7086614173228346
        },
        {
          "duration": 0.21126750000000527,
          "durationTicks": 48,
          "midi": 91,
          "name": "G6",
          "ticks": 20640,
          "time": 90.845025,
          "velocity": 0.7086614173228346
        },
        {
          "duration": 0.21126750000000527,
          "durationTicks": 48,
          "midi": 76,
          "name": "E5",
          "ticks": 20688,
          "time": 91.05629250000001,
          "velocity": 0.7086614173228346
        },
        {
          "duration": 0.21126750000000527,
          "durationTicks": 48,
          "midi": 88,
          "name": "E6",
          "ticks": 20688,
          "time": 91.05629250000001,
          "velocity": 0.7086614173228346
        },
        {
          "duration": 0.21126749999999106,
          "durationTicks": 48,
          "midi": 78,
          "name": "F#5",
          "ticks": 20736,
          "time": 91.26756000000002,
          "velocity": 0.7086614173228346
        },
        {
          "duration": 0.21126749999999106,
          "durationTicks": 48,
          "midi": 90,
          "name": "F#6",
          "ticks": 20736,
          "time": 91.26756000000002,
          "velocity": 0.7086614173228346
        },
        {
          "duration": 0.42253499999999633,
          "durationTicks": 96,
          "midi": 66,
          "name": "F#4",
          "ticks": 20736,
          "time": 91.26756000000002,
          "velocity": 0.8661417322834646
        },
        {
          "duration": 0.21126750000000527,
          "durationTicks": 48,
          "midi": 79,
          "name": "G5",
          "ticks": 20784,
          "time": 91.47882750000001,
          "velocity": 0.7086614173228346
        },
        {
          "duration": 0.21126750000000527,
          "durationTicks": 48,
          "midi": 91,
          "name": "G6",
          "ticks": 20784,
          "time": 91.47882750000001,
          "velocity": 0.7086614173228346
        },
        {
          "duration": 0.21126749999999106,
          "durationTicks": 48,
          "midi": 90,
          "name": "F#6",
          "ticks": 20832,
          "time": 91.69009500000001,
          "velocity": 0.7086614173228346
        },
        {
          "duration": 0.21126749999999106,
          "durationTicks": 48,
          "midi": 78,
          "name": "F#5",
          "ticks": 20832,
          "time": 91.69009500000001,
          "velocity": 0.7086614173228346
        },
        {
          "duration": 0.21126749999999106,
          "durationTicks": 48,
          "midi": 67,
          "name": "G4",
          "ticks": 20832,
          "time": 91.69009500000001,
          "velocity": 0.8661417322834646
        },
        {
          "duration": 0.21126750000000527,
          "durationTicks": 48,
          "midi": 79,
          "name": "G5",
          "ticks": 20880,
          "time": 91.9013625,
          "velocity": 0.7086614173228346
        },
        {
          "duration": 0.21126750000000527,
          "durationTicks": 48,
          "midi": 91,
          "name": "G6",
          "ticks": 20880,
          "time": 91.9013625,
          "velocity": 0.7086614173228346
        },
        {
          "duration": 0.6338025000000016,
          "durationTicks": 144,
          "midi": 66,
          "name": "F#4",
          "ticks": 20880,
          "time": 91.9013625,
          "velocity": 0.8661417322834646
        },
        {
          "duration": 0.42253499999999633,
          "durationTicks": 96,
          "midi": 90,
          "name": "F#6",
          "ticks": 20928,
          "time": 92.11263000000001,
          "velocity": 0.7086614173228346
        },
        {
          "duration": 0.42253499999999633,
          "durationTicks": 96,
          "midi": 78,
          "name": "F#5",
          "ticks": 20928,
          "time": 92.11263000000001,
          "velocity": 0.7086614173228346
        },
        {
          "duration": 0.21126750000000527,
          "durationTicks": 48,
          "midi": 86,
          "name": "D6",
          "ticks": 21024,
          "time": 92.535165,
          "velocity": 0.7086614173228346
        },
        {
          "duration": 0.21126750000000527,
          "durationTicks": 48,
          "midi": 74,
          "name": "D5",
          "ticks": 21024,
          "time": 92.535165,
          "velocity": 0.7086614173228346
        },
        {
          "duration": 0.21126750000000527,
          "durationTicks": 48,
          "midi": 62,
          "name": "D4",
          "ticks": 21024,
          "time": 92.535165,
          "velocity": 0.8661417322834646
        },
        {
          "duration": 0.42253499999999633,
          "durationTicks": 96,
          "midi": 66,
          "name": "F#4",
          "ticks": 21072,
          "time": 92.74643250000001,
          "velocity": 0.8661417322834646
        },
        {
          "duration": 0.21126749999999106,
          "durationTicks": 48,
          "midi": 78,
          "name": "F#5",
          "ticks": 21120,
          "time": 92.95770000000002,
          "velocity": 0.7086614173228346
        },
        {
          "duration": 0.21126749999999106,
          "durationTicks": 48,
          "midi": 90,
          "name": "F#6",
          "ticks": 21120,
          "time": 92.95770000000002,
          "velocity": 0.7086614173228346
        },
        {
          "duration": 0.21126750000000527,
          "durationTicks": 48,
          "midi": 79,
          "name": "G5",
          "ticks": 21168,
          "time": 93.16896750000001,
          "velocity": 0.7086614173228346
        },
        {
          "duration": 0.21126750000000527,
          "durationTicks": 48,
          "midi": 91,
          "name": "G6",
          "ticks": 21168,
          "time": 93.16896750000001,
          "velocity": 0.7086614173228346
        },
        {
          "duration": 0.42253499999999633,
          "durationTicks": 96,
          "midi": 67,
          "name": "G4",
          "ticks": 21168,
          "time": 93.16896750000001,
          "velocity": 0.8661417322834646
        },
        {
          "duration": 0.21126749999999106,
          "durationTicks": 48,
          "midi": 90,
          "name": "F#6",
          "ticks": 21216,
          "time": 93.38023500000001,
          "velocity": 0.7086614173228346
        },
        {
          "duration": 0.21126749999999106,
          "durationTicks": 48,
          "midi": 78,
          "name": "F#5",
          "ticks": 21216,
          "time": 93.38023500000001,
          "velocity": 0.7086614173228346
        },
        {
          "duration": 0.21126750000000527,
          "durationTicks": 48,
          "midi": 79,
          "name": "G5",
          "ticks": 21264,
          "time": 93.5915025,
          "velocity": 0.7086614173228346
        },
        {
          "duration": 0.21126750000000527,
          "durationTicks": 48,
          "midi": 91,
          "name": "G6",
          "ticks": 21264,
          "time": 93.5915025,
          "velocity": 0.7086614173228346
        },
        {
          "duration": 0.42253500000001054,
          "durationTicks": 96,
          "midi": 66,
          "name": "F#4",
          "ticks": 21264,
          "time": 93.5915025,
          "velocity": 0.8661417322834646
        },
        {
          "duration": 0.21126750000000527,
          "durationTicks": 48,
          "midi": 93,
          "name": "A6",
          "ticks": 21312,
          "time": 93.80277000000001,
          "velocity": 0.7086614173228346
        },
        {
          "duration": 0.21126750000000527,
          "durationTicks": 48,
          "midi": 81,
          "name": "A5",
          "ticks": 21312,
          "time": 93.80277000000001,
          "velocity": 0.7086614173228346
        },
        {
          "duration": 0.21126749999999106,
          "durationTicks": 48,
          "midi": 64,
          "name": "E4",
          "ticks": 21360,
          "time": 94.01403750000001,
          "velocity": 0.8661417322834646
        },
        {
          "duration": 0.42253500000001054,
          "durationTicks": 96,
          "midi": 86,
          "name": "D6",
          "ticks": 21408,
          "time": 94.225305,
          "velocity": 0.7086614173228346
        },
        {
          "duration": 0.42253500000001054,
          "durationTicks": 96,
          "midi": 74,
          "name": "D5",
          "ticks": 21408,
          "time": 94.225305,
          "velocity": 0.7086614173228346
        },
        {
          "duration": 0.42253500000001054,
          "durationTicks": 96,
          "midi": 62,
          "name": "D4",
          "ticks": 21408,
          "time": 94.225305,
          "velocity": 0.8661417322834646
        },
        {
          "duration": 0.42253499999999633,
          "durationTicks": 96,
          "midi": 62,
          "name": "D4",
          "ticks": 21504,
          "time": 94.64784000000002,
          "velocity": 0.8267716535433071
        },
        {
          "duration": 0.21126749999999106,
          "durationTicks": 48,
          "midi": 86,
          "name": "D6",
          "ticks": 21504,
          "time": 94.64784000000002,
          "velocity": 0.7086614173228346
        },
        {
          "duration": 0.21126749999999106,
          "durationTicks": 48,
          "midi": 74,
          "name": "D5",
          "ticks": 21504,
          "time": 94.64784000000002,
          "velocity": 0.7086614173228346
        },
        {
          "duration": 0.42253499999999633,
          "durationTicks": 96,
          "midi": 62,
          "name": "D4",
          "ticks": 21600,
          "time": 95.07037500000001,
          "velocity": 0.8267716535433071
        },
        {
          "duration": 0.21126750000000527,
          "durationTicks": 48,
          "midi": 86,
          "name": "D6",
          "ticks": 21600,
          "time": 95.07037500000001,
          "velocity": 0.7086614173228346
        },
        {
          "duration": 0.21126750000000527,
          "durationTicks": 48,
          "midi": 74,
          "name": "D5",
          "ticks": 21600,
          "time": 95.07037500000001,
          "velocity": 0.7086614173228346
        },
        {
          "duration": 0.42253499999999633,
          "durationTicks": 96,
          "midi": 62,
          "name": "D4",
          "ticks": 21696,
          "time": 95.49291000000001,
          "velocity": 0.8267716535433071
        },
        {
          "duration": 0.21126750000000527,
          "durationTicks": 48,
          "midi": 86,
          "name": "D6",
          "ticks": 21696,
          "time": 95.49291000000001,
          "velocity": 0.7086614173228346
        },
        {
          "duration": 0.21126750000000527,
          "durationTicks": 48,
          "midi": 74,
          "name": "D5",
          "ticks": 21696,
          "time": 95.49291000000001,
          "velocity": 0.7086614173228346
        },
        {
          "duration": 0.42253500000001054,
          "durationTicks": 96,
          "midi": 57,
          "name": "A3",
          "ticks": 21792,
          "time": 95.915445,
          "velocity": 0.8267716535433071
        },
        {
          "duration": 0.21126750000000527,
          "durationTicks": 48,
          "midi": 90,
          "name": "F#6",
          "ticks": 21792,
          "time": 95.915445,
          "velocity": 0.7086614173228346
        },
        {
          "duration": 0.21126750000000527,
          "durationTicks": 48,
          "midi": 78,
          "name": "F#5",
          "ticks": 21792,
          "time": 95.915445,
          "velocity": 0.7086614173228346
        },
        {
          "duration": 0.21126750000000527,
          "durationTicks": 48,
          "midi": 79,
          "name": "G5",
          "ticks": 21840,
          "time": 96.12671250000001,
          "velocity": 0.7086614173228346
        },
        {
          "duration": 0.21126750000000527,
          "durationTicks": 48,
          "midi": 91,
          "name": "G6",
          "ticks": 21840,
          "time": 96.12671250000001,
          "velocity": 0.7086614173228346
        },
        {
          "duration": 0.42253499999999633,
          "durationTicks": 96,
          "midi": 64,
          "name": "E4",
          "ticks": 21888,
          "time": 96.33798000000002,
          "velocity": 0.8267716535433071
        },
        {
          "duration": 1.4788724999999943,
          "durationTicks": 336,
          "midi": 88,
          "name": "E6",
          "ticks": 21888,
          "time": 96.33798000000002,
          "velocity": 0.7086614173228346
        },
        {
          "duration": 1.4788724999999943,
          "durationTicks": 336,
          "midi": 76,
          "name": "E5",
          "ticks": 21888,
          "time": 96.33798000000002,
          "velocity": 0.7086614173228346
        },
        {
          "duration": 0.42253499999999633,
          "durationTicks": 96,
          "midi": 64,
          "name": "E4",
          "ticks": 21984,
          "time": 96.76051500000001,
          "velocity": 0.8267716535433071
        },
        {
          "duration": 0.42253499999999633,
          "durationTicks": 96,
          "midi": 64,
          "name": "E4",
          "ticks": 22080,
          "time": 97.18305000000001,
          "velocity": 0.8267716535433071
        },
        {
          "duration": 0.42253500000001054,
          "durationTicks": 96,
          "midi": 62,
          "name": "D4",
          "ticks": 22176,
          "time": 97.605585,
          "velocity": 0.8267716535433071
        },
        {
          "duration": 0.21126750000000527,
          "durationTicks": 48,
          "midi": 74,
          "name": "D5",
          "ticks": 22224,
          "time": 97.81685250000001,
          "velocity": 0.7086614173228346
        },
        {
          "duration": 0.21126750000000527,
          "durationTicks": 48,
          "midi": 86,
          "name": "D6",
          "ticks": 22224,
          "time": 97.81685250000001,
          "velocity": 0.7086614173228346
        },
        {
          "duration": 0.42253499999999633,
          "durationTicks": 96,
          "midi": 62,
          "name": "D4",
          "ticks": 22272,
          "time": 98.02812000000002,
          "velocity": 0.8267716535433071
        },
        {
          "duration": 0.21126749999999106,
          "durationTicks": 48,
          "midi": 90,
          "name": "F#6",
          "ticks": 22272,
          "time": 98.02812000000002,
          "velocity": 0.7086614173228346
        },
        {
          "duration": 0.21126749999999106,
          "durationTicks": 48,
          "midi": 78,
          "name": "F#5",
          "ticks": 22272,
          "time": 98.02812000000002,
          "velocity": 0.7086614173228346
        },
        {
          "duration": 0.42253499999999633,
          "durationTicks": 96,
          "midi": 62,
          "name": "D4",
          "ticks": 22368,
          "time": 98.45065500000001,
          "velocity": 0.8267716535433071
        },
        {
          "duration": 0.21126750000000527,
          "durationTicks": 48,
          "midi": 91,
          "name": "G6",
          "ticks": 22368,
          "time": 98.45065500000001,
          "velocity": 0.7086614173228346
        },
        {
          "duration": 0.21126750000000527,
          "durationTicks": 48,
          "midi": 79,
          "name": "G5",
          "ticks": 22368,
          "time": 98.45065500000001,
          "velocity": 0.7086614173228346
        },
        {
          "duration": 0.42253500000001054,
          "durationTicks": 96,
          "midi": 62,
          "name": "D4",
          "ticks": 22464,
          "time": 98.87319000000001,
          "velocity": 0.8267716535433071
        },
        {
          "duration": 0.21126750000000527,
          "durationTicks": 48,
          "midi": 90,
          "name": "F#6",
          "ticks": 22464,
          "time": 98.87319000000001,
          "velocity": 0.7086614173228346
        },
        {
          "duration": 0.21126750000000527,
          "durationTicks": 48,
          "midi": 78,
          "name": "F#5",
          "ticks": 22464,
          "time": 98.87319000000001,
          "velocity": 0.7086614173228346
        },
        {
          "duration": 0.42253499999999633,
          "durationTicks": 96,
          "midi": 69,
          "name": "A4",
          "ticks": 22560,
          "time": 99.29572500000002,
          "velocity": 0.8267716535433071
        },
        {
          "duration": 0.21126749999999106,
          "durationTicks": 48,
          "midi": 86,
          "name": "D6",
          "ticks": 22560,
          "time": 99.29572500000002,
          "velocity": 0.7086614173228346
        },
        {
          "duration": 0.21126749999999106,
          "durationTicks": 48,
          "midi": 74,
          "name": "D5",
          "ticks": 22560,
          "time": 99.29572500000002,
          "velocity": 0.7086614173228346
        },
        {
          "duration": 0.21126750000000527,
          "durationTicks": 48,
          "midi": 79,
          "name": "G5",
          "ticks": 22608,
          "time": 99.50699250000001,
          "velocity": 0.7086614173228346
        },
        {
          "duration": 0.21126750000000527,
          "durationTicks": 48,
          "midi": 91,
          "name": "G6",
          "ticks": 22608,
          "time": 99.50699250000001,
          "velocity": 0.7086614173228346
        },
        {
          "duration": 0.42253499999999633,
          "durationTicks": 96,
          "midi": 64,
          "name": "E4",
          "ticks": 22656,
          "time": 99.71826000000001,
          "velocity": 0.8267716535433071
        },
        {
          "duration": 0.21126749999999106,
          "durationTicks": 48,
          "midi": 90,
          "name": "F#6",
          "ticks": 22656,
          "time": 99.71826000000001,
          "velocity": 0.7086614173228346
        },
        {
          "duration": 0.21126749999999106,
          "durationTicks": 48,
          "midi": 78,
          "name": "F#5",
          "ticks": 22656,
          "time": 99.71826000000001,
          "velocity": 0.7086614173228346
        },
        {
          "duration": 0.42253499999999633,
          "durationTicks": 96,
          "midi": 64,
          "name": "E4",
          "ticks": 22752,
          "time": 100.14079500000001,
          "velocity": 0.8267716535433071
        },
        {
          "duration": 0.21126750000000527,
          "durationTicks": 48,
          "midi": 78,
          "name": "F#5",
          "ticks": 22752,
          "time": 100.14079500000001,
          "velocity": 0.7086614173228346
        },
        {
          "duration": 0.21126750000000527,
          "durationTicks": 48,
          "midi": 90,
          "name": "F#6",
          "ticks": 22752,
          "time": 100.14079500000001,
          "velocity": 0.7086614173228346
        },
        {
          "duration": 0.21126749999999106,
          "durationTicks": 48,
          "midi": 79,
          "name": "G5",
          "ticks": 22800,
          "time": 100.35206250000002,
          "velocity": 0.7086614173228346
        },
        {
          "duration": 0.21126749999999106,
          "durationTicks": 48,
          "midi": 91,
          "name": "G6",
          "ticks": 22800,
          "time": 100.35206250000002,
          "velocity": 0.7086614173228346
        },
        {
          "duration": 0.42253500000001054,
          "durationTicks": 96,
          "midi": 64,
          "name": "E4",
          "ticks": 22848,
          "time": 100.56333000000001,
          "velocity": 0.8267716535433071
        },
        {
          "duration": 0.21126750000000527,
          "durationTicks": 48,
          "midi": 93,
          "name": "A6",
          "ticks": 22848,
          "time": 100.56333000000001,
          "velocity": 0.7086614173228346
        },
        {
          "duration": 0.21126750000000527,
          "durationTicks": 48,
          "midi": 81,
          "name": "A5",
          "ticks": 22848,
          "time": 100.56333000000001,
          "velocity": 0.7086614173228346
        },
        {
          "duration": 0.21126750000000527,
          "durationTicks": 48,
          "midi": 79,
          "name": "G5",
          "ticks": 22896,
          "time": 100.77459750000001,
          "velocity": 0.7086614173228346
        },
        {
          "duration": 0.21126750000000527,
          "durationTicks": 48,
          "midi": 91,
          "name": "G6",
          "ticks": 22896,
          "time": 100.77459750000001,
          "velocity": 0.7086614173228346
        },
        {
          "duration": 0.42253499999999633,
          "durationTicks": 96,
          "midi": 62,
          "name": "D4",
          "ticks": 22944,
          "time": 100.98586500000002,
          "velocity": 0.8267716535433071
        },
        {
          "duration": 0.21126749999999106,
          "durationTicks": 48,
          "midi": 86,
          "name": "D6",
          "ticks": 22944,
          "time": 100.98586500000002,
          "velocity": 0.7086614173228346
        },
        {
          "duration": 0.21126749999999106,
          "durationTicks": 48,
          "midi": 74,
          "name": "D5",
          "ticks": 22944,
          "time": 100.98586500000002,
          "velocity": 0.7086614173228346
        },
        {
          "duration": 0.21126749999999106,
          "durationTicks": 48,
          "midi": 90,
          "name": "F#6",
          "ticks": 23040,
          "time": 101.40840000000001,
          "velocity": 0.7086614173228346
        },
        {
          "duration": 0.21126749999999106,
          "durationTicks": 48,
          "midi": 78,
          "name": "F#5",
          "ticks": 23040,
          "time": 101.40840000000001,
          "velocity": 0.7086614173228346
        },
        {
          "duration": 0.42253499999999633,
          "durationTicks": 96,
          "midi": 62,
          "name": "D4",
          "ticks": 23136,
          "time": 101.83093500000001,
          "velocity": 0.8661417322834646
        },
        {
          "duration": 0.21126750000000527,
          "durationTicks": 48,
          "midi": 90,
          "name": "F#6",
          "ticks": 23136,
          "time": 101.83093500000001,
          "velocity": 0.7086614173228346
        },
        {
          "duration": 0.21126750000000527,
          "durationTicks": 48,
          "midi": 78,
          "name": "F#5",
          "ticks": 23136,
          "time": 101.83093500000001,
          "velocity": 0.7086614173228346
        },
        {
          "duration": 0.42253500000001054,
          "durationTicks": 96,
          "midi": 69,
          "name": "A4",
          "ticks": 23232,
          "time": 102.25347000000001,
          "velocity": 0.8661417322834646
        },
        {
          "duration": 0.21126750000000527,
          "durationTicks": 48,
          "midi": 90,
          "name": "F#6",
          "ticks": 23232,
          "time": 102.25347000000001,
          "velocity": 0.7086614173228346
        },
        {
          "duration": 0.21126750000000527,
          "durationTicks": 48,
          "midi": 78,
          "name": "F#5",
          "ticks": 23232,
          "time": 102.25347000000001,
          "velocity": 0.7086614173228346
        },
        {
          "duration": 0.21126749999999106,
          "durationTicks": 48,
          "midi": 62,
          "name": "D4",
          "ticks": 23328,
          "time": 102.67600500000002,
          "velocity": 0.8661417322834646
        },
        {
          "duration": 0.21126749999999106,
          "durationTicks": 48,
          "midi": 93,
          "name": "A6",
          "ticks": 23328,
          "time": 102.67600500000002,
          "velocity": 0.7086614173228346
        },
        {
          "duration": 0.21126749999999106,
          "durationTicks": 48,
          "midi": 81,
          "name": "A5",
          "ticks": 23328,
          "time": 102.67600500000002,
          "velocity": 0.7086614173228346
        },
        {
          "duration": 1.6901399999999995,
          "durationTicks": 384,
          "midi": 64,
          "name": "E4",
          "ticks": 23376,
          "time": 102.88727250000001,
          "velocity": 0.8661417322834646
        },
        {
          "duration": 0.21126750000000527,
          "durationTicks": 48,
          "midi": 74,
          "name": "D5",
          "ticks": 23376,
          "time": 102.88727250000001,
          "velocity": 0.7086614173228346
        },
        {
          "duration": 0.21126750000000527,
          "durationTicks": 48,
          "midi": 86,
          "name": "D6",
          "ticks": 23376,
          "time": 102.88727250000001,
          "velocity": 0.7086614173228346
        },
        {
          "duration": 0.6338025000000016,
          "durationTicks": 144,
          "midi": 88,
          "name": "E6",
          "ticks": 23424,
          "time": 103.09854000000001,
          "velocity": 0.7086614173228346
        },
        {
          "duration": 0.6338025000000016,
          "durationTicks": 144,
          "midi": 76,
          "name": "E5",
          "ticks": 23424,
          "time": 103.09854000000001,
          "velocity": 0.7086614173228346
        },
        {
          "duration": 0.21126749999999106,
          "durationTicks": 48,
          "midi": 93,
          "name": "A6",
          "ticks": 23568,
          "time": 103.73234250000002,
          "velocity": 0.7086614173228346
        },
        {
          "duration": 0.21126749999999106,
          "durationTicks": 48,
          "midi": 81,
          "name": "A5",
          "ticks": 23568,
          "time": 103.73234250000002,
          "velocity": 0.7086614173228346
        },
        {
          "duration": 0.21126750000000527,
          "durationTicks": 48,
          "midi": 81,
          "name": "A5",
          "ticks": 23664,
          "time": 104.15487750000001,
          "velocity": 0.7086614173228346
        },
        {
          "duration": 0.21126750000000527,
          "durationTicks": 48,
          "midi": 93,
          "name": "A6",
          "ticks": 23664,
          "time": 104.15487750000001,
          "velocity": 0.7086614173228346
        },
        {
          "duration": 0.21126749999999106,
          "durationTicks": 48,
          "midi": 79,
          "name": "G5",
          "ticks": 23712,
          "time": 104.36614500000002,
          "velocity": 0.7086614173228346
        },
        {
          "duration": 0.21126749999999106,
          "durationTicks": 48,
          "midi": 91,
          "name": "G6",
          "ticks": 23712,
          "time": 104.36614500000002,
          "velocity": 0.7086614173228346
        },
        {
          "duration": 0.21126750000000527,
          "durationTicks": 48,
          "midi": 76,
          "name": "E5",
          "ticks": 23760,
          "time": 104.57741250000001,
          "velocity": 0.7086614173228346
        },
        {
          "duration": 0.21126750000000527,
          "durationTicks": 48,
          "midi": 88,
          "name": "E6",
          "ticks": 23760,
          "time": 104.57741250000001,
          "velocity": 0.7086614173228346
        },
        {
          "duration": 0.42253499999999633,
          "durationTicks": 96,
          "midi": 66,
          "name": "F#4",
          "ticks": 23808,
          "time": 104.78868000000001,
          "velocity": 0.8661417322834646
        },
        {
          "duration": 0.21126750000000527,
          "durationTicks": 48,
          "midi": 78,
          "name": "F#5",
          "ticks": 23808,
          "time": 104.78868000000001,
          "velocity": 0.7086614173228346
        },
        {
          "duration": 0.21126750000000527,
          "durationTicks": 48,
          "midi": 90,
          "name": "F#6",
          "ticks": 23808,
          "time": 104.78868000000001,
          "velocity": 0.7086614173228346
        },
        {
          "duration": 0.21126749999999106,
          "durationTicks": 48,
          "midi": 79,
          "name": "G5",
          "ticks": 23856,
          "time": 104.99994750000002,
          "velocity": 0.7086614173228346
        },
        {
          "duration": 0.21126749999999106,
          "durationTicks": 48,
          "midi": 91,
          "name": "G6",
          "ticks": 23856,
          "time": 104.99994750000002,
          "velocity": 0.7086614173228346
        },
        {
          "duration": 0.21126750000000527,
          "durationTicks": 48,
          "midi": 67,
          "name": "G4",
          "ticks": 23904,
          "time": 105.21121500000001,
          "velocity": 0.8661417322834646
        },
        {
          "duration": 0.21126750000000527,
          "durationTicks": 48,
          "midi": 90,
          "name": "F#6",
          "ticks": 23904,
          "time": 105.21121500000001,
          "velocity": 0.7086614173228346
        },
        {
          "duration": 0.21126750000000527,
          "durationTicks": 48,
          "midi": 78,
          "name": "F#5",
          "ticks": 23904,
          "time": 105.21121500000001,
          "velocity": 0.7086614173228346
        },
        {
          "duration": 0.6338025000000016,
          "durationTicks": 144,
          "midi": 66,
          "name": "F#4",
          "ticks": 23952,
          "time": 105.42248250000002,
          "velocity": 0.8661417322834646
        },
        {
          "duration": 0.21126749999999106,
          "durationTicks": 48,
          "midi": 79,
          "name": "G5",
          "ticks": 23952,
          "time": 105.42248250000002,
          "velocity": 0.7086614173228346
        },
        {
          "duration": 0.21126749999999106,
          "durationTicks": 48,
          "midi": 91,
          "name": "G6",
          "ticks": 23952,
          "time": 105.42248250000002,
          "velocity": 0.7086614173228346
        },
        {
          "duration": 0.42253500000001054,
          "durationTicks": 96,
          "midi": 90,
          "name": "F#6",
          "ticks": 24000,
          "time": 105.63375,
          "velocity": 0.7086614173228346
        },
        {
          "duration": 0.42253500000001054,
          "durationTicks": 96,
          "midi": 78,
          "name": "F#5",
          "ticks": 24000,
          "time": 105.63375,
          "velocity": 0.7086614173228346
        },
        {
          "duration": 0.21126749999999106,
          "durationTicks": 48,
          "midi": 62,
          "name": "D4",
          "ticks": 24096,
          "time": 106.05628500000002,
          "velocity": 0.8661417322834646
        },
        {
          "duration": 0.21126749999999106,
          "durationTicks": 48,
          "midi": 86,
          "name": "D6",
          "ticks": 24096,
          "time": 106.05628500000002,
          "velocity": 0.7086614173228346
        },
        {
          "duration": 0.21126749999999106,
          "durationTicks": 48,
          "midi": 74,
          "name": "D5",
          "ticks": 24096,
          "time": 106.05628500000002,
          "velocity": 0.7086614173228346
        },
        {
          "duration": 0.42253500000001054,
          "durationTicks": 96,
          "midi": 66,
          "name": "F#4",
          "ticks": 24144,
          "time": 106.26755250000001,
          "velocity": 0.8661417322834646
        },
        {
          "duration": 0.42253499999999633,
          "durationTicks": 96,
          "midi": 67,
          "name": "G4",
          "ticks": 24240,
          "time": 106.69008750000002,
          "velocity": 0.8661417322834646
        },
        {
          "duration": 0.42253499999999633,
          "durationTicks": 96,
          "midi": 66,
          "name": "F#4",
          "ticks": 24336,
          "time": 107.11262250000001,
          "velocity": 0.8661417322834646
        },
        {
          "duration": 0.21126750000000527,
          "durationTicks": 48,
          "midi": 64,
          "name": "E4",
          "ticks": 24432,
          "time": 107.53515750000001,
          "velocity": 0.8661417322834646
        },
        {
          "duration": 0.4181335937499995,
          "durationTicks": 95,
          "midi": 62,
          "name": "D4",
          "ticks": 24480,
          "time": 107.74642500000002,
          "velocity": 0.8661417322834646
        },
        {
          "duration": 0.21126749999999106,
          "durationTicks": 48,
          "midi": 74,
          "name": "D5",
          "ticks": 43008,
          "time": 189.29568000000003,
          "velocity": 0.6850393700787402
        },
        {
          "duration": 0.42253500000001054,
          "durationTicks": 96,
          "midi": 62,
          "name": "D4",
          "ticks": 43104,
          "time": 189.71821500000001,
          "velocity": 0.44881889763779526
        },
        {
          "duration": 0.21126750000001948,
          "durationTicks": 48,
          "midi": 74,
          "name": "D5",
          "ticks": 43104,
          "time": 189.71821500000001,
          "velocity": 0.6850393700787402
        },
        {
          "duration": 0.42253500000001054,
          "durationTicks": 96,
          "midi": 69,
          "name": "A4",
          "ticks": 43200,
          "time": 190.14075000000003,
          "velocity": 0.4645669291338583
        },
        {
          "duration": 0.21126749999999106,
          "durationTicks": 48,
          "midi": 74,
          "name": "D5",
          "ticks": 43200,
          "time": 190.14075000000003,
          "velocity": 0.6850393700787402
        },
        {
          "duration": 0.21126749999999106,
          "durationTicks": 48,
          "midi": 62,
          "name": "D4",
          "ticks": 43296,
          "time": 190.56328500000004,
          "velocity": 0.48031496062992124
        },
        {
          "duration": 0.21126749999999106,
          "durationTicks": 48,
          "midi": 78,
          "name": "F#5",
          "ticks": 43296,
          "time": 190.56328500000004,
          "velocity": 0.6850393700787402
        },
        {
          "duration": 1.6901399999999853,
          "durationTicks": 384,
          "midi": 64,
          "name": "E4",
          "ticks": 43344,
          "time": 190.77455250000003,
          "velocity": 0.4881889763779528
        },
        {
          "duration": 0.21126749999999106,
          "durationTicks": 48,
          "midi": 79,
          "name": "G5",
          "ticks": 43344,
          "time": 190.77455250000003,
          "velocity": 0.6850393700787402
        },
        {
          "duration": 1.4788724999999943,
          "durationTicks": 336,
          "midi": 76,
          "name": "E5",
          "ticks": 43392,
          "time": 190.98582000000002,
          "velocity": 0.6850393700787402
        },
        {
          "duration": 0.21126750000001948,
          "durationTicks": 48,
          "midi": 74,
          "name": "D5",
          "ticks": 43728,
          "time": 192.4646925,
          "velocity": 0.6850393700787402
        },
        {
          "duration": 0.21126749999999106,
          "durationTicks": 48,
          "midi": 66,
          "name": "F#4",
          "ticks": 43776,
          "time": 192.67596000000003,
          "velocity": 0.5511811023622047
        },
        {
          "duration": 0.21126749999999106,
          "durationTicks": 48,
          "midi": 78,
          "name": "F#5",
          "ticks": 43776,
          "time": 192.67596000000003,
          "velocity": 0.6850393700787402
        },
        {
          "duration": 0.42253500000001054,
          "durationTicks": 96,
          "midi": 67,
          "name": "G4",
          "ticks": 43824,
          "time": 192.88722750000002,
          "velocity": 0.5590551181102362
        },
        {
          "duration": 0.21126750000001948,
          "durationTicks": 48,
          "midi": 79,
          "name": "G5",
          "ticks": 43872,
          "time": 193.098495,
          "velocity": 0.6850393700787402
        },
        {
          "duration": 0.4225349999999821,
          "durationTicks": 96,
          "midi": 66,
          "name": "F#4",
          "ticks": 43920,
          "time": 193.30976250000003,
          "velocity": 0.5748031496062992
        },
        {
          "duration": 0.21126749999999106,
          "durationTicks": 48,
          "midi": 78,
          "name": "F#5",
          "ticks": 43968,
          "time": 193.52103000000002,
          "velocity": 0.6850393700787402
        },
        {
          "duration": 0.42253500000001054,
          "durationTicks": 96,
          "midi": 64,
          "name": "E4",
          "ticks": 44016,
          "time": 193.73229750000002,
          "velocity": 0.5905511811023622
        },
        {
          "duration": 0.21126749999999106,
          "durationTicks": 48,
          "midi": 74,
          "name": "D5",
          "ticks": 44064,
          "time": 193.94356500000004,
          "velocity": 0.6850393700787402
        },
        {
          "duration": 1.6901399999999853,
          "durationTicks": 384,
          "midi": 62,
          "name": "D4",
          "ticks": 44112,
          "time": 194.15483250000003,
          "velocity": 0.6062992125984252
        },
        {
          "duration": 0.21126749999999106,
          "durationTicks": 48,
          "midi": 79,
          "name": "G5",
          "ticks": 44112,
          "time": 194.15483250000003,
          "velocity": 0.6850393700787402
        },
        {
          "duration": 0.21126750000001948,
          "durationTicks": 48,
          "midi": 78,
          "name": "F#5",
          "ticks": 44160,
          "time": 194.36610000000002,
          "velocity": 0.6850393700787402
        },
        {
          "duration": 0.21126749999999106,
          "durationTicks": 48,
          "midi": 78,
          "name": "F#5",
          "ticks": 44256,
          "time": 194.78863500000003,
          "velocity": 0.6850393700787402
        },
        {
          "duration": 0.21126749999999106,
          "durationTicks": 48,
          "midi": 79,
          "name": "G5",
          "ticks": 44304,
          "time": 194.99990250000002,
          "velocity": 0.6850393700787402
        },
        {
          "duration": 0.21126750000001948,
          "durationTicks": 48,
          "midi": 81,
          "name": "A5",
          "ticks": 44352,
          "time": 195.21117,
          "velocity": 0.6850393700787402
        },
        {
          "duration": 0.21126749999999106,
          "durationTicks": 48,
          "midi": 79,
          "name": "G5",
          "ticks": 44400,
          "time": 195.42243750000003,
          "velocity": 0.6850393700787402
        },
        {
          "duration": 0.21126749999999106,
          "durationTicks": 48,
          "midi": 74,
          "name": "D5",
          "ticks": 44448,
          "time": 195.63370500000002,
          "velocity": 0.6850393700787402
        },
        {
          "duration": 0.21126749999999106,
          "durationTicks": 48,
          "midi": 78,
          "name": "F#5",
          "ticks": 44544,
          "time": 196.05624000000003,
          "velocity": 0.6850393700787402
        },
        {
          "duration": 0.42253500000001054,
          "durationTicks": 96,
          "midi": 62,
          "name": "D4",
          "ticks": 44640,
          "time": 196.478775,
          "velocity": 0.6929133858267716
        },
        {
          "duration": 0.21126750000001948,
          "durationTicks": 48,
          "midi": 78,
          "name": "F#5",
          "ticks": 44640,
          "time": 196.478775,
          "velocity": 0.6850393700787402
        },
        {
          "duration": 0.42253500000001054,
          "durationTicks": 96,
          "midi": 69,
          "name": "A4",
          "ticks": 44736,
          "time": 196.90131000000002,
          "velocity": 0.7086614173228346
        },
        {
          "duration": 0.21126749999999106,
          "durationTicks": 48,
          "midi": 78,
          "name": "F#5",
          "ticks": 44736,
          "time": 196.90131000000002,
          "velocity": 0.6850393700787402
        },
        {
          "duration": 0.21126749999999106,
          "durationTicks": 48,
          "midi": 62,
          "name": "D4",
          "ticks": 44832,
          "time": 197.32384500000003,
          "velocity": 0.7165354330708661
        },
        {
          "duration": 0.21126749999999106,
          "durationTicks": 48,
          "midi": 81,
          "name": "A5",
          "ticks": 44832,
          "time": 197.32384500000003,
          "velocity": 0.6850393700787402
        },
        {
          "duration": 1.6901399999999853,
          "durationTicks": 384,
          "midi": 64,
          "name": "E4",
          "ticks": 44880,
          "time": 197.53511250000003,
          "velocity": 0.7244094488188977
        },
        {
          "duration": 0.21126749999999106,
          "durationTicks": 48,
          "midi": 74,
          "name": "D5",
          "ticks": 44880,
          "time": 197.53511250000003,
          "velocity": 0.6850393700787402
        },
        {
          "duration": 0.6338025000000016,
          "durationTicks": 144,
          "midi": 76,
          "name": "E5",
          "ticks": 44928,
          "time": 197.74638000000002,
          "velocity": 0.6850393700787402
        },
        {
          "duration": 0.21126750000001948,
          "durationTicks": 48,
          "midi": 81,
          "name": "A5",
          "ticks": 45072,
          "time": 198.38018250000002,
          "velocity": 0.6850393700787402
        },
        {
          "duration": 0.21126749999999106,
          "durationTicks": 48,
          "midi": 81,
          "name": "A5",
          "ticks": 45168,
          "time": 198.80271750000003,
          "velocity": 0.6850393700787402
        },
        {
          "duration": 0.21126749999999106,
          "durationTicks": 48,
          "midi": 79,
          "name": "G5",
          "ticks": 45216,
          "time": 199.01398500000002,
          "velocity": 0.6850393700787402
        },
        {
          "duration": 0.21126750000001948,
          "durationTicks": 48,
          "midi": 76,
          "name": "E5",
          "ticks": 45264,
          "time": 199.2252525,
          "velocity": 0.6850393700787402
        },
        {
          "duration": 0.4225349999999821,
          "durationTicks": 96,
          "midi": 66,
          "name": "F#4",
          "ticks": 45312,
          "time": 199.43652000000003,
          "velocity": 0.7952755905511811
        },
        {
          "duration": 0.21126749999999106,
          "durationTicks": 48,
          "midi": 78,
          "name": "F#5",
          "ticks": 45312,
          "time": 199.43652000000003,
          "velocity": 0.6850393700787402
        },
        {
          "duration": 0.21126749999999106,
          "durationTicks": 48,
          "midi": 79,
          "name": "G5",
          "ticks": 45360,
          "time": 199.64778750000002,
          "velocity": 0.6850393700787402
        },
        {
          "duration": 0.21126750000001948,
          "durationTicks": 48,
          "midi": 67,
          "name": "G4",
          "ticks": 45408,
          "time": 199.859055,
          "velocity": 0.8110236220472441
        },
        {
          "duration": 0.21126750000001948,
          "durationTicks": 48,
          "midi": 78,
          "name": "F#5",
          "ticks": 45408,
          "time": 199.859055,
          "velocity": 0.6850393700787402
        },
        {
          "duration": 0.6338025000000016,
          "durationTicks": 144,
          "midi": 66,
          "name": "F#4",
          "ticks": 45456,
          "time": 200.07032250000003,
          "velocity": 0.8188976377952756
        },
        {
          "duration": 0.21126749999999106,
          "durationTicks": 48,
          "midi": 79,
          "name": "G5",
          "ticks": 45456,
          "time": 200.07032250000003,
          "velocity": 0.6850393700787402
        },
        {
          "duration": 0.42253500000001054,
          "durationTicks": 96,
          "midi": 78,
          "name": "F#5",
          "ticks": 45504,
          "time": 200.28159000000002,
          "velocity": 0.6850393700787402
        },
        {
          "duration": 0.21126749999999106,
          "durationTicks": 48,
          "midi": 62,
          "name": "D4",
          "ticks": 45600,
          "time": 200.70412500000003,
          "velocity": 0.84251968503937
        },
        {
          "duration": 0.21126749999999106,
          "durationTicks": 48,
          "midi": 74,
          "name": "D5",
          "ticks": 45600,
          "time": 200.70412500000003,
          "velocity": 0.6850393700787402
        },
        {
          "duration": 0.42253500000001054,
          "durationTicks": 96,
          "midi": 66,
          "name": "F#4",
          "ticks": 45648,
          "time": 200.91539250000002,
          "velocity": 0.8503937007874016
        },
        {
          "duration": 0.21126750000001948,
          "durationTicks": 48,
          "midi": 78,
          "name": "F#5",
          "ticks": 45696,
          "time": 201.12666000000002,
          "velocity": 0.6850393700787402
        },
        {
          "duration": 0.4225349999999821,
          "durationTicks": 96,
          "midi": 67,
          "name": "G4",
          "ticks": 45744,
          "time": 201.33792750000003,
          "velocity": 0.8661417322834646
        },
        {
          "duration": 0.21126749999999106,
          "durationTicks": 48,
          "midi": 79,
          "name": "G5",
          "ticks": 45744,
          "time": 201.33792750000003,
          "velocity": 0.6850393700787402
        },
        {
          "duration": 0.21126749999999106,
          "durationTicks": 48,
          "midi": 78,
          "name": "F#5",
          "ticks": 45792,
          "time": 201.54919500000003,
          "velocity": 0.6850393700787402
        },
        {
          "duration": 0.42253500000001054,
          "durationTicks": 96,
          "midi": 66,
          "name": "F#4",
          "ticks": 45840,
          "time": 201.76046250000002,
          "velocity": 0.8818897637795275
        },
        {
          "duration": 0.21126750000001948,
          "durationTicks": 48,
          "midi": 79,
          "name": "G5",
          "ticks": 45840,
          "time": 201.76046250000002,
          "velocity": 0.6850393700787402
        },
        {
          "duration": 0.21126749999999106,
          "durationTicks": 48,
          "midi": 81,
          "name": "A5",
          "ticks": 45888,
          "time": 201.97173000000004,
          "velocity": 0.6850393700787402
        },
        {
          "duration": 0.21126749999999106,
          "durationTicks": 48,
          "midi": 64,
          "name": "E4",
          "ticks": 45936,
          "time": 202.18299750000003,
          "velocity": 0.889763779527559
        },
        {
          "duration": 0.42253500000001054,
          "durationTicks": 96,
          "midi": 62,
          "name": "D4",
          "ticks": 45984,
          "time": 202.39426500000002,
          "velocity": 0.8976377952755905
        },
        {
          "duration": 0.42253500000001054,
          "durationTicks": 96,
          "midi": 74,
          "name": "D5",
          "ticks": 45984,
          "time": 202.39426500000002,
          "velocity": 0.6850393700787402
        },
        {
          "duration": 0.21126749999999106,
          "durationTicks": 48,
          "midi": 86,
          "name": "D6",
          "ticks": 46080,
          "time": 202.81680000000003,
          "velocity": 0.7086614173228346
        },
        {
          "duration": 0.21126749999999106,
          "durationTicks": 48,
          "midi": 74,
          "name": "D5",
          "ticks": 46080,
          "time": 202.81680000000003,
          "velocity": 0.7086614173228346
        },
        {
          "duration": 0.42253500000001054,
          "durationTicks": 96,
          "midi": 62,
          "name": "D4",
          "ticks": 46176,
          "time": 203.239335,
          "velocity": 0.8661417322834646
        },
        {
          "duration": 0.21126750000001948,
          "durationTicks": 48,
          "midi": 86,
          "name": "D6",
          "ticks": 46176,
          "time": 203.239335,
          "velocity": 0.7086614173228346
        },
        {
          "duration": 0.21126750000001948,
          "durationTicks": 48,
          "midi": 74,
          "name": "D5",
          "ticks": 46176,
          "time": 203.239335,
          "velocity": 0.7086614173228346
        },
        {
          "duration": 0.42253500000001054,
          "durationTicks": 96,
          "midi": 69,
          "name": "A4",
          "ticks": 46272,
          "time": 203.66187000000002,
          "velocity": 0.8661417322834646
        },
        {
          "duration": 0.21126749999999106,
          "durationTicks": 48,
          "midi": 86,
          "name": "D6",
          "ticks": 46272,
          "time": 203.66187000000002,
          "velocity": 0.7086614173228346
        },
        {
          "duration": 0.21126749999999106,
          "durationTicks": 48,
          "midi": 74,
          "name": "D5",
          "ticks": 46272,
          "time": 203.66187000000002,
          "velocity": 0.7086614173228346
        },
        {
          "duration": 0.21126749999999106,
          "durationTicks": 48,
          "midi": 62,
          "name": "D4",
          "ticks": 46368,
          "time": 204.08440500000003,
          "velocity": 0.8661417322834646
        },
        {
          "duration": 0.21126749999999106,
          "durationTicks": 48,
          "midi": 90,
          "name": "F#6",
          "ticks": 46368,
          "time": 204.08440500000003,
          "velocity": 0.7086614173228346
        },
        {
          "duration": 0.21126749999999106,
          "durationTicks": 48,
          "midi": 78,
          "name": "F#5",
          "ticks": 46368,
          "time": 204.08440500000003,
          "velocity": 0.7086614173228346
        },
        {
          "duration": 1.6901400000000137,
          "durationTicks": 384,
          "midi": 64,
          "name": "E4",
          "ticks": 46416,
          "time": 204.29567250000002,
          "velocity": 0.8661417322834646
        },
        {
          "duration": 0.21126749999999106,
          "durationTicks": 48,
          "midi": 79,
          "name": "G5",
          "ticks": 46416,
          "time": 204.29567250000002,
          "velocity": 0.7086614173228346
        },
        {
          "duration": 0.21126749999999106,
          "durationTicks": 48,
          "midi": 91,
          "name": "G6",
          "ticks": 46416,
          "time": 204.29567250000002,
          "velocity": 0.7086614173228346
        },
        {
          "duration": 1.4788725000000227,
          "durationTicks": 336,
          "midi": 88,
          "name": "E6",
          "ticks": 46464,
          "time": 204.50694000000001,
          "velocity": 0.7086614173228346
        },
        {
          "duration": 1.4788725000000227,
          "durationTicks": 336,
          "midi": 76,
          "name": "E5",
          "ticks": 46464,
          "time": 204.50694000000001,
          "velocity": 0.7086614173228346
        },
        {
          "duration": 0.21126749999999106,
          "durationTicks": 48,
          "midi": 74,
          "name": "D5",
          "ticks": 46800,
          "time": 205.98581250000004,
          "velocity": 0.7086614173228346
        },
        {
          "duration": 0.21126749999999106,
          "durationTicks": 48,
          "midi": 86,
          "name": "D6",
          "ticks": 46800,
          "time": 205.98581250000004,
          "velocity": 0.7086614173228346
        },
        {
          "duration": 0.21126749999999106,
          "durationTicks": 48,
          "midi": 66,
          "name": "F#4",
          "ticks": 46848,
          "time": 206.19708000000003,
          "velocity": 0.8661417322834646
        },
        {
          "duration": 0.21126749999999106,
          "durationTicks": 48,
          "midi": 90,
          "name": "F#6",
          "ticks": 46848,
          "time": 206.19708000000003,
          "velocity": 0.7086614173228346
        },
        {
          "duration": 0.21126749999999106,
          "durationTicks": 48,
          "midi": 78,
          "name": "F#5",
          "ticks": 46848,
          "time": 206.19708000000003,
          "velocity": 0.7086614173228346
        },
        {
          "duration": 0.42253500000001054,
          "durationTicks": 96,
          "midi": 67,
          "name": "G4",
          "ticks": 46896,
          "time": 206.40834750000002,
          "velocity": 0.8661417322834646
        },
        {
          "duration": 0.21126750000001948,
          "durationTicks": 48,
          "midi": 91,
          "name": "G6",
          "ticks": 46944,
          "time": 206.619615,
          "velocity": 0.7086614173228346
        },
        {
          "duration": 0.21126750000001948,
          "durationTicks": 48,
          "midi": 79,
          "name": "G5",
          "ticks": 46944,
          "time": 206.619615,
          "velocity": 0.7086614173228346
        },
        {
          "duration": 0.4225349999999821,
          "durationTicks": 96,
          "midi": 66,
          "name": "F#4",
          "ticks": 46992,
          "time": 206.83088250000003,
          "velocity": 0.8661417322834646
        },
        {
          "duration": 0.21126749999999106,
          "durationTicks": 48,
          "midi": 90,
          "name": "F#6",
          "ticks": 47040,
          "time": 207.04215000000002,
          "velocity": 0.7086614173228346
        },
        {
          "duration": 0.21126749999999106,
          "durationTicks": 48,
          "midi": 78,
          "name": "F#5",
          "ticks": 47040,
          "time": 207.04215000000002,
          "velocity": 0.7086614173228346
        },
        {
          "duration": 0.42253500000001054,
          "durationTicks": 96,
          "midi": 64,
          "name": "E4",
          "ticks": 47088,
          "time": 207.2534175,
          "velocity": 0.8661417322834646
        },
        {
          "duration": 0.21126749999999106,
          "durationTicks": 48,
          "midi": 86,
          "name": "D6",
          "ticks": 47136,
          "time": 207.46468500000003,
          "velocity": 0.7086614173228346
        },
        {
          "duration": 0.21126749999999106,
          "durationTicks": 48,
          "midi": 74,
          "name": "D5",
          "ticks": 47136,
          "time": 207.46468500000003,
          "velocity": 0.7086614173228346
        },
        {
          "duration": 1.9014075000000048,
          "durationTicks": 432,
          "midi": 62,
          "name": "D4",
          "ticks": 47184,
          "time": 207.67595250000002,
          "velocity": 0.8661417322834646
        },
        {
          "duration": 0.21126749999999106,
          "durationTicks": 48,
          "midi": 79,
          "name": "G5",
          "ticks": 47184,
          "time": 207.67595250000002,
          "velocity": 0.7086614173228346
        },
        {
          "duration": 0.21126749999999106,
          "durationTicks": 48,
          "midi": 91,
          "name": "G6",
          "ticks": 47184,
          "time": 207.67595250000002,
          "velocity": 0.7086614173228346
        },
        {
          "duration": 0.21126750000001948,
          "durationTicks": 48,
          "midi": 90,
          "name": "F#6",
          "ticks": 47232,
          "time": 207.88722,
          "velocity": 0.7086614173228346
        },
        {
          "duration": 0.21126750000001948,
          "durationTicks": 48,
          "midi": 78,
          "name": "F#5",
          "ticks": 47232,
          "time": 207.88722,
          "velocity": 0.7086614173228346
        },
        {
          "duration": 0.21126749999999106,
          "durationTicks": 48,
          "midi": 78,
          "name": "F#5",
          "ticks": 47328,
          "time": 208.30975500000002,
          "velocity": 0.7086614173228346
        },
        {
          "duration": 0.21126749999999106,
          "durationTicks": 48,
          "midi": 90,
          "name": "F#6",
          "ticks": 47328,
          "time": 208.30975500000002,
          "velocity": 0.7086614173228346
        },
        {
          "duration": 0.21126750000001948,
          "durationTicks": 48,
          "midi": 79,
          "name": "G5",
          "ticks": 47376,
          "time": 208.52102250000002,
          "velocity": 0.7086614173228346
        },
        {
          "duration": 0.21126750000001948,
          "durationTicks": 48,
          "midi": 91,
          "name": "G6",
          "ticks": 47376,
          "time": 208.52102250000002,
          "velocity": 0.7086614173228346
        },
        {
          "duration": 0.21126749999999106,
          "durationTicks": 48,
          "midi": 93,
          "name": "A6",
          "ticks": 47424,
          "time": 208.73229000000003,
          "velocity": 0.7086614173228346
        },
        {
          "duration": 0.21126749999999106,
          "durationTicks": 48,
          "midi": 81,
          "name": "A5",
          "ticks": 47424,
          "time": 208.73229000000003,
          "velocity": 0.7086614173228346
        },
        {
          "duration": 0.21126749999999106,
          "durationTicks": 48,
          "midi": 79,
          "name": "G5",
          "ticks": 47472,
          "time": 208.94355750000003,
          "velocity": 0.7086614173228346
        },
        {
          "duration": 0.21126749999999106,
          "durationTicks": 48,
          "midi": 91,
          "name": "G6",
          "ticks": 47472,
          "time": 208.94355750000003,
          "velocity": 0.7086614173228346
        },
        {
          "duration": 0.21126750000001948,
          "durationTicks": 48,
          "midi": 86,
          "name": "D6",
          "ticks": 47520,
          "time": 209.15482500000002,
          "velocity": 0.7086614173228346
        },
        {
          "duration": 0.21126750000001948,
          "durationTicks": 48,
          "midi": 74,
          "name": "D5",
          "ticks": 47520,
          "time": 209.15482500000002,
          "velocity": 0.7086614173228346
        },
        {
          "duration": 0.21126749999999106,
          "durationTicks": 48,
          "midi": 90,
          "name": "F#6",
          "ticks": 47616,
          "time": 209.57736000000003,
          "velocity": 0.7086614173228346
        },
        {
          "duration": 0.21126749999999106,
          "durationTicks": 48,
          "midi": 78,
          "name": "F#5",
          "ticks": 47616,
          "time": 209.57736000000003,
          "velocity": 0.7086614173228346
        },
        {
          "duration": 0.4225349999999821,
          "durationTicks": 96,
          "midi": 62,
          "name": "D4",
          "ticks": 47712,
          "time": 209.99989500000004,
          "velocity": 0.8661417322834646
        },
        {
          "duration": 0.21126749999999106,
          "durationTicks": 48,
          "midi": 90,
          "name": "F#6",
          "ticks": 47712,
          "time": 209.99989500000004,
          "velocity": 0.7086614173228346
        },
        {
          "duration": 0.21126749999999106,
          "durationTicks": 48,
          "midi": 78,
          "name": "F#5",
          "ticks": 47712,
          "time": 209.99989500000004,
          "velocity": 0.7086614173228346
        },
        {
          "duration": 0.42253500000001054,
          "durationTicks": 96,
          "midi": 69,
          "name": "A4",
          "ticks": 47808,
          "time": 210.42243000000002,
          "velocity": 0.8661417322834646
        },
        {
          "duration": 0.21126749999999106,
          "durationTicks": 48,
          "midi": 90,
          "name": "F#6",
          "ticks": 47808,
          "time": 210.42243000000002,
          "velocity": 0.7086614173228346
        },
        {
          "duration": 0.21126749999999106,
          "durationTicks": 48,
          "midi": 78,
          "name": "F#5",
          "ticks": 47808,
          "time": 210.42243000000002,
          "velocity": 0.7086614173228346
        },
        {
          "duration": 0.21126749999999106,
          "durationTicks": 48,
          "midi": 62,
          "name": "D4",
          "ticks": 47904,
          "time": 210.84496500000003,
          "velocity": 0.8661417322834646
        },
        {
          "duration": 0.21126749999999106,
          "durationTicks": 48,
          "midi": 93,
          "name": "A6",
          "ticks": 47904,
          "time": 210.84496500000003,
          "velocity": 0.7086614173228346
        },
        {
          "duration": 0.21126749999999106,
          "durationTicks": 48,
          "midi": 81,
          "name": "A5",
          "ticks": 47904,
          "time": 210.84496500000003,
          "velocity": 0.7086614173228346
        },
        {
          "duration": 1.6901400000000137,
          "durationTicks": 384,
          "midi": 64,
          "name": "E4",
          "ticks": 47952,
          "time": 211.05623250000002,
          "velocity": 0.8661417322834646
        },
        {
          "duration": 0.21126749999999106,
          "durationTicks": 48,
          "midi": 74,
          "name": "D5",
          "ticks": 47952,
          "time": 211.05623250000002,
          "velocity": 0.7086614173228346
        },
        {
          "duration": 0.21126749999999106,
          "durationTicks": 48,
          "midi": 86,
          "name": "D6",
          "ticks": 47952,
          "time": 211.05623250000002,
          "velocity": 0.7086614173228346
        },
        {
          "duration": 0.6338025000000016,
          "durationTicks": 144,
          "midi": 88,
          "name": "E6",
          "ticks": 48000,
          "time": 211.2675,
          "velocity": 0.7086614173228346
        },
        {
          "duration": 0.6338025000000016,
          "durationTicks": 144,
          "midi": 76,
          "name": "E5",
          "ticks": 48000,
          "time": 211.2675,
          "velocity": 0.7086614173228346
        },
        {
          "duration": 0.21126750000001948,
          "durationTicks": 48,
          "midi": 93,
          "name": "A6",
          "ticks": 48144,
          "time": 211.9013025,
          "velocity": 0.7086614173228346
        },
        {
          "duration": 0.21126750000001948,
          "durationTicks": 48,
          "midi": 81,
          "name": "A5",
          "ticks": 48144,
          "time": 211.9013025,
          "velocity": 0.7086614173228346
        },
        {
          "duration": 0.21126749999999106,
          "durationTicks": 48,
          "midi": 81,
          "name": "A5",
          "ticks": 48240,
          "time": 212.32383750000002,
          "velocity": 0.7086614173228346
        },
        {
          "duration": 0.21126749999999106,
          "durationTicks": 48,
          "midi": 93,
          "name": "A6",
          "ticks": 48240,
          "time": 212.32383750000002,
          "velocity": 0.7086614173228346
        },
        {
          "duration": 0.21126750000001948,
          "durationTicks": 48,
          "midi": 79,
          "name": "G5",
          "ticks": 48288,
          "time": 212.53510500000002,
          "velocity": 0.7086614173228346
        },
        {
          "duration": 0.21126750000001948,
          "durationTicks": 48,
          "midi": 91,
          "name": "G6",
          "ticks": 48288,
          "time": 212.53510500000002,
          "velocity": 0.7086614173228346
        },
        {
          "duration": 0.21126749999999106,
          "durationTicks": 48,
          "midi": 76,
          "name": "E5",
          "ticks": 48336,
          "time": 212.74637250000004,
          "velocity": 0.7086614173228346
        },
        {
          "duration": 0.21126749999999106,
          "durationTicks": 48,
          "midi": 88,
          "name": "E6",
          "ticks": 48336,
          "time": 212.74637250000004,
          "velocity": 0.7086614173228346
        },
        {
          "duration": 0.42253500000001054,
          "durationTicks": 96,
          "midi": 66,
          "name": "F#4",
          "ticks": 48384,
          "time": 212.95764000000003,
          "velocity": 0.8661417322834646
        },
        {
          "duration": 0.21126749999999106,
          "durationTicks": 48,
          "midi": 78,
          "name": "F#5",
          "ticks": 48384,
          "time": 212.95764000000003,
          "velocity": 0.7086614173228346
        },
        {
          "duration": 0.21126749999999106,
          "durationTicks": 48,
          "midi": 90,
          "name": "F#6",
          "ticks": 48384,
          "time": 212.95764000000003,
          "velocity": 0.7086614173228346
        },
        {
          "duration": 0.21126750000001948,
          "durationTicks": 48,
          "midi": 79,
          "name": "G5",
          "ticks": 48432,
          "time": 213.16890750000002,
          "velocity": 0.7086614173228346
        },
        {
          "duration": 0.21126750000001948,
          "durationTicks": 48,
          "midi": 91,
          "name": "G6",
          "ticks": 48432,
          "time": 213.16890750000002,
          "velocity": 0.7086614173228346
        },
        {
          "duration": 0.21126749999999106,
          "durationTicks": 48,
          "midi": 67,
          "name": "G4",
          "ticks": 48480,
          "time": 213.38017500000004,
          "velocity": 0.8661417322834646
        },
        {
          "duration": 0.21126749999999106,
          "durationTicks": 48,
          "midi": 90,
          "name": "F#6",
          "ticks": 48480,
          "time": 213.38017500000004,
          "velocity": 0.7086614173228346
        },
        {
          "duration": 0.21126749999999106,
          "durationTicks": 48,
          "midi": 78,
          "name": "F#5",
          "ticks": 48480,
          "time": 213.38017500000004,
          "velocity": 0.7086614173228346
        },
        {
          "duration": 0.6338025000000016,
          "durationTicks": 144,
          "midi": 66,
          "name": "F#4",
          "ticks": 48528,
          "time": 213.59144250000003,
          "velocity": 0.8661417322834646
        },
        {
          "duration": 0.21126749999999106,
          "durationTicks": 48,
          "midi": 79,
          "name": "G5",
          "ticks": 48528,
          "time": 213.59144250000003,
          "velocity": 0.7086614173228346
        },
        {
          "duration": 0.21126749999999106,
          "durationTicks": 48,
          "midi": 91,
          "name": "G6",
          "ticks": 48528,
          "time": 213.59144250000003,
          "velocity": 0.7086614173228346
        },
        {
          "duration": 0.42253500000001054,
          "durationTicks": 96,
          "midi": 90,
          "name": "F#6",
          "ticks": 48576,
          "time": 213.80271000000002,
          "velocity": 0.7086614173228346
        },
        {
          "duration": 0.42253500000001054,
          "durationTicks": 96,
          "midi": 78,
          "name": "F#5",
          "ticks": 48576,
          "time": 213.80271000000002,
          "velocity": 0.7086614173228346
        },
        {
          "duration": 0.21126749999999106,
          "durationTicks": 48,
          "midi": 62,
          "name": "D4",
          "ticks": 48672,
          "time": 214.22524500000003,
          "velocity": 0.8661417322834646
        },
        {
          "duration": 0.21126749999999106,
          "durationTicks": 48,
          "midi": 86,
          "name": "D6",
          "ticks": 48672,
          "time": 214.22524500000003,
          "velocity": 0.7086614173228346
        },
        {
          "duration": 0.21126749999999106,
          "durationTicks": 48,
          "midi": 74,
          "name": "D5",
          "ticks": 48672,
          "time": 214.22524500000003,
          "velocity": 0.7086614173228346
        },
        {
          "duration": 0.42253500000001054,
          "durationTicks": 96,
          "midi": 66,
          "name": "F#4",
          "ticks": 48720,
          "time": 214.43651250000002,
          "velocity": 0.8661417322834646
        },
        {
          "duration": 0.21126750000001948,
          "durationTicks": 48,
          "midi": 78,
          "name": "F#5",
          "ticks": 48768,
          "time": 214.64778,
          "velocity": 0.7086614173228346
        },
        {
          "duration": 0.21126750000001948,
          "durationTicks": 48,
          "midi": 90,
          "name": "F#6",
          "ticks": 48768,
          "time": 214.64778,
          "velocity": 0.7086614173228346
        },
        {
          "duration": 0.4225349999999821,
          "durationTicks": 96,
          "midi": 67,
          "name": "G4",
          "ticks": 48816,
          "time": 214.85904750000003,
          "velocity": 0.8661417322834646
        },
        {
          "duration": 0.21126749999999106,
          "durationTicks": 48,
          "midi": 79,
          "name": "G5",
          "ticks": 48816,
          "time": 214.85904750000003,
          "velocity": 0.7086614173228346
        },
        {
          "duration": 0.21126749999999106,
          "durationTicks": 48,
          "midi": 91,
          "name": "G6",
          "ticks": 48816,
          "time": 214.85904750000003,
          "velocity": 0.7086614173228346
        },
        {
          "duration": 0.21126749999999106,
          "durationTicks": 48,
          "midi": 90,
          "name": "F#6",
          "ticks": 48864,
          "time": 215.07031500000002,
          "velocity": 0.7086614173228346
        },
        {
          "duration": 0.21126749999999106,
          "durationTicks": 48,
          "midi": 78,
          "name": "F#5",
          "ticks": 48864,
          "time": 215.07031500000002,
          "velocity": 0.7086614173228346
        },
        {
          "duration": 0.42253500000001054,
          "durationTicks": 96,
          "midi": 66,
          "name": "F#4",
          "ticks": 48912,
          "time": 215.2815825,
          "velocity": 0.8661417322834646
        },
        {
          "duration": 0.21126750000001948,
          "durationTicks": 48,
          "midi": 79,
          "name": "G5",
          "ticks": 48912,
          "time": 215.2815825,
          "velocity": 0.7086614173228346
        },
        {
          "duration": 0.21126750000001948,
          "durationTicks": 48,
          "midi": 91,
          "name": "G6",
          "ticks": 48912,
          "time": 215.2815825,
          "velocity": 0.7086614173228346
        },
        {
          "duration": 0.21126749999999106,
          "durationTicks": 48,
          "midi": 93,
          "name": "A6",
          "ticks": 48960,
          "time": 215.49285000000003,
          "velocity": 0.7086614173228346
        },
        {
          "duration": 0.21126749999999106,
          "durationTicks": 48,
          "midi": 81,
          "name": "A5",
          "ticks": 48960,
          "time": 215.49285000000003,
          "velocity": 0.7086614173228346
        },
        {
          "duration": 0.21126749999999106,
          "durationTicks": 48,
          "midi": 64,
          "name": "E4",
          "ticks": 49008,
          "time": 215.70411750000002,
          "velocity": 0.8661417322834646
        },
        {
          "duration": 0.42253500000001054,
          "durationTicks": 96,
          "midi": 62,
          "name": "D4",
          "ticks": 49056,
          "time": 215.91538500000001,
          "velocity": 0.8661417322834646
        },
        {
          "duration": 0.42253500000001054,
          "durationTicks": 96,
          "midi": 86,
          "name": "D6",
          "ticks": 49056,
          "time": 215.91538500000001,
          "velocity": 0.7086614173228346
        },
        {
          "duration": 0.42253500000001054,
          "durationTicks": 96,
          "midi": 74,
          "name": "D5",
          "ticks": 49056,
          "time": 215.91538500000001,
          "velocity": 0.7086614173228346
        },
        {
          "duration": 0.21126749999999106,
          "durationTicks": 48,
          "midi": 86,
          "name": "D6",
          "ticks": 49152,
          "time": 216.33792000000003,
          "velocity": 0.7086614173228346
        },
        {
          "duration": 0.21126749999999106,
          "durationTicks": 48,
          "midi": 74,
          "name": "D5",
          "ticks": 49152,
          "time": 216.33792000000003,
          "velocity": 0.7086614173228346
        },
        {
          "duration": 0.42253500000001054,
          "durationTicks": 96,
          "midi": 62,
          "name": "D4",
          "ticks": 49152,
          "time": 216.33792000000003,
          "velocity": 0.8267716535433071
        },
        {
          "duration": 0.21126749999999106,
          "durationTicks": 48,
          "midi": 86,
          "name": "D6",
          "ticks": 49248,
          "time": 216.76045500000004,
          "velocity": 0.7086614173228346
        },
        {
          "duration": 0.21126749999999106,
          "durationTicks": 48,
          "midi": 74,
          "name": "D5",
          "ticks": 49248,
          "time": 216.76045500000004,
          "velocity": 0.7086614173228346
        },
        {
          "duration": 0.4225349999999821,
          "durationTicks": 96,
          "midi": 62,
          "name": "D4",
          "ticks": 49248,
          "time": 216.76045500000004,
          "velocity": 0.8267716535433071
        },
        {
          "duration": 0.21126750000001948,
          "durationTicks": 48,
          "midi": 86,
          "name": "D6",
          "ticks": 49344,
          "time": 217.18299000000002,
          "velocity": 0.7086614173228346
        },
        {
          "duration": 0.21126750000001948,
          "durationTicks": 48,
          "midi": 74,
          "name": "D5",
          "ticks": 49344,
          "time": 217.18299000000002,
          "velocity": 0.7086614173228346
        },
        {
          "duration": 0.42253500000001054,
          "durationTicks": 96,
          "midi": 62,
          "name": "D4",
          "ticks": 49344,
          "time": 217.18299000000002,
          "velocity": 0.8267716535433071
        },
        {
          "duration": 0.21126749999999106,
          "durationTicks": 48,
          "midi": 90,
          "name": "F#6",
          "ticks": 49440,
          "time": 217.60552500000003,
          "velocity": 0.7086614173228346
        },
        {
          "duration": 0.21126749999999106,
          "durationTicks": 48,
          "midi": 78,
          "name": "F#5",
          "ticks": 49440,
          "time": 217.60552500000003,
          "velocity": 0.7086614173228346
        },
        {
          "duration": 0.42253500000001054,
          "durationTicks": 96,
          "midi": 57,
          "name": "A3",
          "ticks": 49440,
          "time": 217.60552500000003,
          "velocity": 0.8267716535433071
        },
        {
          "duration": 0.21126750000001948,
          "durationTicks": 48,
          "midi": 79,
          "name": "G5",
          "ticks": 49488,
          "time": 217.81679250000002,
          "velocity": 0.7086614173228346
        },
        {
          "duration": 0.21126750000001948,
          "durationTicks": 48,
          "midi": 91,
          "name": "G6",
          "ticks": 49488,
          "time": 217.81679250000002,
          "velocity": 0.7086614173228346
        },
        {
          "duration": 1.4788724999999943,
          "durationTicks": 336,
          "midi": 88,
          "name": "E6",
          "ticks": 49536,
          "time": 218.02806000000004,
          "velocity": 0.7086614173228346
        },
        {
          "duration": 1.4788724999999943,
          "durationTicks": 336,
          "midi": 76,
          "name": "E5",
          "ticks": 49536,
          "time": 218.02806000000004,
          "velocity": 0.7086614173228346
        },
        {
          "duration": 0.4225349999999821,
          "durationTicks": 96,
          "midi": 64,
          "name": "E4",
          "ticks": 49536,
          "time": 218.02806000000004,
          "velocity": 0.8267716535433071
        },
        {
          "duration": 0.42253500000001054,
          "durationTicks": 96,
          "midi": 64,
          "name": "E4",
          "ticks": 49632,
          "time": 218.45059500000002,
          "velocity": 0.8267716535433071
        },
        {
          "duration": 0.4225349999999821,
          "durationTicks": 96,
          "midi": 64,
          "name": "E4",
          "ticks": 49728,
          "time": 218.87313000000003,
          "velocity": 0.8267716535433071
        },
        {
          "duration": 0.42253500000001054,
          "durationTicks": 96,
          "midi": 62,
          "name": "D4",
          "ticks": 49824,
          "time": 219.295665,
          "velocity": 0.8267716535433071
        },
        {
          "duration": 0.21126749999999106,
          "durationTicks": 48,
          "midi": 74,
          "name": "D5",
          "ticks": 49872,
          "time": 219.50693250000003,
          "velocity": 0.7086614173228346
        },
        {
          "duration": 0.21126749999999106,
          "durationTicks": 48,
          "midi": 86,
          "name": "D6",
          "ticks": 49872,
          "time": 219.50693250000003,
          "velocity": 0.7086614173228346
        },
        {
          "duration": 0.21126749999999106,
          "durationTicks": 48,
          "midi": 90,
          "name": "F#6",
          "ticks": 49920,
          "time": 219.71820000000002,
          "velocity": 0.7086614173228346
        },
        {
          "duration": 0.21126749999999106,
          "durationTicks": 48,
          "midi": 78,
          "name": "F#5",
          "ticks": 49920,
          "time": 219.71820000000002,
          "velocity": 0.7086614173228346
        },
        {
          "duration": 0.42253500000001054,
          "durationTicks": 96,
          "midi": 62,
          "name": "D4",
          "ticks": 49920,
          "time": 219.71820000000002,
          "velocity": 0.8267716535433071
        },
        {
          "duration": 0.21126749999999106,
          "durationTicks": 48,
          "midi": 91,
          "name": "G6",
          "ticks": 50016,
          "time": 220.14073500000003,
          "velocity": 0.7086614173228346
        },
        {
          "duration": 0.21126749999999106,
          "durationTicks": 48,
          "midi": 79,
          "name": "G5",
          "ticks": 50016,
          "time": 220.14073500000003,
          "velocity": 0.7086614173228346
        },
        {
          "duration": 0.4225349999999821,
          "durationTicks": 96,
          "midi": 62,
          "name": "D4",
          "ticks": 50016,
          "time": 220.14073500000003,
          "velocity": 0.8267716535433071
        },
        {
          "duration": 0.21126750000001948,
          "durationTicks": 48,
          "midi": 90,
          "name": "F#6",
          "ticks": 50112,
          "time": 220.56327000000002,
          "velocity": 0.7086614173228346
        },
        {
          "duration": 0.21126750000001948,
          "durationTicks": 48,
          "midi": 78,
          "name": "F#5",
          "ticks": 50112,
          "time": 220.56327000000002,
          "velocity": 0.7086614173228346
        },
        {
          "duration": 0.42253500000001054,
          "durationTicks": 96,
          "midi": 62,
          "name": "D4",
          "ticks": 50112,
          "time": 220.56327000000002,
          "velocity": 0.8267716535433071
        },
        {
          "duration": 0.21126749999999106,
          "durationTicks": 48,
          "midi": 86,
          "name": "D6",
          "ticks": 50208,
          "time": 220.98580500000003,
          "velocity": 0.7086614173228346
        },
        {
          "duration": 0.21126749999999106,
          "durationTicks": 48,
          "midi": 74,
          "name": "D5",
          "ticks": 50208,
          "time": 220.98580500000003,
          "velocity": 0.7086614173228346
        },
        {
          "duration": 0.42253500000001054,
          "durationTicks": 96,
          "midi": 69,
          "name": "A4",
          "ticks": 50208,
          "time": 220.98580500000003,
          "velocity": 0.8267716535433071
        },
        {
          "duration": 0.21126750000001948,
          "durationTicks": 48,
          "midi": 79,
          "name": "G5",
          "ticks": 50256,
          "time": 221.19707250000002,
          "velocity": 0.7086614173228346
        },
        {
          "duration": 0.21126750000001948,
          "durationTicks": 48,
          "midi": 91,
          "name": "G6",
          "ticks": 50256,
          "time": 221.19707250000002,
          "velocity": 0.7086614173228346
        },
        {
          "duration": 0.21126749999999106,
          "durationTicks": 48,
          "midi": 90,
          "name": "F#6",
          "ticks": 50304,
          "time": 221.40834000000004,
          "velocity": 0.7086614173228346
        },
        {
          "duration": 0.21126749999999106,
          "durationTicks": 48,
          "midi": 78,
          "name": "F#5",
          "ticks": 50304,
          "time": 221.40834000000004,
          "velocity": 0.7086614173228346
        },
        {
          "duration": 0.4225349999999821,
          "durationTicks": 96,
          "midi": 64,
          "name": "E4",
          "ticks": 50304,
          "time": 221.40834000000004,
          "velocity": 0.8267716535433071
        },
        {
          "duration": 0.21126750000001948,
          "durationTicks": 48,
          "midi": 78,
          "name": "F#5",
          "ticks": 50400,
          "time": 221.83087500000002,
          "velocity": 0.7086614173228346
        },
        {
          "duration": 0.21126750000001948,
          "durationTicks": 48,
          "midi": 90,
          "name": "F#6",
          "ticks": 50400,
          "time": 221.83087500000002,
          "velocity": 0.7086614173228346
        },
        {
          "duration": 0.42253500000001054,
          "durationTicks": 96,
          "midi": 64,
          "name": "E4",
          "ticks": 50400,
          "time": 221.83087500000002,
          "velocity": 0.8267716535433071
        },
        {
          "duration": 0.21126749999999106,
          "durationTicks": 48,
          "midi": 79,
          "name": "G5",
          "ticks": 50448,
          "time": 222.04214250000004,
          "velocity": 0.7086614173228346
        },
        {
          "duration": 0.21126749999999106,
          "durationTicks": 48,
          "midi": 91,
          "name": "G6",
          "ticks": 50448,
          "time": 222.04214250000004,
          "velocity": 0.7086614173228346
        },
        {
          "duration": 0.21126749999999106,
          "durationTicks": 48,
          "midi": 93,
          "name": "A6",
          "ticks": 50496,
          "time": 222.25341000000003,
          "velocity": 0.7086614173228346
        },
        {
          "duration": 0.21126749999999106,
          "durationTicks": 48,
          "midi": 81,
          "name": "A5",
          "ticks": 50496,
          "time": 222.25341000000003,
          "velocity": 0.7086614173228346
        },
        {
          "duration": 0.4225349999999821,
          "durationTicks": 96,
          "midi": 64,
          "name": "E4",
          "ticks": 50496,
          "time": 222.25341000000003,
          "velocity": 0.8267716535433071
        },
        {
          "duration": 0.21126749999999106,
          "durationTicks": 48,
          "midi": 79,
          "name": "G5",
          "ticks": 50544,
          "time": 222.46467750000002,
          "velocity": 0.7086614173228346
        },
        {
          "duration": 0.21126749999999106,
          "durationTicks": 48,
          "midi": 91,
          "name": "G6",
          "ticks": 50544,
          "time": 222.46467750000002,
          "velocity": 0.7086614173228346
        },
        {
          "duration": 0.21126750000001948,
          "durationTicks": 48,
          "midi": 86,
          "name": "D6",
          "ticks": 50592,
          "time": 222.675945,
          "velocity": 0.7086614173228346
        },
        {
          "duration": 0.21126750000001948,
          "durationTicks": 48,
          "midi": 74,
          "name": "D5",
          "ticks": 50592,
          "time": 222.675945,
          "velocity": 0.7086614173228346
        },
        {
          "duration": 0.42253500000001054,
          "durationTicks": 96,
          "midi": 62,
          "name": "D4",
          "ticks": 50592,
          "time": 222.675945,
          "velocity": 0.8267716535433071
        },
        {
          "duration": 0.21126749999999106,
          "durationTicks": 48,
          "midi": 90,
          "name": "F#6",
          "ticks": 50688,
          "time": 223.09848000000002,
          "velocity": 0.7086614173228346
        },
        {
          "duration": 0.21126749999999106,
          "durationTicks": 48,
          "midi": 78,
          "name": "F#5",
          "ticks": 50688,
          "time": 223.09848000000002,
          "velocity": 0.7086614173228346
        },
        {
          "duration": 0.4225349999999821,
          "durationTicks": 96,
          "midi": 62,
          "name": "D4",
          "ticks": 50784,
          "time": 223.52101500000003,
          "velocity": 0.8661417322834646
        },
        {
          "duration": 0.21126749999999106,
          "durationTicks": 48,
          "midi": 90,
          "name": "F#6",
          "ticks": 50784,
          "time": 223.52101500000003,
          "velocity": 0.7086614173228346
        },
        {
          "duration": 0.21126749999999106,
          "durationTicks": 48,
          "midi": 78,
          "name": "F#5",
          "ticks": 50784,
          "time": 223.52101500000003,
          "velocity": 0.7086614173228346
        },
        {
          "duration": 0.42253500000001054,
          "durationTicks": 96,
          "midi": 69,
          "name": "A4",
          "ticks": 50880,
          "time": 223.94355000000002,
          "velocity": 0.8661417322834646
        },
        {
          "duration": 0.21126750000001948,
          "durationTicks": 48,
          "midi": 90,
          "name": "F#6",
          "ticks": 50880,
          "time": 223.94355000000002,
          "velocity": 0.7086614173228346
        },
        {
          "duration": 0.21126750000001948,
          "durationTicks": 48,
          "midi": 78,
          "name": "F#5",
          "ticks": 50880,
          "time": 223.94355000000002,
          "velocity": 0.7086614173228346
        },
        {
          "duration": 0.21126749999999106,
          "durationTicks": 48,
          "midi": 62,
          "name": "D4",
          "ticks": 50976,
          "time": 224.36608500000003,
          "velocity": 0.8661417322834646
        },
        {
          "duration": 0.21126749999999106,
          "durationTicks": 48,
          "midi": 93,
          "name": "A6",
          "ticks": 50976,
          "time": 224.36608500000003,
          "velocity": 0.7086614173228346
        },
        {
          "duration": 0.21126749999999106,
          "durationTicks": 48,
          "midi": 81,
          "name": "A5",
          "ticks": 50976,
          "time": 224.36608500000003,
          "velocity": 0.7086614173228346
        },
        {
          "duration": 1.6901400000000137,
          "durationTicks": 384,
          "midi": 64,
          "name": "E4",
          "ticks": 51024,
          "time": 224.57735250000002,
          "velocity": 0.8661417322834646
        },
        {
          "duration": 0.21126750000001948,
          "durationTicks": 48,
          "midi": 74,
          "name": "D5",
          "ticks": 51024,
          "time": 224.57735250000002,
          "velocity": 0.7086614173228346
        },
        {
          "duration": 0.21126750000001948,
          "durationTicks": 48,
          "midi": 86,
          "name": "D6",
          "ticks": 51024,
          "time": 224.57735250000002,
          "velocity": 0.7086614173228346
        },
        {
          "duration": 0.6338025000000016,
          "durationTicks": 144,
          "midi": 88,
          "name": "E6",
          "ticks": 51072,
          "time": 224.78862000000004,
          "velocity": 0.7086614173228346
        },
        {
          "duration": 0.6338025000000016,
          "durationTicks": 144,
          "midi": 76,
          "name": "E5",
          "ticks": 51072,
          "time": 224.78862000000004,
          "velocity": 0.7086614173228346
        },
        {
          "duration": 0.21126749999999106,
          "durationTicks": 48,
          "midi": 93,
          "name": "A6",
          "ticks": 51216,
          "time": 225.42242250000004,
          "velocity": 0.7086614173228346
        },
        {
          "duration": 0.21126749999999106,
          "durationTicks": 48,
          "midi": 81,
          "name": "A5",
          "ticks": 51216,
          "time": 225.42242250000004,
          "velocity": 0.7086614173228346
        },
        {
          "duration": 0.21126750000001948,
          "durationTicks": 48,
          "midi": 81,
          "name": "A5",
          "ticks": 51312,
          "time": 225.84495750000002,
          "velocity": 0.7086614173228346
        },
        {
          "duration": 0.21126750000001948,
          "durationTicks": 48,
          "midi": 93,
          "name": "A6",
          "ticks": 51312,
          "time": 225.84495750000002,
          "velocity": 0.7086614173228346
        },
        {
          "duration": 0.21126749999999106,
          "durationTicks": 48,
          "midi": 79,
          "name": "G5",
          "ticks": 51360,
          "time": 226.05622500000004,
          "velocity": 0.7086614173228346
        },
        {
          "duration": 0.21126749999999106,
          "durationTicks": 48,
          "midi": 91,
          "name": "G6",
          "ticks": 51360,
          "time": 226.05622500000004,
          "velocity": 0.7086614173228346
        },
        {
          "duration": 0.21126749999999106,
          "durationTicks": 48,
          "midi": 76,
          "name": "E5",
          "ticks": 51408,
          "time": 226.26749250000003,
          "velocity": 0.7086614173228346
        },
        {
          "duration": 0.21126749999999106,
          "durationTicks": 48,
          "midi": 88,
          "name": "E6",
          "ticks": 51408,
          "time": 226.26749250000003,
          "velocity": 0.7086614173228346
        },
        {
          "duration": 0.42253500000001054,
          "durationTicks": 96,
          "midi": 66,
          "name": "F#4",
          "ticks": 51456,
          "time": 226.47876000000002,
          "velocity": 0.8661417322834646
        },
        {
          "duration": 0.21126749999999106,
          "durationTicks": 48,
          "midi": 78,
          "name": "F#5",
          "ticks": 51456,
          "time": 226.47876000000002,
          "velocity": 0.7086614173228346
        },
        {
          "duration": 0.21126749999999106,
          "durationTicks": 48,
          "midi": 90,
          "name": "F#6",
          "ticks": 51456,
          "time": 226.47876000000002,
          "velocity": 0.7086614173228346
        },
        {
          "duration": 0.21126750000001948,
          "durationTicks": 48,
          "midi": 79,
          "name": "G5",
          "ticks": 51504,
          "time": 226.6900275,
          "velocity": 0.7086614173228346
        },
        {
          "duration": 0.21126750000001948,
          "durationTicks": 48,
          "midi": 91,
          "name": "G6",
          "ticks": 51504,
          "time": 226.6900275,
          "velocity": 0.7086614173228346
        },
        {
          "duration": 0.21126749999999106,
          "durationTicks": 48,
          "midi": 67,
          "name": "G4",
          "ticks": 51552,
          "time": 226.90129500000003,
          "velocity": 0.8661417322834646
        },
        {
          "duration": 0.21126749999999106,
          "durationTicks": 48,
          "midi": 90,
          "name": "F#6",
          "ticks": 51552,
          "time": 226.90129500000003,
          "velocity": 0.7086614173228346
        },
        {
          "duration": 0.21126749999999106,
          "durationTicks": 48,
          "midi": 78,
          "name": "F#5",
          "ticks": 51552,
          "time": 226.90129500000003,
          "velocity": 0.7086614173228346
        },
        {
          "duration": 0.6338025000000016,
          "durationTicks": 144,
          "midi": 66,
          "name": "F#4",
          "ticks": 51600,
          "time": 227.11256250000002,
          "velocity": 0.8661417322834646
        },
        {
          "duration": 0.21126749999999106,
          "durationTicks": 48,
          "midi": 79,
          "name": "G5",
          "ticks": 51600,
          "time": 227.11256250000002,
          "velocity": 0.7086614173228346
        },
        {
          "duration": 0.21126749999999106,
          "durationTicks": 48,
          "midi": 91,
          "name": "G6",
          "ticks": 51600,
          "time": 227.11256250000002,
          "velocity": 0.7086614173228346
        },
        {
          "duration": 0.42253500000001054,
          "durationTicks": 96,
          "midi": 90,
          "name": "F#6",
          "ticks": 51648,
          "time": 227.32383000000002,
          "velocity": 0.7086614173228346
        },
        {
          "duration": 0.42253500000001054,
          "durationTicks": 96,
          "midi": 78,
          "name": "F#5",
          "ticks": 51648,
          "time": 227.32383000000002,
          "velocity": 0.7086614173228346
        },
        {
          "duration": 0.21126749999999106,
          "durationTicks": 48,
          "midi": 62,
          "name": "D4",
          "ticks": 51744,
          "time": 227.74636500000003,
          "velocity": 0.8661417322834646
        },
        {
          "duration": 0.21126749999999106,
          "durationTicks": 48,
          "midi": 86,
          "name": "D6",
          "ticks": 51744,
          "time": 227.74636500000003,
          "velocity": 0.7086614173228346
        },
        {
          "duration": 0.21126749999999106,
          "durationTicks": 48,
          "midi": 74,
          "name": "D5",
          "ticks": 51744,
          "time": 227.74636500000003,
          "velocity": 0.7086614173228346
        },
        {
          "duration": 0.42253500000001054,
          "durationTicks": 96,
          "midi": 66,
          "name": "F#4",
          "ticks": 51792,
          "time": 227.95763250000002,
          "velocity": 0.8661417322834646
        },
        {
          "duration": 0.42253500000001054,
          "durationTicks": 96,
          "midi": 67,
          "name": "G4",
          "ticks": 51888,
          "time": 228.38016750000003,
          "velocity": 0.8661417322834646
        },
        {
          "duration": 0.4225349999999821,
          "durationTicks": 96,
          "midi": 66,
          "name": "F#4",
          "ticks": 51984,
          "time": 228.80270250000004,
          "velocity": 0.8661417322834646
        },
        {
          "duration": 0.21126750000001948,
          "durationTicks": 48,
          "midi": 64,
          "name": "E4",
          "ticks": 52080,
          "time": 229.22523750000002,
          "velocity": 0.8661417322834646
        },
        {
          "duration": 0.4181335937500137,
          "durationTicks": 95,
          "midi": 62,
          "name": "D4",
          "ticks": 52128,
          "time": 229.43650500000004,
          "velocity": 0.8661417322834646
        },
        {
          "duration": 0.21126750000001948,
          "durationTicks": 48,
          "midi": 62,
          "name": "D4",
          "ticks": 55296,
          "time": 243.38016000000002,
          "velocity": 0.8661417322834646
        },
        {
          "duration": 0.21126749999999106,
          "durationTicks": 48,
          "midi": 66,
          "name": "F#4",
          "ticks": 55344,
          "time": 243.59142750000004,
          "velocity": 0.8661417322834646
        },
        {
          "duration": 0.21126749999999106,
          "durationTicks": 48,
          "midi": 66,
          "name": "F#4",
          "ticks": 55392,
          "time": 243.80269500000003,
          "velocity": 0.8661417322834646
        },
        {
          "duration": 0.21126750000001948,
          "durationTicks": 48,
          "midi": 66,
          "name": "F#4",
          "ticks": 55440,
          "time": 244.01396250000002,
          "velocity": 0.8661417322834646
        },
        {
          "duration": 0.21126749999999106,
          "durationTicks": 48,
          "midi": 62,
          "name": "D4",
          "ticks": 55488,
          "time": 244.22523000000004,
          "velocity": 0.8661417322834646
        },
        {
          "duration": 0.21126749999999106,
          "durationTicks": 48,
          "midi": 66,
          "name": "F#4",
          "ticks": 55536,
          "time": 244.43649750000003,
          "velocity": 0.8661417322834646
        },
        {
          "duration": 0.21126750000001948,
          "durationTicks": 48,
          "midi": 66,
          "name": "F#4",
          "ticks": 55584,
          "time": 244.64776500000002,
          "velocity": 0.8661417322834646
        },
        {
          "duration": 0.21126749999999106,
          "durationTicks": 48,
          "midi": 67,
          "name": "G4",
          "ticks": 55632,
          "time": 244.85903250000004,
          "velocity": 0.8661417322834646
        },
        {
          "duration": 0.21126749999999106,
          "durationTicks": 48,
          "midi": 64,
          "name": "E4",
          "ticks": 55680,
          "time": 245.07030000000003,
          "velocity": 0.8661417322834646
        },
        {
          "duration": 0.21126750000001948,
          "durationTicks": 48,
          "midi": 66,
          "name": "F#4",
          "ticks": 55728,
          "time": 245.28156750000002,
          "velocity": 0.8661417322834646
        },
        {
          "duration": 0.21126749999999106,
          "durationTicks": 48,
          "midi": 62,
          "name": "D4",
          "ticks": 55776,
          "time": 245.49283500000004,
          "velocity": 0.8661417322834646
        },
        {
          "duration": 0.21126749999999106,
          "durationTicks": 48,
          "midi": 62,
          "name": "D4",
          "ticks": 55824,
          "time": 245.70410250000003,
          "velocity": 0.8661417322834646
        },
        {
          "duration": 0.21126749999999106,
          "durationTicks": 48,
          "midi": 64,
          "name": "E4",
          "ticks": 55872,
          "time": 245.91537000000002,
          "velocity": 0.8661417322834646
        },
        {
          "duration": 0.21126750000001948,
          "durationTicks": 48,
          "midi": 66,
          "name": "F#4",
          "ticks": 55920,
          "time": 246.12663750000002,
          "velocity": 0.8661417322834646
        },
        {
          "duration": 0.21126749999999106,
          "durationTicks": 48,
          "midi": 64,
          "name": "E4",
          "ticks": 55968,
          "time": 246.33790500000003,
          "velocity": 0.8661417322834646
        },
        {
          "duration": 0.21126749999999106,
          "durationTicks": 48,
          "midi": 62,
          "name": "D4",
          "ticks": 56016,
          "time": 246.54917250000003,
          "velocity": 0.8661417322834646
        },
        {
          "duration": 0.21126750000001948,
          "durationTicks": 48,
          "midi": 66,
          "name": "F#4",
          "ticks": 56064,
          "time": 246.76044000000002,
          "velocity": 0.8661417322834646
        },
        {
          "duration": 0.21126749999999106,
          "durationTicks": 48,
          "midi": 62,
          "name": "D4",
          "ticks": 56112,
          "time": 246.97170750000004,
          "velocity": 0.8661417322834646
        },
        {
          "duration": 0.21126749999999106,
          "durationTicks": 48,
          "midi": 67,
          "name": "G4",
          "ticks": 56160,
          "time": 247.18297500000003,
          "velocity": 0.8661417322834646
        },
        {
          "duration": 0.21126750000001948,
          "durationTicks": 48,
          "midi": 62,
          "name": "D4",
          "ticks": 56208,
          "time": 247.39424250000002,
          "velocity": 0.8661417322834646
        },
        {
          "duration": 0.21126749999999106,
          "durationTicks": 48,
          "midi": 66,
          "name": "F#4",
          "ticks": 56256,
          "time": 247.60551000000004,
          "velocity": 0.8661417322834646
        },
        {
          "duration": 0.21126749999999106,
          "durationTicks": 48,
          "midi": 62,
          "name": "D4",
          "ticks": 56304,
          "time": 247.81677750000003,
          "velocity": 0.8661417322834646
        },
        {
          "duration": 0.21126750000001948,
          "durationTicks": 48,
          "midi": 62,
          "name": "D4",
          "ticks": 56352,
          "time": 248.02804500000002,
          "velocity": 0.8661417322834646
        },
        {
          "duration": 0.21126749999999106,
          "durationTicks": 48,
          "midi": 67,
          "name": "G4",
          "ticks": 56400,
          "time": 248.23931250000004,
          "velocity": 0.8661417322834646
        },
        {
          "duration": 0.21126749999999106,
          "durationTicks": 48,
          "midi": 66,
          "name": "F#4",
          "ticks": 56448,
          "time": 248.45058000000003,
          "velocity": 0.8661417322834646
        },
        {
          "duration": 0.21126750000001948,
          "durationTicks": 48,
          "midi": 62,
          "name": "D4",
          "ticks": 56496,
          "time": 248.66184750000002,
          "velocity": 0.8661417322834646
        },
        {
          "duration": 0.21126749999999106,
          "durationTicks": 48,
          "midi": 66,
          "name": "F#4",
          "ticks": 56544,
          "time": 248.87311500000004,
          "velocity": 0.8661417322834646
        },
        {
          "duration": 0.21126749999999106,
          "durationTicks": 48,
          "midi": 67,
          "name": "G4",
          "ticks": 56592,
          "time": 249.08438250000003,
          "velocity": 0.8661417322834646
        },
        {
          "duration": 0.21126750000001948,
          "durationTicks": 48,
          "midi": 69,
          "name": "A4",
          "ticks": 56640,
          "time": 249.29565000000002,
          "velocity": 0.8661417322834646
        },
        {
          "duration": 0.21126749999999106,
          "durationTicks": 48,
          "midi": 67,
          "name": "G4",
          "ticks": 56688,
          "time": 249.50691750000004,
          "velocity": 0.8661417322834646
        },
        {
          "duration": 0.21126749999999106,
          "durationTicks": 48,
          "midi": 62,
          "name": "D4",
          "ticks": 56736,
          "time": 249.71818500000003,
          "velocity": 0.8661417322834646
        },
        {
          "duration": 0.21126749999999106,
          "durationTicks": 48,
          "midi": 61,
          "name": "C#4",
          "ticks": 56784,
          "time": 249.92945250000002,
          "velocity": 0.984251968503937
        },
        {
          "duration": 0.21126749999999106,
          "durationTicks": 48,
          "midi": 61,
          "name": "C#4",
          "ticks": 56784,
          "time": 249.92945250000002,
          "velocity": 0.984251968503937
        },
        {
          "duration": 0.21126749999999106,
          "durationTicks": 48,
          "midi": 61,
          "name": "C#4",
          "ticks": 56784,
          "time": 249.92945250000002,
          "velocity": 0.8661417322834646
        },
        {
          "duration": 0.21126750000001948,
          "durationTicks": 48,
          "midi": 62,
          "name": "D4",
          "ticks": 56832,
          "time": 250.14072000000002,
          "velocity": 0.8661417322834646
        },
        {
          "duration": 0.21126749999999106,
          "durationTicks": 48,
          "midi": 66,
          "name": "F#4",
          "ticks": 56880,
          "time": 250.35198750000004,
          "velocity": 0.8661417322834646
        },
        {
          "duration": 0.21126749999999106,
          "durationTicks": 48,
          "midi": 66,
          "name": "F#4",
          "ticks": 56928,
          "time": 250.56325500000003,
          "velocity": 0.8661417322834646
        },
        {
          "duration": 0.21126750000001948,
          "durationTicks": 48,
          "midi": 66,
          "name": "F#4",
          "ticks": 56976,
          "time": 250.77452250000002,
          "velocity": 0.8661417322834646
        },
        {
          "duration": 0.21126749999999106,
          "durationTicks": 48,
          "midi": 62,
          "name": "D4",
          "ticks": 57024,
          "time": 250.98579000000004,
          "velocity": 0.8661417322834646
        },
        {
          "duration": 0.21126749999999106,
          "durationTicks": 48,
          "midi": 66,
          "name": "F#4",
          "ticks": 57072,
          "time": 251.19705750000003,
          "velocity": 0.8661417322834646
        },
        {
          "duration": 0.21126750000001948,
          "durationTicks": 48,
          "midi": 66,
          "name": "F#4",
          "ticks": 57120,
          "time": 251.40832500000002,
          "velocity": 0.8661417322834646
        },
        {
          "duration": 0.21126749999999106,
          "durationTicks": 48,
          "midi": 67,
          "name": "G4",
          "ticks": 57168,
          "time": 251.61959250000004,
          "velocity": 0.8661417322834646
        },
        {
          "duration": 0.21126749999999106,
          "durationTicks": 48,
          "midi": 64,
          "name": "E4",
          "ticks": 57216,
          "time": 251.83086000000003,
          "velocity": 0.8661417322834646
        },
        {
          "duration": 0.21126750000001948,
          "durationTicks": 48,
          "midi": 66,
          "name": "F#4",
          "ticks": 57264,
          "time": 252.04212750000002,
          "velocity": 0.8661417322834646
        },
        {
          "duration": 0.21126749999999106,
          "durationTicks": 48,
          "midi": 62,
          "name": "D4",
          "ticks": 57312,
          "time": 252.25339500000004,
          "velocity": 0.8661417322834646
        },
        {
          "duration": 0.21126749999999106,
          "durationTicks": 48,
          "midi": 62,
          "name": "D4",
          "ticks": 57360,
          "time": 252.46466250000003,
          "velocity": 0.8661417322834646
        },
        {
          "duration": 0.21126750000001948,
          "durationTicks": 48,
          "midi": 64,
          "name": "E4",
          "ticks": 57408,
          "time": 252.67593000000002,
          "velocity": 0.8661417322834646
        },
        {
          "duration": 0.21126749999999106,
          "durationTicks": 48,
          "midi": 66,
          "name": "F#4",
          "ticks": 57456,
          "time": 252.88719750000004,
          "velocity": 0.8661417322834646
        },
        {
          "duration": 0.21126749999999106,
          "durationTicks": 48,
          "midi": 64,
          "name": "E4",
          "ticks": 57504,
          "time": 253.09846500000003,
          "velocity": 0.8661417322834646
        },
        {
          "duration": 0.21126750000001948,
          "durationTicks": 48,
          "midi": 62,
          "name": "D4",
          "ticks": 57552,
          "time": 253.30973250000002,
          "velocity": 0.8661417322834646
        },
        {
          "duration": 0.21126749999999106,
          "durationTicks": 48,
          "midi": 66,
          "name": "F#4",
          "ticks": 57600,
          "time": 253.52100000000004,
          "velocity": 0.8661417322834646
        },
        {
          "duration": 0.21126749999999106,
          "durationTicks": 48,
          "midi": 62,
          "name": "D4",
          "ticks": 57648,
          "time": 253.73226750000003,
          "velocity": 0.8661417322834646
        },
        {
          "duration": 0.21126749999999106,
          "durationTicks": 48,
          "midi": 67,
          "name": "G4",
          "ticks": 57696,
          "time": 253.94353500000003,
          "velocity": 0.8661417322834646
        },
        {
          "duration": 0.21126750000001948,
          "durationTicks": 48,
          "midi": 62,
          "name": "D4",
          "ticks": 57744,
          "time": 254.15480250000002,
          "velocity": 0.8661417322834646
        },
        {
          "duration": 0.21126749999999106,
          "durationTicks": 48,
          "midi": 66,
          "name": "F#4",
          "ticks": 57792,
          "time": 254.36607000000004,
          "velocity": 0.8661417322834646
        },
        {
          "duration": 0.21126749999999106,
          "durationTicks": 48,
          "midi": 62,
          "name": "D4",
          "ticks": 57840,
          "time": 254.57733750000003,
          "velocity": 0.8661417322834646
        },
        {
          "duration": 0.21126750000001948,
          "durationTicks": 48,
          "midi": 62,
          "name": "D4",
          "ticks": 57888,
          "time": 254.78860500000002,
          "velocity": 0.8661417322834646
        },
        {
          "duration": 0.21126749999999106,
          "durationTicks": 48,
          "midi": 67,
          "name": "G4",
          "ticks": 57936,
          "time": 254.99987250000004,
          "velocity": 0.8661417322834646
        },
        {
          "duration": 0.21126749999999106,
          "durationTicks": 48,
          "midi": 66,
          "name": "F#4",
          "ticks": 57984,
          "time": 255.21114000000003,
          "velocity": 0.8661417322834646
        },
        {
          "duration": 0.21126750000001948,
          "durationTicks": 48,
          "midi": 62,
          "name": "D4",
          "ticks": 58032,
          "time": 255.42240750000002,
          "velocity": 0.8661417322834646
        },
        {
          "duration": 0.21126749999999106,
          "durationTicks": 48,
          "midi": 66,
          "name": "F#4",
          "ticks": 58080,
          "time": 255.63367500000004,
          "velocity": 0.8661417322834646
        },
        {
          "duration": 0.21126749999999106,
          "durationTicks": 48,
          "midi": 67,
          "name": "G4",
          "ticks": 58128,
          "time": 255.84494250000003,
          "velocity": 0.8661417322834646
        },
        {
          "duration": 0.21126750000001948,
          "durationTicks": 48,
          "midi": 69,
          "name": "A4",
          "ticks": 58176,
          "time": 256.05621,
          "velocity": 0.8661417322834646
        },
        {
          "duration": 0.21126749999996264,
          "durationTicks": 48,
          "midi": 67,
          "name": "G4",
          "ticks": 58224,
          "time": 256.26747750000004,
          "velocity": 0.8661417322834646
        },
        {
          "duration": 0.21126750000001948,
          "durationTicks": 48,
          "midi": 62,
          "name": "D4",
          "ticks": 58272,
          "time": 256.478745,
          "velocity": 0.8661417322834646
        },
        {
          "duration": 0.21126750000001948,
          "durationTicks": 48,
          "midi": 61,
          "name": "C#4",
          "ticks": 58320,
          "time": 256.6900125,
          "velocity": 0.984251968503937
        },
        {
          "duration": 0.21126750000001948,
          "durationTicks": 48,
          "midi": 61,
          "name": "C#4",
          "ticks": 58320,
          "time": 256.6900125,
          "velocity": 0.984251968503937
        },
        {
          "duration": 0.21126750000001948,
          "durationTicks": 48,
          "midi": 61,
          "name": "C#4",
          "ticks": 58320,
          "time": 256.6900125,
          "velocity": 0.8661417322834646
        },
        {
          "duration": 0.21126749999996264,
          "durationTicks": 48,
          "midi": 62,
          "name": "D4",
          "ticks": 58368,
          "time": 256.90128000000004,
          "velocity": 0.8661417322834646
        },
        {
          "duration": 0.21126750000001948,
          "durationTicks": 48,
          "midi": 66,
          "name": "F#4",
          "ticks": 58416,
          "time": 257.1125475,
          "velocity": 0.8661417322834646
        },
        {
          "duration": 0.21126750000001948,
          "durationTicks": 48,
          "midi": 62,
          "name": "D4",
          "ticks": 58464,
          "time": 257.323815,
          "velocity": 0.8661417322834646
        },
        {
          "duration": 0.21126749999996264,
          "durationTicks": 48,
          "midi": 66,
          "name": "F#4",
          "ticks": 58512,
          "time": 257.53508250000004,
          "velocity": 0.8661417322834646
        },
        {
          "duration": 0.21126750000001948,
          "durationTicks": 48,
          "midi": 62,
          "name": "D4",
          "ticks": 58560,
          "time": 257.74635,
          "velocity": 0.8661417322834646
        },
        {
          "duration": 0.21126750000001948,
          "durationTicks": 48,
          "midi": 66,
          "name": "F#4",
          "ticks": 58608,
          "time": 257.9576175,
          "velocity": 0.8661417322834646
        },
        {
          "duration": 0.21126749999996264,
          "durationTicks": 48,
          "midi": 66,
          "name": "F#4",
          "ticks": 58656,
          "time": 258.16888500000005,
          "velocity": 0.8661417322834646
        },
        {
          "duration": 0.21126750000001948,
          "durationTicks": 48,
          "midi": 67,
          "name": "G4",
          "ticks": 58704,
          "time": 258.3801525,
          "velocity": 0.8661417322834646
        },
        {
          "duration": 0.21126750000001948,
          "durationTicks": 48,
          "midi": 64,
          "name": "E4",
          "ticks": 58752,
          "time": 258.59142,
          "velocity": 0.8661417322834646
        },
        {
          "duration": 0.21126749999996264,
          "durationTicks": 48,
          "midi": 66,
          "name": "F#4",
          "ticks": 58800,
          "time": 258.80268750000005,
          "velocity": 0.8661417322834646
        },
        {
          "duration": 0.21126750000001948,
          "durationTicks": 48,
          "midi": 62,
          "name": "D4",
          "ticks": 58848,
          "time": 259.013955,
          "velocity": 0.8661417322834646
        },
        {
          "duration": 0.21126750000001948,
          "durationTicks": 48,
          "midi": 62,
          "name": "D4",
          "ticks": 58896,
          "time": 259.22522250000003,
          "velocity": 0.8661417322834646
        },
        {
          "duration": 0.21126749999996264,
          "durationTicks": 48,
          "midi": 64,
          "name": "E4",
          "ticks": 58944,
          "time": 259.43649000000005,
          "velocity": 0.8661417322834646
        },
        {
          "duration": 0.21126750000001948,
          "durationTicks": 48,
          "midi": 66,
          "name": "F#4",
          "ticks": 58992,
          "time": 259.6477575,
          "velocity": 0.8661417322834646
        },
        {
          "duration": 0.21126750000001948,
          "durationTicks": 48,
          "midi": 64,
          "name": "E4",
          "ticks": 59040,
          "time": 259.85902500000003,
          "velocity": 0.8661417322834646
        },
        {
          "duration": 0.21126749999996264,
          "durationTicks": 48,
          "midi": 62,
          "name": "D4",
          "ticks": 59088,
          "time": 260.07029250000005,
          "velocity": 0.8661417322834646
        },
        {
          "duration": 0.21126750000001948,
          "durationTicks": 48,
          "midi": 66,
          "name": "F#4",
          "ticks": 59136,
          "time": 260.28156,
          "velocity": 0.8661417322834646
        },
        {
          "duration": 0.21126750000001948,
          "durationTicks": 48,
          "midi": 62,
          "name": "D4",
          "ticks": 59184,
          "time": 260.49282750000003,
          "velocity": 0.8661417322834646
        },
        {
          "duration": 0.21126749999996264,
          "durationTicks": 48,
          "midi": 67,
          "name": "G4",
          "ticks": 59232,
          "time": 260.70409500000005,
          "velocity": 0.8661417322834646
        },
        {
          "duration": 0.21126750000001948,
          "durationTicks": 48,
          "midi": 62,
          "name": "D4",
          "ticks": 59280,
          "time": 260.9153625,
          "velocity": 0.8661417322834646
        },
        {
          "duration": 0.21126750000001948,
          "durationTicks": 48,
          "midi": 66,
          "name": "F#4",
          "ticks": 59328,
          "time": 261.12663000000003,
          "velocity": 0.8661417322834646
        },
        {
          "duration": 0.21126749999996264,
          "durationTicks": 48,
          "midi": 62,
          "name": "D4",
          "ticks": 59376,
          "time": 261.33789750000005,
          "velocity": 0.8661417322834646
        },
        {
          "duration": 0.21126750000001948,
          "durationTicks": 48,
          "midi": 62,
          "name": "D4",
          "ticks": 59424,
          "time": 261.549165,
          "velocity": 0.8661417322834646
        },
        {
          "duration": 0.21126750000001948,
          "durationTicks": 48,
          "midi": 67,
          "name": "G4",
          "ticks": 59472,
          "time": 261.76043250000004,
          "velocity": 0.8661417322834646
        },
        {
          "duration": 0.21126749999996264,
          "durationTicks": 48,
          "midi": 66,
          "name": "F#4",
          "ticks": 59520,
          "time": 261.97170000000006,
          "velocity": 0.8661417322834646
        },
        {
          "duration": 0.21126750000001948,
          "durationTicks": 48,
          "midi": 62,
          "name": "D4",
          "ticks": 59568,
          "time": 262.1829675,
          "velocity": 0.8661417322834646
        },
        {
          "duration": 0.21126750000001948,
          "durationTicks": 48,
          "midi": 66,
          "name": "F#4",
          "ticks": 59616,
          "time": 262.39423500000004,
          "velocity": 0.8661417322834646
        },
        {
          "duration": 0.21126749999996264,
          "durationTicks": 48,
          "midi": 67,
          "name": "G4",
          "ticks": 59664,
          "time": 262.60550250000006,
          "velocity": 0.8661417322834646
        },
        {
          "duration": 0.21126750000001948,
          "durationTicks": 48,
          "midi": 69,
          "name": "A4",
          "ticks": 59712,
          "time": 262.81677,
          "velocity": 0.8661417322834646
        },
        {
          "duration": 0.21126750000001948,
          "durationTicks": 48,
          "midi": 67,
          "name": "G4",
          "ticks": 59760,
          "time": 263.02803750000004,
          "velocity": 0.8661417322834646
        },
        {
          "duration": 0.21126749999996264,
          "durationTicks": 48,
          "midi": 62,
          "name": "D4",
          "ticks": 59808,
          "time": 263.23930500000006,
          "velocity": 0.8661417322834646
        },
        {
          "duration": 0.21126749999996264,
          "durationTicks": 48,
          "midi": 62,
          "name": "D4",
          "ticks": 59904,
          "time": 263.66184000000004,
          "velocity": 0.8661417322834646
        },
        {
          "duration": 0.21126750000001948,
          "durationTicks": 48,
          "midi": 66,
          "name": "F#4",
          "ticks": 59952,
          "time": 263.8731075,
          "velocity": 0.8661417322834646
        },
        {
          "duration": 0.21126750000001948,
          "durationTicks": 48,
          "midi": 62,
          "name": "D4",
          "ticks": 60000,
          "time": 264.084375,
          "velocity": 0.8661417322834646
        },
        {
          "duration": 0.21126749999996264,
          "durationTicks": 48,
          "midi": 66,
          "name": "F#4",
          "ticks": 60048,
          "time": 264.29564250000004,
          "velocity": 0.8661417322834646
        },
        {
          "duration": 0.21126750000001948,
          "durationTicks": 48,
          "midi": 62,
          "name": "D4",
          "ticks": 60096,
          "time": 264.50691,
          "velocity": 0.8661417322834646
        },
        {
          "duration": 0.21126750000001948,
          "durationTicks": 48,
          "midi": 66,
          "name": "F#4",
          "ticks": 60144,
          "time": 264.7181775,
          "velocity": 0.8661417322834646
        },
        {
          "duration": 0.21126749999996264,
          "durationTicks": 48,
          "midi": 66,
          "name": "F#4",
          "ticks": 60192,
          "time": 264.92944500000004,
          "velocity": 0.8661417322834646
        },
        {
          "duration": 0.21126750000001948,
          "durationTicks": 48,
          "midi": 67,
          "name": "G4",
          "ticks": 60240,
          "time": 265.1407125,
          "velocity": 0.8661417322834646
        },
        {
          "duration": 0.21126750000001948,
          "durationTicks": 48,
          "midi": 64,
          "name": "E4",
          "ticks": 60288,
          "time": 265.35198,
          "velocity": 0.8661417322834646
        },
        {
          "duration": 0.21126749999996264,
          "durationTicks": 48,
          "midi": 66,
          "name": "F#4",
          "ticks": 60336,
          "time": 265.56324750000005,
          "velocity": 0.8661417322834646
        },
        {
          "duration": 0.21126750000001948,
          "durationTicks": 48,
          "midi": 62,
          "name": "D4",
          "ticks": 60384,
          "time": 265.774515,
          "velocity": 0.8661417322834646
        },
        {
          "duration": 0.21126750000001948,
          "durationTicks": 48,
          "midi": 62,
          "name": "D4",
          "ticks": 60432,
          "time": 265.9857825,
          "velocity": 0.8661417322834646
        },
        {
          "duration": 0.21126749999996264,
          "durationTicks": 48,
          "midi": 64,
          "name": "E4",
          "ticks": 60480,
          "time": 266.19705000000005,
          "velocity": 0.8661417322834646
        },
        {
          "duration": 0.21126750000001948,
          "durationTicks": 48,
          "midi": 66,
          "name": "F#4",
          "ticks": 60528,
          "time": 266.4083175,
          "velocity": 0.8661417322834646
        },
        {
          "duration": 0.21126750000001948,
          "durationTicks": 48,
          "midi": 64,
          "name": "E4",
          "ticks": 60576,
          "time": 266.61958500000003,
          "velocity": 0.8661417322834646
        },
        {
          "duration": 0.21126749999996264,
          "durationTicks": 48,
          "midi": 62,
          "name": "D4",
          "ticks": 60624,
          "time": 266.83085250000005,
          "velocity": 0.8661417322834646
        },
        {
          "duration": 0.21126750000001948,
          "durationTicks": 48,
          "midi": 66,
          "name": "F#4",
          "ticks": 60672,
          "time": 267.04212,
          "velocity": 0.8661417322834646
        },
        {
          "duration": 0.21126750000001948,
          "durationTicks": 48,
          "midi": 62,
          "name": "D4",
          "ticks": 60720,
          "time": 267.25338750000003,
          "velocity": 0.8661417322834646
        },
        {
          "duration": 0.21126749999996264,
          "durationTicks": 48,
          "midi": 67,
          "name": "G4",
          "ticks": 60768,
          "time": 267.46465500000005,
          "velocity": 0.8661417322834646
        },
        {
          "duration": 0.21126750000001948,
          "durationTicks": 48,
          "midi": 62,
          "name": "D4",
          "ticks": 60816,
          "time": 267.6759225,
          "velocity": 0.8661417322834646
        },
        {
          "duration": 0.21126750000001948,
          "durationTicks": 48,
          "midi": 66,
          "name": "F#4",
          "ticks": 60864,
          "time": 267.88719000000003,
          "velocity": 0.8661417322834646
        },
        {
          "duration": 0.21126749999996264,
          "durationTicks": 48,
          "midi": 62,
          "name": "D4",
          "ticks": 60912,
          "time": 268.09845750000005,
          "velocity": 0.8661417322834646
        },
        {
          "duration": 0.21126750000001948,
          "durationTicks": 48,
          "midi": 62,
          "name": "D4",
          "ticks": 60960,
          "time": 268.309725,
          "velocity": 0.8661417322834646
        },
        {
          "duration": 0.21126750000001948,
          "durationTicks": 48,
          "midi": 67,
          "name": "G4",
          "ticks": 61008,
          "time": 268.52099250000003,
          "velocity": 0.8661417322834646
        },
        {
          "duration": 0.21126749999996264,
          "durationTicks": 48,
          "midi": 66,
          "name": "F#4",
          "ticks": 61056,
          "time": 268.73226000000005,
          "velocity": 0.8661417322834646
        },
        {
          "duration": 0.21126750000001948,
          "durationTicks": 48,
          "midi": 62,
          "name": "D4",
          "ticks": 61104,
          "time": 268.9435275,
          "velocity": 0.8661417322834646
        },
        {
          "duration": 0.21126750000001948,
          "durationTicks": 48,
          "midi": 66,
          "name": "F#4",
          "ticks": 61152,
          "time": 269.15479500000004,
          "velocity": 0.8661417322834646
        },
        {
          "duration": 0.21126749999996264,
          "durationTicks": 48,
          "midi": 67,
          "name": "G4",
          "ticks": 61200,
          "time": 269.36606250000006,
          "velocity": 0.8661417322834646
        },
        {
          "duration": 0.21126750000001948,
          "durationTicks": 48,
          "midi": 69,
          "name": "A4",
          "ticks": 61248,
          "time": 269.57733,
          "velocity": 0.8661417322834646
        },
        {
          "duration": 0.21126750000001948,
          "durationTicks": 48,
          "midi": 67,
          "name": "G4",
          "ticks": 61296,
          "time": 269.78859750000004,
          "velocity": 0.8661417322834646
        },
        {
          "duration": 0.21126749999996264,
          "durationTicks": 48,
          "midi": 62,
          "name": "D4",
          "ticks": 61344,
          "time": 269.99986500000006,
          "velocity": 0.8661417322834646
        }
      ]
    },
    {
      "channel": 0,
      "controlChanges": {},
      "pitchBends": [],
      "instrument": {
        "family": "piano",
        "number": 0,
        "name": "UNID"
      },
      "name": "UNID",
      "notes": []
    }
  ]
}