{
  "header": {
    "keySignatures": [
      {
        "key": "Bb",
        "scale": "major",
        "ticks": 0
      }
    ],
    "meta": [],
    "name": "",
    "ppq": 96,
    "tempos": [
      {
        "bpm": 148.000148000148,
        "ticks": 0
      }
    ],
    "timeSignatures": [
      {
        "ticks": 0,
        "timeSignature": [
          4,
          4
        ],
        "measures": 0
      }
    ]
  },
  "tracks": [
    {
      "channel": 5,
      "controlChanges": {
        "7": [
          {
            "number": 7,
            "ticks": 0,
            "time": 0,
            "value": 1
          }
        ],
        "10": [
          {
            "number": 10,
            "ticks": 0,
            "time": 0,
            "value": 0.5039370078740157
          }
        ]
      },
      "pitchBends": [],
      "instrument": {
        "family": "piano",
        "number": 2,
        "name": "electric grand piano"
      },
      "name": "",
      "notes": [
        {
          "duration": 1.6976334375000004,
          "durationTicks": 402,
          "midi": 77,
          "name": "F5",
          "ticks": 3024,
          "time": 12.7702575,
          "velocity": 0.5039370078740157
        },
        {
          "duration": 1.4949309375000013,
          "durationTicks": 354,
          "midi": 77,
          "name": "F5",
          "ticks": 6144,
          "time": 25.94592,
          "velocity": 0.2677165354330709
        },
        {
          "duration": 1.4949309375000013,
          "durationTicks": 354,
          "midi": 72,
          "name": "C5",
          "ticks": 6144,
          "time": 25.94592,
          "velocity": 0.2677165354330709
        }
      ],
      "endOfTrackTicks": 19968
    },
    {
      "channel": 0,
      "controlChanges": {
        "7": [
          {
            "number": 7,
            "ticks": 0,
            "time": 0,
            "value": 1
          }
        ],
        "10": [
          {
            "number": 10,
            "ticks": 0,
            "time": 0,
            "value": 0.5039370078740157
          }
        ]
      },
      "pitchBends": [],
      "instrument": {
        "family": "chromatic percussion",
        "number": 11,
        "name": "vibraphone"
      },
      "name": "",
      "notes": [
        {
          "duration": 0.37584421875,
          "durationTicks": 89,
          "midi": 74,
          "name": "D5",
          "ticks": 0,
          "time": 0,
          "velocity": 0.5039370078740157
        },
        {
          "duration": 0.37584421874999996,
          "durationTicks": 89,
          "midi": 77,
          "name": "F5",
          "ticks": 96,
          "time": 0.405405,
          "velocity": 0.5039370078740157
        },
        {
          "duration": 0.3758442187500002,
          "durationTicks": 89,
          "midi": 81,
          "name": "A5",
          "ticks": 192,
          "time": 0.81081,
          "velocity": 0.5039370078740157
        },
        {
          "duration": 0.3758442187500002,
          "durationTicks": 89,
          "midi": 82,
          "name": "A#5",
          "ticks": 288,
          "time": 1.216215,
          "velocity": 0.5039370078740157
        },
        {
          "duration": 0.37584421874999996,
          "durationTicks": 89,
          "midi": 74,
          "name": "D5",
          "ticks": 384,
          "time": 1.62162,
          "velocity": 0.5039370078740157
        },
        {
          "duration": 0.37584421874999974,
          "durationTicks": 89,
          "midi": 77,
          "name": "F5",
          "ticks": 480,
          "time": 2.027025,
          "velocity": 0.5039370078740157
        },
        {
          "duration": 0.37584421874999974,
          "durationTicks": 89,
          "midi": 81,
          "name": "A5",
          "ticks": 576,
          "time": 2.43243,
          "velocity": 0.5039370078740157
        },
        {
          "duration": 0.37584421874999974,
          "durationTicks": 89,
          "midi": 82,
          "name": "A#5",
          "ticks": 672,
          "time": 2.837835,
          "velocity": 0.5039370078740157
        },
        {
          "duration": 0.3758442187500002,
          "durationTicks": 89,
          "midi": 72,
          "name": "C5",
          "ticks": 768,
          "time": 3.24324,
          "velocity": 0.5039370078740157
        },
        {
          "duration": 0.3758442187500002,
          "durationTicks": 89,
          "midi": 75,
          "name": "D#5",
          "ticks": 864,
          "time": 3.648645,
          "velocity": 0.5039370078740157
        },
        {
          "duration": 0.3758442187500002,
          "durationTicks": 89,
          "midi": 79,
          "name": "G5",
          "ticks": 960,
          "time": 4.05405,
          "velocity": 0.5039370078740157
        },
        {
          "duration": 0.3758442187500002,
          "durationTicks": 89,
          "midi": 86,
          "name": "D6",
          "ticks": 1056,
          "time": 4.459455,
          "velocity": 0.5039370078740157
        },
        {
          "duration": 0.3758442187500002,
          "durationTicks": 89,
          "midi": 74,
          "name": "D5",
          "ticks": 1152,
          "time": 4.86486,
          "velocity": 0.5039370078740157
        },
        {
          "duration": 0.3758442187500002,
          "durationTicks": 89,
          "midi": 75,
          "name": "D#5",
          "ticks": 1248,
          "time": 5.270265,
          "velocity": 0.5039370078740157
        },
        {
          "duration": 0.3758442187500002,
          "durationTicks": 89,
          "midi": 79,
          "name": "G5",
          "ticks": 1344,
          "time": 5.67567,
          "velocity": 0.5039370078740157
        },
        {
          "duration": 0.3758442187500002,
          "durationTicks": 89,
          "midi": 86,
          "name": "D6",
          "ticks": 1440,
          "time": 6.081075,
          "velocity": 0.5039370078740157
        },
        {
          "duration": 0.3758442187499993,
          "durationTicks": 89,
          "midi": 74,
          "name": "D5",
          "ticks": 1536,
          "time": 6.48648,
          "velocity": 0.5039370078740157
        },
        {
          "duration": 0.3758442187499993,
          "durationTicks": 89,
          "midi": 77,
          "name": "F5",
          "ticks": 1632,
          "time": 6.891885,
          "velocity": 0.5039370078740157
        },
        {
          "duration": 0.3758442187499993,
          "durationTicks": 89,
          "midi": 81,
          "name": "A5",
          "ticks": 1728,
          "time": 7.29729,
          "velocity": 0.5039370078740157
        },
        {
          "duration": 0.3758442187500002,
          "durationTicks": 89,
          "midi": 82,
          "name": "A#5",
          "ticks": 1824,
          "time": 7.702695,
          "velocity": 0.5039370078740157
        },
        {
          "duration": 0.3758442187500002,
          "durationTicks": 89,
          "midi": 74,
          "name": "D5",
          "ticks": 1920,
          "time": 8.1081,
          "velocity": 0.5039370078740157
        },
        {
          "duration": 0.3758442187500002,
          "durationTicks": 89,
          "midi": 77,
          "name": "F5",
          "ticks": 2016,
          "time": 8.513505,
          "velocity": 0.5039370078740157
        },
        {
          "duration": 0.3758442187500002,
          "durationTicks": 89,
          "midi": 81,
          "name": "A5",
          "ticks": 2112,
          "time": 8.91891,
          "velocity": 0.5039370078740157
        },
        {
          "duration": 0.3758442187500002,
          "durationTicks": 89,
          "midi": 82,
          "name": "A#5",
          "ticks": 2208,
          "time": 9.324315,
          "velocity": 0.5039370078740157
        },
        {
          "duration": 0.3758442187500002,
          "durationTicks": 89,
          "midi": 72,
          "name": "C5",
          "ticks": 2304,
          "time": 9.72972,
          "velocity": 0.5039370078740157
        },
        {
          "duration": 0.3758442187500002,
          "durationTicks": 89,
          "midi": 75,
          "name": "D#5",
          "ticks": 2400,
          "time": 10.135125,
          "velocity": 0.5039370078740157
        },
        {
          "duration": 0.3758442187500002,
          "durationTicks": 89,
          "midi": 79,
          "name": "G5",
          "ticks": 2496,
          "time": 10.54053,
          "velocity": 0.5039370078740157
        },
        {
          "duration": 0.3758442187500002,
          "durationTicks": 89,
          "midi": 86,
          "name": "D6",
          "ticks": 2592,
          "time": 10.945935,
          "velocity": 0.5039370078740157
        },
        {
          "duration": 0.3758442187500002,
          "durationTicks": 89,
          "midi": 74,
          "name": "D5",
          "ticks": 2688,
          "time": 11.35134,
          "velocity": 0.5039370078740157
        },
        {
          "duration": 0.3758442187500002,
          "durationTicks": 89,
          "midi": 75,
          "name": "D#5",
          "ticks": 2784,
          "time": 11.756745,
          "velocity": 0.5039370078740157
        },
        {
          "duration": 0.3758442187500002,
          "durationTicks": 89,
          "midi": 79,
          "name": "G5",
          "ticks": 2880,
          "time": 12.16215,
          "velocity": 0.5039370078740157
        },
        {
          "duration": 0.3758442187500002,
          "durationTicks": 89,
          "midi": 86,
          "name": "D6",
          "ticks": 2976,
          "time": 12.567555,
          "velocity": 0.5039370078740157
        },
        {
          "duration": 0.3758442187500002,
          "durationTicks": 89,
          "midi": 74,
          "name": "D5",
          "ticks": 3072,
          "time": 12.97296,
          "velocity": 0.5039370078740157
        },
        {
          "duration": 0.3758442187500002,
          "durationTicks": 89,
          "midi": 77,
          "name": "F5",
          "ticks": 3168,
          "time": 13.378365,
          "velocity": 0.5039370078740157
        },
        {
          "duration": 0.3758442187500002,
          "durationTicks": 89,
          "midi": 81,
          "name": "A5",
          "ticks": 3264,
          "time": 13.78377,
          "velocity": 0.5039370078740157
        },
        {
          "duration": 0.3758442187500002,
          "durationTicks": 89,
          "midi": 82,
          "name": "A#5",
          "ticks": 3360,
          "time": 14.189175,
          "velocity": 0.5039370078740157
        },
        {
          "duration": 0.3758442187500002,
          "durationTicks": 89,
          "midi": 74,
          "name": "D5",
          "ticks": 3456,
          "time": 14.59458,
          "velocity": 0.5039370078740157
        },
        {
          "duration": 0.3758442187500002,
          "durationTicks": 89,
          "midi": 77,
          "name": "F5",
          "ticks": 3552,
          "time": 14.999985,
          "velocity": 0.5039370078740157
        },
        {
          "duration": 0.3758442187500002,
          "durationTicks": 89,
          "midi": 81,
          "name": "A5",
          "ticks": 3648,
          "time": 15.40539,
          "velocity": 0.5039370078740157
        },
        {
          "duration": 0.37584421875000196,
          "durationTicks": 89,
          "midi": 82,
          "name": "A#5",
          "ticks": 3744,
          "time": 15.810795,
          "velocity": 0.5039370078740157
        },
        {
          "duration": 0.3758442187500002,
          "durationTicks": 89,
          "midi": 72,
          "name": "C5",
          "ticks": 3840,
          "time": 16.2162,
          "velocity": 0.5039370078740157
        },
        {
          "duration": 0.3758442187500002,
          "durationTicks": 89,
          "midi": 75,
          "name": "D#5",
          "ticks": 3936,
          "time": 16.621605000000002,
          "velocity": 0.5039370078740157
        },
        {
          "duration": 0.3758442187500002,
          "durationTicks": 89,
          "midi": 79,
          "name": "G5",
          "ticks": 4032,
          "time": 17.02701,
          "velocity": 0.5039370078740157
        },
        {
          "duration": 0.37584421875000373,
          "durationTicks": 89,
          "midi": 86,
          "name": "D6",
          "ticks": 4128,
          "time": 17.432415,
          "velocity": 0.5039370078740157
        },
        {
          "duration": 0.3758442187500002,
          "durationTicks": 89,
          "midi": 74,
          "name": "D5",
          "ticks": 4224,
          "time": 17.83782,
          "velocity": 0.5039370078740157
        },
        {
          "duration": 0.3758442187500002,
          "durationTicks": 89,
          "midi": 75,
          "name": "D#5",
          "ticks": 4320,
          "time": 18.243225000000002,
          "velocity": 0.5039370078740157
        },
        {
          "duration": 0.3758442187500002,
          "durationTicks": 89,
          "midi": 79,
          "name": "G5",
          "ticks": 4416,
          "time": 18.64863,
          "velocity": 0.5039370078740157
        },
        {
          "duration": 0.37584421875000373,
          "durationTicks": 89,
          "midi": 86,
          "name": "D6",
          "ticks": 4512,
          "time": 19.054035,
          "velocity": 0.5039370078740157
        },
        {
          "duration": 0.3758442187500002,
          "durationTicks": 89,
          "midi": 74,
          "name": "D5",
          "ticks": 4608,
          "time": 19.45944,
          "velocity": 0.5039370078740157
        },
        {
          "duration": 0.3758442187500002,
          "durationTicks": 89,
          "midi": 77,
          "name": "F5",
          "ticks": 4704,
          "time": 19.864845000000003,
          "velocity": 0.5039370078740157
        },
        {
          "duration": 0.3758442187500002,
          "durationTicks": 89,
          "midi": 81,
          "name": "A5",
          "ticks": 4800,
          "time": 20.27025,
          "velocity": 0.5039370078740157
        },
        {
          "duration": 0.37584421875000373,
          "durationTicks": 89,
          "midi": 82,
          "name": "A#5",
          "ticks": 4896,
          "time": 20.675655,
          "velocity": 0.5039370078740157
        },
        {
          "duration": 0.3758442187500002,
          "durationTicks": 89,
          "midi": 74,
          "name": "D5",
          "ticks": 4992,
          "time": 21.08106,
          "velocity": 0.5039370078740157
        },
        {
          "duration": 0.3758442187500002,
          "durationTicks": 89,
          "midi": 77,
          "name": "F5",
          "ticks": 5088,
          "time": 21.486465000000003,
          "velocity": 0.5039370078740157
        },
        {
          "duration": 0.3758442187500002,
          "durationTicks": 89,
          "midi": 81,
          "name": "A5",
          "ticks": 5184,
          "time": 21.89187,
          "velocity": 0.5039370078740157
        },
        {
          "duration": 0.37584421875000373,
          "durationTicks": 89,
          "midi": 82,
          "name": "A#5",
          "ticks": 5280,
          "time": 22.297275,
          "velocity": 0.5039370078740157
        },
        {
          "duration": 0.3758442187500002,
          "durationTicks": 89,
          "midi": 72,
          "name": "C5",
          "ticks": 5376,
          "time": 22.70268,
          "velocity": 0.5039370078740157
        },
        {
          "duration": 0.3758442187500002,
          "durationTicks": 89,
          "midi": 75,
          "name": "D#5",
          "ticks": 5472,
          "time": 23.108085000000003,
          "velocity": 0.5039370078740157
        },
        {
          "duration": 0.3758442187500002,
          "durationTicks": 89,
          "midi": 79,
          "name": "G5",
          "ticks": 5568,
          "time": 23.51349,
          "velocity": 0.5039370078740157
        },
        {
          "duration": 0.37584421875000373,
          "durationTicks": 89,
          "midi": 86,
          "name": "D6",
          "ticks": 5664,
          "time": 23.918895,
          "velocity": 0.5039370078740157
        },
        {
          "duration": 0.3758442187500002,
          "durationTicks": 89,
          "midi": 74,
          "name": "D5",
          "ticks": 5760,
          "time": 24.3243,
          "velocity": 0.5039370078740157
        },
        {
          "duration": 0.3758442187500002,
          "durationTicks": 89,
          "midi": 75,
          "name": "D#5",
          "ticks": 5856,
          "time": 24.729705000000003,
          "velocity": 0.5039370078740157
        },
        {
          "duration": 0.3758442187500002,
          "durationTicks": 89,
          "midi": 79,
          "name": "G5",
          "ticks": 5952,
          "time": 25.13511,
          "velocity": 0.5039370078740157
        },
        {
          "duration": 0.37584421875000373,
          "durationTicks": 89,
          "midi": 86,
          "name": "D6",
          "ticks": 6048,
          "time": 25.540515,
          "velocity": 0.5039370078740157
        },
        {
          "duration": 0.37584421874999663,
          "durationTicks": 89,
          "midi": 89,
          "name": "F6",
          "ticks": 6144,
          "time": 25.94592,
          "velocity": 0.5039370078740157
        },
        {
          "duration": 0.37584421874999663,
          "durationTicks": 89,
          "midi": 87,
          "name": "D#6",
          "ticks": 6240,
          "time": 26.351325000000003,
          "velocity": 0.5039370078740157
        },
        {
          "duration": 0.37584421874999663,
          "durationTicks": 89,
          "midi": 86,
          "name": "D6",
          "ticks": 6336,
          "time": 26.75673,
          "velocity": 0.5039370078740157
        },
        {
          "duration": 1.900335937500003,
          "durationTicks": 450,
          "midi": 82,
          "name": "A#5",
          "ticks": 6432,
          "time": 27.162135,
          "velocity": 0.5039370078740157
        },
        {
          "duration": 0.19003359375000173,
          "durationTicks": 45,
          "midi": 81,
          "name": "A5",
          "ticks": 6912,
          "time": 29.18916,
          "velocity": 0.5039370078740157
        },
        {
          "duration": 0.19003359374999818,
          "durationTicks": 45,
          "midi": 82,
          "name": "A#5",
          "ticks": 6960,
          "time": 29.391862500000002,
          "velocity": 0.5039370078740157
        },
        {
          "duration": 0.19003359374999818,
          "durationTicks": 45,
          "midi": 81,
          "name": "A5",
          "ticks": 7008,
          "time": 29.594565000000003,
          "velocity": 0.5039370078740157
        },
        {
          "duration": 0.19003359375000173,
          "durationTicks": 45,
          "midi": 82,
          "name": "A#5",
          "ticks": 7056,
          "time": 29.7972675,
          "velocity": 0.5039370078740157
        },
        {
          "duration": 0.37584421874999663,
          "durationTicks": 89,
          "midi": 81,
          "name": "A5",
          "ticks": 7104,
          "time": 29.99997,
          "velocity": 0.5039370078740157
        },
        {
          "duration": 1.900335937500003,
          "durationTicks": 450,
          "midi": 77,
          "name": "F5",
          "ticks": 7200,
          "time": 30.405375,
          "velocity": 0.5039370078740157
        },
        {
          "duration": 0.37584421874999663,
          "durationTicks": 89,
          "midi": 75,
          "name": "D#5",
          "ticks": 7680,
          "time": 32.4324,
          "velocity": 0.5039370078740157
        },
        {
          "duration": 0.37584421874999663,
          "durationTicks": 89,
          "midi": 79,
          "name": "G5",
          "ticks": 7776,
          "time": 32.837805,
          "velocity": 0.5039370078740157
        },
        {
          "duration": 0.37584421874999663,
          "durationTicks": 89,
          "midi": 86,
          "name": "D6",
          "ticks": 7872,
          "time": 33.243210000000005,
          "velocity": 0.5039370078740157
        },
        {
          "duration": 1.883444062499997,
          "durationTicks": 446,
          "midi": 82,
          "name": "A#5",
          "ticks": 7968,
          "time": 33.648615,
          "velocity": 0.5039370078740157
        },
        {
          "duration": 1.2542217187500029,
          "durationTicks": 297,
          "midi": 81,
          "name": "A5",
          "ticks": 8416,
          "time": 35.540505,
          "velocity": 0.5039370078740157
        },
        {
          "duration": 1.900335937500003,
          "durationTicks": 450,
          "midi": 77,
          "name": "F5",
          "ticks": 8736,
          "time": 36.891855,
          "velocity": 0.5039370078740157
        },
        {
          "duration": 0.37584421874999663,
          "durationTicks": 89,
          "midi": 89,
          "name": "F6",
          "ticks": 9216,
          "time": 38.91888,
          "velocity": 0.5039370078740157
        },
        {
          "duration": 0.37584421874999663,
          "durationTicks": 89,
          "midi": 87,
          "name": "D#6",
          "ticks": 9312,
          "time": 39.324285,
          "velocity": 0.5039370078740157
        },
        {
          "duration": 0.37584421874999663,
          "durationTicks": 89,
          "midi": 86,
          "name": "D6",
          "ticks": 9408,
          "time": 39.729690000000005,
          "velocity": 0.5039370078740157
        },
        {
          "duration": 1.900335937500003,
          "durationTicks": 450,
          "midi": 82,
          "name": "A#5",
          "ticks": 9504,
          "time": 40.135095,
          "velocity": 0.5039370078740157
        },
        {
          "duration": 0.19003359375000173,
          "durationTicks": 45,
          "midi": 81,
          "name": "A5",
          "ticks": 9984,
          "time": 42.16212,
          "velocity": 0.5039370078740157
        },
        {
          "duration": 0.19003359375000173,
          "durationTicks": 45,
          "midi": 82,
          "name": "A#5",
          "ticks": 10032,
          "time": 42.3648225,
          "velocity": 0.5039370078740157
        },
        {
          "duration": 0.19003359375000173,
          "durationTicks": 45,
          "midi": 81,
          "name": "A5",
          "ticks": 10080,
          "time": 42.567525,
          "velocity": 0.5039370078740157
        },
        {
          "duration": 0.19003359374999462,
          "durationTicks": 45,
          "midi": 82,
          "name": "A#5",
          "ticks": 10128,
          "time": 42.770227500000004,
          "velocity": 0.5039370078740157
        },
        {
          "duration": 0.37584421874999663,
          "durationTicks": 89,
          "midi": 81,
          "name": "A5",
          "ticks": 10176,
          "time": 42.972930000000005,
          "velocity": 0.5039370078740157
        },
        {
          "duration": 1.900335937500003,
          "durationTicks": 450,
          "midi": 77,
          "name": "F5",
          "ticks": 10272,
          "time": 43.378335,
          "velocity": 0.5039370078740157
        },
        {
          "duration": 0.37584421874999663,
          "durationTicks": 89,
          "midi": 75,
          "name": "D#5",
          "ticks": 10752,
          "time": 45.40536,
          "velocity": 0.5039370078740157
        },
        {
          "duration": 0.37584421874999663,
          "durationTicks": 89,
          "midi": 79,
          "name": "G5",
          "ticks": 10848,
          "time": 45.810765,
          "velocity": 0.5039370078740157
        },
        {
          "duration": 0.37584421874999663,
          "durationTicks": 89,
          "midi": 86,
          "name": "D6",
          "ticks": 10944,
          "time": 46.216170000000005,
          "velocity": 0.5039370078740157
        },
        {
          "duration": 1.883444062499997,
          "durationTicks": 446,
          "midi": 82,
          "name": "A#5",
          "ticks": 11040,
          "time": 46.621575,
          "velocity": 0.5039370078740157
        },
        {
          "duration": 1.2542217187500029,
          "durationTicks": 297,
          "midi": 81,
          "name": "A5",
          "ticks": 11488,
          "time": 48.513465000000004,
          "velocity": 0.5039370078740157
        },
        {
          "duration": 1.900335937500003,
          "durationTicks": 450,
          "midi": 77,
          "name": "F5",
          "ticks": 11808,
          "time": 49.864815,
          "velocity": 0.5039370078740157
        },
        {
          "duration": 1.40624859375,
          "durationTicks": 333,
          "midi": 67,
          "name": "G4",
          "ticks": 12288,
          "time": 51.89184,
          "velocity": 0.5039370078740157
        },
        {
          "duration": 1.40624859375,
          "durationTicks": 333,
          "midi": 62,
          "name": "D4",
          "ticks": 12288,
          "time": 51.89184,
          "velocity": 0.5039370078740157
        },
        {
          "duration": 1.608951093750001,
          "durationTicks": 381,
          "midi": 65,
          "name": "F4",
          "ticks": 12624,
          "time": 53.3107575,
          "velocity": 0.5039370078740157
        },
        {
          "duration": 1.608951093750001,
          "durationTicks": 381,
          "midi": 58,
          "name": "A#3",
          "ticks": 12624,
          "time": 53.3107575,
          "velocity": 0.5039370078740157
        },
        {
          "duration": 1.608951093750001,
          "durationTicks": 381,
          "midi": 70,
          "name": "A#4",
          "ticks": 13008,
          "time": 54.9323775,
          "velocity": 0.5039370078740157
        },
        {
          "duration": 1.608951093750001,
          "durationTicks": 381,
          "midi": 67,
          "name": "G4",
          "ticks": 13008,
          "time": 54.9323775,
          "velocity": 0.5039370078740157
        },
        {
          "duration": 3.3192534375000022,
          "durationTicks": 786,
          "midi": 67,
          "name": "G4",
          "ticks": 13392,
          "time": 56.5539975,
          "velocity": 0.5039370078740157
        },
        {
          "duration": 3.3192534375000022,
          "durationTicks": 786,
          "midi": 60,
          "name": "C4",
          "ticks": 13392,
          "time": 56.5539975,
          "velocity": 0.5039370078740157
        },
        {
          "duration": 1.40624859375,
          "durationTicks": 333,
          "midi": 67,
          "name": "G4",
          "ticks": 14208,
          "time": 59.99994,
          "velocity": 0.5039370078740157
        },
        {
          "duration": 1.40624859375,
          "durationTicks": 333,
          "midi": 62,
          "name": "D4",
          "ticks": 14208,
          "time": 59.99994,
          "velocity": 0.5039370078740157
        },
        {
          "duration": 1.608951093750001,
          "durationTicks": 381,
          "midi": 65,
          "name": "F4",
          "ticks": 14544,
          "time": 61.4188575,
          "velocity": 0.5039370078740157
        },
        {
          "duration": 1.608951093750001,
          "durationTicks": 381,
          "midi": 58,
          "name": "A#3",
          "ticks": 14544,
          "time": 61.4188575,
          "velocity": 0.5039370078740157
        },
        {
          "duration": 1.608951093750001,
          "durationTicks": 381,
          "midi": 70,
          "name": "A#4",
          "ticks": 14928,
          "time": 63.0404775,
          "velocity": 0.5039370078740157
        },
        {
          "duration": 1.608951093750001,
          "durationTicks": 381,
          "midi": 67,
          "name": "G4",
          "ticks": 14928,
          "time": 63.0404775,
          "velocity": 0.5039370078740157
        },
        {
          "duration": 3.319253437499995,
          "durationTicks": 786,
          "midi": 74,
          "name": "D5",
          "ticks": 15312,
          "time": 64.6620975,
          "velocity": 0.5039370078740157
        },
        {
          "duration": 3.319253437499995,
          "durationTicks": 786,
          "midi": 69,
          "name": "A4",
          "ticks": 15312,
          "time": 64.6620975,
          "velocity": 0.5039370078740157
        },
        {
          "duration": 1.406248593750007,
          "durationTicks": 333,
          "midi": 67,
          "name": "G4",
          "ticks": 16128,
          "time": 68.10804,
          "velocity": 0.5039370078740157
        },
        {
          "duration": 1.406248593750007,
          "durationTicks": 333,
          "midi": 62,
          "name": "D4",
          "ticks": 16128,
          "time": 68.10804,
          "velocity": 0.5039370078740157
        },
        {
          "duration": 1.6089510937499938,
          "durationTicks": 381,
          "midi": 65,
          "name": "F4",
          "ticks": 16464,
          "time": 69.52695750000001,
          "velocity": 0.5039370078740157
        },
        {
          "duration": 1.6089510937499938,
          "durationTicks": 381,
          "midi": 58,
          "name": "A#3",
          "ticks": 16464,
          "time": 69.52695750000001,
          "velocity": 0.5039370078740157
        },
        {
          "duration": 1.608951093750008,
          "durationTicks": 381,
          "midi": 70,
          "name": "A#4",
          "ticks": 16848,
          "time": 71.1485775,
          "velocity": 0.5039370078740157
        },
        {
          "duration": 1.608951093750008,
          "durationTicks": 381,
          "midi": 67,
          "name": "G4",
          "ticks": 16848,
          "time": 71.1485775,
          "velocity": 0.5039370078740157
        },
        {
          "duration": 3.319253437499995,
          "durationTicks": 786,
          "midi": 67,
          "name": "G4",
          "ticks": 17232,
          "time": 72.77019750000001,
          "velocity": 0.5039370078740157
        },
        {
          "duration": 3.319253437499995,
          "durationTicks": 786,
          "midi": 60,
          "name": "C4",
          "ticks": 17232,
          "time": 72.77019750000001,
          "velocity": 0.5039370078740157
        },
        {
          "duration": 1.406248593750007,
          "durationTicks": 333,
          "midi": 67,
          "name": "G4",
          "ticks": 18048,
          "time": 76.21614,
          "velocity": 0.5039370078740157
        },
        {
          "duration": 1.406248593750007,
          "durationTicks": 333,
          "midi": 62,
          "name": "D4",
          "ticks": 18048,
          "time": 76.21614,
          "velocity": 0.5039370078740157
        },
        {
          "duration": 1.608951093750008,
          "durationTicks": 381,
          "midi": 65,
          "name": "F4",
          "ticks": 18384,
          "time": 77.6350575,
          "velocity": 0.5039370078740157
        },
        {
          "duration": 1.608951093750008,
          "durationTicks": 381,
          "midi": 58,
          "name": "A#3",
          "ticks": 18384,
          "time": 77.6350575,
          "velocity": 0.5039370078740157
        },
        {
          "duration": 1.6089510937499938,
          "durationTicks": 381,
          "midi": 70,
          "name": "A#4",
          "ticks": 18768,
          "time": 79.25667750000001,
          "velocity": 0.5039370078740157
        },
        {
          "duration": 1.6089510937499938,
          "durationTicks": 381,
          "midi": 67,
          "name": "G4",
          "ticks": 18768,
          "time": 79.25667750000001,
          "velocity": 0.5039370078740157
        },
        {
          "duration": 3.319253437499995,
          "durationTicks": 786,
          "midi": 74,
          "name": "D5",
          "ticks": 19152,
          "time": 80.8782975,
          "velocity": 0.5039370078740157
        },
        {
          "duration": 3.319253437499995,
          "durationTicks": 786,
          "midi": 69,
          "name": "A4",
          "ticks": 19152,
          "time": 80.8782975,
          "velocity": 0.5039370078740157
        }
      ],
      "endOfTrackTicks": 19968
    },
    {
      "channel": 0,
      "controlChanges": {
        "7": [
          {
            "number": 7,
            "ticks": 0,
            "time": 0,
            "value": 1
          }
        ],
        "10": [
          {
            "number": 10,
            "ticks": 0,
            "time": 0,
            "value": 0.5039370078740157
          }
        ]
      },
      "pitchBends": [],
      "instrument": {
        "family": "chromatic percussion",
        "number": 11,
        "name": "vibraphone"
      },
      "name": "",
      "notes": [
        {
          "duration": 0.74746546875,
          "durationTicks": 177,
          "midi": 74,
          "name": "D5",
          "ticks": 0,
          "time": 0,
          "velocity": 0.5039370078740157
        },
        {
          "duration": 0.74746546875,
          "durationTicks": 177,
          "midi": 70,
          "name": "A#4",
          "ticks": 0,
          "time": 0,
          "velocity": 0.5039370078740157
        },
        {
          "duration": 0.74746546875,
          "durationTicks": 177,
          "midi": 65,
          "name": "F4",
          "ticks": 192,
          "time": 0.81081,
          "velocity": 0.5039370078740157
        },
        {
          "duration": 0.74746546875,
          "durationTicks": 177,
          "midi": 62,
          "name": "D4",
          "ticks": 192,
          "time": 0.81081,
          "velocity": 0.5039370078740157
        },
        {
          "duration": 1.40624859375,
          "durationTicks": 333,
          "midi": 67,
          "name": "G4",
          "ticks": 384,
          "time": 1.62162,
          "velocity": 0.5039370078740157
        },
        {
          "duration": 1.40624859375,
          "durationTicks": 333,
          "midi": 63,
          "name": "D#4",
          "ticks": 384,
          "time": 1.62162,
          "velocity": 0.5039370078740157
        },
        {
          "duration": 0.9501679687500002,
          "durationTicks": 225,
          "midi": 70,
          "name": "A#4",
          "ticks": 720,
          "time": 3.0405375,
          "velocity": 0.5039370078740157
        },
        {
          "duration": 0.9501679687500002,
          "durationTicks": 225,
          "midi": 67,
          "name": "G4",
          "ticks": 720,
          "time": 3.0405375,
          "velocity": 0.5039370078740157
        },
        {
          "duration": 0.7474654687499998,
          "durationTicks": 177,
          "midi": 69,
          "name": "A4",
          "ticks": 960,
          "time": 4.05405,
          "velocity": 0.5039370078740157
        },
        {
          "duration": 0.7474654687499998,
          "durationTicks": 177,
          "midi": 65,
          "name": "F4",
          "ticks": 960,
          "time": 4.05405,
          "velocity": 0.5039370078740157
        },
        {
          "duration": 1.4949309375000004,
          "durationTicks": 354,
          "midi": 67,
          "name": "G4",
          "ticks": 1152,
          "time": 4.86486,
          "velocity": 0.5039370078740157
        },
        {
          "duration": 1.4949309375000004,
          "durationTicks": 354,
          "midi": 62,
          "name": "D4",
          "ticks": 1152,
          "time": 4.86486,
          "velocity": 0.5039370078740157
        },
        {
          "duration": 0.7474654687499998,
          "durationTicks": 177,
          "midi": 74,
          "name": "D5",
          "ticks": 1536,
          "time": 6.48648,
          "velocity": 0.5039370078740157
        },
        {
          "duration": 0.7474654687499998,
          "durationTicks": 177,
          "midi": 70,
          "name": "A#4",
          "ticks": 1536,
          "time": 6.48648,
          "velocity": 0.5039370078740157
        },
        {
          "duration": 0.7474654687500006,
          "durationTicks": 177,
          "midi": 65,
          "name": "F4",
          "ticks": 1728,
          "time": 7.29729,
          "velocity": 0.5039370078740157
        },
        {
          "duration": 0.7474654687500006,
          "durationTicks": 177,
          "midi": 62,
          "name": "D4",
          "ticks": 1728,
          "time": 7.29729,
          "velocity": 0.5039370078740157
        },
        {
          "duration": 1.40624859375,
          "durationTicks": 333,
          "midi": 67,
          "name": "G4",
          "ticks": 1920,
          "time": 8.1081,
          "velocity": 0.5039370078740157
        },
        {
          "duration": 1.40624859375,
          "durationTicks": 333,
          "midi": 63,
          "name": "D#4",
          "ticks": 1920,
          "time": 8.1081,
          "velocity": 0.5039370078740157
        },
        {
          "duration": 0.9501679687500015,
          "durationTicks": 225,
          "midi": 70,
          "name": "A#4",
          "ticks": 2256,
          "time": 9.5270175,
          "velocity": 0.5039370078740157
        },
        {
          "duration": 0.9501679687500015,
          "durationTicks": 225,
          "midi": 67,
          "name": "G4",
          "ticks": 2256,
          "time": 9.5270175,
          "velocity": 0.5039370078740157
        },
        {
          "duration": 0.7474654687500006,
          "durationTicks": 177,
          "midi": 69,
          "name": "A4",
          "ticks": 2496,
          "time": 10.54053,
          "velocity": 0.5039370078740157
        },
        {
          "duration": 0.7474654687500006,
          "durationTicks": 177,
          "midi": 65,
          "name": "F4",
          "ticks": 2496,
          "time": 10.54053,
          "velocity": 0.5039370078740157
        },
        {
          "duration": 1.4949309374999995,
          "durationTicks": 354,
          "midi": 67,
          "name": "G4",
          "ticks": 2688,
          "time": 11.35134,
          "velocity": 0.5039370078740157
        },
        {
          "duration": 1.4949309374999995,
          "durationTicks": 354,
          "midi": 62,
          "name": "D4",
          "ticks": 2688,
          "time": 11.35134,
          "velocity": 0.5039370078740157
        },
        {
          "duration": 0.7474654687500006,
          "durationTicks": 177,
          "midi": 74,
          "name": "D5",
          "ticks": 3072,
          "time": 12.97296,
          "velocity": 0.5039370078740157
        },
        {
          "duration": 0.7474654687500006,
          "durationTicks": 177,
          "midi": 70,
          "name": "A#4",
          "ticks": 3072,
          "time": 12.97296,
          "velocity": 0.5039370078740157
        },
        {
          "duration": 0.7474654687500006,
          "durationTicks": 177,
          "midi": 65,
          "name": "F4",
          "ticks": 3264,
          "time": 13.78377,
          "velocity": 0.5039370078740157
        },
        {
          "duration": 0.7474654687500006,
          "durationTicks": 177,
          "midi": 62,
          "name": "D4",
          "ticks": 3264,
          "time": 13.78377,
          "velocity": 0.5039370078740157
        },
        {
          "duration": 1.40624859375,
          "durationTicks": 333,
          "midi": 67,
          "name": "G4",
          "ticks": 3456,
          "time": 14.59458,
          "velocity": 0.5039370078740157
        },
        {
          "duration": 1.40624859375,
          "durationTicks": 333,
          "midi": 63,
          "name": "D#4",
          "ticks": 3456,
          "time": 14.59458,
          "velocity": 0.5039370078740157
        },
        {
          "duration": 0.9501679687500015,
          "durationTicks": 225,
          "midi": 70,
          "name": "A#4",
          "ticks": 3792,
          "time": 16.0134975,
          "velocity": 0.5039370078740157
        },
        {
          "duration": 0.9501679687500015,
          "durationTicks": 225,
          "midi": 67,
          "name": "G4",
          "ticks": 3792,
          "time": 16.0134975,
          "velocity": 0.5039370078740157
        },
        {
          "duration": 0.7474654687500006,
          "durationTicks": 177,
          "midi": 69,
          "name": "A4",
          "ticks": 4032,
          "time": 17.02701,
          "velocity": 0.5039370078740157
        },
        {
          "duration": 0.7474654687500006,
          "durationTicks": 177,
          "midi": 65,
          "name": "F4",
          "ticks": 4032,
          "time": 17.02701,
          "velocity": 0.5039370078740157
        },
        {
          "duration": 1.4949309375000013,
          "durationTicks": 354,
          "midi": 67,
          "name": "G4",
          "ticks": 4224,
          "time": 17.83782,
          "velocity": 0.5039370078740157
        },
        {
          "duration": 1.4949309375000013,
          "durationTicks": 354,
          "midi": 62,
          "name": "D4",
          "ticks": 4224,
          "time": 17.83782,
          "velocity": 0.5039370078740157
        },
        {
          "duration": 0.7474654687500006,
          "durationTicks": 177,
          "midi": 74,
          "name": "D5",
          "ticks": 4608,
          "time": 19.45944,
          "velocity": 0.5039370078740157
        },
        {
          "duration": 0.7474654687500006,
          "durationTicks": 177,
          "midi": 70,
          "name": "A#4",
          "ticks": 4608,
          "time": 19.45944,
          "velocity": 0.5039370078740157
        },
        {
          "duration": 0.7474654687500006,
          "durationTicks": 177,
          "midi": 65,
          "name": "F4",
          "ticks": 4800,
          "time": 20.27025,
          "velocity": 0.5039370078740157
        },
        {
          "duration": 0.7474654687500006,
          "durationTicks": 177,
          "midi": 62,
          "name": "D4",
          "ticks": 4800,
          "time": 20.27025,
          "velocity": 0.5039370078740157
        },
        {
          "duration": 1.40624859375,
          "durationTicks": 333,
          "midi": 67,
          "name": "G4",
          "ticks": 4992,
          "time": 21.08106,
          "velocity": 0.5039370078740157
        },
        {
          "duration": 1.40624859375,
          "durationTicks": 333,
          "midi": 63,
          "name": "D#4",
          "ticks": 4992,
          "time": 21.08106,
          "velocity": 0.5039370078740157
        },
        {
          "duration": 0.9501679687500015,
          "durationTicks": 225,
          "midi": 70,
          "name": "A#4",
          "ticks": 5328,
          "time": 22.4999775,
          "velocity": 0.5039370078740157
        },
        {
          "duration": 0.9501679687500015,
          "durationTicks": 225,
          "midi": 67,
          "name": "G4",
          "ticks": 5328,
          "time": 22.4999775,
          "velocity": 0.5039370078740157
        },
        {
          "duration": 0.7474654687500006,
          "durationTicks": 177,
          "midi": 69,
          "name": "A4",
          "ticks": 5568,
          "time": 23.51349,
          "velocity": 0.5039370078740157
        },
        {
          "duration": 0.7474654687500006,
          "durationTicks": 177,
          "midi": 65,
          "name": "F4",
          "ticks": 5568,
          "time": 23.51349,
          "velocity": 0.5039370078740157
        },
        {
          "duration": 1.4949309375000013,
          "durationTicks": 354,
          "midi": 67,
          "name": "G4",
          "ticks": 5760,
          "time": 24.3243,
          "velocity": 0.5039370078740157
        },
        {
          "duration": 1.4949309375000013,
          "durationTicks": 354,
          "midi": 62,
          "name": "D4",
          "ticks": 5760,
          "time": 24.3243,
          "velocity": 0.5039370078740157
        },
        {
          "duration": 1.4189174999999992,
          "durationTicks": 336,
          "midi": 65,
          "name": "F4",
          "ticks": 6144,
          "time": 25.94592,
          "velocity": 0.5039370078740157
        },
        {
          "duration": 1.4189174999999992,
          "durationTicks": 336,
          "midi": 62,
          "name": "D4",
          "ticks": 6144,
          "time": 25.94592,
          "velocity": 0.5039370078740157
        },
        {
          "duration": 3.1165509375000013,
          "durationTicks": 738,
          "midi": 46,
          "name": "A#2",
          "ticks": 6144,
          "time": 25.94592,
          "velocity": 0.5039370078740157
        },
        {
          "duration": 1.6976334375000022,
          "durationTicks": 402,
          "midi": 58,
          "name": "A#3",
          "ticks": 6480,
          "time": 27.3648375,
          "velocity": 0.5039370078740157
        },
        {
          "duration": 1.6976334375000022,
          "durationTicks": 402,
          "midi": 55,
          "name": "G3",
          "ticks": 6480,
          "time": 27.3648375,
          "velocity": 0.5039370078740157
        },
        {
          "duration": 1.3724648437500022,
          "durationTicks": 325,
          "midi": 62,
          "name": "D4",
          "ticks": 6912,
          "time": 29.18916,
          "velocity": 0.5039370078740157
        },
        {
          "duration": 1.3724648437500022,
          "durationTicks": 325,
          "midi": 58,
          "name": "A#3",
          "ticks": 6912,
          "time": 29.18916,
          "velocity": 0.5039370078740157
        },
        {
          "duration": 1.3724648437500022,
          "durationTicks": 325,
          "midi": 46,
          "name": "A#2",
          "ticks": 6912,
          "time": 29.18916,
          "velocity": 0.5039370078740157
        },
        {
          "duration": 1.6976334375000022,
          "durationTicks": 402,
          "midi": 55,
          "name": "G3",
          "ticks": 7248,
          "time": 30.6080775,
          "velocity": 0.5039370078740157
        },
        {
          "duration": 1.6976334375000022,
          "durationTicks": 402,
          "midi": 51,
          "name": "D#3",
          "ticks": 7248,
          "time": 30.6080775,
          "velocity": 0.5039370078740157
        },
        {
          "duration": 1.6976334375000022,
          "durationTicks": 402,
          "midi": 46,
          "name": "A#2",
          "ticks": 7248,
          "time": 30.6080775,
          "velocity": 0.5039370078740157
        },
        {
          "duration": 1.1190867187500046,
          "durationTicks": 265,
          "midi": 63,
          "name": "D#4",
          "ticks": 7680,
          "time": 32.4324,
          "velocity": 0.5039370078740157
        },
        {
          "duration": 1.1190867187500046,
          "durationTicks": 265,
          "midi": 58,
          "name": "A#3",
          "ticks": 7680,
          "time": 32.4324,
          "velocity": 0.5039370078740157
        },
        {
          "duration": 1.900335937500003,
          "durationTicks": 450,
          "midi": 58,
          "name": "A#3",
          "ticks": 7968,
          "time": 33.648615,
          "velocity": 0.5039370078740157
        },
        {
          "duration": 1.900335937500003,
          "durationTicks": 450,
          "midi": 53,
          "name": "F3",
          "ticks": 7968,
          "time": 33.648615,
          "velocity": 0.5039370078740157
        },
        {
          "duration": 3.1165509375000013,
          "durationTicks": 738,
          "midi": 57,
          "name": "A3",
          "ticks": 8448,
          "time": 35.67564,
          "velocity": 0.5039370078740157
        },
        {
          "duration": 3.1165509375000013,
          "durationTicks": 738,
          "midi": 53,
          "name": "F3",
          "ticks": 8448,
          "time": 35.67564,
          "velocity": 0.5039370078740157
        },
        {
          "duration": 1.900335937500003,
          "durationTicks": 450,
          "midi": 48,
          "name": "C3",
          "ticks": 8736,
          "time": 36.891855,
          "velocity": 0.5039370078740157
        },
        {
          "duration": 1.4189174999999992,
          "durationTicks": 336,
          "midi": 65,
          "name": "F4",
          "ticks": 9216,
          "time": 38.91888,
          "velocity": 0.5039370078740157
        },
        {
          "duration": 1.4189174999999992,
          "durationTicks": 336,
          "midi": 62,
          "name": "D4",
          "ticks": 9216,
          "time": 38.91888,
          "velocity": 0.5039370078740157
        },
        {
          "duration": 3.1165509375000013,
          "durationTicks": 738,
          "midi": 46,
          "name": "A#2",
          "ticks": 9216,
          "time": 38.91888,
          "velocity": 0.5039370078740157
        },
        {
          "duration": 1.6976334375000022,
          "durationTicks": 402,
          "midi": 58,
          "name": "A#3",
          "ticks": 9552,
          "time": 40.3377975,
          "velocity": 0.5039370078740157
        },
        {
          "duration": 1.6976334375000022,
          "durationTicks": 402,
          "midi": 55,
          "name": "G3",
          "ticks": 9552,
          "time": 40.3377975,
          "velocity": 0.5039370078740157
        },
        {
          "duration": 1.3724648437500022,
          "durationTicks": 325,
          "midi": 62,
          "name": "D4",
          "ticks": 9984,
          "time": 42.16212,
          "velocity": 0.5039370078740157
        },
        {
          "duration": 1.3724648437500022,
          "durationTicks": 325,
          "midi": 58,
          "name": "A#3",
          "ticks": 9984,
          "time": 42.16212,
          "velocity": 0.5039370078740157
        },
        {
          "duration": 1.3724648437500022,
          "durationTicks": 325,
          "midi": 46,
          "name": "A#2",
          "ticks": 9984,
          "time": 42.16212,
          "velocity": 0.5039370078740157
        },
        {
          "duration": 1.6976334375000022,
          "durationTicks": 402,
          "midi": 55,
          "name": "G3",
          "ticks": 10320,
          "time": 43.5810375,
          "velocity": 0.5039370078740157
        },
        {
          "duration": 1.6976334375000022,
          "durationTicks": 402,
          "midi": 51,
          "name": "D#3",
          "ticks": 10320,
          "time": 43.5810375,
          "velocity": 0.5039370078740157
        },
        {
          "duration": 1.6976334375000022,
          "durationTicks": 402,
          "midi": 46,
          "name": "A#2",
          "ticks": 10320,
          "time": 43.5810375,
          "velocity": 0.5039370078740157
        },
        {
          "duration": 1.1190867187500046,
          "durationTicks": 265,
          "midi": 63,
          "name": "D#4",
          "ticks": 10752,
          "time": 45.40536,
          "velocity": 0.5039370078740157
        },
        {
          "duration": 1.1190867187500046,
          "durationTicks": 265,
          "midi": 58,
          "name": "A#3",
          "ticks": 10752,
          "time": 45.40536,
          "velocity": 0.5039370078740157
        },
        {
          "duration": 1.900335937500003,
          "durationTicks": 450,
          "midi": 58,
          "name": "A#3",
          "ticks": 11040,
          "time": 46.621575,
          "velocity": 0.5039370078740157
        },
        {
          "duration": 1.900335937500003,
          "durationTicks": 450,
          "midi": 53,
          "name": "F3",
          "ticks": 11040,
          "time": 46.621575,
          "velocity": 0.5039370078740157
        },
        {
          "duration": 3.1165509375000013,
          "durationTicks": 738,
          "midi": 57,
          "name": "A3",
          "ticks": 11520,
          "time": 48.6486,
          "velocity": 0.5039370078740157
        },
        {
          "duration": 3.1165509375000013,
          "durationTicks": 738,
          "midi": 53,
          "name": "F3",
          "ticks": 11520,
          "time": 48.6486,
          "velocity": 0.5039370078740157
        },
        {
          "duration": 1.900335937500003,
          "durationTicks": 450,
          "midi": 48,
          "name": "C3",
          "ticks": 11808,
          "time": 49.864815,
          "velocity": 0.5039370078740157
        },
        {
          "duration": 0.19003359375000173,
          "durationTicks": 45,
          "midi": 43,
          "name": "G2",
          "ticks": 12288,
          "time": 51.89184,
          "velocity": 0.5039370078740157
        },
        {
          "duration": 0.3927360937500026,
          "durationTicks": 93,
          "midi": 50,
          "name": "D3",
          "ticks": 12336,
          "time": 52.0945425,
          "velocity": 0.5039370078740157
        },
        {
          "duration": 0.3927360937499955,
          "durationTicks": 93,
          "midi": 53,
          "name": "F3",
          "ticks": 12432,
          "time": 52.499947500000005,
          "velocity": 0.5039370078740157
        },
        {
          "duration": 0.19003359375000173,
          "durationTicks": 45,
          "midi": 50,
          "name": "D3",
          "ticks": 12528,
          "time": 52.9053525,
          "velocity": 0.5039370078740157
        },
        {
          "duration": 0.19003359375000173,
          "durationTicks": 45,
          "midi": 53,
          "name": "F3",
          "ticks": 12576,
          "time": 53.108055,
          "velocity": 0.5039370078740157
        },
        {
          "duration": 0.19003359375000173,
          "durationTicks": 45,
          "midi": 50,
          "name": "D3",
          "ticks": 12624,
          "time": 53.3107575,
          "velocity": 0.5039370078740157
        },
        {
          "duration": 0.19003359375000173,
          "durationTicks": 45,
          "midi": 46,
          "name": "A#2",
          "ticks": 12672,
          "time": 53.51346,
          "velocity": 0.5039370078740157
        },
        {
          "duration": 1.3217892187499984,
          "durationTicks": 313,
          "midi": 57,
          "name": "A3",
          "ticks": 12720,
          "time": 53.7161625,
          "velocity": 0.5039370078740157
        },
        {
          "duration": 0.3927360937500026,
          "durationTicks": 93,
          "midi": 58,
          "name": "A#3",
          "ticks": 13104,
          "time": 55.3377825,
          "velocity": 0.5039370078740157
        },
        {
          "duration": 0.3927360937499955,
          "durationTicks": 93,
          "midi": 55,
          "name": "G3",
          "ticks": 13200,
          "time": 55.743187500000005,
          "velocity": 0.5039370078740157
        },
        {
          "duration": 0.3927360937500026,
          "durationTicks": 93,
          "midi": 51,
          "name": "D#3",
          "ticks": 13296,
          "time": 56.1485925,
          "velocity": 0.5039370078740157
        },
        {
          "duration": 0.3927360937500026,
          "durationTicks": 93,
          "midi": 50,
          "name": "D3",
          "ticks": 13488,
          "time": 56.9594025,
          "velocity": 0.5039370078740157
        },
        {
          "duration": 0.3927360937499955,
          "durationTicks": 93,
          "midi": 51,
          "name": "D#3",
          "ticks": 13584,
          "time": 57.364807500000005,
          "velocity": 0.5039370078740157
        },
        {
          "duration": 0.19003359375000173,
          "durationTicks": 45,
          "midi": 50,
          "name": "D3",
          "ticks": 13680,
          "time": 57.7702125,
          "velocity": 0.5039370078740157
        },
        {
          "duration": 0.19003359375000173,
          "durationTicks": 45,
          "midi": 51,
          "name": "D#3",
          "ticks": 13728,
          "time": 57.972915,
          "velocity": 0.5039370078740157
        },
        {
          "duration": 1.3217892187499984,
          "durationTicks": 313,
          "midi": 48,
          "name": "C3",
          "ticks": 13776,
          "time": 58.1756175,
          "velocity": 0.5039370078740157
        },
        {
          "duration": 0.19003359375000173,
          "durationTicks": 45,
          "midi": 43,
          "name": "G2",
          "ticks": 14208,
          "time": 59.99994,
          "velocity": 0.5039370078740157
        },
        {
          "duration": 0.3927360937500026,
          "durationTicks": 93,
          "midi": 50,
          "name": "D3",
          "ticks": 14256,
          "time": 60.2026425,
          "velocity": 0.5039370078740157
        },
        {
          "duration": 0.3927360937499955,
          "durationTicks": 93,
          "midi": 53,
          "name": "F3",
          "ticks": 14352,
          "time": 60.608047500000005,
          "velocity": 0.5039370078740157
        },
        {
          "duration": 0.19003359375000173,
          "durationTicks": 45,
          "midi": 50,
          "name": "D3",
          "ticks": 14448,
          "time": 61.0134525,
          "velocity": 0.5039370078740157
        },
        {
          "duration": 0.19003359375000173,
          "durationTicks": 45,
          "midi": 53,
          "name": "F3",
          "ticks": 14496,
          "time": 61.216155,
          "velocity": 0.5039370078740157
        },
        {
          "duration": 0.19003359375000173,
          "durationTicks": 45,
          "midi": 50,
          "name": "D3",
          "ticks": 14544,
          "time": 61.4188575,
          "velocity": 0.5039370078740157
        },
        {
          "duration": 0.19003359375000173,
          "durationTicks": 45,
          "midi": 46,
          "name": "A#2",
          "ticks": 14592,
          "time": 61.62156,
          "velocity": 0.5039370078740157
        },
        {
          "duration": 1.3217892187499984,
          "durationTicks": 313,
          "midi": 57,
          "name": "A3",
          "ticks": 14640,
          "time": 61.8242625,
          "velocity": 0.5039370078740157
        },
        {
          "duration": 0.3927360937500026,
          "durationTicks": 93,
          "midi": 58,
          "name": "A#3",
          "ticks": 15024,
          "time": 63.4458825,
          "velocity": 0.5039370078740157
        },
        {
          "duration": 0.3927360937499955,
          "durationTicks": 93,
          "midi": 60,
          "name": "C4",
          "ticks": 15120,
          "time": 63.851287500000005,
          "velocity": 0.5039370078740157
        },
        {
          "duration": 0.3927360937500026,
          "durationTicks": 93,
          "midi": 62,
          "name": "D4",
          "ticks": 15216,
          "time": 64.2566925,
          "velocity": 0.5039370078740157
        },
        {
          "duration": 0.3927360937500026,
          "durationTicks": 93,
          "midi": 62,
          "name": "D4",
          "ticks": 15312,
          "time": 64.6620975,
          "velocity": 0.5039370078740157
        },
        {
          "duration": 0.3927360937500026,
          "durationTicks": 93,
          "midi": 55,
          "name": "G3",
          "ticks": 15408,
          "time": 65.0675025,
          "velocity": 0.5039370078740157
        },
        {
          "duration": 0.3927360937500026,
          "durationTicks": 93,
          "midi": 53,
          "name": "F3",
          "ticks": 15504,
          "time": 65.4729075,
          "velocity": 0.5039370078740157
        },
        {
          "duration": 1.727194218749986,
          "durationTicks": 409,
          "midi": 48,
          "name": "C3",
          "ticks": 15600,
          "time": 65.8783125,
          "velocity": 0.5039370078740157
        },
        {
          "duration": 0.19003359375000173,
          "durationTicks": 45,
          "midi": 43,
          "name": "G2",
          "ticks": 16128,
          "time": 68.10804,
          "velocity": 0.5039370078740157
        },
        {
          "duration": 0.3927360937500026,
          "durationTicks": 93,
          "midi": 50,
          "name": "D3",
          "ticks": 16176,
          "time": 68.3107425,
          "velocity": 0.5039370078740157
        },
        {
          "duration": 0.3927360937500026,
          "durationTicks": 93,
          "midi": 53,
          "name": "F3",
          "ticks": 16272,
          "time": 68.7161475,
          "velocity": 0.5039370078740157
        },
        {
          "duration": 0.19003359375000173,
          "durationTicks": 45,
          "midi": 50,
          "name": "D3",
          "ticks": 16368,
          "time": 69.1215525,
          "velocity": 0.5039370078740157
        },
        {
          "duration": 0.19003359375000173,
          "durationTicks": 45,
          "midi": 53,
          "name": "F3",
          "ticks": 16416,
          "time": 69.32425500000001,
          "velocity": 0.5039370078740157
        },
        {
          "duration": 0.19003359374998752,
          "durationTicks": 45,
          "midi": 50,
          "name": "D3",
          "ticks": 16464,
          "time": 69.52695750000001,
          "velocity": 0.5039370078740157
        },
        {
          "duration": 0.19003359375000173,
          "durationTicks": 45,
          "midi": 46,
          "name": "A#2",
          "ticks": 16512,
          "time": 69.72966,
          "velocity": 0.5039370078740157
        },
        {
          "duration": 1.3217892187499984,
          "durationTicks": 313,
          "midi": 57,
          "name": "A3",
          "ticks": 16560,
          "time": 69.9323625,
          "velocity": 0.5039370078740157
        },
        {
          "duration": 0.3927360937500026,
          "durationTicks": 93,
          "midi": 58,
          "name": "A#3",
          "ticks": 16944,
          "time": 71.5539825,
          "velocity": 0.5039370078740157
        },
        {
          "duration": 0.3927360937500026,
          "durationTicks": 93,
          "midi": 55,
          "name": "G3",
          "ticks": 17040,
          "time": 71.9593875,
          "velocity": 0.5039370078740157
        },
        {
          "duration": 0.3927360937500026,
          "durationTicks": 93,
          "midi": 51,
          "name": "D#3",
          "ticks": 17136,
          "time": 72.36479250000001,
          "velocity": 0.5039370078740157
        },
        {
          "duration": 0.3927360937499884,
          "durationTicks": 93,
          "midi": 48,
          "name": "C3",
          "ticks": 17232,
          "time": 72.77019750000001,
          "velocity": 0.5039370078740157
        },
        {
          "duration": 0.3927360937500026,
          "durationTicks": 93,
          "midi": 50,
          "name": "D3",
          "ticks": 17328,
          "time": 73.1756025,
          "velocity": 0.5039370078740157
        },
        {
          "duration": 0.3927360937500026,
          "durationTicks": 93,
          "midi": 51,
          "name": "D#3",
          "ticks": 17424,
          "time": 73.5810075,
          "velocity": 0.5039370078740157
        },
        {
          "duration": 0.19003359375000173,
          "durationTicks": 45,
          "midi": 50,
          "name": "D3",
          "ticks": 17520,
          "time": 73.9864125,
          "velocity": 0.5039370078740157
        },
        {
          "duration": 0.19003359375000173,
          "durationTicks": 45,
          "midi": 51,
          "name": "D#3",
          "ticks": 17568,
          "time": 74.189115,
          "velocity": 0.5039370078740157
        },
        {
          "duration": 1.3217892187499984,
          "durationTicks": 313,
          "midi": 48,
          "name": "C3",
          "ticks": 17616,
          "time": 74.3918175,
          "velocity": 0.5039370078740157
        },
        {
          "duration": 0.19003359375000173,
          "durationTicks": 45,
          "midi": 43,
          "name": "G2",
          "ticks": 18048,
          "time": 76.21614,
          "velocity": 0.5039370078740157
        },
        {
          "duration": 0.3927360937500026,
          "durationTicks": 93,
          "midi": 50,
          "name": "D3",
          "ticks": 18096,
          "time": 76.4188425,
          "velocity": 0.5039370078740157
        },
        {
          "duration": 0.3927360937500026,
          "durationTicks": 93,
          "midi": 53,
          "name": "F3",
          "ticks": 18192,
          "time": 76.8242475,
          "velocity": 0.5039370078740157
        },
        {
          "duration": 0.19003359375000173,
          "durationTicks": 45,
          "midi": 50,
          "name": "D3",
          "ticks": 18288,
          "time": 77.2296525,
          "velocity": 0.5039370078740157
        },
        {
          "duration": 0.19003359375000173,
          "durationTicks": 45,
          "midi": 53,
          "name": "F3",
          "ticks": 18336,
          "time": 77.432355,
          "velocity": 0.5039370078740157
        },
        {
          "duration": 0.19003359375000173,
          "durationTicks": 45,
          "midi": 50,
          "name": "D3",
          "ticks": 18384,
          "time": 77.6350575,
          "velocity": 0.5039370078740157
        },
        {
          "duration": 0.19003359375000173,
          "durationTicks": 45,
          "midi": 46,
          "name": "A#2",
          "ticks": 18432,
          "time": 77.83776,
          "velocity": 0.5039370078740157
        },
        {
          "duration": 1.3217892187499984,
          "durationTicks": 313,
          "midi": 57,
          "name": "A3",
          "ticks": 18480,
          "time": 78.0404625,
          "velocity": 0.5039370078740157
        },
        {
          "duration": 0.3927360937500026,
          "durationTicks": 93,
          "midi": 58,
          "name": "A#3",
          "ticks": 18864,
          "time": 79.6620825,
          "velocity": 0.5039370078740157
        },
        {
          "duration": 0.3927360937500026,
          "durationTicks": 93,
          "midi": 60,
          "name": "C4",
          "ticks": 18960,
          "time": 80.0674875,
          "velocity": 0.5039370078740157
        },
        {
          "duration": 0.3927360937500026,
          "durationTicks": 93,
          "midi": 62,
          "name": "D4",
          "ticks": 19056,
          "time": 80.4728925,
          "velocity": 0.5039370078740157
        },
        {
          "duration": 0.3927360937500026,
          "durationTicks": 93,
          "midi": 62,
          "name": "D4",
          "ticks": 19152,
          "time": 80.8782975,
          "velocity": 0.5039370078740157
        },
        {
          "duration": 0.3927360937500026,
          "durationTicks": 93,
          "midi": 55,
          "name": "G3",
          "ticks": 19248,
          "time": 81.2837025,
          "velocity": 0.5039370078740157
        },
        {
          "duration": 0.3927360937500026,
          "durationTicks": 93,
          "midi": 53,
          "name": "F3",
          "ticks": 19344,
          "time": 81.6891075,
          "velocity": 0.5039370078740157
        },
        {
          "duration": 1.727194218749986,
          "durationTicks": 409,
          "midi": 48,
          "name": "C3",
          "ticks": 19440,
          "time": 82.09451250000001,
          "velocity": 0.5039370078740157
        }
      ],
      "endOfTrackTicks": 19968
    },
    {
      "channel": 9,
      "controlChanges": {
        "7": [
          {
            "number": 7,
            "ticks": 0,
            "time": 0,
            "value": 1
          }
        ],
        "10": [
          {
            "number": 10,
            "ticks": 0,
            "time": 0,
            "value": 0.5039370078740157
          }
        ]
      },
      "pitchBends": [],
      "instrument": {
        "family": "drums",
        "number": 0,
        "name": "standard kit"
      },
      "name": "",
      "notes": [
        {
          "duration": 0.37584421874999663,
          "durationTicks": 89,
          "midi": 59,
          "name": "B3",
          "ticks": 6144,
          "time": 25.94592,
          "velocity": 0.5039370078740157
        },
        {
          "duration": 0.37584421874999663,
          "durationTicks": 89,
          "midi": 59,
          "name": "B3",
          "ticks": 6240,
          "time": 26.351325000000003,
          "velocity": 0.5039370078740157
        },
        {
          "duration": 0.37584421874999663,
          "durationTicks": 89,
          "midi": 59,
          "name": "B3",
          "ticks": 6336,
          "time": 26.75673,
          "velocity": 0.5039370078740157
        },
        {
          "duration": 0.3758442187500002,
          "durationTicks": 89,
          "midi": 59,
          "name": "B3",
          "ticks": 6432,
          "time": 27.162135,
          "velocity": 0.5039370078740157
        },
        {
          "duration": 0.37584421874999663,
          "durationTicks": 89,
          "midi": 59,
          "name": "B3",
          "ticks": 6528,
          "time": 27.56754,
          "velocity": 0.5039370078740157
        },
        {
          "duration": 0.37584421874999663,
          "durationTicks": 89,
          "midi": 59,
          "name": "B3",
          "ticks": 6624,
          "time": 27.972945000000003,
          "velocity": 0.5039370078740157
        },
        {
          "duration": 0.37584421874999663,
          "durationTicks": 89,
          "midi": 59,
          "name": "B3",
          "ticks": 6720,
          "time": 28.37835,
          "velocity": 0.5039370078740157
        },
        {
          "duration": 0.3758442187500002,
          "durationTicks": 89,
          "midi": 59,
          "name": "B3",
          "ticks": 6816,
          "time": 28.783755,
          "velocity": 0.5039370078740157
        },
        {
          "duration": 0.37584421874999663,
          "durationTicks": 89,
          "midi": 59,
          "name": "B3",
          "ticks": 6912,
          "time": 29.18916,
          "velocity": 0.5039370078740157
        },
        {
          "duration": 0.37584421874999663,
          "durationTicks": 89,
          "midi": 59,
          "name": "B3",
          "ticks": 7008,
          "time": 29.594565000000003,
          "velocity": 0.5039370078740157
        },
        {
          "duration": 0.37584421874999663,
          "durationTicks": 89,
          "midi": 59,
          "name": "B3",
          "ticks": 7104,
          "time": 29.99997,
          "velocity": 0.5039370078740157
        },
        {
          "duration": 0.3758442187500002,
          "durationTicks": 89,
          "midi": 59,
          "name": "B3",
          "ticks": 7200,
          "time": 30.405375,
          "velocity": 0.5039370078740157
        },
        {
          "duration": 0.37584421874999663,
          "durationTicks": 89,
          "midi": 59,
          "name": "B3",
          "ticks": 7296,
          "time": 30.81078,
          "velocity": 0.5039370078740157
        },
        {
          "duration": 0.37584421874999663,
          "durationTicks": 89,
          "midi": 59,
          "name": "B3",
          "ticks": 7392,
          "time": 31.216185000000003,
          "velocity": 0.5039370078740157
        },
        {
          "duration": 0.37584421874999663,
          "durationTicks": 89,
          "midi": 59,
          "name": "B3",
          "ticks": 7488,
          "time": 31.62159,
          "velocity": 0.5039370078740157
        },
        {
          "duration": 0.37584421874999663,
          "durationTicks": 89,
          "midi": 59,
          "name": "B3",
          "ticks": 7584,
          "time": 32.026995,
          "velocity": 0.5039370078740157
        },
        {
          "duration": 0.37584421874999663,
          "durationTicks": 89,
          "midi": 59,
          "name": "B3",
          "ticks": 7680,
          "time": 32.4324,
          "velocity": 0.5039370078740157
        },
        {
          "duration": 0.37584421874999663,
          "durationTicks": 89,
          "midi": 59,
          "name": "B3",
          "ticks": 7776,
          "time": 32.837805,
          "velocity": 0.5039370078740157
        },
        {
          "duration": 0.37584421874999663,
          "durationTicks": 89,
          "midi": 59,
          "name": "B3",
          "ticks": 7872,
          "time": 33.243210000000005,
          "velocity": 0.5039370078740157
        },
        {
          "duration": 0.37584421874999663,
          "durationTicks": 89,
          "midi": 59,
          "name": "B3",
          "ticks": 7968,
          "time": 33.648615,
          "velocity": 0.5039370078740157
        },
        {
          "duration": 0.37584421874999663,
          "durationTicks": 89,
          "midi": 59,
          "name": "B3",
          "ticks": 8064,
          "time": 34.05402,
          "velocity": 0.5039370078740157
        },
        {
          "duration": 0.37584421874999663,
          "durationTicks": 89,
          "midi": 59,
          "name": "B3",
          "ticks": 8160,
          "time": 34.459425,
          "velocity": 0.5039370078740157
        },
        {
          "duration": 0.37584421875000373,
          "durationTicks": 89,
          "midi": 59,
          "name": "B3",
          "ticks": 8256,
          "time": 34.86483,
          "velocity": 0.5039370078740157
        },
        {
          "duration": 0.37584421874999663,
          "durationTicks": 89,
          "midi": 59,
          "name": "B3",
          "ticks": 8352,
          "time": 35.270235,
          "velocity": 0.5039370078740157
        },
        {
          "duration": 0.37584421874999663,
          "durationTicks": 89,
          "midi": 59,
          "name": "B3",
          "ticks": 8448,
          "time": 35.67564,
          "velocity": 0.5039370078740157
        },
        {
          "duration": 0.37584421874999663,
          "durationTicks": 89,
          "midi": 59,
          "name": "B3",
          "ticks": 8544,
          "time": 36.081045,
          "velocity": 0.5039370078740157
        },
        {
          "duration": 0.37584421874999663,
          "durationTicks": 89,
          "midi": 59,
          "name": "B3",
          "ticks": 8640,
          "time": 36.486450000000005,
          "velocity": 0.5039370078740157
        },
        {
          "duration": 0.37584421874999663,
          "durationTicks": 89,
          "midi": 59,
          "name": "B3",
          "ticks": 8736,
          "time": 36.891855,
          "velocity": 0.5039370078740157
        },
        {
          "duration": 0.37584421874999663,
          "durationTicks": 89,
          "midi": 59,
          "name": "B3",
          "ticks": 8832,
          "time": 37.29726,
          "velocity": 0.5039370078740157
        },
        {
          "duration": 0.37584421874999663,
          "durationTicks": 89,
          "midi": 59,
          "name": "B3",
          "ticks": 8928,
          "time": 37.702665,
          "velocity": 0.5039370078740157
        },
        {
          "duration": 0.37584421875000373,
          "durationTicks": 89,
          "midi": 59,
          "name": "B3",
          "ticks": 9024,
          "time": 38.10807,
          "velocity": 0.5039370078740157
        },
        {
          "duration": 0.37584421874999663,
          "durationTicks": 89,
          "midi": 59,
          "name": "B3",
          "ticks": 9120,
          "time": 38.513475,
          "velocity": 0.5039370078740157
        },
        {
          "duration": 0.37584421874999663,
          "durationTicks": 89,
          "midi": 59,
          "name": "B3",
          "ticks": 9216,
          "time": 38.91888,
          "velocity": 0.5039370078740157
        },
        {
          "duration": 0.37584421874999663,
          "durationTicks": 89,
          "midi": 59,
          "name": "B3",
          "ticks": 9312,
          "time": 39.324285,
          "velocity": 0.5039370078740157
        },
        {
          "duration": 0.37584421874999663,
          "durationTicks": 89,
          "midi": 59,
          "name": "B3",
          "ticks": 9408,
          "time": 39.729690000000005,
          "velocity": 0.5039370078740157
        },
        {
          "duration": 0.37584421874999663,
          "durationTicks": 89,
          "midi": 59,
          "name": "B3",
          "ticks": 9504,
          "time": 40.135095,
          "velocity": 0.5039370078740157
        },
        {
          "duration": 0.37584421874999663,
          "durationTicks": 89,
          "midi": 59,
          "name": "B3",
          "ticks": 9600,
          "time": 40.5405,
          "velocity": 0.5039370078740157
        },
        {
          "duration": 0.37584421874999663,
          "durationTicks": 89,
          "midi": 59,
          "name": "B3",
          "ticks": 9696,
          "time": 40.945905,
          "velocity": 0.5039370078740157
        },
        {
          "duration": 0.37584421875000373,
          "durationTicks": 89,
          "midi": 59,
          "name": "B3",
          "ticks": 9792,
          "time": 41.35131,
          "velocity": 0.5039370078740157
        },
        {
          "duration": 0.37584421874999663,
          "durationTicks": 89,
          "midi": 59,
          "name": "B3",
          "ticks": 9888,
          "time": 41.756715,
          "velocity": 0.5039370078740157
        },
        {
          "duration": 0.37584421874999663,
          "durationTicks": 89,
          "midi": 59,
          "name": "B3",
          "ticks": 9984,
          "time": 42.16212,
          "velocity": 0.5039370078740157
        },
        {
          "duration": 0.37584421874999663,
          "durationTicks": 89,
          "midi": 59,
          "name": "B3",
          "ticks": 10080,
          "time": 42.567525,
          "velocity": 0.5039370078740157
        },
        {
          "duration": 0.37584421874999663,
          "durationTicks": 89,
          "midi": 59,
          "name": "B3",
          "ticks": 10176,
          "time": 42.972930000000005,
          "velocity": 0.5039370078740157
        },
        {
          "duration": 0.37584421874999663,
          "durationTicks": 89,
          "midi": 59,
          "name": "B3",
          "ticks": 10272,
          "time": 43.378335,
          "velocity": 0.5039370078740157
        },
        {
          "duration": 0.37584421874999663,
          "durationTicks": 89,
          "midi": 59,
          "name": "B3",
          "ticks": 10368,
          "time": 43.78374,
          "velocity": 0.5039370078740157
        },
        {
          "duration": 0.37584421874999663,
          "durationTicks": 89,
          "midi": 59,
          "name": "B3",
          "ticks": 10464,
          "time": 44.189145,
          "velocity": 0.5039370078740157
        },
        {
          "duration": 0.37584421875000373,
          "durationTicks": 89,
          "midi": 59,
          "name": "B3",
          "ticks": 10560,
          "time": 44.59455,
          "velocity": 0.5039370078740157
        },
        {
          "duration": 0.37584421874999663,
          "durationTicks": 89,
          "midi": 59,
          "name": "B3",
          "ticks": 10656,
          "time": 44.999955,
          "velocity": 0.5039370078740157
        },
        {
          "duration": 0.37584421874999663,
          "durationTicks": 89,
          "midi": 59,
          "name": "B3",
          "ticks": 10752,
          "time": 45.40536,
          "velocity": 0.5039370078740157
        },
        {
          "duration": 0.37584421874999663,
          "durationTicks": 89,
          "midi": 59,
          "name": "B3",
          "ticks": 10848,
          "time": 45.810765,
          "velocity": 0.5039370078740157
        },
        {
          "duration": 0.37584421874999663,
          "durationTicks": 89,
          "midi": 59,
          "name": "B3",
          "ticks": 10944,
          "time": 46.216170000000005,
          "velocity": 0.5039370078740157
        },
        {
          "duration": 0.37584421874999663,
          "durationTicks": 89,
          "midi": 59,
          "name": "B3",
          "ticks": 11040,
          "time": 46.621575,
          "velocity": 0.5039370078740157
        },
        {
          "duration": 0.37584421874999663,
          "durationTicks": 89,
          "midi": 59,
          "name": "B3",
          "ticks": 11136,
          "time": 47.02698,
          "velocity": 0.5039370078740157
        },
        {
          "duration": 0.37584421874999663,
          "durationTicks": 89,
          "midi": 59,
          "name": "B3",
          "ticks": 11232,
          "time": 47.432385000000004,
          "velocity": 0.5039370078740157
        },
        {
          "duration": 0.37584421875000373,
          "durationTicks": 89,
          "midi": 59,
          "name": "B3",
          "ticks": 11328,
          "time": 47.83779,
          "velocity": 0.5039370078740157
        },
        {
          "duration": 0.37584421874999663,
          "durationTicks": 89,
          "midi": 59,
          "name": "B3",
          "ticks": 11424,
          "time": 48.243195,
          "velocity": 0.5039370078740157
        },
        {
          "duration": 0.37584421874999663,
          "durationTicks": 89,
          "midi": 59,
          "name": "B3",
          "ticks": 11520,
          "time": 48.6486,
          "velocity": 0.5039370078740157
        },
        {
          "duration": 0.37584421874999663,
          "durationTicks": 89,
          "midi": 59,
          "name": "B3",
          "ticks": 11616,
          "time": 49.054005000000004,
          "velocity": 0.5039370078740157
        },
        {
          "duration": 0.37584421874999663,
          "durationTicks": 89,
          "midi": 59,
          "name": "B3",
          "ticks": 11712,
          "time": 49.459410000000005,
          "velocity": 0.5039370078740157
        },
        {
          "duration": 0.37584421874999663,
          "durationTicks": 89,
          "midi": 59,
          "name": "B3",
          "ticks": 11808,
          "time": 49.864815,
          "velocity": 0.5039370078740157
        },
        {
          "duration": 0.37584421874999663,
          "durationTicks": 89,
          "midi": 59,
          "name": "B3",
          "ticks": 11904,
          "time": 50.27022,
          "velocity": 0.5039370078740157
        },
        {
          "duration": 0.37584421874999663,
          "durationTicks": 89,
          "midi": 59,
          "name": "B3",
          "ticks": 12000,
          "time": 50.675625000000004,
          "velocity": 0.5039370078740157
        },
        {
          "duration": 0.37584421875000373,
          "durationTicks": 89,
          "midi": 59,
          "name": "B3",
          "ticks": 12096,
          "time": 51.08103,
          "velocity": 0.5039370078740157
        },
        {
          "duration": 0.37584421874999663,
          "durationTicks": 89,
          "midi": 59,
          "name": "B3",
          "ticks": 12192,
          "time": 51.486435,
          "velocity": 0.5039370078740157
        }
      ],
      "endOfTrackTicks": 19968
    },
    {
      "channel": 9,
      "controlChanges": {
        "7": [
          {
            "number": 7,
            "ticks": 0,
            "time": 0,
            "value": 1
          }
        ],
        "10": [
          {
            "number": 10,
            "ticks": 0,
            "time": 0,
            "value": 0.5039370078740157
          }
        ]
      },
      "pitchBends": [],
      "instrument": {
        "family": "drums",
        "number": 0,
        "name": "standard kit"
      },
      "name": "",
      "notes": [
        {
          "duration": 0.37584421875,
          "durationTicks": 89,
          "midi": 42,
          "name": "F#2",
          "ticks": 0,
          "time": 0,
          "velocity": 0.5039370078740157
        },
        {
          "duration": 0.19003359374999995,
          "durationTicks": 45,
          "midi": 42,
          "name": "F#2",
          "ticks": 96,
          "time": 0.405405,
          "velocity": 0.5039370078740157
        },
        {
          "duration": 0.19003359374999995,
          "durationTicks": 45,
          "midi": 42,
          "name": "F#2",
          "ticks": 144,
          "time": 0.6081075,
          "velocity": 0.5039370078740157
        },
        {
          "duration": 0.19003359374999995,
          "durationTicks": 45,
          "midi": 42,
          "name": "F#2",
          "ticks": 192,
          "time": 0.81081,
          "velocity": 0.5039370078740157
        },
        {
          "duration": 0.19003359374999995,
          "durationTicks": 45,
          "midi": 42,
          "name": "F#2",
          "ticks": 240,
          "time": 1.0135125,
          "velocity": 0.5039370078740157
        },
        {
          "duration": 0.19003359374999995,
          "durationTicks": 45,
          "midi": 42,
          "name": "F#2",
          "ticks": 288,
          "time": 1.216215,
          "velocity": 0.5039370078740157
        },
        {
          "duration": 0.19003359374999995,
          "durationTicks": 45,
          "midi": 42,
          "name": "F#2",
          "ticks": 336,
          "time": 1.4189175,
          "velocity": 0.5039370078740157
        },
        {
          "duration": 0.19003359374999995,
          "durationTicks": 45,
          "midi": 42,
          "name": "F#2",
          "ticks": 384,
          "time": 1.62162,
          "velocity": 0.5039370078740157
        },
        {
          "duration": 0.19003359374999995,
          "durationTicks": 45,
          "midi": 42,
          "name": "F#2",
          "ticks": 432,
          "time": 1.8243225,
          "velocity": 0.5039370078740157
        },
        {
          "duration": 0.19003359374999995,
          "durationTicks": 45,
          "midi": 42,
          "name": "F#2",
          "ticks": 480,
          "time": 2.027025,
          "velocity": 0.5039370078740157
        },
        {
          "duration": 0.19003359374999995,
          "durationTicks": 45,
          "midi": 42,
          "name": "F#2",
          "ticks": 528,
          "time": 2.2297275,
          "velocity": 0.5039370078740157
        },
        {
          "duration": 0.050675625000000224,
          "durationTicks": 12,
          "midi": 42,
          "name": "F#2",
          "ticks": 576,
          "time": 2.43243,
          "velocity": 0.5039370078740157
        },
        {
          "duration": 0.05067562499999978,
          "durationTicks": 12,
          "midi": 42,
          "name": "F#2",
          "ticks": 588,
          "time": 2.4831056250000003,
          "velocity": 0.5039370078740157
        },
        {
          "duration": 0.09712828124999984,
          "durationTicks": 23,
          "midi": 42,
          "name": "F#2",
          "ticks": 600,
          "time": 2.53378125,
          "velocity": 0.5039370078740157
        },
        {
          "duration": 0.19003359374999995,
          "durationTicks": 45,
          "midi": 42,
          "name": "F#2",
          "ticks": 624,
          "time": 2.6351325,
          "velocity": 0.5039370078740157
        },
        {
          "duration": 0.050675625000000224,
          "durationTicks": 12,
          "midi": 42,
          "name": "F#2",
          "ticks": 672,
          "time": 2.837835,
          "velocity": 0.5039370078740157
        },
        {
          "duration": 0.05067562499999978,
          "durationTicks": 12,
          "midi": 42,
          "name": "F#2",
          "ticks": 684,
          "time": 2.8885106250000003,
          "velocity": 0.5039370078740157
        },
        {
          "duration": 0.28293890625000007,
          "durationTicks": 67,
          "midi": 42,
          "name": "F#2",
          "ticks": 696,
          "time": 2.93918625,
          "velocity": 0.5039370078740157
        },
        {
          "duration": 0.19003359374999995,
          "durationTicks": 45,
          "midi": 44,
          "name": "G#2",
          "ticks": 768,
          "time": 3.24324,
          "velocity": 0.5039370078740157
        },
        {
          "duration": 0.19003359374999995,
          "durationTicks": 45,
          "midi": 44,
          "name": "G#2",
          "ticks": 816,
          "time": 3.4459425,
          "velocity": 0.5039370078740157
        },
        {
          "duration": 0.19003359374999995,
          "durationTicks": 45,
          "midi": 44,
          "name": "G#2",
          "ticks": 864,
          "time": 3.648645,
          "velocity": 0.5039370078740157
        },
        {
          "duration": 0.19003359374999995,
          "durationTicks": 45,
          "midi": 44,
          "name": "G#2",
          "ticks": 912,
          "time": 3.8513475,
          "velocity": 0.5039370078740157
        },
        {
          "duration": 0.19003359374999995,
          "durationTicks": 45,
          "midi": 44,
          "name": "G#2",
          "ticks": 960,
          "time": 4.05405,
          "velocity": 0.5039370078740157
        },
        {
          "duration": 0.19003359374999995,
          "durationTicks": 45,
          "midi": 44,
          "name": "G#2",
          "ticks": 1008,
          "time": 4.2567525,
          "velocity": 0.5039370078740157
        },
        {
          "duration": 0.19003359374999995,
          "durationTicks": 45,
          "midi": 44,
          "name": "G#2",
          "ticks": 1056,
          "time": 4.459455,
          "velocity": 0.5039370078740157
        },
        {
          "duration": 0.19003359374999995,
          "durationTicks": 45,
          "midi": 44,
          "name": "G#2",
          "ticks": 1104,
          "time": 4.6621575,
          "velocity": 0.5039370078740157
        },
        {
          "duration": 0.19003359374999995,
          "durationTicks": 45,
          "midi": 44,
          "name": "G#2",
          "ticks": 1152,
          "time": 4.86486,
          "velocity": 0.5039370078740157
        },
        {
          "duration": 0.09712828124999984,
          "durationTicks": 23,
          "midi": 44,
          "name": "G#2",
          "ticks": 1248,
          "time": 5.270265,
          "velocity": 0.5039370078740157
        },
        {
          "duration": 0.09712828124999984,
          "durationTicks": 23,
          "midi": 44,
          "name": "G#2",
          "ticks": 1272,
          "time": 5.371616250000001,
          "velocity": 0.5039370078740157
        },
        {
          "duration": 0.19003359374999995,
          "durationTicks": 45,
          "midi": 44,
          "name": "G#2",
          "ticks": 1296,
          "time": 5.4729675,
          "velocity": 0.5039370078740157
        },
        {
          "duration": 0.19003359374999995,
          "durationTicks": 45,
          "midi": 44,
          "name": "G#2",
          "ticks": 1344,
          "time": 5.67567,
          "velocity": 0.5039370078740157
        },
        {
          "duration": 0.19003359374999995,
          "durationTicks": 45,
          "midi": 44,
          "name": "G#2",
          "ticks": 1392,
          "time": 5.8783725,
          "velocity": 0.5039370078740157
        },
        {
          "duration": 0.19003359374999995,
          "durationTicks": 45,
          "midi": 44,
          "name": "G#2",
          "ticks": 1440,
          "time": 6.081075,
          "velocity": 0.5039370078740157
        },
        {
          "duration": 0.19003359374999995,
          "durationTicks": 45,
          "midi": 44,
          "name": "G#2",
          "ticks": 1488,
          "time": 6.2837775,
          "velocity": 0.5039370078740157
        },
        {
          "duration": 0.28293890625000007,
          "durationTicks": 67,
          "midi": 44,
          "name": "G#2",
          "ticks": 1536,
          "time": 6.48648,
          "velocity": 0.5039370078740157
        },
        {
          "duration": 0.09712828124999984,
          "durationTicks": 23,
          "midi": 44,
          "name": "G#2",
          "ticks": 1608,
          "time": 6.79053375,
          "velocity": 0.5039370078740157
        },
        {
          "duration": 0.19003359374999995,
          "durationTicks": 45,
          "midi": 44,
          "name": "G#2",
          "ticks": 1632,
          "time": 6.891885,
          "velocity": 0.5039370078740157
        },
        {
          "duration": 0.19003359374999995,
          "durationTicks": 45,
          "midi": 44,
          "name": "G#2",
          "ticks": 1680,
          "time": 7.0945875,
          "velocity": 0.5039370078740157
        },
        {
          "duration": 0.09712828124999984,
          "durationTicks": 23,
          "midi": 44,
          "name": "G#2",
          "ticks": 1728,
          "time": 7.29729,
          "velocity": 0.5039370078740157
        },
        {
          "duration": 0.09712828124999895,
          "durationTicks": 23,
          "midi": 44,
          "name": "G#2",
          "ticks": 1752,
          "time": 7.398641250000001,
          "velocity": 0.5039370078740157
        },
        {
          "duration": 0.19003359374999995,
          "durationTicks": 45,
          "midi": 44,
          "name": "G#2",
          "ticks": 1776,
          "time": 7.4999925,
          "velocity": 0.5039370078740157
        },
        {
          "duration": 0.09712828124999984,
          "durationTicks": 23,
          "midi": 44,
          "name": "G#2",
          "ticks": 1824,
          "time": 7.702695,
          "velocity": 0.5039370078740157
        },
        {
          "duration": 0.09712828124999895,
          "durationTicks": 23,
          "midi": 44,
          "name": "G#2",
          "ticks": 1848,
          "time": 7.804046250000001,
          "velocity": 0.5039370078740157
        },
        {
          "duration": 0.09712828124999984,
          "durationTicks": 23,
          "midi": 44,
          "name": "G#2",
          "ticks": 1872,
          "time": 7.9053975,
          "velocity": 0.5039370078740157
        },
        {
          "duration": 0.09712828125000073,
          "durationTicks": 23,
          "midi": 44,
          "name": "G#2",
          "ticks": 1896,
          "time": 8.00674875,
          "velocity": 0.5039370078740157
        },
        {
          "duration": 0.19003359374999995,
          "durationTicks": 45,
          "midi": 44,
          "name": "G#2",
          "ticks": 1920,
          "time": 8.1081,
          "velocity": 0.5039370078740157
        },
        {
          "duration": 0.19003359374999995,
          "durationTicks": 45,
          "midi": 44,
          "name": "G#2",
          "ticks": 1968,
          "time": 8.310802500000001,
          "velocity": 0.5039370078740157
        },
        {
          "duration": 0.19003359374999995,
          "durationTicks": 45,
          "midi": 44,
          "name": "G#2",
          "ticks": 2016,
          "time": 8.513505,
          "velocity": 0.5039370078740157
        },
        {
          "duration": 0.19003359375000173,
          "durationTicks": 45,
          "midi": 44,
          "name": "G#2",
          "ticks": 2064,
          "time": 8.7162075,
          "velocity": 0.5039370078740157
        },
        {
          "duration": 0.19003359374999995,
          "durationTicks": 45,
          "midi": 44,
          "name": "G#2",
          "ticks": 2112,
          "time": 8.91891,
          "velocity": 0.5039370078740157
        },
        {
          "duration": 0.19003359374999995,
          "durationTicks": 45,
          "midi": 44,
          "name": "G#2",
          "ticks": 2160,
          "time": 9.121612500000001,
          "velocity": 0.5039370078740157
        },
        {
          "duration": 0.19003359374999995,
          "durationTicks": 45,
          "midi": 44,
          "name": "G#2",
          "ticks": 2208,
          "time": 9.324315,
          "velocity": 0.5039370078740157
        },
        {
          "duration": 0.19003359375000173,
          "durationTicks": 45,
          "midi": 44,
          "name": "G#2",
          "ticks": 2256,
          "time": 9.5270175,
          "velocity": 0.5039370078740157
        },
        {
          "duration": 0.19003359374999995,
          "durationTicks": 45,
          "midi": 44,
          "name": "G#2",
          "ticks": 2304,
          "time": 9.72972,
          "velocity": 0.5039370078740157
        },
        {
          "duration": 0.19003359374999995,
          "durationTicks": 45,
          "midi": 44,
          "name": "G#2",
          "ticks": 2352,
          "time": 9.932422500000001,
          "velocity": 0.5039370078740157
        },
        {
          "duration": 0.050675625000000224,
          "durationTicks": 12,
          "midi": 44,
          "name": "G#2",
          "ticks": 2400,
          "time": 10.135125,
          "velocity": 0.5039370078740157
        },
        {
          "duration": 0.050675625000000224,
          "durationTicks": 12,
          "midi": 44,
          "name": "G#2",
          "ticks": 2412,
          "time": 10.185800625,
          "velocity": 0.5039370078740157
        },
        {
          "duration": 0.050675625000000224,
          "durationTicks": 12,
          "midi": 44,
          "name": "G#2",
          "ticks": 2424,
          "time": 10.23647625,
          "velocity": 0.5039370078740157
        },
        {
          "duration": 0.05067562499999845,
          "durationTicks": 12,
          "midi": 44,
          "name": "G#2",
          "ticks": 2436,
          "time": 10.287151875000001,
          "velocity": 0.5039370078740157
        },
        {
          "duration": 0.050675625000000224,
          "durationTicks": 12,
          "midi": 44,
          "name": "G#2",
          "ticks": 2448,
          "time": 10.3378275,
          "velocity": 0.5039370078740157
        },
        {
          "duration": 0.050675625000000224,
          "durationTicks": 12,
          "midi": 44,
          "name": "G#2",
          "ticks": 2460,
          "time": 10.388503125,
          "velocity": 0.5039370078740157
        },
        {
          "duration": 0.12668906250000056,
          "durationTicks": 30,
          "midi": 44,
          "name": "G#2",
          "ticks": 2496,
          "time": 10.54053,
          "velocity": 0.5039370078740157
        },
        {
          "duration": 0.12668906249999878,
          "durationTicks": 30,
          "midi": 44,
          "name": "G#2",
          "ticks": 2528,
          "time": 10.675665,
          "velocity": 0.5039370078740157
        },
        {
          "duration": 0.12668906250000056,
          "durationTicks": 30,
          "midi": 44,
          "name": "G#2",
          "ticks": 2560,
          "time": 10.8108,
          "velocity": 0.5039370078740157
        },
        {
          "duration": 0.19003359374999995,
          "durationTicks": 45,
          "midi": 44,
          "name": "G#2",
          "ticks": 2592,
          "time": 10.945935,
          "velocity": 0.5039370078740157
        },
        {
          "duration": 0.19003359375000173,
          "durationTicks": 45,
          "midi": 44,
          "name": "G#2",
          "ticks": 2640,
          "time": 11.1486375,
          "velocity": 0.5039370078740157
        },
        {
          "duration": 0.19003359374999995,
          "durationTicks": 45,
          "midi": 44,
          "name": "G#2",
          "ticks": 2688,
          "time": 11.35134,
          "velocity": 0.5039370078740157
        },
        {
          "duration": 0.19003359374999995,
          "durationTicks": 45,
          "midi": 44,
          "name": "G#2",
          "ticks": 2736,
          "time": 11.554042500000001,
          "velocity": 0.5039370078740157
        },
        {
          "duration": 0.19003359374999995,
          "durationTicks": 45,
          "midi": 44,
          "name": "G#2",
          "ticks": 2784,
          "time": 11.756745,
          "velocity": 0.5039370078740157
        },
        {
          "duration": 0.19003359375000173,
          "durationTicks": 45,
          "midi": 44,
          "name": "G#2",
          "ticks": 2832,
          "time": 11.9594475,
          "velocity": 0.5039370078740157
        },
        {
          "duration": 0.19003359374999995,
          "durationTicks": 45,
          "midi": 44,
          "name": "G#2",
          "ticks": 2880,
          "time": 12.16215,
          "velocity": 0.5039370078740157
        },
        {
          "duration": 0.19003359374999995,
          "durationTicks": 45,
          "midi": 44,
          "name": "G#2",
          "ticks": 2928,
          "time": 12.364852500000001,
          "velocity": 0.5039370078740157
        },
        {
          "duration": 0.19003359374999995,
          "durationTicks": 45,
          "midi": 44,
          "name": "G#2",
          "ticks": 2976,
          "time": 12.567555,
          "velocity": 0.5039370078740157
        },
        {
          "duration": 0.19003359375000173,
          "durationTicks": 45,
          "midi": 44,
          "name": "G#2",
          "ticks": 3024,
          "time": 12.7702575,
          "velocity": 0.5039370078740157
        },
        {
          "duration": 0.19003359374999995,
          "durationTicks": 45,
          "midi": 44,
          "name": "G#2",
          "ticks": 3072,
          "time": 12.97296,
          "velocity": 0.5039370078740157
        },
        {
          "duration": 0.19003359374999995,
          "durationTicks": 45,
          "midi": 44,
          "name": "G#2",
          "ticks": 3120,
          "time": 13.175662500000001,
          "velocity": 0.5039370078740157
        },
        {
          "duration": 0.19003359374999995,
          "durationTicks": 45,
          "midi": 44,
          "name": "G#2",
          "ticks": 3168,
          "time": 13.378365,
          "velocity": 0.5039370078740157
        },
        {
          "duration": 0.19003359375000173,
          "durationTicks": 45,
          "midi": 44,
          "name": "G#2",
          "ticks": 3216,
          "time": 13.5810675,
          "velocity": 0.5039370078740157
        },
        {
          "duration": 0.19003359374999995,
          "durationTicks": 45,
          "midi": 44,
          "name": "G#2",
          "ticks": 3264,
          "time": 13.78377,
          "velocity": 0.5039370078740157
        },
        {
          "duration": 0.19003359374999995,
          "durationTicks": 45,
          "midi": 44,
          "name": "G#2",
          "ticks": 3312,
          "time": 13.986472500000001,
          "velocity": 0.5039370078740157
        },
        {
          "duration": 0.19003359374999995,
          "durationTicks": 45,
          "midi": 44,
          "name": "G#2",
          "ticks": 3360,
          "time": 14.189175,
          "velocity": 0.5039370078740157
        },
        {
          "duration": 0.19003359375000173,
          "durationTicks": 45,
          "midi": 44,
          "name": "G#2",
          "ticks": 3408,
          "time": 14.3918775,
          "velocity": 0.5039370078740157
        },
        {
          "duration": 0.19003359374999995,
          "durationTicks": 45,
          "midi": 44,
          "name": "G#2",
          "ticks": 3456,
          "time": 14.59458,
          "velocity": 0.5039370078740157
        },
        {
          "duration": 0.19003359374999995,
          "durationTicks": 45,
          "midi": 44,
          "name": "G#2",
          "ticks": 3504,
          "time": 14.797282500000001,
          "velocity": 0.5039370078740157
        },
        {
          "duration": 0.19003359374999995,
          "durationTicks": 45,
          "midi": 44,
          "name": "G#2",
          "ticks": 3552,
          "time": 14.999985,
          "velocity": 0.5039370078740157
        },
        {
          "duration": 0.19003359375000173,
          "durationTicks": 45,
          "midi": 44,
          "name": "G#2",
          "ticks": 3600,
          "time": 15.2026875,
          "velocity": 0.5039370078740157
        },
        {
          "duration": 0.19003359374999995,
          "durationTicks": 45,
          "midi": 44,
          "name": "G#2",
          "ticks": 3648,
          "time": 15.40539,
          "velocity": 0.5039370078740157
        },
        {
          "duration": 0.19003359374999995,
          "durationTicks": 45,
          "midi": 44,
          "name": "G#2",
          "ticks": 3696,
          "time": 15.608092500000001,
          "velocity": 0.5039370078740157
        },
        {
          "duration": 0.19003359374999995,
          "durationTicks": 45,
          "midi": 44,
          "name": "G#2",
          "ticks": 3744,
          "time": 15.810795,
          "velocity": 0.5039370078740157
        },
        {
          "duration": 0.19003359375000173,
          "durationTicks": 45,
          "midi": 44,
          "name": "G#2",
          "ticks": 3792,
          "time": 16.0134975,
          "velocity": 0.5039370078740157
        },
        {
          "duration": 0.19003359375000173,
          "durationTicks": 45,
          "midi": 44,
          "name": "G#2",
          "ticks": 3840,
          "time": 16.2162,
          "velocity": 0.5039370078740157
        },
        {
          "duration": 0.19003359374999818,
          "durationTicks": 45,
          "midi": 44,
          "name": "G#2",
          "ticks": 3888,
          "time": 16.4189025,
          "velocity": 0.5039370078740157
        },
        {
          "duration": 0.19003359374999818,
          "durationTicks": 45,
          "midi": 44,
          "name": "G#2",
          "ticks": 3936,
          "time": 16.621605000000002,
          "velocity": 0.5039370078740157
        },
        {
          "duration": 0.19003359375000173,
          "durationTicks": 45,
          "midi": 44,
          "name": "G#2",
          "ticks": 3984,
          "time": 16.8243075,
          "velocity": 0.5039370078740157
        },
        {
          "duration": 0.19003359375000173,
          "durationTicks": 45,
          "midi": 44,
          "name": "G#2",
          "ticks": 4032,
          "time": 17.02701,
          "velocity": 0.5039370078740157
        },
        {
          "duration": 0.19003359374999818,
          "durationTicks": 45,
          "midi": 44,
          "name": "G#2",
          "ticks": 4080,
          "time": 17.2297125,
          "velocity": 0.5039370078740157
        },
        {
          "duration": 0.19003359375000173,
          "durationTicks": 45,
          "midi": 44,
          "name": "G#2",
          "ticks": 4128,
          "time": 17.432415,
          "velocity": 0.5039370078740157
        },
        {
          "duration": 0.19003359375000173,
          "durationTicks": 45,
          "midi": 44,
          "name": "G#2",
          "ticks": 4176,
          "time": 17.6351175,
          "velocity": 0.5039370078740157
        },
        {
          "duration": 0.09712828125000073,
          "durationTicks": 23,
          "midi": 44,
          "name": "G#2",
          "ticks": 4224,
          "time": 17.83782,
          "velocity": 0.5039370078740157
        },
        {
          "duration": 0.09712828125000073,
          "durationTicks": 23,
          "midi": 44,
          "name": "G#2",
          "ticks": 4248,
          "time": 17.93917125,
          "velocity": 0.5039370078740157
        },
        {
          "duration": 0.19003359374999818,
          "durationTicks": 45,
          "midi": 44,
          "name": "G#2",
          "ticks": 4272,
          "time": 18.0405225,
          "velocity": 0.5039370078740157
        },
        {
          "duration": 0.19003359374999818,
          "durationTicks": 45,
          "midi": 44,
          "name": "G#2",
          "ticks": 4320,
          "time": 18.243225000000002,
          "velocity": 0.5039370078740157
        },
        {
          "duration": 0.19003359375000173,
          "durationTicks": 45,
          "midi": 44,
          "name": "G#2",
          "ticks": 4368,
          "time": 18.4459275,
          "velocity": 0.5039370078740157
        },
        {
          "duration": 0.19003359375000173,
          "durationTicks": 45,
          "midi": 44,
          "name": "G#2",
          "ticks": 4416,
          "time": 18.64863,
          "velocity": 0.5039370078740157
        },
        {
          "duration": 0.19003359374999818,
          "durationTicks": 45,
          "midi": 44,
          "name": "G#2",
          "ticks": 4464,
          "time": 18.8513325,
          "velocity": 0.5039370078740157
        },
        {
          "duration": 0.19003359375000173,
          "durationTicks": 45,
          "midi": 44,
          "name": "G#2",
          "ticks": 4512,
          "time": 19.054035,
          "velocity": 0.5039370078740157
        },
        {
          "duration": 0.19003359375000173,
          "durationTicks": 45,
          "midi": 44,
          "name": "G#2",
          "ticks": 4560,
          "time": 19.2567375,
          "velocity": 0.5039370078740157
        },
        {
          "duration": 0.19003359375000173,
          "durationTicks": 45,
          "midi": 44,
          "name": "G#2",
          "ticks": 4608,
          "time": 19.45944,
          "velocity": 0.5039370078740157
        },
        {
          "duration": 0.19003359374999818,
          "durationTicks": 45,
          "midi": 44,
          "name": "G#2",
          "ticks": 4656,
          "time": 19.6621425,
          "velocity": 0.5039370078740157
        },
        {
          "duration": 0.09712828125000073,
          "durationTicks": 23,
          "midi": 44,
          "name": "G#2",
          "ticks": 4704,
          "time": 19.864845000000003,
          "velocity": 0.5039370078740157
        },
        {
          "duration": 0.050675625000000224,
          "durationTicks": 12,
          "midi": 44,
          "name": "G#2",
          "ticks": 4728,
          "time": 19.96619625,
          "velocity": 0.5039370078740157
        },
        {
          "duration": 0.050675625000000224,
          "durationTicks": 12,
          "midi": 44,
          "name": "G#2",
          "ticks": 4740,
          "time": 20.016871875,
          "velocity": 0.5039370078740157
        },
        {
          "duration": 0.09712828125000073,
          "durationTicks": 23,
          "midi": 44,
          "name": "G#2",
          "ticks": 4752,
          "time": 20.0675475,
          "velocity": 0.5039370078740157
        },
        {
          "duration": 0.050675625000000224,
          "durationTicks": 12,
          "midi": 44,
          "name": "G#2",
          "ticks": 4776,
          "time": 20.16889875,
          "velocity": 0.5039370078740157
        },
        {
          "duration": 0.050675625000000224,
          "durationTicks": 12,
          "midi": 44,
          "name": "G#2",
          "ticks": 4788,
          "time": 20.219574375,
          "velocity": 0.5039370078740157
        },
        {
          "duration": 0.19003359375000173,
          "durationTicks": 45,
          "midi": 44,
          "name": "G#2",
          "ticks": 4800,
          "time": 20.27025,
          "velocity": 0.5039370078740157
        },
        {
          "duration": 0.09712828125000073,
          "durationTicks": 23,
          "midi": 44,
          "name": "G#2",
          "ticks": 4848,
          "time": 20.4729525,
          "velocity": 0.5039370078740157
        },
        {
          "duration": 0.09712828125000073,
          "durationTicks": 23,
          "midi": 44,
          "name": "G#2",
          "ticks": 4872,
          "time": 20.574303750000002,
          "velocity": 0.5039370078740157
        },
        {
          "duration": 0.19003359375000173,
          "durationTicks": 45,
          "midi": 44,
          "name": "G#2",
          "ticks": 4896,
          "time": 20.675655,
          "velocity": 0.5039370078740157
        },
        {
          "duration": 0.19003359375000173,
          "durationTicks": 45,
          "midi": 44,
          "name": "G#2",
          "ticks": 4944,
          "time": 20.8783575,
          "velocity": 0.5039370078740157
        },
        {
          "duration": 0.3758442187500002,
          "durationTicks": 89,
          "midi": 44,
          "name": "G#2",
          "ticks": 5088,
          "time": 21.486465000000003,
          "velocity": 0.5039370078740157
        },
        {
          "duration": 0.050675625000000224,
          "durationTicks": 12,
          "midi": 44,
          "name": "G#2",
          "ticks": 5184,
          "time": 21.89187,
          "velocity": 0.5039370078740157
        },
        {
          "duration": 0.050675625000000224,
          "durationTicks": 12,
          "midi": 44,
          "name": "G#2",
          "ticks": 5196,
          "time": 21.942545625,
          "velocity": 0.5039370078740157
        },
        {
          "duration": 0.050675625000000224,
          "durationTicks": 12,
          "midi": 44,
          "name": "G#2",
          "ticks": 5220,
          "time": 22.043896875,
          "velocity": 0.5039370078740157
        },
        {
          "duration": 0.050675625000000224,
          "durationTicks": 12,
          "midi": 44,
          "name": "G#2",
          "ticks": 5244,
          "time": 22.145248125000002,
          "velocity": 0.5039370078740157
        },
        {
          "duration": 0.05067562499999667,
          "durationTicks": 12,
          "midi": 44,
          "name": "G#2",
          "ticks": 5268,
          "time": 22.246599375000002,
          "velocity": 0.5039370078740157
        },
        {
          "duration": 0.19003359375000173,
          "durationTicks": 45,
          "midi": 44,
          "name": "G#2",
          "ticks": 5280,
          "time": 22.297275,
          "velocity": 0.5039370078740157
        },
        {
          "duration": 0.19003359375000173,
          "durationTicks": 45,
          "midi": 44,
          "name": "G#2",
          "ticks": 5328,
          "time": 22.4999775,
          "velocity": 0.5039370078740157
        },
        {
          "duration": 0.19003359375000173,
          "durationTicks": 45,
          "midi": 44,
          "name": "G#2",
          "ticks": 5376,
          "time": 22.70268,
          "velocity": 0.5039370078740157
        },
        {
          "duration": 0.19003359374999818,
          "durationTicks": 45,
          "midi": 44,
          "name": "G#2",
          "ticks": 5424,
          "time": 22.9053825,
          "velocity": 0.5039370078740157
        },
        {
          "duration": 0.19003359374999818,
          "durationTicks": 45,
          "midi": 44,
          "name": "G#2",
          "ticks": 5472,
          "time": 23.108085000000003,
          "velocity": 0.5039370078740157
        },
        {
          "duration": 0.19003359375000173,
          "durationTicks": 45,
          "midi": 44,
          "name": "G#2",
          "ticks": 5520,
          "time": 23.3107875,
          "velocity": 0.5039370078740157
        },
        {
          "duration": 0.19003359375000173,
          "durationTicks": 45,
          "midi": 44,
          "name": "G#2",
          "ticks": 5568,
          "time": 23.51349,
          "velocity": 0.5039370078740157
        },
        {
          "duration": 0.19003359374999818,
          "durationTicks": 45,
          "midi": 44,
          "name": "G#2",
          "ticks": 5616,
          "time": 23.716192500000002,
          "velocity": 0.5039370078740157
        },
        {
          "duration": 0.19003359375000173,
          "durationTicks": 45,
          "midi": 44,
          "name": "G#2",
          "ticks": 5664,
          "time": 23.918895,
          "velocity": 0.5039370078740157
        },
        {
          "duration": 0.19003359375000173,
          "durationTicks": 45,
          "midi": 44,
          "name": "G#2",
          "ticks": 5712,
          "time": 24.1215975,
          "velocity": 0.5039370078740157
        },
        {
          "duration": 0.19003359374999818,
          "durationTicks": 45,
          "midi": 44,
          "name": "G#2",
          "ticks": 5808,
          "time": 24.527002500000002,
          "velocity": 0.5039370078740157
        },
        {
          "duration": 0.19003359374999818,
          "durationTicks": 45,
          "midi": 44,
          "name": "G#2",
          "ticks": 5856,
          "time": 24.729705000000003,
          "velocity": 0.5039370078740157
        },
        {
          "duration": 0.28293890625000273,
          "durationTicks": 67,
          "midi": 44,
          "name": "G#2",
          "ticks": 6144,
          "time": 25.94592,
          "velocity": 0.5039370078740157
        },
        {
          "duration": 0.09712828124999717,
          "durationTicks": 23,
          "midi": 44,
          "name": "G#2",
          "ticks": 6216,
          "time": 26.249973750000002,
          "velocity": 0.5039370078740157
        },
        {
          "duration": 0.19003359374999818,
          "durationTicks": 45,
          "midi": 44,
          "name": "G#2",
          "ticks": 6240,
          "time": 26.351325000000003,
          "velocity": 0.5039370078740157
        },
        {
          "duration": 0.19003359375000173,
          "durationTicks": 45,
          "midi": 44,
          "name": "G#2",
          "ticks": 6288,
          "time": 26.5540275,
          "velocity": 0.5039370078740157
        },
        {
          "duration": 0.09712828124999717,
          "durationTicks": 23,
          "midi": 44,
          "name": "G#2",
          "ticks": 6336,
          "time": 26.75673,
          "velocity": 0.5039370078740157
        },
        {
          "duration": 0.09712828124999717,
          "durationTicks": 23,
          "midi": 44,
          "name": "G#2",
          "ticks": 6360,
          "time": 26.85808125,
          "velocity": 0.5039370078740157
        },
        {
          "duration": 0.09712828124999717,
          "durationTicks": 23,
          "midi": 44,
          "name": "G#2",
          "ticks": 6384,
          "time": 26.959432500000002,
          "velocity": 0.5039370078740157
        },
        {
          "duration": 0.09712828124999717,
          "durationTicks": 23,
          "midi": 44,
          "name": "G#2",
          "ticks": 6408,
          "time": 27.060783750000002,
          "velocity": 0.5039370078740157
        },
        {
          "duration": 0.09712828125000073,
          "durationTicks": 23,
          "midi": 44,
          "name": "G#2",
          "ticks": 6432,
          "time": 27.162135,
          "velocity": 0.5039370078740157
        },
        {
          "duration": 0.09712828125000073,
          "durationTicks": 23,
          "midi": 44,
          "name": "G#2",
          "ticks": 6456,
          "time": 27.26348625,
          "velocity": 0.5039370078740157
        },
        {
          "duration": 0.09712828125000073,
          "durationTicks": 23,
          "midi": 44,
          "name": "G#2",
          "ticks": 6480,
          "time": 27.3648375,
          "velocity": 0.5039370078740157
        },
        {
          "duration": 0.09712828124999717,
          "durationTicks": 23,
          "midi": 44,
          "name": "G#2",
          "ticks": 6504,
          "time": 27.46618875,
          "velocity": 0.5039370078740157
        },
        {
          "duration": 0.19003359375000173,
          "durationTicks": 45,
          "midi": 44,
          "name": "G#2",
          "ticks": 6528,
          "time": 27.56754,
          "velocity": 0.5039370078740157
        },
        {
          "duration": 0.19003359374999818,
          "durationTicks": 45,
          "midi": 44,
          "name": "G#2",
          "ticks": 6576,
          "time": 27.770242500000002,
          "velocity": 0.5039370078740157
        },
        {
          "duration": 0.19003359374999818,
          "durationTicks": 45,
          "midi": 44,
          "name": "G#2",
          "ticks": 6624,
          "time": 27.972945000000003,
          "velocity": 0.5039370078740157
        },
        {
          "duration": 0.19003359375000173,
          "durationTicks": 45,
          "midi": 44,
          "name": "G#2",
          "ticks": 6672,
          "time": 28.1756475,
          "velocity": 0.5039370078740157
        },
        {
          "duration": 0.19003359375000173,
          "durationTicks": 45,
          "midi": 44,
          "name": "G#2",
          "ticks": 6720,
          "time": 28.37835,
          "velocity": 0.5039370078740157
        },
        {
          "duration": 0.19003359374999818,
          "durationTicks": 45,
          "midi": 44,
          "name": "G#2",
          "ticks": 6768,
          "time": 28.581052500000002,
          "velocity": 0.5039370078740157
        },
        {
          "duration": 0.19003359375000173,
          "durationTicks": 45,
          "midi": 44,
          "name": "G#2",
          "ticks": 6816,
          "time": 28.783755,
          "velocity": 0.5039370078740157
        },
        {
          "duration": 0.19003359375000173,
          "durationTicks": 45,
          "midi": 44,
          "name": "G#2",
          "ticks": 6864,
          "time": 28.9864575,
          "velocity": 0.5039370078740157
        },
        {
          "duration": 0.28293890625000273,
          "durationTicks": 67,
          "midi": 44,
          "name": "G#2",
          "ticks": 6912,
          "time": 29.18916,
          "velocity": 0.5039370078740157
        },
        {
          "duration": 0.09712828124999717,
          "durationTicks": 23,
          "midi": 44,
          "name": "G#2",
          "ticks": 6984,
          "time": 29.493213750000002,
          "velocity": 0.5039370078740157
        },
        {
          "duration": 0.19003359374999818,
          "durationTicks": 45,
          "midi": 44,
          "name": "G#2",
          "ticks": 7008,
          "time": 29.594565000000003,
          "velocity": 0.5039370078740157
        },
        {
          "duration": 0.19003359375000173,
          "durationTicks": 45,
          "midi": 44,
          "name": "G#2",
          "ticks": 7056,
          "time": 29.7972675,
          "velocity": 0.5039370078740157
        },
        {
          "duration": 0.09712828124999717,
          "durationTicks": 23,
          "midi": 44,
          "name": "G#2",
          "ticks": 7104,
          "time": 29.99997,
          "velocity": 0.5039370078740157
        },
        {
          "duration": 0.09712828124999717,
          "durationTicks": 23,
          "midi": 44,
          "name": "G#2",
          "ticks": 7128,
          "time": 30.10132125,
          "velocity": 0.5039370078740157
        },
        {
          "duration": 0.09712828124999717,
          "durationTicks": 23,
          "midi": 44,
          "name": "G#2",
          "ticks": 7152,
          "time": 30.202672500000002,
          "velocity": 0.5039370078740157
        },
        {
          "duration": 0.09712828124999717,
          "durationTicks": 23,
          "midi": 44,
          "name": "G#2",
          "ticks": 7176,
          "time": 30.304023750000002,
          "velocity": 0.5039370078740157
        },
        {
          "duration": 0.09712828125000073,
          "durationTicks": 23,
          "midi": 44,
          "name": "G#2",
          "ticks": 7200,
          "time": 30.405375,
          "velocity": 0.5039370078740157
        },
        {
          "duration": 0.09712828125000073,
          "durationTicks": 23,
          "midi": 44,
          "name": "G#2",
          "ticks": 7224,
          "time": 30.50672625,
          "velocity": 0.5039370078740157
        },
        {
          "duration": 0.09712828125000073,
          "durationTicks": 23,
          "midi": 44,
          "name": "G#2",
          "ticks": 7248,
          "time": 30.6080775,
          "velocity": 0.5039370078740157
        },
        {
          "duration": 0.09712828124999717,
          "durationTicks": 23,
          "midi": 44,
          "name": "G#2",
          "ticks": 7272,
          "time": 30.70942875,
          "velocity": 0.5039370078740157
        },
        {
          "duration": 0.19003359375000173,
          "durationTicks": 45,
          "midi": 44,
          "name": "G#2",
          "ticks": 7296,
          "time": 30.81078,
          "velocity": 0.5039370078740157
        },
        {
          "duration": 0.19003359374999818,
          "durationTicks": 45,
          "midi": 44,
          "name": "G#2",
          "ticks": 7344,
          "time": 31.013482500000002,
          "velocity": 0.5039370078740157
        },
        {
          "duration": 0.19003359374999818,
          "durationTicks": 45,
          "midi": 44,
          "name": "G#2",
          "ticks": 7392,
          "time": 31.216185000000003,
          "velocity": 0.5039370078740157
        },
        {
          "duration": 0.19003359375000173,
          "durationTicks": 45,
          "midi": 44,
          "name": "G#2",
          "ticks": 7440,
          "time": 31.4188875,
          "velocity": 0.5039370078740157
        },
        {
          "duration": 0.19003359375000173,
          "durationTicks": 45,
          "midi": 44,
          "name": "G#2",
          "ticks": 7488,
          "time": 31.62159,
          "velocity": 0.5039370078740157
        },
        {
          "duration": 0.19003359374999818,
          "durationTicks": 45,
          "midi": 44,
          "name": "G#2",
          "ticks": 7536,
          "time": 31.824292500000002,
          "velocity": 0.5039370078740157
        },
        {
          "duration": 0.19003359375000173,
          "durationTicks": 45,
          "midi": 44,
          "name": "G#2",
          "ticks": 7584,
          "time": 32.026995,
          "velocity": 0.5039370078740157
        },
        {
          "duration": 0.19003359375000173,
          "durationTicks": 45,
          "midi": 44,
          "name": "G#2",
          "ticks": 7632,
          "time": 32.2296975,
          "velocity": 0.5039370078740157
        },
        {
          "duration": 0.28293890625000273,
          "durationTicks": 67,
          "midi": 44,
          "name": "G#2",
          "ticks": 7680,
          "time": 32.4324,
          "velocity": 0.5039370078740157
        },
        {
          "duration": 0.09712828124999362,
          "durationTicks": 23,
          "midi": 44,
          "name": "G#2",
          "ticks": 7752,
          "time": 32.73645375,
          "velocity": 0.5039370078740157
        },
        {
          "duration": 0.19003359375000173,
          "durationTicks": 45,
          "midi": 44,
          "name": "G#2",
          "ticks": 7776,
          "time": 32.837805,
          "velocity": 0.5039370078740157
        },
        {
          "duration": 0.19003359374999462,
          "durationTicks": 45,
          "midi": 44,
          "name": "G#2",
          "ticks": 7824,
          "time": 33.040507500000004,
          "velocity": 0.5039370078740157
        },
        {
          "duration": 0.09712828124999362,
          "durationTicks": 23,
          "midi": 44,
          "name": "G#2",
          "ticks": 7872,
          "time": 33.243210000000005,
          "velocity": 0.5039370078740157
        },
        {
          "duration": 0.09712828125000073,
          "durationTicks": 23,
          "midi": 44,
          "name": "G#2",
          "ticks": 7896,
          "time": 33.34456125,
          "velocity": 0.5039370078740157
        },
        {
          "duration": 0.09712828125000073,
          "durationTicks": 23,
          "midi": 44,
          "name": "G#2",
          "ticks": 7920,
          "time": 33.4459125,
          "velocity": 0.5039370078740157
        },
        {
          "duration": 0.09712828125000073,
          "durationTicks": 23,
          "midi": 44,
          "name": "G#2",
          "ticks": 7944,
          "time": 33.54726375,
          "velocity": 0.5039370078740157
        },
        {
          "duration": 0.09712828125000073,
          "durationTicks": 23,
          "midi": 44,
          "name": "G#2",
          "ticks": 7968,
          "time": 33.648615,
          "velocity": 0.5039370078740157
        },
        {
          "duration": 0.09712828125000073,
          "durationTicks": 23,
          "midi": 44,
          "name": "G#2",
          "ticks": 7992,
          "time": 33.74996625,
          "velocity": 0.5039370078740157
        },
        {
          "duration": 0.09712828125000073,
          "durationTicks": 23,
          "midi": 44,
          "name": "G#2",
          "ticks": 8016,
          "time": 33.8513175,
          "velocity": 0.5039370078740157
        },
        {
          "duration": 0.09712828125000073,
          "durationTicks": 23,
          "midi": 44,
          "name": "G#2",
          "ticks": 8040,
          "time": 33.95266875,
          "velocity": 0.5039370078740157
        },
        {
          "duration": 0.19003359375000173,
          "durationTicks": 45,
          "midi": 44,
          "name": "G#2",
          "ticks": 8064,
          "time": 34.05402,
          "velocity": 0.5039370078740157
        },
        {
          "duration": 0.19003359375000173,
          "durationTicks": 45,
          "midi": 44,
          "name": "G#2",
          "ticks": 8112,
          "time": 34.2567225,
          "velocity": 0.5039370078740157
        },
        {
          "duration": 0.19003359375000173,
          "durationTicks": 45,
          "midi": 44,
          "name": "G#2",
          "ticks": 8160,
          "time": 34.459425,
          "velocity": 0.5039370078740157
        },
        {
          "duration": 0.19003359374999462,
          "durationTicks": 45,
          "midi": 44,
          "name": "G#2",
          "ticks": 8208,
          "time": 34.662127500000004,
          "velocity": 0.5039370078740157
        },
        {
          "duration": 0.19003359375000173,
          "durationTicks": 45,
          "midi": 44,
          "name": "G#2",
          "ticks": 8256,
          "time": 34.86483,
          "velocity": 0.5039370078740157
        },
        {
          "duration": 0.19003359375000173,
          "durationTicks": 45,
          "midi": 44,
          "name": "G#2",
          "ticks": 8304,
          "time": 35.0675325,
          "velocity": 0.5039370078740157
        },
        {
          "duration": 0.19003359375000173,
          "durationTicks": 45,
          "midi": 44,
          "name": "G#2",
          "ticks": 8352,
          "time": 35.270235,
          "velocity": 0.5039370078740157
        },
        {
          "duration": 0.19003359375000173,
          "durationTicks": 45,
          "midi": 44,
          "name": "G#2",
          "ticks": 8400,
          "time": 35.4729375,
          "velocity": 0.5039370078740157
        },
        {
          "duration": 0.28293890625000273,
          "durationTicks": 67,
          "midi": 44,
          "name": "G#2",
          "ticks": 8448,
          "time": 35.67564,
          "velocity": 0.5039370078740157
        },
        {
          "duration": 0.09712828124999362,
          "durationTicks": 23,
          "midi": 44,
          "name": "G#2",
          "ticks": 8520,
          "time": 35.97969375,
          "velocity": 0.5039370078740157
        },
        {
          "duration": 0.19003359375000173,
          "durationTicks": 45,
          "midi": 44,
          "name": "G#2",
          "ticks": 8544,
          "time": 36.081045,
          "velocity": 0.5039370078740157
        },
        {
          "duration": 0.19003359374999462,
          "durationTicks": 45,
          "midi": 44,
          "name": "G#2",
          "ticks": 8592,
          "time": 36.283747500000004,
          "velocity": 0.5039370078740157
        },
        {
          "duration": 0.09712828124999362,
          "durationTicks": 23,
          "midi": 44,
          "name": "G#2",
          "ticks": 8640,
          "time": 36.486450000000005,
          "velocity": 0.5039370078740157
        },
        {
          "duration": 0.09712828125000073,
          "durationTicks": 23,
          "midi": 44,
          "name": "G#2",
          "ticks": 8664,
          "time": 36.58780125,
          "velocity": 0.5039370078740157
        },
        {
          "duration": 0.09712828125000073,
          "durationTicks": 23,
          "midi": 44,
          "name": "G#2",
          "ticks": 8688,
          "time": 36.6891525,
          "velocity": 0.5039370078740157
        },
        {
          "duration": 0.09712828125000073,
          "durationTicks": 23,
          "midi": 44,
          "name": "G#2",
          "ticks": 8712,
          "time": 36.79050375,
          "velocity": 0.5039370078740157
        },
        {
          "duration": 0.09712828125000073,
          "durationTicks": 23,
          "midi": 44,
          "name": "G#2",
          "ticks": 8736,
          "time": 36.891855,
          "velocity": 0.5039370078740157
        },
        {
          "duration": 0.09712828125000073,
          "durationTicks": 23,
          "midi": 44,
          "name": "G#2",
          "ticks": 8760,
          "time": 36.99320625,
          "velocity": 0.5039370078740157
        },
        {
          "duration": 0.09712828125000073,
          "durationTicks": 23,
          "midi": 44,
          "name": "G#2",
          "ticks": 8784,
          "time": 37.0945575,
          "velocity": 0.5039370078740157
        },
        {
          "duration": 0.09712828125000073,
          "durationTicks": 23,
          "midi": 44,
          "name": "G#2",
          "ticks": 8808,
          "time": 37.19590875,
          "velocity": 0.5039370078740157
        },
        {
          "duration": 0.19003359375000173,
          "durationTicks": 45,
          "midi": 44,
          "name": "G#2",
          "ticks": 8832,
          "time": 37.29726,
          "velocity": 0.5039370078740157
        },
        {
          "duration": 0.19003359375000173,
          "durationTicks": 45,
          "midi": 44,
          "name": "G#2",
          "ticks": 8880,
          "time": 37.4999625,
          "velocity": 0.5039370078740157
        },
        {
          "duration": 0.19003359375000173,
          "durationTicks": 45,
          "midi": 44,
          "name": "G#2",
          "ticks": 8928,
          "time": 37.702665,
          "velocity": 0.5039370078740157
        },
        {
          "duration": 0.19003359374999462,
          "durationTicks": 45,
          "midi": 44,
          "name": "G#2",
          "ticks": 8976,
          "time": 37.905367500000004,
          "velocity": 0.5039370078740157
        },
        {
          "duration": 0.19003359375000173,
          "durationTicks": 45,
          "midi": 44,
          "name": "G#2",
          "ticks": 9024,
          "time": 38.10807,
          "velocity": 0.5039370078740157
        },
        {
          "duration": 0.19003359375000173,
          "durationTicks": 45,
          "midi": 44,
          "name": "G#2",
          "ticks": 9072,
          "time": 38.3107725,
          "velocity": 0.5039370078740157
        },
        {
          "duration": 0.19003359375000173,
          "durationTicks": 45,
          "midi": 44,
          "name": "G#2",
          "ticks": 9120,
          "time": 38.513475,
          "velocity": 0.5039370078740157
        },
        {
          "duration": 0.19003359375000173,
          "durationTicks": 45,
          "midi": 44,
          "name": "G#2",
          "ticks": 9168,
          "time": 38.7161775,
          "velocity": 0.5039370078740157
        },
        {
          "duration": 0.28293890625000273,
          "durationTicks": 67,
          "midi": 44,
          "name": "G#2",
          "ticks": 9216,
          "time": 38.91888,
          "velocity": 0.5039370078740157
        },
        {
          "duration": 0.09712828124999362,
          "durationTicks": 23,
          "midi": 44,
          "name": "G#2",
          "ticks": 9288,
          "time": 39.22293375,
          "velocity": 0.5039370078740157
        },
        {
          "duration": 0.19003359375000173,
          "durationTicks": 45,
          "midi": 44,
          "name": "G#2",
          "ticks": 9312,
          "time": 39.324285,
          "velocity": 0.5039370078740157
        },
        {
          "duration": 0.19003359374999462,
          "durationTicks": 45,
          "midi": 44,
          "name": "G#2",
          "ticks": 9360,
          "time": 39.526987500000004,
          "velocity": 0.5039370078740157
        },
        {
          "duration": 0.09712828124999362,
          "durationTicks": 23,
          "midi": 44,
          "name": "G#2",
          "ticks": 9408,
          "time": 39.729690000000005,
          "velocity": 0.5039370078740157
        },
        {
          "duration": 0.09712828125000073,
          "durationTicks": 23,
          "midi": 44,
          "name": "G#2",
          "ticks": 9432,
          "time": 39.83104125,
          "velocity": 0.5039370078740157
        },
        {
          "duration": 0.09712828125000073,
          "durationTicks": 23,
          "midi": 44,
          "name": "G#2",
          "ticks": 9456,
          "time": 39.9323925,
          "velocity": 0.5039370078740157
        },
        {
          "duration": 0.09712828125000073,
          "durationTicks": 23,
          "midi": 44,
          "name": "G#2",
          "ticks": 9480,
          "time": 40.03374375,
          "velocity": 0.5039370078740157
        },
        {
          "duration": 0.09712828125000073,
          "durationTicks": 23,
          "midi": 44,
          "name": "G#2",
          "ticks": 9504,
          "time": 40.135095,
          "velocity": 0.5039370078740157
        },
        {
          "duration": 0.09712828125000073,
          "durationTicks": 23,
          "midi": 44,
          "name": "G#2",
          "ticks": 9528,
          "time": 40.23644625,
          "velocity": 0.5039370078740157
        },
        {
          "duration": 0.09712828125000073,
          "durationTicks": 23,
          "midi": 44,
          "name": "G#2",
          "ticks": 9552,
          "time": 40.3377975,
          "velocity": 0.5039370078740157
        },
        {
          "duration": 0.09712828125000073,
          "durationTicks": 23,
          "midi": 44,
          "name": "G#2",
          "ticks": 9576,
          "time": 40.43914875,
          "velocity": 0.5039370078740157
        },
        {
          "duration": 0.19003359375000173,
          "durationTicks": 45,
          "midi": 44,
          "name": "G#2",
          "ticks": 9600,
          "time": 40.5405,
          "velocity": 0.5039370078740157
        },
        {
          "duration": 0.19003359375000173,
          "durationTicks": 45,
          "midi": 44,
          "name": "G#2",
          "ticks": 9648,
          "time": 40.7432025,
          "velocity": 0.5039370078740157
        },
        {
          "duration": 0.19003359375000173,
          "durationTicks": 45,
          "midi": 44,
          "name": "G#2",
          "ticks": 9696,
          "time": 40.945905,
          "velocity": 0.5039370078740157
        },
        {
          "duration": 0.19003359374999462,
          "durationTicks": 45,
          "midi": 44,
          "name": "G#2",
          "ticks": 9744,
          "time": 41.148607500000004,
          "velocity": 0.5039370078740157
        },
        {
          "duration": 0.19003359375000173,
          "durationTicks": 45,
          "midi": 44,
          "name": "G#2",
          "ticks": 9792,
          "time": 41.35131,
          "velocity": 0.5039370078740157
        },
        {
          "duration": 0.19003359375000173,
          "durationTicks": 45,
          "midi": 44,
          "name": "G#2",
          "ticks": 9840,
          "time": 41.5540125,
          "velocity": 0.5039370078740157
        },
        {
          "duration": 0.19003359375000173,
          "durationTicks": 45,
          "midi": 44,
          "name": "G#2",
          "ticks": 9888,
          "time": 41.756715,
          "velocity": 0.5039370078740157
        },
        {
          "duration": 0.19003359375000173,
          "durationTicks": 45,
          "midi": 44,
          "name": "G#2",
          "ticks": 9936,
          "time": 41.9594175,
          "velocity": 0.5039370078740157
        },
        {
          "duration": 0.28293890625000273,
          "durationTicks": 67,
          "midi": 44,
          "name": "G#2",
          "ticks": 9984,
          "time": 42.16212,
          "velocity": 0.5039370078740157
        },
        {
          "duration": 0.09712828124999362,
          "durationTicks": 23,
          "midi": 44,
          "name": "G#2",
          "ticks": 10056,
          "time": 42.46617375,
          "velocity": 0.5039370078740157
        },
        {
          "duration": 0.19003359375000173,
          "durationTicks": 45,
          "midi": 44,
          "name": "G#2",
          "ticks": 10080,
          "time": 42.567525,
          "velocity": 0.5039370078740157
        },
        {
          "duration": 0.19003359374999462,
          "durationTicks": 45,
          "midi": 44,
          "name": "G#2",
          "ticks": 10128,
          "time": 42.770227500000004,
          "velocity": 0.5039370078740157
        },
        {
          "duration": 0.09712828124999362,
          "durationTicks": 23,
          "midi": 44,
          "name": "G#2",
          "ticks": 10176,
          "time": 42.972930000000005,
          "velocity": 0.5039370078740157
        },
        {
          "duration": 0.09712828125000073,
          "durationTicks": 23,
          "midi": 44,
          "name": "G#2",
          "ticks": 10200,
          "time": 43.07428125,
          "velocity": 0.5039370078740157
        },
        {
          "duration": 0.09712828125000073,
          "durationTicks": 23,
          "midi": 44,
          "name": "G#2",
          "ticks": 10224,
          "time": 43.1756325,
          "velocity": 0.5039370078740157
        },
        {
          "duration": 0.09712828125000073,
          "durationTicks": 23,
          "midi": 44,
          "name": "G#2",
          "ticks": 10248,
          "time": 43.27698375,
          "velocity": 0.5039370078740157
        },
        {
          "duration": 0.09712828125000073,
          "durationTicks": 23,
          "midi": 44,
          "name": "G#2",
          "ticks": 10272,
          "time": 43.378335,
          "velocity": 0.5039370078740157
        },
        {
          "duration": 0.09712828125000073,
          "durationTicks": 23,
          "midi": 44,
          "name": "G#2",
          "ticks": 10296,
          "time": 43.47968625,
          "velocity": 0.5039370078740157
        },
        {
          "duration": 0.09712828125000073,
          "durationTicks": 23,
          "midi": 44,
          "name": "G#2",
          "ticks": 10320,
          "time": 43.5810375,
          "velocity": 0.5039370078740157
        },
        {
          "duration": 0.09712828125000073,
          "durationTicks": 23,
          "midi": 44,
          "name": "G#2",
          "ticks": 10344,
          "time": 43.68238875,
          "velocity": 0.5039370078740157
        },
        {
          "duration": 0.19003359375000173,
          "durationTicks": 45,
          "midi": 44,
          "name": "G#2",
          "ticks": 10368,
          "time": 43.78374,
          "velocity": 0.5039370078740157
        },
        {
          "duration": 0.19003359375000173,
          "durationTicks": 45,
          "midi": 44,
          "name": "G#2",
          "ticks": 10416,
          "time": 43.9864425,
          "velocity": 0.5039370078740157
        },
        {
          "duration": 0.19003359375000173,
          "durationTicks": 45,
          "midi": 44,
          "name": "G#2",
          "ticks": 10464,
          "time": 44.189145,
          "velocity": 0.5039370078740157
        },
        {
          "duration": 0.19003359374999462,
          "durationTicks": 45,
          "midi": 44,
          "name": "G#2",
          "ticks": 10512,
          "time": 44.391847500000004,
          "velocity": 0.5039370078740157
        },
        {
          "duration": 0.19003359375000173,
          "durationTicks": 45,
          "midi": 44,
          "name": "G#2",
          "ticks": 10560,
          "time": 44.59455,
          "velocity": 0.5039370078740157
        },
        {
          "duration": 0.19003359375000173,
          "durationTicks": 45,
          "midi": 44,
          "name": "G#2",
          "ticks": 10608,
          "time": 44.7972525,
          "velocity": 0.5039370078740157
        },
        {
          "duration": 0.19003359375000173,
          "durationTicks": 45,
          "midi": 44,
          "name": "G#2",
          "ticks": 10656,
          "time": 44.999955,
          "velocity": 0.5039370078740157
        },
        {
          "duration": 0.19003359375000173,
          "durationTicks": 45,
          "midi": 44,
          "name": "G#2",
          "ticks": 10704,
          "time": 45.2026575,
          "velocity": 0.5039370078740157
        },
        {
          "duration": 0.28293890625000273,
          "durationTicks": 67,
          "midi": 44,
          "name": "G#2",
          "ticks": 10752,
          "time": 45.40536,
          "velocity": 0.5039370078740157
        },
        {
          "duration": 0.09712828124999362,
          "durationTicks": 23,
          "midi": 44,
          "name": "G#2",
          "ticks": 10824,
          "time": 45.70941375,
          "velocity": 0.5039370078740157
        },
        {
          "duration": 0.19003359375000173,
          "durationTicks": 45,
          "midi": 44,
          "name": "G#2",
          "ticks": 10848,
          "time": 45.810765,
          "velocity": 0.5039370078740157
        },
        {
          "duration": 0.19003359374999462,
          "durationTicks": 45,
          "midi": 44,
          "name": "G#2",
          "ticks": 10896,
          "time": 46.013467500000004,
          "velocity": 0.5039370078740157
        },
        {
          "duration": 0.09712828124999362,
          "durationTicks": 23,
          "midi": 44,
          "name": "G#2",
          "ticks": 10944,
          "time": 46.216170000000005,
          "velocity": 0.5039370078740157
        },
        {
          "duration": 0.09712828125000073,
          "durationTicks": 23,
          "midi": 44,
          "name": "G#2",
          "ticks": 10968,
          "time": 46.31752125,
          "velocity": 0.5039370078740157
        },
        {
          "duration": 0.09712828125000073,
          "durationTicks": 23,
          "midi": 44,
          "name": "G#2",
          "ticks": 10992,
          "time": 46.4188725,
          "velocity": 0.5039370078740157
        },
        {
          "duration": 0.09712828125000073,
          "durationTicks": 23,
          "midi": 44,
          "name": "G#2",
          "ticks": 11016,
          "time": 46.52022375,
          "velocity": 0.5039370078740157
        },
        {
          "duration": 0.09712828125000073,
          "durationTicks": 23,
          "midi": 44,
          "name": "G#2",
          "ticks": 11040,
          "time": 46.621575,
          "velocity": 0.5039370078740157
        },
        {
          "duration": 0.09712828125000073,
          "durationTicks": 23,
          "midi": 44,
          "name": "G#2",
          "ticks": 11064,
          "time": 46.72292625,
          "velocity": 0.5039370078740157
        },
        {
          "duration": 0.09712828125000073,
          "durationTicks": 23,
          "midi": 44,
          "name": "G#2",
          "ticks": 11088,
          "time": 46.8242775,
          "velocity": 0.5039370078740157
        },
        {
          "duration": 0.09712828125000073,
          "durationTicks": 23,
          "midi": 44,
          "name": "G#2",
          "ticks": 11112,
          "time": 46.92562875,
          "velocity": 0.5039370078740157
        },
        {
          "duration": 0.19003359375000173,
          "durationTicks": 45,
          "midi": 44,
          "name": "G#2",
          "ticks": 11136,
          "time": 47.02698,
          "velocity": 0.5039370078740157
        },
        {
          "duration": 0.19003359375000173,
          "durationTicks": 45,
          "midi": 44,
          "name": "G#2",
          "ticks": 11184,
          "time": 47.2296825,
          "velocity": 0.5039370078740157
        },
        {
          "duration": 0.19003359375000173,
          "durationTicks": 45,
          "midi": 44,
          "name": "G#2",
          "ticks": 11232,
          "time": 47.432385000000004,
          "velocity": 0.5039370078740157
        },
        {
          "duration": 0.19003359374999462,
          "durationTicks": 45,
          "midi": 44,
          "name": "G#2",
          "ticks": 11280,
          "time": 47.635087500000004,
          "velocity": 0.5039370078740157
        },
        {
          "duration": 0.19003359375000173,
          "durationTicks": 45,
          "midi": 44,
          "name": "G#2",
          "ticks": 11328,
          "time": 47.83779,
          "velocity": 0.5039370078740157
        },
        {
          "duration": 0.19003359375000173,
          "durationTicks": 45,
          "midi": 44,
          "name": "G#2",
          "ticks": 11376,
          "time": 48.0404925,
          "velocity": 0.5039370078740157
        },
        {
          "duration": 0.19003359375000173,
          "durationTicks": 45,
          "midi": 44,
          "name": "G#2",
          "ticks": 11424,
          "time": 48.243195,
          "velocity": 0.5039370078740157
        },
        {
          "duration": 0.19003359375000173,
          "durationTicks": 45,
          "midi": 44,
          "name": "G#2",
          "ticks": 11472,
          "time": 48.4458975,
          "velocity": 0.5039370078740157
        },
        {
          "duration": 0.24915515624999784,
          "durationTicks": 59,
          "midi": 44,
          "name": "G#2",
          "ticks": 11520,
          "time": 48.6486,
          "velocity": 0.5039370078740157
        },
        {
          "duration": 0.12668906249999878,
          "durationTicks": 30,
          "midi": 44,
          "name": "G#2",
          "ticks": 11584,
          "time": 48.918870000000005,
          "velocity": 0.5039370078740157
        },
        {
          "duration": 0.37584421874999663,
          "durationTicks": 89,
          "midi": 44,
          "name": "G#2",
          "ticks": 11616,
          "time": 49.054005000000004,
          "velocity": 0.5039370078740157
        },
        {
          "duration": 0.12668906249999878,
          "durationTicks": 30,
          "midi": 44,
          "name": "G#2",
          "ticks": 11712,
          "time": 49.459410000000005,
          "velocity": 0.5039370078740157
        },
        {
          "duration": 0.1266890625000059,
          "durationTicks": 30,
          "midi": 44,
          "name": "G#2",
          "ticks": 11744,
          "time": 49.594545,
          "velocity": 0.5039370078740157
        },
        {
          "duration": 0.12668906249999878,
          "durationTicks": 30,
          "midi": 44,
          "name": "G#2",
          "ticks": 11776,
          "time": 49.72968,
          "velocity": 0.5039370078740157
        },
        {
          "duration": 0.37584421874999663,
          "durationTicks": 89,
          "midi": 44,
          "name": "G#2",
          "ticks": 11808,
          "time": 49.864815,
          "velocity": 0.5039370078740157
        },
        {
          "duration": 0.37584421874999663,
          "durationTicks": 89,
          "midi": 44,
          "name": "G#2",
          "ticks": 11904,
          "time": 50.27022,
          "velocity": 0.5039370078740157
        },
        {
          "duration": 0.12668906249999878,
          "durationTicks": 30,
          "midi": 44,
          "name": "G#2",
          "ticks": 12000,
          "time": 50.675625000000004,
          "velocity": 0.5039370078740157
        },
        {
          "duration": 0.12668906249999878,
          "durationTicks": 30,
          "midi": 44,
          "name": "G#2",
          "ticks": 12032,
          "time": 50.81076,
          "velocity": 0.5039370078740157
        },
        {
          "duration": 0.12668906249999878,
          "durationTicks": 30,
          "midi": 44,
          "name": "G#2",
          "ticks": 12064,
          "time": 50.94589500000001,
          "velocity": 0.5039370078740157
        },
        {
          "duration": 0.1266890625000059,
          "durationTicks": 30,
          "midi": 44,
          "name": "G#2",
          "ticks": 12096,
          "time": 51.08103,
          "velocity": 0.5039370078740157
        },
        {
          "duration": 0.1266890625000059,
          "durationTicks": 30,
          "midi": 44,
          "name": "G#2",
          "ticks": 12128,
          "time": 51.216165,
          "velocity": 0.5039370078740157
        },
        {
          "duration": 0.12668906249999878,
          "durationTicks": 30,
          "midi": 44,
          "name": "G#2",
          "ticks": 12160,
          "time": 51.3513,
          "velocity": 0.5039370078740157
        },
        {
          "duration": 0.37584421874999663,
          "durationTicks": 89,
          "midi": 42,
          "name": "F#2",
          "ticks": 12192,
          "time": 51.486435,
          "velocity": 0.5039370078740157
        },
        {
          "duration": 0.2829389062499956,
          "durationTicks": 67,
          "midi": 44,
          "name": "G#2",
          "ticks": 12288,
          "time": 51.89184,
          "velocity": 0.5039370078740157
        },
        {
          "duration": 0.09712828125000073,
          "durationTicks": 23,
          "midi": 44,
          "name": "G#2",
          "ticks": 12360,
          "time": 52.19589375,
          "velocity": 0.5039370078740157
        },
        {
          "duration": 0.19003359375000173,
          "durationTicks": 45,
          "midi": 44,
          "name": "G#2",
          "ticks": 12384,
          "time": 52.297245000000004,
          "velocity": 0.5039370078740157
        },
        {
          "duration": 0.19003359374999462,
          "durationTicks": 45,
          "midi": 44,
          "name": "G#2",
          "ticks": 12432,
          "time": 52.499947500000005,
          "velocity": 0.5039370078740157
        },
        {
          "duration": 0.09712828125000073,
          "durationTicks": 23,
          "midi": 44,
          "name": "G#2",
          "ticks": 12480,
          "time": 52.702650000000006,
          "velocity": 0.5039370078740157
        },
        {
          "duration": 0.09712828125000783,
          "durationTicks": 23,
          "midi": 44,
          "name": "G#2",
          "ticks": 12504,
          "time": 52.80400125,
          "velocity": 0.5039370078740157
        },
        {
          "duration": 0.09712828125000783,
          "durationTicks": 23,
          "midi": 44,
          "name": "G#2",
          "ticks": 12528,
          "time": 52.9053525,
          "velocity": 0.5039370078740157
        },
        {
          "duration": 0.09712828125000783,
          "durationTicks": 23,
          "midi": 44,
          "name": "G#2",
          "ticks": 12552,
          "time": 53.00670375,
          "velocity": 0.5039370078740157
        },
        {
          "duration": 0.09712828125000783,
          "durationTicks": 23,
          "midi": 44,
          "name": "G#2",
          "ticks": 12576,
          "time": 53.108055,
          "velocity": 0.5039370078740157
        },
        {
          "duration": 0.09712828125000783,
          "durationTicks": 23,
          "midi": 44,
          "name": "G#2",
          "ticks": 12600,
          "time": 53.20940625,
          "velocity": 0.5039370078740157
        },
        {
          "duration": 0.09712828125000783,
          "durationTicks": 23,
          "midi": 44,
          "name": "G#2",
          "ticks": 12624,
          "time": 53.3107575,
          "velocity": 0.5039370078740157
        },
        {
          "duration": 0.09712828125000783,
          "durationTicks": 23,
          "midi": 44,
          "name": "G#2",
          "ticks": 12648,
          "time": 53.41210875,
          "velocity": 0.5039370078740157
        },
        {
          "duration": 0.19003359375000173,
          "durationTicks": 45,
          "midi": 44,
          "name": "G#2",
          "ticks": 12672,
          "time": 53.51346,
          "velocity": 0.5039370078740157
        },
        {
          "duration": 0.19003359375000173,
          "durationTicks": 45,
          "midi": 44,
          "name": "G#2",
          "ticks": 12720,
          "time": 53.7161625,
          "velocity": 0.5039370078740157
        },
        {
          "duration": 0.19003359375000173,
          "durationTicks": 45,
          "midi": 44,
          "name": "G#2",
          "ticks": 12768,
          "time": 53.918865000000004,
          "velocity": 0.5039370078740157
        },
        {
          "duration": 0.19003359374999462,
          "durationTicks": 45,
          "midi": 44,
          "name": "G#2",
          "ticks": 12816,
          "time": 54.121567500000005,
          "velocity": 0.5039370078740157
        },
        {
          "duration": 0.19003359375000173,
          "durationTicks": 45,
          "midi": 44,
          "name": "G#2",
          "ticks": 12864,
          "time": 54.32427,
          "velocity": 0.5039370078740157
        },
        {
          "duration": 0.19003359375000173,
          "durationTicks": 45,
          "midi": 44,
          "name": "G#2",
          "ticks": 12912,
          "time": 54.5269725,
          "velocity": 0.5039370078740157
        },
        {
          "duration": 0.19003359375000173,
          "durationTicks": 45,
          "midi": 44,
          "name": "G#2",
          "ticks": 12960,
          "time": 54.729675,
          "velocity": 0.5039370078740157
        },
        {
          "duration": 0.19003359375000173,
          "durationTicks": 45,
          "midi": 44,
          "name": "G#2",
          "ticks": 13008,
          "time": 54.9323775,
          "velocity": 0.5039370078740157
        },
        {
          "duration": 0.2829389062499956,
          "durationTicks": 67,
          "midi": 44,
          "name": "G#2",
          "ticks": 13056,
          "time": 55.13508,
          "velocity": 0.5039370078740157
        },
        {
          "duration": 0.09712828125000073,
          "durationTicks": 23,
          "midi": 44,
          "name": "G#2",
          "ticks": 13128,
          "time": 55.43913375,
          "velocity": 0.5039370078740157
        },
        {
          "duration": 0.19003359375000173,
          "durationTicks": 45,
          "midi": 44,
          "name": "G#2",
          "ticks": 13152,
          "time": 55.540485000000004,
          "velocity": 0.5039370078740157
        },
        {
          "duration": 0.19003359374999462,
          "durationTicks": 45,
          "midi": 44,
          "name": "G#2",
          "ticks": 13200,
          "time": 55.743187500000005,
          "velocity": 0.5039370078740157
        },
        {
          "duration": 0.09712828125000073,
          "durationTicks": 23,
          "midi": 44,
          "name": "G#2",
          "ticks": 13248,
          "time": 55.945890000000006,
          "velocity": 0.5039370078740157
        },
        {
          "duration": 0.09712828125000783,
          "durationTicks": 23,
          "midi": 44,
          "name": "G#2",
          "ticks": 13272,
          "time": 56.04724125,
          "velocity": 0.5039370078740157
        },
        {
          "duration": 0.09712828125000783,
          "durationTicks": 23,
          "midi": 44,
          "name": "G#2",
          "ticks": 13296,
          "time": 56.1485925,
          "velocity": 0.5039370078740157
        },
        {
          "duration": 0.09712828125000783,
          "durationTicks": 23,
          "midi": 44,
          "name": "G#2",
          "ticks": 13320,
          "time": 56.24994375,
          "velocity": 0.5039370078740157
        },
        {
          "duration": 0.09712828125000783,
          "durationTicks": 23,
          "midi": 44,
          "name": "G#2",
          "ticks": 13344,
          "time": 56.351295,
          "velocity": 0.5039370078740157
        },
        {
          "duration": 0.09712828125000783,
          "durationTicks": 23,
          "midi": 44,
          "name": "G#2",
          "ticks": 13368,
          "time": 56.45264625,
          "velocity": 0.5039370078740157
        },
        {
          "duration": 0.09712828125000783,
          "durationTicks": 23,
          "midi": 44,
          "name": "G#2",
          "ticks": 13392,
          "time": 56.5539975,
          "velocity": 0.5039370078740157
        },
        {
          "duration": 0.09712828125000783,
          "durationTicks": 23,
          "midi": 44,
          "name": "G#2",
          "ticks": 13416,
          "time": 56.65534875,
          "velocity": 0.5039370078740157
        },
        {
          "duration": 0.19003359375000173,
          "durationTicks": 45,
          "midi": 44,
          "name": "G#2",
          "ticks": 13440,
          "time": 56.7567,
          "velocity": 0.5039370078740157
        },
        {
          "duration": 0.19003359375000173,
          "durationTicks": 45,
          "midi": 44,
          "name": "G#2",
          "ticks": 13488,
          "time": 56.9594025,
          "velocity": 0.5039370078740157
        },
        {
          "duration": 0.19003359375000173,
          "durationTicks": 45,
          "midi": 44,
          "name": "G#2",
          "ticks": 13536,
          "time": 57.162105000000004,
          "velocity": 0.5039370078740157
        },
        {
          "duration": 0.19003359374999462,
          "durationTicks": 45,
          "midi": 44,
          "name": "G#2",
          "ticks": 13584,
          "time": 57.364807500000005,
          "velocity": 0.5039370078740157
        },
        {
          "duration": 0.19003359375000173,
          "durationTicks": 45,
          "midi": 44,
          "name": "G#2",
          "ticks": 13632,
          "time": 57.56751,
          "velocity": 0.5039370078740157
        },
        {
          "duration": 0.19003359375000173,
          "durationTicks": 45,
          "midi": 44,
          "name": "G#2",
          "ticks": 13680,
          "time": 57.7702125,
          "velocity": 0.5039370078740157
        },
        {
          "duration": 0.19003359375000173,
          "durationTicks": 45,
          "midi": 44,
          "name": "G#2",
          "ticks": 13728,
          "time": 57.972915,
          "velocity": 0.5039370078740157
        },
        {
          "duration": 0.19003359375000173,
          "durationTicks": 45,
          "midi": 44,
          "name": "G#2",
          "ticks": 13776,
          "time": 58.1756175,
          "velocity": 0.5039370078740157
        },
        {
          "duration": 0.2829389062499956,
          "durationTicks": 67,
          "midi": 44,
          "name": "G#2",
          "ticks": 13824,
          "time": 58.37832,
          "velocity": 0.5039370078740157
        },
        {
          "duration": 0.09712828125000073,
          "durationTicks": 23,
          "midi": 44,
          "name": "G#2",
          "ticks": 13896,
          "time": 58.682373750000004,
          "velocity": 0.5039370078740157
        },
        {
          "duration": 0.19003359375000173,
          "durationTicks": 45,
          "midi": 44,
          "name": "G#2",
          "ticks": 13920,
          "time": 58.783725000000004,
          "velocity": 0.5039370078740157
        },
        {
          "duration": 0.19003359375000173,
          "durationTicks": 45,
          "midi": 44,
          "name": "G#2",
          "ticks": 14208,
          "time": 59.99994,
          "velocity": 0.5039370078740157
        },
        {
          "duration": 0.19003359375000173,
          "durationTicks": 45,
          "midi": 44,
          "name": "G#2",
          "ticks": 14256,
          "time": 60.2026425,
          "velocity": 0.5039370078740157
        },
        {
          "duration": 0.19003359375000173,
          "durationTicks": 45,
          "midi": 44,
          "name": "G#2",
          "ticks": 14304,
          "time": 60.405345000000004,
          "velocity": 0.5039370078740157
        },
        {
          "duration": 0.19003359374999462,
          "durationTicks": 45,
          "midi": 44,
          "name": "G#2",
          "ticks": 14352,
          "time": 60.608047500000005,
          "velocity": 0.5039370078740157
        },
        {
          "duration": 0.19003359375000173,
          "durationTicks": 45,
          "midi": 44,
          "name": "G#2",
          "ticks": 14400,
          "time": 60.81075,
          "velocity": 0.5039370078740157
        },
        {
          "duration": 0.19003359375000173,
          "durationTicks": 45,
          "midi": 44,
          "name": "G#2",
          "ticks": 14448,
          "time": 61.0134525,
          "velocity": 0.5039370078740157
        },
        {
          "duration": 0.19003359375000173,
          "durationTicks": 45,
          "midi": 44,
          "name": "G#2",
          "ticks": 14496,
          "time": 61.216155,
          "velocity": 0.5039370078740157
        },
        {
          "duration": 0.19003359375000173,
          "durationTicks": 45,
          "midi": 44,
          "name": "G#2",
          "ticks": 14544,
          "time": 61.4188575,
          "velocity": 0.5039370078740157
        },
        {
          "duration": 0.19003359375000173,
          "durationTicks": 45,
          "midi": 44,
          "name": "G#2",
          "ticks": 14688,
          "time": 62.026965000000004,
          "velocity": 0.5039370078740157
        },
        {
          "duration": 0.19003359374999462,
          "durationTicks": 45,
          "midi": 44,
          "name": "G#2",
          "ticks": 14736,
          "time": 62.229667500000005,
          "velocity": 0.5039370078740157
        },
        {
          "duration": 0.09712828125000073,
          "durationTicks": 23,
          "midi": 44,
          "name": "G#2",
          "ticks": 14784,
          "time": 62.432370000000006,
          "velocity": 0.5039370078740157
        },
        {
          "duration": 0.09712828125000783,
          "durationTicks": 23,
          "midi": 44,
          "name": "G#2",
          "ticks": 14808,
          "time": 62.53372125,
          "velocity": 0.5039370078740157
        },
        {
          "duration": 0.09712828125000783,
          "durationTicks": 23,
          "midi": 44,
          "name": "G#2",
          "ticks": 14832,
          "time": 62.6350725,
          "velocity": 0.5039370078740157
        },
        {
          "duration": 0.09712828125000783,
          "durationTicks": 23,
          "midi": 44,
          "name": "G#2",
          "ticks": 14856,
          "time": 62.73642375,
          "velocity": 0.5039370078740157
        },
        {
          "duration": 0.09712828125000783,
          "durationTicks": 23,
          "midi": 44,
          "name": "G#2",
          "ticks": 14880,
          "time": 62.837775,
          "velocity": 0.5039370078740157
        },
        {
          "duration": 0.09712828125000783,
          "durationTicks": 23,
          "midi": 44,
          "name": "G#2",
          "ticks": 14904,
          "time": 62.93912625,
          "velocity": 0.5039370078740157
        },
        {
          "duration": 0.09712828125000783,
          "durationTicks": 23,
          "midi": 44,
          "name": "G#2",
          "ticks": 14928,
          "time": 63.0404775,
          "velocity": 0.5039370078740157
        },
        {
          "duration": 0.09712828125000783,
          "durationTicks": 23,
          "midi": 44,
          "name": "G#2",
          "ticks": 14952,
          "time": 63.14182875,
          "velocity": 0.5039370078740157
        },
        {
          "duration": 0.19003359375000173,
          "durationTicks": 45,
          "midi": 44,
          "name": "G#2",
          "ticks": 14976,
          "time": 63.24318,
          "velocity": 0.5039370078740157
        },
        {
          "duration": 0.19003359375000173,
          "durationTicks": 45,
          "midi": 44,
          "name": "G#2",
          "ticks": 15024,
          "time": 63.4458825,
          "velocity": 0.5039370078740157
        },
        {
          "duration": 0.19003359375000173,
          "durationTicks": 45,
          "midi": 44,
          "name": "G#2",
          "ticks": 15072,
          "time": 63.648585000000004,
          "velocity": 0.5039370078740157
        },
        {
          "duration": 0.19003359374999462,
          "durationTicks": 45,
          "midi": 44,
          "name": "G#2",
          "ticks": 15120,
          "time": 63.851287500000005,
          "velocity": 0.5039370078740157
        },
        {
          "duration": 0.19003359375000173,
          "durationTicks": 45,
          "midi": 44,
          "name": "G#2",
          "ticks": 15168,
          "time": 64.05399,
          "velocity": 0.5039370078740157
        },
        {
          "duration": 0.19003359375000173,
          "durationTicks": 45,
          "midi": 44,
          "name": "G#2",
          "ticks": 15216,
          "time": 64.2566925,
          "velocity": 0.5039370078740157
        },
        {
          "duration": 0.19003359375000173,
          "durationTicks": 45,
          "midi": 44,
          "name": "G#2",
          "ticks": 15264,
          "time": 64.459395,
          "velocity": 0.5039370078740157
        },
        {
          "duration": 0.19003359375000173,
          "durationTicks": 45,
          "midi": 44,
          "name": "G#2",
          "ticks": 15312,
          "time": 64.6620975,
          "velocity": 0.5039370078740157
        },
        {
          "duration": 0.2829389062499956,
          "durationTicks": 67,
          "midi": 44,
          "name": "G#2",
          "ticks": 15360,
          "time": 64.8648,
          "velocity": 0.5039370078740157
        },
        {
          "duration": 0.09712828125000783,
          "durationTicks": 23,
          "midi": 44,
          "name": "G#2",
          "ticks": 15432,
          "time": 65.16885375,
          "velocity": 0.5039370078740157
        },
        {
          "duration": 0.19003359375000173,
          "durationTicks": 45,
          "midi": 44,
          "name": "G#2",
          "ticks": 15504,
          "time": 65.4729075,
          "velocity": 0.5039370078740157
        },
        {
          "duration": 0.09712828124999362,
          "durationTicks": 23,
          "midi": 44,
          "name": "G#2",
          "ticks": 15552,
          "time": 65.67561,
          "velocity": 0.5039370078740157
        },
        {
          "duration": 0.09712828125000783,
          "durationTicks": 23,
          "midi": 44,
          "name": "G#2",
          "ticks": 15576,
          "time": 65.77696125,
          "velocity": 0.5039370078740157
        },
        {
          "duration": 0.09712828124999362,
          "durationTicks": 23,
          "midi": 44,
          "name": "G#2",
          "ticks": 15600,
          "time": 65.8783125,
          "velocity": 0.5039370078740157
        },
        {
          "duration": 0.09712828125000783,
          "durationTicks": 23,
          "midi": 44,
          "name": "G#2",
          "ticks": 15624,
          "time": 65.97966375,
          "velocity": 0.5039370078740157
        },
        {
          "duration": 0.09712828124999362,
          "durationTicks": 23,
          "midi": 44,
          "name": "G#2",
          "ticks": 15648,
          "time": 66.08101500000001,
          "velocity": 0.5039370078740157
        },
        {
          "duration": 0.09712828125000783,
          "durationTicks": 23,
          "midi": 44,
          "name": "G#2",
          "ticks": 15672,
          "time": 66.18236625,
          "velocity": 0.5039370078740157
        },
        {
          "duration": 0.09712828124999362,
          "durationTicks": 23,
          "midi": 44,
          "name": "G#2",
          "ticks": 15696,
          "time": 66.28371750000001,
          "velocity": 0.5039370078740157
        },
        {
          "duration": 0.09712828125000783,
          "durationTicks": 23,
          "midi": 44,
          "name": "G#2",
          "ticks": 15720,
          "time": 66.38506875,
          "velocity": 0.5039370078740157
        },
        {
          "duration": 0.19003359375000173,
          "durationTicks": 45,
          "midi": 44,
          "name": "G#2",
          "ticks": 15888,
          "time": 67.0945275,
          "velocity": 0.5039370078740157
        },
        {
          "duration": 0.19003359375000173,
          "durationTicks": 45,
          "midi": 44,
          "name": "G#2",
          "ticks": 15936,
          "time": 67.29723,
          "velocity": 0.5039370078740157
        },
        {
          "duration": 0.19003359375000173,
          "durationTicks": 45,
          "midi": 44,
          "name": "G#2",
          "ticks": 15984,
          "time": 67.4999325,
          "velocity": 0.5039370078740157
        },
        {
          "duration": 0.19003359375000173,
          "durationTicks": 45,
          "midi": 44,
          "name": "G#2",
          "ticks": 16032,
          "time": 67.702635,
          "velocity": 0.5039370078740157
        },
        {
          "duration": 0.19003359375000173,
          "durationTicks": 45,
          "midi": 44,
          "name": "G#2",
          "ticks": 16080,
          "time": 67.9053375,
          "velocity": 0.5039370078740157
        },
        {
          "duration": 0.2829389062499956,
          "durationTicks": 67,
          "midi": 44,
          "name": "G#2",
          "ticks": 16128,
          "time": 68.10804,
          "velocity": 0.5039370078740157
        },
        {
          "duration": 0.09712828125000783,
          "durationTicks": 23,
          "midi": 44,
          "name": "G#2",
          "ticks": 16200,
          "time": 68.41209375,
          "velocity": 0.5039370078740157
        },
        {
          "duration": 0.19003359375000173,
          "durationTicks": 45,
          "midi": 44,
          "name": "G#2",
          "ticks": 16224,
          "time": 68.513445,
          "velocity": 0.5039370078740157
        },
        {
          "duration": 0.19003359375000173,
          "durationTicks": 45,
          "midi": 44,
          "name": "G#2",
          "ticks": 16272,
          "time": 68.7161475,
          "velocity": 0.5039370078740157
        },
        {
          "duration": 0.09712828124999362,
          "durationTicks": 23,
          "midi": 44,
          "name": "G#2",
          "ticks": 16320,
          "time": 68.91885,
          "velocity": 0.5039370078740157
        },
        {
          "duration": 0.09712828125000783,
          "durationTicks": 23,
          "midi": 44,
          "name": "G#2",
          "ticks": 16344,
          "time": 69.02020125,
          "velocity": 0.5039370078740157
        },
        {
          "duration": 0.09712828124999362,
          "durationTicks": 23,
          "midi": 44,
          "name": "G#2",
          "ticks": 16368,
          "time": 69.1215525,
          "velocity": 0.5039370078740157
        },
        {
          "duration": 0.09712828125000783,
          "durationTicks": 23,
          "midi": 44,
          "name": "G#2",
          "ticks": 16392,
          "time": 69.22290375,
          "velocity": 0.5039370078740157
        },
        {
          "duration": 0.09712828124999362,
          "durationTicks": 23,
          "midi": 44,
          "name": "G#2",
          "ticks": 16416,
          "time": 69.32425500000001,
          "velocity": 0.5039370078740157
        },
        {
          "duration": 0.09712828125000783,
          "durationTicks": 23,
          "midi": 44,
          "name": "G#2",
          "ticks": 16440,
          "time": 69.42560625,
          "velocity": 0.5039370078740157
        },
        {
          "duration": 0.09712828124999362,
          "durationTicks": 23,
          "midi": 44,
          "name": "G#2",
          "ticks": 16464,
          "time": 69.52695750000001,
          "velocity": 0.5039370078740157
        },
        {
          "duration": 0.09712828125000783,
          "durationTicks": 23,
          "midi": 44,
          "name": "G#2",
          "ticks": 16488,
          "time": 69.62830875,
          "velocity": 0.5039370078740157
        },
        {
          "duration": 0.37584421875001794,
          "durationTicks": 89,
          "midi": 44,
          "name": "G#2",
          "ticks": 16512,
          "time": 69.72966,
          "velocity": 0.5039370078740157
        },
        {
          "duration": 0.19003359375000173,
          "durationTicks": 45,
          "midi": 44,
          "name": "G#2",
          "ticks": 16608,
          "time": 70.135065,
          "velocity": 0.5039370078740157
        },
        {
          "duration": 0.19003359375000173,
          "durationTicks": 45,
          "midi": 44,
          "name": "G#2",
          "ticks": 16656,
          "time": 70.3377675,
          "velocity": 0.5039370078740157
        },
        {
          "duration": 0.19003359375000173,
          "durationTicks": 45,
          "midi": 44,
          "name": "G#2",
          "ticks": 16704,
          "time": 70.54047,
          "velocity": 0.5039370078740157
        },
        {
          "duration": 0.19003359375000173,
          "durationTicks": 45,
          "midi": 44,
          "name": "G#2",
          "ticks": 16752,
          "time": 70.7431725,
          "velocity": 0.5039370078740157
        },
        {
          "duration": 0.19003359375000173,
          "durationTicks": 45,
          "midi": 44,
          "name": "G#2",
          "ticks": 16800,
          "time": 70.945875,
          "velocity": 0.5039370078740157
        },
        {
          "duration": 0.19003359375000173,
          "durationTicks": 45,
          "midi": 44,
          "name": "G#2",
          "ticks": 16848,
          "time": 71.1485775,
          "velocity": 0.5039370078740157
        },
        {
          "duration": 0.2829389062499956,
          "durationTicks": 67,
          "midi": 44,
          "name": "G#2",
          "ticks": 16896,
          "time": 71.35128,
          "velocity": 0.5039370078740157
        },
        {
          "duration": 0.09712828125000783,
          "durationTicks": 23,
          "midi": 44,
          "name": "G#2",
          "ticks": 16968,
          "time": 71.65533375,
          "velocity": 0.5039370078740157
        },
        {
          "duration": 0.19003359375000173,
          "durationTicks": 45,
          "midi": 44,
          "name": "G#2",
          "ticks": 16992,
          "time": 71.756685,
          "velocity": 0.5039370078740157
        },
        {
          "duration": 0.19003359375000173,
          "durationTicks": 45,
          "midi": 44,
          "name": "G#2",
          "ticks": 17040,
          "time": 71.9593875,
          "velocity": 0.5039370078740157
        },
        {
          "duration": 0.09712828124999362,
          "durationTicks": 23,
          "midi": 44,
          "name": "G#2",
          "ticks": 17088,
          "time": 72.16209,
          "velocity": 0.5039370078740157
        },
        {
          "duration": 0.09712828125000783,
          "durationTicks": 23,
          "midi": 44,
          "name": "G#2",
          "ticks": 17112,
          "time": 72.26344125,
          "velocity": 0.5039370078740157
        },
        {
          "duration": 0.09712828124999362,
          "durationTicks": 23,
          "midi": 44,
          "name": "G#2",
          "ticks": 17136,
          "time": 72.36479250000001,
          "velocity": 0.5039370078740157
        },
        {
          "duration": 0.09712828125000783,
          "durationTicks": 23,
          "midi": 44,
          "name": "G#2",
          "ticks": 17160,
          "time": 72.46614375,
          "velocity": 0.5039370078740157
        },
        {
          "duration": 0.09712828124999362,
          "durationTicks": 23,
          "midi": 44,
          "name": "G#2",
          "ticks": 17184,
          "time": 72.56749500000001,
          "velocity": 0.5039370078740157
        },
        {
          "duration": 0.09712828125000783,
          "durationTicks": 23,
          "midi": 44,
          "name": "G#2",
          "ticks": 17208,
          "time": 72.66884625,
          "velocity": 0.5039370078740157
        },
        {
          "duration": 0.09712828124999362,
          "durationTicks": 23,
          "midi": 44,
          "name": "G#2",
          "ticks": 17232,
          "time": 72.77019750000001,
          "velocity": 0.5039370078740157
        },
        {
          "duration": 0.09712828125000783,
          "durationTicks": 23,
          "midi": 44,
          "name": "G#2",
          "ticks": 17256,
          "time": 72.87154875,
          "velocity": 0.5039370078740157
        },
        {
          "duration": 0.05067562499999667,
          "durationTicks": 12,
          "midi": 42,
          "name": "F#2",
          "ticks": 17292,
          "time": 73.023575625,
          "velocity": 0.5039370078740157
        },
        {
          "duration": 0.05067562499999667,
          "durationTicks": 12,
          "midi": 42,
          "name": "F#2",
          "ticks": 17316,
          "time": 73.124926875,
          "velocity": 0.5039370078740157
        },
        {
          "duration": 0.05067562499999667,
          "durationTicks": 12,
          "midi": 42,
          "name": "F#2",
          "ticks": 17340,
          "time": 73.22627812500001,
          "velocity": 0.5039370078740157
        },
        {
          "duration": 0.05067562499999667,
          "durationTicks": 12,
          "midi": 42,
          "name": "F#2",
          "ticks": 17364,
          "time": 73.327629375,
          "velocity": 0.5039370078740157
        },
        {
          "duration": 0.19003359375000173,
          "durationTicks": 45,
          "midi": 42,
          "name": "F#2",
          "ticks": 17520,
          "time": 73.9864125,
          "velocity": 0.5039370078740157
        },
        {
          "duration": 0.19003359375000173,
          "durationTicks": 45,
          "midi": 42,
          "name": "F#2",
          "ticks": 17568,
          "time": 74.189115,
          "velocity": 0.5039370078740157
        },
        {
          "duration": 0.19003359375000173,
          "durationTicks": 45,
          "midi": 42,
          "name": "F#2",
          "ticks": 17616,
          "time": 74.3918175,
          "velocity": 0.5039370078740157
        },
        {
          "duration": 0.09712828125000783,
          "durationTicks": 23,
          "midi": 44,
          "name": "G#2",
          "ticks": 17736,
          "time": 74.89857375,
          "velocity": 0.5039370078740157
        },
        {
          "duration": 0.19003359375000173,
          "durationTicks": 45,
          "midi": 44,
          "name": "G#2",
          "ticks": 17760,
          "time": 74.999925,
          "velocity": 0.5039370078740157
        },
        {
          "duration": 0.19003359375000173,
          "durationTicks": 45,
          "midi": 44,
          "name": "G#2",
          "ticks": 17808,
          "time": 75.2026275,
          "velocity": 0.5039370078740157
        },
        {
          "duration": 0.09712828124999362,
          "durationTicks": 23,
          "midi": 44,
          "name": "G#2",
          "ticks": 17856,
          "time": 75.40533,
          "velocity": 0.5039370078740157
        },
        {
          "duration": 0.09712828125000783,
          "durationTicks": 23,
          "midi": 44,
          "name": "G#2",
          "ticks": 17880,
          "time": 75.50668125,
          "velocity": 0.5039370078740157
        },
        {
          "duration": 0.09712828124999362,
          "durationTicks": 23,
          "midi": 44,
          "name": "G#2",
          "ticks": 17904,
          "time": 75.60803250000001,
          "velocity": 0.5039370078740157
        },
        {
          "duration": 0.09712828125000783,
          "durationTicks": 23,
          "midi": 44,
          "name": "G#2",
          "ticks": 17928,
          "time": 75.70938375,
          "velocity": 0.5039370078740157
        },
        {
          "duration": 0.09712828124999362,
          "durationTicks": 23,
          "midi": 44,
          "name": "G#2",
          "ticks": 17952,
          "time": 75.81073500000001,
          "velocity": 0.5039370078740157
        },
        {
          "duration": 0.09712828125000783,
          "durationTicks": 23,
          "midi": 44,
          "name": "G#2",
          "ticks": 17976,
          "time": 75.91208625,
          "velocity": 0.5039370078740157
        },
        {
          "duration": 0.09712828124999362,
          "durationTicks": 23,
          "midi": 44,
          "name": "G#2",
          "ticks": 18000,
          "time": 76.01343750000001,
          "velocity": 0.5039370078740157
        },
        {
          "duration": 0.09712828125000783,
          "durationTicks": 23,
          "midi": 44,
          "name": "G#2",
          "ticks": 18024,
          "time": 76.11478875,
          "velocity": 0.5039370078740157
        },
        {
          "duration": 0.37584421875001794,
          "durationTicks": 89,
          "midi": 42,
          "name": "F#2",
          "ticks": 18048,
          "time": 76.21614,
          "velocity": 0.5039370078740157
        },
        {
          "duration": 0.09712828125000783,
          "durationTicks": 23,
          "midi": 42,
          "name": "F#2",
          "ticks": 18144,
          "time": 76.621545,
          "velocity": 0.5039370078740157
        },
        {
          "duration": 0.09712828125000783,
          "durationTicks": 23,
          "midi": 42,
          "name": "F#2",
          "ticks": 18168,
          "time": 76.72289625,
          "velocity": 0.5039370078740157
        },
        {
          "duration": 0.09712828125000783,
          "durationTicks": 23,
          "midi": 42,
          "name": "F#2",
          "ticks": 18192,
          "time": 76.8242475,
          "velocity": 0.5039370078740157
        },
        {
          "duration": 0.09712828125000783,
          "durationTicks": 23,
          "midi": 42,
          "name": "F#2",
          "ticks": 18216,
          "time": 76.92559875,
          "velocity": 0.5039370078740157
        },
        {
          "duration": 0.19003359375000173,
          "durationTicks": 45,
          "midi": 42,
          "name": "F#2",
          "ticks": 18240,
          "time": 77.02695,
          "velocity": 0.5039370078740157
        },
        {
          "duration": 0.19003359375000173,
          "durationTicks": 45,
          "midi": 42,
          "name": "F#2",
          "ticks": 18288,
          "time": 77.2296525,
          "velocity": 0.5039370078740157
        },
        {
          "duration": 0.19003359375000173,
          "durationTicks": 45,
          "midi": 42,
          "name": "F#2",
          "ticks": 18336,
          "time": 77.432355,
          "velocity": 0.5039370078740157
        },
        {
          "duration": 0.19003359375000173,
          "durationTicks": 45,
          "midi": 42,
          "name": "F#2",
          "ticks": 18384,
          "time": 77.6350575,
          "velocity": 0.5039370078740157
        },
        {
          "duration": 0.2829389062499956,
          "durationTicks": 67,
          "midi": 42,
          "name": "F#2",
          "ticks": 18432,
          "time": 77.83776,
          "velocity": 0.5039370078740157
        },
        {
          "duration": 0.09712828125000783,
          "durationTicks": 23,
          "midi": 42,
          "name": "F#2",
          "ticks": 18504,
          "time": 78.14181375,
          "velocity": 0.5039370078740157
        },
        {
          "duration": 0.37584421875000373,
          "durationTicks": 89,
          "midi": 42,
          "name": "F#2",
          "ticks": 18528,
          "time": 78.243165,
          "velocity": 0.5039370078740157
        },
        {
          "duration": 0.19003359375000173,
          "durationTicks": 45,
          "midi": 42,
          "name": "F#2",
          "ticks": 18720,
          "time": 79.05397500000001,
          "velocity": 0.5039370078740157
        },
        {
          "duration": 0.09712828124999362,
          "durationTicks": 23,
          "midi": 42,
          "name": "F#2",
          "ticks": 18768,
          "time": 79.25667750000001,
          "velocity": 0.5039370078740157
        },
        {
          "duration": 0.09712828125000783,
          "durationTicks": 23,
          "midi": 42,
          "name": "F#2",
          "ticks": 18792,
          "time": 79.35802875,
          "velocity": 0.5039370078740157
        },
        {
          "duration": 0.37584421875000373,
          "durationTicks": 89,
          "midi": 42,
          "name": "F#2",
          "ticks": 18816,
          "time": 79.45938000000001,
          "velocity": 0.5039370078740157
        },
        {
          "duration": 0.19003359375000173,
          "durationTicks": 45,
          "midi": 42,
          "name": "F#2",
          "ticks": 18960,
          "time": 80.0674875,
          "velocity": 0.5039370078740157
        },
        {
          "duration": 0.19003359375000173,
          "durationTicks": 45,
          "midi": 42,
          "name": "F#2",
          "ticks": 19008,
          "time": 80.27019,
          "velocity": 0.5039370078740157
        },
        {
          "duration": 0.19003359375000173,
          "durationTicks": 45,
          "midi": 42,
          "name": "F#2",
          "ticks": 19056,
          "time": 80.4728925,
          "velocity": 0.5039370078740157
        },
        {
          "duration": 0.19003359375000173,
          "durationTicks": 45,
          "midi": 42,
          "name": "F#2",
          "ticks": 19104,
          "time": 80.675595,
          "velocity": 0.5039370078740157
        },
        {
          "duration": 0.19003359375000173,
          "durationTicks": 45,
          "midi": 42,
          "name": "F#2",
          "ticks": 19152,
          "time": 80.8782975,
          "velocity": 0.5039370078740157
        }
      ],
      "endOfTrackTicks": 19968
    },
    {
      "channel": 9,
      "controlChanges": {
        "7": [
          {
            "number": 7,
            "ticks": 0,
            "time": 0,
            "value": 1
          }
        ],
        "10": [
          {
            "number": 10,
            "ticks": 0,
            "time": 0,
            "value": 0.5039370078740157
          }
        ]
      },
      "pitchBends": [],
      "instrument": {
        "family": "drums",
        "number": 0,
        "name": "standard kit"
      },
      "name": "",
      "notes": [
        {
          "duration": 0.19003359375,
          "durationTicks": 45,
          "midi": 36,
          "name": "C2",
          "ticks": 0,
          "time": 0,
          "velocity": 0.5039370078740157
        },
        {
          "duration": 0.09712828125,
          "durationTicks": 23,
          "midi": 36,
          "name": "C2",
          "ticks": 72,
          "time": 0.30405375,
          "velocity": 0.5039370078740157
        },
        {
          "duration": 0.19003359374999995,
          "durationTicks": 45,
          "midi": 40,
          "name": "E2",
          "ticks": 96,
          "time": 0.405405,
          "velocity": 0.5039370078740157
        },
        {
          "duration": 0.19003359374999995,
          "durationTicks": 45,
          "midi": 36,
          "name": "C2",
          "ticks": 144,
          "time": 0.6081075,
          "velocity": 0.5039370078740157
        },
        {
          "duration": 0.09712828125000006,
          "durationTicks": 23,
          "midi": 40,
          "name": "E2",
          "ticks": 216,
          "time": 0.91216125,
          "velocity": 0.5039370078740157
        },
        {
          "duration": 0.09712828125000006,
          "durationTicks": 23,
          "midi": 36,
          "name": "C2",
          "ticks": 240,
          "time": 1.0135125,
          "velocity": 0.5039370078740157
        },
        {
          "duration": 0.09712828125000006,
          "durationTicks": 23,
          "midi": 36,
          "name": "C2",
          "ticks": 264,
          "time": 1.11486375,
          "velocity": 0.5039370078740157
        },
        {
          "duration": 0.09712828125000006,
          "durationTicks": 23,
          "midi": 40,
          "name": "E2",
          "ticks": 288,
          "time": 1.216215,
          "velocity": 0.5039370078740157
        },
        {
          "duration": 0.09712828125000006,
          "durationTicks": 23,
          "midi": 36,
          "name": "C2",
          "ticks": 312,
          "time": 1.31756625,
          "velocity": 0.5039370078740157
        },
        {
          "duration": 0.09712828125000006,
          "durationTicks": 23,
          "midi": 36,
          "name": "C2",
          "ticks": 360,
          "time": 1.52026875,
          "velocity": 0.5039370078740157
        },
        {
          "duration": 0.19003359374999995,
          "durationTicks": 45,
          "midi": 36,
          "name": "C2",
          "ticks": 384,
          "time": 1.62162,
          "velocity": 0.5039370078740157
        },
        {
          "duration": 0.19003359374999995,
          "durationTicks": 45,
          "midi": 36,
          "name": "C2",
          "ticks": 432,
          "time": 1.8243225,
          "velocity": 0.5039370078740157
        },
        {
          "duration": 0.19003359374999995,
          "durationTicks": 45,
          "midi": 40,
          "name": "E2",
          "ticks": 480,
          "time": 2.027025,
          "velocity": 0.5039370078740157
        },
        {
          "duration": 0.19003359374999995,
          "durationTicks": 45,
          "midi": 36,
          "name": "C2",
          "ticks": 528,
          "time": 2.2297275,
          "velocity": 0.5039370078740157
        },
        {
          "duration": 0.09712828124999984,
          "durationTicks": 23,
          "midi": 40,
          "name": "E2",
          "ticks": 600,
          "time": 2.53378125,
          "velocity": 0.5039370078740157
        },
        {
          "duration": 0.09712828124999984,
          "durationTicks": 23,
          "midi": 36,
          "name": "C2",
          "ticks": 624,
          "time": 2.6351325,
          "velocity": 0.5039370078740157
        },
        {
          "duration": 0.09712828124999984,
          "durationTicks": 23,
          "midi": 36,
          "name": "C2",
          "ticks": 648,
          "time": 2.73648375,
          "velocity": 0.5039370078740157
        },
        {
          "duration": 0.09712828124999984,
          "durationTicks": 23,
          "midi": 40,
          "name": "E2",
          "ticks": 672,
          "time": 2.837835,
          "velocity": 0.5039370078740157
        },
        {
          "duration": 0.09712828124999984,
          "durationTicks": 23,
          "midi": 36,
          "name": "C2",
          "ticks": 696,
          "time": 2.93918625,
          "velocity": 0.5039370078740157
        },
        {
          "duration": 0.09712828124999984,
          "durationTicks": 23,
          "midi": 36,
          "name": "C2",
          "ticks": 744,
          "time": 3.14188875,
          "velocity": 0.5039370078740157
        },
        {
          "duration": 0.19003359374999995,
          "durationTicks": 45,
          "midi": 36,
          "name": "C2",
          "ticks": 768,
          "time": 3.24324,
          "velocity": 0.5039370078740157
        },
        {
          "duration": 0.09712828125000028,
          "durationTicks": 23,
          "midi": 36,
          "name": "C2",
          "ticks": 816,
          "time": 3.4459425,
          "velocity": 0.5039370078740157
        },
        {
          "duration": 0.09712828125000028,
          "durationTicks": 23,
          "midi": 36,
          "name": "C2",
          "ticks": 840,
          "time": 3.54729375,
          "velocity": 0.5039370078740157
        },
        {
          "duration": 0.19003359374999995,
          "durationTicks": 45,
          "midi": 40,
          "name": "E2",
          "ticks": 864,
          "time": 3.648645,
          "velocity": 0.5039370078740157
        },
        {
          "duration": 0.19003359374999995,
          "durationTicks": 45,
          "midi": 36,
          "name": "C2",
          "ticks": 912,
          "time": 3.8513475,
          "velocity": 0.5039370078740157
        },
        {
          "duration": 0.09712828124999984,
          "durationTicks": 23,
          "midi": 40,
          "name": "E2",
          "ticks": 984,
          "time": 4.155401250000001,
          "velocity": 0.5039370078740157
        },
        {
          "duration": 0.09712828124999984,
          "durationTicks": 23,
          "midi": 36,
          "name": "C2",
          "ticks": 1008,
          "time": 4.2567525,
          "velocity": 0.5039370078740157
        },
        {
          "duration": 0.09712828125000073,
          "durationTicks": 23,
          "midi": 36,
          "name": "C2",
          "ticks": 1032,
          "time": 4.35810375,
          "velocity": 0.5039370078740157
        },
        {
          "duration": 0.19003359374999995,
          "durationTicks": 45,
          "midi": 40,
          "name": "E2",
          "ticks": 1056,
          "time": 4.459455,
          "velocity": 0.5039370078740157
        },
        {
          "duration": 0.09712828125000073,
          "durationTicks": 23,
          "midi": 36,
          "name": "C2",
          "ticks": 1128,
          "time": 4.76350875,
          "velocity": 0.5039370078740157
        },
        {
          "duration": 0.19003359374999995,
          "durationTicks": 45,
          "midi": 36,
          "name": "C2",
          "ticks": 1152,
          "time": 4.86486,
          "velocity": 0.5039370078740157
        },
        {
          "duration": 0.09712828125000073,
          "durationTicks": 23,
          "midi": 36,
          "name": "C2",
          "ticks": 1224,
          "time": 5.16891375,
          "velocity": 0.5039370078740157
        },
        {
          "duration": 0.19003359374999995,
          "durationTicks": 45,
          "midi": 40,
          "name": "E2",
          "ticks": 1296,
          "time": 5.4729675,
          "velocity": 0.5039370078740157
        },
        {
          "duration": 0.09712828124999984,
          "durationTicks": 23,
          "midi": 40,
          "name": "E2",
          "ticks": 1368,
          "time": 5.777021250000001,
          "velocity": 0.5039370078740157
        },
        {
          "duration": 0.09712828124999984,
          "durationTicks": 23,
          "midi": 36,
          "name": "C2",
          "ticks": 1392,
          "time": 5.8783725,
          "velocity": 0.5039370078740157
        },
        {
          "duration": 0.09712828125000073,
          "durationTicks": 23,
          "midi": 36,
          "name": "C2",
          "ticks": 1416,
          "time": 5.97972375,
          "velocity": 0.5039370078740157
        },
        {
          "duration": 0.09712828124999984,
          "durationTicks": 23,
          "midi": 40,
          "name": "E2",
          "ticks": 1440,
          "time": 6.081075,
          "velocity": 0.5039370078740157
        },
        {
          "duration": 0.09712828124999984,
          "durationTicks": 23,
          "midi": 36,
          "name": "C2",
          "ticks": 1464,
          "time": 6.182426250000001,
          "velocity": 0.5039370078740157
        },
        {
          "duration": 0.09712828125000073,
          "durationTicks": 23,
          "midi": 36,
          "name": "C2",
          "ticks": 1512,
          "time": 6.38512875,
          "velocity": 0.5039370078740157
        },
        {
          "duration": 0.3758442187499993,
          "durationTicks": 89,
          "midi": 36,
          "name": "C2",
          "ticks": 1536,
          "time": 6.48648,
          "velocity": 0.5039370078740157
        },
        {
          "duration": 0.19003359374999995,
          "durationTicks": 45,
          "midi": 40,
          "name": "E2",
          "ticks": 1632,
          "time": 6.891885,
          "velocity": 0.5039370078740157
        },
        {
          "duration": 0.19003359374999995,
          "durationTicks": 45,
          "midi": 36,
          "name": "C2",
          "ticks": 1680,
          "time": 7.0945875,
          "velocity": 0.5039370078740157
        },
        {
          "duration": 0.09712828124999984,
          "durationTicks": 23,
          "midi": 36,
          "name": "C2",
          "ticks": 1800,
          "time": 7.60134375,
          "velocity": 0.5039370078740157
        },
        {
          "duration": 0.09712828124999984,
          "durationTicks": 23,
          "midi": 40,
          "name": "E2",
          "ticks": 1824,
          "time": 7.702695,
          "velocity": 0.5039370078740157
        },
        {
          "duration": 0.09712828124999895,
          "durationTicks": 23,
          "midi": 36,
          "name": "C2",
          "ticks": 1848,
          "time": 7.804046250000001,
          "velocity": 0.5039370078740157
        },
        {
          "duration": 0.19003359374999995,
          "durationTicks": 45,
          "midi": 36,
          "name": "C2",
          "ticks": 1920,
          "time": 8.1081,
          "velocity": 0.5039370078740157
        },
        {
          "duration": 0.09712828124999895,
          "durationTicks": 23,
          "midi": 36,
          "name": "C2",
          "ticks": 1968,
          "time": 8.310802500000001,
          "velocity": 0.5039370078740157
        },
        {
          "duration": 0.09712828125000073,
          "durationTicks": 23,
          "midi": 36,
          "name": "C2",
          "ticks": 1992,
          "time": 8.41215375,
          "velocity": 0.5039370078740157
        },
        {
          "duration": 0.19003359375000173,
          "durationTicks": 45,
          "midi": 36,
          "name": "C2",
          "ticks": 2064,
          "time": 8.7162075,
          "velocity": 0.5039370078740157
        },
        {
          "duration": 0.3758442187500002,
          "durationTicks": 89,
          "midi": 40,
          "name": "E2",
          "ticks": 2208,
          "time": 9.324315,
          "velocity": 0.5039370078740157
        },
        {
          "duration": 0.19003359374999995,
          "durationTicks": 45,
          "midi": 36,
          "name": "C2",
          "ticks": 2304,
          "time": 9.72972,
          "velocity": 0.5039370078740157
        },
        {
          "duration": 0.19003359374999995,
          "durationTicks": 45,
          "midi": 36,
          "name": "C2",
          "ticks": 2352,
          "time": 9.932422500000001,
          "velocity": 0.5039370078740157
        },
        {
          "duration": 0.19003359374999995,
          "durationTicks": 45,
          "midi": 40,
          "name": "E2",
          "ticks": 2400,
          "time": 10.135125,
          "velocity": 0.5039370078740157
        },
        {
          "duration": 0.19003359375000173,
          "durationTicks": 45,
          "midi": 36,
          "name": "C2",
          "ticks": 2448,
          "time": 10.3378275,
          "velocity": 0.5039370078740157
        },
        {
          "duration": 0.09712828124999895,
          "durationTicks": 23,
          "midi": 40,
          "name": "E2",
          "ticks": 2592,
          "time": 10.945935,
          "velocity": 0.5039370078740157
        },
        {
          "duration": 0.09712828124999895,
          "durationTicks": 23,
          "midi": 36,
          "name": "C2",
          "ticks": 2616,
          "time": 11.04728625,
          "velocity": 0.5039370078740157
        },
        {
          "duration": 0.09712828125000073,
          "durationTicks": 23,
          "midi": 36,
          "name": "C2",
          "ticks": 2664,
          "time": 11.24998875,
          "velocity": 0.5039370078740157
        },
        {
          "duration": 0.19003359374999995,
          "durationTicks": 45,
          "midi": 36,
          "name": "C2",
          "ticks": 2688,
          "time": 11.35134,
          "velocity": 0.5039370078740157
        },
        {
          "duration": 0.09712828124999895,
          "durationTicks": 23,
          "midi": 36,
          "name": "C2",
          "ticks": 2736,
          "time": 11.554042500000001,
          "velocity": 0.5039370078740157
        },
        {
          "duration": 0.09712828125000073,
          "durationTicks": 23,
          "midi": 36,
          "name": "C2",
          "ticks": 2760,
          "time": 11.65539375,
          "velocity": 0.5039370078740157
        },
        {
          "duration": 0.19003359375000173,
          "durationTicks": 45,
          "midi": 36,
          "name": "C2",
          "ticks": 2832,
          "time": 11.9594475,
          "velocity": 0.5039370078740157
        },
        {
          "duration": 0.09712828124999895,
          "durationTicks": 23,
          "midi": 40,
          "name": "E2",
          "ticks": 2904,
          "time": 12.263501250000001,
          "velocity": 0.5039370078740157
        },
        {
          "duration": 0.09712828124999895,
          "durationTicks": 23,
          "midi": 36,
          "name": "C2",
          "ticks": 2928,
          "time": 12.364852500000001,
          "velocity": 0.5039370078740157
        },
        {
          "duration": 0.09712828125000073,
          "durationTicks": 23,
          "midi": 36,
          "name": "C2",
          "ticks": 2952,
          "time": 12.46620375,
          "velocity": 0.5039370078740157
        },
        {
          "duration": 0.09712828124999895,
          "durationTicks": 23,
          "midi": 40,
          "name": "E2",
          "ticks": 2976,
          "time": 12.567555,
          "velocity": 0.5039370078740157
        },
        {
          "duration": 0.09712828124999895,
          "durationTicks": 23,
          "midi": 36,
          "name": "C2",
          "ticks": 3000,
          "time": 12.668906250000001,
          "velocity": 0.5039370078740157
        },
        {
          "duration": 0.09712828125000073,
          "durationTicks": 23,
          "midi": 36,
          "name": "C2",
          "ticks": 3048,
          "time": 12.87160875,
          "velocity": 0.5039370078740157
        },
        {
          "duration": 0.19003359374999995,
          "durationTicks": 45,
          "midi": 36,
          "name": "C2",
          "ticks": 3072,
          "time": 12.97296,
          "velocity": 0.5039370078740157
        },
        {
          "duration": 0.09712828125000073,
          "durationTicks": 23,
          "midi": 36,
          "name": "C2",
          "ticks": 3120,
          "time": 13.175662500000001,
          "velocity": 0.5039370078740157
        },
        {
          "duration": 0.09712828125000073,
          "durationTicks": 23,
          "midi": 36,
          "name": "C2",
          "ticks": 3144,
          "time": 13.27701375,
          "velocity": 0.5039370078740157
        },
        {
          "duration": 0.19003359374999995,
          "durationTicks": 45,
          "midi": 40,
          "name": "E2",
          "ticks": 3168,
          "time": 13.378365,
          "velocity": 0.5039370078740157
        },
        {
          "duration": 0.19003359375000173,
          "durationTicks": 45,
          "midi": 36,
          "name": "C2",
          "ticks": 3216,
          "time": 13.5810675,
          "velocity": 0.5039370078740157
        },
        {
          "duration": 0.09712828125000073,
          "durationTicks": 23,
          "midi": 40,
          "name": "E2",
          "ticks": 3288,
          "time": 13.885121250000001,
          "velocity": 0.5039370078740157
        },
        {
          "duration": 0.09712828125000073,
          "durationTicks": 23,
          "midi": 36,
          "name": "C2",
          "ticks": 3312,
          "time": 13.986472500000001,
          "velocity": 0.5039370078740157
        },
        {
          "duration": 0.09712828125000073,
          "durationTicks": 23,
          "midi": 36,
          "name": "C2",
          "ticks": 3336,
          "time": 14.08782375,
          "velocity": 0.5039370078740157
        },
        {
          "duration": 0.09712828125000073,
          "durationTicks": 23,
          "midi": 40,
          "name": "E2",
          "ticks": 3360,
          "time": 14.189175,
          "velocity": 0.5039370078740157
        },
        {
          "duration": 0.09712828125000073,
          "durationTicks": 23,
          "midi": 36,
          "name": "C2",
          "ticks": 3384,
          "time": 14.290526250000001,
          "velocity": 0.5039370078740157
        },
        {
          "duration": 0.09712828125000073,
          "durationTicks": 23,
          "midi": 36,
          "name": "C2",
          "ticks": 3432,
          "time": 14.49322875,
          "velocity": 0.5039370078740157
        },
        {
          "duration": 0.19003359374999995,
          "durationTicks": 45,
          "midi": 36,
          "name": "C2",
          "ticks": 3456,
          "time": 14.59458,
          "velocity": 0.5039370078740157
        },
        {
          "duration": 0.09712828125000073,
          "durationTicks": 23,
          "midi": 36,
          "name": "C2",
          "ticks": 3504,
          "time": 14.797282500000001,
          "velocity": 0.5039370078740157
        },
        {
          "duration": 0.09712828125000073,
          "durationTicks": 23,
          "midi": 36,
          "name": "C2",
          "ticks": 3528,
          "time": 14.89863375,
          "velocity": 0.5039370078740157
        },
        {
          "duration": 0.19003359375000173,
          "durationTicks": 45,
          "midi": 36,
          "name": "C2",
          "ticks": 3600,
          "time": 15.2026875,
          "velocity": 0.5039370078740157
        },
        {
          "duration": 0.09712828125000073,
          "durationTicks": 23,
          "midi": 40,
          "name": "E2",
          "ticks": 3672,
          "time": 15.506741250000001,
          "velocity": 0.5039370078740157
        },
        {
          "duration": 0.09712828125000073,
          "durationTicks": 23,
          "midi": 36,
          "name": "C2",
          "ticks": 3696,
          "time": 15.608092500000001,
          "velocity": 0.5039370078740157
        },
        {
          "duration": 0.09712828125000073,
          "durationTicks": 23,
          "midi": 36,
          "name": "C2",
          "ticks": 3720,
          "time": 15.70944375,
          "velocity": 0.5039370078740157
        },
        {
          "duration": 0.09712828124999895,
          "durationTicks": 23,
          "midi": 36,
          "name": "C2",
          "ticks": 3768,
          "time": 15.912146250000001,
          "velocity": 0.2677165354330709
        },
        {
          "duration": 0.09712828125000073,
          "durationTicks": 23,
          "midi": 36,
          "name": "C2",
          "ticks": 3816,
          "time": 16.11484875,
          "velocity": 0.5039370078740157
        },
        {
          "duration": 0.3758442187500002,
          "durationTicks": 89,
          "midi": 36,
          "name": "C2",
          "ticks": 3840,
          "time": 16.2162,
          "velocity": 0.5039370078740157
        },
        {
          "duration": 0.19003359374999818,
          "durationTicks": 45,
          "midi": 36,
          "name": "C2",
          "ticks": 3936,
          "time": 16.621605000000002,
          "velocity": 0.5039370078740157
        },
        {
          "duration": 0.19003359375000173,
          "durationTicks": 45,
          "midi": 36,
          "name": "C2",
          "ticks": 3984,
          "time": 16.8243075,
          "velocity": 0.5039370078740157
        },
        {
          "duration": 0.09712828125000073,
          "durationTicks": 23,
          "midi": 40,
          "name": "E2",
          "ticks": 4056,
          "time": 17.12836125,
          "velocity": 0.5039370078740157
        },
        {
          "duration": 0.09712828125000073,
          "durationTicks": 23,
          "midi": 36,
          "name": "C2",
          "ticks": 4080,
          "time": 17.2297125,
          "velocity": 0.5039370078740157
        },
        {
          "duration": 0.09712828125000073,
          "durationTicks": 23,
          "midi": 36,
          "name": "C2",
          "ticks": 4104,
          "time": 17.331063750000002,
          "velocity": 0.5039370078740157
        },
        {
          "duration": 0.09712828125000428,
          "durationTicks": 23,
          "midi": 40,
          "name": "E2",
          "ticks": 4128,
          "time": 17.432415,
          "velocity": 0.5039370078740157
        },
        {
          "duration": 0.09712828125000073,
          "durationTicks": 23,
          "midi": 36,
          "name": "C2",
          "ticks": 4152,
          "time": 17.53376625,
          "velocity": 0.5039370078740157
        },
        {
          "duration": 0.09712828125000073,
          "durationTicks": 23,
          "midi": 36,
          "name": "C2",
          "ticks": 4200,
          "time": 17.73646875,
          "velocity": 0.5039370078740157
        },
        {
          "duration": 0.09712828125000073,
          "durationTicks": 23,
          "midi": 36,
          "name": "C2",
          "ticks": 4248,
          "time": 17.93917125,
          "velocity": 0.5039370078740157
        },
        {
          "duration": 0.09712828125000073,
          "durationTicks": 23,
          "midi": 36,
          "name": "C2",
          "ticks": 4272,
          "time": 18.0405225,
          "velocity": 0.5039370078740157
        },
        {
          "duration": 0.09712828125000073,
          "durationTicks": 23,
          "midi": 36,
          "name": "C2",
          "ticks": 4296,
          "time": 18.141873750000002,
          "velocity": 0.5039370078740157
        },
        {
          "duration": 0.09712828125000073,
          "durationTicks": 23,
          "midi": 40,
          "name": "E2",
          "ticks": 4344,
          "time": 18.34457625,
          "velocity": 0.5039370078740157
        },
        {
          "duration": 0.09712828125000073,
          "durationTicks": 23,
          "midi": 36,
          "name": "C2",
          "ticks": 4368,
          "time": 18.4459275,
          "velocity": 0.5039370078740157
        },
        {
          "duration": 0.09712828125000073,
          "durationTicks": 23,
          "midi": 36,
          "name": "C2",
          "ticks": 4392,
          "time": 18.54727875,
          "velocity": 0.5039370078740157
        },
        {
          "duration": 0.09712828125000073,
          "durationTicks": 23,
          "midi": 40,
          "name": "E2",
          "ticks": 4440,
          "time": 18.74998125,
          "velocity": 0.5039370078740157
        },
        {
          "duration": 0.09712828125000073,
          "durationTicks": 23,
          "midi": 36,
          "name": "C2",
          "ticks": 4464,
          "time": 18.8513325,
          "velocity": 0.5039370078740157
        },
        {
          "duration": 0.09712828125000073,
          "durationTicks": 23,
          "midi": 36,
          "name": "C2",
          "ticks": 4488,
          "time": 18.952683750000002,
          "velocity": 0.5039370078740157
        },
        {
          "duration": 0.09712828125000428,
          "durationTicks": 23,
          "midi": 40,
          "name": "E2",
          "ticks": 4512,
          "time": 19.054035,
          "velocity": 0.5039370078740157
        },
        {
          "duration": 0.09712828125000073,
          "durationTicks": 23,
          "midi": 36,
          "name": "C2",
          "ticks": 4536,
          "time": 19.15538625,
          "velocity": 0.5039370078740157
        },
        {
          "duration": 0.09712828125000073,
          "durationTicks": 23,
          "midi": 36,
          "name": "C2",
          "ticks": 4584,
          "time": 19.35808875,
          "velocity": 0.5039370078740157
        },
        {
          "duration": 0.09712828125000073,
          "durationTicks": 23,
          "midi": 36,
          "name": "C2",
          "ticks": 4608,
          "time": 19.45944,
          "velocity": 0.5039370078740157
        },
        {
          "duration": 0.09712828125000073,
          "durationTicks": 23,
          "midi": 40,
          "name": "E2",
          "ticks": 4632,
          "time": 19.56079125,
          "velocity": 0.2677165354330709
        },
        {
          "duration": 0.3758442187500002,
          "durationTicks": 89,
          "midi": 40,
          "name": "E2",
          "ticks": 4704,
          "time": 19.864845000000003,
          "velocity": 0.5039370078740157
        },
        {
          "duration": 0.19003359375000173,
          "durationTicks": 45,
          "midi": 40,
          "name": "E2",
          "ticks": 4800,
          "time": 20.27025,
          "velocity": 0.5039370078740157
        },
        {
          "duration": 0.09712828125000073,
          "durationTicks": 23,
          "midi": 40,
          "name": "E2",
          "ticks": 4848,
          "time": 20.4729525,
          "velocity": 0.5039370078740157
        },
        {
          "duration": 0.09712828125000073,
          "durationTicks": 23,
          "midi": 40,
          "name": "E2",
          "ticks": 4872,
          "time": 20.574303750000002,
          "velocity": 0.5039370078740157
        },
        {
          "duration": 0.09712828125000073,
          "durationTicks": 23,
          "midi": 40,
          "name": "E2",
          "ticks": 4920,
          "time": 20.77700625,
          "velocity": 0.5039370078740157
        },
        {
          "duration": 0.09712828125000073,
          "durationTicks": 23,
          "midi": 40,
          "name": "E2",
          "ticks": 4968,
          "time": 20.97970875,
          "velocity": 0.5039370078740157
        },
        {
          "duration": 0.19003359375000173,
          "durationTicks": 45,
          "midi": 36,
          "name": "C2",
          "ticks": 4992,
          "time": 21.08106,
          "velocity": 0.2677165354330709
        },
        {
          "duration": 0.09712828125000073,
          "durationTicks": 23,
          "midi": 36,
          "name": "C2",
          "ticks": 5040,
          "time": 21.2837625,
          "velocity": 0.5039370078740157
        },
        {
          "duration": 0.09712828125000073,
          "durationTicks": 23,
          "midi": 36,
          "name": "C2",
          "ticks": 5064,
          "time": 21.385113750000002,
          "velocity": 0.5039370078740157
        },
        {
          "duration": 0.19003359374999818,
          "durationTicks": 45,
          "midi": 40,
          "name": "E2",
          "ticks": 5088,
          "time": 21.486465000000003,
          "velocity": 0.5039370078740157
        },
        {
          "duration": 0.19003359375000173,
          "durationTicks": 45,
          "midi": 36,
          "name": "C2",
          "ticks": 5136,
          "time": 21.6891675,
          "velocity": 0.5039370078740157
        },
        {
          "duration": 0.09712828125000073,
          "durationTicks": 23,
          "midi": 40,
          "name": "E2",
          "ticks": 5208,
          "time": 21.99322125,
          "velocity": 0.14960629921259844
        },
        {
          "duration": 0.09712828125000073,
          "durationTicks": 23,
          "midi": 40,
          "name": "E2",
          "ticks": 5232,
          "time": 22.0945725,
          "velocity": 0.2677165354330709
        },
        {
          "duration": 0.09712828125000073,
          "durationTicks": 23,
          "midi": 40,
          "name": "E2",
          "ticks": 5256,
          "time": 22.195923750000002,
          "velocity": 0.3858267716535433
        },
        {
          "duration": 0.09712828125000428,
          "durationTicks": 23,
          "midi": 40,
          "name": "E2",
          "ticks": 5280,
          "time": 22.297275,
          "velocity": 0.5039370078740157
        },
        {
          "duration": 0.09712828125000073,
          "durationTicks": 23,
          "midi": 36,
          "name": "C2",
          "ticks": 5304,
          "time": 22.39862625,
          "velocity": 0.5039370078740157
        },
        {
          "duration": 0.09712828125000073,
          "durationTicks": 23,
          "midi": 36,
          "name": "C2",
          "ticks": 5352,
          "time": 22.60132875,
          "velocity": 0.5039370078740157
        },
        {
          "duration": 0.19003359375000173,
          "durationTicks": 45,
          "midi": 36,
          "name": "C2",
          "ticks": 5376,
          "time": 22.70268,
          "velocity": 0.5039370078740157
        },
        {
          "duration": 0.09712828125000073,
          "durationTicks": 23,
          "midi": 36,
          "name": "C2",
          "ticks": 5424,
          "time": 22.9053825,
          "velocity": 0.5039370078740157
        },
        {
          "duration": 0.09712828125000073,
          "durationTicks": 23,
          "midi": 36,
          "name": "C2",
          "ticks": 5448,
          "time": 23.006733750000002,
          "velocity": 0.5039370078740157
        },
        {
          "duration": 0.19003359374999818,
          "durationTicks": 45,
          "midi": 40,
          "name": "E2",
          "ticks": 5472,
          "time": 23.108085000000003,
          "velocity": 0.5039370078740157
        },
        {
          "duration": 0.19003359375000173,
          "durationTicks": 45,
          "midi": 36,
          "name": "C2",
          "ticks": 5520,
          "time": 23.3107875,
          "velocity": 0.5039370078740157
        },
        {
          "duration": 0.025337812499998336,
          "durationTicks": 6,
          "midi": 40,
          "name": "E2",
          "ticks": 5568,
          "time": 23.51349,
          "velocity": 0.5039370078740157
        },
        {
          "duration": 0.02533781250000189,
          "durationTicks": 6,
          "midi": 40,
          "name": "E2",
          "ticks": 5574,
          "time": 23.5388278125,
          "velocity": 0.5039370078740157
        },
        {
          "duration": 0.025337812499998336,
          "durationTicks": 6,
          "midi": 40,
          "name": "E2",
          "ticks": 5580,
          "time": 23.564165625,
          "velocity": 0.4330708661417323
        },
        {
          "duration": 0.02533781250000189,
          "durationTicks": 6,
          "midi": 40,
          "name": "E2",
          "ticks": 5586,
          "time": 23.5895034375,
          "velocity": 0.36220472440944884
        },
        {
          "duration": 0.025337812499998336,
          "durationTicks": 6,
          "midi": 40,
          "name": "E2",
          "ticks": 5592,
          "time": 23.61484125,
          "velocity": 0.2992125984251969
        },
        {
          "duration": 0.02533781250000189,
          "durationTicks": 6,
          "midi": 40,
          "name": "E2",
          "ticks": 5598,
          "time": 23.6401790625,
          "velocity": 0.2283464566929134
        },
        {
          "duration": 0.025337812499998336,
          "durationTicks": 6,
          "midi": 40,
          "name": "E2",
          "ticks": 5604,
          "time": 23.665516875,
          "velocity": 0.16535433070866143
        },
        {
          "duration": 0.02533781250000189,
          "durationTicks": 6,
          "midi": 40,
          "name": "E2",
          "ticks": 5610,
          "time": 23.6908546875,
          "velocity": 0.09448818897637795
        },
        {
          "duration": 0.09712828125000073,
          "durationTicks": 23,
          "midi": 36,
          "name": "C2",
          "ticks": 5616,
          "time": 23.716192500000002,
          "velocity": 0.031496062992125984
        },
        {
          "duration": 0.09712828125000073,
          "durationTicks": 23,
          "midi": 36,
          "name": "C2",
          "ticks": 5640,
          "time": 23.817543750000002,
          "velocity": 0.5039370078740157
        },
        {
          "duration": 0.09712828125000073,
          "durationTicks": 23,
          "midi": 36,
          "name": "C2",
          "ticks": 5688,
          "time": 24.02024625,
          "velocity": 0.5039370078740157
        },
        {
          "duration": 0.19003359375000173,
          "durationTicks": 45,
          "midi": 36,
          "name": "C2",
          "ticks": 5760,
          "time": 24.3243,
          "velocity": 0.5039370078740157
        },
        {
          "duration": 0.09712828125000073,
          "durationTicks": 23,
          "midi": 36,
          "name": "C2",
          "ticks": 5808,
          "time": 24.527002500000002,
          "velocity": 0.5039370078740157
        },
        {
          "duration": 0.09712828125000073,
          "durationTicks": 23,
          "midi": 36,
          "name": "C2",
          "ticks": 5832,
          "time": 24.628353750000002,
          "velocity": 0.5039370078740157
        },
        {
          "duration": 0.025337812499998336,
          "durationTicks": 6,
          "midi": 40,
          "name": "E2",
          "ticks": 5856,
          "time": 24.729705000000003,
          "velocity": 0.5039370078740157
        },
        {
          "duration": 0.025337812499998336,
          "durationTicks": 6,
          "midi": 40,
          "name": "E2",
          "ticks": 5862,
          "time": 24.7550428125,
          "velocity": 0.47244094488188976
        },
        {
          "duration": 0.02533781250000189,
          "durationTicks": 6,
          "midi": 40,
          "name": "E2",
          "ticks": 5868,
          "time": 24.780380625,
          "velocity": 0.4409448818897638
        },
        {
          "duration": 0.025337812499998336,
          "durationTicks": 6,
          "midi": 40,
          "name": "E2",
          "ticks": 5874,
          "time": 24.8057184375,
          "velocity": 0.4094488188976378
        },
        {
          "duration": 0.02533781250000189,
          "durationTicks": 6,
          "midi": 40,
          "name": "E2",
          "ticks": 5880,
          "time": 24.83105625,
          "velocity": 0.3858267716535433
        },
        {
          "duration": 0.025337812499998336,
          "durationTicks": 6,
          "midi": 40,
          "name": "E2",
          "ticks": 5886,
          "time": 24.8563940625,
          "velocity": 0.3543307086614173
        },
        {
          "duration": 0.02533781250000189,
          "durationTicks": 6,
          "midi": 40,
          "name": "E2",
          "ticks": 5892,
          "time": 24.881731875,
          "velocity": 0.3228346456692913
        },
        {
          "duration": 0.025337812499998336,
          "durationTicks": 6,
          "midi": 40,
          "name": "E2",
          "ticks": 5898,
          "time": 24.9070696875,
          "velocity": 0.29133858267716534
        },
        {
          "duration": 0.025337812499998336,
          "durationTicks": 6,
          "midi": 40,
          "name": "E2",
          "ticks": 5952,
          "time": 25.13511,
          "velocity": 0.5039370078740157
        },
        {
          "duration": 0.02533781250000189,
          "durationTicks": 6,
          "midi": 40,
          "name": "E2",
          "ticks": 5958,
          "time": 25.1604478125,
          "velocity": 0.47244094488188976
        },
        {
          "duration": 0.025337812499998336,
          "durationTicks": 6,
          "midi": 40,
          "name": "E2",
          "ticks": 5964,
          "time": 25.185785625,
          "velocity": 0.4409448818897638
        },
        {
          "duration": 0.02533781250000189,
          "durationTicks": 6,
          "midi": 40,
          "name": "E2",
          "ticks": 5970,
          "time": 25.2111234375,
          "velocity": 0.4094488188976378
        },
        {
          "duration": 0.025337812499998336,
          "durationTicks": 6,
          "midi": 40,
          "name": "E2",
          "ticks": 5976,
          "time": 25.23646125,
          "velocity": 0.3858267716535433
        },
        {
          "duration": 0.02533781250000189,
          "durationTicks": 6,
          "midi": 40,
          "name": "E2",
          "ticks": 5982,
          "time": 25.2617990625,
          "velocity": 0.3543307086614173
        },
        {
          "duration": 0.025337812499998336,
          "durationTicks": 6,
          "midi": 40,
          "name": "E2",
          "ticks": 5988,
          "time": 25.287136875,
          "velocity": 0.3228346456692913
        },
        {
          "duration": 0.02533781250000189,
          "durationTicks": 6,
          "midi": 40,
          "name": "E2",
          "ticks": 5994,
          "time": 25.3124746875,
          "velocity": 0.29133858267716534
        },
        {
          "duration": 0.025337812499998336,
          "durationTicks": 6,
          "midi": 40,
          "name": "E2",
          "ticks": 6000,
          "time": 25.337812500000002,
          "velocity": 0.5039370078740157
        },
        {
          "duration": 0.02533781250000189,
          "durationTicks": 6,
          "midi": 40,
          "name": "E2",
          "ticks": 6006,
          "time": 25.3631503125,
          "velocity": 0.47244094488188976
        },
        {
          "duration": 0.025337812499998336,
          "durationTicks": 6,
          "midi": 40,
          "name": "E2",
          "ticks": 6012,
          "time": 25.388488125000002,
          "velocity": 0.4409448818897638
        },
        {
          "duration": 0.02533781250000189,
          "durationTicks": 6,
          "midi": 40,
          "name": "E2",
          "ticks": 6018,
          "time": 25.4138259375,
          "velocity": 0.4094488188976378
        },
        {
          "duration": 0.025337812499998336,
          "durationTicks": 6,
          "midi": 40,
          "name": "E2",
          "ticks": 6024,
          "time": 25.439163750000002,
          "velocity": 0.3858267716535433
        },
        {
          "duration": 0.02533781250000189,
          "durationTicks": 6,
          "midi": 40,
          "name": "E2",
          "ticks": 6030,
          "time": 25.4645015625,
          "velocity": 0.3543307086614173
        },
        {
          "duration": 0.025337812499998336,
          "durationTicks": 6,
          "midi": 40,
          "name": "E2",
          "ticks": 6036,
          "time": 25.489839375000003,
          "velocity": 0.3228346456692913
        },
        {
          "duration": 0.025337812499998336,
          "durationTicks": 6,
          "midi": 40,
          "name": "E2",
          "ticks": 6042,
          "time": 25.5151771875,
          "velocity": 0.29133858267716534
        },
        {
          "duration": 0.02533781250000189,
          "durationTicks": 6,
          "midi": 40,
          "name": "E2",
          "ticks": 6048,
          "time": 25.540515,
          "velocity": 0.6692913385826772
        },
        {
          "duration": 0.025337812499998336,
          "durationTicks": 6,
          "midi": 40,
          "name": "E2",
          "ticks": 6054,
          "time": 25.5658528125,
          "velocity": 0.5748031496062992
        },
        {
          "duration": 0.02533781250000189,
          "durationTicks": 6,
          "midi": 40,
          "name": "E2",
          "ticks": 6060,
          "time": 25.591190625,
          "velocity": 0.48031496062992124
        },
        {
          "duration": 0.025337812499998336,
          "durationTicks": 6,
          "midi": 40,
          "name": "E2",
          "ticks": 6066,
          "time": 25.6165284375,
          "velocity": 0.3858267716535433
        },
        {
          "duration": 0.02533781250000189,
          "durationTicks": 6,
          "midi": 40,
          "name": "E2",
          "ticks": 6072,
          "time": 25.64186625,
          "velocity": 0.3858267716535433
        },
        {
          "duration": 0.025337812499998336,
          "durationTicks": 6,
          "midi": 40,
          "name": "E2",
          "ticks": 6078,
          "time": 25.6672040625,
          "velocity": 0.3858267716535433
        },
        {
          "duration": 0.02533781250000189,
          "durationTicks": 6,
          "midi": 40,
          "name": "E2",
          "ticks": 6084,
          "time": 25.692541875,
          "velocity": 0.3858267716535433
        },
        {
          "duration": 0.025337812499998336,
          "durationTicks": 6,
          "midi": 40,
          "name": "E2",
          "ticks": 6090,
          "time": 25.7178796875,
          "velocity": 0.3858267716535433
        },
        {
          "duration": 0.02533781250000189,
          "durationTicks": 6,
          "midi": 40,
          "name": "E2",
          "ticks": 6096,
          "time": 25.7432175,
          "velocity": 0.3937007874015748
        },
        {
          "duration": 0.025337812499998336,
          "durationTicks": 6,
          "midi": 40,
          "name": "E2",
          "ticks": 6102,
          "time": 25.768555312500002,
          "velocity": 0.4094488188976378
        },
        {
          "duration": 0.050675625000000224,
          "durationTicks": 12,
          "midi": 40,
          "name": "E2",
          "ticks": 6108,
          "time": 25.793893125,
          "velocity": 0.4251968503937008
        },
        {
          "duration": 0.050675625000000224,
          "durationTicks": 12,
          "midi": 40,
          "name": "E2",
          "ticks": 6120,
          "time": 25.84456875,
          "velocity": 0.44881889763779526
        },
        {
          "duration": 0.050675625000000224,
          "durationTicks": 12,
          "midi": 40,
          "name": "E2",
          "ticks": 6132,
          "time": 25.895244375,
          "velocity": 0.47244094488188976
        },
        {
          "duration": 0.37584421874999663,
          "durationTicks": 89,
          "midi": 36,
          "name": "C2",
          "ticks": 6144,
          "time": 25.94592,
          "velocity": 0.5039370078740157
        },
        {
          "duration": 0.19003359374999818,
          "durationTicks": 45,
          "midi": 40,
          "name": "E2",
          "ticks": 6240,
          "time": 26.351325000000003,
          "velocity": 0.5039370078740157
        },
        {
          "duration": 0.19003359375000173,
          "durationTicks": 45,
          "midi": 36,
          "name": "C2",
          "ticks": 6288,
          "time": 26.5540275,
          "velocity": 0.5039370078740157
        },
        {
          "duration": 0.09712828124999717,
          "durationTicks": 23,
          "midi": 36,
          "name": "C2",
          "ticks": 6408,
          "time": 27.060783750000002,
          "velocity": 0.5039370078740157
        },
        {
          "duration": 0.09712828125000073,
          "durationTicks": 23,
          "midi": 40,
          "name": "E2",
          "ticks": 6432,
          "time": 27.162135,
          "velocity": 0.5039370078740157
        },
        {
          "duration": 0.09712828125000073,
          "durationTicks": 23,
          "midi": 36,
          "name": "C2",
          "ticks": 6456,
          "time": 27.26348625,
          "velocity": 0.5039370078740157
        },
        {
          "duration": 0.19003359375000173,
          "durationTicks": 45,
          "midi": 36,
          "name": "C2",
          "ticks": 6528,
          "time": 27.56754,
          "velocity": 0.5039370078740157
        },
        {
          "duration": 0.09712828124999717,
          "durationTicks": 23,
          "midi": 36,
          "name": "C2",
          "ticks": 6576,
          "time": 27.770242500000002,
          "velocity": 0.5039370078740157
        },
        {
          "duration": 0.09712828124999717,
          "durationTicks": 23,
          "midi": 36,
          "name": "C2",
          "ticks": 6600,
          "time": 27.871593750000002,
          "velocity": 0.5039370078740157
        },
        {
          "duration": 0.19003359375000173,
          "durationTicks": 45,
          "midi": 36,
          "name": "C2",
          "ticks": 6672,
          "time": 28.1756475,
          "velocity": 0.5039370078740157
        },
        {
          "duration": 0.3758442187500002,
          "durationTicks": 89,
          "midi": 40,
          "name": "E2",
          "ticks": 6816,
          "time": 28.783755,
          "velocity": 0.5039370078740157
        },
        {
          "duration": 0.37584421874999663,
          "durationTicks": 89,
          "midi": 36,
          "name": "C2",
          "ticks": 6912,
          "time": 29.18916,
          "velocity": 0.5039370078740157
        },
        {
          "duration": 0.19003359374999818,
          "durationTicks": 45,
          "midi": 40,
          "name": "E2",
          "ticks": 7008,
          "time": 29.594565000000003,
          "velocity": 0.5039370078740157
        },
        {
          "duration": 0.19003359375000173,
          "durationTicks": 45,
          "midi": 36,
          "name": "C2",
          "ticks": 7056,
          "time": 29.7972675,
          "velocity": 0.5039370078740157
        },
        {
          "duration": 0.09712828124999717,
          "durationTicks": 23,
          "midi": 36,
          "name": "C2",
          "ticks": 7176,
          "time": 30.304023750000002,
          "velocity": 0.5039370078740157
        },
        {
          "duration": 0.09712828125000073,
          "durationTicks": 23,
          "midi": 40,
          "name": "E2",
          "ticks": 7200,
          "time": 30.405375,
          "velocity": 0.5039370078740157
        },
        {
          "duration": 0.09712828125000073,
          "durationTicks": 23,
          "midi": 36,
          "name": "C2",
          "ticks": 7224,
          "time": 30.50672625,
          "velocity": 0.5039370078740157
        },
        {
          "duration": 0.19003359375000173,
          "durationTicks": 45,
          "midi": 36,
          "name": "C2",
          "ticks": 7296,
          "time": 30.81078,
          "velocity": 0.5039370078740157
        },
        {
          "duration": 0.09712828124999717,
          "durationTicks": 23,
          "midi": 36,
          "name": "C2",
          "ticks": 7344,
          "time": 31.013482500000002,
          "velocity": 0.5039370078740157
        },
        {
          "duration": 0.09712828124999717,
          "durationTicks": 23,
          "midi": 36,
          "name": "C2",
          "ticks": 7368,
          "time": 31.114833750000003,
          "velocity": 0.5039370078740157
        },
        {
          "duration": 0.19003359375000173,
          "durationTicks": 45,
          "midi": 36,
          "name": "C2",
          "ticks": 7440,
          "time": 31.4188875,
          "velocity": 0.5039370078740157
        },
        {
          "duration": 0.37584421874999663,
          "durationTicks": 89,
          "midi": 36,
          "name": "C2",
          "ticks": 7488,
          "time": 31.62159,
          "velocity": 0.5039370078740157
        },
        {
          "duration": 0.37584421874999663,
          "durationTicks": 89,
          "midi": 40,
          "name": "E2",
          "ticks": 7584,
          "time": 32.026995,
          "velocity": 0.5039370078740157
        },
        {
          "duration": 0.37584421874999663,
          "durationTicks": 89,
          "midi": 36,
          "name": "C2",
          "ticks": 7680,
          "time": 32.4324,
          "velocity": 0.5039370078740157
        },
        {
          "duration": 0.19003359375000173,
          "durationTicks": 45,
          "midi": 40,
          "name": "E2",
          "ticks": 7776,
          "time": 32.837805,
          "velocity": 0.5039370078740157
        },
        {
          "duration": 0.19003359374999462,
          "durationTicks": 45,
          "midi": 36,
          "name": "C2",
          "ticks": 7824,
          "time": 33.040507500000004,
          "velocity": 0.5039370078740157
        },
        {
          "duration": 0.09712828125000073,
          "durationTicks": 23,
          "midi": 36,
          "name": "C2",
          "ticks": 7944,
          "time": 33.54726375,
          "velocity": 0.5039370078740157
        },
        {
          "duration": 0.09712828125000073,
          "durationTicks": 23,
          "midi": 40,
          "name": "E2",
          "ticks": 7968,
          "time": 33.648615,
          "velocity": 0.5039370078740157
        },
        {
          "duration": 0.09712828125000073,
          "durationTicks": 23,
          "midi": 36,
          "name": "C2",
          "ticks": 7992,
          "time": 33.74996625,
          "velocity": 0.5039370078740157
        },
        {
          "duration": 0.19003359375000173,
          "durationTicks": 45,
          "midi": 36,
          "name": "C2",
          "ticks": 8064,
          "time": 34.05402,
          "velocity": 0.5039370078740157
        },
        {
          "duration": 0.09712828125000073,
          "durationTicks": 23,
          "midi": 36,
          "name": "C2",
          "ticks": 8112,
          "time": 34.2567225,
          "velocity": 0.3858267716535433
        },
        {
          "duration": 0.09712828124999362,
          "durationTicks": 23,
          "midi": 36,
          "name": "C2",
          "ticks": 8136,
          "time": 34.35807375,
          "velocity": 0.3858267716535433
        },
        {
          "duration": 0.19003359375000173,
          "durationTicks": 45,
          "midi": 36,
          "name": "C2",
          "ticks": 8160,
          "time": 34.459425,
          "velocity": 0.3858267716535433
        },
        {
          "duration": 0.19003359374999462,
          "durationTicks": 45,
          "midi": 36,
          "name": "C2",
          "ticks": 8208,
          "time": 34.662127500000004,
          "velocity": 0.6692913385826772
        },
        {
          "duration": 0.37584421874999663,
          "durationTicks": 89,
          "midi": 40,
          "name": "E2",
          "ticks": 8352,
          "time": 35.270235,
          "velocity": 0.5039370078740157
        },
        {
          "duration": 0.37584421874999663,
          "durationTicks": 89,
          "midi": 36,
          "name": "C2",
          "ticks": 8448,
          "time": 35.67564,
          "velocity": 0.5039370078740157
        },
        {
          "duration": 0.19003359375000173,
          "durationTicks": 45,
          "midi": 40,
          "name": "E2",
          "ticks": 8544,
          "time": 36.081045,
          "velocity": 0.5039370078740157
        },
        {
          "duration": 0.19003359374999462,
          "durationTicks": 45,
          "midi": 36,
          "name": "C2",
          "ticks": 8592,
          "time": 36.283747500000004,
          "velocity": 0.5039370078740157
        },
        {
          "duration": 0.09712828125000073,
          "durationTicks": 23,
          "midi": 36,
          "name": "C2",
          "ticks": 8712,
          "time": 36.79050375,
          "velocity": 0.5039370078740157
        },
        {
          "duration": 0.09712828125000073,
          "durationTicks": 23,
          "midi": 40,
          "name": "E2",
          "ticks": 8736,
          "time": 36.891855,
          "velocity": 0.5039370078740157
        },
        {
          "duration": 0.09712828125000073,
          "durationTicks": 23,
          "midi": 36,
          "name": "C2",
          "ticks": 8760,
          "time": 36.99320625,
          "velocity": 0.5039370078740157
        },
        {
          "duration": 0.19003359375000173,
          "durationTicks": 45,
          "midi": 36,
          "name": "C2",
          "ticks": 8832,
          "time": 37.29726,
          "velocity": 0.5039370078740157
        },
        {
          "duration": 0.09712828125000073,
          "durationTicks": 23,
          "midi": 36,
          "name": "C2",
          "ticks": 8880,
          "time": 37.4999625,
          "velocity": 0.5039370078740157
        },
        {
          "duration": 0.09712828124999362,
          "durationTicks": 23,
          "midi": 36,
          "name": "C2",
          "ticks": 8904,
          "time": 37.60131375,
          "velocity": 0.5039370078740157
        },
        {
          "duration": 0.19003359374999462,
          "durationTicks": 45,
          "midi": 36,
          "name": "C2",
          "ticks": 8976,
          "time": 37.905367500000004,
          "velocity": 0.5039370078740157
        },
        {
          "duration": 0.37584421874999663,
          "durationTicks": 89,
          "midi": 40,
          "name": "E2",
          "ticks": 9120,
          "time": 38.513475,
          "velocity": 0.5039370078740157
        },
        {
          "duration": 0.37584421874999663,
          "durationTicks": 89,
          "midi": 36,
          "name": "C2",
          "ticks": 9216,
          "time": 38.91888,
          "velocity": 0.5039370078740157
        },
        {
          "duration": 0.19003359375000173,
          "durationTicks": 45,
          "midi": 40,
          "name": "E2",
          "ticks": 9312,
          "time": 39.324285,
          "velocity": 0.5039370078740157
        },
        {
          "duration": 0.19003359374999462,
          "durationTicks": 45,
          "midi": 36,
          "name": "C2",
          "ticks": 9360,
          "time": 39.526987500000004,
          "velocity": 0.5039370078740157
        },
        {
          "duration": 0.09712828125000073,
          "durationTicks": 23,
          "midi": 40,
          "name": "E2",
          "ticks": 9504,
          "time": 40.135095,
          "velocity": 0.5039370078740157
        },
        {
          "duration": 0.09712828125000073,
          "durationTicks": 23,
          "midi": 36,
          "name": "C2",
          "ticks": 9528,
          "time": 40.23644625,
          "velocity": 0.5039370078740157
        },
        {
          "duration": 0.19003359375000173,
          "durationTicks": 45,
          "midi": 36,
          "name": "C2",
          "ticks": 9600,
          "time": 40.5405,
          "velocity": 0.5039370078740157
        },
        {
          "duration": 0.09712828125000073,
          "durationTicks": 23,
          "midi": 36,
          "name": "C2",
          "ticks": 9648,
          "time": 40.7432025,
          "velocity": 0.5039370078740157
        },
        {
          "duration": 0.09712828124999362,
          "durationTicks": 23,
          "midi": 36,
          "name": "C2",
          "ticks": 9672,
          "time": 40.84455375,
          "velocity": 0.5039370078740157
        },
        {
          "duration": 0.19003359374999462,
          "durationTicks": 45,
          "midi": 36,
          "name": "C2",
          "ticks": 9744,
          "time": 41.148607500000004,
          "velocity": 0.5039370078740157
        },
        {
          "duration": 0.37584421874999663,
          "durationTicks": 89,
          "midi": 40,
          "name": "E2",
          "ticks": 9888,
          "time": 41.756715,
          "velocity": 0.5039370078740157
        },
        {
          "duration": 0.37584421874999663,
          "durationTicks": 89,
          "midi": 36,
          "name": "C2",
          "ticks": 9984,
          "time": 42.16212,
          "velocity": 0.5039370078740157
        },
        {
          "duration": 0.19003359375000173,
          "durationTicks": 45,
          "midi": 40,
          "name": "E2",
          "ticks": 10080,
          "time": 42.567525,
          "velocity": 0.5039370078740157
        },
        {
          "duration": 0.19003359374999462,
          "durationTicks": 45,
          "midi": 36,
          "name": "C2",
          "ticks": 10128,
          "time": 42.770227500000004,
          "velocity": 0.5039370078740157
        },
        {
          "duration": 0.09712828125000073,
          "durationTicks": 23,
          "midi": 36,
          "name": "C2",
          "ticks": 10248,
          "time": 43.27698375,
          "velocity": 0.5039370078740157
        },
        {
          "duration": 0.09712828125000073,
          "durationTicks": 23,
          "midi": 40,
          "name": "E2",
          "ticks": 10272,
          "time": 43.378335,
          "velocity": 0.5039370078740157
        },
        {
          "duration": 0.09712828125000073,
          "durationTicks": 23,
          "midi": 36,
          "name": "C2",
          "ticks": 10296,
          "time": 43.47968625,
          "velocity": 0.5039370078740157
        },
        {
          "duration": 0.19003359375000173,
          "durationTicks": 45,
          "midi": 36,
          "name": "C2",
          "ticks": 10368,
          "time": 43.78374,
          "velocity": 0.5039370078740157
        },
        {
          "duration": 0.09712828125000073,
          "durationTicks": 23,
          "midi": 36,
          "name": "C2",
          "ticks": 10416,
          "time": 43.9864425,
          "velocity": 0.5039370078740157
        },
        {
          "duration": 0.09712828124999362,
          "durationTicks": 23,
          "midi": 36,
          "name": "C2",
          "ticks": 10440,
          "time": 44.08779375,
          "velocity": 0.5039370078740157
        },
        {
          "duration": 0.19003359374999462,
          "durationTicks": 45,
          "midi": 36,
          "name": "C2",
          "ticks": 10512,
          "time": 44.391847500000004,
          "velocity": 0.5039370078740157
        },
        {
          "duration": 0.37584421874999663,
          "durationTicks": 89,
          "midi": 40,
          "name": "E2",
          "ticks": 10656,
          "time": 44.999955,
          "velocity": 0.5039370078740157
        },
        {
          "duration": 0.37584421874999663,
          "durationTicks": 89,
          "midi": 36,
          "name": "C2",
          "ticks": 10752,
          "time": 45.40536,
          "velocity": 0.5039370078740157
        },
        {
          "duration": 0.19003359375000173,
          "durationTicks": 45,
          "midi": 40,
          "name": "E2",
          "ticks": 10848,
          "time": 45.810765,
          "velocity": 0.5039370078740157
        },
        {
          "duration": 0.19003359374999462,
          "durationTicks": 45,
          "midi": 36,
          "name": "C2",
          "ticks": 10896,
          "time": 46.013467500000004,
          "velocity": 0.5039370078740157
        },
        {
          "duration": 0.09712828125000073,
          "durationTicks": 23,
          "midi": 36,
          "name": "C2",
          "ticks": 11016,
          "time": 46.52022375,
          "velocity": 0.5039370078740157
        },
        {
          "duration": 0.09712828125000073,
          "durationTicks": 23,
          "midi": 40,
          "name": "E2",
          "ticks": 11040,
          "time": 46.621575,
          "velocity": 0.5039370078740157
        },
        {
          "duration": 0.09712828125000073,
          "durationTicks": 23,
          "midi": 36,
          "name": "C2",
          "ticks": 11064,
          "time": 46.72292625,
          "velocity": 0.5039370078740157
        },
        {
          "duration": 0.19003359375000173,
          "durationTicks": 45,
          "midi": 36,
          "name": "C2",
          "ticks": 11136,
          "time": 47.02698,
          "velocity": 0.5039370078740157
        },
        {
          "duration": 0.09712828125000073,
          "durationTicks": 23,
          "midi": 36,
          "name": "C2",
          "ticks": 11184,
          "time": 47.2296825,
          "velocity": 0.5039370078740157
        },
        {
          "duration": 0.09712828124999362,
          "durationTicks": 23,
          "midi": 36,
          "name": "C2",
          "ticks": 11208,
          "time": 47.33103375,
          "velocity": 0.5039370078740157
        },
        {
          "duration": 0.19003359374999462,
          "durationTicks": 45,
          "midi": 36,
          "name": "C2",
          "ticks": 11280,
          "time": 47.635087500000004,
          "velocity": 0.5039370078740157
        },
        {
          "duration": 0.37584421874999663,
          "durationTicks": 89,
          "midi": 40,
          "name": "E2",
          "ticks": 11424,
          "time": 48.243195,
          "velocity": 0.5039370078740157
        },
        {
          "duration": 0.37584421874999663,
          "durationTicks": 89,
          "midi": 36,
          "name": "C2",
          "ticks": 11520,
          "time": 48.6486,
          "velocity": 0.5039370078740157
        },
        {
          "duration": 0.24915515624999784,
          "durationTicks": 59,
          "midi": 40,
          "name": "E2",
          "ticks": 11616,
          "time": 49.054005000000004,
          "velocity": 0.5039370078740157
        },
        {
          "duration": 0.12668906249999878,
          "durationTicks": 30,
          "midi": 36,
          "name": "C2",
          "ticks": 11680,
          "time": 49.32427500000001,
          "velocity": 0.5039370078740157
        },
        {
          "duration": 0.12668906249999878,
          "durationTicks": 30,
          "midi": 36,
          "name": "C2",
          "ticks": 11776,
          "time": 49.72968,
          "velocity": 0.5039370078740157
        },
        {
          "duration": 0.12668906249999878,
          "durationTicks": 30,
          "midi": 40,
          "name": "E2",
          "ticks": 11808,
          "time": 49.864815,
          "velocity": 0.5039370078740157
        },
        {
          "duration": 0.24915515625000495,
          "durationTicks": 59,
          "midi": 36,
          "name": "C2",
          "ticks": 11840,
          "time": 49.99995,
          "velocity": 0.5039370078740157
        },
        {
          "duration": 0.24915515624999784,
          "durationTicks": 59,
          "midi": 36,
          "name": "C2",
          "ticks": 11904,
          "time": 50.27022,
          "velocity": 0.5039370078740157
        },
        {
          "duration": 0.12668906249999878,
          "durationTicks": 30,
          "midi": 36,
          "name": "C2",
          "ticks": 11968,
          "time": 50.540490000000005,
          "velocity": 0.5039370078740157
        },
        {
          "duration": 0.24915515624999784,
          "durationTicks": 59,
          "midi": 40,
          "name": "E2",
          "ticks": 12000,
          "time": 50.675625000000004,
          "velocity": 0.5039370078740157
        },
        {
          "duration": 0.12668906249999878,
          "durationTicks": 30,
          "midi": 36,
          "name": "C2",
          "ticks": 12064,
          "time": 50.94589500000001,
          "velocity": 0.5039370078740157
        },
        {
          "duration": 0.1266890625000059,
          "durationTicks": 30,
          "midi": 40,
          "name": "E2",
          "ticks": 12128,
          "time": 51.216165,
          "velocity": 0.2677165354330709
        },
        {
          "duration": 0.12668906249999878,
          "durationTicks": 30,
          "midi": 40,
          "name": "E2",
          "ticks": 12224,
          "time": 51.62157,
          "velocity": 0.3858267716535433
        },
        {
          "duration": 0.12668906249999878,
          "durationTicks": 30,
          "midi": 36,
          "name": "C2",
          "ticks": 12256,
          "time": 51.756705000000004,
          "velocity": 0.3858267716535433
        },
        {
          "duration": 0.37584421875000373,
          "durationTicks": 89,
          "midi": 36,
          "name": "C2",
          "ticks": 12288,
          "time": 51.89184,
          "velocity": 0.5039370078740157
        },
        {
          "duration": 0.19003359375000173,
          "durationTicks": 45,
          "midi": 40,
          "name": "E2",
          "ticks": 12384,
          "time": 52.297245000000004,
          "velocity": 0.5039370078740157
        },
        {
          "duration": 0.19003359374999462,
          "durationTicks": 45,
          "midi": 36,
          "name": "C2",
          "ticks": 12432,
          "time": 52.499947500000005,
          "velocity": 0.5039370078740157
        },
        {
          "duration": 0.09712828125000783,
          "durationTicks": 23,
          "midi": 40,
          "name": "E2",
          "ticks": 12576,
          "time": 53.108055,
          "velocity": 0.5039370078740157
        },
        {
          "duration": 0.09712828125000783,
          "durationTicks": 23,
          "midi": 36,
          "name": "C2",
          "ticks": 12600,
          "time": 53.20940625,
          "velocity": 0.5039370078740157
        },
        {
          "duration": 0.19003359375000173,
          "durationTicks": 45,
          "midi": 36,
          "name": "C2",
          "ticks": 12672,
          "time": 53.51346,
          "velocity": 0.5039370078740157
        },
        {
          "duration": 0.09712828125000073,
          "durationTicks": 23,
          "midi": 36,
          "name": "C2",
          "ticks": 12720,
          "time": 53.7161625,
          "velocity": 0.5039370078740157
        },
        {
          "duration": 0.09712828125000073,
          "durationTicks": 23,
          "midi": 36,
          "name": "C2",
          "ticks": 12744,
          "time": 53.81751375,
          "velocity": 0.5039370078740157
        },
        {
          "duration": 0.19003359374999462,
          "durationTicks": 45,
          "midi": 36,
          "name": "C2",
          "ticks": 12816,
          "time": 54.121567500000005,
          "velocity": 0.5039370078740157
        },
        {
          "duration": 0.37584421875000373,
          "durationTicks": 89,
          "midi": 40,
          "name": "E2",
          "ticks": 12960,
          "time": 54.729675,
          "velocity": 0.5039370078740157
        },
        {
          "duration": 0.37584421875000373,
          "durationTicks": 89,
          "midi": 36,
          "name": "C2",
          "ticks": 13056,
          "time": 55.13508,
          "velocity": 0.5039370078740157
        },
        {
          "duration": 0.19003359375000173,
          "durationTicks": 45,
          "midi": 40,
          "name": "E2",
          "ticks": 13152,
          "time": 55.540485000000004,
          "velocity": 0.5039370078740157
        },
        {
          "duration": 0.19003359374999462,
          "durationTicks": 45,
          "midi": 36,
          "name": "C2",
          "ticks": 13200,
          "time": 55.743187500000005,
          "velocity": 0.5039370078740157
        },
        {
          "duration": 0.09712828125000783,
          "durationTicks": 23,
          "midi": 36,
          "name": "C2",
          "ticks": 13320,
          "time": 56.24994375,
          "velocity": 0.5039370078740157
        },
        {
          "duration": 0.09712828125000783,
          "durationTicks": 23,
          "midi": 40,
          "name": "E2",
          "ticks": 13344,
          "time": 56.351295,
          "velocity": 0.5039370078740157
        },
        {
          "duration": 0.09712828125000783,
          "durationTicks": 23,
          "midi": 36,
          "name": "C2",
          "ticks": 13368,
          "time": 56.45264625,
          "velocity": 0.5039370078740157
        },
        {
          "duration": 0.19003359375000173,
          "durationTicks": 45,
          "midi": 36,
          "name": "C2",
          "ticks": 13440,
          "time": 56.7567,
          "velocity": 0.5039370078740157
        },
        {
          "duration": 0.09712828125000073,
          "durationTicks": 23,
          "midi": 36,
          "name": "C2",
          "ticks": 13488,
          "time": 56.9594025,
          "velocity": 0.5039370078740157
        },
        {
          "duration": 0.09712828125000073,
          "durationTicks": 23,
          "midi": 36,
          "name": "C2",
          "ticks": 13512,
          "time": 57.06075375,
          "velocity": 0.5039370078740157
        },
        {
          "duration": 0.19003359374999462,
          "durationTicks": 45,
          "midi": 36,
          "name": "C2",
          "ticks": 13584,
          "time": 57.364807500000005,
          "velocity": 0.5039370078740157
        },
        {
          "duration": 0.37584421875000373,
          "durationTicks": 89,
          "midi": 40,
          "name": "E2",
          "ticks": 13728,
          "time": 57.972915,
          "velocity": 0.5039370078740157
        },
        {
          "duration": 0.37584421875000373,
          "durationTicks": 89,
          "midi": 36,
          "name": "C2",
          "ticks": 13824,
          "time": 58.37832,
          "velocity": 0.5039370078740157
        },
        {
          "duration": 0.19003359375000173,
          "durationTicks": 45,
          "midi": 40,
          "name": "E2",
          "ticks": 13920,
          "time": 58.783725000000004,
          "velocity": 0.5039370078740157
        },
        {
          "duration": 0.19003359374999462,
          "durationTicks": 45,
          "midi": 36,
          "name": "C2",
          "ticks": 13968,
          "time": 58.986427500000005,
          "velocity": 0.8346456692913385
        },
        {
          "duration": 0.19003359375000173,
          "durationTicks": 45,
          "midi": 36,
          "name": "C2",
          "ticks": 14208,
          "time": 59.99994,
          "velocity": 0.5039370078740157
        },
        {
          "duration": 0.09712828125000073,
          "durationTicks": 23,
          "midi": 36,
          "name": "C2",
          "ticks": 14256,
          "time": 60.2026425,
          "velocity": 0.5039370078740157
        },
        {
          "duration": 0.09712828125000073,
          "durationTicks": 23,
          "midi": 36,
          "name": "C2",
          "ticks": 14280,
          "time": 60.303993750000004,
          "velocity": 0.5039370078740157
        },
        {
          "duration": 0.19003359374999462,
          "durationTicks": 45,
          "midi": 36,
          "name": "C2",
          "ticks": 14352,
          "time": 60.608047500000005,
          "velocity": 0.5039370078740157
        },
        {
          "duration": 0.37584421875000373,
          "durationTicks": 89,
          "midi": 40,
          "name": "E2",
          "ticks": 14496,
          "time": 61.216155,
          "velocity": 0.5039370078740157
        },
        {
          "duration": 0.19003359375000173,
          "durationTicks": 45,
          "midi": 40,
          "name": "E2",
          "ticks": 14688,
          "time": 62.026965000000004,
          "velocity": 0.5039370078740157
        },
        {
          "duration": 0.19003359374999462,
          "durationTicks": 45,
          "midi": 36,
          "name": "C2",
          "ticks": 14736,
          "time": 62.229667500000005,
          "velocity": 0.5039370078740157
        },
        {
          "duration": 0.09712828125000783,
          "durationTicks": 23,
          "midi": 40,
          "name": "E2",
          "ticks": 14880,
          "time": 62.837775,
          "velocity": 0.5039370078740157
        },
        {
          "duration": 0.09712828125000783,
          "durationTicks": 23,
          "midi": 36,
          "name": "C2",
          "ticks": 14904,
          "time": 62.93912625,
          "velocity": 0.5039370078740157
        },
        {
          "duration": 0.19003359375000173,
          "durationTicks": 45,
          "midi": 36,
          "name": "C2",
          "ticks": 14976,
          "time": 63.24318,
          "velocity": 0.5039370078740157
        },
        {
          "duration": 0.09712828125000073,
          "durationTicks": 23,
          "midi": 36,
          "name": "C2",
          "ticks": 15024,
          "time": 63.4458825,
          "velocity": 0.5039370078740157
        },
        {
          "duration": 0.09712828125000073,
          "durationTicks": 23,
          "midi": 36,
          "name": "C2",
          "ticks": 15048,
          "time": 63.547233750000004,
          "velocity": 0.5039370078740157
        },
        {
          "duration": 0.19003359374999462,
          "durationTicks": 45,
          "midi": 36,
          "name": "C2",
          "ticks": 15120,
          "time": 63.851287500000005,
          "velocity": 0.5039370078740157
        },
        {
          "duration": 0.37584421875000373,
          "durationTicks": 89,
          "midi": 40,
          "name": "E2",
          "ticks": 15264,
          "time": 64.459395,
          "velocity": 0.5039370078740157
        },
        {
          "duration": 0.37584421875000373,
          "durationTicks": 89,
          "midi": 36,
          "name": "C2",
          "ticks": 15360,
          "time": 64.8648,
          "velocity": 0.5039370078740157
        },
        {
          "duration": 0.19003359375000173,
          "durationTicks": 45,
          "midi": 36,
          "name": "C2",
          "ticks": 15504,
          "time": 65.4729075,
          "velocity": 0.5039370078740157
        },
        {
          "duration": 0.09712828124999362,
          "durationTicks": 23,
          "midi": 40,
          "name": "E2",
          "ticks": 15648,
          "time": 66.08101500000001,
          "velocity": 0.5039370078740157
        },
        {
          "duration": 0.09712828125000783,
          "durationTicks": 23,
          "midi": 36,
          "name": "C2",
          "ticks": 15672,
          "time": 66.18236625,
          "velocity": 0.5039370078740157
        },
        {
          "duration": 0.19003359375000173,
          "durationTicks": 45,
          "midi": 36,
          "name": "C2",
          "ticks": 15792,
          "time": 66.6891225,
          "velocity": 0.5039370078740157
        },
        {
          "duration": 0.19003359375000173,
          "durationTicks": 45,
          "midi": 40,
          "name": "E2",
          "ticks": 15840,
          "time": 66.891825,
          "velocity": 0.5039370078740157
        },
        {
          "duration": 0.19003359375000173,
          "durationTicks": 45,
          "midi": 36,
          "name": "C2",
          "ticks": 15888,
          "time": 67.0945275,
          "velocity": 0.5039370078740157
        },
        {
          "duration": 0.37584421875000373,
          "durationTicks": 89,
          "midi": 40,
          "name": "E2",
          "ticks": 16032,
          "time": 67.702635,
          "velocity": 0.5039370078740157
        },
        {
          "duration": 0.37584421875000373,
          "durationTicks": 89,
          "midi": 36,
          "name": "C2",
          "ticks": 16128,
          "time": 68.10804,
          "velocity": 0.5039370078740157
        },
        {
          "duration": 0.19003359375000173,
          "durationTicks": 45,
          "midi": 40,
          "name": "E2",
          "ticks": 16224,
          "time": 68.513445,
          "velocity": 0.5039370078740157
        },
        {
          "duration": 0.19003359375000173,
          "durationTicks": 45,
          "midi": 36,
          "name": "C2",
          "ticks": 16272,
          "time": 68.7161475,
          "velocity": 0.5039370078740157
        },
        {
          "duration": 0.09712828125000783,
          "durationTicks": 23,
          "midi": 36,
          "name": "C2",
          "ticks": 16392,
          "time": 69.22290375,
          "velocity": 0.5039370078740157
        },
        {
          "duration": 0.09712828124999362,
          "durationTicks": 23,
          "midi": 40,
          "name": "E2",
          "ticks": 16416,
          "time": 69.32425500000001,
          "velocity": 0.5039370078740157
        },
        {
          "duration": 0.09712828125000783,
          "durationTicks": 23,
          "midi": 36,
          "name": "C2",
          "ticks": 16440,
          "time": 69.42560625,
          "velocity": 0.5039370078740157
        },
        {
          "duration": 0.1266890625000059,
          "durationTicks": 30,
          "midi": 40,
          "name": "E2",
          "ticks": 16512,
          "time": 69.72966,
          "velocity": 0.2677165354330709
        },
        {
          "duration": 0.1266890625000059,
          "durationTicks": 30,
          "midi": 40,
          "name": "E2",
          "ticks": 16544,
          "time": 69.864795,
          "velocity": 0.3858267716535433
        },
        {
          "duration": 0.1266890625000059,
          "durationTicks": 30,
          "midi": 40,
          "name": "E2",
          "ticks": 16576,
          "time": 69.99992999999999,
          "velocity": 0.5118110236220472
        },
        {
          "duration": 0.19003359375000173,
          "durationTicks": 45,
          "midi": 40,
          "name": "E2",
          "ticks": 16608,
          "time": 70.135065,
          "velocity": 0.6692913385826772
        },
        {
          "duration": 0.19003359375000173,
          "durationTicks": 45,
          "midi": 36,
          "name": "C2",
          "ticks": 16656,
          "time": 70.3377675,
          "velocity": 0.6692913385826772
        },
        {
          "duration": 0.37584421875000373,
          "durationTicks": 89,
          "midi": 40,
          "name": "E2",
          "ticks": 16800,
          "time": 70.945875,
          "velocity": 0.6692913385826772
        },
        {
          "duration": 0.37584421875000373,
          "durationTicks": 89,
          "midi": 36,
          "name": "C2",
          "ticks": 16896,
          "time": 71.35128,
          "velocity": 0.6692913385826772
        },
        {
          "duration": 0.19003359375000173,
          "durationTicks": 45,
          "midi": 40,
          "name": "E2",
          "ticks": 16992,
          "time": 71.756685,
          "velocity": 0.6692913385826772
        },
        {
          "duration": 0.19003359375000173,
          "durationTicks": 45,
          "midi": 36,
          "name": "C2",
          "ticks": 17040,
          "time": 71.9593875,
          "velocity": 0.6692913385826772
        },
        {
          "duration": 0.09712828125000783,
          "durationTicks": 23,
          "midi": 36,
          "name": "C2",
          "ticks": 17160,
          "time": 72.46614375,
          "velocity": 0.6692913385826772
        },
        {
          "duration": 0.09712828124999362,
          "durationTicks": 23,
          "midi": 40,
          "name": "E2",
          "ticks": 17184,
          "time": 72.56749500000001,
          "velocity": 0.6692913385826772
        },
        {
          "duration": 0.09712828125000783,
          "durationTicks": 23,
          "midi": 36,
          "name": "C2",
          "ticks": 17208,
          "time": 72.66884625,
          "velocity": 0.6692913385826772
        },
        {
          "duration": 0.09712828124999362,
          "durationTicks": 23,
          "midi": 40,
          "name": "E2",
          "ticks": 17280,
          "time": 72.97290000000001,
          "velocity": 0.031496062992125984
        },
        {
          "duration": 0.09712828125000783,
          "durationTicks": 23,
          "midi": 40,
          "name": "E2",
          "ticks": 17304,
          "time": 73.07425125,
          "velocity": 0.14960629921259844
        },
        {
          "duration": 0.09712828125000783,
          "durationTicks": 23,
          "midi": 40,
          "name": "E2",
          "ticks": 17328,
          "time": 73.1756025,
          "velocity": 0.2677165354330709
        },
        {
          "duration": 0.09712828125000783,
          "durationTicks": 23,
          "midi": 40,
          "name": "E2",
          "ticks": 17352,
          "time": 73.27695375,
          "velocity": 0.3858267716535433
        },
        {
          "duration": 0.19003359375000173,
          "durationTicks": 45,
          "midi": 40,
          "name": "E2",
          "ticks": 17376,
          "time": 73.378305,
          "velocity": 0.5039370078740157
        },
        {
          "duration": 0.19003359375000173,
          "durationTicks": 45,
          "midi": 36,
          "name": "C2",
          "ticks": 17424,
          "time": 73.5810075,
          "velocity": 0.5039370078740157
        },
        {
          "duration": 0.37584421875000373,
          "durationTicks": 89,
          "midi": 40,
          "name": "E2",
          "ticks": 17568,
          "time": 74.189115,
          "velocity": 0.5039370078740157
        },
        {
          "duration": 0.37584421875000373,
          "durationTicks": 89,
          "midi": 40,
          "name": "E2",
          "ticks": 17760,
          "time": 74.999925,
          "velocity": 0.5039370078740157
        },
        {
          "duration": 0.09712828124999362,
          "durationTicks": 23,
          "midi": 40,
          "name": "E2",
          "ticks": 17952,
          "time": 75.81073500000001,
          "velocity": 0.5039370078740157
        },
        {
          "duration": 0.09712828125000783,
          "durationTicks": 23,
          "midi": 36,
          "name": "C2",
          "ticks": 17976,
          "time": 75.91208625,
          "velocity": 0.5039370078740157
        },
        {
          "duration": 0.37584421875001794,
          "durationTicks": 89,
          "midi": 40,
          "name": "E2",
          "ticks": 18048,
          "time": 76.21614,
          "velocity": 0.5039370078740157
        },
        {
          "duration": 0.09712828125000783,
          "durationTicks": 23,
          "midi": 36,
          "name": "C2",
          "ticks": 18216,
          "time": 76.92559875,
          "velocity": 0.5039370078740157
        },
        {
          "duration": 0.09712828125000783,
          "durationTicks": 23,
          "midi": 40,
          "name": "E2",
          "ticks": 18240,
          "time": 77.02695,
          "velocity": 0.5039370078740157
        },
        {
          "duration": 0.09712828124999362,
          "durationTicks": 23,
          "midi": 36,
          "name": "C2",
          "ticks": 18264,
          "time": 77.12830125,
          "velocity": 0.5039370078740157
        },
        {
          "duration": 0.37584421875000373,
          "durationTicks": 89,
          "midi": 40,
          "name": "E2",
          "ticks": 18336,
          "time": 77.432355,
          "velocity": 0.5039370078740157
        },
        {
          "duration": 0.37584421875000373,
          "durationTicks": 89,
          "midi": 36,
          "name": "C2",
          "ticks": 18432,
          "time": 77.83776,
          "velocity": 0.5039370078740157
        },
        {
          "duration": 0.19003359375000173,
          "durationTicks": 45,
          "midi": 40,
          "name": "E2",
          "ticks": 18528,
          "time": 78.243165,
          "velocity": 0.5039370078740157
        },
        {
          "duration": 0.09712828125000783,
          "durationTicks": 23,
          "midi": 36,
          "name": "C2",
          "ticks": 18576,
          "time": 78.4458675,
          "velocity": 0.5039370078740157
        },
        {
          "duration": 0.09712828125000783,
          "durationTicks": 23,
          "midi": 36,
          "name": "C2",
          "ticks": 18600,
          "time": 78.54721875,
          "velocity": 0.4094488188976378
        },
        {
          "duration": 0.09712828124999362,
          "durationTicks": 23,
          "midi": 36,
          "name": "C2",
          "ticks": 18624,
          "time": 78.64857,
          "velocity": 0.3228346456692913
        },
        {
          "duration": 0.09712828125000783,
          "durationTicks": 23,
          "midi": 36,
          "name": "C2",
          "ticks": 18648,
          "time": 78.74992125,
          "velocity": 0.23622047244094488
        },
        {
          "duration": 0.19003359375000173,
          "durationTicks": 45,
          "midi": 36,
          "name": "C2",
          "ticks": 18672,
          "time": 78.85127250000001,
          "velocity": 0.14960629921259844
        },
        {
          "duration": 0.06334453124999584,
          "durationTicks": 15,
          "midi": 40,
          "name": "E2",
          "ticks": 18720,
          "time": 79.05397500000001,
          "velocity": 0.5039370078740157
        },
        {
          "duration": 0.06334453124999584,
          "durationTicks": 15,
          "midi": 36,
          "name": "C2",
          "ticks": 18736,
          "time": 79.1215425,
          "velocity": 0.5039370078740157
        },
        {
          "duration": 0.06334453124999584,
          "durationTicks": 15,
          "midi": 40,
          "name": "E2",
          "ticks": 18752,
          "time": 79.18911000000001,
          "velocity": 0.5039370078740157
        },
        {
          "duration": 0.37584421875000373,
          "durationTicks": 89,
          "midi": 36,
          "name": "C2",
          "ticks": 18816,
          "time": 79.45938000000001,
          "velocity": 0.5039370078740157
        },
        {
          "duration": 0.09712828125000783,
          "durationTicks": 23,
          "midi": 40,
          "name": "E2",
          "ticks": 19008,
          "time": 80.27019,
          "velocity": 0.5039370078740157
        },
        {
          "duration": 0.09712828124999362,
          "durationTicks": 23,
          "midi": 36,
          "name": "C2",
          "ticks": 19032,
          "time": 80.37154125,
          "velocity": 0.5039370078740157
        },
        {
          "duration": 0.37584421875000373,
          "durationTicks": 89,
          "midi": 40,
          "name": "E2",
          "ticks": 19104,
          "time": 80.675595,
          "velocity": 0.5039370078740157
        },
        {
          "duration": 0.1266890625000059,
          "durationTicks": 30,
          "midi": 40,
          "name": "E2",
          "ticks": 19200,
          "time": 81.081,
          "velocity": 0.5039370078740157
        },
        {
          "duration": 0.12668906249999168,
          "durationTicks": 30,
          "midi": 40,
          "name": "E2",
          "ticks": 19232,
          "time": 81.21613500000001,
          "velocity": 0.2677165354330709
        },
        {
          "duration": 0.1266890625000059,
          "durationTicks": 30,
          "midi": 40,
          "name": "E2",
          "ticks": 19264,
          "time": 81.35127,
          "velocity": 0.28346456692913385
        },
        {
          "duration": 0.37584421875000373,
          "durationTicks": 89,
          "midi": 40,
          "name": "E2",
          "ticks": 19296,
          "time": 81.486405,
          "velocity": 0.30708661417322836
        },
        {
          "duration": 0.12668906249999168,
          "durationTicks": 30,
          "midi": 40,
          "name": "E2",
          "ticks": 19392,
          "time": 81.89181,
          "velocity": 0.14960629921259844
        },
        {
          "duration": 0.12668906249999168,
          "durationTicks": 30,
          "midi": 40,
          "name": "E2",
          "ticks": 19424,
          "time": 82.02694500000001,
          "velocity": 0.2047244094488189
        },
        {
          "duration": 0.12668906249999168,
          "durationTicks": 30,
          "midi": 40,
          "name": "E2",
          "ticks": 19456,
          "time": 82.16208,
          "velocity": 0.25984251968503935
        },
        {
          "duration": 0.12668906249999168,
          "durationTicks": 30,
          "midi": 40,
          "name": "E2",
          "ticks": 19488,
          "time": 82.29721500000001,
          "velocity": 0.31496062992125984
        },
        {
          "duration": 0.12668906249999168,
          "durationTicks": 30,
          "midi": 40,
          "name": "E2",
          "ticks": 19520,
          "time": 82.43235000000001,
          "velocity": 0.3700787401574803
        },
        {
          "duration": 0.12668906249999168,
          "durationTicks": 30,
          "midi": 40,
          "name": "E2",
          "ticks": 19552,
          "time": 82.567485,
          "velocity": 0.4251968503937008
        }
      ],
      "endOfTrackTicks": 19968
    },
    {
      "channel": 0,
      "controlChanges": {},
      "pitchBends": [],
      "instrument": {
        "family": "piano",
        "number": 0,
        "name": "acoustic grand piano"
      },
      "name": "<No Title>",
      "notes": [],
      "endOfTrackTicks": 0
    }
  ]
}