{
  "header": {
    "keySignatures": [],
    "meta": [],
    "name": "04-radiohead_2007-weird_fishes-arpegi",
    "ppq": 480,
    "tempos": [
      {
        "bpm": 152.00032426735845,
        "ticks": 0
      }
    ],
    "timeSignatures": [
      {
        "ticks": 0,
        "timeSignature": [
          4,
          4
        ],
        "measures": 0
      }
    ]
  },
  "tracks": [
    {
      "channel": 0,
      "controlChanges": {
        "6": [
          {
            "number": 6,
            "ticks": 60,
            "time": 0.049342,
            "value": 0.09448818897637795
          }
        ],
        "38": [
          {
            "number": 38,
            "ticks": 60,
            "time": 0.049342,
            "value": 0
          }
        ],
        "100": [
          {
            "number": 100,
            "ticks": 60,
            "time": 0.049342,
            "value": 0
          }
        ],
        "101": [
          {
            "number": 101,
            "ticks": 60,
            "time": 0.049342,
            "value": 0
          }
        ],
        "121": [
          {
            "number": 121,
            "ticks": 60,
            "time": 0.049342,
            "value": 0
          }
        ],
        "123": [
          {
            "number": 123,
            "ticks": 60,
            "time": 0.049342,
            "value": 0
          }
        ]
      },
      "pitchBends": [
        {
          "ticks": 60,
          "time": 0.049342,
          "value": 0
        }
      ],
      "instrument": {
        "family": "piano",
        "number": 0,
        "name": "acoustic grand piano"
      },
      "name": "Thom Yorke",
      "notes": [],
      "endOfTrackTicks": 368632
    },
    {
      "channel": 0,
      "controlChanges": {
        "7": [
          {
            "number": 7,
            "ticks": 120,
            "time": 0.098684,
            "value": 0.7086614173228346
          }
        ],
        "10": [
          {
            "number": 10,
            "ticks": 120,
            "time": 0.098684,
            "value": 0.3937007874015748
          }
        ]
      },
      "pitchBends": [],
      "instrument": {
        "family": "guitar",
        "number": 26,
        "name": "electric guitar (jazz)"
      },
      "name": "",
      "notes": [
        {
          "duration": 0.1907890666666674,
          "durationTicks": 232,
          "midi": 62,
          "name": "D4",
          "ticks": 9600,
          "time": 7.8947199999999995,
          "velocity": 0.5669291338582677
        },
        {
          "duration": 0.19078906666666562,
          "durationTicks": 232,
          "midi": 55,
          "name": "G3",
          "ticks": 9840,
          "time": 8.092088,
          "velocity": 0.5669291338582677
        },
        {
          "duration": 0.1907890666666674,
          "durationTicks": 232,
          "midi": 52,
          "name": "E3",
          "ticks": 10080,
          "time": 8.289456,
          "velocity": 0.5669291338582677
        },
        {
          "duration": 0.1907890666666674,
          "durationTicks": 232,
          "midi": 62,
          "name": "D4",
          "ticks": 10320,
          "time": 8.486823999999999,
          "velocity": 0.5669291338582677
        },
        {
          "duration": 0.1907890666666674,
          "durationTicks": 232,
          "midi": 55,
          "name": "G3",
          "ticks": 10560,
          "time": 8.684192,
          "velocity": 0.5669291338582677
        },
        {
          "duration": 0.19078906666666562,
          "durationTicks": 232,
          "midi": 52,
          "name": "E3",
          "ticks": 10800,
          "time": 8.88156,
          "velocity": 0.5669291338582677
        },
        {
          "duration": 0.1907890666666674,
          "durationTicks": 232,
          "midi": 62,
          "name": "D4",
          "ticks": 11040,
          "time": 9.078928,
          "velocity": 0.5669291338582677
        },
        {
          "duration": 0.1907890666666674,
          "durationTicks": 232,
          "midi": 55,
          "name": "G3",
          "ticks": 11280,
          "time": 9.276295999999999,
          "velocity": 0.5669291338582677
        },
        {
          "duration": 0.1907890666666674,
          "durationTicks": 232,
          "midi": 52,
          "name": "E3",
          "ticks": 11520,
          "time": 9.473664,
          "velocity": 0.5669291338582677
        },
        {
          "duration": 0.19078906666666562,
          "durationTicks": 232,
          "midi": 62,
          "name": "D4",
          "ticks": 11760,
          "time": 9.671032,
          "velocity": 0.5669291338582677
        },
        {
          "duration": 0.1907890666666674,
          "durationTicks": 232,
          "midi": 55,
          "name": "G3",
          "ticks": 12000,
          "time": 9.8684,
          "velocity": 0.5669291338582677
        },
        {
          "duration": 0.1907890666666674,
          "durationTicks": 232,
          "midi": 52,
          "name": "E3",
          "ticks": 12240,
          "time": 10.065767999999998,
          "velocity": 0.5669291338582677
        },
        {
          "duration": 0.1907890666666674,
          "durationTicks": 232,
          "midi": 62,
          "name": "D4",
          "ticks": 12480,
          "time": 10.263136,
          "velocity": 0.5669291338582677
        },
        {
          "duration": 0.19078906666666562,
          "durationTicks": 232,
          "midi": 55,
          "name": "G3",
          "ticks": 12720,
          "time": 10.460504,
          "velocity": 0.5669291338582677
        },
        {
          "duration": 0.1907890666666674,
          "durationTicks": 232,
          "midi": 52,
          "name": "E3",
          "ticks": 12960,
          "time": 10.657872,
          "velocity": 0.5669291338582677
        },
        {
          "duration": 0.1907890666666674,
          "durationTicks": 232,
          "midi": 62,
          "name": "D4",
          "ticks": 13200,
          "time": 10.855239999999998,
          "velocity": 0.5669291338582677
        },
        {
          "duration": 0.1907890666666674,
          "durationTicks": 232,
          "midi": 55,
          "name": "G3",
          "ticks": 13440,
          "time": 11.052608,
          "velocity": 0.5669291338582677
        },
        {
          "duration": 0.19078906666666562,
          "durationTicks": 232,
          "midi": 52,
          "name": "E3",
          "ticks": 13680,
          "time": 11.249976,
          "velocity": 0.5669291338582677
        },
        {
          "duration": 0.1907890666666674,
          "durationTicks": 232,
          "midi": 62,
          "name": "D4",
          "ticks": 13920,
          "time": 11.447344,
          "velocity": 0.5669291338582677
        },
        {
          "duration": 0.1907890666666674,
          "durationTicks": 232,
          "midi": 55,
          "name": "G3",
          "ticks": 14160,
          "time": 11.644711999999998,
          "velocity": 0.5669291338582677
        },
        {
          "duration": 0.1907890666666674,
          "durationTicks": 232,
          "midi": 52,
          "name": "E3",
          "ticks": 14400,
          "time": 11.84208,
          "velocity": 0.5669291338582677
        },
        {
          "duration": 0.19078906666666562,
          "durationTicks": 232,
          "midi": 62,
          "name": "D4",
          "ticks": 14640,
          "time": 12.039448,
          "velocity": 0.5669291338582677
        },
        {
          "duration": 0.1907890666666674,
          "durationTicks": 232,
          "midi": 55,
          "name": "G3",
          "ticks": 14880,
          "time": 12.236816,
          "velocity": 0.5669291338582677
        },
        {
          "duration": 0.1907890666666674,
          "durationTicks": 232,
          "midi": 52,
          "name": "E3",
          "ticks": 15120,
          "time": 12.434183999999998,
          "velocity": 0.5669291338582677
        },
        {
          "duration": 0.1907890666666674,
          "durationTicks": 232,
          "midi": 62,
          "name": "D4",
          "ticks": 15360,
          "time": 12.631552,
          "velocity": 0.5669291338582677
        },
        {
          "duration": 0.19078906666666562,
          "durationTicks": 232,
          "midi": 55,
          "name": "G3",
          "ticks": 15600,
          "time": 12.82892,
          "velocity": 0.5669291338582677
        },
        {
          "duration": 0.1907890666666674,
          "durationTicks": 232,
          "midi": 52,
          "name": "E3",
          "ticks": 15840,
          "time": 13.026288,
          "velocity": 0.5669291338582677
        },
        {
          "duration": 0.1907890666666674,
          "durationTicks": 232,
          "midi": 62,
          "name": "D4",
          "ticks": 16080,
          "time": 13.223655999999998,
          "velocity": 0.5669291338582677
        },
        {
          "duration": 0.1907890666666674,
          "durationTicks": 232,
          "midi": 55,
          "name": "G3",
          "ticks": 16320,
          "time": 13.421024,
          "velocity": 0.5669291338582677
        },
        {
          "duration": 0.19078906666666562,
          "durationTicks": 232,
          "midi": 52,
          "name": "E3",
          "ticks": 16560,
          "time": 13.618392,
          "velocity": 0.5669291338582677
        },
        {
          "duration": 0.1907890666666674,
          "durationTicks": 232,
          "midi": 64,
          "name": "E4",
          "ticks": 16800,
          "time": 13.81576,
          "velocity": 0.5669291338582677
        },
        {
          "duration": 0.1907890666666674,
          "durationTicks": 232,
          "midi": 57,
          "name": "A3",
          "ticks": 17040,
          "time": 14.013127999999998,
          "velocity": 0.5669291338582677
        },
        {
          "duration": 0.1907890666666674,
          "durationTicks": 232,
          "midi": 54,
          "name": "F#3",
          "ticks": 17280,
          "time": 14.210496,
          "velocity": 0.5669291338582677
        },
        {
          "duration": 0.19078906666666562,
          "durationTicks": 232,
          "midi": 64,
          "name": "E4",
          "ticks": 17520,
          "time": 14.407864,
          "velocity": 0.5669291338582677
        },
        {
          "duration": 0.1907890666666674,
          "durationTicks": 232,
          "midi": 57,
          "name": "A3",
          "ticks": 17760,
          "time": 14.605231999999999,
          "velocity": 0.5669291338582677
        },
        {
          "duration": 0.1907890666666674,
          "durationTicks": 232,
          "midi": 54,
          "name": "F#3",
          "ticks": 18000,
          "time": 14.802599999999998,
          "velocity": 0.5669291338582677
        },
        {
          "duration": 0.1907890666666674,
          "durationTicks": 232,
          "midi": 64,
          "name": "E4",
          "ticks": 18240,
          "time": 14.999967999999999,
          "velocity": 0.5669291338582677
        },
        {
          "duration": 0.19078906666666562,
          "durationTicks": 232,
          "midi": 57,
          "name": "A3",
          "ticks": 18480,
          "time": 15.197336,
          "velocity": 0.5669291338582677
        },
        {
          "duration": 0.1907890666666674,
          "durationTicks": 232,
          "midi": 54,
          "name": "F#3",
          "ticks": 18720,
          "time": 15.394703999999999,
          "velocity": 0.5669291338582677
        },
        {
          "duration": 0.1907890666666674,
          "durationTicks": 232,
          "midi": 64,
          "name": "E4",
          "ticks": 18960,
          "time": 15.592071999999998,
          "velocity": 0.5669291338582677
        },
        {
          "duration": 0.1907890666666674,
          "durationTicks": 232,
          "midi": 57,
          "name": "A3",
          "ticks": 19200,
          "time": 15.789439999999999,
          "velocity": 0.5669291338582677
        },
        {
          "duration": 0.1907890666666674,
          "durationTicks": 232,
          "midi": 54,
          "name": "F#3",
          "ticks": 19440,
          "time": 15.986808,
          "velocity": 0.5669291338582677
        },
        {
          "duration": 0.19078906666666384,
          "durationTicks": 232,
          "midi": 64,
          "name": "E4",
          "ticks": 19680,
          "time": 16.184176,
          "velocity": 0.5669291338582677
        },
        {
          "duration": 0.1907890666666674,
          "durationTicks": 232,
          "midi": 57,
          "name": "A3",
          "ticks": 19920,
          "time": 16.381543999999998,
          "velocity": 0.5669291338582677
        },
        {
          "duration": 0.1907890666666674,
          "durationTicks": 232,
          "midi": 54,
          "name": "F#3",
          "ticks": 20160,
          "time": 16.578912,
          "velocity": 0.5669291338582677
        },
        {
          "duration": 0.1907890666666674,
          "durationTicks": 232,
          "midi": 64,
          "name": "E4",
          "ticks": 20400,
          "time": 16.77628,
          "velocity": 0.5669291338582677
        },
        {
          "duration": 0.1907890666666674,
          "durationTicks": 232,
          "midi": 57,
          "name": "A3",
          "ticks": 20640,
          "time": 16.973647999999997,
          "velocity": 0.5669291338582677
        },
        {
          "duration": 0.1907890666666674,
          "durationTicks": 232,
          "midi": 54,
          "name": "F#3",
          "ticks": 20880,
          "time": 17.171015999999998,
          "velocity": 0.5669291338582677
        },
        {
          "duration": 0.1907890666666674,
          "durationTicks": 232,
          "midi": 64,
          "name": "E4",
          "ticks": 21120,
          "time": 17.368384,
          "velocity": 0.5669291338582677
        },
        {
          "duration": 0.1907890666666674,
          "durationTicks": 232,
          "midi": 57,
          "name": "A3",
          "ticks": 21360,
          "time": 17.565752,
          "velocity": 0.5669291338582677
        },
        {
          "duration": 0.19078906666666384,
          "durationTicks": 232,
          "midi": 54,
          "name": "F#3",
          "ticks": 21600,
          "time": 17.76312,
          "velocity": 0.5669291338582677
        },
        {
          "duration": 0.1907890666666674,
          "durationTicks": 232,
          "midi": 64,
          "name": "E4",
          "ticks": 21840,
          "time": 17.960487999999998,
          "velocity": 0.5669291338582677
        },
        {
          "duration": 0.1907890666666674,
          "durationTicks": 232,
          "midi": 57,
          "name": "A3",
          "ticks": 22080,
          "time": 18.157856,
          "velocity": 0.5669291338582677
        },
        {
          "duration": 0.1907890666666674,
          "durationTicks": 232,
          "midi": 54,
          "name": "F#3",
          "ticks": 22320,
          "time": 18.355224,
          "velocity": 0.5669291338582677
        },
        {
          "duration": 0.1907890666666674,
          "durationTicks": 232,
          "midi": 64,
          "name": "E4",
          "ticks": 22560,
          "time": 18.552591999999997,
          "velocity": 0.5669291338582677
        },
        {
          "duration": 0.1907890666666674,
          "durationTicks": 232,
          "midi": 57,
          "name": "A3",
          "ticks": 22800,
          "time": 18.749959999999998,
          "velocity": 0.5669291338582677
        },
        {
          "duration": 0.1907890666666674,
          "durationTicks": 232,
          "midi": 54,
          "name": "F#3",
          "ticks": 23040,
          "time": 18.947328,
          "velocity": 0.5669291338582677
        },
        {
          "duration": 0.1907890666666674,
          "durationTicks": 232,
          "midi": 64,
          "name": "E4",
          "ticks": 23280,
          "time": 19.144696,
          "velocity": 0.5669291338582677
        },
        {
          "duration": 0.19078906666666384,
          "durationTicks": 232,
          "midi": 57,
          "name": "A3",
          "ticks": 23520,
          "time": 19.342064,
          "velocity": 0.5669291338582677
        },
        {
          "duration": 0.1907890666666674,
          "durationTicks": 232,
          "midi": 54,
          "name": "F#3",
          "ticks": 23760,
          "time": 19.539431999999998,
          "velocity": 0.5669291338582677
        },
        {
          "duration": 0.1907890666666674,
          "durationTicks": 232,
          "midi": 64,
          "name": "E4",
          "ticks": 24000,
          "time": 19.7368,
          "velocity": 0.5669291338582677
        },
        {
          "duration": 0.1907890666666674,
          "durationTicks": 232,
          "midi": 57,
          "name": "A3",
          "ticks": 24240,
          "time": 19.934168,
          "velocity": 0.5669291338582677
        },
        {
          "duration": 0.1907890666666674,
          "durationTicks": 232,
          "midi": 61,
          "name": "C#4",
          "ticks": 24480,
          "time": 20.131535999999997,
          "velocity": 0.5669291338582677
        },
        {
          "duration": 0.1907890666666674,
          "durationTicks": 232,
          "midi": 69,
          "name": "A4",
          "ticks": 24720,
          "time": 20.328903999999998,
          "velocity": 0.5669291338582677
        },
        {
          "duration": 0.1907890666666674,
          "durationTicks": 232,
          "midi": 61,
          "name": "C#4",
          "ticks": 24960,
          "time": 20.526272,
          "velocity": 0.5669291338582677
        },
        {
          "duration": 0.1907890666666674,
          "durationTicks": 232,
          "midi": 57,
          "name": "A3",
          "ticks": 25200,
          "time": 20.72364,
          "velocity": 0.5669291338582677
        },
        {
          "duration": 0.19078906666666384,
          "durationTicks": 232,
          "midi": 69,
          "name": "A4",
          "ticks": 25440,
          "time": 20.921008,
          "velocity": 0.5669291338582677
        },
        {
          "duration": 0.1907890666666674,
          "durationTicks": 232,
          "midi": 61,
          "name": "C#4",
          "ticks": 25680,
          "time": 21.118375999999998,
          "velocity": 0.5669291338582677
        },
        {
          "duration": 0.1907890666666674,
          "durationTicks": 232,
          "midi": 57,
          "name": "A3",
          "ticks": 25920,
          "time": 21.315744,
          "velocity": 0.5669291338582677
        },
        {
          "duration": 0.1907890666666674,
          "durationTicks": 232,
          "midi": 69,
          "name": "A4",
          "ticks": 26160,
          "time": 21.513112,
          "velocity": 0.5669291338582677
        },
        {
          "duration": 0.1907890666666674,
          "durationTicks": 232,
          "midi": 61,
          "name": "C#4",
          "ticks": 26400,
          "time": 21.710479999999997,
          "velocity": 0.5669291338582677
        },
        {
          "duration": 0.1907890666666674,
          "durationTicks": 232,
          "midi": 57,
          "name": "A3",
          "ticks": 26640,
          "time": 21.907847999999998,
          "velocity": 0.5669291338582677
        },
        {
          "duration": 0.1907890666666674,
          "durationTicks": 232,
          "midi": 69,
          "name": "A4",
          "ticks": 26880,
          "time": 22.105216,
          "velocity": 0.5669291338582677
        },
        {
          "duration": 0.1907890666666674,
          "durationTicks": 232,
          "midi": 61,
          "name": "C#4",
          "ticks": 27120,
          "time": 22.302584,
          "velocity": 0.5669291338582677
        },
        {
          "duration": 0.19078906666666384,
          "durationTicks": 232,
          "midi": 57,
          "name": "A3",
          "ticks": 27360,
          "time": 22.499952,
          "velocity": 0.5669291338582677
        },
        {
          "duration": 0.1907890666666674,
          "durationTicks": 232,
          "midi": 69,
          "name": "A4",
          "ticks": 27600,
          "time": 22.697319999999998,
          "velocity": 0.5669291338582677
        },
        {
          "duration": 0.1907890666666674,
          "durationTicks": 232,
          "midi": 61,
          "name": "C#4",
          "ticks": 27840,
          "time": 22.894688,
          "velocity": 0.5669291338582677
        },
        {
          "duration": 0.1907890666666674,
          "durationTicks": 232,
          "midi": 57,
          "name": "A3",
          "ticks": 28080,
          "time": 23.092056,
          "velocity": 0.5669291338582677
        },
        {
          "duration": 0.1907890666666674,
          "durationTicks": 232,
          "midi": 69,
          "name": "A4",
          "ticks": 28320,
          "time": 23.289423999999997,
          "velocity": 0.5669291338582677
        },
        {
          "duration": 0.1907890666666674,
          "durationTicks": 232,
          "midi": 61,
          "name": "C#4",
          "ticks": 28560,
          "time": 23.486791999999998,
          "velocity": 0.5669291338582677
        },
        {
          "duration": 0.1907890666666674,
          "durationTicks": 232,
          "midi": 57,
          "name": "A3",
          "ticks": 28800,
          "time": 23.68416,
          "velocity": 0.5669291338582677
        },
        {
          "duration": 0.1907890666666674,
          "durationTicks": 232,
          "midi": 69,
          "name": "A4",
          "ticks": 29040,
          "time": 23.881528,
          "velocity": 0.5669291338582677
        },
        {
          "duration": 0.19078906666666384,
          "durationTicks": 232,
          "midi": 61,
          "name": "C#4",
          "ticks": 29280,
          "time": 24.078896,
          "velocity": 0.5669291338582677
        },
        {
          "duration": 0.1907890666666674,
          "durationTicks": 232,
          "midi": 57,
          "name": "A3",
          "ticks": 29520,
          "time": 24.276263999999998,
          "velocity": 0.5669291338582677
        },
        {
          "duration": 0.1907890666666674,
          "durationTicks": 232,
          "midi": 69,
          "name": "A4",
          "ticks": 29760,
          "time": 24.473632,
          "velocity": 0.5669291338582677
        },
        {
          "duration": 0.1907890666666674,
          "durationTicks": 232,
          "midi": 61,
          "name": "C#4",
          "ticks": 30000,
          "time": 24.671,
          "velocity": 0.5669291338582677
        },
        {
          "duration": 0.1907890666666674,
          "durationTicks": 232,
          "midi": 57,
          "name": "A3",
          "ticks": 30240,
          "time": 24.868367999999997,
          "velocity": 0.5669291338582677
        },
        {
          "duration": 0.1907890666666674,
          "durationTicks": 232,
          "midi": 69,
          "name": "A4",
          "ticks": 30480,
          "time": 25.065735999999998,
          "velocity": 0.5669291338582677
        },
        {
          "duration": 0.1907890666666674,
          "durationTicks": 232,
          "midi": 61,
          "name": "C#4",
          "ticks": 30720,
          "time": 25.263104,
          "velocity": 0.5669291338582677
        },
        {
          "duration": 0.1907890666666674,
          "durationTicks": 232,
          "midi": 57,
          "name": "A3",
          "ticks": 30960,
          "time": 25.460472,
          "velocity": 0.5669291338582677
        },
        {
          "duration": 0.19078906666666384,
          "durationTicks": 232,
          "midi": 69,
          "name": "A4",
          "ticks": 31200,
          "time": 25.65784,
          "velocity": 0.5669291338582677
        },
        {
          "duration": 0.1907890666666674,
          "durationTicks": 232,
          "midi": 61,
          "name": "C#4",
          "ticks": 31440,
          "time": 25.855207999999998,
          "velocity": 0.5669291338582677
        },
        {
          "duration": 0.1907890666666674,
          "durationTicks": 232,
          "midi": 57,
          "name": "A3",
          "ticks": 31680,
          "time": 26.052576,
          "velocity": 0.5669291338582677
        },
        {
          "duration": 0.1907890666666674,
          "durationTicks": 232,
          "midi": 69,
          "name": "A4",
          "ticks": 31920,
          "time": 26.249944,
          "velocity": 0.5669291338582677
        },
        {
          "duration": 0.1907890666666674,
          "durationTicks": 232,
          "midi": 61,
          "name": "C#4",
          "ticks": 32160,
          "time": 26.447311999999997,
          "velocity": 0.5669291338582677
        },
        {
          "duration": 0.1907890666666674,
          "durationTicks": 232,
          "midi": 57,
          "name": "A3",
          "ticks": 32400,
          "time": 26.644679999999997,
          "velocity": 0.5669291338582677
        },
        {
          "duration": 0.1907890666666674,
          "durationTicks": 232,
          "midi": 66,
          "name": "F#4",
          "ticks": 32640,
          "time": 26.842048,
          "velocity": 0.5669291338582677
        },
        {
          "duration": 0.1907890666666674,
          "durationTicks": 232,
          "midi": 59,
          "name": "B3",
          "ticks": 32880,
          "time": 27.039416,
          "velocity": 0.5669291338582677
        },
        {
          "duration": 0.19078906666666384,
          "durationTicks": 232,
          "midi": 55,
          "name": "G3",
          "ticks": 33120,
          "time": 27.236784,
          "velocity": 0.5669291338582677
        },
        {
          "duration": 0.1907890666666674,
          "durationTicks": 232,
          "midi": 66,
          "name": "F#4",
          "ticks": 33360,
          "time": 27.434151999999997,
          "velocity": 0.5669291338582677
        },
        {
          "duration": 0.1907890666666674,
          "durationTicks": 232,
          "midi": 59,
          "name": "B3",
          "ticks": 33600,
          "time": 27.63152,
          "velocity": 0.5669291338582677
        },
        {
          "duration": 0.1907890666666674,
          "durationTicks": 232,
          "midi": 55,
          "name": "G3",
          "ticks": 33840,
          "time": 27.828888,
          "velocity": 0.5669291338582677
        },
        {
          "duration": 0.1907890666666674,
          "durationTicks": 232,
          "midi": 66,
          "name": "F#4",
          "ticks": 34080,
          "time": 28.026255999999997,
          "velocity": 0.5669291338582677
        },
        {
          "duration": 0.1907890666666674,
          "durationTicks": 232,
          "midi": 59,
          "name": "B3",
          "ticks": 34320,
          "time": 28.223623999999997,
          "velocity": 0.5669291338582677
        },
        {
          "duration": 0.1907890666666674,
          "durationTicks": 232,
          "midi": 55,
          "name": "G3",
          "ticks": 34560,
          "time": 28.420992,
          "velocity": 0.5669291338582677
        },
        {
          "duration": 0.1907890666666674,
          "durationTicks": 232,
          "midi": 66,
          "name": "F#4",
          "ticks": 34800,
          "time": 28.61836,
          "velocity": 0.5669291338582677
        },
        {
          "duration": 0.19078906666666384,
          "durationTicks": 232,
          "midi": 59,
          "name": "B3",
          "ticks": 35040,
          "time": 28.815728,
          "velocity": 0.5669291338582677
        },
        {
          "duration": 0.1907890666666674,
          "durationTicks": 232,
          "midi": 55,
          "name": "G3",
          "ticks": 35280,
          "time": 29.013095999999997,
          "velocity": 0.5669291338582677
        },
        {
          "duration": 0.1907890666666674,
          "durationTicks": 232,
          "midi": 66,
          "name": "F#4",
          "ticks": 35520,
          "time": 29.210463999999998,
          "velocity": 0.5669291338582677
        },
        {
          "duration": 0.1907890666666674,
          "durationTicks": 232,
          "midi": 59,
          "name": "B3",
          "ticks": 35760,
          "time": 29.407832,
          "velocity": 0.5669291338582677
        },
        {
          "duration": 0.1907890666666674,
          "durationTicks": 232,
          "midi": 55,
          "name": "G3",
          "ticks": 36000,
          "time": 29.605199999999996,
          "velocity": 0.5669291338582677
        },
        {
          "duration": 0.1907890666666674,
          "durationTicks": 232,
          "midi": 66,
          "name": "F#4",
          "ticks": 36240,
          "time": 29.802567999999997,
          "velocity": 0.5669291338582677
        },
        {
          "duration": 0.1907890666666674,
          "durationTicks": 232,
          "midi": 59,
          "name": "B3",
          "ticks": 36480,
          "time": 29.999935999999998,
          "velocity": 0.5669291338582677
        },
        {
          "duration": 0.1907890666666674,
          "durationTicks": 232,
          "midi": 55,
          "name": "G3",
          "ticks": 36720,
          "time": 30.197304,
          "velocity": 0.5669291338582677
        },
        {
          "duration": 0.19078906666666384,
          "durationTicks": 232,
          "midi": 66,
          "name": "F#4",
          "ticks": 36960,
          "time": 30.394672,
          "velocity": 0.5669291338582677
        },
        {
          "duration": 0.1907890666666674,
          "durationTicks": 232,
          "midi": 59,
          "name": "B3",
          "ticks": 37200,
          "time": 30.592039999999997,
          "velocity": 0.5669291338582677
        },
        {
          "duration": 0.1907890666666674,
          "durationTicks": 232,
          "midi": 55,
          "name": "G3",
          "ticks": 37440,
          "time": 30.789407999999998,
          "velocity": 0.5669291338582677
        },
        {
          "duration": 0.1907890666666674,
          "durationTicks": 232,
          "midi": 66,
          "name": "F#4",
          "ticks": 37680,
          "time": 30.986776,
          "velocity": 0.5669291338582677
        },
        {
          "duration": 0.1907890666666674,
          "durationTicks": 232,
          "midi": 59,
          "name": "B3",
          "ticks": 37920,
          "time": 31.184143999999996,
          "velocity": 0.5669291338582677
        },
        {
          "duration": 0.1907890666666674,
          "durationTicks": 232,
          "midi": 55,
          "name": "G3",
          "ticks": 38160,
          "time": 31.381511999999997,
          "velocity": 0.5669291338582677
        },
        {
          "duration": 0.1907890666666674,
          "durationTicks": 232,
          "midi": 66,
          "name": "F#4",
          "ticks": 38400,
          "time": 31.578879999999998,
          "velocity": 0.5669291338582677
        },
        {
          "duration": 0.1907890666666674,
          "durationTicks": 232,
          "midi": 59,
          "name": "B3",
          "ticks": 38640,
          "time": 31.776248,
          "velocity": 0.5669291338582677
        },
        {
          "duration": 0.1907890666666674,
          "durationTicks": 232,
          "midi": 55,
          "name": "G3",
          "ticks": 38880,
          "time": 31.973616,
          "velocity": 0.5669291338582677
        },
        {
          "duration": 0.1907890666666674,
          "durationTicks": 232,
          "midi": 66,
          "name": "F#4",
          "ticks": 39120,
          "time": 32.170984,
          "velocity": 0.5669291338582677
        },
        {
          "duration": 0.1907890666666603,
          "durationTicks": 232,
          "midi": 59,
          "name": "B3",
          "ticks": 39360,
          "time": 32.368352,
          "velocity": 0.5669291338582677
        },
        {
          "duration": 0.1907890666666674,
          "durationTicks": 232,
          "midi": 55,
          "name": "G3",
          "ticks": 39600,
          "time": 32.56572,
          "velocity": 0.5669291338582677
        },
        {
          "duration": 0.1907890666666674,
          "durationTicks": 232,
          "midi": 62,
          "name": "D4",
          "ticks": 39840,
          "time": 32.763087999999996,
          "velocity": 0.5669291338582677
        },
        {
          "duration": 0.1907890666666674,
          "durationTicks": 232,
          "midi": 55,
          "name": "G3",
          "ticks": 40080,
          "time": 32.960456,
          "velocity": 0.5669291338582677
        },
        {
          "duration": 0.1907890666666674,
          "durationTicks": 232,
          "midi": 52,
          "name": "E3",
          "ticks": 40320,
          "time": 33.157824,
          "velocity": 0.5669291338582677
        },
        {
          "duration": 0.1907890666666674,
          "durationTicks": 232,
          "midi": 62,
          "name": "D4",
          "ticks": 40560,
          "time": 33.355191999999995,
          "velocity": 0.5669291338582677
        },
        {
          "duration": 0.1907890666666674,
          "durationTicks": 232,
          "midi": 55,
          "name": "G3",
          "ticks": 40800,
          "time": 33.55256,
          "velocity": 0.5669291338582677
        },
        {
          "duration": 0.1907890666666674,
          "durationTicks": 232,
          "midi": 52,
          "name": "E3",
          "ticks": 41040,
          "time": 33.749928,
          "velocity": 0.5669291338582677
        },
        {
          "duration": 0.1907890666666674,
          "durationTicks": 232,
          "midi": 62,
          "name": "D4",
          "ticks": 41280,
          "time": 33.947295999999994,
          "velocity": 0.5669291338582677
        },
        {
          "duration": 0.1907890666666674,
          "durationTicks": 232,
          "midi": 55,
          "name": "G3",
          "ticks": 41520,
          "time": 34.144664,
          "velocity": 0.5669291338582677
        },
        {
          "duration": 0.1907890666666674,
          "durationTicks": 232,
          "midi": 52,
          "name": "E3",
          "ticks": 41760,
          "time": 34.342031999999996,
          "velocity": 0.5669291338582677
        },
        {
          "duration": 0.1907890666666674,
          "durationTicks": 232,
          "midi": 62,
          "name": "D4",
          "ticks": 42000,
          "time": 34.5394,
          "velocity": 0.5669291338582677
        },
        {
          "duration": 0.1907890666666674,
          "durationTicks": 232,
          "midi": 55,
          "name": "G3",
          "ticks": 42240,
          "time": 34.736768,
          "velocity": 0.5669291338582677
        },
        {
          "duration": 0.1907890666666674,
          "durationTicks": 232,
          "midi": 52,
          "name": "E3",
          "ticks": 42480,
          "time": 34.934135999999995,
          "velocity": 0.5669291338582677
        },
        {
          "duration": 0.1907890666666674,
          "durationTicks": 232,
          "midi": 62,
          "name": "D4",
          "ticks": 42720,
          "time": 35.131504,
          "velocity": 0.5669291338582677
        },
        {
          "duration": 0.1907890666666674,
          "durationTicks": 232,
          "midi": 55,
          "name": "G3",
          "ticks": 42960,
          "time": 35.328872,
          "velocity": 0.5669291338582677
        },
        {
          "duration": 0.1907890666666603,
          "durationTicks": 232,
          "midi": 52,
          "name": "E3",
          "ticks": 43200,
          "time": 35.52624,
          "velocity": 0.5669291338582677
        },
        {
          "duration": 0.1907890666666674,
          "durationTicks": 232,
          "midi": 62,
          "name": "D4",
          "ticks": 43440,
          "time": 35.723608,
          "velocity": 0.5669291338582677
        },
        {
          "duration": 0.1907890666666674,
          "durationTicks": 232,
          "midi": 55,
          "name": "G3",
          "ticks": 43680,
          "time": 35.920975999999996,
          "velocity": 0.5669291338582677
        },
        {
          "duration": 0.1907890666666674,
          "durationTicks": 232,
          "midi": 52,
          "name": "E3",
          "ticks": 43920,
          "time": 36.118344,
          "velocity": 0.5669291338582677
        },
        {
          "duration": 0.1907890666666674,
          "durationTicks": 232,
          "midi": 62,
          "name": "D4",
          "ticks": 44160,
          "time": 36.315712,
          "velocity": 0.5669291338582677
        },
        {
          "duration": 0.1907890666666674,
          "durationTicks": 232,
          "midi": 55,
          "name": "G3",
          "ticks": 44400,
          "time": 36.513079999999995,
          "velocity": 0.5669291338582677
        },
        {
          "duration": 0.1907890666666674,
          "durationTicks": 232,
          "midi": 52,
          "name": "E3",
          "ticks": 44640,
          "time": 36.710448,
          "velocity": 0.5669291338582677
        },
        {
          "duration": 0.1907890666666674,
          "durationTicks": 232,
          "midi": 62,
          "name": "D4",
          "ticks": 44880,
          "time": 36.907816,
          "velocity": 0.5669291338582677
        },
        {
          "duration": 0.1907890666666674,
          "durationTicks": 232,
          "midi": 55,
          "name": "G3",
          "ticks": 45120,
          "time": 37.105183999999994,
          "velocity": 0.5669291338582677
        },
        {
          "duration": 0.1907890666666674,
          "durationTicks": 232,
          "midi": 52,
          "name": "E3",
          "ticks": 45360,
          "time": 37.302552,
          "velocity": 0.5669291338582677
        },
        {
          "duration": 0.1907890666666674,
          "durationTicks": 232,
          "midi": 62,
          "name": "D4",
          "ticks": 45600,
          "time": 37.499919999999996,
          "velocity": 0.5669291338582677
        },
        {
          "duration": 0.1907890666666674,
          "durationTicks": 232,
          "midi": 55,
          "name": "G3",
          "ticks": 45840,
          "time": 37.697288,
          "velocity": 0.5669291338582677
        },
        {
          "duration": 0.1907890666666674,
          "durationTicks": 232,
          "midi": 52,
          "name": "E3",
          "ticks": 46080,
          "time": 37.894656,
          "velocity": 0.5669291338582677
        },
        {
          "duration": 0.1907890666666674,
          "durationTicks": 232,
          "midi": 62,
          "name": "D4",
          "ticks": 46320,
          "time": 38.092023999999995,
          "velocity": 0.5669291338582677
        },
        {
          "duration": 0.1907890666666674,
          "durationTicks": 232,
          "midi": 55,
          "name": "G3",
          "ticks": 46560,
          "time": 38.289392,
          "velocity": 0.5669291338582677
        },
        {
          "duration": 0.1907890666666674,
          "durationTicks": 232,
          "midi": 52,
          "name": "E3",
          "ticks": 46800,
          "time": 38.48676,
          "velocity": 0.5669291338582677
        },
        {
          "duration": 0.1907890666666603,
          "durationTicks": 232,
          "midi": 62,
          "name": "D4",
          "ticks": 47040,
          "time": 38.684128,
          "velocity": 0.5669291338582677
        },
        {
          "duration": 0.1907890666666674,
          "durationTicks": 232,
          "midi": 55,
          "name": "G3",
          "ticks": 47280,
          "time": 38.881496,
          "velocity": 0.5669291338582677
        },
        {
          "duration": 0.1907890666666674,
          "durationTicks": 232,
          "midi": 52,
          "name": "E3",
          "ticks": 47520,
          "time": 39.078863999999996,
          "velocity": 0.5669291338582677
        },
        {
          "duration": 0.1907890666666674,
          "durationTicks": 232,
          "midi": 64,
          "name": "E4",
          "ticks": 47760,
          "time": 39.276232,
          "velocity": 0.5669291338582677
        },
        {
          "duration": 0.1907890666666674,
          "durationTicks": 232,
          "midi": 57,
          "name": "A3",
          "ticks": 48000,
          "time": 39.4736,
          "velocity": 0.5669291338582677
        },
        {
          "duration": 0.1907890666666674,
          "durationTicks": 232,
          "midi": 54,
          "name": "F#3",
          "ticks": 48240,
          "time": 39.670967999999995,
          "velocity": 0.5669291338582677
        },
        {
          "duration": 0.1907890666666674,
          "durationTicks": 232,
          "midi": 64,
          "name": "E4",
          "ticks": 48480,
          "time": 39.868336,
          "velocity": 0.5669291338582677
        },
        {
          "duration": 0.1907890666666674,
          "durationTicks": 232,
          "midi": 57,
          "name": "A3",
          "ticks": 48720,
          "time": 40.065704,
          "velocity": 0.5669291338582677
        },
        {
          "duration": 0.1907890666666674,
          "durationTicks": 232,
          "midi": 54,
          "name": "F#3",
          "ticks": 48960,
          "time": 40.263071999999994,
          "velocity": 0.5669291338582677
        },
        {
          "duration": 0.1907890666666674,
          "durationTicks": 232,
          "midi": 64,
          "name": "E4",
          "ticks": 49200,
          "time": 40.46044,
          "velocity": 0.5669291338582677
        },
        {
          "duration": 0.1907890666666674,
          "durationTicks": 232,
          "midi": 57,
          "name": "A3",
          "ticks": 49440,
          "time": 40.657807999999996,
          "velocity": 0.5669291338582677
        },
        {
          "duration": 0.1907890666666674,
          "durationTicks": 232,
          "midi": 54,
          "name": "F#3",
          "ticks": 49680,
          "time": 40.855176,
          "velocity": 0.5669291338582677
        },
        {
          "duration": 0.1907890666666674,
          "durationTicks": 232,
          "midi": 64,
          "name": "E4",
          "ticks": 49920,
          "time": 41.052544,
          "velocity": 0.5669291338582677
        },
        {
          "duration": 0.1907890666666674,
          "durationTicks": 232,
          "midi": 57,
          "name": "A3",
          "ticks": 50160,
          "time": 41.249911999999995,
          "velocity": 0.5669291338582677
        },
        {
          "duration": 0.1907890666666674,
          "durationTicks": 232,
          "midi": 54,
          "name": "F#3",
          "ticks": 50400,
          "time": 41.44728,
          "velocity": 0.5669291338582677
        },
        {
          "duration": 0.1907890666666674,
          "durationTicks": 232,
          "midi": 64,
          "name": "E4",
          "ticks": 50640,
          "time": 41.644648,
          "velocity": 0.5669291338582677
        },
        {
          "duration": 0.1907890666666603,
          "durationTicks": 232,
          "midi": 57,
          "name": "A3",
          "ticks": 50880,
          "time": 41.842016,
          "velocity": 0.5669291338582677
        },
        {
          "duration": 0.1907890666666674,
          "durationTicks": 232,
          "midi": 54,
          "name": "F#3",
          "ticks": 51120,
          "time": 42.039384,
          "velocity": 0.5669291338582677
        },
        {
          "duration": 0.1907890666666674,
          "durationTicks": 232,
          "midi": 64,
          "name": "E4",
          "ticks": 51360,
          "time": 42.236751999999996,
          "velocity": 0.5669291338582677
        },
        {
          "duration": 0.1907890666666674,
          "durationTicks": 232,
          "midi": 57,
          "name": "A3",
          "ticks": 51600,
          "time": 42.43412,
          "velocity": 0.5669291338582677
        },
        {
          "duration": 0.1907890666666674,
          "durationTicks": 232,
          "midi": 54,
          "name": "F#3",
          "ticks": 51840,
          "time": 42.631488,
          "velocity": 0.5669291338582677
        },
        {
          "duration": 0.1907890666666674,
          "durationTicks": 232,
          "midi": 64,
          "name": "E4",
          "ticks": 52080,
          "time": 42.828855999999995,
          "velocity": 0.5669291338582677
        },
        {
          "duration": 0.1907890666666674,
          "durationTicks": 232,
          "midi": 57,
          "name": "A3",
          "ticks": 52320,
          "time": 43.026224,
          "velocity": 0.5669291338582677
        },
        {
          "duration": 0.1907890666666674,
          "durationTicks": 232,
          "midi": 54,
          "name": "F#3",
          "ticks": 52560,
          "time": 43.223592,
          "velocity": 0.5669291338582677
        },
        {
          "duration": 0.1907890666666674,
          "durationTicks": 232,
          "midi": 64,
          "name": "E4",
          "ticks": 52800,
          "time": 43.420959999999994,
          "velocity": 0.5669291338582677
        },
        {
          "duration": 0.1907890666666674,
          "durationTicks": 232,
          "midi": 57,
          "name": "A3",
          "ticks": 53040,
          "time": 43.618328,
          "velocity": 0.5669291338582677
        },
        {
          "duration": 0.1907890666666674,
          "durationTicks": 232,
          "midi": 54,
          "name": "F#3",
          "ticks": 53280,
          "time": 43.815695999999996,
          "velocity": 0.5669291338582677
        },
        {
          "duration": 0.1907890666666674,
          "durationTicks": 232,
          "midi": 64,
          "name": "E4",
          "ticks": 53520,
          "time": 44.013064,
          "velocity": 0.5669291338582677
        },
        {
          "duration": 0.1907890666666674,
          "durationTicks": 232,
          "midi": 57,
          "name": "A3",
          "ticks": 53760,
          "time": 44.210432,
          "velocity": 0.5669291338582677
        },
        {
          "duration": 0.1907890666666674,
          "durationTicks": 232,
          "midi": 54,
          "name": "F#3",
          "ticks": 54000,
          "time": 44.407799999999995,
          "velocity": 0.5669291338582677
        },
        {
          "duration": 0.1907890666666674,
          "durationTicks": 232,
          "midi": 64,
          "name": "E4",
          "ticks": 54240,
          "time": 44.605168,
          "velocity": 0.5669291338582677
        },
        {
          "duration": 0.1907890666666674,
          "durationTicks": 232,
          "midi": 57,
          "name": "A3",
          "ticks": 54480,
          "time": 44.802535999999996,
          "velocity": 0.5669291338582677
        },
        {
          "duration": 0.1907890666666603,
          "durationTicks": 232,
          "midi": 54,
          "name": "F#3",
          "ticks": 54720,
          "time": 44.999904,
          "velocity": 0.5669291338582677
        },
        {
          "duration": 0.1907890666666674,
          "durationTicks": 232,
          "midi": 64,
          "name": "E4",
          "ticks": 54960,
          "time": 45.197272,
          "velocity": 0.5669291338582677
        },
        {
          "duration": 0.1907890666666674,
          "durationTicks": 232,
          "midi": 57,
          "name": "A3",
          "ticks": 55200,
          "time": 45.394639999999995,
          "velocity": 0.5669291338582677
        },
        {
          "duration": 0.1907890666666674,
          "durationTicks": 232,
          "midi": 61,
          "name": "C#4",
          "ticks": 55440,
          "time": 45.592008,
          "velocity": 0.5669291338582677
        },
        {
          "duration": 0.1907890666666674,
          "durationTicks": 232,
          "midi": 69,
          "name": "A4",
          "ticks": 55680,
          "time": 45.789376,
          "velocity": 0.5669291338582677
        },
        {
          "duration": 0.1907890666666674,
          "durationTicks": 232,
          "midi": 61,
          "name": "C#4",
          "ticks": 55920,
          "time": 45.986743999999995,
          "velocity": 0.5669291338582677
        },
        {
          "duration": 0.1907890666666674,
          "durationTicks": 232,
          "midi": 57,
          "name": "A3",
          "ticks": 56160,
          "time": 46.184112,
          "velocity": 0.5669291338582677
        },
        {
          "duration": 0.1907890666666674,
          "durationTicks": 232,
          "midi": 69,
          "name": "A4",
          "ticks": 56400,
          "time": 46.381479999999996,
          "velocity": 0.5669291338582677
        },
        {
          "duration": 0.1907890666666674,
          "durationTicks": 232,
          "midi": 61,
          "name": "C#4",
          "ticks": 56640,
          "time": 46.578847999999994,
          "velocity": 0.5669291338582677
        },
        {
          "duration": 0.1907890666666674,
          "durationTicks": 232,
          "midi": 57,
          "name": "A3",
          "ticks": 56880,
          "time": 46.776216,
          "velocity": 0.5669291338582677
        },
        {
          "duration": 0.1907890666666674,
          "durationTicks": 232,
          "midi": 69,
          "name": "A4",
          "ticks": 57120,
          "time": 46.973583999999995,
          "velocity": 0.5669291338582677
        },
        {
          "duration": 0.1907890666666674,
          "durationTicks": 232,
          "midi": 61,
          "name": "C#4",
          "ticks": 57360,
          "time": 47.170952,
          "velocity": 0.5669291338582677
        },
        {
          "duration": 0.1907890666666674,
          "durationTicks": 232,
          "midi": 57,
          "name": "A3",
          "ticks": 57600,
          "time": 47.36832,
          "velocity": 0.5669291338582677
        },
        {
          "duration": 0.1907890666666674,
          "durationTicks": 232,
          "midi": 69,
          "name": "A4",
          "ticks": 57840,
          "time": 47.565687999999994,
          "velocity": 0.5669291338582677
        },
        {
          "duration": 0.1907890666666674,
          "durationTicks": 232,
          "midi": 61,
          "name": "C#4",
          "ticks": 58080,
          "time": 47.763056,
          "velocity": 0.5669291338582677
        },
        {
          "duration": 0.1907890666666674,
          "durationTicks": 232,
          "midi": 57,
          "name": "A3",
          "ticks": 58320,
          "time": 47.960423999999996,
          "velocity": 0.5669291338582677
        },
        {
          "duration": 0.1907890666666603,
          "durationTicks": 232,
          "midi": 69,
          "name": "A4",
          "ticks": 58560,
          "time": 48.157792,
          "velocity": 0.5669291338582677
        },
        {
          "duration": 0.1907890666666674,
          "durationTicks": 232,
          "midi": 61,
          "name": "C#4",
          "ticks": 58800,
          "time": 48.35516,
          "velocity": 0.5669291338582677
        },
        {
          "duration": 0.1907890666666674,
          "durationTicks": 232,
          "midi": 57,
          "name": "A3",
          "ticks": 59040,
          "time": 48.552527999999995,
          "velocity": 0.5669291338582677
        },
        {
          "duration": 0.1907890666666674,
          "durationTicks": 232,
          "midi": 67,
          "name": "G4",
          "ticks": 59280,
          "time": 48.749896,
          "velocity": 0.5669291338582677
        },
        {
          "duration": 0.1907890666666674,
          "durationTicks": 232,
          "midi": 61,
          "name": "C#4",
          "ticks": 59520,
          "time": 48.947264,
          "velocity": 0.5669291338582677
        },
        {
          "duration": 0.1907890666666674,
          "durationTicks": 232,
          "midi": 57,
          "name": "A3",
          "ticks": 59760,
          "time": 49.144631999999994,
          "velocity": 0.5669291338582677
        },
        {
          "duration": 0.1907890666666674,
          "durationTicks": 232,
          "midi": 67,
          "name": "G4",
          "ticks": 60000,
          "time": 49.342,
          "velocity": 0.5669291338582677
        },
        {
          "duration": 0.1907890666666674,
          "durationTicks": 232,
          "midi": 61,
          "name": "C#4",
          "ticks": 60240,
          "time": 49.539367999999996,
          "velocity": 0.5669291338582677
        },
        {
          "duration": 0.1907890666666674,
          "durationTicks": 232,
          "midi": 57,
          "name": "A3",
          "ticks": 60480,
          "time": 49.73673599999999,
          "velocity": 0.5669291338582677
        },
        {
          "duration": 0.1907890666666674,
          "durationTicks": 232,
          "midi": 67,
          "name": "G4",
          "ticks": 60720,
          "time": 49.934104,
          "velocity": 0.5669291338582677
        },
        {
          "duration": 0.1907890666666674,
          "durationTicks": 232,
          "midi": 61,
          "name": "C#4",
          "ticks": 60960,
          "time": 50.131471999999995,
          "velocity": 0.5669291338582677
        },
        {
          "duration": 0.1907890666666674,
          "durationTicks": 232,
          "midi": 57,
          "name": "A3",
          "ticks": 61200,
          "time": 50.32884,
          "velocity": 0.5669291338582677
        },
        {
          "duration": 0.1907890666666603,
          "durationTicks": 232,
          "midi": 66,
          "name": "F#4",
          "ticks": 61440,
          "time": 50.526208,
          "velocity": 0.5669291338582677
        },
        {
          "duration": 0.1907890666666674,
          "durationTicks": 232,
          "midi": 61,
          "name": "C#4",
          "ticks": 61680,
          "time": 50.723575999999994,
          "velocity": 0.5669291338582677
        },
        {
          "duration": 0.1907890666666603,
          "durationTicks": 232,
          "midi": 57,
          "name": "A3",
          "ticks": 61920,
          "time": 50.920944,
          "velocity": 0.5669291338582677
        },
        {
          "duration": 0.1907890666666603,
          "durationTicks": 232,
          "midi": 66,
          "name": "F#4",
          "ticks": 62160,
          "time": 51.118311999999996,
          "velocity": 0.5669291338582677
        },
        {
          "duration": 0.1907890666666603,
          "durationTicks": 232,
          "midi": 61,
          "name": "C#4",
          "ticks": 62400,
          "time": 51.31568,
          "velocity": 0.5669291338582677
        },
        {
          "duration": 0.1907890666666603,
          "durationTicks": 232,
          "midi": 55,
          "name": "G3",
          "ticks": 62640,
          "time": 51.513048,
          "velocity": 0.5669291338582677
        },
        {
          "duration": 0.1907890666666603,
          "durationTicks": 232,
          "midi": 59,
          "name": "B3",
          "ticks": 62640,
          "time": 51.513048,
          "velocity": 0.5669291338582677
        },
        {
          "duration": 0.1907890666666603,
          "durationTicks": 232,
          "midi": 66,
          "name": "F#4",
          "ticks": 62880,
          "time": 51.710415999999995,
          "velocity": 0.5669291338582677
        },
        {
          "duration": 0.1907890666666603,
          "durationTicks": 232,
          "midi": 59,
          "name": "B3",
          "ticks": 63120,
          "time": 51.907784,
          "velocity": 0.5669291338582677
        },
        {
          "duration": 0.1907890666666603,
          "durationTicks": 232,
          "midi": 55,
          "name": "G3",
          "ticks": 63360,
          "time": 52.105152,
          "velocity": 0.5669291338582677
        },
        {
          "duration": 0.1907890666666674,
          "durationTicks": 232,
          "midi": 66,
          "name": "F#4",
          "ticks": 63600,
          "time": 52.302519999999994,
          "velocity": 0.5669291338582677
        },
        {
          "duration": 0.1907890666666603,
          "durationTicks": 232,
          "midi": 59,
          "name": "B3",
          "ticks": 63840,
          "time": 52.499888,
          "velocity": 0.5669291338582677
        },
        {
          "duration": 0.1907890666666603,
          "durationTicks": 232,
          "midi": 55,
          "name": "G3",
          "ticks": 64080,
          "time": 52.697255999999996,
          "velocity": 0.5669291338582677
        },
        {
          "duration": 0.1907890666666674,
          "durationTicks": 232,
          "midi": 66,
          "name": "F#4",
          "ticks": 64320,
          "time": 52.89462399999999,
          "velocity": 0.5669291338582677
        },
        {
          "duration": 0.1907890666666603,
          "durationTicks": 232,
          "midi": 59,
          "name": "B3",
          "ticks": 64560,
          "time": 53.091992,
          "velocity": 0.5669291338582677
        },
        {
          "duration": 0.1907890666666603,
          "durationTicks": 232,
          "midi": 55,
          "name": "G3",
          "ticks": 64800,
          "time": 53.289359999999995,
          "velocity": 0.5669291338582677
        },
        {
          "duration": 0.1907890666666603,
          "durationTicks": 232,
          "midi": 66,
          "name": "F#4",
          "ticks": 65040,
          "time": 53.486728,
          "velocity": 0.5669291338582677
        },
        {
          "duration": 0.1907890666666603,
          "durationTicks": 232,
          "midi": 59,
          "name": "B3",
          "ticks": 65280,
          "time": 53.684096,
          "velocity": 0.5669291338582677
        },
        {
          "duration": 0.1907890666666674,
          "durationTicks": 232,
          "midi": 55,
          "name": "G3",
          "ticks": 65520,
          "time": 53.881463999999994,
          "velocity": 0.5669291338582677
        },
        {
          "duration": 0.1907890666666603,
          "durationTicks": 232,
          "midi": 66,
          "name": "F#4",
          "ticks": 65760,
          "time": 54.078832,
          "velocity": 0.5669291338582677
        },
        {
          "duration": 0.1907890666666603,
          "durationTicks": 232,
          "midi": 59,
          "name": "B3",
          "ticks": 66000,
          "time": 54.276199999999996,
          "velocity": 0.5669291338582677
        },
        {
          "duration": 0.1907890666666603,
          "durationTicks": 232,
          "midi": 55,
          "name": "G3",
          "ticks": 66240,
          "time": 54.473568,
          "velocity": 0.5669291338582677
        },
        {
          "duration": 0.1907890666666603,
          "durationTicks": 232,
          "midi": 66,
          "name": "F#4",
          "ticks": 66480,
          "time": 54.670936,
          "velocity": 0.5669291338582677
        },
        {
          "duration": 0.1907890666666603,
          "durationTicks": 232,
          "midi": 59,
          "name": "B3",
          "ticks": 66720,
          "time": 54.868303999999995,
          "velocity": 0.5669291338582677
        },
        {
          "duration": 0.1907890666666603,
          "durationTicks": 232,
          "midi": 55,
          "name": "G3",
          "ticks": 66960,
          "time": 55.065672,
          "velocity": 0.5669291338582677
        },
        {
          "duration": 0.1907890666666603,
          "durationTicks": 232,
          "midi": 66,
          "name": "F#4",
          "ticks": 67200,
          "time": 55.26304,
          "velocity": 0.5669291338582677
        },
        {
          "duration": 0.1907890666666674,
          "durationTicks": 232,
          "midi": 59,
          "name": "B3",
          "ticks": 67440,
          "time": 55.460407999999994,
          "velocity": 0.5669291338582677
        },
        {
          "duration": 0.1907890666666603,
          "durationTicks": 232,
          "midi": 55,
          "name": "G3",
          "ticks": 67680,
          "time": 55.657776,
          "velocity": 0.5669291338582677
        },
        {
          "duration": 0.1907890666666603,
          "durationTicks": 232,
          "midi": 66,
          "name": "F#4",
          "ticks": 67920,
          "time": 55.855143999999996,
          "velocity": 0.5669291338582677
        },
        {
          "duration": 0.1907890666666674,
          "durationTicks": 232,
          "midi": 59,
          "name": "B3",
          "ticks": 68160,
          "time": 56.05251199999999,
          "velocity": 0.5669291338582677
        },
        {
          "duration": 0.1907890666666603,
          "durationTicks": 232,
          "midi": 55,
          "name": "G3",
          "ticks": 68400,
          "time": 56.24988,
          "velocity": 0.5669291338582677
        },
        {
          "duration": 0.1907890666666603,
          "durationTicks": 232,
          "midi": 66,
          "name": "F#4",
          "ticks": 68640,
          "time": 56.447247999999995,
          "velocity": 0.5669291338582677
        },
        {
          "duration": 0.1907890666666603,
          "durationTicks": 232,
          "midi": 59,
          "name": "B3",
          "ticks": 68880,
          "time": 56.644616,
          "velocity": 0.5669291338582677
        },
        {
          "duration": 0.1907890666666603,
          "durationTicks": 232,
          "midi": 55,
          "name": "G3",
          "ticks": 69120,
          "time": 56.841984,
          "velocity": 0.5669291338582677
        },
        {
          "duration": 0.1907890666666674,
          "durationTicks": 232,
          "midi": 66,
          "name": "F#4",
          "ticks": 69360,
          "time": 57.039351999999994,
          "velocity": 0.5669291338582677
        },
        {
          "duration": 0.1907890666666603,
          "durationTicks": 232,
          "midi": 59,
          "name": "B3",
          "ticks": 69600,
          "time": 57.23672,
          "velocity": 0.5669291338582677
        },
        {
          "duration": 0.1907890666666603,
          "durationTicks": 232,
          "midi": 55,
          "name": "G3",
          "ticks": 69840,
          "time": 57.434087999999996,
          "velocity": 0.5669291338582677
        },
        {
          "duration": 0.1907890666666603,
          "durationTicks": 232,
          "midi": 66,
          "name": "F#4",
          "ticks": 70080,
          "time": 57.631456,
          "velocity": 0.5669291338582677
        },
        {
          "duration": 0.1907890666666603,
          "durationTicks": 232,
          "midi": 59,
          "name": "B3",
          "ticks": 70320,
          "time": 57.828824,
          "velocity": 0.5669291338582677
        },
        {
          "duration": 0.3881570666666647,
          "durationTicks": 472,
          "midi": 55,
          "name": "G3",
          "ticks": 70560,
          "time": 58.026191999999995,
          "velocity": 0.5669291338582677
        },
        {
          "duration": 0.1907890666666603,
          "durationTicks": 232,
          "midi": 62,
          "name": "D4",
          "ticks": 71040,
          "time": 58.420927999999996,
          "velocity": 0.5669291338582677
        },
        {
          "duration": 0.1907890666666674,
          "durationTicks": 232,
          "midi": 55,
          "name": "G3",
          "ticks": 71280,
          "time": 58.618295999999994,
          "velocity": 0.5669291338582677
        },
        {
          "duration": 0.1907890666666603,
          "durationTicks": 232,
          "midi": 52,
          "name": "E3",
          "ticks": 71520,
          "time": 58.815664,
          "velocity": 0.5669291338582677
        },
        {
          "duration": 0.1907890666666603,
          "durationTicks": 232,
          "midi": 62,
          "name": "D4",
          "ticks": 71760,
          "time": 59.013031999999995,
          "velocity": 0.5669291338582677
        },
        {
          "duration": 0.1907890666666674,
          "durationTicks": 232,
          "midi": 55,
          "name": "G3",
          "ticks": 72000,
          "time": 59.21039999999999,
          "velocity": 0.5669291338582677
        },
        {
          "duration": 0.1907890666666603,
          "durationTicks": 232,
          "midi": 52,
          "name": "E3",
          "ticks": 72240,
          "time": 59.407768,
          "velocity": 0.5669291338582677
        },
        {
          "duration": 0.1907890666666603,
          "durationTicks": 232,
          "midi": 62,
          "name": "D4",
          "ticks": 72480,
          "time": 59.605135999999995,
          "velocity": 0.5669291338582677
        },
        {
          "duration": 0.1907890666666603,
          "durationTicks": 232,
          "midi": 55,
          "name": "G3",
          "ticks": 72720,
          "time": 59.802504,
          "velocity": 0.5669291338582677
        },
        {
          "duration": 0.1907890666666603,
          "durationTicks": 232,
          "midi": 52,
          "name": "E3",
          "ticks": 72960,
          "time": 59.999871999999996,
          "velocity": 0.5669291338582677
        },
        {
          "duration": 0.1907890666666674,
          "durationTicks": 232,
          "midi": 62,
          "name": "D4",
          "ticks": 73200,
          "time": 60.197239999999994,
          "velocity": 0.5669291338582677
        },
        {
          "duration": 0.1907890666666603,
          "durationTicks": 232,
          "midi": 55,
          "name": "G3",
          "ticks": 73440,
          "time": 60.394608,
          "velocity": 0.5669291338582677
        },
        {
          "duration": 0.1907890666666603,
          "durationTicks": 232,
          "midi": 52,
          "name": "E3",
          "ticks": 73680,
          "time": 60.591975999999995,
          "velocity": 0.5669291338582677
        },
        {
          "duration": 0.1907890666666603,
          "durationTicks": 232,
          "midi": 62,
          "name": "D4",
          "ticks": 73920,
          "time": 60.789344,
          "velocity": 0.5669291338582677
        },
        {
          "duration": 0.1907890666666603,
          "durationTicks": 232,
          "midi": 55,
          "name": "G3",
          "ticks": 74160,
          "time": 60.986712,
          "velocity": 0.5669291338582677
        },
        {
          "duration": 0.1907890666666603,
          "durationTicks": 232,
          "midi": 52,
          "name": "E3",
          "ticks": 74400,
          "time": 61.184079999999994,
          "velocity": 0.5669291338582677
        },
        {
          "duration": 0.1907890666666603,
          "durationTicks": 232,
          "midi": 62,
          "name": "D4",
          "ticks": 74640,
          "time": 61.381448,
          "velocity": 0.5669291338582677
        },
        {
          "duration": 0.1907890666666603,
          "durationTicks": 232,
          "midi": 55,
          "name": "G3",
          "ticks": 74880,
          "time": 61.578815999999996,
          "velocity": 0.5669291338582677
        },
        {
          "duration": 0.1907890666666674,
          "durationTicks": 232,
          "midi": 52,
          "name": "E3",
          "ticks": 75120,
          "time": 61.77618399999999,
          "velocity": 0.5669291338582677
        },
        {
          "duration": 0.1907890666666603,
          "durationTicks": 232,
          "midi": 62,
          "name": "D4",
          "ticks": 75360,
          "time": 61.973552,
          "velocity": 0.5669291338582677
        },
        {
          "duration": 0.1907890666666603,
          "durationTicks": 232,
          "midi": 55,
          "name": "G3",
          "ticks": 75600,
          "time": 62.170919999999995,
          "velocity": 0.5669291338582677
        },
        {
          "duration": 0.1907890666666674,
          "durationTicks": 232,
          "midi": 52,
          "name": "E3",
          "ticks": 75840,
          "time": 62.36828799999999,
          "velocity": 0.5669291338582677
        },
        {
          "duration": 0.1907890666666603,
          "durationTicks": 232,
          "midi": 62,
          "name": "D4",
          "ticks": 76080,
          "time": 62.565656,
          "velocity": 0.5669291338582677
        },
        {
          "duration": 0.1907890666666603,
          "durationTicks": 232,
          "midi": 55,
          "name": "G3",
          "ticks": 76320,
          "time": 62.763023999999994,
          "velocity": 0.5669291338582677
        },
        {
          "duration": 0.1907890666666603,
          "durationTicks": 232,
          "midi": 52,
          "name": "E3",
          "ticks": 76560,
          "time": 62.960392,
          "velocity": 0.5669291338582677
        },
        {
          "duration": 0.1907890666666603,
          "durationTicks": 232,
          "midi": 62,
          "name": "D4",
          "ticks": 76800,
          "time": 63.157759999999996,
          "velocity": 0.5669291338582677
        },
        {
          "duration": 0.1907890666666674,
          "durationTicks": 232,
          "midi": 55,
          "name": "G3",
          "ticks": 77040,
          "time": 63.35512799999999,
          "velocity": 0.5669291338582677
        },
        {
          "duration": 0.1907890666666603,
          "durationTicks": 232,
          "midi": 52,
          "name": "E3",
          "ticks": 77280,
          "time": 63.552496,
          "velocity": 0.5669291338582677
        },
        {
          "duration": 0.1907890666666603,
          "durationTicks": 232,
          "midi": 62,
          "name": "D4",
          "ticks": 77520,
          "time": 63.749863999999995,
          "velocity": 0.5669291338582677
        },
        {
          "duration": 0.19078906666665318,
          "durationTicks": 232,
          "midi": 55,
          "name": "G3",
          "ticks": 77760,
          "time": 63.947232,
          "velocity": 0.5669291338582677
        },
        {
          "duration": 0.1907890666666674,
          "durationTicks": 232,
          "midi": 52,
          "name": "E3",
          "ticks": 78000,
          "time": 64.1446,
          "velocity": 0.5669291338582677
        },
        {
          "duration": 0.1907890666666674,
          "durationTicks": 232,
          "midi": 64,
          "name": "E4",
          "ticks": 78240,
          "time": 64.341968,
          "velocity": 0.5669291338582677
        },
        {
          "duration": 0.1907890666666674,
          "durationTicks": 232,
          "midi": 57,
          "name": "A3",
          "ticks": 78480,
          "time": 64.53933599999999,
          "velocity": 0.5669291338582677
        },
        {
          "duration": 0.19078906666665318,
          "durationTicks": 232,
          "midi": 54,
          "name": "F#3",
          "ticks": 78720,
          "time": 64.736704,
          "velocity": 0.5669291338582677
        },
        {
          "duration": 0.19078906666665318,
          "durationTicks": 232,
          "midi": 64,
          "name": "E4",
          "ticks": 78960,
          "time": 64.934072,
          "velocity": 0.5669291338582677
        },
        {
          "duration": 0.19078906666665318,
          "durationTicks": 232,
          "midi": 57,
          "name": "A3",
          "ticks": 79200,
          "time": 65.13144,
          "velocity": 0.5669291338582677
        },
        {
          "duration": 0.1907890666666674,
          "durationTicks": 232,
          "midi": 54,
          "name": "F#3",
          "ticks": 79440,
          "time": 65.328808,
          "velocity": 0.5669291338582677
        },
        {
          "duration": 0.1907890666666674,
          "durationTicks": 232,
          "midi": 64,
          "name": "E4",
          "ticks": 79680,
          "time": 65.52617599999999,
          "velocity": 0.5669291338582677
        },
        {
          "duration": 0.1907890666666674,
          "durationTicks": 232,
          "midi": 57,
          "name": "A3",
          "ticks": 79920,
          "time": 65.72354399999999,
          "velocity": 0.5669291338582677
        },
        {
          "duration": 0.19078906666665318,
          "durationTicks": 232,
          "midi": 54,
          "name": "F#3",
          "ticks": 80160,
          "time": 65.920912,
          "velocity": 0.5669291338582677
        },
        {
          "duration": 0.19078906666665318,
          "durationTicks": 232,
          "midi": 64,
          "name": "E4",
          "ticks": 80400,
          "time": 66.11828,
          "velocity": 0.5669291338582677
        },
        {
          "duration": 0.1907890666666674,
          "durationTicks": 232,
          "midi": 57,
          "name": "A3",
          "ticks": 80640,
          "time": 66.315648,
          "velocity": 0.5669291338582677
        },
        {
          "duration": 0.1907890666666674,
          "durationTicks": 232,
          "midi": 54,
          "name": "F#3",
          "ticks": 80880,
          "time": 66.513016,
          "velocity": 0.5669291338582677
        },
        {
          "duration": 0.1907890666666674,
          "durationTicks": 232,
          "midi": 64,
          "name": "E4",
          "ticks": 81120,
          "time": 66.71038399999999,
          "velocity": 0.5669291338582677
        },
        {
          "duration": 0.19078906666665318,
          "durationTicks": 232,
          "midi": 57,
          "name": "A3",
          "ticks": 81360,
          "time": 66.907752,
          "velocity": 0.5669291338582677
        },
        {
          "duration": 0.19078906666665318,
          "durationTicks": 232,
          "midi": 54,
          "name": "F#3",
          "ticks": 81600,
          "time": 67.10512,
          "velocity": 0.5669291338582677
        },
        {
          "duration": 0.1907890666666674,
          "durationTicks": 232,
          "midi": 64,
          "name": "E4",
          "ticks": 81840,
          "time": 67.302488,
          "velocity": 0.5669291338582677
        },
        {
          "duration": 0.1907890666666674,
          "durationTicks": 232,
          "midi": 57,
          "name": "A3",
          "ticks": 82080,
          "time": 67.499856,
          "velocity": 0.5669291338582677
        },
        {
          "duration": 0.1907890666666674,
          "durationTicks": 232,
          "midi": 54,
          "name": "F#3",
          "ticks": 82320,
          "time": 67.69722399999999,
          "velocity": 0.5669291338582677
        },
        {
          "duration": 0.1907890666666674,
          "durationTicks": 232,
          "midi": 64,
          "name": "E4",
          "ticks": 82560,
          "time": 67.89459199999999,
          "velocity": 0.5669291338582677
        },
        {
          "duration": 0.19078906666665318,
          "durationTicks": 232,
          "midi": 57,
          "name": "A3",
          "ticks": 82800,
          "time": 68.09196,
          "velocity": 0.5669291338582677
        },
        {
          "duration": 0.19078906666665318,
          "durationTicks": 232,
          "midi": 54,
          "name": "F#3",
          "ticks": 83040,
          "time": 68.289328,
          "velocity": 0.5669291338582677
        },
        {
          "duration": 0.1907890666666674,
          "durationTicks": 232,
          "midi": 64,
          "name": "E4",
          "ticks": 83280,
          "time": 68.486696,
          "velocity": 0.5669291338582677
        },
        {
          "duration": 0.1907890666666674,
          "durationTicks": 232,
          "midi": 57,
          "name": "A3",
          "ticks": 83520,
          "time": 68.68406399999999,
          "velocity": 0.5669291338582677
        },
        {
          "duration": 0.1907890666666674,
          "durationTicks": 232,
          "midi": 54,
          "name": "F#3",
          "ticks": 83760,
          "time": 68.88143199999999,
          "velocity": 0.5669291338582677
        },
        {
          "duration": 0.19078906666665318,
          "durationTicks": 232,
          "midi": 64,
          "name": "E4",
          "ticks": 84000,
          "time": 69.0788,
          "velocity": 0.5669291338582677
        },
        {
          "duration": 0.19078906666665318,
          "durationTicks": 232,
          "midi": 57,
          "name": "A3",
          "ticks": 84240,
          "time": 69.276168,
          "velocity": 0.5669291338582677
        },
        {
          "duration": 0.1907890666666674,
          "durationTicks": 232,
          "midi": 54,
          "name": "F#3",
          "ticks": 84480,
          "time": 69.473536,
          "velocity": 0.5669291338582677
        },
        {
          "duration": 0.1907890666666674,
          "durationTicks": 232,
          "midi": 64,
          "name": "E4",
          "ticks": 84720,
          "time": 69.670904,
          "velocity": 0.5669291338582677
        },
        {
          "duration": 0.1907890666666674,
          "durationTicks": 232,
          "midi": 57,
          "name": "A3",
          "ticks": 84960,
          "time": 69.86827199999999,
          "velocity": 0.5669291338582677
        },
        {
          "duration": 0.19078906666665318,
          "durationTicks": 232,
          "midi": 54,
          "name": "F#3",
          "ticks": 85200,
          "time": 70.06564,
          "velocity": 0.5669291338582677
        },
        {
          "duration": 0.19078906666665318,
          "durationTicks": 232,
          "midi": 64,
          "name": "E4",
          "ticks": 85440,
          "time": 70.263008,
          "velocity": 0.5669291338582677
        },
        {
          "duration": 0.1907890666666674,
          "durationTicks": 232,
          "midi": 57,
          "name": "A3",
          "ticks": 85680,
          "time": 70.460376,
          "velocity": 0.5669291338582677
        },
        {
          "duration": 0.1907890666666674,
          "durationTicks": 232,
          "midi": 61,
          "name": "C#4",
          "ticks": 85920,
          "time": 70.657744,
          "velocity": 0.5669291338582677
        },
        {
          "duration": 0.1907890666666674,
          "durationTicks": 232,
          "midi": 69,
          "name": "A4",
          "ticks": 86160,
          "time": 70.85511199999999,
          "velocity": 0.5669291338582677
        },
        {
          "duration": 0.19078906666665318,
          "durationTicks": 232,
          "midi": 61,
          "name": "C#4",
          "ticks": 86400,
          "time": 71.05248,
          "velocity": 0.5669291338582677
        },
        {
          "duration": 0.19078906666665318,
          "durationTicks": 232,
          "midi": 57,
          "name": "A3",
          "ticks": 86640,
          "time": 71.249848,
          "velocity": 0.5669291338582677
        },
        {
          "duration": 0.19078906666665318,
          "durationTicks": 232,
          "midi": 69,
          "name": "A4",
          "ticks": 86880,
          "time": 71.447216,
          "velocity": 0.5669291338582677
        },
        {
          "duration": 0.1907890666666674,
          "durationTicks": 232,
          "midi": 61,
          "name": "C#4",
          "ticks": 87120,
          "time": 71.644584,
          "velocity": 0.5669291338582677
        },
        {
          "duration": 0.1907890666666674,
          "durationTicks": 232,
          "midi": 57,
          "name": "A3",
          "ticks": 87360,
          "time": 71.84195199999999,
          "velocity": 0.5669291338582677
        },
        {
          "duration": 0.1907890666666674,
          "durationTicks": 232,
          "midi": 69,
          "name": "A4",
          "ticks": 87600,
          "time": 72.03931999999999,
          "velocity": 0.5669291338582677
        },
        {
          "duration": 0.19078906666665318,
          "durationTicks": 232,
          "midi": 61,
          "name": "C#4",
          "ticks": 87840,
          "time": 72.236688,
          "velocity": 0.5669291338582677
        },
        {
          "duration": 0.19078906666665318,
          "durationTicks": 232,
          "midi": 57,
          "name": "A3",
          "ticks": 88080,
          "time": 72.434056,
          "velocity": 0.5669291338582677
        },
        {
          "duration": 0.1907890666666674,
          "durationTicks": 232,
          "midi": 69,
          "name": "A4",
          "ticks": 88320,
          "time": 72.631424,
          "velocity": 0.5669291338582677
        },
        {
          "duration": 0.1907890666666674,
          "durationTicks": 232,
          "midi": 61,
          "name": "C#4",
          "ticks": 88560,
          "time": 72.82879199999999,
          "velocity": 0.5669291338582677
        },
        {
          "duration": 0.1907890666666674,
          "durationTicks": 232,
          "midi": 57,
          "name": "A3",
          "ticks": 88800,
          "time": 73.02615999999999,
          "velocity": 0.5669291338582677
        },
        {
          "duration": 0.19078906666665318,
          "durationTicks": 232,
          "midi": 69,
          "name": "A4",
          "ticks": 89040,
          "time": 73.223528,
          "velocity": 0.5669291338582677
        },
        {
          "duration": 0.19078906666665318,
          "durationTicks": 232,
          "midi": 61,
          "name": "C#4",
          "ticks": 89280,
          "time": 73.420896,
          "velocity": 0.5669291338582677
        },
        {
          "duration": 0.1907890666666674,
          "durationTicks": 232,
          "midi": 57,
          "name": "A3",
          "ticks": 89520,
          "time": 73.618264,
          "velocity": 0.5669291338582677
        },
        {
          "duration": 0.1907890666666674,
          "durationTicks": 232,
          "midi": 69,
          "name": "A4",
          "ticks": 89760,
          "time": 73.815632,
          "velocity": 0.5669291338582677
        },
        {
          "duration": 0.1907890666666674,
          "durationTicks": 232,
          "midi": 61,
          "name": "C#4",
          "ticks": 90000,
          "time": 74.01299999999999,
          "velocity": 0.5669291338582677
        },
        {
          "duration": 0.1907890666666674,
          "durationTicks": 232,
          "midi": 57,
          "name": "A3",
          "ticks": 90240,
          "time": 74.21036799999999,
          "velocity": 0.5669291338582677
        },
        {
          "duration": 0.19078906666665318,
          "durationTicks": 232,
          "midi": 69,
          "name": "A4",
          "ticks": 90480,
          "time": 74.407736,
          "velocity": 0.5669291338582677
        },
        {
          "duration": 0.19078906666665318,
          "durationTicks": 232,
          "midi": 61,
          "name": "C#4",
          "ticks": 90720,
          "time": 74.605104,
          "velocity": 0.5669291338582677
        },
        {
          "duration": 0.1907890666666674,
          "durationTicks": 232,
          "midi": 57,
          "name": "A3",
          "ticks": 90960,
          "time": 74.802472,
          "velocity": 0.5669291338582677
        },
        {
          "duration": 0.1907890666666674,
          "durationTicks": 232,
          "midi": 69,
          "name": "A4",
          "ticks": 91200,
          "time": 74.99983999999999,
          "velocity": 0.5669291338582677
        },
        {
          "duration": 0.1907890666666674,
          "durationTicks": 232,
          "midi": 61,
          "name": "C#4",
          "ticks": 91440,
          "time": 75.19720799999999,
          "velocity": 0.5669291338582677
        },
        {
          "duration": 0.19078906666665318,
          "durationTicks": 232,
          "midi": 57,
          "name": "A3",
          "ticks": 91680,
          "time": 75.394576,
          "velocity": 0.5669291338582677
        },
        {
          "duration": 0.19078906666665318,
          "durationTicks": 232,
          "midi": 69,
          "name": "A4",
          "ticks": 91920,
          "time": 75.591944,
          "velocity": 0.5669291338582677
        },
        {
          "duration": 0.1907890666666674,
          "durationTicks": 232,
          "midi": 61,
          "name": "C#4",
          "ticks": 92160,
          "time": 75.789312,
          "velocity": 0.5669291338582677
        },
        {
          "duration": 0.1907890666666674,
          "durationTicks": 232,
          "midi": 57,
          "name": "A3",
          "ticks": 92400,
          "time": 75.98667999999999,
          "velocity": 0.5669291338582677
        },
        {
          "duration": 0.1907890666666674,
          "durationTicks": 232,
          "midi": 69,
          "name": "A4",
          "ticks": 92640,
          "time": 76.18404799999999,
          "velocity": 0.5669291338582677
        },
        {
          "duration": 0.19078906666665318,
          "durationTicks": 232,
          "midi": 61,
          "name": "C#4",
          "ticks": 92880,
          "time": 76.381416,
          "velocity": 0.5669291338582677
        },
        {
          "duration": 0.19078906666665318,
          "durationTicks": 232,
          "midi": 57,
          "name": "A3",
          "ticks": 93120,
          "time": 76.578784,
          "velocity": 0.5669291338582677
        },
        {
          "duration": 0.1907890666666674,
          "durationTicks": 232,
          "midi": 69,
          "name": "A4",
          "ticks": 93360,
          "time": 76.776152,
          "velocity": 0.5669291338582677
        },
        {
          "duration": 0.1907890666666674,
          "durationTicks": 232,
          "midi": 61,
          "name": "C#4",
          "ticks": 93600,
          "time": 76.97352,
          "velocity": 0.5669291338582677
        },
        {
          "duration": 0.1907890666666674,
          "durationTicks": 232,
          "midi": 57,
          "name": "A3",
          "ticks": 93840,
          "time": 77.17088799999999,
          "velocity": 0.5669291338582677
        },
        {
          "duration": 0.19078906666665318,
          "durationTicks": 232,
          "midi": 66,
          "name": "F#4",
          "ticks": 94080,
          "time": 77.368256,
          "velocity": 0.5669291338582677
        },
        {
          "duration": 0.19078906666665318,
          "durationTicks": 232,
          "midi": 59,
          "name": "B3",
          "ticks": 94320,
          "time": 77.565624,
          "velocity": 0.5669291338582677
        },
        {
          "duration": 0.19078906666665318,
          "durationTicks": 232,
          "midi": 55,
          "name": "G3",
          "ticks": 94560,
          "time": 77.762992,
          "velocity": 0.5669291338582677
        },
        {
          "duration": 0.1907890666666674,
          "durationTicks": 232,
          "midi": 66,
          "name": "F#4",
          "ticks": 94800,
          "time": 77.96036,
          "velocity": 0.5669291338582677
        },
        {
          "duration": 0.1907890666666674,
          "durationTicks": 232,
          "midi": 59,
          "name": "B3",
          "ticks": 95040,
          "time": 78.15772799999999,
          "velocity": 0.5669291338582677
        },
        {
          "duration": 0.1907890666666674,
          "durationTicks": 232,
          "midi": 55,
          "name": "G3",
          "ticks": 95280,
          "time": 78.35509599999999,
          "velocity": 0.5669291338582677
        },
        {
          "duration": 0.19078906666665318,
          "durationTicks": 232,
          "midi": 66,
          "name": "F#4",
          "ticks": 95520,
          "time": 78.552464,
          "velocity": 0.5669291338582677
        },
        {
          "duration": 0.19078906666665318,
          "durationTicks": 232,
          "midi": 59,
          "name": "B3",
          "ticks": 95760,
          "time": 78.749832,
          "velocity": 0.5669291338582677
        },
        {
          "duration": 0.1907890666666674,
          "durationTicks": 232,
          "midi": 55,
          "name": "G3",
          "ticks": 96000,
          "time": 78.9472,
          "velocity": 0.5669291338582677
        },
        {
          "duration": 0.1907890666666674,
          "durationTicks": 232,
          "midi": 66,
          "name": "F#4",
          "ticks": 96240,
          "time": 79.14456799999999,
          "velocity": 0.5669291338582677
        },
        {
          "duration": 0.1907890666666674,
          "durationTicks": 232,
          "midi": 59,
          "name": "B3",
          "ticks": 96480,
          "time": 79.34193599999999,
          "velocity": 0.5669291338582677
        },
        {
          "duration": 0.19078906666665318,
          "durationTicks": 232,
          "midi": 55,
          "name": "G3",
          "ticks": 96720,
          "time": 79.539304,
          "velocity": 0.5669291338582677
        },
        {
          "duration": 0.19078906666665318,
          "durationTicks": 232,
          "midi": 66,
          "name": "F#4",
          "ticks": 96960,
          "time": 79.736672,
          "velocity": 0.5669291338582677
        },
        {
          "duration": 0.1907890666666674,
          "durationTicks": 232,
          "midi": 59,
          "name": "B3",
          "ticks": 97200,
          "time": 79.93404,
          "velocity": 0.5669291338582677
        },
        {
          "duration": 0.1907890666666674,
          "durationTicks": 232,
          "midi": 55,
          "name": "G3",
          "ticks": 97440,
          "time": 80.131408,
          "velocity": 0.5669291338582677
        },
        {
          "duration": 0.1907890666666674,
          "durationTicks": 232,
          "midi": 66,
          "name": "F#4",
          "ticks": 97680,
          "time": 80.32877599999999,
          "velocity": 0.5669291338582677
        },
        {
          "duration": 0.1907890666666674,
          "durationTicks": 232,
          "midi": 59,
          "name": "B3",
          "ticks": 97920,
          "time": 80.52614399999999,
          "velocity": 0.5669291338582677
        },
        {
          "duration": 0.19078906666665318,
          "durationTicks": 232,
          "midi": 55,
          "name": "G3",
          "ticks": 98160,
          "time": 80.723512,
          "velocity": 0.5669291338582677
        },
        {
          "duration": 0.19078906666665318,
          "durationTicks": 232,
          "midi": 66,
          "name": "F#4",
          "ticks": 98400,
          "time": 80.92088,
          "velocity": 0.5669291338582677
        },
        {
          "duration": 0.1907890666666674,
          "durationTicks": 232,
          "midi": 59,
          "name": "B3",
          "ticks": 98640,
          "time": 81.118248,
          "velocity": 0.5669291338582677
        },
        {
          "duration": 0.1907890666666674,
          "durationTicks": 232,
          "midi": 55,
          "name": "G3",
          "ticks": 98880,
          "time": 81.31561599999999,
          "velocity": 0.5669291338582677
        },
        {
          "duration": 0.1907890666666674,
          "durationTicks": 232,
          "midi": 66,
          "name": "F#4",
          "ticks": 99120,
          "time": 81.51298399999999,
          "velocity": 0.5669291338582677
        },
        {
          "duration": 0.19078906666665318,
          "durationTicks": 232,
          "midi": 59,
          "name": "B3",
          "ticks": 99360,
          "time": 81.710352,
          "velocity": 0.5669291338582677
        },
        {
          "duration": 0.19078906666665318,
          "durationTicks": 232,
          "midi": 55,
          "name": "G3",
          "ticks": 99600,
          "time": 81.90772,
          "velocity": 0.5669291338582677
        },
        {
          "duration": 0.1907890666666674,
          "durationTicks": 232,
          "midi": 66,
          "name": "F#4",
          "ticks": 99840,
          "time": 82.105088,
          "velocity": 0.5669291338582677
        },
        {
          "duration": 0.1907890666666674,
          "durationTicks": 232,
          "midi": 59,
          "name": "B3",
          "ticks": 100080,
          "time": 82.30245599999999,
          "velocity": 0.5669291338582677
        },
        {
          "duration": 0.1907890666666674,
          "durationTicks": 232,
          "midi": 55,
          "name": "G3",
          "ticks": 100320,
          "time": 82.49982399999999,
          "velocity": 0.5669291338582677
        },
        {
          "duration": 0.19078906666665318,
          "durationTicks": 232,
          "midi": 66,
          "name": "F#4",
          "ticks": 100560,
          "time": 82.697192,
          "velocity": 0.5669291338582677
        },
        {
          "duration": 0.19078906666665318,
          "durationTicks": 232,
          "midi": 59,
          "name": "B3",
          "ticks": 100800,
          "time": 82.89456,
          "velocity": 0.5669291338582677
        },
        {
          "duration": 0.1907890666666674,
          "durationTicks": 232,
          "midi": 55,
          "name": "G3",
          "ticks": 101040,
          "time": 83.091928,
          "velocity": 0.5669291338582677
        },
        {
          "duration": 0.1907890666666674,
          "durationTicks": 232,
          "midi": 62,
          "name": "D4",
          "ticks": 101280,
          "time": 83.289296,
          "velocity": 0.5669291338582677
        },
        {
          "duration": 0.1907890666666674,
          "durationTicks": 232,
          "midi": 55,
          "name": "G3",
          "ticks": 101520,
          "time": 83.48666399999999,
          "velocity": 0.5669291338582677
        },
        {
          "duration": 0.19078906666665318,
          "durationTicks": 232,
          "midi": 62,
          "name": "D4",
          "ticks": 101760,
          "time": 83.684032,
          "velocity": 0.5669291338582677
        },
        {
          "duration": 0.19078906666665318,
          "durationTicks": 232,
          "midi": 55,
          "name": "G3",
          "ticks": 102000,
          "time": 83.8814,
          "velocity": 0.5669291338582677
        },
        {
          "duration": 0.19078906666665318,
          "durationTicks": 232,
          "midi": 52,
          "name": "E3",
          "ticks": 102240,
          "time": 84.078768,
          "velocity": 0.5669291338582677
        },
        {
          "duration": 0.1907890666666674,
          "durationTicks": 232,
          "midi": 62,
          "name": "D4",
          "ticks": 102480,
          "time": 84.276136,
          "velocity": 0.5669291338582677
        },
        {
          "duration": 0.1907890666666674,
          "durationTicks": 232,
          "midi": 55,
          "name": "G3",
          "ticks": 102720,
          "time": 84.47350399999999,
          "velocity": 0.5669291338582677
        },
        {
          "duration": 0.1907890666666674,
          "durationTicks": 232,
          "midi": 52,
          "name": "E3",
          "ticks": 102960,
          "time": 84.67087199999999,
          "velocity": 0.5669291338582677
        },
        {
          "duration": 0.19078906666665318,
          "durationTicks": 232,
          "midi": 62,
          "name": "D4",
          "ticks": 103200,
          "time": 84.86824,
          "velocity": 0.5669291338582677
        },
        {
          "duration": 0.19078906666665318,
          "durationTicks": 232,
          "midi": 55,
          "name": "G3",
          "ticks": 103440,
          "time": 85.065608,
          "velocity": 0.5669291338582677
        },
        {
          "duration": 0.1907890666666674,
          "durationTicks": 232,
          "midi": 52,
          "name": "E3",
          "ticks": 103680,
          "time": 85.262976,
          "velocity": 0.5669291338582677
        },
        {
          "duration": 0.1907890666666674,
          "durationTicks": 232,
          "midi": 62,
          "name": "D4",
          "ticks": 103920,
          "time": 85.46034399999999,
          "velocity": 0.5669291338582677
        },
        {
          "duration": 0.1907890666666674,
          "durationTicks": 232,
          "midi": 55,
          "name": "G3",
          "ticks": 104160,
          "time": 85.65771199999999,
          "velocity": 0.5669291338582677
        },
        {
          "duration": 0.19078906666665318,
          "durationTicks": 232,
          "midi": 52,
          "name": "E3",
          "ticks": 104400,
          "time": 85.85508,
          "velocity": 0.5669291338582677
        },
        {
          "duration": 0.19078906666665318,
          "durationTicks": 232,
          "midi": 62,
          "name": "D4",
          "ticks": 104640,
          "time": 86.052448,
          "velocity": 0.5669291338582677
        },
        {
          "duration": 0.1907890666666674,
          "durationTicks": 232,
          "midi": 55,
          "name": "G3",
          "ticks": 104880,
          "time": 86.249816,
          "velocity": 0.5669291338582677
        },
        {
          "duration": 0.1907890666666674,
          "durationTicks": 232,
          "midi": 52,
          "name": "E3",
          "ticks": 105120,
          "time": 86.447184,
          "velocity": 0.5669291338582677
        },
        {
          "duration": 0.1907890666666674,
          "durationTicks": 232,
          "midi": 62,
          "name": "D4",
          "ticks": 105360,
          "time": 86.64455199999999,
          "velocity": 0.5669291338582677
        },
        {
          "duration": 0.1907890666666674,
          "durationTicks": 232,
          "midi": 55,
          "name": "G3",
          "ticks": 105600,
          "time": 86.84191999999999,
          "velocity": 0.5669291338582677
        },
        {
          "duration": 0.19078906666665318,
          "durationTicks": 232,
          "midi": 52,
          "name": "E3",
          "ticks": 105840,
          "time": 87.039288,
          "velocity": 0.5669291338582677
        },
        {
          "duration": 0.19078906666665318,
          "durationTicks": 232,
          "midi": 62,
          "name": "D4",
          "ticks": 106080,
          "time": 87.236656,
          "velocity": 0.5669291338582677
        },
        {
          "duration": 0.1907890666666674,
          "durationTicks": 232,
          "midi": 55,
          "name": "G3",
          "ticks": 106320,
          "time": 87.434024,
          "velocity": 0.5669291338582677
        },
        {
          "duration": 0.1907890666666674,
          "durationTicks": 232,
          "midi": 52,
          "name": "E3",
          "ticks": 106560,
          "time": 87.63139199999999,
          "velocity": 0.5669291338582677
        },
        {
          "duration": 0.1907890666666674,
          "durationTicks": 232,
          "midi": 62,
          "name": "D4",
          "ticks": 106800,
          "time": 87.82875999999999,
          "velocity": 0.5669291338582677
        },
        {
          "duration": 0.19078906666665318,
          "durationTicks": 232,
          "midi": 55,
          "name": "G3",
          "ticks": 107040,
          "time": 88.026128,
          "velocity": 0.5669291338582677
        },
        {
          "duration": 0.19078906666665318,
          "durationTicks": 232,
          "midi": 52,
          "name": "E3",
          "ticks": 107280,
          "time": 88.223496,
          "velocity": 0.5669291338582677
        },
        {
          "duration": 0.1907890666666674,
          "durationTicks": 232,
          "midi": 62,
          "name": "D4",
          "ticks": 107520,
          "time": 88.420864,
          "velocity": 0.5669291338582677
        },
        {
          "duration": 0.1907890666666674,
          "durationTicks": 232,
          "midi": 55,
          "name": "G3",
          "ticks": 107760,
          "time": 88.61823199999999,
          "velocity": 0.5669291338582677
        },
        {
          "duration": 0.1907890666666674,
          "durationTicks": 232,
          "midi": 52,
          "name": "E3",
          "ticks": 108000,
          "time": 88.81559999999999,
          "velocity": 0.5669291338582677
        },
        {
          "duration": 0.19078906666665318,
          "durationTicks": 232,
          "midi": 62,
          "name": "D4",
          "ticks": 108240,
          "time": 89.012968,
          "velocity": 0.5669291338582677
        },
        {
          "duration": 0.19078906666665318,
          "durationTicks": 232,
          "midi": 55,
          "name": "G3",
          "ticks": 108480,
          "time": 89.210336,
          "velocity": 0.5669291338582677
        },
        {
          "duration": 0.1907890666666674,
          "durationTicks": 232,
          "midi": 52,
          "name": "E3",
          "ticks": 108720,
          "time": 89.407704,
          "velocity": 0.5669291338582677
        },
        {
          "duration": 0.1907890666666674,
          "durationTicks": 232,
          "midi": 64,
          "name": "E4",
          "ticks": 108960,
          "time": 89.60507199999999,
          "velocity": 0.5669291338582677
        },
        {
          "duration": 0.1907890666666674,
          "durationTicks": 232,
          "midi": 57,
          "name": "A3",
          "ticks": 109200,
          "time": 89.80243999999999,
          "velocity": 0.5669291338582677
        },
        {
          "duration": 0.19078906666665318,
          "durationTicks": 232,
          "midi": 54,
          "name": "F#3",
          "ticks": 109440,
          "time": 89.999808,
          "velocity": 0.5669291338582677
        },
        {
          "duration": 0.19078906666665318,
          "durationTicks": 232,
          "midi": 64,
          "name": "E4",
          "ticks": 109680,
          "time": 90.197176,
          "velocity": 0.5669291338582677
        },
        {
          "duration": 0.19078906666665318,
          "durationTicks": 232,
          "midi": 57,
          "name": "A3",
          "ticks": 109920,
          "time": 90.394544,
          "velocity": 0.5669291338582677
        },
        {
          "duration": 0.1907890666666674,
          "durationTicks": 232,
          "midi": 54,
          "name": "F#3",
          "ticks": 110160,
          "time": 90.591912,
          "velocity": 0.5669291338582677
        },
        {
          "duration": 0.1907890666666674,
          "durationTicks": 232,
          "midi": 64,
          "name": "E4",
          "ticks": 110400,
          "time": 90.78927999999999,
          "velocity": 0.5669291338582677
        },
        {
          "duration": 0.1907890666666674,
          "durationTicks": 232,
          "midi": 57,
          "name": "A3",
          "ticks": 110640,
          "time": 90.98664799999999,
          "velocity": 0.5669291338582677
        },
        {
          "duration": 0.19078906666665318,
          "durationTicks": 232,
          "midi": 54,
          "name": "F#3",
          "ticks": 110880,
          "time": 91.184016,
          "velocity": 0.5669291338582677
        },
        {
          "duration": 0.19078906666665318,
          "durationTicks": 232,
          "midi": 64,
          "name": "E4",
          "ticks": 111120,
          "time": 91.381384,
          "velocity": 0.5669291338582677
        },
        {
          "duration": 0.1907890666666674,
          "durationTicks": 232,
          "midi": 57,
          "name": "A3",
          "ticks": 111360,
          "time": 91.578752,
          "velocity": 0.5669291338582677
        },
        {
          "duration": 0.1907890666666674,
          "durationTicks": 232,
          "midi": 54,
          "name": "F#3",
          "ticks": 111600,
          "time": 91.77611999999999,
          "velocity": 0.5669291338582677
        },
        {
          "duration": 0.1907890666666674,
          "durationTicks": 232,
          "midi": 64,
          "name": "E4",
          "ticks": 111840,
          "time": 91.97348799999999,
          "velocity": 0.5669291338582677
        },
        {
          "duration": 0.19078906666665318,
          "durationTicks": 232,
          "midi": 57,
          "name": "A3",
          "ticks": 112080,
          "time": 92.170856,
          "velocity": 0.5669291338582677
        },
        {
          "duration": 0.19078906666665318,
          "durationTicks": 232,
          "midi": 54,
          "name": "F#3",
          "ticks": 112320,
          "time": 92.368224,
          "velocity": 0.5669291338582677
        },
        {
          "duration": 0.1907890666666674,
          "durationTicks": 232,
          "midi": 64,
          "name": "E4",
          "ticks": 112560,
          "time": 92.565592,
          "velocity": 0.5669291338582677
        },
        {
          "duration": 0.1907890666666674,
          "durationTicks": 232,
          "midi": 57,
          "name": "A3",
          "ticks": 112800,
          "time": 92.76295999999999,
          "velocity": 0.5669291338582677
        },
        {
          "duration": 0.1907890666666674,
          "durationTicks": 232,
          "midi": 54,
          "name": "F#3",
          "ticks": 113040,
          "time": 92.96032799999999,
          "velocity": 0.5669291338582677
        },
        {
          "duration": 0.1907890666666674,
          "durationTicks": 232,
          "midi": 64,
          "name": "E4",
          "ticks": 113280,
          "time": 93.15769599999999,
          "velocity": 0.5669291338582677
        },
        {
          "duration": 0.19078906666665318,
          "durationTicks": 232,
          "midi": 57,
          "name": "A3",
          "ticks": 113520,
          "time": 93.355064,
          "velocity": 0.5669291338582677
        },
        {
          "duration": 0.19078906666665318,
          "durationTicks": 232,
          "midi": 54,
          "name": "F#3",
          "ticks": 113760,
          "time": 93.552432,
          "velocity": 0.5669291338582677
        },
        {
          "duration": 0.1907890666666674,
          "durationTicks": 232,
          "midi": 64,
          "name": "E4",
          "ticks": 114000,
          "time": 93.7498,
          "velocity": 0.5669291338582677
        },
        {
          "duration": 0.1907890666666674,
          "durationTicks": 232,
          "midi": 57,
          "name": "A3",
          "ticks": 114240,
          "time": 93.94716799999999,
          "velocity": 0.5669291338582677
        },
        {
          "duration": 0.1907890666666674,
          "durationTicks": 232,
          "midi": 54,
          "name": "F#3",
          "ticks": 114480,
          "time": 94.14453599999999,
          "velocity": 0.5669291338582677
        },
        {
          "duration": 0.19078906666665318,
          "durationTicks": 232,
          "midi": 64,
          "name": "E4",
          "ticks": 114720,
          "time": 94.341904,
          "velocity": 0.5669291338582677
        },
        {
          "duration": 0.19078906666665318,
          "durationTicks": 232,
          "midi": 57,
          "name": "A3",
          "ticks": 114960,
          "time": 94.539272,
          "velocity": 0.5669291338582677
        },
        {
          "duration": 0.1907890666666674,
          "durationTicks": 232,
          "midi": 54,
          "name": "F#3",
          "ticks": 115200,
          "time": 94.73664,
          "velocity": 0.5669291338582677
        },
        {
          "duration": 0.1907890666666674,
          "durationTicks": 232,
          "midi": 64,
          "name": "E4",
          "ticks": 115440,
          "time": 94.93400799999999,
          "velocity": 0.5669291338582677
        },
        {
          "duration": 0.1907890666666674,
          "durationTicks": 232,
          "midi": 57,
          "name": "A3",
          "ticks": 115680,
          "time": 95.13137599999999,
          "velocity": 0.5669291338582677
        },
        {
          "duration": 0.19078906666665318,
          "durationTicks": 232,
          "midi": 54,
          "name": "F#3",
          "ticks": 115920,
          "time": 95.328744,
          "velocity": 0.5669291338582677
        },
        {
          "duration": 0.19078906666665318,
          "durationTicks": 232,
          "midi": 64,
          "name": "E4",
          "ticks": 116160,
          "time": 95.526112,
          "velocity": 0.5669291338582677
        },
        {
          "duration": 0.1907890666666674,
          "durationTicks": 232,
          "midi": 57,
          "name": "A3",
          "ticks": 116400,
          "time": 95.72348,
          "velocity": 0.5669291338582677
        },
        {
          "duration": 0.1907890666666674,
          "durationTicks": 232,
          "midi": 61,
          "name": "C#4",
          "ticks": 116640,
          "time": 95.92084799999999,
          "velocity": 0.5669291338582677
        },
        {
          "duration": 0.1907890666666674,
          "durationTicks": 232,
          "midi": 69,
          "name": "A4",
          "ticks": 116880,
          "time": 96.11821599999999,
          "velocity": 0.5669291338582677
        },
        {
          "duration": 0.19078906666665318,
          "durationTicks": 232,
          "midi": 61,
          "name": "C#4",
          "ticks": 117120,
          "time": 96.315584,
          "velocity": 0.5669291338582677
        },
        {
          "duration": 0.19078906666665318,
          "durationTicks": 232,
          "midi": 57,
          "name": "A3",
          "ticks": 117360,
          "time": 96.512952,
          "velocity": 0.5669291338582677
        },
        {
          "duration": 0.19078906666665318,
          "durationTicks": 232,
          "midi": 69,
          "name": "A4",
          "ticks": 117600,
          "time": 96.71032,
          "velocity": 0.5669291338582677
        },
        {
          "duration": 0.1907890666666674,
          "durationTicks": 232,
          "midi": 61,
          "name": "C#4",
          "ticks": 117840,
          "time": 96.907688,
          "velocity": 0.5669291338582677
        },
        {
          "duration": 0.1907890666666674,
          "durationTicks": 232,
          "midi": 57,
          "name": "A3",
          "ticks": 118080,
          "time": 97.10505599999999,
          "velocity": 0.5669291338582677
        },
        {
          "duration": 0.1907890666666674,
          "durationTicks": 232,
          "midi": 69,
          "name": "A4",
          "ticks": 118320,
          "time": 97.30242399999999,
          "velocity": 0.5669291338582677
        },
        {
          "duration": 0.19078906666665318,
          "durationTicks": 232,
          "midi": 61,
          "name": "C#4",
          "ticks": 118560,
          "time": 97.499792,
          "velocity": 0.5669291338582677
        },
        {
          "duration": 0.19078906666665318,
          "durationTicks": 232,
          "midi": 57,
          "name": "A3",
          "ticks": 118800,
          "time": 97.69716,
          "velocity": 0.5669291338582677
        },
        {
          "duration": 0.1907890666666674,
          "durationTicks": 232,
          "midi": 69,
          "name": "A4",
          "ticks": 119040,
          "time": 97.894528,
          "velocity": 0.5669291338582677
        },
        {
          "duration": 0.1907890666666674,
          "durationTicks": 232,
          "midi": 61,
          "name": "C#4",
          "ticks": 119280,
          "time": 98.09189599999999,
          "velocity": 0.5669291338582677
        },
        {
          "duration": 0.1907890666666674,
          "durationTicks": 232,
          "midi": 57,
          "name": "A3",
          "ticks": 119520,
          "time": 98.28926399999999,
          "velocity": 0.5669291338582677
        },
        {
          "duration": 0.19078906666665318,
          "durationTicks": 232,
          "midi": 69,
          "name": "A4",
          "ticks": 119760,
          "time": 98.486632,
          "velocity": 0.5669291338582677
        },
        {
          "duration": 0.19078906666665318,
          "durationTicks": 232,
          "midi": 61,
          "name": "C#4",
          "ticks": 120000,
          "time": 98.684,
          "velocity": 0.5669291338582677
        },
        {
          "duration": 0.1907890666666674,
          "durationTicks": 232,
          "midi": 57,
          "name": "A3",
          "ticks": 120240,
          "time": 98.881368,
          "velocity": 0.5669291338582677
        },
        {
          "duration": 0.1907890666666674,
          "durationTicks": 232,
          "midi": 69,
          "name": "A4",
          "ticks": 120480,
          "time": 99.07873599999999,
          "velocity": 0.5669291338582677
        },
        {
          "duration": 0.1907890666666674,
          "durationTicks": 232,
          "midi": 61,
          "name": "C#4",
          "ticks": 120720,
          "time": 99.27610399999999,
          "velocity": 0.5669291338582677
        },
        {
          "duration": 0.1907890666666674,
          "durationTicks": 232,
          "midi": 57,
          "name": "A3",
          "ticks": 120960,
          "time": 99.47347199999999,
          "velocity": 0.5669291338582677
        },
        {
          "duration": 0.19078906666665318,
          "durationTicks": 232,
          "midi": 69,
          "name": "A4",
          "ticks": 121200,
          "time": 99.67084,
          "velocity": 0.5669291338582677
        },
        {
          "duration": 0.19078906666665318,
          "durationTicks": 232,
          "midi": 61,
          "name": "C#4",
          "ticks": 121440,
          "time": 99.868208,
          "velocity": 0.5669291338582677
        },
        {
          "duration": 0.1907890666666674,
          "durationTicks": 232,
          "midi": 57,
          "name": "A3",
          "ticks": 121680,
          "time": 100.065576,
          "velocity": 0.5669291338582677
        },
        {
          "duration": 0.1907890666666674,
          "durationTicks": 232,
          "midi": 69,
          "name": "A4",
          "ticks": 121920,
          "time": 100.26294399999999,
          "velocity": 0.5669291338582677
        },
        {
          "duration": 0.1907890666666674,
          "durationTicks": 232,
          "midi": 61,
          "name": "C#4",
          "ticks": 122160,
          "time": 100.46031199999999,
          "velocity": 0.5669291338582677
        },
        {
          "duration": 0.19078906666665318,
          "durationTicks": 232,
          "midi": 57,
          "name": "A3",
          "ticks": 122400,
          "time": 100.65768,
          "velocity": 0.5669291338582677
        },
        {
          "duration": 0.19078906666665318,
          "durationTicks": 232,
          "midi": 69,
          "name": "A4",
          "ticks": 122640,
          "time": 100.855048,
          "velocity": 0.5669291338582677
        },
        {
          "duration": 0.1907890666666674,
          "durationTicks": 232,
          "midi": 61,
          "name": "C#4",
          "ticks": 122880,
          "time": 101.052416,
          "velocity": 0.5669291338582677
        },
        {
          "duration": 0.1907890666666816,
          "durationTicks": 232,
          "midi": 57,
          "name": "A3",
          "ticks": 123120,
          "time": 101.24978399999999,
          "velocity": 0.5669291338582677
        },
        {
          "duration": 0.1907890666666816,
          "durationTicks": 232,
          "midi": 69,
          "name": "A4",
          "ticks": 123360,
          "time": 101.44715199999999,
          "velocity": 0.5669291338582677
        },
        {
          "duration": 0.1907890666666674,
          "durationTicks": 232,
          "midi": 61,
          "name": "C#4",
          "ticks": 123600,
          "time": 101.64452,
          "velocity": 0.5669291338582677
        },
        {
          "duration": 0.1907890666666674,
          "durationTicks": 232,
          "midi": 57,
          "name": "A3",
          "ticks": 123840,
          "time": 101.841888,
          "velocity": 0.5669291338582677
        },
        {
          "duration": 0.1907890666666674,
          "durationTicks": 232,
          "midi": 69,
          "name": "A4",
          "ticks": 124080,
          "time": 102.039256,
          "velocity": 0.5669291338582677
        },
        {
          "duration": 0.1907890666666674,
          "durationTicks": 232,
          "midi": 61,
          "name": "C#4",
          "ticks": 124320,
          "time": 102.23662399999999,
          "velocity": 0.5669291338582677
        },
        {
          "duration": 0.1907890666666816,
          "durationTicks": 232,
          "midi": 57,
          "name": "A3",
          "ticks": 124560,
          "time": 102.43399199999999,
          "velocity": 0.5669291338582677
        },
        {
          "duration": 0.1907890666666674,
          "durationTicks": 232,
          "midi": 66,
          "name": "F#4",
          "ticks": 124800,
          "time": 102.63136,
          "velocity": 0.5669291338582677
        },
        {
          "duration": 0.1907890666666674,
          "durationTicks": 232,
          "midi": 59,
          "name": "B3",
          "ticks": 125040,
          "time": 102.828728,
          "velocity": 0.5669291338582677
        },
        {
          "duration": 0.1907890666666674,
          "durationTicks": 232,
          "midi": 55,
          "name": "G3",
          "ticks": 125280,
          "time": 103.026096,
          "velocity": 0.5669291338582677
        },
        {
          "duration": 0.1907890666666674,
          "durationTicks": 232,
          "midi": 66,
          "name": "F#4",
          "ticks": 125520,
          "time": 103.22346399999999,
          "velocity": 0.5669291338582677
        },
        {
          "duration": 0.1907890666666816,
          "durationTicks": 232,
          "midi": 59,
          "name": "B3",
          "ticks": 125760,
          "time": 103.42083199999999,
          "velocity": 0.5669291338582677
        },
        {
          "duration": 0.1907890666666816,
          "durationTicks": 232,
          "midi": 55,
          "name": "G3",
          "ticks": 126000,
          "time": 103.61819999999999,
          "velocity": 0.5669291338582677
        },
        {
          "duration": 0.1907890666666674,
          "durationTicks": 232,
          "midi": 66,
          "name": "F#4",
          "ticks": 126240,
          "time": 103.815568,
          "velocity": 0.5669291338582677
        },
        {
          "duration": 0.1907890666666674,
          "durationTicks": 232,
          "midi": 59,
          "name": "B3",
          "ticks": 126480,
          "time": 104.012936,
          "velocity": 0.5669291338582677
        },
        {
          "duration": 0.1907890666666674,
          "durationTicks": 232,
          "midi": 55,
          "name": "G3",
          "ticks": 126720,
          "time": 104.210304,
          "velocity": 0.5669291338582677
        },
        {
          "duration": 0.1907890666666816,
          "durationTicks": 232,
          "midi": 66,
          "name": "F#4",
          "ticks": 126960,
          "time": 104.40767199999999,
          "velocity": 0.5669291338582677
        },
        {
          "duration": 0.1907890666666816,
          "durationTicks": 232,
          "midi": 59,
          "name": "B3",
          "ticks": 127200,
          "time": 104.60503999999999,
          "velocity": 0.5669291338582677
        },
        {
          "duration": 0.1907890666666674,
          "durationTicks": 232,
          "midi": 55,
          "name": "G3",
          "ticks": 127440,
          "time": 104.802408,
          "velocity": 0.5669291338582677
        },
        {
          "duration": 0.1907890666666674,
          "durationTicks": 232,
          "midi": 66,
          "name": "F#4",
          "ticks": 127680,
          "time": 104.999776,
          "velocity": 0.5669291338582677
        },
        {
          "duration": 0.1907890666666674,
          "durationTicks": 232,
          "midi": 59,
          "name": "B3",
          "ticks": 127920,
          "time": 105.197144,
          "velocity": 0.5669291338582677
        },
        {
          "duration": 0.1907890666666674,
          "durationTicks": 232,
          "midi": 55,
          "name": "G3",
          "ticks": 128160,
          "time": 105.39451199999999,
          "velocity": 0.5669291338582677
        },
        {
          "duration": 0.1907890666666816,
          "durationTicks": 232,
          "midi": 66,
          "name": "F#4",
          "ticks": 128400,
          "time": 105.59187999999999,
          "velocity": 0.5669291338582677
        },
        {
          "duration": 0.1907890666666816,
          "durationTicks": 232,
          "midi": 59,
          "name": "B3",
          "ticks": 128640,
          "time": 105.78924799999999,
          "velocity": 0.5669291338582677
        },
        {
          "duration": 0.1907890666666674,
          "durationTicks": 232,
          "midi": 55,
          "name": "G3",
          "ticks": 128880,
          "time": 105.986616,
          "velocity": 0.5669291338582677
        },
        {
          "duration": 0.1907890666666674,
          "durationTicks": 232,
          "midi": 66,
          "name": "F#4",
          "ticks": 129120,
          "time": 106.183984,
          "velocity": 0.5669291338582677
        },
        {
          "duration": 0.1907890666666674,
          "durationTicks": 232,
          "midi": 59,
          "name": "B3",
          "ticks": 129360,
          "time": 106.38135199999999,
          "velocity": 0.5669291338582677
        },
        {
          "duration": 0.1907890666666816,
          "durationTicks": 232,
          "midi": 55,
          "name": "G3",
          "ticks": 129600,
          "time": 106.57871999999999,
          "velocity": 0.5669291338582677
        },
        {
          "duration": 0.1907890666666816,
          "durationTicks": 232,
          "midi": 66,
          "name": "F#4",
          "ticks": 129840,
          "time": 106.77608799999999,
          "velocity": 0.5669291338582677
        },
        {
          "duration": 0.1907890666666674,
          "durationTicks": 232,
          "midi": 59,
          "name": "B3",
          "ticks": 130080,
          "time": 106.973456,
          "velocity": 0.5669291338582677
        },
        {
          "duration": 0.1907890666666674,
          "durationTicks": 232,
          "midi": 55,
          "name": "G3",
          "ticks": 130320,
          "time": 107.170824,
          "velocity": 0.5669291338582677
        },
        {
          "duration": 0.1907890666666674,
          "durationTicks": 232,
          "midi": 66,
          "name": "F#4",
          "ticks": 130560,
          "time": 107.368192,
          "velocity": 0.5669291338582677
        },
        {
          "duration": 0.1907890666666816,
          "durationTicks": 232,
          "midi": 59,
          "name": "B3",
          "ticks": 130800,
          "time": 107.56555999999999,
          "velocity": 0.5669291338582677
        },
        {
          "duration": 0.1907890666666816,
          "durationTicks": 232,
          "midi": 55,
          "name": "G3",
          "ticks": 131040,
          "time": 107.76292799999999,
          "velocity": 0.5669291338582677
        },
        {
          "duration": 0.1907890666666674,
          "durationTicks": 232,
          "midi": 66,
          "name": "F#4",
          "ticks": 131280,
          "time": 107.960296,
          "velocity": 0.5669291338582677
        },
        {
          "duration": 0.1907890666666674,
          "durationTicks": 232,
          "midi": 59,
          "name": "B3",
          "ticks": 131520,
          "time": 108.157664,
          "velocity": 0.5669291338582677
        },
        {
          "duration": 0.1907890666666674,
          "durationTicks": 232,
          "midi": 55,
          "name": "G3",
          "ticks": 131760,
          "time": 108.355032,
          "velocity": 0.5669291338582677
        },
        {
          "duration": 0.1907890666666674,
          "durationTicks": 232,
          "midi": 62,
          "name": "D4",
          "ticks": 132000,
          "time": 108.55239999999999,
          "velocity": 0.5669291338582677
        },
        {
          "duration": 0.1907890666666816,
          "durationTicks": 232,
          "midi": 55,
          "name": "G3",
          "ticks": 132240,
          "time": 108.74976799999999,
          "velocity": 0.5669291338582677
        },
        {
          "duration": 0.1907890666666674,
          "durationTicks": 232,
          "midi": 52,
          "name": "E3",
          "ticks": 132480,
          "time": 108.947136,
          "velocity": 0.5669291338582677
        },
        {
          "duration": 0.1907890666666674,
          "durationTicks": 232,
          "midi": 62,
          "name": "D4",
          "ticks": 132720,
          "time": 109.144504,
          "velocity": 0.5669291338582677
        },
        {
          "duration": 0.1907890666666674,
          "durationTicks": 232,
          "midi": 55,
          "name": "G3",
          "ticks": 132960,
          "time": 109.341872,
          "velocity": 0.5669291338582677
        },
        {
          "duration": 0.1907890666666674,
          "durationTicks": 232,
          "midi": 52,
          "name": "E3",
          "ticks": 133200,
          "time": 109.53923999999999,
          "velocity": 0.5669291338582677
        },
        {
          "duration": 0.1907890666666816,
          "durationTicks": 232,
          "midi": 62,
          "name": "D4",
          "ticks": 133440,
          "time": 109.73660799999999,
          "velocity": 0.5669291338582677
        },
        {
          "duration": 0.1907890666666816,
          "durationTicks": 232,
          "midi": 55,
          "name": "G3",
          "ticks": 133680,
          "time": 109.93397599999999,
          "velocity": 0.5669291338582677
        },
        {
          "duration": 0.1907890666666674,
          "durationTicks": 232,
          "midi": 52,
          "name": "E3",
          "ticks": 133920,
          "time": 110.131344,
          "velocity": 0.5669291338582677
        },
        {
          "duration": 0.1907890666666674,
          "durationTicks": 232,
          "midi": 62,
          "name": "D4",
          "ticks": 134160,
          "time": 110.328712,
          "velocity": 0.5669291338582677
        },
        {
          "duration": 0.1907890666666674,
          "durationTicks": 232,
          "midi": 55,
          "name": "G3",
          "ticks": 134400,
          "time": 110.52608,
          "velocity": 0.5669291338582677
        },
        {
          "duration": 0.1907890666666816,
          "durationTicks": 232,
          "midi": 52,
          "name": "E3",
          "ticks": 134640,
          "time": 110.72344799999999,
          "velocity": 0.5669291338582677
        },
        {
          "duration": 0.1907890666666816,
          "durationTicks": 232,
          "midi": 62,
          "name": "D4",
          "ticks": 134880,
          "time": 110.92081599999999,
          "velocity": 0.5669291338582677
        },
        {
          "duration": 0.1907890666666674,
          "durationTicks": 232,
          "midi": 55,
          "name": "G3",
          "ticks": 135120,
          "time": 111.118184,
          "velocity": 0.5669291338582677
        },
        {
          "duration": 0.1907890666666674,
          "durationTicks": 232,
          "midi": 52,
          "name": "E3",
          "ticks": 135360,
          "time": 111.315552,
          "velocity": 0.5669291338582677
        },
        {
          "duration": 0.1907890666666674,
          "durationTicks": 232,
          "midi": 62,
          "name": "D4",
          "ticks": 135600,
          "time": 111.51292,
          "velocity": 0.5669291338582677
        },
        {
          "duration": 0.1907890666666674,
          "durationTicks": 232,
          "midi": 55,
          "name": "G3",
          "ticks": 135840,
          "time": 111.71028799999999,
          "velocity": 0.5669291338582677
        },
        {
          "duration": 0.1907890666666816,
          "durationTicks": 232,
          "midi": 52,
          "name": "E3",
          "ticks": 136080,
          "time": 111.90765599999999,
          "velocity": 0.5669291338582677
        },
        {
          "duration": 0.1907890666666816,
          "durationTicks": 232,
          "midi": 62,
          "name": "D4",
          "ticks": 136320,
          "time": 112.10502399999999,
          "velocity": 0.5669291338582677
        },
        {
          "duration": 0.1907890666666674,
          "durationTicks": 232,
          "midi": 55,
          "name": "G3",
          "ticks": 136560,
          "time": 112.302392,
          "velocity": 0.5669291338582677
        },
        {
          "duration": 0.1907890666666674,
          "durationTicks": 232,
          "midi": 52,
          "name": "E3",
          "ticks": 136800,
          "time": 112.49976,
          "velocity": 0.5669291338582677
        },
        {
          "duration": 0.1907890666666674,
          "durationTicks": 232,
          "midi": 62,
          "name": "D4",
          "ticks": 137040,
          "time": 112.69712799999999,
          "velocity": 0.5669291338582677
        },
        {
          "duration": 0.1907890666666816,
          "durationTicks": 232,
          "midi": 55,
          "name": "G3",
          "ticks": 137280,
          "time": 112.89449599999999,
          "velocity": 0.5669291338582677
        },
        {
          "duration": 0.1907890666666816,
          "durationTicks": 232,
          "midi": 52,
          "name": "E3",
          "ticks": 137520,
          "time": 113.09186399999999,
          "velocity": 0.5669291338582677
        },
        {
          "duration": 0.1907890666666674,
          "durationTicks": 232,
          "midi": 62,
          "name": "D4",
          "ticks": 137760,
          "time": 113.289232,
          "velocity": 0.5669291338582677
        },
        {
          "duration": 0.1907890666666674,
          "durationTicks": 232,
          "midi": 55,
          "name": "G3",
          "ticks": 138000,
          "time": 113.4866,
          "velocity": 0.5669291338582677
        },
        {
          "duration": 0.1907890666666674,
          "durationTicks": 232,
          "midi": 52,
          "name": "E3",
          "ticks": 138240,
          "time": 113.683968,
          "velocity": 0.5669291338582677
        },
        {
          "duration": 0.1907890666666816,
          "durationTicks": 232,
          "midi": 62,
          "name": "D4",
          "ticks": 138480,
          "time": 113.88133599999999,
          "velocity": 0.5669291338582677
        },
        {
          "duration": 0.1907890666666816,
          "durationTicks": 232,
          "midi": 55,
          "name": "G3",
          "ticks": 138720,
          "time": 114.07870399999999,
          "velocity": 0.5669291338582677
        },
        {
          "duration": 0.1907890666666674,
          "durationTicks": 232,
          "midi": 52,
          "name": "E3",
          "ticks": 138960,
          "time": 114.276072,
          "velocity": 0.5669291338582677
        },
        {
          "duration": 0.1907890666666674,
          "durationTicks": 232,
          "midi": 62,
          "name": "D4",
          "ticks": 139200,
          "time": 114.47344,
          "velocity": 0.5669291338582677
        },
        {
          "duration": 0.1907890666666674,
          "durationTicks": 232,
          "midi": 55,
          "name": "G3",
          "ticks": 139440,
          "time": 114.670808,
          "velocity": 0.5669291338582677
        },
        {
          "duration": 0.1907890666666674,
          "durationTicks": 232,
          "midi": 52,
          "name": "E3",
          "ticks": 139680,
          "time": 114.86817599999999,
          "velocity": 0.5669291338582677
        },
        {
          "duration": 0.1907890666666816,
          "durationTicks": 232,
          "midi": 64,
          "name": "E4",
          "ticks": 139920,
          "time": 115.06554399999999,
          "velocity": 0.5669291338582677
        },
        {
          "duration": 0.1907890666666674,
          "durationTicks": 232,
          "midi": 57,
          "name": "A3",
          "ticks": 140160,
          "time": 115.262912,
          "velocity": 0.5669291338582677
        },
        {
          "duration": 0.1907890666666674,
          "durationTicks": 232,
          "midi": 54,
          "name": "F#3",
          "ticks": 140400,
          "time": 115.46028,
          "velocity": 0.5669291338582677
        },
        {
          "duration": 0.1907890666666674,
          "durationTicks": 232,
          "midi": 64,
          "name": "E4",
          "ticks": 140640,
          "time": 115.657648,
          "velocity": 0.5669291338582677
        },
        {
          "duration": 0.1907890666666674,
          "durationTicks": 232,
          "midi": 57,
          "name": "A3",
          "ticks": 140880,
          "time": 115.85501599999999,
          "velocity": 0.5669291338582677
        },
        {
          "duration": 0.1907890666666816,
          "durationTicks": 232,
          "midi": 54,
          "name": "F#3",
          "ticks": 141120,
          "time": 116.05238399999999,
          "velocity": 0.5669291338582677
        },
        {
          "duration": 0.1907890666666816,
          "durationTicks": 232,
          "midi": 64,
          "name": "E4",
          "ticks": 141360,
          "time": 116.24975199999999,
          "velocity": 0.5669291338582677
        },
        {
          "duration": 0.1907890666666674,
          "durationTicks": 232,
          "midi": 57,
          "name": "A3",
          "ticks": 141600,
          "time": 116.44712,
          "velocity": 0.5669291338582677
        },
        {
          "duration": 0.1907890666666674,
          "durationTicks": 232,
          "midi": 54,
          "name": "F#3",
          "ticks": 141840,
          "time": 116.644488,
          "velocity": 0.5669291338582677
        },
        {
          "duration": 0.1907890666666674,
          "durationTicks": 232,
          "midi": 64,
          "name": "E4",
          "ticks": 142080,
          "time": 116.84185599999999,
          "velocity": 0.5669291338582677
        },
        {
          "duration": 0.1907890666666816,
          "durationTicks": 232,
          "midi": 57,
          "name": "A3",
          "ticks": 142320,
          "time": 117.03922399999999,
          "velocity": 0.5669291338582677
        },
        {
          "duration": 0.1907890666666816,
          "durationTicks": 232,
          "midi": 54,
          "name": "F#3",
          "ticks": 142560,
          "time": 117.23659199999999,
          "velocity": 0.5669291338582677
        },
        {
          "duration": 0.1907890666666674,
          "durationTicks": 232,
          "midi": 64,
          "name": "E4",
          "ticks": 142800,
          "time": 117.43396,
          "velocity": 0.5669291338582677
        },
        {
          "duration": 0.1907890666666674,
          "durationTicks": 232,
          "midi": 57,
          "name": "A3",
          "ticks": 143040,
          "time": 117.631328,
          "velocity": 0.5669291338582677
        },
        {
          "duration": 0.1907890666666674,
          "durationTicks": 232,
          "midi": 54,
          "name": "F#3",
          "ticks": 143280,
          "time": 117.828696,
          "velocity": 0.5669291338582677
        },
        {
          "duration": 0.1907890666666674,
          "durationTicks": 232,
          "midi": 64,
          "name": "E4",
          "ticks": 143520,
          "time": 118.02606399999999,
          "velocity": 0.5669291338582677
        },
        {
          "duration": 0.1907890666666816,
          "durationTicks": 232,
          "midi": 57,
          "name": "A3",
          "ticks": 143760,
          "time": 118.22343199999999,
          "velocity": 0.5669291338582677
        },
        {
          "duration": 0.1907890666666816,
          "durationTicks": 232,
          "midi": 54,
          "name": "F#3",
          "ticks": 144000,
          "time": 118.42079999999999,
          "velocity": 0.5669291338582677
        },
        {
          "duration": 0.1907890666666674,
          "durationTicks": 232,
          "midi": 64,
          "name": "E4",
          "ticks": 144240,
          "time": 118.618168,
          "velocity": 0.5669291338582677
        },
        {
          "duration": 0.1907890666666674,
          "durationTicks": 232,
          "midi": 57,
          "name": "A3",
          "ticks": 144480,
          "time": 118.815536,
          "velocity": 0.5669291338582677
        },
        {
          "duration": 0.1907890666666674,
          "durationTicks": 232,
          "midi": 54,
          "name": "F#3",
          "ticks": 144720,
          "time": 119.01290399999999,
          "velocity": 0.5669291338582677
        },
        {
          "duration": 0.1907890666666816,
          "durationTicks": 232,
          "midi": 64,
          "name": "E4",
          "ticks": 144960,
          "time": 119.21027199999999,
          "velocity": 0.5669291338582677
        },
        {
          "duration": 0.1907890666666816,
          "durationTicks": 232,
          "midi": 57,
          "name": "A3",
          "ticks": 145200,
          "time": 119.40763999999999,
          "velocity": 0.5669291338582677
        },
        {
          "duration": 0.1907890666666674,
          "durationTicks": 232,
          "midi": 54,
          "name": "F#3",
          "ticks": 145440,
          "time": 119.605008,
          "velocity": 0.5669291338582677
        },
        {
          "duration": 0.1907890666666674,
          "durationTicks": 232,
          "midi": 64,
          "name": "E4",
          "ticks": 145680,
          "time": 119.802376,
          "velocity": 0.5669291338582677
        },
        {
          "duration": 0.1907890666666674,
          "durationTicks": 232,
          "midi": 57,
          "name": "A3",
          "ticks": 145920,
          "time": 119.99974399999999,
          "velocity": 0.5669291338582677
        },
        {
          "duration": 0.1907890666666816,
          "durationTicks": 232,
          "midi": 54,
          "name": "F#3",
          "ticks": 146160,
          "time": 120.19711199999999,
          "velocity": 0.5669291338582677
        },
        {
          "duration": 0.1907890666666816,
          "durationTicks": 232,
          "midi": 64,
          "name": "E4",
          "ticks": 146400,
          "time": 120.39447999999999,
          "velocity": 0.5669291338582677
        },
        {
          "duration": 0.1907890666666674,
          "durationTicks": 232,
          "midi": 57,
          "name": "A3",
          "ticks": 146640,
          "time": 120.591848,
          "velocity": 0.5669291338582677
        },
        {
          "duration": 0.1907890666666674,
          "durationTicks": 232,
          "midi": 54,
          "name": "F#3",
          "ticks": 146880,
          "time": 120.789216,
          "velocity": 0.5669291338582677
        },
        {
          "duration": 0.1907890666666674,
          "durationTicks": 232,
          "midi": 64,
          "name": "E4",
          "ticks": 147120,
          "time": 120.986584,
          "velocity": 0.5669291338582677
        },
        {
          "duration": 0.1907890666666674,
          "durationTicks": 232,
          "midi": 57,
          "name": "A3",
          "ticks": 147360,
          "time": 121.18395199999999,
          "velocity": 0.5669291338582677
        },
        {
          "duration": 0.1907890666666816,
          "durationTicks": 232,
          "midi": 61,
          "name": "C#4",
          "ticks": 147600,
          "time": 121.38131999999999,
          "velocity": 0.5669291338582677
        },
        {
          "duration": 0.1907890666666674,
          "durationTicks": 232,
          "midi": 69,
          "name": "A4",
          "ticks": 147840,
          "time": 121.578688,
          "velocity": 0.5669291338582677
        },
        {
          "duration": 0.1907890666666674,
          "durationTicks": 232,
          "midi": 61,
          "name": "C#4",
          "ticks": 148080,
          "time": 121.776056,
          "velocity": 0.5669291338582677
        },
        {
          "duration": 0.1907890666666674,
          "durationTicks": 232,
          "midi": 57,
          "name": "A3",
          "ticks": 148320,
          "time": 121.973424,
          "velocity": 0.5669291338582677
        },
        {
          "duration": 0.1907890666666674,
          "durationTicks": 232,
          "midi": 69,
          "name": "A4",
          "ticks": 148560,
          "time": 122.17079199999999,
          "velocity": 0.5669291338582677
        },
        {
          "duration": 0.1907890666666816,
          "durationTicks": 232,
          "midi": 61,
          "name": "C#4",
          "ticks": 148800,
          "time": 122.36815999999999,
          "velocity": 0.5669291338582677
        },
        {
          "duration": 0.1907890666666816,
          "durationTicks": 232,
          "midi": 57,
          "name": "A3",
          "ticks": 149040,
          "time": 122.56552799999999,
          "velocity": 0.5669291338582677
        },
        {
          "duration": 0.1907890666666674,
          "durationTicks": 232,
          "midi": 69,
          "name": "A4",
          "ticks": 149280,
          "time": 122.762896,
          "velocity": 0.5669291338582677
        },
        {
          "duration": 0.1907890666666674,
          "durationTicks": 232,
          "midi": 61,
          "name": "C#4",
          "ticks": 149520,
          "time": 122.960264,
          "velocity": 0.5669291338582677
        },
        {
          "duration": 0.1907890666666674,
          "durationTicks": 232,
          "midi": 57,
          "name": "A3",
          "ticks": 149760,
          "time": 123.15763199999999,
          "velocity": 0.5669291338582677
        },
        {
          "duration": 0.1907890666666816,
          "durationTicks": 232,
          "midi": 69,
          "name": "A4",
          "ticks": 150000,
          "time": 123.35499999999999,
          "velocity": 0.5669291338582677
        },
        {
          "duration": 0.1907890666666816,
          "durationTicks": 232,
          "midi": 61,
          "name": "C#4",
          "ticks": 150240,
          "time": 123.55236799999999,
          "velocity": 0.5669291338582677
        },
        {
          "duration": 0.1907890666666674,
          "durationTicks": 232,
          "midi": 57,
          "name": "A3",
          "ticks": 150480,
          "time": 123.749736,
          "velocity": 0.5669291338582677
        },
        {
          "duration": 0.1907890666666674,
          "durationTicks": 232,
          "midi": 69,
          "name": "A4",
          "ticks": 150720,
          "time": 123.947104,
          "velocity": 0.5669291338582677
        },
        {
          "duration": 0.1907890666666674,
          "durationTicks": 232,
          "midi": 61,
          "name": "C#4",
          "ticks": 150960,
          "time": 124.144472,
          "velocity": 0.5669291338582677
        },
        {
          "duration": 0.1907890666666674,
          "durationTicks": 232,
          "midi": 57,
          "name": "A3",
          "ticks": 151200,
          "time": 124.34183999999999,
          "velocity": 0.5669291338582677
        },
        {
          "duration": 0.1907890666666816,
          "durationTicks": 232,
          "midi": 67,
          "name": "G4",
          "ticks": 151440,
          "time": 124.53920799999999,
          "velocity": 0.5669291338582677
        },
        {
          "duration": 0.1907890666666816,
          "durationTicks": 232,
          "midi": 61,
          "name": "C#4",
          "ticks": 151680,
          "time": 124.73657599999999,
          "velocity": 0.5669291338582677
        },
        {
          "duration": 0.1907890666666674,
          "durationTicks": 232,
          "midi": 57,
          "name": "A3",
          "ticks": 151920,
          "time": 124.933944,
          "velocity": 0.5669291338582677
        },
        {
          "duration": 0.1907890666666674,
          "durationTicks": 232,
          "midi": 67,
          "name": "G4",
          "ticks": 152160,
          "time": 125.131312,
          "velocity": 0.5669291338582677
        },
        {
          "duration": 0.1907890666666674,
          "durationTicks": 232,
          "midi": 61,
          "name": "C#4",
          "ticks": 152400,
          "time": 125.32867999999999,
          "velocity": 0.5669291338582677
        },
        {
          "duration": 0.1907890666666816,
          "durationTicks": 232,
          "midi": 57,
          "name": "A3",
          "ticks": 152640,
          "time": 125.52604799999999,
          "velocity": 0.5669291338582677
        },
        {
          "duration": 0.1907890666666816,
          "durationTicks": 232,
          "midi": 67,
          "name": "G4",
          "ticks": 152880,
          "time": 125.72341599999999,
          "velocity": 0.5669291338582677
        },
        {
          "duration": 0.1907890666666674,
          "durationTicks": 232,
          "midi": 61,
          "name": "C#4",
          "ticks": 153120,
          "time": 125.920784,
          "velocity": 0.5669291338582677
        },
        {
          "duration": 0.1907890666666674,
          "durationTicks": 232,
          "midi": 57,
          "name": "A3",
          "ticks": 153360,
          "time": 126.118152,
          "velocity": 0.5669291338582677
        },
        {
          "duration": 0.1907890666666674,
          "durationTicks": 232,
          "midi": 66,
          "name": "F#4",
          "ticks": 153600,
          "time": 126.31551999999999,
          "velocity": 0.5669291338582677
        },
        {
          "duration": 0.1907890666666816,
          "durationTicks": 232,
          "midi": 61,
          "name": "C#4",
          "ticks": 153840,
          "time": 126.51288799999999,
          "velocity": 0.5669291338582677
        },
        {
          "duration": 0.1907890666666816,
          "durationTicks": 232,
          "midi": 57,
          "name": "A3",
          "ticks": 154080,
          "time": 126.71025599999999,
          "velocity": 0.5669291338582677
        },
        {
          "duration": 0.1907890666666674,
          "durationTicks": 232,
          "midi": 66,
          "name": "F#4",
          "ticks": 154320,
          "time": 126.907624,
          "velocity": 0.5669291338582677
        },
        {
          "duration": 0.1907890666666674,
          "durationTicks": 232,
          "midi": 61,
          "name": "C#4",
          "ticks": 154560,
          "time": 127.104992,
          "velocity": 0.5669291338582677
        },
        {
          "duration": 0.1907890666666674,
          "durationTicks": 232,
          "midi": 55,
          "name": "G3",
          "ticks": 154800,
          "time": 127.30236,
          "velocity": 0.5669291338582677
        },
        {
          "duration": 0.1907890666666674,
          "durationTicks": 232,
          "midi": 59,
          "name": "B3",
          "ticks": 154800,
          "time": 127.30236,
          "velocity": 0.5669291338582677
        },
        {
          "duration": 0.1907890666666674,
          "durationTicks": 232,
          "midi": 66,
          "name": "F#4",
          "ticks": 155040,
          "time": 127.49972799999999,
          "velocity": 0.5669291338582677
        },
        {
          "duration": 0.1907890666666816,
          "durationTicks": 232,
          "midi": 59,
          "name": "B3",
          "ticks": 155280,
          "time": 127.69709599999999,
          "velocity": 0.5669291338582677
        },
        {
          "duration": 0.1907890666666674,
          "durationTicks": 232,
          "midi": 55,
          "name": "G3",
          "ticks": 155520,
          "time": 127.894464,
          "velocity": 0.5669291338582677
        },
        {
          "duration": 0.19078906666669582,
          "durationTicks": 232,
          "midi": 66,
          "name": "F#4",
          "ticks": 155760,
          "time": 128.09183199999998,
          "velocity": 0.5669291338582677
        },
        {
          "duration": 0.1907890666666674,
          "durationTicks": 232,
          "midi": 59,
          "name": "B3",
          "ticks": 156000,
          "time": 128.2892,
          "velocity": 0.5669291338582677
        },
        {
          "duration": 0.1907890666666674,
          "durationTicks": 232,
          "midi": 55,
          "name": "G3",
          "ticks": 156240,
          "time": 128.486568,
          "velocity": 0.5669291338582677
        },
        {
          "duration": 0.1907890666666674,
          "durationTicks": 232,
          "midi": 66,
          "name": "F#4",
          "ticks": 156480,
          "time": 128.683936,
          "velocity": 0.5669291338582677
        },
        {
          "duration": 0.1907890666666674,
          "durationTicks": 232,
          "midi": 59,
          "name": "B3",
          "ticks": 156720,
          "time": 128.881304,
          "velocity": 0.5669291338582677
        },
        {
          "duration": 0.1907890666666674,
          "durationTicks": 232,
          "midi": 55,
          "name": "G3",
          "ticks": 156960,
          "time": 129.07867199999998,
          "velocity": 0.5669291338582677
        },
        {
          "duration": 0.1907890666666674,
          "durationTicks": 232,
          "midi": 66,
          "name": "F#4",
          "ticks": 157200,
          "time": 129.27604,
          "velocity": 0.5669291338582677
        },
        {
          "duration": 0.1907890666666674,
          "durationTicks": 232,
          "midi": 59,
          "name": "B3",
          "ticks": 157440,
          "time": 129.473408,
          "velocity": 0.5669291338582677
        },
        {
          "duration": 0.1907890666666674,
          "durationTicks": 232,
          "midi": 55,
          "name": "G3",
          "ticks": 157680,
          "time": 129.670776,
          "velocity": 0.5669291338582677
        },
        {
          "duration": 0.1907890666666674,
          "durationTicks": 232,
          "midi": 66,
          "name": "F#4",
          "ticks": 157920,
          "time": 129.868144,
          "velocity": 0.5669291338582677
        },
        {
          "duration": 0.1907890666666674,
          "durationTicks": 232,
          "midi": 59,
          "name": "B3",
          "ticks": 158160,
          "time": 130.06551199999998,
          "velocity": 0.5669291338582677
        },
        {
          "duration": 0.1907890666666674,
          "durationTicks": 232,
          "midi": 55,
          "name": "G3",
          "ticks": 158400,
          "time": 130.26288,
          "velocity": 0.5669291338582677
        },
        {
          "duration": 0.19078906666669582,
          "durationTicks": 232,
          "midi": 66,
          "name": "F#4",
          "ticks": 158640,
          "time": 130.46024799999998,
          "velocity": 0.5669291338582677
        },
        {
          "duration": 0.1907890666666674,
          "durationTicks": 232,
          "midi": 59,
          "name": "B3",
          "ticks": 158880,
          "time": 130.657616,
          "velocity": 0.5669291338582677
        },
        {
          "duration": 0.1907890666666674,
          "durationTicks": 232,
          "midi": 55,
          "name": "G3",
          "ticks": 159120,
          "time": 130.854984,
          "velocity": 0.5669291338582677
        },
        {
          "duration": 0.1907890666666674,
          "durationTicks": 232,
          "midi": 66,
          "name": "F#4",
          "ticks": 159360,
          "time": 131.05235199999998,
          "velocity": 0.5669291338582677
        },
        {
          "duration": 0.1907890666666674,
          "durationTicks": 232,
          "midi": 59,
          "name": "B3",
          "ticks": 159600,
          "time": 131.24972,
          "velocity": 0.5669291338582677
        },
        {
          "duration": 0.19078906666669582,
          "durationTicks": 232,
          "midi": 55,
          "name": "G3",
          "ticks": 159840,
          "time": 131.44708799999998,
          "velocity": 0.5669291338582677
        },
        {
          "duration": 0.1907890666666674,
          "durationTicks": 232,
          "midi": 66,
          "name": "F#4",
          "ticks": 160080,
          "time": 131.644456,
          "velocity": 0.5669291338582677
        },
        {
          "duration": 0.1907890666666674,
          "durationTicks": 232,
          "midi": 59,
          "name": "B3",
          "ticks": 160320,
          "time": 131.841824,
          "velocity": 0.5669291338582677
        },
        {
          "duration": 0.1907890666666674,
          "durationTicks": 232,
          "midi": 55,
          "name": "G3",
          "ticks": 160560,
          "time": 132.03919199999999,
          "velocity": 0.5669291338582677
        },
        {
          "duration": 0.1907890666666674,
          "durationTicks": 232,
          "midi": 66,
          "name": "F#4",
          "ticks": 160800,
          "time": 132.23656,
          "velocity": 0.5669291338582677
        },
        {
          "duration": 0.19078906666669582,
          "durationTicks": 232,
          "midi": 59,
          "name": "B3",
          "ticks": 161040,
          "time": 132.43392799999998,
          "velocity": 0.5669291338582677
        },
        {
          "duration": 0.1907890666666674,
          "durationTicks": 232,
          "midi": 55,
          "name": "G3",
          "ticks": 161280,
          "time": 132.631296,
          "velocity": 0.5669291338582677
        },
        {
          "duration": 0.1907890666666674,
          "durationTicks": 232,
          "midi": 66,
          "name": "F#4",
          "ticks": 161520,
          "time": 132.828664,
          "velocity": 0.5669291338582677
        },
        {
          "duration": 0.1907890666666674,
          "durationTicks": 232,
          "midi": 59,
          "name": "B3",
          "ticks": 161760,
          "time": 133.026032,
          "velocity": 0.5669291338582677
        },
        {
          "duration": 0.1907890666666674,
          "durationTicks": 232,
          "midi": 55,
          "name": "G3",
          "ticks": 162000,
          "time": 133.2234,
          "velocity": 0.5669291338582677
        },
        {
          "duration": 0.19078906666669582,
          "durationTicks": 232,
          "midi": 66,
          "name": "F#4",
          "ticks": 162240,
          "time": 133.42076799999998,
          "velocity": 0.5669291338582677
        },
        {
          "duration": 0.1907890666666674,
          "durationTicks": 232,
          "midi": 59,
          "name": "B3",
          "ticks": 162480,
          "time": 133.618136,
          "velocity": 0.5669291338582677
        },
        {
          "duration": 0.3881570666666505,
          "durationTicks": 472,
          "midi": 55,
          "name": "G3",
          "ticks": 162720,
          "time": 133.815504,
          "velocity": 0.5669291338582677
        },
        {
          "duration": 0.1907890666666674,
          "durationTicks": 232,
          "midi": 52,
          "name": "E3",
          "ticks": 163200,
          "time": 134.21024,
          "velocity": 0.5669291338582677
        },
        {
          "duration": 0.19078906666669582,
          "durationTicks": 232,
          "midi": 62,
          "name": "D4",
          "ticks": 163440,
          "time": 134.40760799999998,
          "velocity": 0.5669291338582677
        },
        {
          "duration": 0.1907890666666674,
          "durationTicks": 232,
          "midi": 55,
          "name": "G3",
          "ticks": 163680,
          "time": 134.604976,
          "velocity": 0.5669291338582677
        },
        {
          "duration": 0.1907890666666674,
          "durationTicks": 232,
          "midi": 52,
          "name": "E3",
          "ticks": 163920,
          "time": 134.802344,
          "velocity": 0.5669291338582677
        },
        {
          "duration": 0.1907890666666674,
          "durationTicks": 232,
          "midi": 62,
          "name": "D4",
          "ticks": 164160,
          "time": 134.999712,
          "velocity": 0.5669291338582677
        },
        {
          "duration": 0.1907890666666674,
          "durationTicks": 232,
          "midi": 55,
          "name": "G3",
          "ticks": 164400,
          "time": 135.19708,
          "velocity": 0.5669291338582677
        },
        {
          "duration": 0.1907890666666674,
          "durationTicks": 232,
          "midi": 52,
          "name": "E3",
          "ticks": 164640,
          "time": 135.39444799999998,
          "velocity": 0.5669291338582677
        },
        {
          "duration": 0.1907890666666674,
          "durationTicks": 232,
          "midi": 62,
          "name": "D4",
          "ticks": 164880,
          "time": 135.591816,
          "velocity": 0.5669291338582677
        },
        {
          "duration": 0.19078906666669582,
          "durationTicks": 232,
          "midi": 55,
          "name": "G3",
          "ticks": 165120,
          "time": 135.78918399999998,
          "velocity": 0.5669291338582677
        },
        {
          "duration": 0.1907890666666674,
          "durationTicks": 232,
          "midi": 52,
          "name": "E3",
          "ticks": 165360,
          "time": 135.986552,
          "velocity": 0.5669291338582677
        },
        {
          "duration": 0.1907890666666674,
          "durationTicks": 232,
          "midi": 62,
          "name": "D4",
          "ticks": 165600,
          "time": 136.18392,
          "velocity": 0.5669291338582677
        },
        {
          "duration": 0.1907890666666674,
          "durationTicks": 232,
          "midi": 55,
          "name": "G3",
          "ticks": 165840,
          "time": 136.38128799999998,
          "velocity": 0.5669291338582677
        },
        {
          "duration": 0.1907890666666674,
          "durationTicks": 232,
          "midi": 52,
          "name": "E3",
          "ticks": 166080,
          "time": 136.578656,
          "velocity": 0.5669291338582677
        },
        {
          "duration": 0.19078906666669582,
          "durationTicks": 232,
          "midi": 62,
          "name": "D4",
          "ticks": 166320,
          "time": 136.77602399999998,
          "velocity": 0.5669291338582677
        },
        {
          "duration": 0.1907890666666674,
          "durationTicks": 232,
          "midi": 55,
          "name": "G3",
          "ticks": 166560,
          "time": 136.973392,
          "velocity": 0.5669291338582677
        },
        {
          "duration": 0.1907890666666674,
          "durationTicks": 232,
          "midi": 52,
          "name": "E3",
          "ticks": 166800,
          "time": 137.17076,
          "velocity": 0.5669291338582677
        },
        {
          "duration": 0.1907890666666674,
          "durationTicks": 232,
          "midi": 62,
          "name": "D4",
          "ticks": 167040,
          "time": 137.36812799999998,
          "velocity": 0.5669291338582677
        },
        {
          "duration": 0.1907890666666674,
          "durationTicks": 232,
          "midi": 55,
          "name": "G3",
          "ticks": 167280,
          "time": 137.565496,
          "velocity": 0.5669291338582677
        },
        {
          "duration": 0.19078906666669582,
          "durationTicks": 232,
          "midi": 52,
          "name": "E3",
          "ticks": 167520,
          "time": 137.76286399999998,
          "velocity": 0.5669291338582677
        },
        {
          "duration": 0.1907890666666674,
          "durationTicks": 232,
          "midi": 62,
          "name": "D4",
          "ticks": 167760,
          "time": 137.960232,
          "velocity": 0.5669291338582677
        },
        {
          "duration": 0.1907890666666674,
          "durationTicks": 232,
          "midi": 55,
          "name": "G3",
          "ticks": 168000,
          "time": 138.1576,
          "velocity": 0.5669291338582677
        },
        {
          "duration": 0.1907890666666674,
          "durationTicks": 232,
          "midi": 52,
          "name": "E3",
          "ticks": 168240,
          "time": 138.35496799999999,
          "velocity": 0.5669291338582677
        },
        {
          "duration": 0.1907890666666674,
          "durationTicks": 232,
          "midi": 62,
          "name": "D4",
          "ticks": 168480,
          "time": 138.552336,
          "velocity": 0.5669291338582677
        },
        {
          "duration": 0.19078906666669582,
          "durationTicks": 232,
          "midi": 55,
          "name": "G3",
          "ticks": 168720,
          "time": 138.74970399999998,
          "velocity": 0.5669291338582677
        },
        {
          "duration": 0.1907890666666674,
          "durationTicks": 232,
          "midi": 52,
          "name": "E3",
          "ticks": 168960,
          "time": 138.947072,
          "velocity": 0.5669291338582677
        },
        {
          "duration": 0.1907890666666674,
          "durationTicks": 232,
          "midi": 62,
          "name": "D4",
          "ticks": 169200,
          "time": 139.14444,
          "velocity": 0.5669291338582677
        },
        {
          "duration": 0.1907890666666674,
          "durationTicks": 232,
          "midi": 55,
          "name": "G3",
          "ticks": 169440,
          "time": 139.341808,
          "velocity": 0.5669291338582677
        },
        {
          "duration": 0.1907890666666674,
          "durationTicks": 232,
          "midi": 52,
          "name": "E3",
          "ticks": 169680,
          "time": 139.539176,
          "velocity": 0.5669291338582677
        },
        {
          "duration": 0.19078906666669582,
          "durationTicks": 232,
          "midi": 62,
          "name": "D4",
          "ticks": 169920,
          "time": 139.73654399999998,
          "velocity": 0.5669291338582677
        },
        {
          "duration": 0.1907890666666674,
          "durationTicks": 232,
          "midi": 55,
          "name": "G3",
          "ticks": 170160,
          "time": 139.933912,
          "velocity": 0.5669291338582677
        },
        {
          "duration": 0.1907890666666674,
          "durationTicks": 232,
          "midi": 52,
          "name": "E3",
          "ticks": 170400,
          "time": 140.13128,
          "velocity": 0.5669291338582677
        },
        {
          "duration": 0.1907890666666674,
          "durationTicks": 232,
          "midi": 64,
          "name": "E4",
          "ticks": 170640,
          "time": 140.328648,
          "velocity": 0.5669291338582677
        },
        {
          "duration": 0.1907890666666674,
          "durationTicks": 232,
          "midi": 57,
          "name": "A3",
          "ticks": 170880,
          "time": 140.526016,
          "velocity": 0.5669291338582677
        },
        {
          "duration": 0.19078906666669582,
          "durationTicks": 232,
          "midi": 54,
          "name": "F#3",
          "ticks": 171120,
          "time": 140.72338399999998,
          "velocity": 0.5669291338582677
        },
        {
          "duration": 0.1907890666666674,
          "durationTicks": 232,
          "midi": 64,
          "name": "E4",
          "ticks": 171360,
          "time": 140.920752,
          "velocity": 0.5669291338582677
        },
        {
          "duration": 0.1907890666666674,
          "durationTicks": 232,
          "midi": 57,
          "name": "A3",
          "ticks": 171600,
          "time": 141.11812,
          "velocity": 0.5669291338582677
        },
        {
          "duration": 0.1907890666666674,
          "durationTicks": 232,
          "midi": 54,
          "name": "F#3",
          "ticks": 171840,
          "time": 141.315488,
          "velocity": 0.5669291338582677
        },
        {
          "duration": 0.1907890666666674,
          "durationTicks": 232,
          "midi": 64,
          "name": "E4",
          "ticks": 172080,
          "time": 141.512856,
          "velocity": 0.5669291338582677
        },
        {
          "duration": 0.1907890666666674,
          "durationTicks": 232,
          "midi": 57,
          "name": "A3",
          "ticks": 172320,
          "time": 141.71022399999998,
          "velocity": 0.5669291338582677
        },
        {
          "duration": 0.1907890666666674,
          "durationTicks": 232,
          "midi": 54,
          "name": "F#3",
          "ticks": 172560,
          "time": 141.907592,
          "velocity": 0.5669291338582677
        },
        {
          "duration": 0.1907890666666674,
          "durationTicks": 232,
          "midi": 64,
          "name": "E4",
          "ticks": 172800,
          "time": 142.10496,
          "velocity": 0.5669291338582677
        },
        {
          "duration": 0.1907890666666674,
          "durationTicks": 232,
          "midi": 57,
          "name": "A3",
          "ticks": 173040,
          "time": 142.302328,
          "velocity": 0.5669291338582677
        },
        {
          "duration": 0.1907890666666674,
          "durationTicks": 232,
          "midi": 54,
          "name": "F#3",
          "ticks": 173280,
          "time": 142.499696,
          "velocity": 0.5669291338582677
        },
        {
          "duration": 0.1907890666666674,
          "durationTicks": 232,
          "midi": 64,
          "name": "E4",
          "ticks": 173520,
          "time": 142.69706399999998,
          "velocity": 0.5669291338582677
        },
        {
          "duration": 0.1907890666666674,
          "durationTicks": 232,
          "midi": 57,
          "name": "A3",
          "ticks": 173760,
          "time": 142.894432,
          "velocity": 0.5669291338582677
        },
        {
          "duration": 0.19078906666669582,
          "durationTicks": 232,
          "midi": 54,
          "name": "F#3",
          "ticks": 174000,
          "time": 143.09179999999998,
          "velocity": 0.5669291338582677
        },
        {
          "duration": 0.1907890666666674,
          "durationTicks": 232,
          "midi": 64,
          "name": "E4",
          "ticks": 174240,
          "time": 143.289168,
          "velocity": 0.5669291338582677
        },
        {
          "duration": 0.1907890666666674,
          "durationTicks": 232,
          "midi": 57,
          "name": "A3",
          "ticks": 174480,
          "time": 143.486536,
          "velocity": 0.5669291338582677
        },
        {
          "duration": 0.1907890666666674,
          "durationTicks": 232,
          "midi": 54,
          "name": "F#3",
          "ticks": 174720,
          "time": 143.68390399999998,
          "velocity": 0.5669291338582677
        },
        {
          "duration": 0.1907890666666674,
          "durationTicks": 232,
          "midi": 64,
          "name": "E4",
          "ticks": 174960,
          "time": 143.881272,
          "velocity": 0.5669291338582677
        },
        {
          "duration": 0.19078906666669582,
          "durationTicks": 232,
          "midi": 57,
          "name": "A3",
          "ticks": 175200,
          "time": 144.07863999999998,
          "velocity": 0.5669291338582677
        },
        {
          "duration": 0.1907890666666674,
          "durationTicks": 232,
          "midi": 54,
          "name": "F#3",
          "ticks": 175440,
          "time": 144.276008,
          "velocity": 0.5669291338582677
        },
        {
          "duration": 0.1907890666666674,
          "durationTicks": 232,
          "midi": 64,
          "name": "E4",
          "ticks": 175680,
          "time": 144.473376,
          "velocity": 0.5669291338582677
        },
        {
          "duration": 0.1907890666666674,
          "durationTicks": 232,
          "midi": 57,
          "name": "A3",
          "ticks": 175920,
          "time": 144.67074399999998,
          "velocity": 0.5669291338582677
        },
        {
          "duration": 0.1907890666666674,
          "durationTicks": 232,
          "midi": 54,
          "name": "F#3",
          "ticks": 176160,
          "time": 144.868112,
          "velocity": 0.5669291338582677
        },
        {
          "duration": 0.19078906666669582,
          "durationTicks": 232,
          "midi": 64,
          "name": "E4",
          "ticks": 176400,
          "time": 145.06547999999998,
          "velocity": 0.5669291338582677
        },
        {
          "duration": 0.1907890666666674,
          "durationTicks": 232,
          "midi": 57,
          "name": "A3",
          "ticks": 176640,
          "time": 145.262848,
          "velocity": 0.5669291338582677
        },
        {
          "duration": 0.1907890666666674,
          "durationTicks": 232,
          "midi": 54,
          "name": "F#3",
          "ticks": 176880,
          "time": 145.460216,
          "velocity": 0.5669291338582677
        },
        {
          "duration": 0.1907890666666674,
          "durationTicks": 232,
          "midi": 64,
          "name": "E4",
          "ticks": 177120,
          "time": 145.65758399999999,
          "velocity": 0.5669291338582677
        },
        {
          "duration": 0.1907890666666674,
          "durationTicks": 232,
          "midi": 57,
          "name": "A3",
          "ticks": 177360,
          "time": 145.854952,
          "velocity": 0.5669291338582677
        },
        {
          "duration": 0.19078906666669582,
          "durationTicks": 232,
          "midi": 54,
          "name": "F#3",
          "ticks": 177600,
          "time": 146.05231999999998,
          "velocity": 0.5669291338582677
        },
        {
          "duration": 0.1907890666666674,
          "durationTicks": 232,
          "midi": 64,
          "name": "E4",
          "ticks": 177840,
          "time": 146.249688,
          "velocity": 0.5669291338582677
        },
        {
          "duration": 0.1907890666666674,
          "durationTicks": 232,
          "midi": 57,
          "name": "A3",
          "ticks": 178080,
          "time": 146.447056,
          "velocity": 0.5669291338582677
        },
        {
          "duration": 0.1907890666666674,
          "durationTicks": 232,
          "midi": 61,
          "name": "C#4",
          "ticks": 178320,
          "time": 146.644424,
          "velocity": 0.5669291338582677
        },
        {
          "duration": 0.1907890666666674,
          "durationTicks": 232,
          "midi": 69,
          "name": "A4",
          "ticks": 178560,
          "time": 146.841792,
          "velocity": 0.5669291338582677
        },
        {
          "duration": 0.19078906666669582,
          "durationTicks": 232,
          "midi": 61,
          "name": "C#4",
          "ticks": 178800,
          "time": 147.03915999999998,
          "velocity": 0.5669291338582677
        },
        {
          "duration": 0.1907890666666674,
          "durationTicks": 232,
          "midi": 57,
          "name": "A3",
          "ticks": 179040,
          "time": 147.236528,
          "velocity": 0.5669291338582677
        },
        {
          "duration": 0.1907890666666674,
          "durationTicks": 232,
          "midi": 69,
          "name": "A4",
          "ticks": 179280,
          "time": 147.433896,
          "velocity": 0.5669291338582677
        },
        {
          "duration": 0.1907890666666674,
          "durationTicks": 232,
          "midi": 61,
          "name": "C#4",
          "ticks": 179520,
          "time": 147.631264,
          "velocity": 0.5669291338582677
        },
        {
          "duration": 0.1907890666666674,
          "durationTicks": 232,
          "midi": 57,
          "name": "A3",
          "ticks": 179760,
          "time": 147.828632,
          "velocity": 0.5669291338582677
        },
        {
          "duration": 0.1907890666666674,
          "durationTicks": 232,
          "midi": 69,
          "name": "A4",
          "ticks": 180000,
          "time": 148.02599999999998,
          "velocity": 0.5669291338582677
        },
        {
          "duration": 0.1907890666666674,
          "durationTicks": 232,
          "midi": 61,
          "name": "C#4",
          "ticks": 180240,
          "time": 148.223368,
          "velocity": 0.5669291338582677
        },
        {
          "duration": 0.19078906666669582,
          "durationTicks": 232,
          "midi": 57,
          "name": "A3",
          "ticks": 180480,
          "time": 148.42073599999998,
          "velocity": 0.5669291338582677
        },
        {
          "duration": 0.1907890666666674,
          "durationTicks": 232,
          "midi": 69,
          "name": "A4",
          "ticks": 180720,
          "time": 148.618104,
          "velocity": 0.5669291338582677
        },
        {
          "duration": 0.1907890666666674,
          "durationTicks": 232,
          "midi": 61,
          "name": "C#4",
          "ticks": 180960,
          "time": 148.815472,
          "velocity": 0.5669291338582677
        },
        {
          "duration": 0.1907890666666674,
          "durationTicks": 232,
          "midi": 57,
          "name": "A3",
          "ticks": 181200,
          "time": 149.01283999999998,
          "velocity": 0.5669291338582677
        },
        {
          "duration": 0.1907890666666674,
          "durationTicks": 232,
          "midi": 69,
          "name": "A4",
          "ticks": 181440,
          "time": 149.210208,
          "velocity": 0.5669291338582677
        },
        {
          "duration": 0.19078906666669582,
          "durationTicks": 232,
          "midi": 61,
          "name": "C#4",
          "ticks": 181680,
          "time": 149.40757599999998,
          "velocity": 0.5669291338582677
        },
        {
          "duration": 0.1907890666666674,
          "durationTicks": 232,
          "midi": 57,
          "name": "A3",
          "ticks": 181920,
          "time": 149.604944,
          "velocity": 0.5669291338582677
        },
        {
          "duration": 0.1907890666666674,
          "durationTicks": 232,
          "midi": 67,
          "name": "G4",
          "ticks": 182160,
          "time": 149.802312,
          "velocity": 0.5669291338582677
        },
        {
          "duration": 0.1907890666666674,
          "durationTicks": 232,
          "midi": 61,
          "name": "C#4",
          "ticks": 182400,
          "time": 149.99967999999998,
          "velocity": 0.5669291338582677
        },
        {
          "duration": 0.1907890666666674,
          "durationTicks": 232,
          "midi": 57,
          "name": "A3",
          "ticks": 182640,
          "time": 150.197048,
          "velocity": 0.5669291338582677
        },
        {
          "duration": 0.19078906666669582,
          "durationTicks": 232,
          "midi": 67,
          "name": "G4",
          "ticks": 182880,
          "time": 150.39441599999998,
          "velocity": 0.5669291338582677
        },
        {
          "duration": 0.1907890666666674,
          "durationTicks": 232,
          "midi": 61,
          "name": "C#4",
          "ticks": 183120,
          "time": 150.591784,
          "velocity": 0.5669291338582677
        },
        {
          "duration": 0.1907890666666674,
          "durationTicks": 232,
          "midi": 57,
          "name": "A3",
          "ticks": 183360,
          "time": 150.789152,
          "velocity": 0.5669291338582677
        },
        {
          "duration": 0.1907890666666674,
          "durationTicks": 232,
          "midi": 67,
          "name": "G4",
          "ticks": 183600,
          "time": 150.98651999999998,
          "velocity": 0.5669291338582677
        },
        {
          "duration": 0.1907890666666674,
          "durationTicks": 232,
          "midi": 61,
          "name": "C#4",
          "ticks": 183840,
          "time": 151.183888,
          "velocity": 0.5669291338582677
        },
        {
          "duration": 0.19078906666669582,
          "durationTicks": 232,
          "midi": 57,
          "name": "A3",
          "ticks": 184080,
          "time": 151.38125599999998,
          "velocity": 0.5669291338582677
        },
        {
          "duration": 0.1907890666666674,
          "durationTicks": 232,
          "midi": 66,
          "name": "F#4",
          "ticks": 184320,
          "time": 151.578624,
          "velocity": 0.5669291338582677
        },
        {
          "duration": 0.1907890666666674,
          "durationTicks": 232,
          "midi": 61,
          "name": "C#4",
          "ticks": 184560,
          "time": 151.775992,
          "velocity": 0.5669291338582677
        },
        {
          "duration": 0.1907890666666674,
          "durationTicks": 232,
          "midi": 57,
          "name": "A3",
          "ticks": 184800,
          "time": 151.97335999999999,
          "velocity": 0.5669291338582677
        },
        {
          "duration": 0.1907890666666674,
          "durationTicks": 232,
          "midi": 66,
          "name": "F#4",
          "ticks": 185040,
          "time": 152.170728,
          "velocity": 0.5669291338582677
        },
        {
          "duration": 0.19078906666669582,
          "durationTicks": 232,
          "midi": 61,
          "name": "C#4",
          "ticks": 185280,
          "time": 152.36809599999998,
          "velocity": 0.5669291338582677
        },
        {
          "duration": 0.1907890666666674,
          "durationTicks": 232,
          "midi": 55,
          "name": "G3",
          "ticks": 185520,
          "time": 152.565464,
          "velocity": 0.5669291338582677
        },
        {
          "duration": 0.1907890666666674,
          "durationTicks": 232,
          "midi": 59,
          "name": "B3",
          "ticks": 185520,
          "time": 152.565464,
          "velocity": 0.5669291338582677
        },
        {
          "duration": 0.1907890666666674,
          "durationTicks": 232,
          "midi": 66,
          "name": "F#4",
          "ticks": 185760,
          "time": 152.762832,
          "velocity": 0.5669291338582677
        },
        {
          "duration": 0.1907890666666674,
          "durationTicks": 232,
          "midi": 59,
          "name": "B3",
          "ticks": 186000,
          "time": 152.9602,
          "velocity": 0.5669291338582677
        },
        {
          "duration": 0.1907890666666674,
          "durationTicks": 232,
          "midi": 55,
          "name": "G3",
          "ticks": 186240,
          "time": 153.157568,
          "velocity": 0.5669291338582677
        },
        {
          "duration": 0.19078906666669582,
          "durationTicks": 232,
          "midi": 66,
          "name": "F#4",
          "ticks": 186480,
          "time": 153.35493599999998,
          "velocity": 0.5669291338582677
        },
        {
          "duration": 0.1907890666666674,
          "durationTicks": 232,
          "midi": 59,
          "name": "B3",
          "ticks": 186720,
          "time": 153.552304,
          "velocity": 0.5669291338582677
        },
        {
          "duration": 0.1907890666666674,
          "durationTicks": 232,
          "midi": 55,
          "name": "G3",
          "ticks": 186960,
          "time": 153.749672,
          "velocity": 0.5669291338582677
        },
        {
          "duration": 0.1907890666666674,
          "durationTicks": 232,
          "midi": 66,
          "name": "F#4",
          "ticks": 187200,
          "time": 153.94704,
          "velocity": 0.5669291338582677
        },
        {
          "duration": 0.1907890666666674,
          "durationTicks": 232,
          "midi": 59,
          "name": "B3",
          "ticks": 187440,
          "time": 154.144408,
          "velocity": 0.5669291338582677
        },
        {
          "duration": 0.1907890666666674,
          "durationTicks": 232,
          "midi": 55,
          "name": "G3",
          "ticks": 187680,
          "time": 154.34177599999998,
          "velocity": 0.5669291338582677
        },
        {
          "duration": 0.1907890666666674,
          "durationTicks": 232,
          "midi": 66,
          "name": "F#4",
          "ticks": 187920,
          "time": 154.539144,
          "velocity": 0.5669291338582677
        },
        {
          "duration": 0.1907890666666674,
          "durationTicks": 232,
          "midi": 59,
          "name": "B3",
          "ticks": 188160,
          "time": 154.736512,
          "velocity": 0.5669291338582677
        },
        {
          "duration": 0.1907890666666674,
          "durationTicks": 232,
          "midi": 55,
          "name": "G3",
          "ticks": 188400,
          "time": 154.93388,
          "velocity": 0.5669291338582677
        },
        {
          "duration": 0.1907890666666674,
          "durationTicks": 232,
          "midi": 66,
          "name": "F#4",
          "ticks": 188640,
          "time": 155.131248,
          "velocity": 0.5669291338582677
        },
        {
          "duration": 0.1907890666666674,
          "durationTicks": 232,
          "midi": 59,
          "name": "B3",
          "ticks": 188880,
          "time": 155.32861599999998,
          "velocity": 0.5669291338582677
        },
        {
          "duration": 0.1907890666666674,
          "durationTicks": 232,
          "midi": 55,
          "name": "G3",
          "ticks": 189120,
          "time": 155.525984,
          "velocity": 0.5669291338582677
        },
        {
          "duration": 0.19078906666669582,
          "durationTicks": 232,
          "midi": 66,
          "name": "F#4",
          "ticks": 189360,
          "time": 155.72335199999998,
          "velocity": 0.5669291338582677
        },
        {
          "duration": 0.1907890666666674,
          "durationTicks": 232,
          "midi": 59,
          "name": "B3",
          "ticks": 189600,
          "time": 155.92072,
          "velocity": 0.5669291338582677
        },
        {
          "duration": 0.1907890666666674,
          "durationTicks": 232,
          "midi": 55,
          "name": "G3",
          "ticks": 189840,
          "time": 156.118088,
          "velocity": 0.5669291338582677
        },
        {
          "duration": 0.1907890666666674,
          "durationTicks": 232,
          "midi": 66,
          "name": "F#4",
          "ticks": 190080,
          "time": 156.31545599999998,
          "velocity": 0.5669291338582677
        },
        {
          "duration": 0.1907890666666674,
          "durationTicks": 232,
          "midi": 59,
          "name": "B3",
          "ticks": 190320,
          "time": 156.512824,
          "velocity": 0.5669291338582677
        },
        {
          "duration": 0.19078906666669582,
          "durationTicks": 232,
          "midi": 55,
          "name": "G3",
          "ticks": 190560,
          "time": 156.71019199999998,
          "velocity": 0.5669291338582677
        },
        {
          "duration": 0.1907890666666674,
          "durationTicks": 232,
          "midi": 66,
          "name": "F#4",
          "ticks": 190800,
          "time": 156.90756,
          "velocity": 0.5669291338582677
        },
        {
          "duration": 0.1907890666666674,
          "durationTicks": 232,
          "midi": 59,
          "name": "B3",
          "ticks": 191040,
          "time": 157.104928,
          "velocity": 0.5669291338582677
        },
        {
          "duration": 0.1907890666666674,
          "durationTicks": 232,
          "midi": 55,
          "name": "G3",
          "ticks": 191280,
          "time": 157.30229599999998,
          "velocity": 0.5669291338582677
        },
        {
          "duration": 0.1907890666666674,
          "durationTicks": 232,
          "midi": 66,
          "name": "F#4",
          "ticks": 191520,
          "time": 157.499664,
          "velocity": 0.5669291338582677
        },
        {
          "duration": 0.19078906666669582,
          "durationTicks": 232,
          "midi": 59,
          "name": "B3",
          "ticks": 191760,
          "time": 157.69703199999998,
          "velocity": 0.5669291338582677
        },
        {
          "duration": 0.1907890666666674,
          "durationTicks": 232,
          "midi": 55,
          "name": "G3",
          "ticks": 192000,
          "time": 157.8944,
          "velocity": 0.5669291338582677
        },
        {
          "duration": 0.1907890666666674,
          "durationTicks": 232,
          "midi": 66,
          "name": "F#4",
          "ticks": 192240,
          "time": 158.091768,
          "velocity": 0.5669291338582677
        },
        {
          "duration": 0.1907890666666674,
          "durationTicks": 232,
          "midi": 59,
          "name": "B3",
          "ticks": 192480,
          "time": 158.28913599999998,
          "velocity": 0.5669291338582677
        },
        {
          "duration": 0.1907890666666674,
          "durationTicks": 232,
          "midi": 55,
          "name": "G3",
          "ticks": 192720,
          "time": 158.486504,
          "velocity": 0.5669291338582677
        },
        {
          "duration": 0.19078906666669582,
          "durationTicks": 232,
          "midi": 66,
          "name": "F#4",
          "ticks": 192960,
          "time": 158.68387199999998,
          "velocity": 0.5669291338582677
        },
        {
          "duration": 0.1907890666666674,
          "durationTicks": 232,
          "midi": 59,
          "name": "B3",
          "ticks": 193200,
          "time": 158.88124,
          "velocity": 0.5669291338582677
        },
        {
          "duration": 0.3881570666666505,
          "durationTicks": 472,
          "midi": 55,
          "name": "G3",
          "ticks": 193440,
          "time": 159.078608,
          "velocity": 0.5669291338582677
        },
        {
          "duration": 0.1907890666666674,
          "durationTicks": 232,
          "midi": 52,
          "name": "E3",
          "ticks": 193920,
          "time": 159.473344,
          "velocity": 0.5669291338582677
        },
        {
          "duration": 0.19078906666669582,
          "durationTicks": 232,
          "midi": 62,
          "name": "D4",
          "ticks": 194160,
          "time": 159.67071199999998,
          "velocity": 0.5669291338582677
        },
        {
          "duration": 0.1907890666666674,
          "durationTicks": 232,
          "midi": 55,
          "name": "G3",
          "ticks": 194400,
          "time": 159.86808,
          "velocity": 0.5669291338582677
        },
        {
          "duration": 0.1907890666666674,
          "durationTicks": 232,
          "midi": 52,
          "name": "E3",
          "ticks": 194640,
          "time": 160.065448,
          "velocity": 0.5669291338582677
        },
        {
          "duration": 0.1907890666666674,
          "durationTicks": 232,
          "midi": 62,
          "name": "D4",
          "ticks": 194880,
          "time": 160.262816,
          "velocity": 0.5669291338582677
        },
        {
          "duration": 0.1907890666666674,
          "durationTicks": 232,
          "midi": 55,
          "name": "G3",
          "ticks": 195120,
          "time": 160.460184,
          "velocity": 0.5669291338582677
        },
        {
          "duration": 0.1907890666666674,
          "durationTicks": 232,
          "midi": 52,
          "name": "E3",
          "ticks": 195360,
          "time": 160.65755199999998,
          "velocity": 0.5669291338582677
        },
        {
          "duration": 0.1907890666666674,
          "durationTicks": 232,
          "midi": 62,
          "name": "D4",
          "ticks": 195600,
          "time": 160.85492,
          "velocity": 0.5669291338582677
        },
        {
          "duration": 0.19078906666669582,
          "durationTicks": 232,
          "midi": 55,
          "name": "G3",
          "ticks": 195840,
          "time": 161.05228799999998,
          "velocity": 0.5669291338582677
        },
        {
          "duration": 0.1907890666666674,
          "durationTicks": 232,
          "midi": 52,
          "name": "E3",
          "ticks": 196080,
          "time": 161.249656,
          "velocity": 0.5669291338582677
        },
        {
          "duration": 0.1907890666666674,
          "durationTicks": 232,
          "midi": 62,
          "name": "D4",
          "ticks": 196320,
          "time": 161.447024,
          "velocity": 0.5669291338582677
        },
        {
          "duration": 0.1907890666666674,
          "durationTicks": 232,
          "midi": 55,
          "name": "G3",
          "ticks": 196560,
          "time": 161.64439199999998,
          "velocity": 0.5669291338582677
        },
        {
          "duration": 0.1907890666666674,
          "durationTicks": 232,
          "midi": 52,
          "name": "E3",
          "ticks": 196800,
          "time": 161.84176,
          "velocity": 0.5669291338582677
        },
        {
          "duration": 0.19078906666669582,
          "durationTicks": 232,
          "midi": 62,
          "name": "D4",
          "ticks": 197040,
          "time": 162.03912799999998,
          "velocity": 0.5669291338582677
        },
        {
          "duration": 0.1907890666666674,
          "durationTicks": 232,
          "midi": 55,
          "name": "G3",
          "ticks": 197280,
          "time": 162.236496,
          "velocity": 0.5669291338582677
        },
        {
          "duration": 0.1907890666666674,
          "durationTicks": 232,
          "midi": 52,
          "name": "E3",
          "ticks": 197520,
          "time": 162.433864,
          "velocity": 0.5669291338582677
        },
        {
          "duration": 0.1907890666666674,
          "durationTicks": 232,
          "midi": 62,
          "name": "D4",
          "ticks": 197760,
          "time": 162.63123199999998,
          "velocity": 0.5669291338582677
        },
        {
          "duration": 0.1907890666666674,
          "durationTicks": 232,
          "midi": 55,
          "name": "G3",
          "ticks": 198000,
          "time": 162.8286,
          "velocity": 0.5669291338582677
        },
        {
          "duration": 0.19078906666669582,
          "durationTicks": 232,
          "midi": 52,
          "name": "E3",
          "ticks": 198240,
          "time": 163.02596799999998,
          "velocity": 0.5669291338582677
        },
        {
          "duration": 0.1907890666666674,
          "durationTicks": 232,
          "midi": 62,
          "name": "D4",
          "ticks": 198480,
          "time": 163.223336,
          "velocity": 0.5669291338582677
        },
        {
          "duration": 0.1907890666666674,
          "durationTicks": 232,
          "midi": 55,
          "name": "G3",
          "ticks": 198720,
          "time": 163.420704,
          "velocity": 0.5669291338582677
        },
        {
          "duration": 0.1907890666666674,
          "durationTicks": 232,
          "midi": 52,
          "name": "E3",
          "ticks": 198960,
          "time": 163.61807199999998,
          "velocity": 0.5669291338582677
        },
        {
          "duration": 0.1907890666666674,
          "durationTicks": 232,
          "midi": 62,
          "name": "D4",
          "ticks": 199200,
          "time": 163.81544,
          "velocity": 0.5669291338582677
        },
        {
          "duration": 0.19078906666669582,
          "durationTicks": 232,
          "midi": 55,
          "name": "G3",
          "ticks": 199440,
          "time": 164.01280799999998,
          "velocity": 0.5669291338582677
        },
        {
          "duration": 0.1907890666666674,
          "durationTicks": 232,
          "midi": 52,
          "name": "E3",
          "ticks": 199680,
          "time": 164.210176,
          "velocity": 0.5669291338582677
        },
        {
          "duration": 0.1907890666666674,
          "durationTicks": 232,
          "midi": 62,
          "name": "D4",
          "ticks": 199920,
          "time": 164.407544,
          "velocity": 0.5669291338582677
        },
        {
          "duration": 0.1907890666666674,
          "durationTicks": 232,
          "midi": 55,
          "name": "G3",
          "ticks": 200160,
          "time": 164.60491199999998,
          "velocity": 0.5669291338582677
        },
        {
          "duration": 0.1907890666666674,
          "durationTicks": 232,
          "midi": 52,
          "name": "E3",
          "ticks": 200400,
          "time": 164.80228,
          "velocity": 0.5669291338582677
        },
        {
          "duration": 0.19078906666669582,
          "durationTicks": 232,
          "midi": 62,
          "name": "D4",
          "ticks": 200640,
          "time": 164.99964799999998,
          "velocity": 0.5669291338582677
        },
        {
          "duration": 0.1907890666666674,
          "durationTicks": 232,
          "midi": 55,
          "name": "G3",
          "ticks": 200880,
          "time": 165.197016,
          "velocity": 0.5669291338582677
        },
        {
          "duration": 0.1907890666666674,
          "durationTicks": 232,
          "midi": 52,
          "name": "E3",
          "ticks": 201120,
          "time": 165.394384,
          "velocity": 0.5669291338582677
        },
        {
          "duration": 0.1907890666666674,
          "durationTicks": 232,
          "midi": 64,
          "name": "E4",
          "ticks": 201360,
          "time": 165.59175199999999,
          "velocity": 0.5669291338582677
        },
        {
          "duration": 0.1907890666666674,
          "durationTicks": 232,
          "midi": 57,
          "name": "A3",
          "ticks": 201600,
          "time": 165.78912,
          "velocity": 0.5669291338582677
        },
        {
          "duration": 0.19078906666669582,
          "durationTicks": 232,
          "midi": 54,
          "name": "F#3",
          "ticks": 201840,
          "time": 165.98648799999998,
          "velocity": 0.5669291338582677
        },
        {
          "duration": 0.1907890666666674,
          "durationTicks": 232,
          "midi": 64,
          "name": "E4",
          "ticks": 202080,
          "time": 166.183856,
          "velocity": 0.5669291338582677
        },
        {
          "duration": 0.1907890666666674,
          "durationTicks": 232,
          "midi": 57,
          "name": "A3",
          "ticks": 202320,
          "time": 166.381224,
          "velocity": 0.5669291338582677
        },
        {
          "duration": 0.1907890666666674,
          "durationTicks": 232,
          "midi": 54,
          "name": "F#3",
          "ticks": 202560,
          "time": 166.578592,
          "velocity": 0.5669291338582677
        },
        {
          "duration": 0.1907890666666674,
          "durationTicks": 232,
          "midi": 64,
          "name": "E4",
          "ticks": 202800,
          "time": 166.77596,
          "velocity": 0.5669291338582677
        },
        {
          "duration": 0.1907890666666674,
          "durationTicks": 232,
          "midi": 57,
          "name": "A3",
          "ticks": 203040,
          "time": 166.97332799999998,
          "velocity": 0.5669291338582677
        },
        {
          "duration": 0.1907890666666674,
          "durationTicks": 232,
          "midi": 54,
          "name": "F#3",
          "ticks": 203280,
          "time": 167.170696,
          "velocity": 0.5669291338582677
        },
        {
          "duration": 0.1907890666666674,
          "durationTicks": 232,
          "midi": 64,
          "name": "E4",
          "ticks": 203520,
          "time": 167.368064,
          "velocity": 0.5669291338582677
        },
        {
          "duration": 0.1907890666666674,
          "durationTicks": 232,
          "midi": 57,
          "name": "A3",
          "ticks": 203760,
          "time": 167.565432,
          "velocity": 0.5669291338582677
        },
        {
          "duration": 0.1907890666666674,
          "durationTicks": 232,
          "midi": 54,
          "name": "F#3",
          "ticks": 204000,
          "time": 167.7628,
          "velocity": 0.5669291338582677
        },
        {
          "duration": 0.1907890666666674,
          "durationTicks": 232,
          "midi": 64,
          "name": "E4",
          "ticks": 204240,
          "time": 167.96016799999998,
          "velocity": 0.5669291338582677
        },
        {
          "duration": 0.1907890666666674,
          "durationTicks": 232,
          "midi": 57,
          "name": "A3",
          "ticks": 204480,
          "time": 168.157536,
          "velocity": 0.5669291338582677
        },
        {
          "duration": 0.19078906666669582,
          "durationTicks": 232,
          "midi": 54,
          "name": "F#3",
          "ticks": 204720,
          "time": 168.35490399999998,
          "velocity": 0.5669291338582677
        },
        {
          "duration": 0.1907890666666674,
          "durationTicks": 232,
          "midi": 64,
          "name": "E4",
          "ticks": 204960,
          "time": 168.552272,
          "velocity": 0.5669291338582677
        },
        {
          "duration": 0.1907890666666674,
          "durationTicks": 232,
          "midi": 57,
          "name": "A3",
          "ticks": 205200,
          "time": 168.74964,
          "velocity": 0.5669291338582677
        },
        {
          "duration": 0.1907890666666674,
          "durationTicks": 232,
          "midi": 54,
          "name": "F#3",
          "ticks": 205440,
          "time": 168.94700799999998,
          "velocity": 0.5669291338582677
        },
        {
          "duration": 0.1907890666666674,
          "durationTicks": 232,
          "midi": 64,
          "name": "E4",
          "ticks": 205680,
          "time": 169.144376,
          "velocity": 0.5669291338582677
        },
        {
          "duration": 0.19078906666669582,
          "durationTicks": 232,
          "midi": 57,
          "name": "A3",
          "ticks": 205920,
          "time": 169.34174399999998,
          "velocity": 0.5669291338582677
        },
        {
          "duration": 0.1907890666666674,
          "durationTicks": 232,
          "midi": 54,
          "name": "F#3",
          "ticks": 206160,
          "time": 169.539112,
          "velocity": 0.5669291338582677
        },
        {
          "duration": 0.1907890666666674,
          "durationTicks": 232,
          "midi": 64,
          "name": "E4",
          "ticks": 206400,
          "time": 169.73648,
          "velocity": 0.5669291338582677
        },
        {
          "duration": 0.1907890666666674,
          "durationTicks": 232,
          "midi": 57,
          "name": "A3",
          "ticks": 206640,
          "time": 169.93384799999998,
          "velocity": 0.5669291338582677
        },
        {
          "duration": 0.1907890666666674,
          "durationTicks": 232,
          "midi": 54,
          "name": "F#3",
          "ticks": 206880,
          "time": 170.131216,
          "velocity": 0.5669291338582677
        },
        {
          "duration": 0.19078906666669582,
          "durationTicks": 232,
          "midi": 64,
          "name": "E4",
          "ticks": 207120,
          "time": 170.32858399999998,
          "velocity": 0.5669291338582677
        },
        {
          "duration": 0.1907890666666674,
          "durationTicks": 232,
          "midi": 57,
          "name": "A3",
          "ticks": 207360,
          "time": 170.525952,
          "velocity": 0.5669291338582677
        },
        {
          "duration": 0.1907890666666674,
          "durationTicks": 232,
          "midi": 54,
          "name": "F#3",
          "ticks": 207600,
          "time": 170.72332,
          "velocity": 0.5669291338582677
        },
        {
          "duration": 0.1907890666666674,
          "durationTicks": 232,
          "midi": 64,
          "name": "E4",
          "ticks": 207840,
          "time": 170.92068799999998,
          "velocity": 0.5669291338582677
        },
        {
          "duration": 0.1907890666666674,
          "durationTicks": 232,
          "midi": 57,
          "name": "A3",
          "ticks": 208080,
          "time": 171.118056,
          "velocity": 0.5669291338582677
        },
        {
          "duration": 0.19078906666669582,
          "durationTicks": 232,
          "midi": 54,
          "name": "F#3",
          "ticks": 208320,
          "time": 171.31542399999998,
          "velocity": 0.5669291338582677
        },
        {
          "duration": 0.1907890666666674,
          "durationTicks": 232,
          "midi": 64,
          "name": "E4",
          "ticks": 208560,
          "time": 171.512792,
          "velocity": 0.5669291338582677
        },
        {
          "duration": 0.1907890666666674,
          "durationTicks": 232,
          "midi": 57,
          "name": "A3",
          "ticks": 208800,
          "time": 171.71016,
          "velocity": 0.5669291338582677
        },
        {
          "duration": 0.1907890666666674,
          "durationTicks": 232,
          "midi": 61,
          "name": "C#4",
          "ticks": 209040,
          "time": 171.90752799999999,
          "velocity": 0.5669291338582677
        },
        {
          "duration": 0.1907890666666674,
          "durationTicks": 232,
          "midi": 69,
          "name": "A4",
          "ticks": 209280,
          "time": 172.104896,
          "velocity": 0.5669291338582677
        },
        {
          "duration": 0.19078906666669582,
          "durationTicks": 232,
          "midi": 61,
          "name": "C#4",
          "ticks": 209520,
          "time": 172.30226399999998,
          "velocity": 0.5669291338582677
        },
        {
          "duration": 0.1907890666666674,
          "durationTicks": 232,
          "midi": 57,
          "name": "A3",
          "ticks": 209760,
          "time": 172.499632,
          "velocity": 0.5669291338582677
        },
        {
          "duration": 0.1907890666666674,
          "durationTicks": 232,
          "midi": 69,
          "name": "A4",
          "ticks": 210000,
          "time": 172.697,
          "velocity": 0.5669291338582677
        },
        {
          "duration": 0.1907890666666674,
          "durationTicks": 232,
          "midi": 61,
          "name": "C#4",
          "ticks": 210240,
          "time": 172.894368,
          "velocity": 0.5669291338582677
        },
        {
          "duration": 0.1907890666666674,
          "durationTicks": 232,
          "midi": 57,
          "name": "A3",
          "ticks": 210480,
          "time": 173.091736,
          "velocity": 0.5669291338582677
        },
        {
          "duration": 0.1907890666666674,
          "durationTicks": 232,
          "midi": 69,
          "name": "A4",
          "ticks": 210720,
          "time": 173.28910399999998,
          "velocity": 0.5669291338582677
        },
        {
          "duration": 0.1907890666666674,
          "durationTicks": 232,
          "midi": 61,
          "name": "C#4",
          "ticks": 210960,
          "time": 173.486472,
          "velocity": 0.5669291338582677
        },
        {
          "duration": 0.19078906666669582,
          "durationTicks": 232,
          "midi": 57,
          "name": "A3",
          "ticks": 211200,
          "time": 173.68383999999998,
          "velocity": 0.5669291338582677
        },
        {
          "duration": 0.1907890666666674,
          "durationTicks": 232,
          "midi": 69,
          "name": "A4",
          "ticks": 211440,
          "time": 173.881208,
          "velocity": 0.5669291338582677
        },
        {
          "duration": 0.1907890666666674,
          "durationTicks": 232,
          "midi": 61,
          "name": "C#4",
          "ticks": 211680,
          "time": 174.078576,
          "velocity": 0.5669291338582677
        },
        {
          "duration": 0.1907890666666674,
          "durationTicks": 232,
          "midi": 57,
          "name": "A3",
          "ticks": 211920,
          "time": 174.27594399999998,
          "velocity": 0.5669291338582677
        },
        {
          "duration": 0.1907890666666674,
          "durationTicks": 232,
          "midi": 69,
          "name": "A4",
          "ticks": 212160,
          "time": 174.473312,
          "velocity": 0.5669291338582677
        },
        {
          "duration": 0.19078906666669582,
          "durationTicks": 232,
          "midi": 61,
          "name": "C#4",
          "ticks": 212400,
          "time": 174.67067999999998,
          "velocity": 0.5669291338582677
        },
        {
          "duration": 0.1907890666666674,
          "durationTicks": 232,
          "midi": 57,
          "name": "A3",
          "ticks": 212640,
          "time": 174.868048,
          "velocity": 0.5669291338582677
        },
        {
          "duration": 0.1907890666666674,
          "durationTicks": 232,
          "midi": 67,
          "name": "G4",
          "ticks": 212880,
          "time": 175.065416,
          "velocity": 0.5669291338582677
        },
        {
          "duration": 0.1907890666666674,
          "durationTicks": 232,
          "midi": 61,
          "name": "C#4",
          "ticks": 213120,
          "time": 175.26278399999998,
          "velocity": 0.5669291338582677
        },
        {
          "duration": 0.1907890666666674,
          "durationTicks": 232,
          "midi": 57,
          "name": "A3",
          "ticks": 213360,
          "time": 175.460152,
          "velocity": 0.5669291338582677
        },
        {
          "duration": 0.19078906666669582,
          "durationTicks": 232,
          "midi": 67,
          "name": "G4",
          "ticks": 213600,
          "time": 175.65751999999998,
          "velocity": 0.5669291338582677
        },
        {
          "duration": 0.1907890666666674,
          "durationTicks": 232,
          "midi": 61,
          "name": "C#4",
          "ticks": 213840,
          "time": 175.854888,
          "velocity": 0.5669291338582677
        },
        {
          "duration": 0.1907890666666674,
          "durationTicks": 232,
          "midi": 57,
          "name": "A3",
          "ticks": 214080,
          "time": 176.052256,
          "velocity": 0.5669291338582677
        },
        {
          "duration": 0.1907890666666674,
          "durationTicks": 232,
          "midi": 67,
          "name": "G4",
          "ticks": 214320,
          "time": 176.24962399999998,
          "velocity": 0.5669291338582677
        },
        {
          "duration": 0.1907890666666674,
          "durationTicks": 232,
          "midi": 61,
          "name": "C#4",
          "ticks": 214560,
          "time": 176.446992,
          "velocity": 0.5669291338582677
        },
        {
          "duration": 0.19078906666669582,
          "durationTicks": 232,
          "midi": 57,
          "name": "A3",
          "ticks": 214800,
          "time": 176.64435999999998,
          "velocity": 0.5669291338582677
        },
        {
          "duration": 0.1907890666666674,
          "durationTicks": 232,
          "midi": 66,
          "name": "F#4",
          "ticks": 215040,
          "time": 176.841728,
          "velocity": 0.5669291338582677
        },
        {
          "duration": 0.1907890666666674,
          "durationTicks": 232,
          "midi": 61,
          "name": "C#4",
          "ticks": 215280,
          "time": 177.039096,
          "velocity": 0.5669291338582677
        },
        {
          "duration": 0.1907890666666674,
          "durationTicks": 232,
          "midi": 57,
          "name": "A3",
          "ticks": 215520,
          "time": 177.23646399999998,
          "velocity": 0.5669291338582677
        },
        {
          "duration": 0.1907890666666674,
          "durationTicks": 232,
          "midi": 66,
          "name": "F#4",
          "ticks": 215760,
          "time": 177.433832,
          "velocity": 0.5669291338582677
        },
        {
          "duration": 0.19078906666669582,
          "durationTicks": 232,
          "midi": 61,
          "name": "C#4",
          "ticks": 216000,
          "time": 177.63119999999998,
          "velocity": 0.5669291338582677
        },
        {
          "duration": 0.1907890666666674,
          "durationTicks": 232,
          "midi": 55,
          "name": "G3",
          "ticks": 216240,
          "time": 177.828568,
          "velocity": 0.5669291338582677
        },
        {
          "duration": 0.1907890666666674,
          "durationTicks": 232,
          "midi": 59,
          "name": "B3",
          "ticks": 216240,
          "time": 177.828568,
          "velocity": 0.5669291338582677
        },
        {
          "duration": 0.1907890666666674,
          "durationTicks": 232,
          "midi": 66,
          "name": "F#4",
          "ticks": 216480,
          "time": 178.025936,
          "velocity": 0.5669291338582677
        },
        {
          "duration": 0.1907890666666674,
          "durationTicks": 232,
          "midi": 59,
          "name": "B3",
          "ticks": 216720,
          "time": 178.22330399999998,
          "velocity": 0.5669291338582677
        },
        {
          "duration": 0.1907890666666674,
          "durationTicks": 232,
          "midi": 55,
          "name": "G3",
          "ticks": 216960,
          "time": 178.420672,
          "velocity": 0.5669291338582677
        },
        {
          "duration": 0.19078906666669582,
          "durationTicks": 232,
          "midi": 66,
          "name": "F#4",
          "ticks": 217200,
          "time": 178.61803999999998,
          "velocity": 0.5669291338582677
        },
        {
          "duration": 0.1907890666666674,
          "durationTicks": 232,
          "midi": 59,
          "name": "B3",
          "ticks": 217440,
          "time": 178.815408,
          "velocity": 0.5669291338582677
        },
        {
          "duration": 0.1907890666666674,
          "durationTicks": 232,
          "midi": 55,
          "name": "G3",
          "ticks": 217680,
          "time": 179.012776,
          "velocity": 0.5669291338582677
        },
        {
          "duration": 0.1907890666666674,
          "durationTicks": 232,
          "midi": 66,
          "name": "F#4",
          "ticks": 217920,
          "time": 179.21014399999999,
          "velocity": 0.5669291338582677
        },
        {
          "duration": 0.1907890666666674,
          "durationTicks": 232,
          "midi": 59,
          "name": "B3",
          "ticks": 218160,
          "time": 179.407512,
          "velocity": 0.5669291338582677
        },
        {
          "duration": 0.1907890666666674,
          "durationTicks": 232,
          "midi": 55,
          "name": "G3",
          "ticks": 218400,
          "time": 179.60487999999998,
          "velocity": 0.5669291338582677
        },
        {
          "duration": 0.1907890666666674,
          "durationTicks": 232,
          "midi": 66,
          "name": "F#4",
          "ticks": 218640,
          "time": 179.802248,
          "velocity": 0.5669291338582677
        },
        {
          "duration": 0.1907890666666674,
          "durationTicks": 232,
          "midi": 59,
          "name": "B3",
          "ticks": 218880,
          "time": 179.999616,
          "velocity": 0.5669291338582677
        },
        {
          "duration": 0.1907890666666674,
          "durationTicks": 232,
          "midi": 55,
          "name": "G3",
          "ticks": 219120,
          "time": 180.196984,
          "velocity": 0.5669291338582677
        },
        {
          "duration": 0.1907890666666674,
          "durationTicks": 232,
          "midi": 66,
          "name": "F#4",
          "ticks": 219360,
          "time": 180.394352,
          "velocity": 0.5669291338582677
        },
        {
          "duration": 0.1907890666666674,
          "durationTicks": 232,
          "midi": 59,
          "name": "B3",
          "ticks": 219600,
          "time": 180.59171999999998,
          "velocity": 0.5669291338582677
        },
        {
          "duration": 0.1907890666666674,
          "durationTicks": 232,
          "midi": 55,
          "name": "G3",
          "ticks": 219840,
          "time": 180.789088,
          "velocity": 0.5669291338582677
        },
        {
          "duration": 0.19078906666669582,
          "durationTicks": 232,
          "midi": 66,
          "name": "F#4",
          "ticks": 220080,
          "time": 180.98645599999998,
          "velocity": 0.5669291338582677
        },
        {
          "duration": 0.1907890666666674,
          "durationTicks": 232,
          "midi": 59,
          "name": "B3",
          "ticks": 220320,
          "time": 181.183824,
          "velocity": 0.5669291338582677
        },
        {
          "duration": 0.1907890666666674,
          "durationTicks": 232,
          "midi": 55,
          "name": "G3",
          "ticks": 220560,
          "time": 181.381192,
          "velocity": 0.5669291338582677
        },
        {
          "duration": 0.1907890666666674,
          "durationTicks": 232,
          "midi": 66,
          "name": "F#4",
          "ticks": 220800,
          "time": 181.57855999999998,
          "velocity": 0.5669291338582677
        },
        {
          "duration": 0.1907890666666674,
          "durationTicks": 232,
          "midi": 59,
          "name": "B3",
          "ticks": 221040,
          "time": 181.775928,
          "velocity": 0.5669291338582677
        },
        {
          "duration": 0.19078906666669582,
          "durationTicks": 232,
          "midi": 55,
          "name": "G3",
          "ticks": 221280,
          "time": 181.97329599999998,
          "velocity": 0.5669291338582677
        },
        {
          "duration": 0.1907890666666674,
          "durationTicks": 232,
          "midi": 66,
          "name": "F#4",
          "ticks": 221520,
          "time": 182.170664,
          "velocity": 0.5669291338582677
        },
        {
          "duration": 0.1907890666666674,
          "durationTicks": 232,
          "midi": 59,
          "name": "B3",
          "ticks": 221760,
          "time": 182.368032,
          "velocity": 0.5669291338582677
        },
        {
          "duration": 0.1907890666666674,
          "durationTicks": 232,
          "midi": 55,
          "name": "G3",
          "ticks": 222000,
          "time": 182.56539999999998,
          "velocity": 0.5669291338582677
        },
        {
          "duration": 0.1907890666666674,
          "durationTicks": 232,
          "midi": 66,
          "name": "F#4",
          "ticks": 222240,
          "time": 182.762768,
          "velocity": 0.5669291338582677
        },
        {
          "duration": 0.19078906666669582,
          "durationTicks": 232,
          "midi": 59,
          "name": "B3",
          "ticks": 222480,
          "time": 182.96013599999998,
          "velocity": 0.5669291338582677
        },
        {
          "duration": 0.1907890666666674,
          "durationTicks": 232,
          "midi": 55,
          "name": "G3",
          "ticks": 222720,
          "time": 183.157504,
          "velocity": 0.5669291338582677
        },
        {
          "duration": 0.1907890666666674,
          "durationTicks": 232,
          "midi": 66,
          "name": "F#4",
          "ticks": 222960,
          "time": 183.354872,
          "velocity": 0.5669291338582677
        },
        {
          "duration": 0.1907890666666674,
          "durationTicks": 232,
          "midi": 59,
          "name": "B3",
          "ticks": 223200,
          "time": 183.55223999999998,
          "velocity": 0.5669291338582677
        },
        {
          "duration": 0.1907890666666674,
          "durationTicks": 232,
          "midi": 55,
          "name": "G3",
          "ticks": 223440,
          "time": 183.749608,
          "velocity": 0.5669291338582677
        },
        {
          "duration": 0.19078906666669582,
          "durationTicks": 232,
          "midi": 66,
          "name": "F#4",
          "ticks": 223680,
          "time": 183.94697599999998,
          "velocity": 0.5669291338582677
        },
        {
          "duration": 0.1907890666666674,
          "durationTicks": 232,
          "midi": 59,
          "name": "B3",
          "ticks": 223920,
          "time": 184.144344,
          "velocity": 0.5669291338582677
        },
        {
          "duration": 0.3881570666666505,
          "durationTicks": 472,
          "midi": 55,
          "name": "G3",
          "ticks": 224160,
          "time": 184.341712,
          "velocity": 0.5669291338582677
        },
        {
          "duration": 1.3749970666666513,
          "durationTicks": 1672,
          "midi": 64,
          "name": "E4",
          "ticks": 224640,
          "time": 184.736448,
          "velocity": 0.5669291338582677
        },
        {
          "duration": 0.1907890666666674,
          "durationTicks": 232,
          "midi": 67,
          "name": "G4",
          "ticks": 226320,
          "time": 186.118024,
          "velocity": 0.5669291338582677
        },
        {
          "duration": 0.38815706666667893,
          "durationTicks": 472,
          "midi": 64,
          "name": "E4",
          "ticks": 226560,
          "time": 186.31539199999997,
          "velocity": 0.5669291338582677
        },
        {
          "duration": 0.1907890666666674,
          "durationTicks": 232,
          "midi": 67,
          "name": "G4",
          "ticks": 227040,
          "time": 186.710128,
          "velocity": 0.5669291338582677
        },
        {
          "duration": 0.38815706666667893,
          "durationTicks": 472,
          "midi": 64,
          "name": "E4",
          "ticks": 227280,
          "time": 186.90749599999998,
          "velocity": 0.5669291338582677
        },
        {
          "duration": 0.19078906666669582,
          "durationTicks": 232,
          "midi": 66,
          "name": "F#4",
          "ticks": 227760,
          "time": 187.30223199999998,
          "velocity": 0.5669291338582677
        },
        {
          "duration": 0.38815706666667893,
          "durationTicks": 472,
          "midi": 64,
          "name": "E4",
          "ticks": 228000,
          "time": 187.4996,
          "velocity": 0.5669291338582677
        },
        {
          "duration": 0.1907890666666674,
          "durationTicks": 232,
          "midi": 66,
          "name": "F#4",
          "ticks": 228480,
          "time": 187.89433599999998,
          "velocity": 0.5669291338582677
        },
        {
          "duration": 0.38815706666667893,
          "durationTicks": 472,
          "midi": 64,
          "name": "E4",
          "ticks": 228720,
          "time": 188.091704,
          "velocity": 0.5669291338582677
        },
        {
          "duration": 0.1907890666666674,
          "durationTicks": 232,
          "midi": 66,
          "name": "F#4",
          "ticks": 229200,
          "time": 188.48644,
          "velocity": 0.5669291338582677
        },
        {
          "duration": 0.3881570666666505,
          "durationTicks": 472,
          "midi": 64,
          "name": "E4",
          "ticks": 229440,
          "time": 188.683808,
          "velocity": 0.5669291338582677
        },
        {
          "duration": 0.1907890666666674,
          "durationTicks": 232,
          "midi": 66,
          "name": "F#4",
          "ticks": 229920,
          "time": 189.078544,
          "velocity": 0.5669291338582677
        },
        {
          "duration": 0.38815706666667893,
          "durationTicks": 472,
          "midi": 62,
          "name": "D4",
          "ticks": 230160,
          "time": 189.27591199999998,
          "velocity": 0.5669291338582677
        },
        {
          "duration": 0.1907890666666674,
          "durationTicks": 232,
          "midi": 66,
          "name": "F#4",
          "ticks": 230640,
          "time": 189.670648,
          "velocity": 0.5669291338582677
        },
        {
          "duration": 0.38815706666667893,
          "durationTicks": 472,
          "midi": 62,
          "name": "D4",
          "ticks": 230880,
          "time": 189.86801599999998,
          "velocity": 0.5669291338582677
        },
        {
          "duration": 0.19078906666669582,
          "durationTicks": 232,
          "midi": 66,
          "name": "F#4",
          "ticks": 231360,
          "time": 190.26275199999998,
          "velocity": 0.5669291338582677
        },
        {
          "duration": 0.38815706666667893,
          "durationTicks": 472,
          "midi": 62,
          "name": "D4",
          "ticks": 231600,
          "time": 190.46012,
          "velocity": 0.5669291338582677
        },
        {
          "duration": 0.1907890666666674,
          "durationTicks": 232,
          "midi": 66,
          "name": "F#4",
          "ticks": 232080,
          "time": 190.85485599999998,
          "velocity": 0.5669291338582677
        },
        {
          "duration": 0.38815706666667893,
          "durationTicks": 472,
          "midi": 62,
          "name": "D4",
          "ticks": 232320,
          "time": 191.052224,
          "velocity": 0.5669291338582677
        },
        {
          "duration": 0.1907890666666674,
          "durationTicks": 232,
          "midi": 66,
          "name": "F#4",
          "ticks": 232800,
          "time": 191.44696,
          "velocity": 0.5669291338582677
        },
        {
          "duration": 0.3881570666666505,
          "durationTicks": 472,
          "midi": 62,
          "name": "D4",
          "ticks": 233040,
          "time": 191.644328,
          "velocity": 0.5669291338582677
        },
        {
          "duration": 0.1907890666666674,
          "durationTicks": 232,
          "midi": 66,
          "name": "F#4",
          "ticks": 233520,
          "time": 192.039064,
          "velocity": 0.5669291338582677
        },
        {
          "duration": 0.38815706666667893,
          "durationTicks": 472,
          "midi": 62,
          "name": "D4",
          "ticks": 233760,
          "time": 192.23643199999998,
          "velocity": 0.5669291338582677
        },
        {
          "duration": 0.1907890666666674,
          "durationTicks": 232,
          "midi": 66,
          "name": "F#4",
          "ticks": 234240,
          "time": 192.631168,
          "velocity": 0.5669291338582677
        },
        {
          "duration": 0.38815706666667893,
          "durationTicks": 472,
          "midi": 62,
          "name": "D4",
          "ticks": 234480,
          "time": 192.82853599999999,
          "velocity": 0.5669291338582677
        },
        {
          "duration": 0.1907890666666674,
          "durationTicks": 232,
          "midi": 66,
          "name": "F#4",
          "ticks": 234960,
          "time": 193.22327199999998,
          "velocity": 0.5669291338582677
        },
        {
          "duration": 0.38815706666667893,
          "durationTicks": 472,
          "midi": 62,
          "name": "D4",
          "ticks": 235200,
          "time": 193.42064,
          "velocity": 0.5669291338582677
        },
        {
          "duration": 0.1907890666666674,
          "durationTicks": 232,
          "midi": 66,
          "name": "F#4",
          "ticks": 235680,
          "time": 193.815376,
          "velocity": 0.5669291338582677
        },
        {
          "duration": 0.3881570666666505,
          "durationTicks": 472,
          "midi": 62,
          "name": "D4",
          "ticks": 235920,
          "time": 194.012744,
          "velocity": 0.5669291338582677
        },
        {
          "duration": 0.1907890666666674,
          "durationTicks": 232,
          "midi": 66,
          "name": "F#4",
          "ticks": 236400,
          "time": 194.40748,
          "velocity": 0.5669291338582677
        },
        {
          "duration": 0.38815706666667893,
          "durationTicks": 472,
          "midi": 62,
          "name": "D4",
          "ticks": 236640,
          "time": 194.60484799999998,
          "velocity": 0.5669291338582677
        },
        {
          "duration": 0.1907890666666674,
          "durationTicks": 232,
          "midi": 66,
          "name": "F#4",
          "ticks": 237120,
          "time": 194.999584,
          "velocity": 0.5669291338582677
        },
        {
          "duration": 0.38815706666667893,
          "durationTicks": 472,
          "midi": 62,
          "name": "D4",
          "ticks": 237360,
          "time": 195.19695199999998,
          "velocity": 0.5669291338582677
        },
        {
          "duration": 0.19078906666669582,
          "durationTicks": 232,
          "midi": 64,
          "name": "E4",
          "ticks": 237840,
          "time": 195.59168799999998,
          "velocity": 0.5669291338582677
        },
        {
          "duration": 0.38815706666667893,
          "durationTicks": 472,
          "midi": 57,
          "name": "A3",
          "ticks": 238080,
          "time": 195.789056,
          "velocity": 0.5669291338582677
        },
        {
          "duration": 0.1907890666666674,
          "durationTicks": 232,
          "midi": 64,
          "name": "E4",
          "ticks": 238560,
          "time": 196.18379199999998,
          "velocity": 0.5669291338582677
        },
        {
          "duration": 0.38815706666667893,
          "durationTicks": 472,
          "midi": 57,
          "name": "A3",
          "ticks": 238800,
          "time": 196.38116,
          "velocity": 0.5669291338582677
        },
        {
          "duration": 0.1907890666666674,
          "durationTicks": 232,
          "midi": 64,
          "name": "E4",
          "ticks": 239280,
          "time": 196.775896,
          "velocity": 0.5669291338582677
        },
        {
          "duration": 0.3881570666666505,
          "durationTicks": 472,
          "midi": 57,
          "name": "A3",
          "ticks": 239520,
          "time": 196.973264,
          "velocity": 0.5669291338582677
        },
        {
          "duration": 0.1907890666666674,
          "durationTicks": 232,
          "midi": 64,
          "name": "E4",
          "ticks": 240000,
          "time": 197.368,
          "velocity": 0.5669291338582677
        },
        {
          "duration": 0.38815706666667893,
          "durationTicks": 472,
          "midi": 57,
          "name": "A3",
          "ticks": 240240,
          "time": 197.56536799999998,
          "velocity": 0.5669291338582677
        },
        {
          "duration": 0.1907890666666674,
          "durationTicks": 232,
          "midi": 64,
          "name": "E4",
          "ticks": 240720,
          "time": 197.960104,
          "velocity": 0.5669291338582677
        },
        {
          "duration": 0.38815706666667893,
          "durationTicks": 472,
          "midi": 57,
          "name": "A3",
          "ticks": 240960,
          "time": 198.15747199999998,
          "velocity": 0.5669291338582677
        },
        {
          "duration": 0.1907890666666674,
          "durationTicks": 232,
          "midi": 67,
          "name": "G4",
          "ticks": 241440,
          "time": 198.55220799999998,
          "velocity": 0.5669291338582677
        },
        {
          "duration": 0.38815706666667893,
          "durationTicks": 472,
          "midi": 64,
          "name": "E4",
          "ticks": 241680,
          "time": 198.749576,
          "velocity": 0.5669291338582677
        },
        {
          "duration": 0.1907890666666674,
          "durationTicks": 232,
          "midi": 67,
          "name": "G4",
          "ticks": 242160,
          "time": 199.14431199999999,
          "velocity": 0.5669291338582677
        },
        {
          "duration": 0.3881570666666505,
          "durationTicks": 472,
          "midi": 64,
          "name": "E4",
          "ticks": 242400,
          "time": 199.34168,
          "velocity": 0.5669291338582677
        },
        {
          "duration": 0.1907890666666674,
          "durationTicks": 232,
          "midi": 67,
          "name": "G4",
          "ticks": 242880,
          "time": 199.736416,
          "velocity": 0.5669291338582677
        },
        {
          "duration": 0.38815706666667893,
          "durationTicks": 472,
          "midi": 64,
          "name": "E4",
          "ticks": 243120,
          "time": 199.93378399999997,
          "velocity": 0.5669291338582677
        },
        {
          "duration": 0.1907890666666674,
          "durationTicks": 232,
          "midi": 67,
          "name": "G4",
          "ticks": 243600,
          "time": 200.32852,
          "velocity": 0.5669291338582677
        },
        {
          "duration": 0.38815706666667893,
          "durationTicks": 472,
          "midi": 64,
          "name": "E4",
          "ticks": 243840,
          "time": 200.52588799999998,
          "velocity": 0.5669291338582677
        },
        {
          "duration": 0.19078906666669582,
          "durationTicks": 232,
          "midi": 67,
          "name": "G4",
          "ticks": 244320,
          "time": 200.92062399999998,
          "velocity": 0.5669291338582677
        },
        {
          "duration": 0.38815706666667893,
          "durationTicks": 472,
          "midi": 64,
          "name": "E4",
          "ticks": 244560,
          "time": 201.117992,
          "velocity": 0.5669291338582677
        },
        {
          "duration": 0.1907890666666674,
          "durationTicks": 232,
          "midi": 67,
          "name": "G4",
          "ticks": 245040,
          "time": 201.51272799999998,
          "velocity": 0.5669291338582677
        },
        {
          "duration": 0.38815706666667893,
          "durationTicks": 472,
          "midi": 64,
          "name": "E4",
          "ticks": 245280,
          "time": 201.710096,
          "velocity": 0.5669291338582677
        },
        {
          "duration": 0.1907890666666674,
          "durationTicks": 232,
          "midi": 67,
          "name": "G4",
          "ticks": 245760,
          "time": 202.104832,
          "velocity": 0.5669291338582677
        },
        {
          "duration": 0.3881570666666505,
          "durationTicks": 472,
          "midi": 64,
          "name": "E4",
          "ticks": 246000,
          "time": 202.3022,
          "velocity": 0.5669291338582677
        },
        {
          "duration": 0.1907890666666674,
          "durationTicks": 232,
          "midi": 67,
          "name": "G4",
          "ticks": 246480,
          "time": 202.696936,
          "velocity": 0.5669291338582677
        },
        {
          "duration": 0.38815706666667893,
          "durationTicks": 472,
          "midi": 64,
          "name": "E4",
          "ticks": 246720,
          "time": 202.89430399999998,
          "velocity": 0.5669291338582677
        },
        {
          "duration": 0.1907890666666674,
          "durationTicks": 232,
          "midi": 67,
          "name": "G4",
          "ticks": 247200,
          "time": 203.28904,
          "velocity": 0.5669291338582677
        },
        {
          "duration": 0.38815706666667893,
          "durationTicks": 472,
          "midi": 62,
          "name": "D4",
          "ticks": 247440,
          "time": 203.48640799999998,
          "velocity": 0.5669291338582677
        },
        {
          "duration": 0.19078906666669582,
          "durationTicks": 232,
          "midi": 66,
          "name": "F#4",
          "ticks": 247920,
          "time": 203.88114399999998,
          "velocity": 0.5669291338582677
        },
        {
          "duration": 0.38815706666667893,
          "durationTicks": 472,
          "midi": 62,
          "name": "D4",
          "ticks": 248160,
          "time": 204.078512,
          "velocity": 0.5669291338582677
        },
        {
          "duration": 0.1907890666666674,
          "durationTicks": 232,
          "midi": 66,
          "name": "F#4",
          "ticks": 248640,
          "time": 204.47324799999998,
          "velocity": 0.5669291338582677
        },
        {
          "duration": 0.3881570666666505,
          "durationTicks": 472,
          "midi": 62,
          "name": "D4",
          "ticks": 248880,
          "time": 204.670616,
          "velocity": 0.5669291338582677
        },
        {
          "duration": 0.1907890666666674,
          "durationTicks": 232,
          "midi": 66,
          "name": "F#4",
          "ticks": 249360,
          "time": 205.065352,
          "velocity": 0.5669291338582677
        },
        {
          "duration": 0.3881570666666505,
          "durationTicks": 472,
          "midi": 62,
          "name": "D4",
          "ticks": 249600,
          "time": 205.26272,
          "velocity": 0.5669291338582677
        },
        {
          "duration": 0.1907890666666674,
          "durationTicks": 232,
          "midi": 66,
          "name": "F#4",
          "ticks": 250080,
          "time": 205.657456,
          "velocity": 0.5669291338582677
        },
        {
          "duration": 0.38815706666667893,
          "durationTicks": 472,
          "midi": 62,
          "name": "D4",
          "ticks": 250320,
          "time": 205.85482399999998,
          "velocity": 0.5669291338582677
        },
        {
          "duration": 0.19078906666669582,
          "durationTicks": 232,
          "midi": 66,
          "name": "F#4",
          "ticks": 250800,
          "time": 206.24955999999997,
          "velocity": 0.5669291338582677
        },
        {
          "duration": 0.38815706666667893,
          "durationTicks": 472,
          "midi": 62,
          "name": "D4",
          "ticks": 251040,
          "time": 206.44692799999999,
          "velocity": 0.5669291338582677
        },
        {
          "duration": 0.1907890666666674,
          "durationTicks": 232,
          "midi": 66,
          "name": "F#4",
          "ticks": 251520,
          "time": 206.84166399999998,
          "velocity": 0.5669291338582677
        },
        {
          "duration": 0.38815706666667893,
          "durationTicks": 472,
          "midi": 62,
          "name": "D4",
          "ticks": 251760,
          "time": 207.039032,
          "velocity": 0.5669291338582677
        },
        {
          "duration": 0.1907890666666674,
          "durationTicks": 232,
          "midi": 66,
          "name": "F#4",
          "ticks": 252240,
          "time": 207.433768,
          "velocity": 0.5669291338582677
        },
        {
          "duration": 0.3881570666666505,
          "durationTicks": 472,
          "midi": 62,
          "name": "D4",
          "ticks": 252480,
          "time": 207.631136,
          "velocity": 0.5669291338582677
        },
        {
          "duration": 0.1907890666666674,
          "durationTicks": 232,
          "midi": 66,
          "name": "F#4",
          "ticks": 252960,
          "time": 208.025872,
          "velocity": 0.5669291338582677
        },
        {
          "duration": 0.38815706666667893,
          "durationTicks": 472,
          "midi": 62,
          "name": "D4",
          "ticks": 253200,
          "time": 208.22323999999998,
          "velocity": 0.5669291338582677
        },
        {
          "duration": 0.1907890666666674,
          "durationTicks": 232,
          "midi": 66,
          "name": "F#4",
          "ticks": 253680,
          "time": 208.617976,
          "velocity": 0.5669291338582677
        },
        {
          "duration": 0.38815706666667893,
          "durationTicks": 472,
          "midi": 61,
          "name": "C#4",
          "ticks": 253920,
          "time": 208.81534399999998,
          "velocity": 0.5669291338582677
        },
        {
          "duration": 0.19078906666669582,
          "durationTicks": 232,
          "midi": 66,
          "name": "F#4",
          "ticks": 254400,
          "time": 209.21007999999998,
          "velocity": 0.5669291338582677
        },
        {
          "duration": 0.38815706666667893,
          "durationTicks": 472,
          "midi": 61,
          "name": "C#4",
          "ticks": 254640,
          "time": 209.407448,
          "velocity": 0.5669291338582677
        },
        {
          "duration": 0.1907890666666674,
          "durationTicks": 232,
          "midi": 66,
          "name": "F#4",
          "ticks": 255120,
          "time": 209.80218399999998,
          "velocity": 0.5669291338582677
        },
        {
          "duration": 0.38815706666667893,
          "durationTicks": 472,
          "midi": 61,
          "name": "C#4",
          "ticks": 255360,
          "time": 209.999552,
          "velocity": 0.5669291338582677
        },
        {
          "duration": 0.1907890666666674,
          "durationTicks": 232,
          "midi": 66,
          "name": "F#4",
          "ticks": 255840,
          "time": 210.394288,
          "velocity": 0.5669291338582677
        },
        {
          "duration": 0.3881570666666505,
          "durationTicks": 472,
          "midi": 61,
          "name": "C#4",
          "ticks": 256080,
          "time": 210.591656,
          "velocity": 0.5669291338582677
        },
        {
          "duration": 0.1907890666666674,
          "durationTicks": 232,
          "midi": 66,
          "name": "F#4",
          "ticks": 256560,
          "time": 210.986392,
          "velocity": 0.5669291338582677
        },
        {
          "duration": 0.38815706666667893,
          "durationTicks": 472,
          "midi": 61,
          "name": "C#4",
          "ticks": 256800,
          "time": 211.18375999999998,
          "velocity": 0.5669291338582677
        },
        {
          "duration": 0.19078906666669582,
          "durationTicks": 232,
          "midi": 66,
          "name": "F#4",
          "ticks": 257280,
          "time": 211.57849599999997,
          "velocity": 0.5669291338582677
        },
        {
          "duration": 0.38815706666667893,
          "durationTicks": 472,
          "midi": 61,
          "name": "C#4",
          "ticks": 257520,
          "time": 211.77586399999998,
          "velocity": 0.5669291338582677
        },
        {
          "duration": 0.1907890666666674,
          "durationTicks": 232,
          "midi": 66,
          "name": "F#4",
          "ticks": 258000,
          "time": 212.17059999999998,
          "velocity": 0.5669291338582677
        },
        {
          "duration": 0.38815706666667893,
          "durationTicks": 472,
          "midi": 61,
          "name": "C#4",
          "ticks": 258240,
          "time": 212.367968,
          "velocity": 0.5669291338582677
        },
        {
          "duration": 0.1907890666666674,
          "durationTicks": 232,
          "midi": 66,
          "name": "F#4",
          "ticks": 258720,
          "time": 212.76270399999999,
          "velocity": 0.5669291338582677
        },
        {
          "duration": 0.3881570666666505,
          "durationTicks": 472,
          "midi": 61,
          "name": "C#4",
          "ticks": 258960,
          "time": 212.960072,
          "velocity": 0.5669291338582677
        },
        {
          "duration": 0.1907890666666674,
          "durationTicks": 232,
          "midi": 66,
          "name": "F#4",
          "ticks": 259440,
          "time": 213.354808,
          "velocity": 0.5669291338582677
        },
        {
          "duration": 0.38815706666667893,
          "durationTicks": 472,
          "midi": 61,
          "name": "C#4",
          "ticks": 259680,
          "time": 213.55217599999997,
          "velocity": 0.5669291338582677
        },
        {
          "duration": 0.1907890666666674,
          "durationTicks": 232,
          "midi": 66,
          "name": "F#4",
          "ticks": 260160,
          "time": 213.946912,
          "velocity": 0.5669291338582677
        },
        {
          "duration": 0.38815706666667893,
          "durationTicks": 472,
          "midi": 61,
          "name": "C#4",
          "ticks": 260400,
          "time": 214.14427999999998,
          "velocity": 0.5669291338582677
        },
        {
          "duration": 0.19078906666669582,
          "durationTicks": 232,
          "midi": 66,
          "name": "F#4",
          "ticks": 260880,
          "time": 214.53901599999998,
          "velocity": 0.5669291338582677
        },
        {
          "duration": 0.38815706666667893,
          "durationTicks": 472,
          "midi": 62,
          "name": "D4",
          "ticks": 261120,
          "time": 214.736384,
          "velocity": 0.5669291338582677
        },
        {
          "duration": 0.1907890666666674,
          "durationTicks": 232,
          "midi": 66,
          "name": "F#4",
          "ticks": 261600,
          "time": 215.13111999999998,
          "velocity": 0.5669291338582677
        },
        {
          "duration": 0.38815706666667893,
          "durationTicks": 472,
          "midi": 62,
          "name": "D4",
          "ticks": 261840,
          "time": 215.328488,
          "velocity": 0.5669291338582677
        },
        {
          "duration": 0.1907890666666674,
          "durationTicks": 232,
          "midi": 66,
          "name": "F#4",
          "ticks": 262320,
          "time": 215.723224,
          "velocity": 0.5669291338582677
        },
        {
          "duration": 0.3881570666666505,
          "durationTicks": 472,
          "midi": 62,
          "name": "D4",
          "ticks": 262560,
          "time": 215.920592,
          "velocity": 0.5669291338582677
        },
        {
          "duration": 0.1907890666666674,
          "durationTicks": 232,
          "midi": 66,
          "name": "F#4",
          "ticks": 263040,
          "time": 216.315328,
          "velocity": 0.5669291338582677
        },
        {
          "duration": 0.38815706666667893,
          "durationTicks": 472,
          "midi": 62,
          "name": "D4",
          "ticks": 263280,
          "time": 216.51269599999998,
          "velocity": 0.5669291338582677
        },
        {
          "duration": 0.1907890666666674,
          "durationTicks": 232,
          "midi": 66,
          "name": "F#4",
          "ticks": 263760,
          "time": 216.907432,
          "velocity": 0.5669291338582677
        },
        {
          "duration": 0.38815706666667893,
          "durationTicks": 472,
          "midi": 62,
          "name": "D4",
          "ticks": 264000,
          "time": 217.10479999999998,
          "velocity": 0.5669291338582677
        },
        {
          "duration": 0.1907890666666674,
          "durationTicks": 232,
          "midi": 66,
          "name": "F#4",
          "ticks": 264480,
          "time": 217.49953599999998,
          "velocity": 0.5669291338582677
        },
        {
          "duration": 0.38815706666667893,
          "durationTicks": 472,
          "midi": 62,
          "name": "D4",
          "ticks": 264720,
          "time": 217.696904,
          "velocity": 0.5669291338582677
        },
        {
          "duration": 0.1907890666666674,
          "durationTicks": 232,
          "midi": 66,
          "name": "F#4",
          "ticks": 265200,
          "time": 218.09163999999998,
          "velocity": 0.5669291338582677
        },
        {
          "duration": 0.3881570666666505,
          "durationTicks": 472,
          "midi": 62,
          "name": "D4",
          "ticks": 265440,
          "time": 218.289008,
          "velocity": 0.5669291338582677
        },
        {
          "duration": 0.1907890666666674,
          "durationTicks": 232,
          "midi": 66,
          "name": "F#4",
          "ticks": 265920,
          "time": 218.683744,
          "velocity": 0.5669291338582677
        },
        {
          "duration": 0.38815706666667893,
          "durationTicks": 472,
          "midi": 62,
          "name": "D4",
          "ticks": 266160,
          "time": 218.88111199999997,
          "velocity": 0.5669291338582677
        },
        {
          "duration": 0.1907890666666674,
          "durationTicks": 232,
          "midi": 66,
          "name": "F#4",
          "ticks": 266640,
          "time": 219.275848,
          "velocity": 0.5669291338582677
        },
        {
          "duration": 0.38815706666667893,
          "durationTicks": 472,
          "midi": 62,
          "name": "D4",
          "ticks": 266880,
          "time": 219.47321599999998,
          "velocity": 0.5669291338582677
        },
        {
          "duration": 0.19078906666669582,
          "durationTicks": 232,
          "midi": 66,
          "name": "F#4",
          "ticks": 267360,
          "time": 219.86795199999997,
          "velocity": 0.5669291338582677
        },
        {
          "duration": 0.38815706666667893,
          "durationTicks": 472,
          "midi": 62,
          "name": "D4",
          "ticks": 267600,
          "time": 220.06531999999999,
          "velocity": 0.5669291338582677
        },
        {
          "duration": 0.1907890666666674,
          "durationTicks": 232,
          "midi": 66,
          "name": "F#4",
          "ticks": 268080,
          "time": 220.46005599999998,
          "velocity": 0.5669291338582677
        },
        {
          "duration": 16.177597066666664,
          "durationTicks": 19672,
          "midi": 62,
          "name": "D4",
          "ticks": 268320,
          "time": 220.657424,
          "velocity": 0.5669291338582677
        },
        {
          "duration": 0.38815706666667893,
          "durationTicks": 472,
          "midi": 62,
          "name": "D4",
          "ticks": 288000,
          "time": 236.84159999999997,
          "velocity": 0.5669291338582677
        },
        {
          "duration": 0.1907890666666674,
          "durationTicks": 232,
          "midi": 66,
          "name": "F#4",
          "ticks": 288480,
          "time": 237.236336,
          "velocity": 0.5669291338582677
        },
        {
          "duration": 0.38815706666667893,
          "durationTicks": 472,
          "midi": 62,
          "name": "D4",
          "ticks": 288720,
          "time": 237.43370399999998,
          "velocity": 0.5669291338582677
        },
        {
          "duration": 0.19078906666669582,
          "durationTicks": 232,
          "midi": 66,
          "name": "F#4",
          "ticks": 289200,
          "time": 237.82843999999997,
          "velocity": 0.5669291338582677
        },
        {
          "duration": 0.38815706666667893,
          "durationTicks": 472,
          "midi": 62,
          "name": "D4",
          "ticks": 289440,
          "time": 238.02580799999998,
          "velocity": 0.5669291338582677
        },
        {
          "duration": 0.1907890666666674,
          "durationTicks": 232,
          "midi": 66,
          "name": "F#4",
          "ticks": 289920,
          "time": 238.42054399999998,
          "velocity": 0.5669291338582677
        },
        {
          "duration": 0.38815706666667893,
          "durationTicks": 472,
          "midi": 62,
          "name": "D4",
          "ticks": 290160,
          "time": 238.617912,
          "velocity": 0.5669291338582677
        },
        {
          "duration": 0.1907890666666674,
          "durationTicks": 232,
          "midi": 66,
          "name": "F#4",
          "ticks": 290640,
          "time": 239.01264799999998,
          "velocity": 0.5669291338582677
        },
        {
          "duration": 0.3881570666666505,
          "durationTicks": 472,
          "midi": 62,
          "name": "D4",
          "ticks": 290880,
          "time": 239.210016,
          "velocity": 0.5669291338582677
        },
        {
          "duration": 0.1907890666666674,
          "durationTicks": 232,
          "midi": 66,
          "name": "F#4",
          "ticks": 291360,
          "time": 239.604752,
          "velocity": 0.5669291338582677
        },
        {
          "duration": 0.38815706666667893,
          "durationTicks": 472,
          "midi": 62,
          "name": "D4",
          "ticks": 291600,
          "time": 239.80211999999997,
          "velocity": 0.5669291338582677
        },
        {
          "duration": 0.1907890666666674,
          "durationTicks": 232,
          "midi": 66,
          "name": "F#4",
          "ticks": 292080,
          "time": 240.196856,
          "velocity": 0.5669291338582677
        },
        {
          "duration": 0.38815706666667893,
          "durationTicks": 472,
          "midi": 62,
          "name": "D4",
          "ticks": 292320,
          "time": 240.39422399999998,
          "velocity": 0.5669291338582677
        },
        {
          "duration": 0.19078906666669582,
          "durationTicks": 232,
          "midi": 66,
          "name": "F#4",
          "ticks": 292800,
          "time": 240.78895999999997,
          "velocity": 0.5669291338582677
        },
        {
          "duration": 0.38815706666667893,
          "durationTicks": 472,
          "midi": 62,
          "name": "D4",
          "ticks": 293040,
          "time": 240.986328,
          "velocity": 0.5669291338582677
        },
        {
          "duration": 0.1907890666666674,
          "durationTicks": 232,
          "midi": 66,
          "name": "F#4",
          "ticks": 293520,
          "time": 241.38106399999998,
          "velocity": 0.5669291338582677
        },
        {
          "duration": 0.38815706666667893,
          "durationTicks": 472,
          "midi": 62,
          "name": "D4",
          "ticks": 293760,
          "time": 241.578432,
          "velocity": 0.5669291338582677
        },
        {
          "duration": 0.1907890666666674,
          "durationTicks": 232,
          "midi": 66,
          "name": "F#4",
          "ticks": 294240,
          "time": 241.973168,
          "velocity": 0.5669291338582677
        },
        {
          "duration": 0.3881570666666505,
          "durationTicks": 472,
          "midi": 62,
          "name": "D4",
          "ticks": 294480,
          "time": 242.170536,
          "velocity": 0.5669291338582677
        },
        {
          "duration": 0.1907890666666674,
          "durationTicks": 232,
          "midi": 66,
          "name": "F#4",
          "ticks": 294960,
          "time": 242.565272,
          "velocity": 0.5669291338582677
        },
        {
          "duration": 0.38815706666667893,
          "durationTicks": 472,
          "midi": 62,
          "name": "D4",
          "ticks": 295200,
          "time": 242.76263999999998,
          "velocity": 0.5669291338582677
        },
        {
          "duration": 0.1907890666666674,
          "durationTicks": 232,
          "midi": 66,
          "name": "F#4",
          "ticks": 295680,
          "time": 243.157376,
          "velocity": 0.5669291338582677
        },
        {
          "duration": 0.38815706666667893,
          "durationTicks": 472,
          "midi": 64,
          "name": "E4",
          "ticks": 295920,
          "time": 243.35474399999998,
          "velocity": 0.5669291338582677
        },
        {
          "duration": 0.1907890666666674,
          "durationTicks": 232,
          "midi": 66,
          "name": "F#4",
          "ticks": 296400,
          "time": 243.74947999999998,
          "velocity": 0.5669291338582677
        },
        {
          "duration": 0.38815706666667893,
          "durationTicks": 472,
          "midi": 64,
          "name": "E4",
          "ticks": 296640,
          "time": 243.946848,
          "velocity": 0.5669291338582677
        },
        {
          "duration": 0.1907890666666674,
          "durationTicks": 232,
          "midi": 66,
          "name": "F#4",
          "ticks": 297120,
          "time": 244.34158399999998,
          "velocity": 0.5669291338582677
        },
        {
          "duration": 0.3881570666666505,
          "durationTicks": 472,
          "midi": 64,
          "name": "E4",
          "ticks": 297360,
          "time": 244.538952,
          "velocity": 0.5669291338582677
        },
        {
          "duration": 0.1907890666666674,
          "durationTicks": 232,
          "midi": 66,
          "name": "F#4",
          "ticks": 297840,
          "time": 244.933688,
          "velocity": 0.5669291338582677
        },
        {
          "duration": 0.38815706666667893,
          "durationTicks": 472,
          "midi": 64,
          "name": "E4",
          "ticks": 298080,
          "time": 245.13105599999997,
          "velocity": 0.5669291338582677
        },
        {
          "duration": 0.1907890666666674,
          "durationTicks": 232,
          "midi": 66,
          "name": "F#4",
          "ticks": 298560,
          "time": 245.525792,
          "velocity": 0.5669291338582677
        },
        {
          "duration": 0.38815706666667893,
          "durationTicks": 472,
          "midi": 64,
          "name": "E4",
          "ticks": 298800,
          "time": 245.72315999999998,
          "velocity": 0.5669291338582677
        },
        {
          "duration": 0.19078906666669582,
          "durationTicks": 232,
          "midi": 66,
          "name": "F#4",
          "ticks": 299280,
          "time": 246.11789599999997,
          "velocity": 0.5669291338582677
        },
        {
          "duration": 0.38815706666667893,
          "durationTicks": 472,
          "midi": 62,
          "name": "D4",
          "ticks": 299520,
          "time": 246.31526399999998,
          "velocity": 0.5669291338582677
        },
        {
          "duration": 0.1907890666666674,
          "durationTicks": 232,
          "midi": 66,
          "name": "F#4",
          "ticks": 300000,
          "time": 246.70999999999998,
          "velocity": 0.5669291338582677
        },
        {
          "duration": 0.38815706666667893,
          "durationTicks": 472,
          "midi": 62,
          "name": "D4",
          "ticks": 300240,
          "time": 246.907368,
          "velocity": 0.5669291338582677
        },
        {
          "duration": 0.1907890666666674,
          "durationTicks": 232,
          "midi": 66,
          "name": "F#4",
          "ticks": 300720,
          "time": 247.30210399999999,
          "velocity": 0.5669291338582677
        },
        {
          "duration": 0.3881570666666505,
          "durationTicks": 472,
          "midi": 62,
          "name": "D4",
          "ticks": 300960,
          "time": 247.499472,
          "velocity": 0.5669291338582677
        },
        {
          "duration": 0.1907890666666674,
          "durationTicks": 232,
          "midi": 66,
          "name": "F#4",
          "ticks": 301440,
          "time": 247.894208,
          "velocity": 0.5669291338582677
        },
        {
          "duration": 0.38815706666667893,
          "durationTicks": 472,
          "midi": 62,
          "name": "D4",
          "ticks": 301680,
          "time": 248.09157599999998,
          "velocity": 0.5669291338582677
        },
        {
          "duration": 0.1907890666666674,
          "durationTicks": 232,
          "midi": 66,
          "name": "F#4",
          "ticks": 302160,
          "time": 248.486312,
          "velocity": 0.5669291338582677
        },
        {
          "duration": 0.38815706666667893,
          "durationTicks": 472,
          "midi": 62,
          "name": "D4",
          "ticks": 302400,
          "time": 248.68367999999998,
          "velocity": 0.5669291338582677
        },
        {
          "duration": 0.1907890666666674,
          "durationTicks": 232,
          "midi": 66,
          "name": "F#4",
          "ticks": 302880,
          "time": 249.07841599999998,
          "velocity": 0.5669291338582677
        },
        {
          "duration": 0.38815706666667893,
          "durationTicks": 472,
          "midi": 61,
          "name": "C#4",
          "ticks": 303120,
          "time": 249.275784,
          "velocity": 0.5669291338582677
        },
        {
          "duration": 0.1907890666666674,
          "durationTicks": 232,
          "midi": 66,
          "name": "F#4",
          "ticks": 303600,
          "time": 249.67051999999998,
          "velocity": 0.5669291338582677
        },
        {
          "duration": 0.3881570666666505,
          "durationTicks": 472,
          "midi": 61,
          "name": "C#4",
          "ticks": 303840,
          "time": 249.867888,
          "velocity": 0.5669291338582677
        },
        {
          "duration": 0.1907890666666674,
          "durationTicks": 232,
          "midi": 66,
          "name": "F#4",
          "ticks": 304320,
          "time": 250.262624,
          "velocity": 0.5669291338582677
        },
        {
          "duration": 0.38815706666667893,
          "durationTicks": 472,
          "midi": 61,
          "name": "C#4",
          "ticks": 304560,
          "time": 250.45999199999997,
          "velocity": 0.5669291338582677
        },
        {
          "duration": 0.1907890666666674,
          "durationTicks": 232,
          "midi": 66,
          "name": "F#4",
          "ticks": 305040,
          "time": 250.854728,
          "velocity": 0.5669291338582677
        },
        {
          "duration": 0.38815706666667893,
          "durationTicks": 472,
          "midi": 61,
          "name": "C#4",
          "ticks": 305280,
          "time": 251.05209599999998,
          "velocity": 0.5669291338582677
        },
        {
          "duration": 0.19078906666669582,
          "durationTicks": 232,
          "midi": 66,
          "name": "F#4",
          "ticks": 305760,
          "time": 251.44683199999997,
          "velocity": 0.5669291338582677
        },
        {
          "duration": 0.38815706666667893,
          "durationTicks": 472,
          "midi": 61,
          "name": "C#4",
          "ticks": 306000,
          "time": 251.64419999999998,
          "velocity": 0.5669291338582677
        },
        {
          "duration": 0.1907890666666674,
          "durationTicks": 232,
          "midi": 66,
          "name": "F#4",
          "ticks": 306480,
          "time": 252.03893599999998,
          "velocity": 0.5669291338582677
        },
        {
          "duration": 1.1776290666666682,
          "durationTicks": 1432,
          "midi": 61,
          "name": "C#4",
          "ticks": 306720,
          "time": 252.236304,
          "velocity": 0.5669291338582677
        },
        {
          "duration": 0.19078906666669582,
          "durationTicks": 232,
          "midi": 66,
          "name": "F#4",
          "ticks": 308160,
          "time": 253.42051199999997,
          "velocity": 0.5669291338582677
        },
        {
          "duration": 0.38815706666667893,
          "durationTicks": 472,
          "midi": 59,
          "name": "B3",
          "ticks": 308400,
          "time": 253.61787999999999,
          "velocity": 0.5669291338582677
        },
        {
          "duration": 0.1907890666666674,
          "durationTicks": 232,
          "midi": 66,
          "name": "F#4",
          "ticks": 308880,
          "time": 254.01261599999998,
          "velocity": 0.5669291338582677
        },
        {
          "duration": 0.38815706666667893,
          "durationTicks": 472,
          "midi": 59,
          "name": "B3",
          "ticks": 309120,
          "time": 254.209984,
          "velocity": 0.5669291338582677
        },
        {
          "duration": 0.1907890666666674,
          "durationTicks": 232,
          "midi": 66,
          "name": "F#4",
          "ticks": 309600,
          "time": 254.60472,
          "velocity": 0.5669291338582677
        },
        {
          "duration": 0.3881570666666505,
          "durationTicks": 472,
          "midi": 59,
          "name": "B3",
          "ticks": 309840,
          "time": 254.802088,
          "velocity": 0.5669291338582677
        },
        {
          "duration": 0.1907890666666674,
          "durationTicks": 232,
          "midi": 66,
          "name": "F#4",
          "ticks": 310320,
          "time": 255.196824,
          "velocity": 0.5669291338582677
        },
        {
          "duration": 0.38815706666667893,
          "durationTicks": 472,
          "midi": 59,
          "name": "B3",
          "ticks": 310560,
          "time": 255.39419199999998,
          "velocity": 0.5669291338582677
        },
        {
          "duration": 0.1907890666666674,
          "durationTicks": 232,
          "midi": 66,
          "name": "F#4",
          "ticks": 311040,
          "time": 255.788928,
          "velocity": 0.5669291338582677
        },
        {
          "duration": 0.38815706666667893,
          "durationTicks": 472,
          "midi": 59,
          "name": "B3",
          "ticks": 311280,
          "time": 255.98629599999998,
          "velocity": 0.5669291338582677
        },
        {
          "duration": 0.19078906666663897,
          "durationTicks": 232,
          "midi": 66,
          "name": "F#4",
          "ticks": 311760,
          "time": 256.381032,
          "velocity": 0.5669291338582677
        },
        {
          "duration": 0.38815706666667893,
          "durationTicks": 472,
          "midi": 59,
          "name": "B3",
          "ticks": 312000,
          "time": 256.5784,
          "velocity": 0.5669291338582677
        },
        {
          "duration": 0.19078906666663897,
          "durationTicks": 232,
          "midi": 66,
          "name": "F#4",
          "ticks": 312480,
          "time": 256.973136,
          "velocity": 0.5669291338582677
        },
        {
          "duration": 0.38815706666667893,
          "durationTicks": 472,
          "midi": 59,
          "name": "B3",
          "ticks": 312720,
          "time": 257.170504,
          "velocity": 0.5669291338582677
        },
        {
          "duration": 0.19078906666669582,
          "durationTicks": 232,
          "midi": 66,
          "name": "F#4",
          "ticks": 313200,
          "time": 257.56523999999996,
          "velocity": 0.5669291338582677
        },
        {
          "duration": 0.38815706666667893,
          "durationTicks": 472,
          "midi": 59,
          "name": "B3",
          "ticks": 313440,
          "time": 257.762608,
          "velocity": 0.5669291338582677
        },
        {
          "duration": 0.19078906666669582,
          "durationTicks": 232,
          "midi": 66,
          "name": "F#4",
          "ticks": 313920,
          "time": 258.15734399999997,
          "velocity": 0.5669291338582677
        },
        {
          "duration": 0.3881570666666221,
          "durationTicks": 472,
          "midi": 59,
          "name": "B3",
          "ticks": 314160,
          "time": 258.354712,
          "velocity": 0.5669291338582677
        },
        {
          "duration": 0.19078906666669582,
          "durationTicks": 232,
          "midi": 66,
          "name": "F#4",
          "ticks": 314640,
          "time": 258.749448,
          "velocity": 0.5669291338582677
        },
        {
          "duration": 0.3881570666666221,
          "durationTicks": 472,
          "midi": 62,
          "name": "D4",
          "ticks": 314880,
          "time": 258.946816,
          "velocity": 0.5669291338582677
        },
        {
          "duration": 0.19078906666669582,
          "durationTicks": 232,
          "midi": 66,
          "name": "F#4",
          "ticks": 315360,
          "time": 259.341552,
          "velocity": 0.5669291338582677
        },
        {
          "duration": 0.38815706666667893,
          "durationTicks": 472,
          "midi": 62,
          "name": "D4",
          "ticks": 315600,
          "time": 259.53891999999996,
          "velocity": 0.5669291338582677
        },
        {
          "duration": 0.19078906666669582,
          "durationTicks": 232,
          "midi": 66,
          "name": "F#4",
          "ticks": 316080,
          "time": 259.933656,
          "velocity": 0.5669291338582677
        },
        {
          "duration": 0.38815706666667893,
          "durationTicks": 472,
          "midi": 62,
          "name": "D4",
          "ticks": 316320,
          "time": 260.13102399999997,
          "velocity": 0.5669291338582677
        },
        {
          "duration": 0.19078906666663897,
          "durationTicks": 232,
          "midi": 66,
          "name": "F#4",
          "ticks": 316800,
          "time": 260.52576,
          "velocity": 0.5669291338582677
        },
        {
          "duration": 0.38815706666667893,
          "durationTicks": 472,
          "midi": 62,
          "name": "D4",
          "ticks": 317040,
          "time": 260.723128,
          "velocity": 0.5669291338582677
        },
        {
          "duration": 0.19078906666663897,
          "durationTicks": 232,
          "midi": 66,
          "name": "F#4",
          "ticks": 317520,
          "time": 261.117864,
          "velocity": 0.5669291338582677
        },
        {
          "duration": 0.38815706666667893,
          "durationTicks": 472,
          "midi": 62,
          "name": "D4",
          "ticks": 317760,
          "time": 261.315232,
          "velocity": 0.5669291338582677
        },
        {
          "duration": 0.19078906666663897,
          "durationTicks": 232,
          "midi": 66,
          "name": "F#4",
          "ticks": 318240,
          "time": 261.709968,
          "velocity": 0.5669291338582677
        },
        {
          "duration": 0.38815706666667893,
          "durationTicks": 472,
          "midi": 62,
          "name": "D4",
          "ticks": 318480,
          "time": 261.907336,
          "velocity": 0.5669291338582677
        },
        {
          "duration": 0.19078906666663897,
          "durationTicks": 232,
          "midi": 66,
          "name": "F#4",
          "ticks": 318960,
          "time": 262.302072,
          "velocity": 0.5669291338582677
        },
        {
          "duration": 0.38815706666667893,
          "durationTicks": 472,
          "midi": 62,
          "name": "D4",
          "ticks": 319200,
          "time": 262.49944,
          "velocity": 0.5669291338582677
        },
        {
          "duration": 0.19078906666669582,
          "durationTicks": 232,
          "midi": 66,
          "name": "F#4",
          "ticks": 319680,
          "time": 262.89417599999996,
          "velocity": 0.5669291338582677
        },
        {
          "duration": 0.38815706666667893,
          "durationTicks": 472,
          "midi": 62,
          "name": "D4",
          "ticks": 319920,
          "time": 263.091544,
          "velocity": 0.5669291338582677
        },
        {
          "duration": 0.19078906666669582,
          "durationTicks": 232,
          "midi": 66,
          "name": "F#4",
          "ticks": 320400,
          "time": 263.48627999999997,
          "velocity": 0.5669291338582677
        },
        {
          "duration": 0.38815706666667893,
          "durationTicks": 472,
          "midi": 62,
          "name": "D4",
          "ticks": 320640,
          "time": 263.683648,
          "velocity": 0.5669291338582677
        },
        {
          "duration": 0.19078906666669582,
          "durationTicks": 232,
          "midi": 66,
          "name": "F#4",
          "ticks": 321120,
          "time": 264.07838399999997,
          "velocity": 0.5669291338582677
        },
        {
          "duration": 0.3881570666666221,
          "durationTicks": 472,
          "midi": 62,
          "name": "D4",
          "ticks": 321360,
          "time": 264.275752,
          "velocity": 0.5669291338582677
        },
        {
          "duration": 0.19078906666669582,
          "durationTicks": 232,
          "midi": 66,
          "name": "F#4",
          "ticks": 321840,
          "time": 264.670488,
          "velocity": 0.5669291338582677
        },
        {
          "duration": 0.38815706666667893,
          "durationTicks": 472,
          "midi": 62,
          "name": "D4",
          "ticks": 322080,
          "time": 264.86785599999996,
          "velocity": 0.5669291338582677
        },
        {
          "duration": 0.19078906666669582,
          "durationTicks": 232,
          "midi": 66,
          "name": "F#4",
          "ticks": 322560,
          "time": 265.262592,
          "velocity": 0.5669291338582677
        },
        {
          "duration": 0.38815706666667893,
          "durationTicks": 472,
          "midi": 64,
          "name": "E4",
          "ticks": 322800,
          "time": 265.45995999999997,
          "velocity": 0.5669291338582677
        },
        {
          "duration": 0.19078906666663897,
          "durationTicks": 232,
          "midi": 66,
          "name": "F#4",
          "ticks": 323280,
          "time": 265.854696,
          "velocity": 0.5669291338582677
        },
        {
          "duration": 0.38815706666667893,
          "durationTicks": 472,
          "midi": 64,
          "name": "E4",
          "ticks": 323520,
          "time": 266.052064,
          "velocity": 0.5669291338582677
        },
        {
          "duration": 0.19078906666663897,
          "durationTicks": 232,
          "midi": 66,
          "name": "F#4",
          "ticks": 324000,
          "time": 266.4468,
          "velocity": 0.5669291338582677
        },
        {
          "duration": 0.38815706666667893,
          "durationTicks": 472,
          "midi": 64,
          "name": "E4",
          "ticks": 324240,
          "time": 266.644168,
          "velocity": 0.5669291338582677
        },
        {
          "duration": 0.19078906666663897,
          "durationTicks": 232,
          "midi": 66,
          "name": "F#4",
          "ticks": 324720,
          "time": 267.038904,
          "velocity": 0.5669291338582677
        },
        {
          "duration": 0.38815706666667893,
          "durationTicks": 472,
          "midi": 64,
          "name": "E4",
          "ticks": 324960,
          "time": 267.236272,
          "velocity": 0.5669291338582677
        },
        {
          "duration": 0.19078906666663897,
          "durationTicks": 232,
          "midi": 66,
          "name": "F#4",
          "ticks": 325440,
          "time": 267.631008,
          "velocity": 0.5669291338582677
        },
        {
          "duration": 0.38815706666667893,
          "durationTicks": 472,
          "midi": 64,
          "name": "E4",
          "ticks": 325680,
          "time": 267.828376,
          "velocity": 0.5669291338582677
        },
        {
          "duration": 0.19078906666669582,
          "durationTicks": 232,
          "midi": 66,
          "name": "F#4",
          "ticks": 326160,
          "time": 268.22311199999996,
          "velocity": 0.5669291338582677
        },
        {
          "duration": 0.38815706666667893,
          "durationTicks": 472,
          "midi": 62,
          "name": "D4",
          "ticks": 326400,
          "time": 268.42048,
          "velocity": 0.5669291338582677
        },
        {
          "duration": 0.19078906666669582,
          "durationTicks": 232,
          "midi": 66,
          "name": "F#4",
          "ticks": 326880,
          "time": 268.81521599999996,
          "velocity": 0.5669291338582677
        },
        {
          "duration": 0.38815706666667893,
          "durationTicks": 472,
          "midi": 62,
          "name": "D4",
          "ticks": 327120,
          "time": 269.012584,
          "velocity": 0.5669291338582677
        },
        {
          "duration": 0.19078906666669582,
          "durationTicks": 232,
          "midi": 66,
          "name": "F#4",
          "ticks": 327600,
          "time": 269.40731999999997,
          "velocity": 0.5669291338582677
        },
        {
          "duration": 0.3881570666666221,
          "durationTicks": 472,
          "midi": 62,
          "name": "D4",
          "ticks": 327840,
          "time": 269.604688,
          "velocity": 0.5669291338582677
        },
        {
          "duration": 0.19078906666669582,
          "durationTicks": 232,
          "midi": 66,
          "name": "F#4",
          "ticks": 328320,
          "time": 269.999424,
          "velocity": 0.5669291338582677
        },
        {
          "duration": 0.38815706666667893,
          "durationTicks": 472,
          "midi": 62,
          "name": "D4",
          "ticks": 328560,
          "time": 270.19679199999996,
          "velocity": 0.5669291338582677
        },
        {
          "duration": 0.19078906666669582,
          "durationTicks": 232,
          "midi": 66,
          "name": "F#4",
          "ticks": 329040,
          "time": 270.591528,
          "velocity": 0.5669291338582677
        },
        {
          "duration": 0.38815706666667893,
          "durationTicks": 472,
          "midi": 62,
          "name": "D4",
          "ticks": 329280,
          "time": 270.78889599999997,
          "velocity": 0.5669291338582677
        },
        {
          "duration": 0.19078906666663897,
          "durationTicks": 232,
          "midi": 66,
          "name": "F#4",
          "ticks": 329760,
          "time": 271.183632,
          "velocity": 0.5669291338582677
        },
        {
          "duration": 0.38815706666667893,
          "durationTicks": 472,
          "midi": 61,
          "name": "C#4",
          "ticks": 330000,
          "time": 271.381,
          "velocity": 0.5669291338582677
        },
        {
          "duration": 0.19078906666663897,
          "durationTicks": 232,
          "midi": 66,
          "name": "F#4",
          "ticks": 330480,
          "time": 271.775736,
          "velocity": 0.5669291338582677
        },
        {
          "duration": 0.38815706666667893,
          "durationTicks": 472,
          "midi": 61,
          "name": "C#4",
          "ticks": 330720,
          "time": 271.973104,
          "velocity": 0.5669291338582677
        },
        {
          "duration": 0.19078906666663897,
          "durationTicks": 232,
          "midi": 66,
          "name": "F#4",
          "ticks": 331200,
          "time": 272.36784,
          "velocity": 0.5669291338582677
        },
        {
          "duration": 0.38815706666667893,
          "durationTicks": 472,
          "midi": 61,
          "name": "C#4",
          "ticks": 331440,
          "time": 272.565208,
          "velocity": 0.5669291338582677
        },
        {
          "duration": 0.19078906666663897,
          "durationTicks": 232,
          "midi": 66,
          "name": "F#4",
          "ticks": 331920,
          "time": 272.959944,
          "velocity": 0.5669291338582677
        },
        {
          "duration": 0.38815706666667893,
          "durationTicks": 472,
          "midi": 61,
          "name": "C#4",
          "ticks": 332160,
          "time": 273.157312,
          "velocity": 0.5669291338582677
        },
        {
          "duration": 0.19078906666669582,
          "durationTicks": 232,
          "midi": 66,
          "name": "F#4",
          "ticks": 332640,
          "time": 273.55204799999996,
          "velocity": 0.5669291338582677
        },
        {
          "duration": 0.38815706666667893,
          "durationTicks": 472,
          "midi": 61,
          "name": "C#4",
          "ticks": 332880,
          "time": 273.749416,
          "velocity": 0.5669291338582677
        },
        {
          "duration": 0.19078906666669582,
          "durationTicks": 232,
          "midi": 66,
          "name": "F#4",
          "ticks": 333360,
          "time": 274.14415199999996,
          "velocity": 0.5669291338582677
        },
        {
          "duration": 1.1776290666666682,
          "durationTicks": 1432,
          "midi": 61,
          "name": "C#4",
          "ticks": 333600,
          "time": 274.34152,
          "velocity": 0.5669291338582677
        },
        {
          "duration": 0.19078906666669582,
          "durationTicks": 232,
          "midi": 66,
          "name": "F#4",
          "ticks": 334080,
          "time": 274.73625599999997,
          "velocity": 0.5669291338582677
        },
        {
          "duration": 0.3881570666666221,
          "durationTicks": 472,
          "midi": 59,
          "name": "B3",
          "ticks": 334320,
          "time": 274.933624,
          "velocity": 0.5669291338582677
        },
        {
          "duration": 0.19078906666669582,
          "durationTicks": 232,
          "midi": 66,
          "name": "F#4",
          "ticks": 334800,
          "time": 275.32836,
          "velocity": 0.5669291338582677
        },
        {
          "duration": 0.38815706666667893,
          "durationTicks": 472,
          "midi": 59,
          "name": "B3",
          "ticks": 335040,
          "time": 275.52572799999996,
          "velocity": 0.5669291338582677
        },
        {
          "duration": 0.19078906666669582,
          "durationTicks": 232,
          "midi": 66,
          "name": "F#4",
          "ticks": 335520,
          "time": 275.920464,
          "velocity": 0.5669291338582677
        },
        {
          "duration": 0.38815706666667893,
          "durationTicks": 472,
          "midi": 59,
          "name": "B3",
          "ticks": 335760,
          "time": 276.11783199999996,
          "velocity": 0.5669291338582677
        },
        {
          "duration": 0.19078906666669582,
          "durationTicks": 232,
          "midi": 66,
          "name": "F#4",
          "ticks": 336240,
          "time": 276.512568,
          "velocity": 0.5669291338582677
        },
        {
          "duration": 0.38815706666667893,
          "durationTicks": 472,
          "midi": 59,
          "name": "B3",
          "ticks": 336480,
          "time": 276.70993599999997,
          "velocity": 0.5669291338582677
        },
        {
          "duration": 0.19078906666663897,
          "durationTicks": 232,
          "midi": 66,
          "name": "F#4",
          "ticks": 336960,
          "time": 277.104672,
          "velocity": 0.5669291338582677
        },
        {
          "duration": 0.38815706666667893,
          "durationTicks": 472,
          "midi": 59,
          "name": "B3",
          "ticks": 337200,
          "time": 277.30204,
          "velocity": 0.5669291338582677
        },
        {
          "duration": 0.19078906666663897,
          "durationTicks": 232,
          "midi": 66,
          "name": "F#4",
          "ticks": 337680,
          "time": 277.696776,
          "velocity": 0.5669291338582677
        },
        {
          "duration": 0.38815706666667893,
          "durationTicks": 472,
          "midi": 59,
          "name": "B3",
          "ticks": 337920,
          "time": 277.894144,
          "velocity": 0.5669291338582677
        },
        {
          "duration": 0.19078906666663897,
          "durationTicks": 232,
          "midi": 66,
          "name": "F#4",
          "ticks": 338400,
          "time": 278.28888,
          "velocity": 0.5669291338582677
        },
        {
          "duration": 0.38815706666667893,
          "durationTicks": 472,
          "midi": 59,
          "name": "B3",
          "ticks": 338640,
          "time": 278.486248,
          "velocity": 0.5669291338582677
        },
        {
          "duration": 0.19078906666669582,
          "durationTicks": 232,
          "midi": 66,
          "name": "F#4",
          "ticks": 339120,
          "time": 278.88098399999996,
          "velocity": 0.5669291338582677
        },
        {
          "duration": 0.38815706666667893,
          "durationTicks": 472,
          "midi": 59,
          "name": "B3",
          "ticks": 339360,
          "time": 279.078352,
          "velocity": 0.5669291338582677
        },
        {
          "duration": 0.19078906666669582,
          "durationTicks": 232,
          "midi": 66,
          "name": "F#4",
          "ticks": 339840,
          "time": 279.47308799999996,
          "velocity": 0.5669291338582677
        },
        {
          "duration": 0.38815706666667893,
          "durationTicks": 472,
          "midi": 59,
          "name": "B3",
          "ticks": 340080,
          "time": 279.670456,
          "velocity": 0.5669291338582677
        },
        {
          "duration": 0.19078906666669582,
          "durationTicks": 232,
          "midi": 66,
          "name": "F#4",
          "ticks": 340560,
          "time": 280.06519199999997,
          "velocity": 0.5669291338582677
        },
        {
          "duration": 0.3881570666666221,
          "durationTicks": 472,
          "midi": 62,
          "name": "D4",
          "ticks": 340800,
          "time": 280.26256,
          "velocity": 0.5669291338582677
        },
        {
          "duration": 0.19078906666669582,
          "durationTicks": 232,
          "midi": 66,
          "name": "F#4",
          "ticks": 341280,
          "time": 280.657296,
          "velocity": 0.5669291338582677
        },
        {
          "duration": 0.19078906666669582,
          "durationTicks": 232,
          "midi": 62,
          "name": "D4",
          "ticks": 341520,
          "time": 280.85466399999996,
          "velocity": 0.5669291338582677
        },
        {
          "duration": 0.38815706666667893,
          "durationTicks": 472,
          "midi": 62,
          "name": "D4",
          "ticks": 341760,
          "time": 281.052032,
          "velocity": 0.5669291338582677
        },
        {
          "duration": 0.19078906666669582,
          "durationTicks": 232,
          "midi": 66,
          "name": "F#4",
          "ticks": 342240,
          "time": 281.44676799999996,
          "velocity": 0.5669291338582677
        },
        {
          "duration": 0.38815706666667893,
          "durationTicks": 472,
          "midi": 62,
          "name": "D4",
          "ticks": 342480,
          "time": 281.644136,
          "velocity": 0.5669291338582677
        },
        {
          "duration": 0.19078906666669582,
          "durationTicks": 232,
          "midi": 66,
          "name": "F#4",
          "ticks": 342960,
          "time": 282.03887199999997,
          "velocity": 0.5669291338582677
        },
        {
          "duration": 0.3881570666666221,
          "durationTicks": 472,
          "midi": 62,
          "name": "D4",
          "ticks": 343200,
          "time": 282.23624,
          "velocity": 0.5669291338582677
        },
        {
          "duration": 0.19078906666669582,
          "durationTicks": 232,
          "midi": 66,
          "name": "F#4",
          "ticks": 343680,
          "time": 282.630976,
          "velocity": 0.5669291338582677
        },
        {
          "duration": 0.38815706666667893,
          "durationTicks": 472,
          "midi": 62,
          "name": "D4",
          "ticks": 343920,
          "time": 282.82834399999996,
          "velocity": 0.5669291338582677
        },
        {
          "duration": 0.19078906666669582,
          "durationTicks": 232,
          "midi": 66,
          "name": "F#4",
          "ticks": 344400,
          "time": 283.22308,
          "velocity": 0.5669291338582677
        },
        {
          "duration": 0.38815706666667893,
          "durationTicks": 472,
          "midi": 62,
          "name": "D4",
          "ticks": 344640,
          "time": 283.42044799999996,
          "velocity": 0.5669291338582677
        },
        {
          "duration": 0.19078906666663897,
          "durationTicks": 232,
          "midi": 66,
          "name": "F#4",
          "ticks": 345120,
          "time": 283.815184,
          "velocity": 0.5669291338582677
        },
        {
          "duration": 0.38815706666667893,
          "durationTicks": 472,
          "midi": 62,
          "name": "D4",
          "ticks": 345360,
          "time": 284.01255199999997,
          "velocity": 0.5669291338582677
        },
        {
          "duration": 0.19078906666663897,
          "durationTicks": 232,
          "midi": 66,
          "name": "F#4",
          "ticks": 345840,
          "time": 284.407288,
          "velocity": 0.5669291338582677
        },
        {
          "duration": 0.38815706666667893,
          "durationTicks": 472,
          "midi": 62,
          "name": "D4",
          "ticks": 346080,
          "time": 284.604656,
          "velocity": 0.5669291338582677
        },
        {
          "duration": 0.19078906666663897,
          "durationTicks": 232,
          "midi": 66,
          "name": "F#4",
          "ticks": 346560,
          "time": 284.999392,
          "velocity": 0.5669291338582677
        },
        {
          "duration": 0.38815706666667893,
          "durationTicks": 472,
          "midi": 62,
          "name": "D4",
          "ticks": 346800,
          "time": 285.19676,
          "velocity": 0.5669291338582677
        },
        {
          "duration": 0.19078906666663897,
          "durationTicks": 232,
          "midi": 66,
          "name": "F#4",
          "ticks": 347280,
          "time": 285.591496,
          "velocity": 0.5669291338582677
        },
        {
          "duration": 0.38815706666667893,
          "durationTicks": 472,
          "midi": 62,
          "name": "D4",
          "ticks": 347520,
          "time": 285.788864,
          "velocity": 0.5669291338582677
        },
        {
          "duration": 0.19078906666669582,
          "durationTicks": 232,
          "midi": 66,
          "name": "F#4",
          "ticks": 348000,
          "time": 286.18359999999996,
          "velocity": 0.5669291338582677
        },
        {
          "duration": 0.38815706666667893,
          "durationTicks": 472,
          "midi": 62,
          "name": "D4",
          "ticks": 348240,
          "time": 286.380968,
          "velocity": 0.5669291338582677
        },
        {
          "duration": 0.19078906666669582,
          "durationTicks": 232,
          "midi": 66,
          "name": "F#4",
          "ticks": 348720,
          "time": 286.77570399999996,
          "velocity": 0.5669291338582677
        },
        {
          "duration": 0.38815706666667893,
          "durationTicks": 472,
          "midi": 62,
          "name": "D4",
          "ticks": 348960,
          "time": 286.973072,
          "velocity": 0.5669291338582677
        },
        {
          "duration": 0.19078906666669582,
          "durationTicks": 232,
          "midi": 66,
          "name": "F#4",
          "ticks": 349440,
          "time": 287.36780799999997,
          "velocity": 0.5669291338582677
        },
        {
          "duration": 0.3881570666666221,
          "durationTicks": 472,
          "midi": 64,
          "name": "E4",
          "ticks": 349680,
          "time": 287.565176,
          "velocity": 0.5669291338582677
        },
        {
          "duration": 0.19078906666669582,
          "durationTicks": 232,
          "midi": 66,
          "name": "F#4",
          "ticks": 350160,
          "time": 287.959912,
          "velocity": 0.5669291338582677
        },
        {
          "duration": 0.38815706666667893,
          "durationTicks": 472,
          "midi": 64,
          "name": "E4",
          "ticks": 350400,
          "time": 288.15727999999996,
          "velocity": 0.5669291338582677
        },
        {
          "duration": 0.19078906666669582,
          "durationTicks": 232,
          "midi": 66,
          "name": "F#4",
          "ticks": 350880,
          "time": 288.552016,
          "velocity": 0.5669291338582677
        },
        {
          "duration": 0.38815706666667893,
          "durationTicks": 472,
          "midi": 64,
          "name": "E4",
          "ticks": 351120,
          "time": 288.74938399999996,
          "velocity": 0.5669291338582677
        },
        {
          "duration": 0.19078906666669582,
          "durationTicks": 232,
          "midi": 66,
          "name": "F#4",
          "ticks": 351600,
          "time": 289.14412,
          "velocity": 0.5669291338582677
        },
        {
          "duration": 0.38815706666667893,
          "durationTicks": 472,
          "midi": 64,
          "name": "E4",
          "ticks": 351840,
          "time": 289.34148799999997,
          "velocity": 0.5669291338582677
        },
        {
          "duration": 0.19078906666663897,
          "durationTicks": 232,
          "midi": 66,
          "name": "F#4",
          "ticks": 352320,
          "time": 289.736224,
          "velocity": 0.5669291338582677
        },
        {
          "duration": 0.38815706666667893,
          "durationTicks": 472,
          "midi": 64,
          "name": "E4",
          "ticks": 352560,
          "time": 289.933592,
          "velocity": 0.5669291338582677
        },
        {
          "duration": 0.19078906666663897,
          "durationTicks": 232,
          "midi": 66,
          "name": "F#4",
          "ticks": 353040,
          "time": 290.328328,
          "velocity": 0.5669291338582677
        },
        {
          "duration": 0.38815706666667893,
          "durationTicks": 472,
          "midi": 62,
          "name": "D4",
          "ticks": 353280,
          "time": 290.525696,
          "velocity": 0.5669291338582677
        },
        {
          "duration": 0.19078906666663897,
          "durationTicks": 232,
          "midi": 66,
          "name": "F#4",
          "ticks": 353760,
          "time": 290.920432,
          "velocity": 0.5669291338582677
        },
        {
          "duration": 0.38815706666667893,
          "durationTicks": 472,
          "midi": 62,
          "name": "D4",
          "ticks": 354000,
          "time": 291.1178,
          "velocity": 0.5669291338582677
        },
        {
          "duration": 0.19078906666669582,
          "durationTicks": 232,
          "midi": 66,
          "name": "F#4",
          "ticks": 354480,
          "time": 291.51253599999995,
          "velocity": 0.5669291338582677
        },
        {
          "duration": 0.38815706666667893,
          "durationTicks": 472,
          "midi": 62,
          "name": "D4",
          "ticks": 354720,
          "time": 291.709904,
          "velocity": 0.5669291338582677
        },
        {
          "duration": 0.19078906666669582,
          "durationTicks": 232,
          "midi": 66,
          "name": "F#4",
          "ticks": 355200,
          "time": 292.10463999999996,
          "velocity": 0.5669291338582677
        },
        {
          "duration": 0.38815706666667893,
          "durationTicks": 472,
          "midi": 62,
          "name": "D4",
          "ticks": 355440,
          "time": 292.302008,
          "velocity": 0.5669291338582677
        },
        {
          "duration": 0.19078906666669582,
          "durationTicks": 232,
          "midi": 66,
          "name": "F#4",
          "ticks": 355920,
          "time": 292.69674399999997,
          "velocity": 0.5669291338582677
        },
        {
          "duration": 0.3881570666666221,
          "durationTicks": 472,
          "midi": 62,
          "name": "D4",
          "ticks": 356160,
          "time": 292.894112,
          "velocity": 0.5669291338582677
        },
        {
          "duration": 0.19078906666669582,
          "durationTicks": 232,
          "midi": 66,
          "name": "F#4",
          "ticks": 356640,
          "time": 293.288848,
          "velocity": 0.5669291338582677
        },
        {
          "duration": 0.38815706666667893,
          "durationTicks": 472,
          "midi": 61,
          "name": "C#4",
          "ticks": 356880,
          "time": 293.48621599999996,
          "velocity": 0.5669291338582677
        },
        {
          "duration": 0.19078906666669582,
          "durationTicks": 232,
          "midi": 66,
          "name": "F#4",
          "ticks": 357360,
          "time": 293.880952,
          "velocity": 0.5669291338582677
        },
        {
          "duration": 0.38815706666667893,
          "durationTicks": 472,
          "midi": 61,
          "name": "C#4",
          "ticks": 357600,
          "time": 294.07831999999996,
          "velocity": 0.5669291338582677
        },
        {
          "duration": 0.19078906666669582,
          "durationTicks": 232,
          "midi": 66,
          "name": "F#4",
          "ticks": 358080,
          "time": 294.473056,
          "velocity": 0.5669291338582677
        },
        {
          "duration": 0.38815706666667893,
          "durationTicks": 472,
          "midi": 61,
          "name": "C#4",
          "ticks": 358320,
          "time": 294.67042399999997,
          "velocity": 0.5669291338582677
        },
        {
          "duration": 0.19078906666663897,
          "durationTicks": 232,
          "midi": 66,
          "name": "F#4",
          "ticks": 358800,
          "time": 295.06516,
          "velocity": 0.5669291338582677
        },
        {
          "duration": 0.38815706666667893,
          "durationTicks": 472,
          "midi": 61,
          "name": "C#4",
          "ticks": 359040,
          "time": 295.262528,
          "velocity": 0.5669291338582677
        },
        {
          "duration": 0.19078906666663897,
          "durationTicks": 232,
          "midi": 66,
          "name": "F#4",
          "ticks": 359520,
          "time": 295.657264,
          "velocity": 0.5669291338582677
        },
        {
          "duration": 0.38815706666667893,
          "durationTicks": 472,
          "midi": 61,
          "name": "C#4",
          "ticks": 359760,
          "time": 295.854632,
          "velocity": 0.5669291338582677
        },
        {
          "duration": 0.19078906666663897,
          "durationTicks": 232,
          "midi": 66,
          "name": "F#4",
          "ticks": 360240,
          "time": 296.249368,
          "velocity": 0.5669291338582677
        },
        {
          "duration": 1.3749970666666513,
          "durationTicks": 1672,
          "midi": 61,
          "name": "C#4",
          "ticks": 360480,
          "time": 296.446736,
          "velocity": 0.5669291338582677
        },
        {
          "duration": 0.38815706666667893,
          "durationTicks": 472,
          "midi": 59,
          "name": "B3",
          "ticks": 360960,
          "time": 296.84147199999995,
          "velocity": 0.5669291338582677
        },
        {
          "duration": 0.19078906666669582,
          "durationTicks": 232,
          "midi": 66,
          "name": "F#4",
          "ticks": 361440,
          "time": 297.236208,
          "velocity": 0.5669291338582677
        },
        {
          "duration": 0.5855250666667189,
          "durationTicks": 712,
          "midi": 59,
          "name": "B3",
          "ticks": 361680,
          "time": 297.43357599999996,
          "velocity": 0.5669291338582677
        },
        {
          "duration": 0.19078906666669582,
          "durationTicks": 232,
          "midi": 66,
          "name": "F#4",
          "ticks": 362160,
          "time": 297.828312,
          "velocity": 0.5669291338582677
        },
        {
          "duration": 0.38815706666667893,
          "durationTicks": 472,
          "midi": 59,
          "name": "B3",
          "ticks": 362400,
          "time": 298.02567999999997,
          "velocity": 0.5669291338582677
        },
        {
          "duration": 0.19078906666663897,
          "durationTicks": 232,
          "midi": 66,
          "name": "F#4",
          "ticks": 362880,
          "time": 298.420416,
          "velocity": 0.5669291338582677
        },
        {
          "duration": 0.38815706666667893,
          "durationTicks": 472,
          "midi": 59,
          "name": "B3",
          "ticks": 363120,
          "time": 298.617784,
          "velocity": 0.5669291338582677
        },
        {
          "duration": 0.19078906666663897,
          "durationTicks": 232,
          "midi": 66,
          "name": "F#4",
          "ticks": 363600,
          "time": 299.01252,
          "velocity": 0.5669291338582677
        },
        {
          "duration": 0.38815706666667893,
          "durationTicks": 472,
          "midi": 59,
          "name": "B3",
          "ticks": 363840,
          "time": 299.209888,
          "velocity": 0.5669291338582677
        },
        {
          "duration": 0.19078906666663897,
          "durationTicks": 232,
          "midi": 66,
          "name": "F#4",
          "ticks": 364320,
          "time": 299.604624,
          "velocity": 0.5669291338582677
        },
        {
          "duration": 0.38815706666667893,
          "durationTicks": 472,
          "midi": 59,
          "name": "B3",
          "ticks": 364560,
          "time": 299.801992,
          "velocity": 0.5669291338582677
        },
        {
          "duration": 0.19078906666663897,
          "durationTicks": 232,
          "midi": 66,
          "name": "F#4",
          "ticks": 365040,
          "time": 300.196728,
          "velocity": 0.5669291338582677
        },
        {
          "duration": 0.38815706666667893,
          "durationTicks": 472,
          "midi": 59,
          "name": "B3",
          "ticks": 365280,
          "time": 300.394096,
          "velocity": 0.5669291338582677
        },
        {
          "duration": 0.19078906666669582,
          "durationTicks": 232,
          "midi": 66,
          "name": "F#4",
          "ticks": 365760,
          "time": 300.78883199999996,
          "velocity": 0.5669291338582677
        },
        {
          "duration": 0.38815706666667893,
          "durationTicks": 472,
          "midi": 59,
          "name": "B3",
          "ticks": 366000,
          "time": 300.9862,
          "velocity": 0.5669291338582677
        },
        {
          "duration": 0.19078906666669582,
          "durationTicks": 232,
          "midi": 66,
          "name": "F#4",
          "ticks": 366480,
          "time": 301.38093599999996,
          "velocity": 0.5669291338582677
        },
        {
          "duration": 0.38815706666667893,
          "durationTicks": 472,
          "midi": 59,
          "name": "B3",
          "ticks": 366720,
          "time": 301.578304,
          "velocity": 0.5669291338582677
        },
        {
          "duration": 0.19078906666669582,
          "durationTicks": 232,
          "midi": 66,
          "name": "F#4",
          "ticks": 367200,
          "time": 301.97303999999997,
          "velocity": 0.5669291338582677
        },
        {
          "duration": 0.3881570666666221,
          "durationTicks": 472,
          "midi": 59,
          "name": "B3",
          "ticks": 367440,
          "time": 302.170408,
          "velocity": 0.5669291338582677
        },
        {
          "duration": 0.19078906666669582,
          "durationTicks": 232,
          "midi": 66,
          "name": "F#4",
          "ticks": 367920,
          "time": 302.565144,
          "velocity": 0.5669291338582677
        },
        {
          "duration": 0.38815706666667893,
          "durationTicks": 472,
          "midi": 59,
          "name": "B3",
          "ticks": 368160,
          "time": 302.76251199999996,
          "velocity": 0.5669291338582677
        }
      ]
    },
    {
      "channel": 0,
      "controlChanges": {
        "6": [
          {
            "number": 6,
            "ticks": 180,
            "time": 0.148026,
            "value": 0.09448818897637795
          }
        ],
        "38": [
          {
            "number": 38,
            "ticks": 180,
            "time": 0.148026,
            "value": 0
          }
        ],
        "100": [
          {
            "number": 100,
            "ticks": 180,
            "time": 0.148026,
            "value": 0
          }
        ],
        "101": [
          {
            "number": 101,
            "ticks": 180,
            "time": 0.148026,
            "value": 0
          }
        ],
        "121": [
          {
            "number": 121,
            "ticks": 180,
            "time": 0.148026,
            "value": 0
          }
        ],
        "123": [
          {
            "number": 123,
            "ticks": 180,
            "time": 0.148026,
            "value": 0
          }
        ]
      },
      "pitchBends": [
        {
          "ticks": 180,
          "time": 0.148026,
          "value": 0
        }
      ],
      "instrument": {
        "family": "piano",
        "number": 0,
        "name": "acoustic grand piano"
      },
      "name": "Colin Greenwood",
      "notes": [],
      "endOfTrackTicks": 370318
    },
    {
      "channel": 1,
      "controlChanges": {
        "7": [
          {
            "number": 7,
            "ticks": 240,
            "time": 0.197368,
            "value": 0.8503937007874016
          }
        ],
        "10": [
          {
            "number": 10,
            "ticks": 240,
            "time": 0.197368,
            "value": 0.5354330708661418
          }
        ]
      },
      "pitchBends": [],
      "instrument": {
        "family": "bass",
        "number": 33,
        "name": "electric bass (finger)"
      },
      "name": "",
      "notes": [
        {
          "duration": 0.19572326666666662,
          "durationTicks": 238,
          "midi": 28,
          "name": "E1",
          "ticks": 9600,
          "time": 7.8947199999999995,
          "velocity": 0.8031496062992126
        },
        {
          "duration": 0.19572326666666662,
          "durationTicks": 238,
          "midi": 28,
          "name": "E1",
          "ticks": 9840,
          "time": 8.092088,
          "velocity": 0.8031496062992126
        },
        {
          "duration": 0.3930912666666675,
          "durationTicks": 478,
          "midi": 38,
          "name": "D2",
          "ticks": 10080,
          "time": 8.289456,
          "velocity": 0.8031496062992126
        },
        {
          "duration": 0.3930912666666675,
          "durationTicks": 478,
          "midi": 38,
          "name": "D2",
          "ticks": 10560,
          "time": 8.684192,
          "velocity": 0.8031496062992126
        },
        {
          "duration": 3.5509792666666673,
          "durationTicks": 4318,
          "midi": 40,
          "name": "E2",
          "ticks": 11040,
          "time": 9.078928,
          "velocity": 0.8031496062992126
        },
        {
          "duration": 4.735187266666664,
          "durationTicks": 5758,
          "midi": 30,
          "name": "F#1",
          "ticks": 17280,
          "time": 14.210496,
          "velocity": 0.8031496062992126
        },
        {
          "duration": 4.735187266666664,
          "durationTicks": 5758,
          "midi": 33,
          "name": "A1",
          "ticks": 24960,
          "time": 20.526272,
          "velocity": 0.8031496062992126
        },
        {
          "duration": 0.1957232666666684,
          "durationTicks": 238,
          "midi": 28,
          "name": "E1",
          "ticks": 32160,
          "time": 26.447311999999997,
          "velocity": 0.8031496062992126
        },
        {
          "duration": 0.1957232666666684,
          "durationTicks": 238,
          "midi": 30,
          "name": "F#1",
          "ticks": 32400,
          "time": 26.644679999999997,
          "velocity": 0.8031496062992126
        },
        {
          "duration": 0.39309126666666927,
          "durationTicks": 478,
          "midi": 31,
          "name": "G1",
          "ticks": 32640,
          "time": 26.842048,
          "velocity": 0.8031496062992126
        },
        {
          "duration": 0.3930912666666657,
          "durationTicks": 478,
          "midi": 30,
          "name": "F#1",
          "ticks": 33120,
          "time": 27.236784,
          "velocity": 0.8031496062992126
        },
        {
          "duration": 0.39309126666666927,
          "durationTicks": 478,
          "midi": 28,
          "name": "E1",
          "ticks": 33600,
          "time": 27.63152,
          "velocity": 0.8031496062992126
        },
        {
          "duration": 3.550979266666669,
          "durationTicks": 4318,
          "midi": 40,
          "name": "E2",
          "ticks": 34080,
          "time": 28.026255999999997,
          "velocity": 0.8031496062992126
        },
        {
          "duration": 0.1957232666666684,
          "durationTicks": 238,
          "midi": 28,
          "name": "E1",
          "ticks": 40320,
          "time": 33.157824,
          "velocity": 0.8031496062992126
        },
        {
          "duration": 0.1957232666666684,
          "durationTicks": 238,
          "midi": 28,
          "name": "E1",
          "ticks": 40560,
          "time": 33.355191999999995,
          "velocity": 0.8031496062992126
        },
        {
          "duration": 0.3930912666666657,
          "durationTicks": 478,
          "midi": 38,
          "name": "D2",
          "ticks": 40800,
          "time": 33.55256,
          "velocity": 0.8031496062992126
        },
        {
          "duration": 0.3930912666666728,
          "durationTicks": 478,
          "midi": 38,
          "name": "D2",
          "ticks": 41280,
          "time": 33.947295999999994,
          "velocity": 0.8031496062992126
        },
        {
          "duration": 3.5509792666666726,
          "durationTicks": 4318,
          "midi": 40,
          "name": "E2",
          "ticks": 41760,
          "time": 34.342031999999996,
          "velocity": 0.8031496062992126
        },
        {
          "duration": 4.735187266666671,
          "durationTicks": 5758,
          "midi": 30,
          "name": "F#1",
          "ticks": 48000,
          "time": 39.4736,
          "velocity": 0.8031496062992126
        },
        {
          "duration": 4.735187266666671,
          "durationTicks": 5758,
          "midi": 33,
          "name": "A1",
          "ticks": 55680,
          "time": 45.789376,
          "velocity": 0.8031496062992126
        },
        {
          "duration": 0.1957232666666684,
          "durationTicks": 238,
          "midi": 28,
          "name": "E1",
          "ticks": 62880,
          "time": 51.710415999999995,
          "velocity": 0.8031496062992126
        },
        {
          "duration": 0.1957232666666684,
          "durationTicks": 238,
          "midi": 30,
          "name": "F#1",
          "ticks": 63120,
          "time": 51.907784,
          "velocity": 0.8031496062992126
        },
        {
          "duration": 0.3930912666666657,
          "durationTicks": 478,
          "midi": 31,
          "name": "G1",
          "ticks": 63360,
          "time": 52.105152,
          "velocity": 0.8031496062992126
        },
        {
          "duration": 0.3930912666666657,
          "durationTicks": 478,
          "midi": 30,
          "name": "F#1",
          "ticks": 63840,
          "time": 52.499888,
          "velocity": 0.8031496062992126
        },
        {
          "duration": 0.3930912666666728,
          "durationTicks": 478,
          "midi": 28,
          "name": "E1",
          "ticks": 64320,
          "time": 52.89462399999999,
          "velocity": 0.8031496062992126
        },
        {
          "duration": 3.5509792666666726,
          "durationTicks": 4318,
          "midi": 40,
          "name": "E2",
          "ticks": 64800,
          "time": 53.289359999999995,
          "velocity": 0.8031496062992126
        },
        {
          "duration": 0.1957232666666684,
          "durationTicks": 238,
          "midi": 28,
          "name": "E1",
          "ticks": 71040,
          "time": 58.420927999999996,
          "velocity": 0.8031496062992126
        },
        {
          "duration": 0.1957232666666684,
          "durationTicks": 238,
          "midi": 28,
          "name": "E1",
          "ticks": 71280,
          "time": 58.618295999999994,
          "velocity": 0.8031496062992126
        },
        {
          "duration": 0.3930912666666657,
          "durationTicks": 478,
          "midi": 38,
          "name": "D2",
          "ticks": 71520,
          "time": 58.815664,
          "velocity": 0.8031496062992126
        },
        {
          "duration": 0.3930912666666728,
          "durationTicks": 478,
          "midi": 38,
          "name": "D2",
          "ticks": 72000,
          "time": 59.21039999999999,
          "velocity": 0.8031496062992126
        },
        {
          "duration": 3.5509792666666726,
          "durationTicks": 4318,
          "midi": 40,
          "name": "E2",
          "ticks": 72480,
          "time": 59.605135999999995,
          "velocity": 0.8031496062992126
        },
        {
          "duration": 4.735187266666657,
          "durationTicks": 5758,
          "midi": 30,
          "name": "F#1",
          "ticks": 78720,
          "time": 64.736704,
          "velocity": 0.8031496062992126
        },
        {
          "duration": 4.735187266666657,
          "durationTicks": 5758,
          "midi": 33,
          "name": "A1",
          "ticks": 86400,
          "time": 71.05248,
          "velocity": 0.8031496062992126
        },
        {
          "duration": 0.1957232666666755,
          "durationTicks": 238,
          "midi": 28,
          "name": "E1",
          "ticks": 93600,
          "time": 76.97352,
          "velocity": 0.8031496062992126
        },
        {
          "duration": 0.1957232666666755,
          "durationTicks": 238,
          "midi": 30,
          "name": "F#1",
          "ticks": 93840,
          "time": 77.17088799999999,
          "velocity": 0.8031496062992126
        },
        {
          "duration": 0.3930912666666586,
          "durationTicks": 478,
          "midi": 31,
          "name": "G1",
          "ticks": 94080,
          "time": 77.368256,
          "velocity": 0.8031496062992126
        },
        {
          "duration": 0.3930912666666728,
          "durationTicks": 478,
          "midi": 30,
          "name": "F#1",
          "ticks": 94560,
          "time": 77.762992,
          "velocity": 0.8031496062992126
        },
        {
          "duration": 0.3930912666666728,
          "durationTicks": 478,
          "midi": 28,
          "name": "E1",
          "ticks": 95040,
          "time": 78.15772799999999,
          "velocity": 0.8031496062992126
        },
        {
          "duration": 3.5509792666666584,
          "durationTicks": 4318,
          "midi": 40,
          "name": "E2",
          "ticks": 95520,
          "time": 78.552464,
          "velocity": 0.8031496062992126
        },
        {
          "duration": 0.1957232666666613,
          "durationTicks": 238,
          "midi": 28,
          "name": "E1",
          "ticks": 101760,
          "time": 83.684032,
          "velocity": 0.8031496062992126
        },
        {
          "duration": 0.1957232666666613,
          "durationTicks": 238,
          "midi": 28,
          "name": "E1",
          "ticks": 102000,
          "time": 83.8814,
          "velocity": 0.8031496062992126
        },
        {
          "duration": 0.3930912666666728,
          "durationTicks": 478,
          "midi": 38,
          "name": "D2",
          "ticks": 102240,
          "time": 84.078768,
          "velocity": 0.8031496062992126
        },
        {
          "duration": 0.3930912666666728,
          "durationTicks": 478,
          "midi": 38,
          "name": "D2",
          "ticks": 102720,
          "time": 84.47350399999999,
          "velocity": 0.8031496062992126
        },
        {
          "duration": 3.5509792666666584,
          "durationTicks": 4318,
          "midi": 40,
          "name": "E2",
          "ticks": 103200,
          "time": 84.86824,
          "velocity": 0.8031496062992126
        },
        {
          "duration": 4.735187266666657,
          "durationTicks": 5758,
          "midi": 30,
          "name": "F#1",
          "ticks": 109440,
          "time": 89.999808,
          "velocity": 0.8031496062992126
        },
        {
          "duration": 4.735187266666657,
          "durationTicks": 5758,
          "midi": 33,
          "name": "A1",
          "ticks": 117120,
          "time": 96.315584,
          "velocity": 0.8031496062992126
        },
        {
          "duration": 0.1957232666666755,
          "durationTicks": 238,
          "midi": 28,
          "name": "E1",
          "ticks": 124320,
          "time": 102.23662399999999,
          "velocity": 0.8031496062992126
        },
        {
          "duration": 0.1957232666666755,
          "durationTicks": 238,
          "midi": 30,
          "name": "F#1",
          "ticks": 124560,
          "time": 102.43399199999999,
          "velocity": 0.8031496062992126
        },
        {
          "duration": 0.3930912666666586,
          "durationTicks": 478,
          "midi": 31,
          "name": "G1",
          "ticks": 124800,
          "time": 102.63136,
          "velocity": 0.8031496062992126
        },
        {
          "duration": 0.3930912666666728,
          "durationTicks": 478,
          "midi": 30,
          "name": "F#1",
          "ticks": 125280,
          "time": 103.026096,
          "velocity": 0.8031496062992126
        },
        {
          "duration": 0.3930912666666728,
          "durationTicks": 478,
          "midi": 28,
          "name": "E1",
          "ticks": 125760,
          "time": 103.42083199999999,
          "velocity": 0.8031496062992126
        },
        {
          "duration": 3.5509792666666584,
          "durationTicks": 4318,
          "midi": 40,
          "name": "E2",
          "ticks": 126240,
          "time": 103.815568,
          "velocity": 0.8031496062992126
        },
        {
          "duration": 0.1957232666666613,
          "durationTicks": 238,
          "midi": 28,
          "name": "E1",
          "ticks": 132480,
          "time": 108.947136,
          "velocity": 0.8031496062992126
        },
        {
          "duration": 0.1957232666666613,
          "durationTicks": 238,
          "midi": 28,
          "name": "E1",
          "ticks": 132720,
          "time": 109.144504,
          "velocity": 0.8031496062992126
        },
        {
          "duration": 0.3930912666666728,
          "durationTicks": 478,
          "midi": 38,
          "name": "D2",
          "ticks": 132960,
          "time": 109.341872,
          "velocity": 0.8031496062992126
        },
        {
          "duration": 0.3930912666666728,
          "durationTicks": 478,
          "midi": 38,
          "name": "D2",
          "ticks": 133440,
          "time": 109.73660799999999,
          "velocity": 0.8031496062992126
        },
        {
          "duration": 3.5509792666666584,
          "durationTicks": 4318,
          "midi": 40,
          "name": "E2",
          "ticks": 133920,
          "time": 110.131344,
          "velocity": 0.8031496062992126
        },
        {
          "duration": 4.735187266666657,
          "durationTicks": 5758,
          "midi": 30,
          "name": "F#1",
          "ticks": 140160,
          "time": 115.262912,
          "velocity": 0.8031496062992126
        },
        {
          "duration": 4.735187266666657,
          "durationTicks": 5758,
          "midi": 33,
          "name": "A1",
          "ticks": 147840,
          "time": 121.578688,
          "velocity": 0.8031496062992126
        },
        {
          "duration": 0.1957232666666755,
          "durationTicks": 238,
          "midi": 28,
          "name": "E1",
          "ticks": 155040,
          "time": 127.49972799999999,
          "velocity": 0.8031496062992126
        },
        {
          "duration": 0.1957232666666755,
          "durationTicks": 238,
          "midi": 30,
          "name": "F#1",
          "ticks": 155280,
          "time": 127.69709599999999,
          "velocity": 0.8031496062992126
        },
        {
          "duration": 0.3930912666666586,
          "durationTicks": 478,
          "midi": 31,
          "name": "G1",
          "ticks": 155520,
          "time": 127.894464,
          "velocity": 0.8031496062992126
        },
        {
          "duration": 0.3930912666666586,
          "durationTicks": 478,
          "midi": 30,
          "name": "F#1",
          "ticks": 156000,
          "time": 128.2892,
          "velocity": 0.8031496062992126
        },
        {
          "duration": 0.3930912666666586,
          "durationTicks": 478,
          "midi": 28,
          "name": "E1",
          "ticks": 156480,
          "time": 128.683936,
          "velocity": 0.8031496062992126
        },
        {
          "duration": 3.5509792666666726,
          "durationTicks": 4318,
          "midi": 40,
          "name": "E2",
          "ticks": 156960,
          "time": 129.07867199999998,
          "velocity": 0.8031496062992126
        },
        {
          "duration": 0.19572326666664708,
          "durationTicks": 238,
          "midi": 28,
          "name": "E1",
          "ticks": 163200,
          "time": 134.21024,
          "velocity": 0.8031496062992126
        },
        {
          "duration": 0.1957232666666755,
          "durationTicks": 238,
          "midi": 28,
          "name": "E1",
          "ticks": 163440,
          "time": 134.40760799999998,
          "velocity": 0.8031496062992126
        },
        {
          "duration": 0.3930912666666586,
          "durationTicks": 478,
          "midi": 38,
          "name": "D2",
          "ticks": 163680,
          "time": 134.604976,
          "velocity": 0.8031496062992126
        },
        {
          "duration": 0.3930912666666586,
          "durationTicks": 478,
          "midi": 38,
          "name": "D2",
          "ticks": 164160,
          "time": 134.999712,
          "velocity": 0.8031496062992126
        },
        {
          "duration": 3.5509792666666726,
          "durationTicks": 4318,
          "midi": 40,
          "name": "E2",
          "ticks": 164640,
          "time": 135.39444799999998,
          "velocity": 0.8031496062992126
        },
        {
          "duration": 4.735187266666657,
          "durationTicks": 5758,
          "midi": 30,
          "name": "F#1",
          "ticks": 170880,
          "time": 140.526016,
          "velocity": 0.8031496062992126
        },
        {
          "duration": 4.735187266666657,
          "durationTicks": 5758,
          "midi": 33,
          "name": "A1",
          "ticks": 178560,
          "time": 146.841792,
          "velocity": 0.8031496062992126
        },
        {
          "duration": 0.19572326666664708,
          "durationTicks": 238,
          "midi": 28,
          "name": "E1",
          "ticks": 185760,
          "time": 152.762832,
          "velocity": 0.8031496062992126
        },
        {
          "duration": 0.1957232666666755,
          "durationTicks": 238,
          "midi": 30,
          "name": "F#1",
          "ticks": 186000,
          "time": 152.9602,
          "velocity": 0.8031496062992126
        },
        {
          "duration": 0.3930912666666586,
          "durationTicks": 478,
          "midi": 31,
          "name": "G1",
          "ticks": 186240,
          "time": 153.157568,
          "velocity": 0.8031496062992126
        },
        {
          "duration": 0.3930912666666586,
          "durationTicks": 478,
          "midi": 30,
          "name": "F#1",
          "ticks": 186720,
          "time": 153.552304,
          "velocity": 0.8031496062992126
        },
        {
          "duration": 0.3930912666666586,
          "durationTicks": 478,
          "midi": 28,
          "name": "E1",
          "ticks": 187200,
          "time": 153.94704,
          "velocity": 0.8031496062992126
        },
        {
          "duration": 3.5509792666666726,
          "durationTicks": 4318,
          "midi": 40,
          "name": "E2",
          "ticks": 187680,
          "time": 154.34177599999998,
          "velocity": 0.8031496062992126
        },
        {
          "duration": 0.19572326666664708,
          "durationTicks": 238,
          "midi": 28,
          "name": "E1",
          "ticks": 193920,
          "time": 159.473344,
          "velocity": 0.8031496062992126
        },
        {
          "duration": 0.1957232666666755,
          "durationTicks": 238,
          "midi": 28,
          "name": "E1",
          "ticks": 194160,
          "time": 159.67071199999998,
          "velocity": 0.8031496062992126
        },
        {
          "duration": 0.3930912666666586,
          "durationTicks": 478,
          "midi": 38,
          "name": "D2",
          "ticks": 194400,
          "time": 159.86808,
          "velocity": 0.8031496062992126
        },
        {
          "duration": 0.3930912666666586,
          "durationTicks": 478,
          "midi": 38,
          "name": "D2",
          "ticks": 194880,
          "time": 160.262816,
          "velocity": 0.8031496062992126
        },
        {
          "duration": 3.5509792666666726,
          "durationTicks": 4318,
          "midi": 40,
          "name": "E2",
          "ticks": 195360,
          "time": 160.65755199999998,
          "velocity": 0.8031496062992126
        },
        {
          "duration": 4.735187266666657,
          "durationTicks": 5758,
          "midi": 30,
          "name": "F#1",
          "ticks": 201600,
          "time": 165.78912,
          "velocity": 0.8031496062992126
        },
        {
          "duration": 4.735187266666657,
          "durationTicks": 5758,
          "midi": 33,
          "name": "A1",
          "ticks": 209280,
          "time": 172.104896,
          "velocity": 0.8031496062992126
        },
        {
          "duration": 0.19572326666664708,
          "durationTicks": 238,
          "midi": 28,
          "name": "E1",
          "ticks": 216480,
          "time": 178.025936,
          "velocity": 0.8031496062992126
        },
        {
          "duration": 0.1957232666666755,
          "durationTicks": 238,
          "midi": 30,
          "name": "F#1",
          "ticks": 216720,
          "time": 178.22330399999998,
          "velocity": 0.8031496062992126
        },
        {
          "duration": 0.3930912666666586,
          "durationTicks": 478,
          "midi": 31,
          "name": "G1",
          "ticks": 216960,
          "time": 178.420672,
          "velocity": 0.8031496062992126
        },
        {
          "duration": 0.3930912666666586,
          "durationTicks": 478,
          "midi": 30,
          "name": "F#1",
          "ticks": 217440,
          "time": 178.815408,
          "velocity": 0.8031496062992126
        },
        {
          "duration": 0.3930912666666586,
          "durationTicks": 478,
          "midi": 28,
          "name": "E1",
          "ticks": 217920,
          "time": 179.21014399999999,
          "velocity": 0.8031496062992126
        },
        {
          "duration": 3.5509792666666726,
          "durationTicks": 4318,
          "midi": 40,
          "name": "E2",
          "ticks": 218400,
          "time": 179.60487999999998,
          "velocity": 0.8031496062992126
        },
        {
          "duration": 0.19572326666664708,
          "durationTicks": 238,
          "midi": 47,
          "name": "B2",
          "ticks": 275520,
          "time": 226.578464,
          "velocity": 0.8031496062992126
        },
        {
          "duration": 0.19572326666664708,
          "durationTicks": 238,
          "midi": 50,
          "name": "D3",
          "ticks": 275760,
          "time": 226.77583199999998,
          "velocity": 0.8031496062992126
        },
        {
          "duration": 0.19572326666664708,
          "durationTicks": 238,
          "midi": 52,
          "name": "E3",
          "ticks": 276000,
          "time": 226.9732,
          "velocity": 0.8031496062992126
        },
        {
          "duration": 0.5904592666666701,
          "durationTicks": 718,
          "midi": 54,
          "name": "F#3",
          "ticks": 276240,
          "time": 227.17056799999997,
          "velocity": 0.8031496062992126
        },
        {
          "duration": 0.19572326666664708,
          "durationTicks": 238,
          "midi": 45,
          "name": "A2",
          "ticks": 276960,
          "time": 227.76267199999998,
          "velocity": 0.8031496062992126
        },
        {
          "duration": 0.19572326666664708,
          "durationTicks": 238,
          "midi": 45,
          "name": "A2",
          "ticks": 277200,
          "time": 227.96004,
          "velocity": 0.8031496062992126
        },
        {
          "duration": 0.19572326666664708,
          "durationTicks": 238,
          "midi": 45,
          "name": "A2",
          "ticks": 277440,
          "time": 228.15740799999998,
          "velocity": 0.8031496062992126
        },
        {
          "duration": 0.19572326666664708,
          "durationTicks": 238,
          "midi": 45,
          "name": "A2",
          "ticks": 277680,
          "time": 228.354776,
          "velocity": 0.8031496062992126
        },
        {
          "duration": 0.19572326666664708,
          "durationTicks": 238,
          "midi": 45,
          "name": "A2",
          "ticks": 277920,
          "time": 228.552144,
          "velocity": 0.8031496062992126
        },
        {
          "duration": 0.19572326666664708,
          "durationTicks": 238,
          "midi": 45,
          "name": "A2",
          "ticks": 278160,
          "time": 228.74951199999998,
          "velocity": 0.8031496062992126
        },
        {
          "duration": 0.19572326666664708,
          "durationTicks": 238,
          "midi": 45,
          "name": "A2",
          "ticks": 278400,
          "time": 228.94688,
          "velocity": 0.8031496062992126
        },
        {
          "duration": 0.19572326666664708,
          "durationTicks": 238,
          "midi": 45,
          "name": "A2",
          "ticks": 278640,
          "time": 229.14424799999998,
          "velocity": 0.8031496062992126
        },
        {
          "duration": 0.19572326666664708,
          "durationTicks": 238,
          "midi": 45,
          "name": "A2",
          "ticks": 278880,
          "time": 229.341616,
          "velocity": 0.8031496062992126
        },
        {
          "duration": 0.19572326666661866,
          "durationTicks": 238,
          "midi": 45,
          "name": "A2",
          "ticks": 279120,
          "time": 229.538984,
          "velocity": 0.8031496062992126
        },
        {
          "duration": 0.19572326666664708,
          "durationTicks": 238,
          "midi": 47,
          "name": "B2",
          "ticks": 279360,
          "time": 229.73635199999998,
          "velocity": 0.8031496062992126
        },
        {
          "duration": 0.19572326666664708,
          "durationTicks": 238,
          "midi": 50,
          "name": "D3",
          "ticks": 279600,
          "time": 229.93372,
          "velocity": 0.8031496062992126
        },
        {
          "duration": 0.19572326666664708,
          "durationTicks": 238,
          "midi": 52,
          "name": "E3",
          "ticks": 279840,
          "time": 230.13108799999998,
          "velocity": 0.8031496062992126
        },
        {
          "duration": 0.5904592666666417,
          "durationTicks": 718,
          "midi": 54,
          "name": "F#3",
          "ticks": 280080,
          "time": 230.328456,
          "velocity": 0.8031496062992126
        },
        {
          "duration": 0.19572326666664708,
          "durationTicks": 238,
          "midi": 43,
          "name": "G2",
          "ticks": 280800,
          "time": 230.92056,
          "velocity": 0.8031496062992126
        },
        {
          "duration": 0.19572326666664708,
          "durationTicks": 238,
          "midi": 43,
          "name": "G2",
          "ticks": 281040,
          "time": 231.11792799999998,
          "velocity": 0.8031496062992126
        },
        {
          "duration": 0.19572326666664708,
          "durationTicks": 238,
          "midi": 43,
          "name": "G2",
          "ticks": 281280,
          "time": 231.315296,
          "velocity": 0.8031496062992126
        },
        {
          "duration": 0.19572326666664708,
          "durationTicks": 238,
          "midi": 43,
          "name": "G2",
          "ticks": 281520,
          "time": 231.51266399999997,
          "velocity": 0.8031496062992126
        },
        {
          "duration": 0.19572326666664708,
          "durationTicks": 238,
          "midi": 43,
          "name": "G2",
          "ticks": 281760,
          "time": 231.71003199999998,
          "velocity": 0.8031496062992126
        },
        {
          "duration": 0.19572326666664708,
          "durationTicks": 238,
          "midi": 43,
          "name": "G2",
          "ticks": 282000,
          "time": 231.9074,
          "velocity": 0.8031496062992126
        },
        {
          "duration": 0.19572326666664708,
          "durationTicks": 238,
          "midi": 43,
          "name": "G2",
          "ticks": 282240,
          "time": 232.10476799999998,
          "velocity": 0.8031496062992126
        },
        {
          "duration": 0.19572326666664708,
          "durationTicks": 238,
          "midi": 43,
          "name": "G2",
          "ticks": 282480,
          "time": 232.302136,
          "velocity": 0.8031496062992126
        },
        {
          "duration": 0.19572326666664708,
          "durationTicks": 238,
          "midi": 43,
          "name": "G2",
          "ticks": 282720,
          "time": 232.49950399999997,
          "velocity": 0.8031496062992126
        },
        {
          "duration": 0.19572326666664708,
          "durationTicks": 238,
          "midi": 43,
          "name": "G2",
          "ticks": 282960,
          "time": 232.69687199999998,
          "velocity": 0.8031496062992126
        },
        {
          "duration": 0.19572326666664708,
          "durationTicks": 238,
          "midi": 43,
          "name": "G2",
          "ticks": 283200,
          "time": 232.89424,
          "velocity": 0.8031496062992126
        },
        {
          "duration": 0.19572326666664708,
          "durationTicks": 238,
          "midi": 43,
          "name": "G2",
          "ticks": 283440,
          "time": 233.09160799999998,
          "velocity": 0.8031496062992126
        },
        {
          "duration": 0.19572326666664708,
          "durationTicks": 238,
          "midi": 43,
          "name": "G2",
          "ticks": 283680,
          "time": 233.288976,
          "velocity": 0.8031496062992126
        },
        {
          "duration": 0.19572326666664708,
          "durationTicks": 238,
          "midi": 40,
          "name": "E2",
          "ticks": 283920,
          "time": 233.48634399999997,
          "velocity": 0.8031496062992126
        },
        {
          "duration": 0.19572326666664708,
          "durationTicks": 238,
          "midi": 43,
          "name": "G2",
          "ticks": 284160,
          "time": 233.68371199999999,
          "velocity": 0.8031496062992126
        },
        {
          "duration": 0.19572326666664708,
          "durationTicks": 238,
          "midi": 43,
          "name": "G2",
          "ticks": 284400,
          "time": 233.88108,
          "velocity": 0.8031496062992126
        },
        {
          "duration": 0.19572326666664708,
          "durationTicks": 238,
          "midi": 43,
          "name": "G2",
          "ticks": 284640,
          "time": 234.07844799999998,
          "velocity": 0.8031496062992126
        },
        {
          "duration": 0.19572326666664708,
          "durationTicks": 238,
          "midi": 43,
          "name": "G2",
          "ticks": 284880,
          "time": 234.275816,
          "velocity": 0.8031496062992126
        },
        {
          "duration": 0.19572326666664708,
          "durationTicks": 238,
          "midi": 43,
          "name": "G2",
          "ticks": 285120,
          "time": 234.47318399999997,
          "velocity": 0.8031496062992126
        },
        {
          "duration": 0.19572326666664708,
          "durationTicks": 238,
          "midi": 43,
          "name": "G2",
          "ticks": 285360,
          "time": 234.670552,
          "velocity": 0.8031496062992126
        },
        {
          "duration": 0.19572326666664708,
          "durationTicks": 238,
          "midi": 43,
          "name": "G2",
          "ticks": 285600,
          "time": 234.86792,
          "velocity": 0.8031496062992126
        },
        {
          "duration": 0.19572326666664708,
          "durationTicks": 238,
          "midi": 43,
          "name": "G2",
          "ticks": 285840,
          "time": 235.06528799999998,
          "velocity": 0.8031496062992126
        },
        {
          "duration": 0.19572326666664708,
          "durationTicks": 238,
          "midi": 43,
          "name": "G2",
          "ticks": 286080,
          "time": 235.262656,
          "velocity": 0.8031496062992126
        },
        {
          "duration": 0.19572326666664708,
          "durationTicks": 238,
          "midi": 43,
          "name": "G2",
          "ticks": 286320,
          "time": 235.46002399999998,
          "velocity": 0.8031496062992126
        },
        {
          "duration": 0.19572326666664708,
          "durationTicks": 238,
          "midi": 43,
          "name": "G2",
          "ticks": 286560,
          "time": 235.657392,
          "velocity": 0.8031496062992126
        },
        {
          "duration": 0.19572326666661866,
          "durationTicks": 238,
          "midi": 43,
          "name": "G2",
          "ticks": 286800,
          "time": 235.85476,
          "velocity": 0.8031496062992126
        },
        {
          "duration": 0.19572326666664708,
          "durationTicks": 238,
          "midi": 45,
          "name": "A2",
          "ticks": 287040,
          "time": 236.05212799999998,
          "velocity": 0.8031496062992126
        },
        {
          "duration": 0.19572326666664708,
          "durationTicks": 238,
          "midi": 47,
          "name": "B2",
          "ticks": 287280,
          "time": 236.249496,
          "velocity": 0.8031496062992126
        },
        {
          "duration": 0.19572326666664708,
          "durationTicks": 238,
          "midi": 50,
          "name": "D3",
          "ticks": 287520,
          "time": 236.44686399999998,
          "velocity": 0.8031496062992126
        },
        {
          "duration": 0.19572326666664708,
          "durationTicks": 238,
          "midi": 52,
          "name": "E3",
          "ticks": 287760,
          "time": 236.644232,
          "velocity": 0.8031496062992126
        },
        {
          "duration": 0.19572326666664708,
          "durationTicks": 238,
          "midi": 47,
          "name": "B2",
          "ticks": 288000,
          "time": 236.84159999999997,
          "velocity": 0.8031496062992126
        },
        {
          "duration": 0.19572326666664708,
          "durationTicks": 238,
          "midi": 47,
          "name": "B2",
          "ticks": 288240,
          "time": 237.03896799999998,
          "velocity": 0.8031496062992126
        },
        {
          "duration": 0.19572326666664708,
          "durationTicks": 238,
          "midi": 47,
          "name": "B2",
          "ticks": 288480,
          "time": 237.236336,
          "velocity": 0.8031496062992126
        },
        {
          "duration": 0.19572326666664708,
          "durationTicks": 238,
          "midi": 47,
          "name": "B2",
          "ticks": 288720,
          "time": 237.43370399999998,
          "velocity": 0.8031496062992126
        },
        {
          "duration": 0.19572326666664708,
          "durationTicks": 238,
          "midi": 47,
          "name": "B2",
          "ticks": 288960,
          "time": 237.631072,
          "velocity": 0.8031496062992126
        },
        {
          "duration": 0.19572326666664708,
          "durationTicks": 238,
          "midi": 47,
          "name": "B2",
          "ticks": 289200,
          "time": 237.82843999999997,
          "velocity": 0.8031496062992126
        },
        {
          "duration": 0.19572326666664708,
          "durationTicks": 238,
          "midi": 47,
          "name": "B2",
          "ticks": 289440,
          "time": 238.02580799999998,
          "velocity": 0.8031496062992126
        },
        {
          "duration": 0.19572326666664708,
          "durationTicks": 238,
          "midi": 47,
          "name": "B2",
          "ticks": 289680,
          "time": 238.223176,
          "velocity": 0.8031496062992126
        },
        {
          "duration": 0.19572326666664708,
          "durationTicks": 238,
          "midi": 47,
          "name": "B2",
          "ticks": 289920,
          "time": 238.42054399999998,
          "velocity": 0.8031496062992126
        },
        {
          "duration": 0.19572326666664708,
          "durationTicks": 238,
          "midi": 47,
          "name": "B2",
          "ticks": 290160,
          "time": 238.617912,
          "velocity": 0.8031496062992126
        },
        {
          "duration": 0.19572326666664708,
          "durationTicks": 238,
          "midi": 47,
          "name": "B2",
          "ticks": 290400,
          "time": 238.81527999999997,
          "velocity": 0.8031496062992126
        },
        {
          "duration": 0.19572326666664708,
          "durationTicks": 238,
          "midi": 47,
          "name": "B2",
          "ticks": 290640,
          "time": 239.01264799999998,
          "velocity": 0.8031496062992126
        },
        {
          "duration": 0.19572326666664708,
          "durationTicks": 238,
          "midi": 47,
          "name": "B2",
          "ticks": 290880,
          "time": 239.210016,
          "velocity": 0.8031496062992126
        },
        {
          "duration": 0.19572326666664708,
          "durationTicks": 238,
          "midi": 50,
          "name": "D3",
          "ticks": 291120,
          "time": 239.40738399999998,
          "velocity": 0.8031496062992126
        },
        {
          "duration": 0.19572326666664708,
          "durationTicks": 238,
          "midi": 52,
          "name": "E3",
          "ticks": 291360,
          "time": 239.604752,
          "velocity": 0.8031496062992126
        },
        {
          "duration": 0.5904592666666701,
          "durationTicks": 718,
          "midi": 54,
          "name": "F#3",
          "ticks": 291600,
          "time": 239.80211999999997,
          "velocity": 0.8031496062992126
        },
        {
          "duration": 0.19572326666664708,
          "durationTicks": 238,
          "midi": 47,
          "name": "B2",
          "ticks": 292320,
          "time": 240.39422399999998,
          "velocity": 0.8031496062992126
        },
        {
          "duration": 0.19572326666664708,
          "durationTicks": 238,
          "midi": 47,
          "name": "B2",
          "ticks": 292560,
          "time": 240.591592,
          "velocity": 0.8031496062992126
        },
        {
          "duration": 0.19572326666664708,
          "durationTicks": 238,
          "midi": 47,
          "name": "B2",
          "ticks": 292800,
          "time": 240.78895999999997,
          "velocity": 0.8031496062992126
        },
        {
          "duration": 0.19572326666664708,
          "durationTicks": 238,
          "midi": 47,
          "name": "B2",
          "ticks": 293040,
          "time": 240.986328,
          "velocity": 0.8031496062992126
        },
        {
          "duration": 0.19572326666664708,
          "durationTicks": 238,
          "midi": 47,
          "name": "B2",
          "ticks": 293280,
          "time": 241.183696,
          "velocity": 0.8031496062992126
        },
        {
          "duration": 0.19572326666664708,
          "durationTicks": 238,
          "midi": 47,
          "name": "B2",
          "ticks": 293520,
          "time": 241.38106399999998,
          "velocity": 0.8031496062992126
        },
        {
          "duration": 0.19572326666664708,
          "durationTicks": 238,
          "midi": 47,
          "name": "B2",
          "ticks": 293760,
          "time": 241.578432,
          "velocity": 0.8031496062992126
        },
        {
          "duration": 0.19572326666664708,
          "durationTicks": 238,
          "midi": 47,
          "name": "B2",
          "ticks": 294000,
          "time": 241.77579999999998,
          "velocity": 0.8031496062992126
        },
        {
          "duration": 0.19572326666664708,
          "durationTicks": 238,
          "midi": 47,
          "name": "B2",
          "ticks": 294240,
          "time": 241.973168,
          "velocity": 0.8031496062992126
        },
        {
          "duration": 0.19572326666661866,
          "durationTicks": 238,
          "midi": 47,
          "name": "B2",
          "ticks": 294480,
          "time": 242.170536,
          "velocity": 0.8031496062992126
        },
        {
          "duration": 0.19572326666664708,
          "durationTicks": 238,
          "midi": 47,
          "name": "B2",
          "ticks": 294720,
          "time": 242.36790399999998,
          "velocity": 0.8031496062992126
        },
        {
          "duration": 0.19572326666664708,
          "durationTicks": 238,
          "midi": 50,
          "name": "D3",
          "ticks": 294960,
          "time": 242.565272,
          "velocity": 0.8031496062992126
        },
        {
          "duration": 0.19572326666664708,
          "durationTicks": 238,
          "midi": 52,
          "name": "E3",
          "ticks": 295200,
          "time": 242.76263999999998,
          "velocity": 0.8031496062992126
        },
        {
          "duration": 0.19572326666664708,
          "durationTicks": 238,
          "midi": 54,
          "name": "F#3",
          "ticks": 295440,
          "time": 242.960008,
          "velocity": 0.8031496062992126
        },
        {
          "duration": 0.19572326666661866,
          "durationTicks": 238,
          "midi": 48,
          "name": "C3",
          "ticks": 295680,
          "time": 243.157376,
          "velocity": 0.8031496062992126
        },
        {
          "duration": 0.19572326666664708,
          "durationTicks": 238,
          "midi": 48,
          "name": "C3",
          "ticks": 295920,
          "time": 243.35474399999998,
          "velocity": 0.8031496062992126
        },
        {
          "duration": 0.19572326666664708,
          "durationTicks": 238,
          "midi": 48,
          "name": "C3",
          "ticks": 296160,
          "time": 243.552112,
          "velocity": 0.8031496062992126
        },
        {
          "duration": 0.19572326666664708,
          "durationTicks": 238,
          "midi": 48,
          "name": "C3",
          "ticks": 296400,
          "time": 243.74947999999998,
          "velocity": 0.8031496062992126
        },
        {
          "duration": 0.19572326666664708,
          "durationTicks": 238,
          "midi": 48,
          "name": "C3",
          "ticks": 296640,
          "time": 243.946848,
          "velocity": 0.8031496062992126
        },
        {
          "duration": 0.19572326666664708,
          "durationTicks": 238,
          "midi": 48,
          "name": "C3",
          "ticks": 296880,
          "time": 244.14421599999997,
          "velocity": 0.8031496062992126
        },
        {
          "duration": 0.19572326666664708,
          "durationTicks": 238,
          "midi": 48,
          "name": "C3",
          "ticks": 297120,
          "time": 244.34158399999998,
          "velocity": 0.8031496062992126
        },
        {
          "duration": 0.19572326666664708,
          "durationTicks": 238,
          "midi": 48,
          "name": "C3",
          "ticks": 297360,
          "time": 244.538952,
          "velocity": 0.8031496062992126
        },
        {
          "duration": 0.19572326666664708,
          "durationTicks": 238,
          "midi": 48,
          "name": "C3",
          "ticks": 297600,
          "time": 244.73631999999998,
          "velocity": 0.8031496062992126
        },
        {
          "duration": 0.19572326666664708,
          "durationTicks": 238,
          "midi": 48,
          "name": "C3",
          "ticks": 297840,
          "time": 244.933688,
          "velocity": 0.8031496062992126
        },
        {
          "duration": 0.19572326666664708,
          "durationTicks": 238,
          "midi": 48,
          "name": "C3",
          "ticks": 298080,
          "time": 245.13105599999997,
          "velocity": 0.8031496062992126
        },
        {
          "duration": 0.19572326666664708,
          "durationTicks": 238,
          "midi": 48,
          "name": "C3",
          "ticks": 298320,
          "time": 245.32842399999998,
          "velocity": 0.8031496062992126
        },
        {
          "duration": 0.19572326666664708,
          "durationTicks": 238,
          "midi": 48,
          "name": "C3",
          "ticks": 298560,
          "time": 245.525792,
          "velocity": 0.8031496062992126
        },
        {
          "duration": 0.19572326666664708,
          "durationTicks": 238,
          "midi": 50,
          "name": "D3",
          "ticks": 298800,
          "time": 245.72315999999998,
          "velocity": 0.8031496062992126
        },
        {
          "duration": 0.19572326666664708,
          "durationTicks": 238,
          "midi": 52,
          "name": "E3",
          "ticks": 299040,
          "time": 245.920528,
          "velocity": 0.8031496062992126
        },
        {
          "duration": 0.19572326666664708,
          "durationTicks": 238,
          "midi": 54,
          "name": "F#3",
          "ticks": 299280,
          "time": 246.11789599999997,
          "velocity": 0.8031496062992126
        },
        {
          "duration": 0.19572326666664708,
          "durationTicks": 238,
          "midi": 47,
          "name": "B2",
          "ticks": 299520,
          "time": 246.31526399999998,
          "velocity": 0.8031496062992126
        },
        {
          "duration": 0.19572326666664708,
          "durationTicks": 238,
          "midi": 47,
          "name": "B2",
          "ticks": 299760,
          "time": 246.512632,
          "velocity": 0.8031496062992126
        },
        {
          "duration": 0.19572326666664708,
          "durationTicks": 238,
          "midi": 47,
          "name": "B2",
          "ticks": 300000,
          "time": 246.70999999999998,
          "velocity": 0.8031496062992126
        },
        {
          "duration": 0.19572326666664708,
          "durationTicks": 238,
          "midi": 47,
          "name": "B2",
          "ticks": 300240,
          "time": 246.907368,
          "velocity": 0.8031496062992126
        },
        {
          "duration": 0.19572326666664708,
          "durationTicks": 238,
          "midi": 47,
          "name": "B2",
          "ticks": 300480,
          "time": 247.10473599999997,
          "velocity": 0.8031496062992126
        },
        {
          "duration": 0.19572326666664708,
          "durationTicks": 238,
          "midi": 47,
          "name": "B2",
          "ticks": 300720,
          "time": 247.30210399999999,
          "velocity": 0.8031496062992126
        },
        {
          "duration": 0.19572326666664708,
          "durationTicks": 238,
          "midi": 47,
          "name": "B2",
          "ticks": 300960,
          "time": 247.499472,
          "velocity": 0.8031496062992126
        },
        {
          "duration": 0.19572326666664708,
          "durationTicks": 238,
          "midi": 47,
          "name": "B2",
          "ticks": 301200,
          "time": 247.69683999999998,
          "velocity": 0.8031496062992126
        },
        {
          "duration": 0.19572326666664708,
          "durationTicks": 238,
          "midi": 47,
          "name": "B2",
          "ticks": 301440,
          "time": 247.894208,
          "velocity": 0.8031496062992126
        },
        {
          "duration": 0.19572326666664708,
          "durationTicks": 238,
          "midi": 47,
          "name": "B2",
          "ticks": 301680,
          "time": 248.09157599999998,
          "velocity": 0.8031496062992126
        },
        {
          "duration": 0.19572326666664708,
          "durationTicks": 238,
          "midi": 47,
          "name": "B2",
          "ticks": 301920,
          "time": 248.288944,
          "velocity": 0.8031496062992126
        },
        {
          "duration": 0.19572326666661866,
          "durationTicks": 238,
          "midi": 47,
          "name": "B2",
          "ticks": 302160,
          "time": 248.486312,
          "velocity": 0.8031496062992126
        },
        {
          "duration": 0.19572326666664708,
          "durationTicks": 238,
          "midi": 47,
          "name": "B2",
          "ticks": 302400,
          "time": 248.68367999999998,
          "velocity": 0.8031496062992126
        },
        {
          "duration": 0.19572326666664708,
          "durationTicks": 238,
          "midi": 50,
          "name": "D3",
          "ticks": 302640,
          "time": 248.881048,
          "velocity": 0.8031496062992126
        },
        {
          "duration": 0.19572326666664708,
          "durationTicks": 238,
          "midi": 52,
          "name": "E3",
          "ticks": 302880,
          "time": 249.07841599999998,
          "velocity": 0.8031496062992126
        },
        {
          "duration": 0.19572326666664708,
          "durationTicks": 238,
          "midi": 52,
          "name": "E3",
          "ticks": 303120,
          "time": 249.275784,
          "velocity": 0.8031496062992126
        },
        {
          "duration": 0.3930912666666586,
          "durationTicks": 478,
          "midi": 54,
          "name": "F#3",
          "ticks": 303360,
          "time": 249.47315199999997,
          "velocity": 0.8031496062992126
        },
        {
          "duration": 0.19572326666664708,
          "durationTicks": 238,
          "midi": 45,
          "name": "A2",
          "ticks": 303840,
          "time": 249.867888,
          "velocity": 0.8031496062992126
        },
        {
          "duration": 0.19572326666664708,
          "durationTicks": 238,
          "midi": 45,
          "name": "A2",
          "ticks": 304080,
          "time": 250.06525599999998,
          "velocity": 0.8031496062992126
        },
        {
          "duration": 0.19572326666664708,
          "durationTicks": 238,
          "midi": 45,
          "name": "A2",
          "ticks": 304320,
          "time": 250.262624,
          "velocity": 0.8031496062992126
        },
        {
          "duration": 0.19572326666664708,
          "durationTicks": 238,
          "midi": 45,
          "name": "A2",
          "ticks": 304560,
          "time": 250.45999199999997,
          "velocity": 0.8031496062992126
        },
        {
          "duration": 0.19572326666664708,
          "durationTicks": 238,
          "midi": 45,
          "name": "A2",
          "ticks": 304800,
          "time": 250.65735999999998,
          "velocity": 0.8031496062992126
        },
        {
          "duration": 0.19572326666664708,
          "durationTicks": 238,
          "midi": 45,
          "name": "A2",
          "ticks": 305040,
          "time": 250.854728,
          "velocity": 0.8031496062992126
        },
        {
          "duration": 0.19572326666664708,
          "durationTicks": 238,
          "midi": 45,
          "name": "A2",
          "ticks": 305280,
          "time": 251.05209599999998,
          "velocity": 0.8031496062992126
        },
        {
          "duration": 0.19572326666664708,
          "durationTicks": 238,
          "midi": 45,
          "name": "A2",
          "ticks": 305520,
          "time": 251.249464,
          "velocity": 0.8031496062992126
        },
        {
          "duration": 0.19572326666664708,
          "durationTicks": 238,
          "midi": 45,
          "name": "A2",
          "ticks": 305760,
          "time": 251.44683199999997,
          "velocity": 0.8031496062992126
        },
        {
          "duration": 0.19572326666664708,
          "durationTicks": 238,
          "midi": 45,
          "name": "A2",
          "ticks": 306000,
          "time": 251.64419999999998,
          "velocity": 0.8031496062992126
        },
        {
          "duration": 0.0970392666666271,
          "durationTicks": 118,
          "midi": 45,
          "name": "A2",
          "ticks": 306240,
          "time": 251.841568,
          "velocity": 0.8031496062992126
        },
        {
          "duration": 0.09703926666665552,
          "durationTicks": 118,
          "midi": 47,
          "name": "B2",
          "ticks": 306360,
          "time": 251.940252,
          "velocity": 0.8031496062992126
        },
        {
          "duration": 0.19572326666664708,
          "durationTicks": 238,
          "midi": 50,
          "name": "D3",
          "ticks": 306480,
          "time": 252.03893599999998,
          "velocity": 0.8031496062992126
        },
        {
          "duration": 0.19572326666664708,
          "durationTicks": 238,
          "midi": 52,
          "name": "E3",
          "ticks": 306720,
          "time": 252.236304,
          "velocity": 0.8031496062992126
        },
        {
          "duration": 0.5904592666666701,
          "durationTicks": 718,
          "midi": 47,
          "name": "B2",
          "ticks": 306960,
          "time": 252.43367199999997,
          "velocity": 0.8031496062992126
        },
        {
          "duration": 0.19572326666664708,
          "durationTicks": 238,
          "midi": 43,
          "name": "G2",
          "ticks": 307680,
          "time": 253.02577599999998,
          "velocity": 0.8031496062992126
        },
        {
          "duration": 0.19572326666664708,
          "durationTicks": 238,
          "midi": 43,
          "name": "G2",
          "ticks": 307920,
          "time": 253.223144,
          "velocity": 0.8031496062992126
        },
        {
          "duration": 0.19572326666664708,
          "durationTicks": 238,
          "midi": 43,
          "name": "G2",
          "ticks": 308160,
          "time": 253.42051199999997,
          "velocity": 0.8031496062992126
        },
        {
          "duration": 0.19572326666664708,
          "durationTicks": 238,
          "midi": 43,
          "name": "G2",
          "ticks": 308400,
          "time": 253.61787999999999,
          "velocity": 0.8031496062992126
        },
        {
          "duration": 0.19572326666664708,
          "durationTicks": 238,
          "midi": 43,
          "name": "G2",
          "ticks": 308640,
          "time": 253.815248,
          "velocity": 0.8031496062992126
        },
        {
          "duration": 0.19572326666664708,
          "durationTicks": 238,
          "midi": 43,
          "name": "G2",
          "ticks": 308880,
          "time": 254.01261599999998,
          "velocity": 0.8031496062992126
        },
        {
          "duration": 0.19572326666664708,
          "durationTicks": 238,
          "midi": 43,
          "name": "G2",
          "ticks": 309120,
          "time": 254.209984,
          "velocity": 0.8031496062992126
        },
        {
          "duration": 0.19572326666664708,
          "durationTicks": 238,
          "midi": 43,
          "name": "G2",
          "ticks": 309360,
          "time": 254.40735199999997,
          "velocity": 0.8031496062992126
        },
        {
          "duration": 0.19572326666664708,
          "durationTicks": 238,
          "midi": 43,
          "name": "G2",
          "ticks": 309600,
          "time": 254.60472,
          "velocity": 0.8031496062992126
        },
        {
          "duration": 0.19572326666661866,
          "durationTicks": 238,
          "midi": 43,
          "name": "G2",
          "ticks": 309840,
          "time": 254.802088,
          "velocity": 0.8031496062992126
        },
        {
          "duration": 0.09703926666665552,
          "durationTicks": 118,
          "midi": 45,
          "name": "A2",
          "ticks": 310080,
          "time": 254.99945599999998,
          "velocity": 0.8031496062992126
        },
        {
          "duration": 0.09703926666665552,
          "durationTicks": 118,
          "midi": 47,
          "name": "B2",
          "ticks": 310200,
          "time": 255.09813999999997,
          "velocity": 0.8031496062992126
        },
        {
          "duration": 0.19572326666664708,
          "durationTicks": 238,
          "midi": 50,
          "name": "D3",
          "ticks": 310320,
          "time": 255.196824,
          "velocity": 0.8031496062992126
        },
        {
          "duration": 0.19572326666664708,
          "durationTicks": 238,
          "midi": 52,
          "name": "E3",
          "ticks": 310560,
          "time": 255.39419199999998,
          "velocity": 0.8031496062992126
        },
        {
          "duration": 0.5904592666666701,
          "durationTicks": 718,
          "midi": 43,
          "name": "G2",
          "ticks": 310800,
          "time": 255.59156,
          "velocity": 0.8031496062992126
        },
        {
          "duration": 0.1957232666666755,
          "durationTicks": 238,
          "midi": 43,
          "name": "G2",
          "ticks": 311520,
          "time": 256.18366399999996,
          "velocity": 0.8031496062992126
        },
        {
          "duration": 0.19572326666661866,
          "durationTicks": 238,
          "midi": 43,
          "name": "G2",
          "ticks": 311760,
          "time": 256.381032,
          "velocity": 0.8031496062992126
        },
        {
          "duration": 0.19572326666661866,
          "durationTicks": 238,
          "midi": 43,
          "name": "G2",
          "ticks": 312000,
          "time": 256.5784,
          "velocity": 0.8031496062992126
        },
        {
          "duration": 0.1957232666666755,
          "durationTicks": 238,
          "midi": 43,
          "name": "G2",
          "ticks": 312240,
          "time": 256.77576799999997,
          "velocity": 0.8031496062992126
        },
        {
          "duration": 0.19572326666661866,
          "durationTicks": 238,
          "midi": 43,
          "name": "G2",
          "ticks": 312480,
          "time": 256.973136,
          "velocity": 0.8031496062992126
        },
        {
          "duration": 0.19572326666661866,
          "durationTicks": 238,
          "midi": 43,
          "name": "G2",
          "ticks": 312720,
          "time": 257.170504,
          "velocity": 0.8031496062992126
        },
        {
          "duration": 0.1957232666666755,
          "durationTicks": 238,
          "midi": 43,
          "name": "G2",
          "ticks": 312960,
          "time": 257.367872,
          "velocity": 0.8031496062992126
        },
        {
          "duration": 0.1957232666666755,
          "durationTicks": 238,
          "midi": 43,
          "name": "G2",
          "ticks": 313200,
          "time": 257.56523999999996,
          "velocity": 0.8031496062992126
        },
        {
          "duration": 0.19572326666661866,
          "durationTicks": 238,
          "midi": 43,
          "name": "G2",
          "ticks": 313440,
          "time": 257.762608,
          "velocity": 0.8031496062992126
        },
        {
          "duration": 0.0970392666666271,
          "durationTicks": 118,
          "midi": 45,
          "name": "A2",
          "ticks": 313680,
          "time": 257.959976,
          "velocity": 0.8031496062992126
        },
        {
          "duration": 0.0970392666666271,
          "durationTicks": 118,
          "midi": 47,
          "name": "B2",
          "ticks": 313800,
          "time": 258.05866,
          "velocity": 0.8031496062992126
        },
        {
          "duration": 0.09703926666668394,
          "durationTicks": 118,
          "midi": 50,
          "name": "D3",
          "ticks": 313920,
          "time": 258.15734399999997,
          "velocity": 0.8031496062992126
        },
        {
          "duration": 0.09703926666668394,
          "durationTicks": 118,
          "midi": 52,
          "name": "E3",
          "ticks": 314040,
          "time": 258.25602799999996,
          "velocity": 0.8031496062992126
        },
        {
          "duration": 0.19572326666661866,
          "durationTicks": 238,
          "midi": 50,
          "name": "D3",
          "ticks": 314160,
          "time": 258.354712,
          "velocity": 0.8031496062992126
        },
        {
          "duration": 0.19572326666661866,
          "durationTicks": 238,
          "midi": 47,
          "name": "B2",
          "ticks": 314400,
          "time": 258.55208,
          "velocity": 0.8031496062992126
        },
        {
          "duration": 0.1957232666666755,
          "durationTicks": 238,
          "midi": 54,
          "name": "F#3",
          "ticks": 314640,
          "time": 258.749448,
          "velocity": 0.8031496062992126
        },
        {
          "duration": 0.19572326666661866,
          "durationTicks": 238,
          "midi": 47,
          "name": "B2",
          "ticks": 314880,
          "time": 258.946816,
          "velocity": 0.8031496062992126
        },
        {
          "duration": 0.19572326666661866,
          "durationTicks": 238,
          "midi": 47,
          "name": "B2",
          "ticks": 315120,
          "time": 259.144184,
          "velocity": 0.8031496062992126
        },
        {
          "duration": 0.1957232666666755,
          "durationTicks": 238,
          "midi": 47,
          "name": "B2",
          "ticks": 315360,
          "time": 259.341552,
          "velocity": 0.8031496062992126
        },
        {
          "duration": 0.1957232666666755,
          "durationTicks": 238,
          "midi": 47,
          "name": "B2",
          "ticks": 315600,
          "time": 259.53891999999996,
          "velocity": 0.8031496062992126
        },
        {
          "duration": 0.19572326666661866,
          "durationTicks": 238,
          "midi": 47,
          "name": "B2",
          "ticks": 315840,
          "time": 259.736288,
          "velocity": 0.8031496062992126
        },
        {
          "duration": 0.19572326666661866,
          "durationTicks": 238,
          "midi": 47,
          "name": "B2",
          "ticks": 316080,
          "time": 259.933656,
          "velocity": 0.8031496062992126
        },
        {
          "duration": 0.1957232666666755,
          "durationTicks": 238,
          "midi": 47,
          "name": "B2",
          "ticks": 316320,
          "time": 260.13102399999997,
          "velocity": 0.8031496062992126
        },
        {
          "duration": 0.19572326666661866,
          "durationTicks": 238,
          "midi": 47,
          "name": "B2",
          "ticks": 316560,
          "time": 260.328392,
          "velocity": 0.8031496062992126
        },
        {
          "duration": 0.19572326666661866,
          "durationTicks": 238,
          "midi": 47,
          "name": "B2",
          "ticks": 316800,
          "time": 260.52576,
          "velocity": 0.8031496062992126
        },
        {
          "duration": 0.1957232666666755,
          "durationTicks": 238,
          "midi": 47,
          "name": "B2",
          "ticks": 317040,
          "time": 260.723128,
          "velocity": 0.8031496062992126
        },
        {
          "duration": 0.1957232666666755,
          "durationTicks": 238,
          "midi": 47,
          "name": "B2",
          "ticks": 317280,
          "time": 260.92049599999996,
          "velocity": 0.8031496062992126
        },
        {
          "duration": 0.19572326666661866,
          "durationTicks": 238,
          "midi": 47,
          "name": "B2",
          "ticks": 317520,
          "time": 261.117864,
          "velocity": 0.8031496062992126
        },
        {
          "duration": 0.1957232666666755,
          "durationTicks": 238,
          "midi": 47,
          "name": "B2",
          "ticks": 317760,
          "time": 261.315232,
          "velocity": 0.8031496062992126
        },
        {
          "duration": 0.1957232666666755,
          "durationTicks": 238,
          "midi": 50,
          "name": "D3",
          "ticks": 318000,
          "time": 261.51259999999996,
          "velocity": 0.8031496062992126
        },
        {
          "duration": 0.19572326666661866,
          "durationTicks": 238,
          "midi": 52,
          "name": "E3",
          "ticks": 318240,
          "time": 261.709968,
          "velocity": 0.8031496062992126
        },
        {
          "duration": 0.5904592666666417,
          "durationTicks": 718,
          "midi": 54,
          "name": "F#3",
          "ticks": 318480,
          "time": 261.907336,
          "velocity": 0.8031496062992126
        },
        {
          "duration": 0.19572326666661866,
          "durationTicks": 238,
          "midi": 47,
          "name": "B2",
          "ticks": 319200,
          "time": 262.49944,
          "velocity": 0.8031496062992126
        },
        {
          "duration": 0.1957232666666755,
          "durationTicks": 238,
          "midi": 47,
          "name": "B2",
          "ticks": 319440,
          "time": 262.696808,
          "velocity": 0.8031496062992126
        },
        {
          "duration": 0.1957232666666755,
          "durationTicks": 238,
          "midi": 47,
          "name": "B2",
          "ticks": 319680,
          "time": 262.89417599999996,
          "velocity": 0.8031496062992126
        },
        {
          "duration": 0.19572326666661866,
          "durationTicks": 238,
          "midi": 47,
          "name": "B2",
          "ticks": 319920,
          "time": 263.091544,
          "velocity": 0.8031496062992126
        },
        {
          "duration": 0.1957232666666755,
          "durationTicks": 238,
          "midi": 47,
          "name": "B2",
          "ticks": 320160,
          "time": 263.288912,
          "velocity": 0.8031496062992126
        },
        {
          "duration": 0.1957232666666755,
          "durationTicks": 238,
          "midi": 47,
          "name": "B2",
          "ticks": 320400,
          "time": 263.48627999999997,
          "velocity": 0.8031496062992126
        },
        {
          "duration": 0.19572326666661866,
          "durationTicks": 238,
          "midi": 47,
          "name": "B2",
          "ticks": 320640,
          "time": 263.683648,
          "velocity": 0.8031496062992126
        },
        {
          "duration": 0.19572326666661866,
          "durationTicks": 238,
          "midi": 47,
          "name": "B2",
          "ticks": 320880,
          "time": 263.881016,
          "velocity": 0.8031496062992126
        },
        {
          "duration": 0.1957232666666755,
          "durationTicks": 238,
          "midi": 47,
          "name": "B2",
          "ticks": 321120,
          "time": 264.07838399999997,
          "velocity": 0.8031496062992126
        },
        {
          "duration": 0.19572326666661866,
          "durationTicks": 238,
          "midi": 47,
          "name": "B2",
          "ticks": 321360,
          "time": 264.275752,
          "velocity": 0.8031496062992126
        },
        {
          "duration": 0.19572326666661866,
          "durationTicks": 238,
          "midi": 47,
          "name": "B2",
          "ticks": 321600,
          "time": 264.47312,
          "velocity": 0.8031496062992126
        },
        {
          "duration": 0.1957232666666755,
          "durationTicks": 238,
          "midi": 50,
          "name": "D3",
          "ticks": 321840,
          "time": 264.670488,
          "velocity": 0.8031496062992126
        },
        {
          "duration": 0.1957232666666755,
          "durationTicks": 238,
          "midi": 52,
          "name": "E3",
          "ticks": 322080,
          "time": 264.86785599999996,
          "velocity": 0.8031496062992126
        },
        {
          "duration": 0.19572326666661866,
          "durationTicks": 238,
          "midi": 54,
          "name": "F#3",
          "ticks": 322320,
          "time": 265.065224,
          "velocity": 0.8031496062992126
        },
        {
          "duration": 0.19572326666661866,
          "durationTicks": 238,
          "midi": 48,
          "name": "C3",
          "ticks": 322560,
          "time": 265.262592,
          "velocity": 0.8031496062992126
        },
        {
          "duration": 0.1957232666666755,
          "durationTicks": 238,
          "midi": 48,
          "name": "C3",
          "ticks": 322800,
          "time": 265.45995999999997,
          "velocity": 0.8031496062992126
        },
        {
          "duration": 0.19572326666661866,
          "durationTicks": 238,
          "midi": 48,
          "name": "C3",
          "ticks": 323040,
          "time": 265.657328,
          "velocity": 0.8031496062992126
        },
        {
          "duration": 0.19572326666661866,
          "durationTicks": 238,
          "midi": 48,
          "name": "C3",
          "ticks": 323280,
          "time": 265.854696,
          "velocity": 0.8031496062992126
        },
        {
          "duration": 0.1957232666666755,
          "durationTicks": 238,
          "midi": 48,
          "name": "C3",
          "ticks": 323520,
          "time": 266.052064,
          "velocity": 0.8031496062992126
        },
        {
          "duration": 0.1957232666666755,
          "durationTicks": 238,
          "midi": 48,
          "name": "C3",
          "ticks": 323760,
          "time": 266.24943199999996,
          "velocity": 0.8031496062992126
        },
        {
          "duration": 0.19572326666661866,
          "durationTicks": 238,
          "midi": 48,
          "name": "C3",
          "ticks": 324000,
          "time": 266.4468,
          "velocity": 0.8031496062992126
        },
        {
          "duration": 0.1957232666666755,
          "durationTicks": 238,
          "midi": 48,
          "name": "C3",
          "ticks": 324240,
          "time": 266.644168,
          "velocity": 0.8031496062992126
        },
        {
          "duration": 0.1957232666666755,
          "durationTicks": 238,
          "midi": 48,
          "name": "C3",
          "ticks": 324480,
          "time": 266.84153599999996,
          "velocity": 0.8031496062992126
        },
        {
          "duration": 0.19572326666661866,
          "durationTicks": 238,
          "midi": 48,
          "name": "C3",
          "ticks": 324720,
          "time": 267.038904,
          "velocity": 0.8031496062992126
        },
        {
          "duration": 0.19572326666661866,
          "durationTicks": 238,
          "midi": 48,
          "name": "C3",
          "ticks": 324960,
          "time": 267.236272,
          "velocity": 0.8031496062992126
        },
        {
          "duration": 0.1957232666666755,
          "durationTicks": 238,
          "midi": 48,
          "name": "C3",
          "ticks": 325200,
          "time": 267.43363999999997,
          "velocity": 0.8031496062992126
        },
        {
          "duration": 0.19572326666661866,
          "durationTicks": 238,
          "midi": 48,
          "name": "C3",
          "ticks": 325440,
          "time": 267.631008,
          "velocity": 0.8031496062992126
        },
        {
          "duration": 0.19572326666661866,
          "durationTicks": 238,
          "midi": 50,
          "name": "D3",
          "ticks": 325680,
          "time": 267.828376,
          "velocity": 0.8031496062992126
        },
        {
          "duration": 0.1957232666666755,
          "durationTicks": 238,
          "midi": 52,
          "name": "E3",
          "ticks": 325920,
          "time": 268.025744,
          "velocity": 0.8031496062992126
        },
        {
          "duration": 0.1957232666666755,
          "durationTicks": 238,
          "midi": 54,
          "name": "F#3",
          "ticks": 326160,
          "time": 268.22311199999996,
          "velocity": 0.8031496062992126
        },
        {
          "duration": 0.19572326666661866,
          "durationTicks": 238,
          "midi": 47,
          "name": "B2",
          "ticks": 326400,
          "time": 268.42048,
          "velocity": 0.8031496062992126
        },
        {
          "duration": 0.1957232666666755,
          "durationTicks": 238,
          "midi": 47,
          "name": "B2",
          "ticks": 326640,
          "time": 268.617848,
          "velocity": 0.8031496062992126
        },
        {
          "duration": 0.1957232666666755,
          "durationTicks": 238,
          "midi": 47,
          "name": "B2",
          "ticks": 326880,
          "time": 268.81521599999996,
          "velocity": 0.8031496062992126
        },
        {
          "duration": 0.19572326666661866,
          "durationTicks": 238,
          "midi": 47,
          "name": "B2",
          "ticks": 327120,
          "time": 269.012584,
          "velocity": 0.8031496062992126
        },
        {
          "duration": 0.19572326666661866,
          "durationTicks": 238,
          "midi": 47,
          "name": "B2",
          "ticks": 327360,
          "time": 269.209952,
          "velocity": 0.8031496062992126
        },
        {
          "duration": 0.1957232666666755,
          "durationTicks": 238,
          "midi": 47,
          "name": "B2",
          "ticks": 327600,
          "time": 269.40731999999997,
          "velocity": 0.8031496062992126
        },
        {
          "duration": 0.19572326666661866,
          "durationTicks": 238,
          "midi": 47,
          "name": "B2",
          "ticks": 327840,
          "time": 269.604688,
          "velocity": 0.8031496062992126
        },
        {
          "duration": 0.19572326666661866,
          "durationTicks": 238,
          "midi": 47,
          "name": "B2",
          "ticks": 328080,
          "time": 269.802056,
          "velocity": 0.8031496062992126
        },
        {
          "duration": 0.1957232666666755,
          "durationTicks": 238,
          "midi": 47,
          "name": "B2",
          "ticks": 328320,
          "time": 269.999424,
          "velocity": 0.8031496062992126
        },
        {
          "duration": 0.1957232666666755,
          "durationTicks": 238,
          "midi": 47,
          "name": "B2",
          "ticks": 328560,
          "time": 270.19679199999996,
          "velocity": 0.8031496062992126
        },
        {
          "duration": 0.19572326666661866,
          "durationTicks": 238,
          "midi": 47,
          "name": "B2",
          "ticks": 328800,
          "time": 270.39416,
          "velocity": 0.8031496062992126
        },
        {
          "duration": 0.19572326666661866,
          "durationTicks": 238,
          "midi": 47,
          "name": "B2",
          "ticks": 329040,
          "time": 270.591528,
          "velocity": 0.8031496062992126
        },
        {
          "duration": 0.1957232666666755,
          "durationTicks": 238,
          "midi": 47,
          "name": "B2",
          "ticks": 329280,
          "time": 270.78889599999997,
          "velocity": 0.8031496062992126
        },
        {
          "duration": 0.19572326666661866,
          "durationTicks": 238,
          "midi": 50,
          "name": "D3",
          "ticks": 329520,
          "time": 270.986264,
          "velocity": 0.8031496062992126
        },
        {
          "duration": 0.19572326666661866,
          "durationTicks": 238,
          "midi": 52,
          "name": "E3",
          "ticks": 329760,
          "time": 271.183632,
          "velocity": 0.8031496062992126
        },
        {
          "duration": 0.1957232666666755,
          "durationTicks": 238,
          "midi": 52,
          "name": "E3",
          "ticks": 330000,
          "time": 271.381,
          "velocity": 0.8031496062992126
        },
        {
          "duration": 0.3930912666666586,
          "durationTicks": 478,
          "midi": 54,
          "name": "F#3",
          "ticks": 330240,
          "time": 271.57836799999995,
          "velocity": 0.8031496062992126
        },
        {
          "duration": 0.1957232666666755,
          "durationTicks": 238,
          "midi": 45,
          "name": "A2",
          "ticks": 330720,
          "time": 271.973104,
          "velocity": 0.8031496062992126
        },
        {
          "duration": 0.1957232666666755,
          "durationTicks": 238,
          "midi": 45,
          "name": "A2",
          "ticks": 330960,
          "time": 272.17047199999996,
          "velocity": 0.8031496062992126
        },
        {
          "duration": 0.19572326666661866,
          "durationTicks": 238,
          "midi": 45,
          "name": "A2",
          "ticks": 331200,
          "time": 272.36784,
          "velocity": 0.8031496062992126
        },
        {
          "duration": 0.19572326666661866,
          "durationTicks": 238,
          "midi": 45,
          "name": "A2",
          "ticks": 331440,
          "time": 272.565208,
          "velocity": 0.8031496062992126
        },
        {
          "duration": 0.1957232666666755,
          "durationTicks": 238,
          "midi": 45,
          "name": "A2",
          "ticks": 331680,
          "time": 272.76257599999997,
          "velocity": 0.8031496062992126
        },
        {
          "duration": 0.19572326666661866,
          "durationTicks": 238,
          "midi": 45,
          "name": "A2",
          "ticks": 331920,
          "time": 272.959944,
          "velocity": 0.8031496062992126
        },
        {
          "duration": 0.19572326666661866,
          "durationTicks": 238,
          "midi": 45,
          "name": "A2",
          "ticks": 332160,
          "time": 273.157312,
          "velocity": 0.8031496062992126
        },
        {
          "duration": 0.1957232666666755,
          "durationTicks": 238,
          "midi": 45,
          "name": "A2",
          "ticks": 332400,
          "time": 273.35468,
          "velocity": 0.8031496062992126
        },
        {
          "duration": 0.1957232666666755,
          "durationTicks": 238,
          "midi": 45,
          "name": "A2",
          "ticks": 332640,
          "time": 273.55204799999996,
          "velocity": 0.8031496062992126
        },
        {
          "duration": 0.19572326666661866,
          "durationTicks": 238,
          "midi": 45,
          "name": "A2",
          "ticks": 332880,
          "time": 273.749416,
          "velocity": 0.8031496062992126
        },
        {
          "duration": 0.0970392666666271,
          "durationTicks": 118,
          "midi": 45,
          "name": "A2",
          "ticks": 333120,
          "time": 273.946784,
          "velocity": 0.8031496062992126
        },
        {
          "duration": 0.09703926666668394,
          "durationTicks": 118,
          "midi": 47,
          "name": "B2",
          "ticks": 333240,
          "time": 274.04546799999997,
          "velocity": 0.8031496062992126
        },
        {
          "duration": 0.1957232666666755,
          "durationTicks": 238,
          "midi": 50,
          "name": "D3",
          "ticks": 333360,
          "time": 274.14415199999996,
          "velocity": 0.8031496062992126
        },
        {
          "duration": 0.19572326666661866,
          "durationTicks": 238,
          "midi": 52,
          "name": "E3",
          "ticks": 333600,
          "time": 274.34152,
          "velocity": 0.8031496062992126
        },
        {
          "duration": 0.5904592666666417,
          "durationTicks": 718,
          "midi": 47,
          "name": "B2",
          "ticks": 333840,
          "time": 274.538888,
          "velocity": 0.8031496062992126
        },
        {
          "duration": 2.5641392666666434,
          "durationTicks": 3118,
          "midi": 47,
          "name": "B2",
          "ticks": 334080,
          "time": 274.73625599999997,
          "velocity": 0.8031496062992126
        },
        {
          "duration": 0.19572326666661866,
          "durationTicks": 238,
          "midi": 43,
          "name": "G2",
          "ticks": 334560,
          "time": 275.130992,
          "velocity": 0.8031496062992126
        },
        {
          "duration": 0.1957232666666755,
          "durationTicks": 238,
          "midi": 43,
          "name": "G2",
          "ticks": 334800,
          "time": 275.32836,
          "velocity": 0.8031496062992126
        },
        {
          "duration": 0.1957232666666755,
          "durationTicks": 238,
          "midi": 43,
          "name": "G2",
          "ticks": 335040,
          "time": 275.52572799999996,
          "velocity": 0.8031496062992126
        },
        {
          "duration": 0.19572326666661866,
          "durationTicks": 238,
          "midi": 43,
          "name": "G2",
          "ticks": 335280,
          "time": 275.723096,
          "velocity": 0.8031496062992126
        },
        {
          "duration": 0.1957232666666755,
          "durationTicks": 238,
          "midi": 43,
          "name": "G2",
          "ticks": 335520,
          "time": 275.920464,
          "velocity": 0.8031496062992126
        },
        {
          "duration": 0.1957232666666755,
          "durationTicks": 238,
          "midi": 43,
          "name": "G2",
          "ticks": 335760,
          "time": 276.11783199999996,
          "velocity": 0.8031496062992126
        },
        {
          "duration": 0.19572326666661866,
          "durationTicks": 238,
          "midi": 43,
          "name": "G2",
          "ticks": 336000,
          "time": 276.3152,
          "velocity": 0.8031496062992126
        },
        {
          "duration": 0.19572326666661866,
          "durationTicks": 238,
          "midi": 43,
          "name": "G2",
          "ticks": 336240,
          "time": 276.512568,
          "velocity": 0.8031496062992126
        },
        {
          "duration": 0.1957232666666755,
          "durationTicks": 238,
          "midi": 43,
          "name": "G2",
          "ticks": 336480,
          "time": 276.70993599999997,
          "velocity": 0.8031496062992126
        },
        {
          "duration": 0.19572326666661866,
          "durationTicks": 238,
          "midi": 43,
          "name": "G2",
          "ticks": 336720,
          "time": 276.907304,
          "velocity": 0.8031496062992126
        },
        {
          "duration": 0.0970392666666271,
          "durationTicks": 118,
          "midi": 45,
          "name": "A2",
          "ticks": 336960,
          "time": 277.104672,
          "velocity": 0.8031496062992126
        },
        {
          "duration": 3.057559266666658,
          "durationTicks": 3718,
          "midi": 47,
          "name": "B2",
          "ticks": 337080,
          "time": 277.203356,
          "velocity": 0.8031496062992126
        },
        {
          "duration": 0.1957232666666755,
          "durationTicks": 238,
          "midi": 50,
          "name": "D3",
          "ticks": 337200,
          "time": 277.30204,
          "velocity": 0.8031496062992126
        },
        {
          "duration": 0.1957232666666755,
          "durationTicks": 238,
          "midi": 52,
          "name": "E3",
          "ticks": 337440,
          "time": 277.49940799999996,
          "velocity": 0.8031496062992126
        },
        {
          "duration": 0.5904592666666417,
          "durationTicks": 718,
          "midi": 43,
          "name": "G2",
          "ticks": 337680,
          "time": 277.696776,
          "velocity": 0.8031496062992126
        },
        {
          "duration": 0.19572326666661866,
          "durationTicks": 238,
          "midi": 43,
          "name": "G2",
          "ticks": 338400,
          "time": 278.28888,
          "velocity": 0.8031496062992126
        },
        {
          "duration": 0.19572326666661866,
          "durationTicks": 238,
          "midi": 43,
          "name": "G2",
          "ticks": 338640,
          "time": 278.486248,
          "velocity": 0.8031496062992126
        },
        {
          "duration": 0.1957232666666755,
          "durationTicks": 238,
          "midi": 43,
          "name": "G2",
          "ticks": 338880,
          "time": 278.683616,
          "velocity": 0.8031496062992126
        },
        {
          "duration": 0.1957232666666755,
          "durationTicks": 238,
          "midi": 43,
          "name": "G2",
          "ticks": 339120,
          "time": 278.88098399999996,
          "velocity": 0.8031496062992126
        },
        {
          "duration": 0.19572326666661866,
          "durationTicks": 238,
          "midi": 43,
          "name": "G2",
          "ticks": 339360,
          "time": 279.078352,
          "velocity": 0.8031496062992126
        },
        {
          "duration": 0.1957232666666755,
          "durationTicks": 238,
          "midi": 43,
          "name": "G2",
          "ticks": 339600,
          "time": 279.27572,
          "velocity": 0.8031496062992126
        },
        {
          "duration": 0.1957232666666755,
          "durationTicks": 238,
          "midi": 43,
          "name": "G2",
          "ticks": 339840,
          "time": 279.47308799999996,
          "velocity": 0.8031496062992126
        },
        {
          "duration": 0.19572326666661866,
          "durationTicks": 238,
          "midi": 43,
          "name": "G2",
          "ticks": 340080,
          "time": 279.670456,
          "velocity": 0.8031496062992126
        },
        {
          "duration": 0.19572326666661866,
          "durationTicks": 238,
          "midi": 43,
          "name": "G2",
          "ticks": 340320,
          "time": 279.867824,
          "velocity": 0.8031496062992126
        },
        {
          "duration": 0.09703926666668394,
          "durationTicks": 118,
          "midi": 45,
          "name": "A2",
          "ticks": 340560,
          "time": 280.06519199999997,
          "velocity": 0.8031496062992126
        },
        {
          "duration": 0.6891432666666901,
          "durationTicks": 838,
          "midi": 47,
          "name": "B2",
          "ticks": 340680,
          "time": 280.16387599999996,
          "velocity": 0.8031496062992126
        },
        {
          "duration": 0.0970392666666271,
          "durationTicks": 118,
          "midi": 50,
          "name": "D3",
          "ticks": 340800,
          "time": 280.26256,
          "velocity": 0.8031496062992126
        },
        {
          "duration": 0.0970392666666271,
          "durationTicks": 118,
          "midi": 52,
          "name": "E3",
          "ticks": 340920,
          "time": 280.361244,
          "velocity": 0.8031496062992126
        },
        {
          "duration": 0.19572326666661866,
          "durationTicks": 238,
          "midi": 50,
          "name": "D3",
          "ticks": 341040,
          "time": 280.459928,
          "velocity": 0.8031496062992126
        },
        {
          "duration": 0.5904592666666417,
          "durationTicks": 718,
          "midi": 47,
          "name": "B2",
          "ticks": 341280,
          "time": 280.657296,
          "velocity": 0.8031496062992126
        },
        {
          "duration": 0.1957232666666755,
          "durationTicks": 238,
          "midi": 54,
          "name": "F#3",
          "ticks": 341520,
          "time": 280.85466399999996,
          "velocity": 0.8031496062992126
        },
        {
          "duration": 0.3930912666666586,
          "durationTicks": 478,
          "midi": 47,
          "name": "B2",
          "ticks": 341760,
          "time": 281.052032,
          "velocity": 0.8031496062992126
        },
        {
          "duration": 0.3930912666666586,
          "durationTicks": 478,
          "midi": 47,
          "name": "B2",
          "ticks": 342000,
          "time": 281.2494,
          "velocity": 0.8031496062992126
        },
        {
          "duration": 0.3930912666666586,
          "durationTicks": 478,
          "midi": 47,
          "name": "B2",
          "ticks": 342240,
          "time": 281.44676799999996,
          "velocity": 0.8031496062992126
        },
        {
          "duration": 0.39309126666660177,
          "durationTicks": 478,
          "midi": 47,
          "name": "B2",
          "ticks": 342480,
          "time": 281.644136,
          "velocity": 0.8031496062992126
        },
        {
          "duration": 0.3930912666666586,
          "durationTicks": 478,
          "midi": 47,
          "name": "B2",
          "ticks": 342720,
          "time": 281.841504,
          "velocity": 0.8031496062992126
        },
        {
          "duration": 0.3930912666666586,
          "durationTicks": 478,
          "midi": 47,
          "name": "B2",
          "ticks": 342960,
          "time": 282.03887199999997,
          "velocity": 0.8031496062992126
        },
        {
          "duration": 0.39309126666660177,
          "durationTicks": 478,
          "midi": 47,
          "name": "B2",
          "ticks": 343200,
          "time": 282.23624,
          "velocity": 0.8031496062992126
        },
        {
          "duration": 0.3930912666666586,
          "durationTicks": 478,
          "midi": 47,
          "name": "B2",
          "ticks": 343440,
          "time": 282.433608,
          "velocity": 0.8031496062992126
        },
        {
          "duration": 0.3930912666666586,
          "durationTicks": 478,
          "midi": 47,
          "name": "B2",
          "ticks": 343680,
          "time": 282.630976,
          "velocity": 0.8031496062992126
        },
        {
          "duration": 0.3930912666666586,
          "durationTicks": 478,
          "midi": 47,
          "name": "B2",
          "ticks": 343920,
          "time": 282.82834399999996,
          "velocity": 0.8031496062992126
        },
        {
          "duration": 0.39309126666660177,
          "durationTicks": 478,
          "midi": 47,
          "name": "B2",
          "ticks": 344160,
          "time": 283.025712,
          "velocity": 0.8031496062992126
        },
        {
          "duration": 0.3930912666666586,
          "durationTicks": 478,
          "midi": 47,
          "name": "B2",
          "ticks": 344400,
          "time": 283.22308,
          "velocity": 0.8031496062992126
        },
        {
          "duration": 1.3799312666666879,
          "durationTicks": 1678,
          "midi": 47,
          "name": "B2",
          "ticks": 344640,
          "time": 283.42044799999996,
          "velocity": 0.8031496062992126
        },
        {
          "duration": 0.19572326666661866,
          "durationTicks": 238,
          "midi": 50,
          "name": "D3",
          "ticks": 344880,
          "time": 283.617816,
          "velocity": 0.8031496062992126
        },
        {
          "duration": 0.19572326666661866,
          "durationTicks": 238,
          "midi": 52,
          "name": "E3",
          "ticks": 345120,
          "time": 283.815184,
          "velocity": 0.8031496062992126
        },
        {
          "duration": 0.5904592666666417,
          "durationTicks": 718,
          "midi": 54,
          "name": "F#3",
          "ticks": 345360,
          "time": 284.01255199999997,
          "velocity": 0.8031496062992126
        },
        {
          "duration": 0.3930912666666586,
          "durationTicks": 478,
          "midi": 47,
          "name": "B2",
          "ticks": 346080,
          "time": 284.604656,
          "velocity": 0.8031496062992126
        },
        {
          "duration": 0.3930912666666586,
          "durationTicks": 478,
          "midi": 47,
          "name": "B2",
          "ticks": 346320,
          "time": 284.80202399999996,
          "velocity": 0.8031496062992126
        },
        {
          "duration": 0.39309126666660177,
          "durationTicks": 478,
          "midi": 47,
          "name": "B2",
          "ticks": 346560,
          "time": 284.999392,
          "velocity": 0.8031496062992126
        },
        {
          "duration": 0.3930912666666586,
          "durationTicks": 478,
          "midi": 47,
          "name": "B2",
          "ticks": 346800,
          "time": 285.19676,
          "velocity": 0.8031496062992126
        },
        {
          "duration": 0.3930912666666586,
          "durationTicks": 478,
          "midi": 47,
          "name": "B2",
          "ticks": 347040,
          "time": 285.39412799999997,
          "velocity": 0.8031496062992126
        },
        {
          "duration": 0.39309126666660177,
          "durationTicks": 478,
          "midi": 47,
          "name": "B2",
          "ticks": 347280,
          "time": 285.591496,
          "velocity": 0.8031496062992126
        },
        {
          "duration": 0.3930912666666586,
          "durationTicks": 478,
          "midi": 47,
          "name": "B2",
          "ticks": 347520,
          "time": 285.788864,
          "velocity": 0.8031496062992126
        },
        {
          "duration": 0.3930912666666586,
          "durationTicks": 478,
          "midi": 47,
          "name": "B2",
          "ticks": 347760,
          "time": 285.986232,
          "velocity": 0.8031496062992126
        },
        {
          "duration": 0.3930912666666586,
          "durationTicks": 478,
          "midi": 47,
          "name": "B2",
          "ticks": 348000,
          "time": 286.18359999999996,
          "velocity": 0.8031496062992126
        },
        {
          "duration": 0.3930912666666586,
          "durationTicks": 478,
          "midi": 47,
          "name": "B2",
          "ticks": 348240,
          "time": 286.380968,
          "velocity": 0.8031496062992126
        },
        {
          "duration": 4.143083266666622,
          "durationTicks": 5038,
          "midi": 47,
          "name": "B2",
          "ticks": 348480,
          "time": 286.578336,
          "velocity": 0.8031496062992126
        },
        {
          "duration": 0.1957232666666755,
          "durationTicks": 238,
          "midi": 50,
          "name": "D3",
          "ticks": 348720,
          "time": 286.77570399999996,
          "velocity": 0.8031496062992126
        },
        {
          "duration": 0.19572326666661866,
          "durationTicks": 238,
          "midi": 52,
          "name": "E3",
          "ticks": 348960,
          "time": 286.973072,
          "velocity": 0.8031496062992126
        },
        {
          "duration": 0.19572326666661866,
          "durationTicks": 238,
          "midi": 54,
          "name": "F#3",
          "ticks": 349200,
          "time": 287.17044,
          "velocity": 0.8031496062992126
        },
        {
          "duration": 0.1957232666666755,
          "durationTicks": 238,
          "midi": 48,
          "name": "C3",
          "ticks": 349440,
          "time": 287.36780799999997,
          "velocity": 0.8031496062992126
        },
        {
          "duration": 0.19572326666661866,
          "durationTicks": 238,
          "midi": 48,
          "name": "C3",
          "ticks": 349680,
          "time": 287.565176,
          "velocity": 0.8031496062992126
        },
        {
          "duration": 0.19572326666661866,
          "durationTicks": 238,
          "midi": 48,
          "name": "C3",
          "ticks": 349920,
          "time": 287.762544,
          "velocity": 0.8031496062992126
        },
        {
          "duration": 0.1957232666666755,
          "durationTicks": 238,
          "midi": 48,
          "name": "C3",
          "ticks": 350160,
          "time": 287.959912,
          "velocity": 0.8031496062992126
        },
        {
          "duration": 0.1957232666666755,
          "durationTicks": 238,
          "midi": 48,
          "name": "C3",
          "ticks": 350400,
          "time": 288.15727999999996,
          "velocity": 0.8031496062992126
        },
        {
          "duration": 0.19572326666661866,
          "durationTicks": 238,
          "midi": 48,
          "name": "C3",
          "ticks": 350640,
          "time": 288.354648,
          "velocity": 0.8031496062992126
        },
        {
          "duration": 0.1957232666666755,
          "durationTicks": 238,
          "midi": 48,
          "name": "C3",
          "ticks": 350880,
          "time": 288.552016,
          "velocity": 0.8031496062992126
        },
        {
          "duration": 0.1957232666666755,
          "durationTicks": 238,
          "midi": 48,
          "name": "C3",
          "ticks": 351120,
          "time": 288.74938399999996,
          "velocity": 0.8031496062992126
        },
        {
          "duration": 0.19572326666661866,
          "durationTicks": 238,
          "midi": 48,
          "name": "C3",
          "ticks": 351360,
          "time": 288.946752,
          "velocity": 0.8031496062992126
        },
        {
          "duration": 0.19572326666661866,
          "durationTicks": 238,
          "midi": 48,
          "name": "C3",
          "ticks": 351600,
          "time": 289.14412,
          "velocity": 0.8031496062992126
        },
        {
          "duration": 0.1957232666666755,
          "durationTicks": 238,
          "midi": 48,
          "name": "C3",
          "ticks": 351840,
          "time": 289.34148799999997,
          "velocity": 0.8031496062992126
        },
        {
          "duration": 0.19572326666661866,
          "durationTicks": 238,
          "midi": 48,
          "name": "C3",
          "ticks": 352080,
          "time": 289.538856,
          "velocity": 0.8031496062992126
        },
        {
          "duration": 0.19572326666661866,
          "durationTicks": 238,
          "midi": 48,
          "name": "C3",
          "ticks": 352320,
          "time": 289.736224,
          "velocity": 0.8031496062992126
        },
        {
          "duration": 0.1957232666666755,
          "durationTicks": 238,
          "midi": 50,
          "name": "D3",
          "ticks": 352560,
          "time": 289.933592,
          "velocity": 0.8031496062992126
        },
        {
          "duration": 0.1957232666666755,
          "durationTicks": 238,
          "midi": 52,
          "name": "E3",
          "ticks": 352800,
          "time": 290.13095999999996,
          "velocity": 0.8031496062992126
        },
        {
          "duration": 0.19572326666661866,
          "durationTicks": 238,
          "midi": 54,
          "name": "F#3",
          "ticks": 353040,
          "time": 290.328328,
          "velocity": 0.8031496062992126
        },
        {
          "duration": 0.3930912666666586,
          "durationTicks": 478,
          "midi": 47,
          "name": "B2",
          "ticks": 353280,
          "time": 290.525696,
          "velocity": 0.8031496062992126
        },
        {
          "duration": 0.3930912666666586,
          "durationTicks": 478,
          "midi": 47,
          "name": "B2",
          "ticks": 353520,
          "time": 290.72306399999997,
          "velocity": 0.8031496062992126
        },
        {
          "duration": 0.39309126666660177,
          "durationTicks": 478,
          "midi": 47,
          "name": "B2",
          "ticks": 353760,
          "time": 290.920432,
          "velocity": 0.8031496062992126
        },
        {
          "duration": 0.3930912666666586,
          "durationTicks": 478,
          "midi": 47,
          "name": "B2",
          "ticks": 354000,
          "time": 291.1178,
          "velocity": 0.8031496062992126
        },
        {
          "duration": 0.3930912666666586,
          "durationTicks": 478,
          "midi": 47,
          "name": "B2",
          "ticks": 354240,
          "time": 291.31516799999997,
          "velocity": 0.8031496062992126
        },
        {
          "duration": 0.3930912666666586,
          "durationTicks": 478,
          "midi": 47,
          "name": "B2",
          "ticks": 354480,
          "time": 291.51253599999995,
          "velocity": 0.8031496062992126
        },
        {
          "duration": 0.3930912666666586,
          "durationTicks": 478,
          "midi": 47,
          "name": "B2",
          "ticks": 354720,
          "time": 291.709904,
          "velocity": 0.8031496062992126
        },
        {
          "duration": 0.3930912666666586,
          "durationTicks": 478,
          "midi": 47,
          "name": "B2",
          "ticks": 354960,
          "time": 291.907272,
          "velocity": 0.8031496062992126
        },
        {
          "duration": 0.3930912666666586,
          "durationTicks": 478,
          "midi": 47,
          "name": "B2",
          "ticks": 355200,
          "time": 292.10463999999996,
          "velocity": 0.8031496062992126
        },
        {
          "duration": 0.39309126666660177,
          "durationTicks": 478,
          "midi": 47,
          "name": "B2",
          "ticks": 355440,
          "time": 292.302008,
          "velocity": 0.8031496062992126
        },
        {
          "duration": 0.3930912666666586,
          "durationTicks": 478,
          "midi": 47,
          "name": "B2",
          "ticks": 355680,
          "time": 292.499376,
          "velocity": 0.8031496062992126
        },
        {
          "duration": 0.3930912666666586,
          "durationTicks": 478,
          "midi": 47,
          "name": "B2",
          "ticks": 355920,
          "time": 292.69674399999997,
          "velocity": 0.8031496062992126
        },
        {
          "duration": 3.3536112666666327,
          "durationTicks": 4078,
          "midi": 47,
          "name": "B2",
          "ticks": 356160,
          "time": 292.894112,
          "velocity": 0.8031496062992126
        },
        {
          "duration": 0.19572326666661866,
          "durationTicks": 238,
          "midi": 50,
          "name": "D3",
          "ticks": 356400,
          "time": 293.09148,
          "velocity": 0.8031496062992126
        },
        {
          "duration": 0.1957232666666755,
          "durationTicks": 238,
          "midi": 52,
          "name": "E3",
          "ticks": 356640,
          "time": 293.288848,
          "velocity": 0.8031496062992126
        },
        {
          "duration": 0.1957232666666755,
          "durationTicks": 238,
          "midi": 52,
          "name": "E3",
          "ticks": 356880,
          "time": 293.48621599999996,
          "velocity": 0.8031496062992126
        },
        {
          "duration": 0.3930912666666586,
          "durationTicks": 478,
          "midi": 54,
          "name": "F#3",
          "ticks": 357120,
          "time": 293.683584,
          "velocity": 0.8031496062992126
        },
        {
          "duration": 0.1957232666666755,
          "durationTicks": 238,
          "midi": 45,
          "name": "A2",
          "ticks": 357600,
          "time": 294.07831999999996,
          "velocity": 0.8031496062992126
        },
        {
          "duration": 0.19572326666661866,
          "durationTicks": 238,
          "midi": 45,
          "name": "A2",
          "ticks": 357840,
          "time": 294.275688,
          "velocity": 0.8031496062992126
        },
        {
          "duration": 0.19572326666661866,
          "durationTicks": 238,
          "midi": 45,
          "name": "A2",
          "ticks": 358080,
          "time": 294.473056,
          "velocity": 0.8031496062992126
        },
        {
          "duration": 0.1957232666666755,
          "durationTicks": 238,
          "midi": 45,
          "name": "A2",
          "ticks": 358320,
          "time": 294.67042399999997,
          "velocity": 0.8031496062992126
        },
        {
          "duration": 0.19572326666661866,
          "durationTicks": 238,
          "midi": 45,
          "name": "A2",
          "ticks": 358560,
          "time": 294.867792,
          "velocity": 0.8031496062992126
        },
        {
          "duration": 0.19572326666661866,
          "durationTicks": 238,
          "midi": 45,
          "name": "A2",
          "ticks": 358800,
          "time": 295.06516,
          "velocity": 0.8031496062992126
        },
        {
          "duration": 0.1957232666666755,
          "durationTicks": 238,
          "midi": 45,
          "name": "A2",
          "ticks": 359040,
          "time": 295.262528,
          "velocity": 0.8031496062992126
        },
        {
          "duration": 0.1957232666666755,
          "durationTicks": 238,
          "midi": 45,
          "name": "A2",
          "ticks": 359280,
          "time": 295.45989599999996,
          "velocity": 0.8031496062992126
        },
        {
          "duration": 0.19572326666661866,
          "durationTicks": 238,
          "midi": 45,
          "name": "A2",
          "ticks": 359520,
          "time": 295.657264,
          "velocity": 0.8031496062992126
        },
        {
          "duration": 0.19572326666661866,
          "durationTicks": 238,
          "midi": 45,
          "name": "A2",
          "ticks": 359760,
          "time": 295.854632,
          "velocity": 0.8031496062992126
        },
        {
          "duration": 0.09703926666668394,
          "durationTicks": 118,
          "midi": 45,
          "name": "A2",
          "ticks": 360000,
          "time": 296.05199999999996,
          "velocity": 0.8031496062992126
        },
        {
          "duration": 1.0838792666666563,
          "durationTicks": 1318,
          "midi": 47,
          "name": "B2",
          "ticks": 360120,
          "time": 296.15068399999996,
          "velocity": 0.8031496062992126
        },
        {
          "duration": 0.19572326666661866,
          "durationTicks": 238,
          "midi": 50,
          "name": "D3",
          "ticks": 360240,
          "time": 296.249368,
          "velocity": 0.8031496062992126
        },
        {
          "duration": 0.19572326666661866,
          "durationTicks": 238,
          "midi": 52,
          "name": "E3",
          "ticks": 360480,
          "time": 296.446736,
          "velocity": 0.8031496062992126
        },
        {
          "duration": 2.7615072666666833,
          "durationTicks": 3358,
          "midi": 47,
          "name": "B2",
          "ticks": 360720,
          "time": 296.64410399999997,
          "velocity": 0.8031496062992126
        },
        {
          "duration": 5.524659266666674,
          "durationTicks": 6718,
          "midi": 47,
          "name": "B2",
          "ticks": 360960,
          "time": 296.84147199999995,
          "velocity": 0.8031496062992126
        },
        {
          "duration": 0.1957232666666755,
          "durationTicks": 238,
          "midi": 43,
          "name": "G2",
          "ticks": 361440,
          "time": 297.236208,
          "velocity": 0.8031496062992126
        },
        {
          "duration": 0.1957232666666755,
          "durationTicks": 238,
          "midi": 43,
          "name": "G2",
          "ticks": 361680,
          "time": 297.43357599999996,
          "velocity": 0.8031496062992126
        },
        {
          "duration": 0.19572326666661866,
          "durationTicks": 238,
          "midi": 43,
          "name": "G2",
          "ticks": 361920,
          "time": 297.630944,
          "velocity": 0.8031496062992126
        },
        {
          "duration": 0.19572326666661866,
          "durationTicks": 238,
          "midi": 43,
          "name": "G2",
          "ticks": 362160,
          "time": 297.828312,
          "velocity": 0.8031496062992126
        },
        {
          "duration": 0.1957232666666755,
          "durationTicks": 238,
          "midi": 43,
          "name": "G2",
          "ticks": 362400,
          "time": 298.02567999999997,
          "velocity": 0.8031496062992126
        },
        {
          "duration": 0.19572326666661866,
          "durationTicks": 238,
          "midi": 43,
          "name": "G2",
          "ticks": 362640,
          "time": 298.223048,
          "velocity": 0.8031496062992126
        },
        {
          "duration": 0.19572326666661866,
          "durationTicks": 238,
          "midi": 43,
          "name": "G2",
          "ticks": 362880,
          "time": 298.420416,
          "velocity": 0.8031496062992126
        },
        {
          "duration": 0.1957232666666755,
          "durationTicks": 238,
          "midi": 43,
          "name": "G2",
          "ticks": 363120,
          "time": 298.617784,
          "velocity": 0.8031496062992126
        },
        {
          "duration": 0.1957232666666755,
          "durationTicks": 238,
          "midi": 43,
          "name": "G2",
          "ticks": 363360,
          "time": 298.81515199999996,
          "velocity": 0.8031496062992126
        },
        {
          "duration": 0.19572326666661866,
          "durationTicks": 238,
          "midi": 43,
          "name": "G2",
          "ticks": 363600,
          "time": 299.01252,
          "velocity": 0.8031496062992126
        },
        {
          "duration": 0.0970392666666271,
          "durationTicks": 118,
          "midi": 45,
          "name": "A2",
          "ticks": 363840,
          "time": 299.209888,
          "velocity": 0.8031496062992126
        },
        {
          "duration": 3.649663266666664,
          "durationTicks": 4438,
          "midi": 47,
          "name": "B2",
          "ticks": 363960,
          "time": 299.30857199999997,
          "velocity": 0.8031496062992126
        },
        {
          "duration": 0.1957232666666755,
          "durationTicks": 238,
          "midi": 50,
          "name": "D3",
          "ticks": 364080,
          "time": 299.40725599999996,
          "velocity": 0.8031496062992126
        },
        {
          "duration": 0.19572326666661866,
          "durationTicks": 238,
          "midi": 52,
          "name": "E3",
          "ticks": 364320,
          "time": 299.604624,
          "velocity": 0.8031496062992126
        },
        {
          "duration": 0.5904592666666417,
          "durationTicks": 718,
          "midi": 43,
          "name": "G2",
          "ticks": 364560,
          "time": 299.801992,
          "velocity": 0.8031496062992126
        },
        {
          "duration": 0.19572326666661866,
          "durationTicks": 238,
          "midi": 43,
          "name": "G2",
          "ticks": 365280,
          "time": 300.394096,
          "velocity": 0.8031496062992126
        },
        {
          "duration": 0.1957232666666755,
          "durationTicks": 238,
          "midi": 43,
          "name": "G2",
          "ticks": 365520,
          "time": 300.591464,
          "velocity": 0.8031496062992126
        },
        {
          "duration": 0.1957232666666755,
          "durationTicks": 238,
          "midi": 43,
          "name": "G2",
          "ticks": 365760,
          "time": 300.78883199999996,
          "velocity": 0.8031496062992126
        },
        {
          "duration": 0.19572326666661866,
          "durationTicks": 238,
          "midi": 43,
          "name": "G2",
          "ticks": 366000,
          "time": 300.9862,
          "velocity": 0.8031496062992126
        },
        {
          "duration": 0.1957232666666755,
          "durationTicks": 238,
          "midi": 43,
          "name": "G2",
          "ticks": 366240,
          "time": 301.183568,
          "velocity": 0.8031496062992126
        },
        {
          "duration": 0.1957232666666755,
          "durationTicks": 238,
          "midi": 43,
          "name": "G2",
          "ticks": 366480,
          "time": 301.38093599999996,
          "velocity": 0.8031496062992126
        },
        {
          "duration": 0.19572326666661866,
          "durationTicks": 238,
          "midi": 43,
          "name": "G2",
          "ticks": 366720,
          "time": 301.578304,
          "velocity": 0.8031496062992126
        },
        {
          "duration": 0.19572326666661866,
          "durationTicks": 238,
          "midi": 43,
          "name": "G2",
          "ticks": 366960,
          "time": 301.775672,
          "velocity": 0.8031496062992126
        },
        {
          "duration": 0.1957232666666755,
          "durationTicks": 238,
          "midi": 43,
          "name": "G2",
          "ticks": 367200,
          "time": 301.97303999999997,
          "velocity": 0.8031496062992126
        },
        {
          "duration": 0.0970392666666271,
          "durationTicks": 118,
          "midi": 45,
          "name": "A2",
          "ticks": 367440,
          "time": 302.170408,
          "velocity": 0.8031496062992126
        },
        {
          "duration": 2.268087266666612,
          "durationTicks": 2758,
          "midi": 47,
          "name": "B2",
          "ticks": 367560,
          "time": 302.269092,
          "velocity": 0.8031496062992126
        },
        {
          "duration": 0.0970392666666271,
          "durationTicks": 118,
          "midi": 50,
          "name": "D3",
          "ticks": 367680,
          "time": 302.367776,
          "velocity": 0.8031496062992126
        },
        {
          "duration": 0.0970392666666271,
          "durationTicks": 118,
          "midi": 52,
          "name": "E3",
          "ticks": 367800,
          "time": 302.46646,
          "velocity": 0.8031496062992126
        },
        {
          "duration": 0.1957232666666755,
          "durationTicks": 238,
          "midi": 50,
          "name": "D3",
          "ticks": 367920,
          "time": 302.565144,
          "velocity": 0.8031496062992126
        },
        {
          "duration": 1.774667266666654,
          "durationTicks": 2158,
          "midi": 47,
          "name": "B2",
          "ticks": 368160,
          "time": 302.76251199999996,
          "velocity": 0.8031496062992126
        },
        {
          "duration": 1.5772992666666141,
          "durationTicks": 1918,
          "midi": 35,
          "name": "B1",
          "ticks": 368400,
          "time": 302.95988,
          "velocity": 0.8031496062992126
        }
      ]
    },
    {
      "channel": 0,
      "controlChanges": {
        "6": [
          {
            "number": 6,
            "ticks": 300,
            "time": 0.24670999999999998,
            "value": 0.09448818897637795
          }
        ],
        "38": [
          {
            "number": 38,
            "ticks": 300,
            "time": 0.24670999999999998,
            "value": 0
          }
        ],
        "100": [
          {
            "number": 100,
            "ticks": 300,
            "time": 0.24670999999999998,
            "value": 0
          }
        ],
        "101": [
          {
            "number": 101,
            "ticks": 300,
            "time": 0.24670999999999998,
            "value": 0
          }
        ],
        "121": [
          {
            "number": 121,
            "ticks": 300,
            "time": 0.24670999999999998,
            "value": 0
          }
        ],
        "123": [
          {
            "number": 123,
            "ticks": 300,
            "time": 0.24670999999999998,
            "value": 0
          }
        ]
      },
      "pitchBends": [
        {
          "ticks": 300,
          "time": 0.24670999999999998,
          "value": 0
        }
      ],
      "instrument": {
        "family": "piano",
        "number": 0,
        "name": "acoustic grand piano"
      },
      "name": "Jonathan Greenwood",
      "notes": [],
      "endOfTrackTicks": 224632
    },
    {
      "channel": 2,
      "controlChanges": {
        "7": [
          {
            "number": 7,
            "ticks": 360,
            "time": 0.296052,
            "value": 0.7086614173228346
          }
        ],
        "10": [
          {
            "number": 10,
            "ticks": 360,
            "time": 0.296052,
            "value": 0.06299212598425197
          }
        ]
      },
      "pitchBends": [],
      "instrument": {
        "family": "guitar",
        "number": 26,
        "name": "electric guitar (jazz)"
      },
      "name": "",
      "notes": [
        {
          "duration": 0.1907890666666674,
          "durationTicks": 232,
          "midi": 62,
          "name": "D4",
          "ticks": 32640,
          "time": 26.842048,
          "velocity": 0.5669291338582677
        },
        {
          "duration": 0.1907890666666674,
          "durationTicks": 232,
          "midi": 67,
          "name": "G4",
          "ticks": 32880,
          "time": 27.039416,
          "velocity": 0.5669291338582677
        },
        {
          "duration": 0.19078906666666384,
          "durationTicks": 232,
          "midi": 62,
          "name": "D4",
          "ticks": 33120,
          "time": 27.236784,
          "velocity": 0.5669291338582677
        },
        {
          "duration": 0.1907890666666674,
          "durationTicks": 232,
          "midi": 64,
          "name": "E4",
          "ticks": 33360,
          "time": 27.434151999999997,
          "velocity": 0.5669291338582677
        },
        {
          "duration": 0.1907890666666674,
          "durationTicks": 232,
          "midi": 64,
          "name": "E4",
          "ticks": 33600,
          "time": 27.63152,
          "velocity": 0.5669291338582677
        },
        {
          "duration": 0.1907890666666674,
          "durationTicks": 232,
          "midi": 62,
          "name": "D4",
          "ticks": 33840,
          "time": 27.828888,
          "velocity": 0.5669291338582677
        },
        {
          "duration": 0.1907890666666674,
          "durationTicks": 232,
          "midi": 67,
          "name": "G4",
          "ticks": 34080,
          "time": 28.026255999999997,
          "velocity": 0.5669291338582677
        },
        {
          "duration": 0.1907890666666674,
          "durationTicks": 232,
          "midi": 62,
          "name": "D4",
          "ticks": 34320,
          "time": 28.223623999999997,
          "velocity": 0.5669291338582677
        },
        {
          "duration": 0.1907890666666674,
          "durationTicks": 232,
          "midi": 67,
          "name": "G4",
          "ticks": 34560,
          "time": 28.420992,
          "velocity": 0.5669291338582677
        },
        {
          "duration": 0.1907890666666674,
          "durationTicks": 232,
          "midi": 64,
          "name": "E4",
          "ticks": 34800,
          "time": 28.61836,
          "velocity": 0.5669291338582677
        },
        {
          "duration": 0.19078906666666384,
          "durationTicks": 232,
          "midi": 62,
          "name": "D4",
          "ticks": 35040,
          "time": 28.815728,
          "velocity": 0.5669291338582677
        },
        {
          "duration": 0.1907890666666674,
          "durationTicks": 232,
          "midi": 67,
          "name": "G4",
          "ticks": 35280,
          "time": 29.013095999999997,
          "velocity": 0.5669291338582677
        },
        {
          "duration": 0.1907890666666674,
          "durationTicks": 232,
          "midi": 62,
          "name": "D4",
          "ticks": 35520,
          "time": 29.210463999999998,
          "velocity": 0.5669291338582677
        },
        {
          "duration": 0.1907890666666674,
          "durationTicks": 232,
          "midi": 67,
          "name": "G4",
          "ticks": 35760,
          "time": 29.407832,
          "velocity": 0.5669291338582677
        },
        {
          "duration": 0.1907890666666674,
          "durationTicks": 232,
          "midi": 64,
          "name": "E4",
          "ticks": 36000,
          "time": 29.605199999999996,
          "velocity": 0.5669291338582677
        },
        {
          "duration": 0.1907890666666674,
          "durationTicks": 232,
          "midi": 62,
          "name": "D4",
          "ticks": 36240,
          "time": 29.802567999999997,
          "velocity": 0.5669291338582677
        },
        {
          "duration": 0.1907890666666674,
          "durationTicks": 232,
          "midi": 67,
          "name": "G4",
          "ticks": 36480,
          "time": 29.999935999999998,
          "velocity": 0.5669291338582677
        },
        {
          "duration": 0.1907890666666674,
          "durationTicks": 232,
          "midi": 62,
          "name": "D4",
          "ticks": 36720,
          "time": 30.197304,
          "velocity": 0.5669291338582677
        },
        {
          "duration": 0.19078906666666384,
          "durationTicks": 232,
          "midi": 67,
          "name": "G4",
          "ticks": 36960,
          "time": 30.394672,
          "velocity": 0.5669291338582677
        },
        {
          "duration": 0.1907890666666674,
          "durationTicks": 232,
          "midi": 64,
          "name": "E4",
          "ticks": 37200,
          "time": 30.592039999999997,
          "velocity": 0.5669291338582677
        },
        {
          "duration": 0.1907890666666674,
          "durationTicks": 232,
          "midi": 62,
          "name": "D4",
          "ticks": 37440,
          "time": 30.789407999999998,
          "velocity": 0.5669291338582677
        },
        {
          "duration": 0.1907890666666674,
          "durationTicks": 232,
          "midi": 67,
          "name": "G4",
          "ticks": 37680,
          "time": 30.986776,
          "velocity": 0.5669291338582677
        },
        {
          "duration": 0.1907890666666674,
          "durationTicks": 232,
          "midi": 62,
          "name": "D4",
          "ticks": 37920,
          "time": 31.184143999999996,
          "velocity": 0.5669291338582677
        },
        {
          "duration": 0.1907890666666674,
          "durationTicks": 232,
          "midi": 64,
          "name": "E4",
          "ticks": 38160,
          "time": 31.381511999999997,
          "velocity": 0.5669291338582677
        },
        {
          "duration": 0.1907890666666674,
          "durationTicks": 232,
          "midi": 64,
          "name": "E4",
          "ticks": 38400,
          "time": 31.578879999999998,
          "velocity": 0.5669291338582677
        },
        {
          "duration": 0.1907890666666674,
          "durationTicks": 232,
          "midi": 62,
          "name": "D4",
          "ticks": 38640,
          "time": 31.776248,
          "velocity": 0.5669291338582677
        },
        {
          "duration": 0.1907890666666674,
          "durationTicks": 232,
          "midi": 67,
          "name": "G4",
          "ticks": 38880,
          "time": 31.973616,
          "velocity": 0.5669291338582677
        },
        {
          "duration": 0.1907890666666674,
          "durationTicks": 232,
          "midi": 62,
          "name": "D4",
          "ticks": 39120,
          "time": 32.170984,
          "velocity": 0.5669291338582677
        },
        {
          "duration": 0.1907890666666603,
          "durationTicks": 232,
          "midi": 67,
          "name": "G4",
          "ticks": 39360,
          "time": 32.368352,
          "velocity": 0.5669291338582677
        },
        {
          "duration": 0.1907890666666674,
          "durationTicks": 232,
          "midi": 64,
          "name": "E4",
          "ticks": 39600,
          "time": 32.56572,
          "velocity": 0.5669291338582677
        },
        {
          "duration": 0.1907890666666674,
          "durationTicks": 232,
          "midi": 62,
          "name": "D4",
          "ticks": 39840,
          "time": 32.763087999999996,
          "velocity": 0.5669291338582677
        },
        {
          "duration": 0.1907890666666674,
          "durationTicks": 232,
          "midi": 67,
          "name": "G4",
          "ticks": 40080,
          "time": 32.960456,
          "velocity": 0.5669291338582677
        },
        {
          "duration": 0.1907890666666674,
          "durationTicks": 232,
          "midi": 55,
          "name": "G3",
          "ticks": 40320,
          "time": 33.157824,
          "velocity": 0.5669291338582677
        },
        {
          "duration": 0.1907890666666674,
          "durationTicks": 232,
          "midi": 62,
          "name": "D4",
          "ticks": 40560,
          "time": 33.355191999999995,
          "velocity": 0.5669291338582677
        },
        {
          "duration": 0.1907890666666674,
          "durationTicks": 232,
          "midi": 64,
          "name": "E4",
          "ticks": 40800,
          "time": 33.55256,
          "velocity": 0.5669291338582677
        },
        {
          "duration": 0.1907890666666674,
          "durationTicks": 232,
          "midi": 62,
          "name": "D4",
          "ticks": 41040,
          "time": 33.749928,
          "velocity": 0.5669291338582677
        },
        {
          "duration": 0.1907890666666674,
          "durationTicks": 232,
          "midi": 64,
          "name": "E4",
          "ticks": 41280,
          "time": 33.947295999999994,
          "velocity": 0.5669291338582677
        },
        {
          "duration": 0.1907890666666674,
          "durationTicks": 232,
          "midi": 62,
          "name": "D4",
          "ticks": 41520,
          "time": 34.144664,
          "velocity": 0.5669291338582677
        },
        {
          "duration": 0.1907890666666674,
          "durationTicks": 232,
          "midi": 62,
          "name": "D4",
          "ticks": 41760,
          "time": 34.342031999999996,
          "velocity": 0.5669291338582677
        },
        {
          "duration": 0.1907890666666674,
          "durationTicks": 232,
          "midi": 64,
          "name": "E4",
          "ticks": 42000,
          "time": 34.5394,
          "velocity": 0.5669291338582677
        },
        {
          "duration": 0.1907890666666674,
          "durationTicks": 232,
          "midi": 64,
          "name": "E4",
          "ticks": 42240,
          "time": 34.736768,
          "velocity": 0.5669291338582677
        },
        {
          "duration": 0.1907890666666674,
          "durationTicks": 232,
          "midi": 62,
          "name": "D4",
          "ticks": 42480,
          "time": 34.934135999999995,
          "velocity": 0.5669291338582677
        },
        {
          "duration": 0.1907890666666674,
          "durationTicks": 232,
          "midi": 64,
          "name": "E4",
          "ticks": 42720,
          "time": 35.131504,
          "velocity": 0.5669291338582677
        },
        {
          "duration": 0.1907890666666674,
          "durationTicks": 232,
          "midi": 62,
          "name": "D4",
          "ticks": 42960,
          "time": 35.328872,
          "velocity": 0.5669291338582677
        },
        {
          "duration": 0.1907890666666603,
          "durationTicks": 232,
          "midi": 64,
          "name": "E4",
          "ticks": 43200,
          "time": 35.52624,
          "velocity": 0.5669291338582677
        },
        {
          "duration": 0.1907890666666674,
          "durationTicks": 232,
          "midi": 62,
          "name": "D4",
          "ticks": 43440,
          "time": 35.723608,
          "velocity": 0.5669291338582677
        },
        {
          "duration": 0.1907890666666674,
          "durationTicks": 232,
          "midi": 62,
          "name": "D4",
          "ticks": 43680,
          "time": 35.920975999999996,
          "velocity": 0.5669291338582677
        },
        {
          "duration": 0.1907890666666674,
          "durationTicks": 232,
          "midi": 64,
          "name": "E4",
          "ticks": 43920,
          "time": 36.118344,
          "velocity": 0.5669291338582677
        },
        {
          "duration": 0.1907890666666674,
          "durationTicks": 232,
          "midi": 62,
          "name": "D4",
          "ticks": 44160,
          "time": 36.315712,
          "velocity": 0.5669291338582677
        },
        {
          "duration": 0.1907890666666674,
          "durationTicks": 232,
          "midi": 64,
          "name": "E4",
          "ticks": 44400,
          "time": 36.513079999999995,
          "velocity": 0.5669291338582677
        },
        {
          "duration": 0.1907890666666674,
          "durationTicks": 232,
          "midi": 64,
          "name": "E4",
          "ticks": 44640,
          "time": 36.710448,
          "velocity": 0.5669291338582677
        },
        {
          "duration": 0.1907890666666674,
          "durationTicks": 232,
          "midi": 62,
          "name": "D4",
          "ticks": 44880,
          "time": 36.907816,
          "velocity": 0.5669291338582677
        },
        {
          "duration": 0.1907890666666674,
          "durationTicks": 232,
          "midi": 64,
          "name": "E4",
          "ticks": 45120,
          "time": 37.105183999999994,
          "velocity": 0.5669291338582677
        },
        {
          "duration": 0.1907890666666674,
          "durationTicks": 232,
          "midi": 62,
          "name": "D4",
          "ticks": 45360,
          "time": 37.302552,
          "velocity": 0.5669291338582677
        },
        {
          "duration": 0.1907890666666674,
          "durationTicks": 232,
          "midi": 62,
          "name": "D4",
          "ticks": 45600,
          "time": 37.499919999999996,
          "velocity": 0.5669291338582677
        },
        {
          "duration": 0.1907890666666674,
          "durationTicks": 232,
          "midi": 64,
          "name": "E4",
          "ticks": 45840,
          "time": 37.697288,
          "velocity": 0.5669291338582677
        },
        {
          "duration": 0.1907890666666674,
          "durationTicks": 232,
          "midi": 62,
          "name": "D4",
          "ticks": 46080,
          "time": 37.894656,
          "velocity": 0.5669291338582677
        },
        {
          "duration": 0.1907890666666674,
          "durationTicks": 232,
          "midi": 55,
          "name": "G3",
          "ticks": 46320,
          "time": 38.092023999999995,
          "velocity": 0.5669291338582677
        },
        {
          "duration": 0.1907890666666674,
          "durationTicks": 232,
          "midi": 62,
          "name": "D4",
          "ticks": 46560,
          "time": 38.289392,
          "velocity": 0.5669291338582677
        },
        {
          "duration": 0.1907890666666674,
          "durationTicks": 232,
          "midi": 64,
          "name": "E4",
          "ticks": 46800,
          "time": 38.48676,
          "velocity": 0.5669291338582677
        },
        {
          "duration": 0.1907890666666603,
          "durationTicks": 232,
          "midi": 64,
          "name": "E4",
          "ticks": 47040,
          "time": 38.684128,
          "velocity": 0.5669291338582677
        },
        {
          "duration": 0.1907890666666674,
          "durationTicks": 232,
          "midi": 62,
          "name": "D4",
          "ticks": 47280,
          "time": 38.881496,
          "velocity": 0.5669291338582677
        },
        {
          "duration": 0.1907890666666674,
          "durationTicks": 232,
          "midi": 62,
          "name": "D4",
          "ticks": 47520,
          "time": 39.078863999999996,
          "velocity": 0.5669291338582677
        },
        {
          "duration": 0.1907890666666674,
          "durationTicks": 232,
          "midi": 64,
          "name": "E4",
          "ticks": 47760,
          "time": 39.276232,
          "velocity": 0.5669291338582677
        },
        {
          "duration": 0.1907890666666674,
          "durationTicks": 232,
          "midi": 64,
          "name": "E4",
          "ticks": 48000,
          "time": 39.4736,
          "velocity": 0.5669291338582677
        },
        {
          "duration": 0.1907890666666674,
          "durationTicks": 232,
          "midi": 57,
          "name": "A3",
          "ticks": 48240,
          "time": 39.670967999999995,
          "velocity": 0.5669291338582677
        },
        {
          "duration": 0.1907890666666674,
          "durationTicks": 232,
          "midi": 64,
          "name": "E4",
          "ticks": 48480,
          "time": 39.868336,
          "velocity": 0.5669291338582677
        },
        {
          "duration": 0.1907890666666674,
          "durationTicks": 232,
          "midi": 57,
          "name": "A3",
          "ticks": 48720,
          "time": 40.065704,
          "velocity": 0.5669291338582677
        },
        {
          "duration": 0.1907890666666674,
          "durationTicks": 232,
          "midi": 66,
          "name": "F#4",
          "ticks": 48960,
          "time": 40.263071999999994,
          "velocity": 0.5669291338582677
        },
        {
          "duration": 0.1907890666666674,
          "durationTicks": 232,
          "midi": 66,
          "name": "F#4",
          "ticks": 49200,
          "time": 40.46044,
          "velocity": 0.5669291338582677
        },
        {
          "duration": 0.1907890666666674,
          "durationTicks": 232,
          "midi": 66,
          "name": "F#4",
          "ticks": 49440,
          "time": 40.657807999999996,
          "velocity": 0.5669291338582677
        },
        {
          "duration": 0.1907890666666674,
          "durationTicks": 232,
          "midi": 64,
          "name": "E4",
          "ticks": 49680,
          "time": 40.855176,
          "velocity": 0.5669291338582677
        },
        {
          "duration": 0.1907890666666674,
          "durationTicks": 232,
          "midi": 64,
          "name": "E4",
          "ticks": 49920,
          "time": 41.052544,
          "velocity": 0.5669291338582677
        },
        {
          "duration": 0.1907890666666674,
          "durationTicks": 232,
          "midi": 66,
          "name": "F#4",
          "ticks": 50160,
          "time": 41.249911999999995,
          "velocity": 0.5669291338582677
        },
        {
          "duration": 0.1907890666666674,
          "durationTicks": 232,
          "midi": 66,
          "name": "F#4",
          "ticks": 50400,
          "time": 41.44728,
          "velocity": 0.5669291338582677
        },
        {
          "duration": 0.1907890666666674,
          "durationTicks": 232,
          "midi": 64,
          "name": "E4",
          "ticks": 50640,
          "time": 41.644648,
          "velocity": 0.5669291338582677
        },
        {
          "duration": 0.2565784000000022,
          "durationTicks": 312,
          "midi": 64,
          "name": "E4",
          "ticks": 50880,
          "time": 41.842016,
          "velocity": 0.5669291338582677
        },
        {
          "duration": 0.2565783999999951,
          "durationTicks": 312,
          "midi": 66,
          "name": "F#4",
          "ticks": 51200,
          "time": 42.10517333333333,
          "velocity": 0.5669291338582677
        },
        {
          "duration": 0.2565784000000022,
          "durationTicks": 312,
          "midi": 66,
          "name": "F#4",
          "ticks": 51520,
          "time": 42.368330666666665,
          "velocity": 0.5669291338582677
        },
        {
          "duration": 0.1907890666666674,
          "durationTicks": 232,
          "midi": 66,
          "name": "F#4",
          "ticks": 51840,
          "time": 42.631488,
          "velocity": 0.5669291338582677
        },
        {
          "duration": 0.1907890666666674,
          "durationTicks": 232,
          "midi": 66,
          "name": "F#4",
          "ticks": 52080,
          "time": 42.828855999999995,
          "velocity": 0.5669291338582677
        },
        {
          "duration": 0.1907890666666674,
          "durationTicks": 232,
          "midi": 66,
          "name": "F#4",
          "ticks": 52320,
          "time": 43.026224,
          "velocity": 0.5669291338582677
        },
        {
          "duration": 0.1907890666666674,
          "durationTicks": 232,
          "midi": 64,
          "name": "E4",
          "ticks": 52560,
          "time": 43.223592,
          "velocity": 0.5669291338582677
        },
        {
          "duration": 0.1907890666666674,
          "durationTicks": 232,
          "midi": 66,
          "name": "F#4",
          "ticks": 52800,
          "time": 43.420959999999994,
          "velocity": 0.5669291338582677
        },
        {
          "duration": 0.1907890666666674,
          "durationTicks": 232,
          "midi": 66,
          "name": "F#4",
          "ticks": 53040,
          "time": 43.618328,
          "velocity": 0.5669291338582677
        },
        {
          "duration": 0.1907890666666674,
          "durationTicks": 232,
          "midi": 66,
          "name": "F#4",
          "ticks": 53280,
          "time": 43.815695999999996,
          "velocity": 0.5669291338582677
        },
        {
          "duration": 0.1907890666666674,
          "durationTicks": 232,
          "midi": 64,
          "name": "E4",
          "ticks": 53520,
          "time": 44.013064,
          "velocity": 0.5669291338582677
        },
        {
          "duration": 0.1907890666666674,
          "durationTicks": 232,
          "midi": 64,
          "name": "E4",
          "ticks": 53760,
          "time": 44.210432,
          "velocity": 0.5669291338582677
        },
        {
          "duration": 0.1907890666666674,
          "durationTicks": 232,
          "midi": 66,
          "name": "F#4",
          "ticks": 54000,
          "time": 44.407799999999995,
          "velocity": 0.5669291338582677
        },
        {
          "duration": 0.1907890666666674,
          "durationTicks": 232,
          "midi": 66,
          "name": "F#4",
          "ticks": 54240,
          "time": 44.605168,
          "velocity": 0.5669291338582677
        },
        {
          "duration": 0.1907890666666674,
          "durationTicks": 232,
          "midi": 64,
          "name": "E4",
          "ticks": 54480,
          "time": 44.802535999999996,
          "velocity": 0.5669291338582677
        },
        {
          "duration": 0.1907890666666603,
          "durationTicks": 232,
          "midi": 66,
          "name": "F#4",
          "ticks": 54720,
          "time": 44.999904,
          "velocity": 0.5669291338582677
        },
        {
          "duration": 0.3881570666666647,
          "durationTicks": 472,
          "midi": 64,
          "name": "E4",
          "ticks": 54960,
          "time": 45.197272,
          "velocity": 0.5669291338582677
        },
        {
          "duration": 0.1907890666666674,
          "durationTicks": 232,
          "midi": 56,
          "name": "G#3",
          "ticks": 55440,
          "time": 45.592008,
          "velocity": 0.5669291338582677
        },
        {
          "duration": 0.1907890666666674,
          "durationTicks": 232,
          "midi": 61,
          "name": "C#4",
          "ticks": 55680,
          "time": 45.789376,
          "velocity": 0.5669291338582677
        },
        {
          "duration": 0.1907890666666674,
          "durationTicks": 232,
          "midi": 64,
          "name": "E4",
          "ticks": 55920,
          "time": 45.986743999999995,
          "velocity": 0.5669291338582677
        },
        {
          "duration": 0.1907890666666674,
          "durationTicks": 232,
          "midi": 61,
          "name": "C#4",
          "ticks": 56160,
          "time": 46.184112,
          "velocity": 0.5669291338582677
        },
        {
          "duration": 0.1907890666666674,
          "durationTicks": 232,
          "midi": 64,
          "name": "E4",
          "ticks": 56400,
          "time": 46.381479999999996,
          "velocity": 0.5669291338582677
        },
        {
          "duration": 0.1907890666666674,
          "durationTicks": 232,
          "midi": 61,
          "name": "C#4",
          "ticks": 56640,
          "time": 46.578847999999994,
          "velocity": 0.5669291338582677
        },
        {
          "duration": 0.1907890666666674,
          "durationTicks": 232,
          "midi": 64,
          "name": "E4",
          "ticks": 56880,
          "time": 46.776216,
          "velocity": 0.5669291338582677
        },
        {
          "duration": 0.1907890666666674,
          "durationTicks": 232,
          "midi": 61,
          "name": "C#4",
          "ticks": 57120,
          "time": 46.973583999999995,
          "velocity": 0.5669291338582677
        },
        {
          "duration": 0.1907890666666674,
          "durationTicks": 232,
          "midi": 64,
          "name": "E4",
          "ticks": 57360,
          "time": 47.170952,
          "velocity": 0.5669291338582677
        },
        {
          "duration": 0.1907890666666674,
          "durationTicks": 232,
          "midi": 69,
          "name": "A4",
          "ticks": 57600,
          "time": 47.36832,
          "velocity": 0.5669291338582677
        },
        {
          "duration": 0.1907890666666674,
          "durationTicks": 232,
          "midi": 61,
          "name": "C#4",
          "ticks": 57840,
          "time": 47.565687999999994,
          "velocity": 0.5669291338582677
        },
        {
          "duration": 0.1907890666666674,
          "durationTicks": 232,
          "midi": 64,
          "name": "E4",
          "ticks": 58080,
          "time": 47.763056,
          "velocity": 0.5669291338582677
        },
        {
          "duration": 0.1907890666666674,
          "durationTicks": 232,
          "midi": 61,
          "name": "C#4",
          "ticks": 58320,
          "time": 47.960423999999996,
          "velocity": 0.5669291338582677
        },
        {
          "duration": 0.1907890666666603,
          "durationTicks": 232,
          "midi": 64,
          "name": "E4",
          "ticks": 58560,
          "time": 48.157792,
          "velocity": 0.5669291338582677
        },
        {
          "duration": 0.1907890666666674,
          "durationTicks": 232,
          "midi": 69,
          "name": "A4",
          "ticks": 58800,
          "time": 48.35516,
          "velocity": 0.5669291338582677
        },
        {
          "duration": 0.1907890666666674,
          "durationTicks": 232,
          "midi": 61,
          "name": "C#4",
          "ticks": 59040,
          "time": 48.552527999999995,
          "velocity": 0.5669291338582677
        },
        {
          "duration": 0.1907890666666674,
          "durationTicks": 232,
          "midi": 64,
          "name": "E4",
          "ticks": 59280,
          "time": 48.749896,
          "velocity": 0.5669291338582677
        },
        {
          "duration": 0.1907890666666674,
          "durationTicks": 232,
          "midi": 61,
          "name": "C#4",
          "ticks": 59520,
          "time": 48.947264,
          "velocity": 0.5669291338582677
        },
        {
          "duration": 0.1907890666666674,
          "durationTicks": 232,
          "midi": 64,
          "name": "E4",
          "ticks": 59760,
          "time": 49.144631999999994,
          "velocity": 0.5669291338582677
        },
        {
          "duration": 0.1907890666666674,
          "durationTicks": 232,
          "midi": 69,
          "name": "A4",
          "ticks": 60000,
          "time": 49.342,
          "velocity": 0.5669291338582677
        },
        {
          "duration": 0.1907890666666674,
          "durationTicks": 232,
          "midi": 61,
          "name": "C#4",
          "ticks": 60240,
          "time": 49.539367999999996,
          "velocity": 0.5669291338582677
        },
        {
          "duration": 0.1907890666666674,
          "durationTicks": 232,
          "midi": 64,
          "name": "E4",
          "ticks": 60480,
          "time": 49.73673599999999,
          "velocity": 0.5669291338582677
        },
        {
          "duration": 0.1907890666666674,
          "durationTicks": 232,
          "midi": 61,
          "name": "C#4",
          "ticks": 60720,
          "time": 49.934104,
          "velocity": 0.5669291338582677
        },
        {
          "duration": 0.1907890666666674,
          "durationTicks": 232,
          "midi": 64,
          "name": "E4",
          "ticks": 60960,
          "time": 50.131471999999995,
          "velocity": 0.5669291338582677
        },
        {
          "duration": 0.1907890666666674,
          "durationTicks": 232,
          "midi": 69,
          "name": "A4",
          "ticks": 61200,
          "time": 50.32884,
          "velocity": 0.5669291338582677
        },
        {
          "duration": 0.1907890666666603,
          "durationTicks": 232,
          "midi": 61,
          "name": "C#4",
          "ticks": 61440,
          "time": 50.526208,
          "velocity": 0.5669291338582677
        },
        {
          "duration": 0.1907890666666674,
          "durationTicks": 232,
          "midi": 64,
          "name": "E4",
          "ticks": 61680,
          "time": 50.723575999999994,
          "velocity": 0.5669291338582677
        },
        {
          "duration": 0.1907890666666603,
          "durationTicks": 232,
          "midi": 69,
          "name": "A4",
          "ticks": 61920,
          "time": 50.920944,
          "velocity": 0.5669291338582677
        },
        {
          "duration": 0.1907890666666603,
          "durationTicks": 232,
          "midi": 61,
          "name": "C#4",
          "ticks": 62160,
          "time": 51.118311999999996,
          "velocity": 0.5669291338582677
        },
        {
          "duration": 0.1907890666666603,
          "durationTicks": 232,
          "midi": 64,
          "name": "E4",
          "ticks": 62400,
          "time": 51.31568,
          "velocity": 0.5669291338582677
        },
        {
          "duration": 0.1907890666666603,
          "durationTicks": 232,
          "midi": 61,
          "name": "C#4",
          "ticks": 62640,
          "time": 51.513048,
          "velocity": 0.5669291338582677
        },
        {
          "duration": 0.1907890666666603,
          "durationTicks": 232,
          "midi": 64,
          "name": "E4",
          "ticks": 62880,
          "time": 51.710415999999995,
          "velocity": 0.5669291338582677
        },
        {
          "duration": 0.1907890666666603,
          "durationTicks": 232,
          "midi": 69,
          "name": "A4",
          "ticks": 63120,
          "time": 51.907784,
          "velocity": 0.5669291338582677
        },
        {
          "duration": 0.1907890666666603,
          "durationTicks": 232,
          "midi": 67,
          "name": "G4",
          "ticks": 63360,
          "time": 52.105152,
          "velocity": 0.5669291338582677
        },
        {
          "duration": 0.1907890666666674,
          "durationTicks": 232,
          "midi": 64,
          "name": "E4",
          "ticks": 63600,
          "time": 52.302519999999994,
          "velocity": 0.5669291338582677
        },
        {
          "duration": 0.1907890666666603,
          "durationTicks": 232,
          "midi": 62,
          "name": "D4",
          "ticks": 63840,
          "time": 52.499888,
          "velocity": 0.5669291338582677
        },
        {
          "duration": 0.1907890666666603,
          "durationTicks": 232,
          "midi": 67,
          "name": "G4",
          "ticks": 64080,
          "time": 52.697255999999996,
          "velocity": 0.5669291338582677
        },
        {
          "duration": 0.1907890666666674,
          "durationTicks": 232,
          "midi": 62,
          "name": "D4",
          "ticks": 64320,
          "time": 52.89462399999999,
          "velocity": 0.5669291338582677
        },
        {
          "duration": 0.1907890666666603,
          "durationTicks": 232,
          "midi": 67,
          "name": "G4",
          "ticks": 64560,
          "time": 53.091992,
          "velocity": 0.5669291338582677
        },
        {
          "duration": 0.1907890666666603,
          "durationTicks": 232,
          "midi": 64,
          "name": "E4",
          "ticks": 64800,
          "time": 53.289359999999995,
          "velocity": 0.5669291338582677
        },
        {
          "duration": 0.1907890666666603,
          "durationTicks": 232,
          "midi": 62,
          "name": "D4",
          "ticks": 65040,
          "time": 53.486728,
          "velocity": 0.5669291338582677
        },
        {
          "duration": 0.1907890666666603,
          "durationTicks": 232,
          "midi": 67,
          "name": "G4",
          "ticks": 65280,
          "time": 53.684096,
          "velocity": 0.5669291338582677
        },
        {
          "duration": 0.1907890666666674,
          "durationTicks": 232,
          "midi": 62,
          "name": "D4",
          "ticks": 65520,
          "time": 53.881463999999994,
          "velocity": 0.5669291338582677
        },
        {
          "duration": 0.1907890666666603,
          "durationTicks": 232,
          "midi": 67,
          "name": "G4",
          "ticks": 65760,
          "time": 54.078832,
          "velocity": 0.5669291338582677
        },
        {
          "duration": 0.1907890666666603,
          "durationTicks": 232,
          "midi": 64,
          "name": "E4",
          "ticks": 66000,
          "time": 54.276199999999996,
          "velocity": 0.5669291338582677
        },
        {
          "duration": 0.1907890666666603,
          "durationTicks": 232,
          "midi": 62,
          "name": "D4",
          "ticks": 66240,
          "time": 54.473568,
          "velocity": 0.5669291338582677
        },
        {
          "duration": 0.1907890666666603,
          "durationTicks": 232,
          "midi": 67,
          "name": "G4",
          "ticks": 66480,
          "time": 54.670936,
          "velocity": 0.5669291338582677
        },
        {
          "duration": 0.1907890666666603,
          "durationTicks": 232,
          "midi": 62,
          "name": "D4",
          "ticks": 66720,
          "time": 54.868303999999995,
          "velocity": 0.5669291338582677
        },
        {
          "duration": 0.1907890666666603,
          "durationTicks": 232,
          "midi": 67,
          "name": "G4",
          "ticks": 66960,
          "time": 55.065672,
          "velocity": 0.5669291338582677
        },
        {
          "duration": 0.1907890666666603,
          "durationTicks": 232,
          "midi": 64,
          "name": "E4",
          "ticks": 67200,
          "time": 55.26304,
          "velocity": 0.5669291338582677
        },
        {
          "duration": 0.1907890666666674,
          "durationTicks": 232,
          "midi": 62,
          "name": "D4",
          "ticks": 67440,
          "time": 55.460407999999994,
          "velocity": 0.5669291338582677
        },
        {
          "duration": 0.1907890666666603,
          "durationTicks": 232,
          "midi": 67,
          "name": "G4",
          "ticks": 67680,
          "time": 55.657776,
          "velocity": 0.5669291338582677
        },
        {
          "duration": 0.1907890666666603,
          "durationTicks": 232,
          "midi": 62,
          "name": "D4",
          "ticks": 67920,
          "time": 55.855143999999996,
          "velocity": 0.5669291338582677
        },
        {
          "duration": 0.1907890666666674,
          "durationTicks": 232,
          "midi": 67,
          "name": "G4",
          "ticks": 68160,
          "time": 56.05251199999999,
          "velocity": 0.5669291338582677
        },
        {
          "duration": 0.1907890666666603,
          "durationTicks": 232,
          "midi": 64,
          "name": "E4",
          "ticks": 68400,
          "time": 56.24988,
          "velocity": 0.5669291338582677
        },
        {
          "duration": 0.1907890666666603,
          "durationTicks": 232,
          "midi": 62,
          "name": "D4",
          "ticks": 68640,
          "time": 56.447247999999995,
          "velocity": 0.5669291338582677
        },
        {
          "duration": 0.1907890666666603,
          "durationTicks": 232,
          "midi": 67,
          "name": "G4",
          "ticks": 68880,
          "time": 56.644616,
          "velocity": 0.5669291338582677
        },
        {
          "duration": 0.1907890666666603,
          "durationTicks": 232,
          "midi": 62,
          "name": "D4",
          "ticks": 69120,
          "time": 56.841984,
          "velocity": 0.5669291338582677
        },
        {
          "duration": 0.1907890666666674,
          "durationTicks": 232,
          "midi": 67,
          "name": "G4",
          "ticks": 69360,
          "time": 57.039351999999994,
          "velocity": 0.5669291338582677
        },
        {
          "duration": 0.1907890666666603,
          "durationTicks": 232,
          "midi": 64,
          "name": "E4",
          "ticks": 69600,
          "time": 57.23672,
          "velocity": 0.5669291338582677
        },
        {
          "duration": 0.1907890666666603,
          "durationTicks": 232,
          "midi": 62,
          "name": "D4",
          "ticks": 69840,
          "time": 57.434087999999996,
          "velocity": 0.5669291338582677
        },
        {
          "duration": 0.1907890666666603,
          "durationTicks": 232,
          "midi": 67,
          "name": "G4",
          "ticks": 70080,
          "time": 57.631456,
          "velocity": 0.5669291338582677
        },
        {
          "duration": 0.1907890666666603,
          "durationTicks": 232,
          "midi": 62,
          "name": "D4",
          "ticks": 70320,
          "time": 57.828824,
          "velocity": 0.5669291338582677
        },
        {
          "duration": 0.1907890666666603,
          "durationTicks": 232,
          "midi": 67,
          "name": "G4",
          "ticks": 70560,
          "time": 58.026191999999995,
          "velocity": 0.5669291338582677
        },
        {
          "duration": 0.1907890666666603,
          "durationTicks": 232,
          "midi": 64,
          "name": "E4",
          "ticks": 70800,
          "time": 58.22356,
          "velocity": 0.5669291338582677
        },
        {
          "duration": 0.1907890666666603,
          "durationTicks": 232,
          "midi": 62,
          "name": "D4",
          "ticks": 71040,
          "time": 58.420927999999996,
          "velocity": 0.5669291338582677
        },
        {
          "duration": 0.1907890666666674,
          "durationTicks": 232,
          "midi": 67,
          "name": "G4",
          "ticks": 71280,
          "time": 58.618295999999994,
          "velocity": 0.5669291338582677
        },
        {
          "duration": 0.1907890666666603,
          "durationTicks": 232,
          "midi": 62,
          "name": "D4",
          "ticks": 71520,
          "time": 58.815664,
          "velocity": 0.5669291338582677
        },
        {
          "duration": 0.1907890666666603,
          "durationTicks": 232,
          "midi": 64,
          "name": "E4",
          "ticks": 71760,
          "time": 59.013031999999995,
          "velocity": 0.5669291338582677
        },
        {
          "duration": 0.1907890666666674,
          "durationTicks": 232,
          "midi": 64,
          "name": "E4",
          "ticks": 72000,
          "time": 59.21039999999999,
          "velocity": 0.5669291338582677
        },
        {
          "duration": 0.1907890666666603,
          "durationTicks": 232,
          "midi": 62,
          "name": "D4",
          "ticks": 72240,
          "time": 59.407768,
          "velocity": 0.5669291338582677
        },
        {
          "duration": 0.1907890666666603,
          "durationTicks": 232,
          "midi": 67,
          "name": "G4",
          "ticks": 72480,
          "time": 59.605135999999995,
          "velocity": 0.5669291338582677
        },
        {
          "duration": 0.1907890666666603,
          "durationTicks": 232,
          "midi": 62,
          "name": "D4",
          "ticks": 72720,
          "time": 59.802504,
          "velocity": 0.5669291338582677
        },
        {
          "duration": 0.1907890666666603,
          "durationTicks": 232,
          "midi": 67,
          "name": "G4",
          "ticks": 72960,
          "time": 59.999871999999996,
          "velocity": 0.5669291338582677
        },
        {
          "duration": 0.1907890666666674,
          "durationTicks": 232,
          "midi": 64,
          "name": "E4",
          "ticks": 73200,
          "time": 60.197239999999994,
          "velocity": 0.5669291338582677
        },
        {
          "duration": 0.1907890666666603,
          "durationTicks": 232,
          "midi": 62,
          "name": "D4",
          "ticks": 73440,
          "time": 60.394608,
          "velocity": 0.5669291338582677
        },
        {
          "duration": 0.1907890666666603,
          "durationTicks": 232,
          "midi": 67,
          "name": "G4",
          "ticks": 73680,
          "time": 60.591975999999995,
          "velocity": 0.5669291338582677
        },
        {
          "duration": 0.1907890666666603,
          "durationTicks": 232,
          "midi": 62,
          "name": "D4",
          "ticks": 73920,
          "time": 60.789344,
          "velocity": 0.5669291338582677
        },
        {
          "duration": 0.1907890666666603,
          "durationTicks": 232,
          "midi": 67,
          "name": "G4",
          "ticks": 74160,
          "time": 60.986712,
          "velocity": 0.5669291338582677
        },
        {
          "duration": 0.1907890666666603,
          "durationTicks": 232,
          "midi": 64,
          "name": "E4",
          "ticks": 74400,
          "time": 61.184079999999994,
          "velocity": 0.5669291338582677
        },
        {
          "duration": 0.1907890666666603,
          "durationTicks": 232,
          "midi": 62,
          "name": "D4",
          "ticks": 74640,
          "time": 61.381448,
          "velocity": 0.5669291338582677
        },
        {
          "duration": 0.1907890666666603,
          "durationTicks": 232,
          "midi": 67,
          "name": "G4",
          "ticks": 74880,
          "time": 61.578815999999996,
          "velocity": 0.5669291338582677
        },
        {
          "duration": 0.1907890666666674,
          "durationTicks": 232,
          "midi": 62,
          "name": "D4",
          "ticks": 75120,
          "time": 61.77618399999999,
          "velocity": 0.5669291338582677
        },
        {
          "duration": 0.1907890666666603,
          "durationTicks": 232,
          "midi": 67,
          "name": "G4",
          "ticks": 75360,
          "time": 61.973552,
          "velocity": 0.5669291338582677
        },
        {
          "duration": 0.1907890666666603,
          "durationTicks": 232,
          "midi": 64,
          "name": "E4",
          "ticks": 75600,
          "time": 62.170919999999995,
          "velocity": 0.5669291338582677
        },
        {
          "duration": 0.1907890666666674,
          "durationTicks": 232,
          "midi": 62,
          "name": "D4",
          "ticks": 75840,
          "time": 62.36828799999999,
          "velocity": 0.5669291338582677
        },
        {
          "duration": 0.1907890666666603,
          "durationTicks": 232,
          "midi": 67,
          "name": "G4",
          "ticks": 76080,
          "time": 62.565656,
          "velocity": 0.5669291338582677
        },
        {
          "duration": 0.1907890666666603,
          "durationTicks": 232,
          "midi": 62,
          "name": "D4",
          "ticks": 76320,
          "time": 62.763023999999994,
          "velocity": 0.5669291338582677
        },
        {
          "duration": 0.1907890666666603,
          "durationTicks": 232,
          "midi": 64,
          "name": "E4",
          "ticks": 76560,
          "time": 62.960392,
          "velocity": 0.5669291338582677
        },
        {
          "duration": 0.1907890666666603,
          "durationTicks": 232,
          "midi": 64,
          "name": "E4",
          "ticks": 76800,
          "time": 63.157759999999996,
          "velocity": 0.5669291338582677
        },
        {
          "duration": 0.1907890666666674,
          "durationTicks": 232,
          "midi": 62,
          "name": "D4",
          "ticks": 77040,
          "time": 63.35512799999999,
          "velocity": 0.5669291338582677
        },
        {
          "duration": 0.1907890666666603,
          "durationTicks": 232,
          "midi": 67,
          "name": "G4",
          "ticks": 77280,
          "time": 63.552496,
          "velocity": 0.5669291338582677
        },
        {
          "duration": 0.1907890666666603,
          "durationTicks": 232,
          "midi": 62,
          "name": "D4",
          "ticks": 77520,
          "time": 63.749863999999995,
          "velocity": 0.5669291338582677
        },
        {
          "duration": 0.19078906666665318,
          "durationTicks": 232,
          "midi": 67,
          "name": "G4",
          "ticks": 77760,
          "time": 63.947232,
          "velocity": 0.5669291338582677
        },
        {
          "duration": 0.1907890666666674,
          "durationTicks": 232,
          "midi": 64,
          "name": "E4",
          "ticks": 78000,
          "time": 64.1446,
          "velocity": 0.5669291338582677
        },
        {
          "duration": 0.1907890666666674,
          "durationTicks": 232,
          "midi": 62,
          "name": "D4",
          "ticks": 78240,
          "time": 64.341968,
          "velocity": 0.5669291338582677
        },
        {
          "duration": 0.1907890666666674,
          "durationTicks": 232,
          "midi": 67,
          "name": "G4",
          "ticks": 78480,
          "time": 64.53933599999999,
          "velocity": 0.5669291338582677
        },
        {
          "duration": 0.19078906666665318,
          "durationTicks": 232,
          "midi": 55,
          "name": "G3",
          "ticks": 78720,
          "time": 64.736704,
          "velocity": 0.5669291338582677
        },
        {
          "duration": 0.19078906666665318,
          "durationTicks": 232,
          "midi": 62,
          "name": "D4",
          "ticks": 78960,
          "time": 64.934072,
          "velocity": 0.5669291338582677
        },
        {
          "duration": 0.19078906666665318,
          "durationTicks": 232,
          "midi": 64,
          "name": "E4",
          "ticks": 79200,
          "time": 65.13144,
          "velocity": 0.5669291338582677
        },
        {
          "duration": 0.1907890666666674,
          "durationTicks": 232,
          "midi": 62,
          "name": "D4",
          "ticks": 79440,
          "time": 65.328808,
          "velocity": 0.5669291338582677
        },
        {
          "duration": 0.1907890666666674,
          "durationTicks": 232,
          "midi": 64,
          "name": "E4",
          "ticks": 79680,
          "time": 65.52617599999999,
          "velocity": 0.5669291338582677
        },
        {
          "duration": 0.1907890666666674,
          "durationTicks": 232,
          "midi": 62,
          "name": "D4",
          "ticks": 79920,
          "time": 65.72354399999999,
          "velocity": 0.5669291338582677
        },
        {
          "duration": 0.19078906666665318,
          "durationTicks": 232,
          "midi": 62,
          "name": "D4",
          "ticks": 80160,
          "time": 65.920912,
          "velocity": 0.5669291338582677
        },
        {
          "duration": 0.19078906666665318,
          "durationTicks": 232,
          "midi": 64,
          "name": "E4",
          "ticks": 80400,
          "time": 66.11828,
          "velocity": 0.5669291338582677
        },
        {
          "duration": 0.1907890666666674,
          "durationTicks": 232,
          "midi": 64,
          "name": "E4",
          "ticks": 80640,
          "time": 66.315648,
          "velocity": 0.5669291338582677
        },
        {
          "duration": 0.1907890666666674,
          "durationTicks": 232,
          "midi": 62,
          "name": "D4",
          "ticks": 80880,
          "time": 66.513016,
          "velocity": 0.5669291338582677
        },
        {
          "duration": 0.1907890666666674,
          "durationTicks": 232,
          "midi": 64,
          "name": "E4",
          "ticks": 81120,
          "time": 66.71038399999999,
          "velocity": 0.5669291338582677
        },
        {
          "duration": 0.19078906666665318,
          "durationTicks": 232,
          "midi": 62,
          "name": "D4",
          "ticks": 81360,
          "time": 66.907752,
          "velocity": 0.5669291338582677
        },
        {
          "duration": 0.19078906666665318,
          "durationTicks": 232,
          "midi": 64,
          "name": "E4",
          "ticks": 81600,
          "time": 67.10512,
          "velocity": 0.5669291338582677
        },
        {
          "duration": 0.1907890666666674,
          "durationTicks": 232,
          "midi": 62,
          "name": "D4",
          "ticks": 81840,
          "time": 67.302488,
          "velocity": 0.5669291338582677
        },
        {
          "duration": 0.1907890666666674,
          "durationTicks": 232,
          "midi": 62,
          "name": "D4",
          "ticks": 82080,
          "time": 67.499856,
          "velocity": 0.5669291338582677
        },
        {
          "duration": 0.1907890666666674,
          "durationTicks": 232,
          "midi": 64,
          "name": "E4",
          "ticks": 82320,
          "time": 67.69722399999999,
          "velocity": 0.5669291338582677
        },
        {
          "duration": 0.1907890666666674,
          "durationTicks": 232,
          "midi": 62,
          "name": "D4",
          "ticks": 82560,
          "time": 67.89459199999999,
          "velocity": 0.5669291338582677
        },
        {
          "duration": 0.19078906666665318,
          "durationTicks": 232,
          "midi": 64,
          "name": "E4",
          "ticks": 82800,
          "time": 68.09196,
          "velocity": 0.5669291338582677
        },
        {
          "duration": 0.19078906666665318,
          "durationTicks": 232,
          "midi": 64,
          "name": "E4",
          "ticks": 83040,
          "time": 68.289328,
          "velocity": 0.5669291338582677
        },
        {
          "duration": 0.1907890666666674,
          "durationTicks": 232,
          "midi": 62,
          "name": "D4",
          "ticks": 83280,
          "time": 68.486696,
          "velocity": 0.5669291338582677
        },
        {
          "duration": 0.1907890666666674,
          "durationTicks": 232,
          "midi": 64,
          "name": "E4",
          "ticks": 83520,
          "time": 68.68406399999999,
          "velocity": 0.5669291338582677
        },
        {
          "duration": 0.1907890666666674,
          "durationTicks": 232,
          "midi": 62,
          "name": "D4",
          "ticks": 83760,
          "time": 68.88143199999999,
          "velocity": 0.5669291338582677
        },
        {
          "duration": 0.19078906666665318,
          "durationTicks": 232,
          "midi": 62,
          "name": "D4",
          "ticks": 84000,
          "time": 69.0788,
          "velocity": 0.5669291338582677
        },
        {
          "duration": 0.19078906666665318,
          "durationTicks": 232,
          "midi": 64,
          "name": "E4",
          "ticks": 84240,
          "time": 69.276168,
          "velocity": 0.5669291338582677
        },
        {
          "duration": 0.1907890666666674,
          "durationTicks": 232,
          "midi": 62,
          "name": "D4",
          "ticks": 84480,
          "time": 69.473536,
          "velocity": 0.5669291338582677
        },
        {
          "duration": 0.1907890666666674,
          "durationTicks": 232,
          "midi": 55,
          "name": "G3",
          "ticks": 84720,
          "time": 69.670904,
          "velocity": 0.5669291338582677
        },
        {
          "duration": 0.1907890666666674,
          "durationTicks": 232,
          "midi": 62,
          "name": "D4",
          "ticks": 84960,
          "time": 69.86827199999999,
          "velocity": 0.5669291338582677
        },
        {
          "duration": 0.19078906666665318,
          "durationTicks": 232,
          "midi": 64,
          "name": "E4",
          "ticks": 85200,
          "time": 70.06564,
          "velocity": 0.5669291338582677
        },
        {
          "duration": 0.19078906666665318,
          "durationTicks": 232,
          "midi": 64,
          "name": "E4",
          "ticks": 85440,
          "time": 70.263008,
          "velocity": 0.5669291338582677
        },
        {
          "duration": 0.1907890666666674,
          "durationTicks": 232,
          "midi": 62,
          "name": "D4",
          "ticks": 85680,
          "time": 70.460376,
          "velocity": 0.5669291338582677
        },
        {
          "duration": 0.1907890666666674,
          "durationTicks": 232,
          "midi": 62,
          "name": "D4",
          "ticks": 85920,
          "time": 70.657744,
          "velocity": 0.5669291338582677
        },
        {
          "duration": 0.1907890666666674,
          "durationTicks": 232,
          "midi": 64,
          "name": "E4",
          "ticks": 86160,
          "time": 70.85511199999999,
          "velocity": 0.5669291338582677
        },
        {
          "duration": 0.19078906666665318,
          "durationTicks": 232,
          "midi": 64,
          "name": "E4",
          "ticks": 86400,
          "time": 71.05248,
          "velocity": 0.5669291338582677
        },
        {
          "duration": 0.19078906666665318,
          "durationTicks": 232,
          "midi": 57,
          "name": "A3",
          "ticks": 86640,
          "time": 71.249848,
          "velocity": 0.5669291338582677
        },
        {
          "duration": 0.19078906666665318,
          "durationTicks": 232,
          "midi": 64,
          "name": "E4",
          "ticks": 86880,
          "time": 71.447216,
          "velocity": 0.5669291338582677
        },
        {
          "duration": 0.1907890666666674,
          "durationTicks": 232,
          "midi": 57,
          "name": "A3",
          "ticks": 87120,
          "time": 71.644584,
          "velocity": 0.5669291338582677
        },
        {
          "duration": 0.1907890666666674,
          "durationTicks": 232,
          "midi": 66,
          "name": "F#4",
          "ticks": 87360,
          "time": 71.84195199999999,
          "velocity": 0.5669291338582677
        },
        {
          "duration": 0.1907890666666674,
          "durationTicks": 232,
          "midi": 66,
          "name": "F#4",
          "ticks": 87600,
          "time": 72.03931999999999,
          "velocity": 0.5669291338582677
        },
        {
          "duration": 0.19078906666665318,
          "durationTicks": 232,
          "midi": 66,
          "name": "F#4",
          "ticks": 87840,
          "time": 72.236688,
          "velocity": 0.5669291338582677
        },
        {
          "duration": 0.19078906666665318,
          "durationTicks": 232,
          "midi": 64,
          "name": "E4",
          "ticks": 88080,
          "time": 72.434056,
          "velocity": 0.5669291338582677
        },
        {
          "duration": 0.1907890666666674,
          "durationTicks": 232,
          "midi": 64,
          "name": "E4",
          "ticks": 88320,
          "time": 72.631424,
          "velocity": 0.5669291338582677
        },
        {
          "duration": 0.1907890666666674,
          "durationTicks": 232,
          "midi": 66,
          "name": "F#4",
          "ticks": 88560,
          "time": 72.82879199999999,
          "velocity": 0.5669291338582677
        },
        {
          "duration": 0.1907890666666674,
          "durationTicks": 232,
          "midi": 66,
          "name": "F#4",
          "ticks": 88800,
          "time": 73.02615999999999,
          "velocity": 0.5669291338582677
        },
        {
          "duration": 0.19078906666665318,
          "durationTicks": 232,
          "midi": 64,
          "name": "E4",
          "ticks": 89040,
          "time": 73.223528,
          "velocity": 0.5669291338582677
        },
        {
          "duration": 0.2565783999999951,
          "durationTicks": 312,
          "midi": 64,
          "name": "E4",
          "ticks": 89280,
          "time": 73.420896,
          "velocity": 0.5669291338582677
        },
        {
          "duration": 0.2565784000000093,
          "durationTicks": 312,
          "midi": 66,
          "name": "F#4",
          "ticks": 89600,
          "time": 73.68405333333332,
          "velocity": 0.5669291338582677
        },
        {
          "duration": 0.2565783999999951,
          "durationTicks": 312,
          "midi": 66,
          "name": "F#4",
          "ticks": 89920,
          "time": 73.94721066666666,
          "velocity": 0.5669291338582677
        },
        {
          "duration": 0.1907890666666674,
          "durationTicks": 232,
          "midi": 66,
          "name": "F#4",
          "ticks": 90240,
          "time": 74.21036799999999,
          "velocity": 0.5669291338582677
        },
        {
          "duration": 0.19078906666665318,
          "durationTicks": 232,
          "midi": 66,
          "name": "F#4",
          "ticks": 90480,
          "time": 74.407736,
          "velocity": 0.5669291338582677
        },
        {
          "duration": 0.19078906666665318,
          "durationTicks": 232,
          "midi": 66,
          "name": "F#4",
          "ticks": 90720,
          "time": 74.605104,
          "velocity": 0.5669291338582677
        },
        {
          "duration": 0.1907890666666674,
          "durationTicks": 232,
          "midi": 64,
          "name": "E4",
          "ticks": 90960,
          "time": 74.802472,
          "velocity": 0.5669291338582677
        },
        {
          "duration": 0.1907890666666674,
          "durationTicks": 232,
          "midi": 66,
          "name": "F#4",
          "ticks": 91200,
          "time": 74.99983999999999,
          "velocity": 0.5669291338582677
        },
        {
          "duration": 0.1907890666666674,
          "durationTicks": 232,
          "midi": 66,
          "name": "F#4",
          "ticks": 91440,
          "time": 75.19720799999999,
          "velocity": 0.5669291338582677
        },
        {
          "duration": 0.19078906666665318,
          "durationTicks": 232,
          "midi": 66,
          "name": "F#4",
          "ticks": 91680,
          "time": 75.394576,
          "velocity": 0.5669291338582677
        },
        {
          "duration": 0.19078906666665318,
          "durationTicks": 232,
          "midi": 64,
          "name": "E4",
          "ticks": 91920,
          "time": 75.591944,
          "velocity": 0.5669291338582677
        },
        {
          "duration": 0.1907890666666674,
          "durationTicks": 232,
          "midi": 64,
          "name": "E4",
          "ticks": 92160,
          "time": 75.789312,
          "velocity": 0.5669291338582677
        },
        {
          "duration": 0.1907890666666674,
          "durationTicks": 232,
          "midi": 66,
          "name": "F#4",
          "ticks": 92400,
          "time": 75.98667999999999,
          "velocity": 0.5669291338582677
        },
        {
          "duration": 0.1907890666666674,
          "durationTicks": 232,
          "midi": 66,
          "name": "F#4",
          "ticks": 92640,
          "time": 76.18404799999999,
          "velocity": 0.5669291338582677
        },
        {
          "duration": 0.19078906666665318,
          "durationTicks": 232,
          "midi": 64,
          "name": "E4",
          "ticks": 92880,
          "time": 76.381416,
          "velocity": 0.5669291338582677
        },
        {
          "duration": 0.19078906666665318,
          "durationTicks": 232,
          "midi": 66,
          "name": "F#4",
          "ticks": 93120,
          "time": 76.578784,
          "velocity": 0.5669291338582677
        },
        {
          "duration": 0.3881570666666647,
          "durationTicks": 472,
          "midi": 64,
          "name": "E4",
          "ticks": 93360,
          "time": 76.776152,
          "velocity": 0.5669291338582677
        },
        {
          "duration": 0.1907890666666674,
          "durationTicks": 232,
          "midi": 56,
          "name": "G#3",
          "ticks": 93840,
          "time": 77.17088799999999,
          "velocity": 0.5669291338582677
        },
        {
          "duration": 0.19078906666665318,
          "durationTicks": 232,
          "midi": 61,
          "name": "C#4",
          "ticks": 94080,
          "time": 77.368256,
          "velocity": 0.5669291338582677
        },
        {
          "duration": 0.19078906666665318,
          "durationTicks": 232,
          "midi": 64,
          "name": "E4",
          "ticks": 94320,
          "time": 77.565624,
          "velocity": 0.5669291338582677
        },
        {
          "duration": 0.19078906666665318,
          "durationTicks": 232,
          "midi": 61,
          "name": "C#4",
          "ticks": 94560,
          "time": 77.762992,
          "velocity": 0.5669291338582677
        },
        {
          "duration": 0.1907890666666674,
          "durationTicks": 232,
          "midi": 64,
          "name": "E4",
          "ticks": 94800,
          "time": 77.96036,
          "velocity": 0.5669291338582677
        },
        {
          "duration": 0.1907890666666674,
          "durationTicks": 232,
          "midi": 61,
          "name": "C#4",
          "ticks": 95040,
          "time": 78.15772799999999,
          "velocity": 0.5669291338582677
        },
        {
          "duration": 0.1907890666666674,
          "durationTicks": 232,
          "midi": 64,
          "name": "E4",
          "ticks": 95280,
          "time": 78.35509599999999,
          "velocity": 0.5669291338582677
        },
        {
          "duration": 0.19078906666665318,
          "durationTicks": 232,
          "midi": 61,
          "name": "C#4",
          "ticks": 95520,
          "time": 78.552464,
          "velocity": 0.5669291338582677
        },
        {
          "duration": 0.19078906666665318,
          "durationTicks": 232,
          "midi": 64,
          "name": "E4",
          "ticks": 95760,
          "time": 78.749832,
          "velocity": 0.5669291338582677
        },
        {
          "duration": 0.1907890666666674,
          "durationTicks": 232,
          "midi": 69,
          "name": "A4",
          "ticks": 96000,
          "time": 78.9472,
          "velocity": 0.5669291338582677
        },
        {
          "duration": 0.1907890666666674,
          "durationTicks": 232,
          "midi": 61,
          "name": "C#4",
          "ticks": 96240,
          "time": 79.14456799999999,
          "velocity": 0.5669291338582677
        },
        {
          "duration": 0.1907890666666674,
          "durationTicks": 232,
          "midi": 64,
          "name": "E4",
          "ticks": 96480,
          "time": 79.34193599999999,
          "velocity": 0.5669291338582677
        },
        {
          "duration": 0.19078906666665318,
          "durationTicks": 232,
          "midi": 61,
          "name": "C#4",
          "ticks": 96720,
          "time": 79.539304,
          "velocity": 0.5669291338582677
        },
        {
          "duration": 0.19078906666665318,
          "durationTicks": 232,
          "midi": 64,
          "name": "E4",
          "ticks": 96960,
          "time": 79.736672,
          "velocity": 0.5669291338582677
        },
        {
          "duration": 0.1907890666666674,
          "durationTicks": 232,
          "midi": 69,
          "name": "A4",
          "ticks": 97200,
          "time": 79.93404,
          "velocity": 0.5669291338582677
        },
        {
          "duration": 0.1907890666666674,
          "durationTicks": 232,
          "midi": 61,
          "name": "C#4",
          "ticks": 97440,
          "time": 80.131408,
          "velocity": 0.5669291338582677
        },
        {
          "duration": 0.1907890666666674,
          "durationTicks": 232,
          "midi": 64,
          "name": "E4",
          "ticks": 97680,
          "time": 80.32877599999999,
          "velocity": 0.5669291338582677
        },
        {
          "duration": 0.1907890666666674,
          "durationTicks": 232,
          "midi": 61,
          "name": "C#4",
          "ticks": 97920,
          "time": 80.52614399999999,
          "velocity": 0.5669291338582677
        },
        {
          "duration": 0.19078906666665318,
          "durationTicks": 232,
          "midi": 64,
          "name": "E4",
          "ticks": 98160,
          "time": 80.723512,
          "velocity": 0.5669291338582677
        },
        {
          "duration": 0.19078906666665318,
          "durationTicks": 232,
          "midi": 69,
          "name": "A4",
          "ticks": 98400,
          "time": 80.92088,
          "velocity": 0.5669291338582677
        },
        {
          "duration": 0.1907890666666674,
          "durationTicks": 232,
          "midi": 61,
          "name": "C#4",
          "ticks": 98640,
          "time": 81.118248,
          "velocity": 0.5669291338582677
        },
        {
          "duration": 0.1907890666666674,
          "durationTicks": 232,
          "midi": 64,
          "name": "E4",
          "ticks": 98880,
          "time": 81.31561599999999,
          "velocity": 0.5669291338582677
        },
        {
          "duration": 0.1907890666666674,
          "durationTicks": 232,
          "midi": 61,
          "name": "C#4",
          "ticks": 99120,
          "time": 81.51298399999999,
          "velocity": 0.5669291338582677
        },
        {
          "duration": 0.19078906666665318,
          "durationTicks": 232,
          "midi": 64,
          "name": "E4",
          "ticks": 99360,
          "time": 81.710352,
          "velocity": 0.5669291338582677
        },
        {
          "duration": 0.19078906666665318,
          "durationTicks": 232,
          "midi": 69,
          "name": "A4",
          "ticks": 99600,
          "time": 81.90772,
          "velocity": 0.5669291338582677
        },
        {
          "duration": 0.1907890666666674,
          "durationTicks": 232,
          "midi": 61,
          "name": "C#4",
          "ticks": 99840,
          "time": 82.105088,
          "velocity": 0.5669291338582677
        },
        {
          "duration": 0.1907890666666674,
          "durationTicks": 232,
          "midi": 64,
          "name": "E4",
          "ticks": 100080,
          "time": 82.30245599999999,
          "velocity": 0.5669291338582677
        },
        {
          "duration": 0.1907890666666674,
          "durationTicks": 232,
          "midi": 69,
          "name": "A4",
          "ticks": 100320,
          "time": 82.49982399999999,
          "velocity": 0.5669291338582677
        },
        {
          "duration": 0.19078906666665318,
          "durationTicks": 232,
          "midi": 61,
          "name": "C#4",
          "ticks": 100560,
          "time": 82.697192,
          "velocity": 0.5669291338582677
        },
        {
          "duration": 0.19078906666665318,
          "durationTicks": 232,
          "midi": 64,
          "name": "E4",
          "ticks": 100800,
          "time": 82.89456,
          "velocity": 0.5669291338582677
        },
        {
          "duration": 0.1907890666666674,
          "durationTicks": 232,
          "midi": 61,
          "name": "C#4",
          "ticks": 101040,
          "time": 83.091928,
          "velocity": 0.5669291338582677
        },
        {
          "duration": 0.1907890666666674,
          "durationTicks": 232,
          "midi": 64,
          "name": "E4",
          "ticks": 101280,
          "time": 83.289296,
          "velocity": 0.5669291338582677
        },
        {
          "duration": 0.1907890666666674,
          "durationTicks": 232,
          "midi": 69,
          "name": "A4",
          "ticks": 101520,
          "time": 83.48666399999999,
          "velocity": 0.5669291338582677
        },
        {
          "duration": 0.19078906666665318,
          "durationTicks": 232,
          "midi": 62,
          "name": "D4",
          "ticks": 101760,
          "time": 83.684032,
          "velocity": 0.5669291338582677
        },
        {
          "duration": 0.19078906666665318,
          "durationTicks": 232,
          "midi": 67,
          "name": "G4",
          "ticks": 102000,
          "time": 83.8814,
          "velocity": 0.5669291338582677
        },
        {
          "duration": 0.19078906666665318,
          "durationTicks": 232,
          "midi": 62,
          "name": "D4",
          "ticks": 102240,
          "time": 84.078768,
          "velocity": 0.5669291338582677
        },
        {
          "duration": 0.1907890666666674,
          "durationTicks": 232,
          "midi": 64,
          "name": "E4",
          "ticks": 102480,
          "time": 84.276136,
          "velocity": 0.5669291338582677
        },
        {
          "duration": 0.1907890666666674,
          "durationTicks": 232,
          "midi": 64,
          "name": "E4",
          "ticks": 102720,
          "time": 84.47350399999999,
          "velocity": 0.5669291338582677
        },
        {
          "duration": 0.1907890666666674,
          "durationTicks": 232,
          "midi": 62,
          "name": "D4",
          "ticks": 102960,
          "time": 84.67087199999999,
          "velocity": 0.5669291338582677
        },
        {
          "duration": 0.19078906666665318,
          "durationTicks": 232,
          "midi": 67,
          "name": "G4",
          "ticks": 103200,
          "time": 84.86824,
          "velocity": 0.5669291338582677
        },
        {
          "duration": 0.19078906666665318,
          "durationTicks": 232,
          "midi": 62,
          "name": "D4",
          "ticks": 103440,
          "time": 85.065608,
          "velocity": 0.5669291338582677
        },
        {
          "duration": 0.1907890666666674,
          "durationTicks": 232,
          "midi": 67,
          "name": "G4",
          "ticks": 103680,
          "time": 85.262976,
          "velocity": 0.5669291338582677
        },
        {
          "duration": 0.1907890666666674,
          "durationTicks": 232,
          "midi": 64,
          "name": "E4",
          "ticks": 103920,
          "time": 85.46034399999999,
          "velocity": 0.5669291338582677
        },
        {
          "duration": 0.1907890666666674,
          "durationTicks": 232,
          "midi": 62,
          "name": "D4",
          "ticks": 104160,
          "time": 85.65771199999999,
          "velocity": 0.5669291338582677
        },
        {
          "duration": 0.19078906666665318,
          "durationTicks": 232,
          "midi": 67,
          "name": "G4",
          "ticks": 104400,
          "time": 85.85508,
          "velocity": 0.5669291338582677
        },
        {
          "duration": 0.19078906666665318,
          "durationTicks": 232,
          "midi": 62,
          "name": "D4",
          "ticks": 104640,
          "time": 86.052448,
          "velocity": 0.5669291338582677
        },
        {
          "duration": 0.1907890666666674,
          "durationTicks": 232,
          "midi": 67,
          "name": "G4",
          "ticks": 104880,
          "time": 86.249816,
          "velocity": 0.5669291338582677
        },
        {
          "duration": 0.1907890666666674,
          "durationTicks": 232,
          "midi": 64,
          "name": "E4",
          "ticks": 105120,
          "time": 86.447184,
          "velocity": 0.5669291338582677
        },
        {
          "duration": 0.1907890666666674,
          "durationTicks": 232,
          "midi": 62,
          "name": "D4",
          "ticks": 105360,
          "time": 86.64455199999999,
          "velocity": 0.5669291338582677
        },
        {
          "duration": 0.1907890666666674,
          "durationTicks": 232,
          "midi": 67,
          "name": "G4",
          "ticks": 105600,
          "time": 86.84191999999999,
          "velocity": 0.5669291338582677
        },
        {
          "duration": 0.19078906666665318,
          "durationTicks": 232,
          "midi": 62,
          "name": "D4",
          "ticks": 105840,
          "time": 87.039288,
          "velocity": 0.5669291338582677
        },
        {
          "duration": 0.19078906666665318,
          "durationTicks": 232,
          "midi": 67,
          "name": "G4",
          "ticks": 106080,
          "time": 87.236656,
          "velocity": 0.5669291338582677
        },
        {
          "duration": 0.1907890666666674,
          "durationTicks": 232,
          "midi": 64,
          "name": "E4",
          "ticks": 106320,
          "time": 87.434024,
          "velocity": 0.5669291338582677
        },
        {
          "duration": 0.1907890666666674,
          "durationTicks": 232,
          "midi": 62,
          "name": "D4",
          "ticks": 106560,
          "time": 87.63139199999999,
          "velocity": 0.5669291338582677
        },
        {
          "duration": 0.1907890666666674,
          "durationTicks": 232,
          "midi": 67,
          "name": "G4",
          "ticks": 106800,
          "time": 87.82875999999999,
          "velocity": 0.5669291338582677
        },
        {
          "duration": 0.19078906666665318,
          "durationTicks": 232,
          "midi": 62,
          "name": "D4",
          "ticks": 107040,
          "time": 88.026128,
          "velocity": 0.5669291338582677
        },
        {
          "duration": 0.19078906666665318,
          "durationTicks": 232,
          "midi": 64,
          "name": "E4",
          "ticks": 107280,
          "time": 88.223496,
          "velocity": 0.5669291338582677
        },
        {
          "duration": 0.1907890666666674,
          "durationTicks": 232,
          "midi": 64,
          "name": "E4",
          "ticks": 107520,
          "time": 88.420864,
          "velocity": 0.5669291338582677
        },
        {
          "duration": 0.1907890666666674,
          "durationTicks": 232,
          "midi": 62,
          "name": "D4",
          "ticks": 107760,
          "time": 88.61823199999999,
          "velocity": 0.5669291338582677
        },
        {
          "duration": 0.1907890666666674,
          "durationTicks": 232,
          "midi": 67,
          "name": "G4",
          "ticks": 108000,
          "time": 88.81559999999999,
          "velocity": 0.5669291338582677
        },
        {
          "duration": 0.19078906666665318,
          "durationTicks": 232,
          "midi": 62,
          "name": "D4",
          "ticks": 108240,
          "time": 89.012968,
          "velocity": 0.5669291338582677
        },
        {
          "duration": 0.19078906666665318,
          "durationTicks": 232,
          "midi": 67,
          "name": "G4",
          "ticks": 108480,
          "time": 89.210336,
          "velocity": 0.5669291338582677
        },
        {
          "duration": 0.1907890666666674,
          "durationTicks": 232,
          "midi": 64,
          "name": "E4",
          "ticks": 108720,
          "time": 89.407704,
          "velocity": 0.5669291338582677
        },
        {
          "duration": 0.1907890666666674,
          "durationTicks": 232,
          "midi": 62,
          "name": "D4",
          "ticks": 108960,
          "time": 89.60507199999999,
          "velocity": 0.5669291338582677
        },
        {
          "duration": 0.1907890666666674,
          "durationTicks": 232,
          "midi": 67,
          "name": "G4",
          "ticks": 109200,
          "time": 89.80243999999999,
          "velocity": 0.5669291338582677
        },
        {
          "duration": 0.19078906666665318,
          "durationTicks": 232,
          "midi": 55,
          "name": "G3",
          "ticks": 109440,
          "time": 89.999808,
          "velocity": 0.5669291338582677
        },
        {
          "duration": 0.19078906666665318,
          "durationTicks": 232,
          "midi": 62,
          "name": "D4",
          "ticks": 109680,
          "time": 90.197176,
          "velocity": 0.5669291338582677
        },
        {
          "duration": 0.19078906666665318,
          "durationTicks": 232,
          "midi": 64,
          "name": "E4",
          "ticks": 109920,
          "time": 90.394544,
          "velocity": 0.5669291338582677
        },
        {
          "duration": 0.1907890666666674,
          "durationTicks": 232,
          "midi": 62,
          "name": "D4",
          "ticks": 110160,
          "time": 90.591912,
          "velocity": 0.5669291338582677
        },
        {
          "duration": 0.1907890666666674,
          "durationTicks": 232,
          "midi": 64,
          "name": "E4",
          "ticks": 110400,
          "time": 90.78927999999999,
          "velocity": 0.5669291338582677
        },
        {
          "duration": 0.1907890666666674,
          "durationTicks": 232,
          "midi": 62,
          "name": "D4",
          "ticks": 110640,
          "time": 90.98664799999999,
          "velocity": 0.5669291338582677
        },
        {
          "duration": 0.19078906666665318,
          "durationTicks": 232,
          "midi": 62,
          "name": "D4",
          "ticks": 110880,
          "time": 91.184016,
          "velocity": 0.5669291338582677
        },
        {
          "duration": 0.19078906666665318,
          "durationTicks": 232,
          "midi": 64,
          "name": "E4",
          "ticks": 111120,
          "time": 91.381384,
          "velocity": 0.5669291338582677
        },
        {
          "duration": 0.1907890666666674,
          "durationTicks": 232,
          "midi": 64,
          "name": "E4",
          "ticks": 111360,
          "time": 91.578752,
          "velocity": 0.5669291338582677
        },
        {
          "duration": 0.1907890666666674,
          "durationTicks": 232,
          "midi": 62,
          "name": "D4",
          "ticks": 111600,
          "time": 91.77611999999999,
          "velocity": 0.5669291338582677
        },
        {
          "duration": 0.1907890666666674,
          "durationTicks": 232,
          "midi": 64,
          "name": "E4",
          "ticks": 111840,
          "time": 91.97348799999999,
          "velocity": 0.5669291338582677
        },
        {
          "duration": 0.19078906666665318,
          "durationTicks": 232,
          "midi": 62,
          "name": "D4",
          "ticks": 112080,
          "time": 92.170856,
          "velocity": 0.5669291338582677
        },
        {
          "duration": 0.19078906666665318,
          "durationTicks": 232,
          "midi": 64,
          "name": "E4",
          "ticks": 112320,
          "time": 92.368224,
          "velocity": 0.5669291338582677
        },
        {
          "duration": 0.1907890666666674,
          "durationTicks": 232,
          "midi": 62,
          "name": "D4",
          "ticks": 112560,
          "time": 92.565592,
          "velocity": 0.5669291338582677
        },
        {
          "duration": 0.1907890666666674,
          "durationTicks": 232,
          "midi": 62,
          "name": "D4",
          "ticks": 112800,
          "time": 92.76295999999999,
          "velocity": 0.5669291338582677
        },
        {
          "duration": 0.1907890666666674,
          "durationTicks": 232,
          "midi": 64,
          "name": "E4",
          "ticks": 113040,
          "time": 92.96032799999999,
          "velocity": 0.5669291338582677
        },
        {
          "duration": 0.1907890666666674,
          "durationTicks": 232,
          "midi": 62,
          "name": "D4",
          "ticks": 113280,
          "time": 93.15769599999999,
          "velocity": 0.5669291338582677
        },
        {
          "duration": 0.19078906666665318,
          "durationTicks": 232,
          "midi": 64,
          "name": "E4",
          "ticks": 113520,
          "time": 93.355064,
          "velocity": 0.5669291338582677
        },
        {
          "duration": 0.19078906666665318,
          "durationTicks": 232,
          "midi": 64,
          "name": "E4",
          "ticks": 113760,
          "time": 93.552432,
          "velocity": 0.5669291338582677
        },
        {
          "duration": 0.1907890666666674,
          "durationTicks": 232,
          "midi": 62,
          "name": "D4",
          "ticks": 114000,
          "time": 93.7498,
          "velocity": 0.5669291338582677
        },
        {
          "duration": 0.1907890666666674,
          "durationTicks": 232,
          "midi": 64,
          "name": "E4",
          "ticks": 114240,
          "time": 93.94716799999999,
          "velocity": 0.5669291338582677
        },
        {
          "duration": 0.1907890666666674,
          "durationTicks": 232,
          "midi": 62,
          "name": "D4",
          "ticks": 114480,
          "time": 94.14453599999999,
          "velocity": 0.5669291338582677
        },
        {
          "duration": 0.19078906666665318,
          "durationTicks": 232,
          "midi": 62,
          "name": "D4",
          "ticks": 114720,
          "time": 94.341904,
          "velocity": 0.5669291338582677
        },
        {
          "duration": 0.19078906666665318,
          "durationTicks": 232,
          "midi": 64,
          "name": "E4",
          "ticks": 114960,
          "time": 94.539272,
          "velocity": 0.5669291338582677
        },
        {
          "duration": 0.1907890666666674,
          "durationTicks": 232,
          "midi": 62,
          "name": "D4",
          "ticks": 115200,
          "time": 94.73664,
          "velocity": 0.5669291338582677
        },
        {
          "duration": 0.1907890666666674,
          "durationTicks": 232,
          "midi": 55,
          "name": "G3",
          "ticks": 115440,
          "time": 94.93400799999999,
          "velocity": 0.5669291338582677
        },
        {
          "duration": 0.1907890666666674,
          "durationTicks": 232,
          "midi": 62,
          "name": "D4",
          "ticks": 115680,
          "time": 95.13137599999999,
          "velocity": 0.5669291338582677
        },
        {
          "duration": 0.19078906666665318,
          "durationTicks": 232,
          "midi": 64,
          "name": "E4",
          "ticks": 115920,
          "time": 95.328744,
          "velocity": 0.5669291338582677
        },
        {
          "duration": 0.19078906666665318,
          "durationTicks": 232,
          "midi": 64,
          "name": "E4",
          "ticks": 116160,
          "time": 95.526112,
          "velocity": 0.5669291338582677
        },
        {
          "duration": 0.1907890666666674,
          "durationTicks": 232,
          "midi": 62,
          "name": "D4",
          "ticks": 116400,
          "time": 95.72348,
          "velocity": 0.5669291338582677
        },
        {
          "duration": 0.1907890666666674,
          "durationTicks": 232,
          "midi": 62,
          "name": "D4",
          "ticks": 116640,
          "time": 95.92084799999999,
          "velocity": 0.5669291338582677
        },
        {
          "duration": 0.1907890666666674,
          "durationTicks": 232,
          "midi": 64,
          "name": "E4",
          "ticks": 116880,
          "time": 96.11821599999999,
          "velocity": 0.5669291338582677
        },
        {
          "duration": 0.19078906666665318,
          "durationTicks": 232,
          "midi": 64,
          "name": "E4",
          "ticks": 117120,
          "time": 96.315584,
          "velocity": 0.5669291338582677
        },
        {
          "duration": 0.19078906666665318,
          "durationTicks": 232,
          "midi": 57,
          "name": "A3",
          "ticks": 117360,
          "time": 96.512952,
          "velocity": 0.5669291338582677
        },
        {
          "duration": 0.19078906666665318,
          "durationTicks": 232,
          "midi": 64,
          "name": "E4",
          "ticks": 117600,
          "time": 96.71032,
          "velocity": 0.5669291338582677
        },
        {
          "duration": 0.1907890666666674,
          "durationTicks": 232,
          "midi": 57,
          "name": "A3",
          "ticks": 117840,
          "time": 96.907688,
          "velocity": 0.5669291338582677
        },
        {
          "duration": 0.1907890666666674,
          "durationTicks": 232,
          "midi": 66,
          "name": "F#4",
          "ticks": 118080,
          "time": 97.10505599999999,
          "velocity": 0.5669291338582677
        },
        {
          "duration": 0.1907890666666674,
          "durationTicks": 232,
          "midi": 66,
          "name": "F#4",
          "ticks": 118320,
          "time": 97.30242399999999,
          "velocity": 0.5669291338582677
        },
        {
          "duration": 0.19078906666665318,
          "durationTicks": 232,
          "midi": 66,
          "name": "F#4",
          "ticks": 118560,
          "time": 97.499792,
          "velocity": 0.5669291338582677
        },
        {
          "duration": 0.19078906666665318,
          "durationTicks": 232,
          "midi": 64,
          "name": "E4",
          "ticks": 118800,
          "time": 97.69716,
          "velocity": 0.5669291338582677
        },
        {
          "duration": 0.1907890666666674,
          "durationTicks": 232,
          "midi": 64,
          "name": "E4",
          "ticks": 119040,
          "time": 97.894528,
          "velocity": 0.5669291338582677
        },
        {
          "duration": 0.1907890666666674,
          "durationTicks": 232,
          "midi": 66,
          "name": "F#4",
          "ticks": 119280,
          "time": 98.09189599999999,
          "velocity": 0.5669291338582677
        },
        {
          "duration": 0.1907890666666674,
          "durationTicks": 232,
          "midi": 66,
          "name": "F#4",
          "ticks": 119520,
          "time": 98.28926399999999,
          "velocity": 0.5669291338582677
        },
        {
          "duration": 0.19078906666665318,
          "durationTicks": 232,
          "midi": 64,
          "name": "E4",
          "ticks": 119760,
          "time": 98.486632,
          "velocity": 0.5669291338582677
        },
        {
          "duration": 0.2565783999999951,
          "durationTicks": 312,
          "midi": 64,
          "name": "E4",
          "ticks": 120000,
          "time": 98.684,
          "velocity": 0.5669291338582677
        },
        {
          "duration": 0.2565784000000093,
          "durationTicks": 312,
          "midi": 66,
          "name": "F#4",
          "ticks": 120320,
          "time": 98.94715733333332,
          "velocity": 0.5669291338582677
        },
        {
          "duration": 0.2565783999999951,
          "durationTicks": 312,
          "midi": 66,
          "name": "F#4",
          "ticks": 120640,
          "time": 99.21031466666666,
          "velocity": 0.5669291338582677
        },
        {
          "duration": 0.1907890666666674,
          "durationTicks": 232,
          "midi": 66,
          "name": "F#4",
          "ticks": 120960,
          "time": 99.47347199999999,
          "velocity": 0.5669291338582677
        },
        {
          "duration": 0.19078906666665318,
          "durationTicks": 232,
          "midi": 66,
          "name": "F#4",
          "ticks": 121200,
          "time": 99.67084,
          "velocity": 0.5669291338582677
        },
        {
          "duration": 0.19078906666665318,
          "durationTicks": 232,
          "midi": 66,
          "name": "F#4",
          "ticks": 121440,
          "time": 99.868208,
          "velocity": 0.5669291338582677
        },
        {
          "duration": 0.1907890666666674,
          "durationTicks": 232,
          "midi": 64,
          "name": "E4",
          "ticks": 121680,
          "time": 100.065576,
          "velocity": 0.5669291338582677
        },
        {
          "duration": 0.1907890666666674,
          "durationTicks": 232,
          "midi": 66,
          "name": "F#4",
          "ticks": 121920,
          "time": 100.26294399999999,
          "velocity": 0.5669291338582677
        },
        {
          "duration": 0.1907890666666674,
          "durationTicks": 232,
          "midi": 66,
          "name": "F#4",
          "ticks": 122160,
          "time": 100.46031199999999,
          "velocity": 0.5669291338582677
        },
        {
          "duration": 0.19078906666665318,
          "durationTicks": 232,
          "midi": 66,
          "name": "F#4",
          "ticks": 122400,
          "time": 100.65768,
          "velocity": 0.5669291338582677
        },
        {
          "duration": 0.19078906666665318,
          "durationTicks": 232,
          "midi": 64,
          "name": "E4",
          "ticks": 122640,
          "time": 100.855048,
          "velocity": 0.5669291338582677
        },
        {
          "duration": 0.1907890666666674,
          "durationTicks": 232,
          "midi": 64,
          "name": "E4",
          "ticks": 122880,
          "time": 101.052416,
          "velocity": 0.5669291338582677
        },
        {
          "duration": 0.1907890666666816,
          "durationTicks": 232,
          "midi": 66,
          "name": "F#4",
          "ticks": 123120,
          "time": 101.24978399999999,
          "velocity": 0.5669291338582677
        },
        {
          "duration": 0.1907890666666816,
          "durationTicks": 232,
          "midi": 66,
          "name": "F#4",
          "ticks": 123360,
          "time": 101.44715199999999,
          "velocity": 0.5669291338582677
        },
        {
          "duration": 0.1907890666666674,
          "durationTicks": 232,
          "midi": 64,
          "name": "E4",
          "ticks": 123600,
          "time": 101.64452,
          "velocity": 0.5669291338582677
        },
        {
          "duration": 0.1907890666666674,
          "durationTicks": 232,
          "midi": 66,
          "name": "F#4",
          "ticks": 123840,
          "time": 101.841888,
          "velocity": 0.5669291338582677
        },
        {
          "duration": 0.3881570666666647,
          "durationTicks": 472,
          "midi": 64,
          "name": "E4",
          "ticks": 124080,
          "time": 102.039256,
          "velocity": 0.5669291338582677
        },
        {
          "duration": 0.1907890666666816,
          "durationTicks": 232,
          "midi": 56,
          "name": "G#3",
          "ticks": 124560,
          "time": 102.43399199999999,
          "velocity": 0.5669291338582677
        },
        {
          "duration": 0.1907890666666674,
          "durationTicks": 232,
          "midi": 61,
          "name": "C#4",
          "ticks": 124800,
          "time": 102.63136,
          "velocity": 0.5669291338582677
        },
        {
          "duration": 0.1907890666666674,
          "durationTicks": 232,
          "midi": 64,
          "name": "E4",
          "ticks": 125040,
          "time": 102.828728,
          "velocity": 0.5669291338582677
        },
        {
          "duration": 0.1907890666666674,
          "durationTicks": 232,
          "midi": 61,
          "name": "C#4",
          "ticks": 125280,
          "time": 103.026096,
          "velocity": 0.5669291338582677
        },
        {
          "duration": 0.1907890666666674,
          "durationTicks": 232,
          "midi": 64,
          "name": "E4",
          "ticks": 125520,
          "time": 103.22346399999999,
          "velocity": 0.5669291338582677
        },
        {
          "duration": 0.1907890666666816,
          "durationTicks": 232,
          "midi": 61,
          "name": "C#4",
          "ticks": 125760,
          "time": 103.42083199999999,
          "velocity": 0.5669291338582677
        },
        {
          "duration": 0.1907890666666816,
          "durationTicks": 232,
          "midi": 64,
          "name": "E4",
          "ticks": 126000,
          "time": 103.61819999999999,
          "velocity": 0.5669291338582677
        },
        {
          "duration": 0.1907890666666674,
          "durationTicks": 232,
          "midi": 61,
          "name": "C#4",
          "ticks": 126240,
          "time": 103.815568,
          "velocity": 0.5669291338582677
        },
        {
          "duration": 0.1907890666666674,
          "durationTicks": 232,
          "midi": 64,
          "name": "E4",
          "ticks": 126480,
          "time": 104.012936,
          "velocity": 0.5669291338582677
        },
        {
          "duration": 0.1907890666666674,
          "durationTicks": 232,
          "midi": 69,
          "name": "A4",
          "ticks": 126720,
          "time": 104.210304,
          "velocity": 0.5669291338582677
        },
        {
          "duration": 0.1907890666666816,
          "durationTicks": 232,
          "midi": 61,
          "name": "C#4",
          "ticks": 126960,
          "time": 104.40767199999999,
          "velocity": 0.5669291338582677
        },
        {
          "duration": 0.1907890666666816,
          "durationTicks": 232,
          "midi": 64,
          "name": "E4",
          "ticks": 127200,
          "time": 104.60503999999999,
          "velocity": 0.5669291338582677
        },
        {
          "duration": 0.1907890666666674,
          "durationTicks": 232,
          "midi": 61,
          "name": "C#4",
          "ticks": 127440,
          "time": 104.802408,
          "velocity": 0.5669291338582677
        },
        {
          "duration": 0.1907890666666674,
          "durationTicks": 232,
          "midi": 64,
          "name": "E4",
          "ticks": 127680,
          "time": 104.999776,
          "velocity": 0.5669291338582677
        },
        {
          "duration": 0.1907890666666674,
          "durationTicks": 232,
          "midi": 69,
          "name": "A4",
          "ticks": 127920,
          "time": 105.197144,
          "velocity": 0.5669291338582677
        },
        {
          "duration": 0.1907890666666674,
          "durationTicks": 232,
          "midi": 61,
          "name": "C#4",
          "ticks": 128160,
          "time": 105.39451199999999,
          "velocity": 0.5669291338582677
        },
        {
          "duration": 0.1907890666666816,
          "durationTicks": 232,
          "midi": 64,
          "name": "E4",
          "ticks": 128400,
          "time": 105.59187999999999,
          "velocity": 0.5669291338582677
        },
        {
          "duration": 0.1907890666666816,
          "durationTicks": 232,
          "midi": 61,
          "name": "C#4",
          "ticks": 128640,
          "time": 105.78924799999999,
          "velocity": 0.5669291338582677
        },
        {
          "duration": 0.1907890666666674,
          "durationTicks": 232,
          "midi": 64,
          "name": "E4",
          "ticks": 128880,
          "time": 105.986616,
          "velocity": 0.5669291338582677
        },
        {
          "duration": 0.1907890666666674,
          "durationTicks": 232,
          "midi": 69,
          "name": "A4",
          "ticks": 129120,
          "time": 106.183984,
          "velocity": 0.5669291338582677
        },
        {
          "duration": 0.1907890666666674,
          "durationTicks": 232,
          "midi": 61,
          "name": "C#4",
          "ticks": 129360,
          "time": 106.38135199999999,
          "velocity": 0.5669291338582677
        },
        {
          "duration": 0.1907890666666816,
          "durationTicks": 232,
          "midi": 64,
          "name": "E4",
          "ticks": 129600,
          "time": 106.57871999999999,
          "velocity": 0.5669291338582677
        },
        {
          "duration": 0.1907890666666816,
          "durationTicks": 232,
          "midi": 61,
          "name": "C#4",
          "ticks": 129840,
          "time": 106.77608799999999,
          "velocity": 0.5669291338582677
        },
        {
          "duration": 0.1907890666666674,
          "durationTicks": 232,
          "midi": 64,
          "name": "E4",
          "ticks": 130080,
          "time": 106.973456,
          "velocity": 0.5669291338582677
        },
        {
          "duration": 0.1907890666666674,
          "durationTicks": 232,
          "midi": 69,
          "name": "A4",
          "ticks": 130320,
          "time": 107.170824,
          "velocity": 0.5669291338582677
        },
        {
          "duration": 0.1907890666666674,
          "durationTicks": 232,
          "midi": 61,
          "name": "C#4",
          "ticks": 130560,
          "time": 107.368192,
          "velocity": 0.5669291338582677
        },
        {
          "duration": 0.1907890666666816,
          "durationTicks": 232,
          "midi": 64,
          "name": "E4",
          "ticks": 130800,
          "time": 107.56555999999999,
          "velocity": 0.5669291338582677
        },
        {
          "duration": 0.1907890666666816,
          "durationTicks": 232,
          "midi": 69,
          "name": "A4",
          "ticks": 131040,
          "time": 107.76292799999999,
          "velocity": 0.5669291338582677
        },
        {
          "duration": 0.1907890666666674,
          "durationTicks": 232,
          "midi": 61,
          "name": "C#4",
          "ticks": 131280,
          "time": 107.960296,
          "velocity": 0.5669291338582677
        },
        {
          "duration": 0.1907890666666674,
          "durationTicks": 232,
          "midi": 64,
          "name": "E4",
          "ticks": 131520,
          "time": 108.157664,
          "velocity": 0.5669291338582677
        },
        {
          "duration": 0.1907890666666674,
          "durationTicks": 232,
          "midi": 61,
          "name": "C#4",
          "ticks": 131760,
          "time": 108.355032,
          "velocity": 0.5669291338582677
        },
        {
          "duration": 0.1907890666666674,
          "durationTicks": 232,
          "midi": 64,
          "name": "E4",
          "ticks": 132000,
          "time": 108.55239999999999,
          "velocity": 0.5669291338582677
        },
        {
          "duration": 0.1907890666666816,
          "durationTicks": 232,
          "midi": 69,
          "name": "A4",
          "ticks": 132240,
          "time": 108.74976799999999,
          "velocity": 0.5669291338582677
        },
        {
          "duration": 0.1907890666666674,
          "durationTicks": 232,
          "midi": 62,
          "name": "D4",
          "ticks": 132480,
          "time": 108.947136,
          "velocity": 0.5669291338582677
        },
        {
          "duration": 0.1907890666666674,
          "durationTicks": 232,
          "midi": 67,
          "name": "G4",
          "ticks": 132720,
          "time": 109.144504,
          "velocity": 0.5669291338582677
        },
        {
          "duration": 0.1907890666666674,
          "durationTicks": 232,
          "midi": 62,
          "name": "D4",
          "ticks": 132960,
          "time": 109.341872,
          "velocity": 0.5669291338582677
        },
        {
          "duration": 0.1907890666666674,
          "durationTicks": 232,
          "midi": 64,
          "name": "E4",
          "ticks": 133200,
          "time": 109.53923999999999,
          "velocity": 0.5669291338582677
        },
        {
          "duration": 0.1907890666666816,
          "durationTicks": 232,
          "midi": 64,
          "name": "E4",
          "ticks": 133440,
          "time": 109.73660799999999,
          "velocity": 0.5669291338582677
        },
        {
          "duration": 0.1907890666666816,
          "durationTicks": 232,
          "midi": 62,
          "name": "D4",
          "ticks": 133680,
          "time": 109.93397599999999,
          "velocity": 0.5669291338582677
        },
        {
          "duration": 0.1907890666666674,
          "durationTicks": 232,
          "midi": 67,
          "name": "G4",
          "ticks": 133920,
          "time": 110.131344,
          "velocity": 0.5669291338582677
        },
        {
          "duration": 0.1907890666666674,
          "durationTicks": 232,
          "midi": 62,
          "name": "D4",
          "ticks": 134160,
          "time": 110.328712,
          "velocity": 0.5669291338582677
        },
        {
          "duration": 0.1907890666666674,
          "durationTicks": 232,
          "midi": 67,
          "name": "G4",
          "ticks": 134400,
          "time": 110.52608,
          "velocity": 0.5669291338582677
        },
        {
          "duration": 0.1907890666666816,
          "durationTicks": 232,
          "midi": 64,
          "name": "E4",
          "ticks": 134640,
          "time": 110.72344799999999,
          "velocity": 0.5669291338582677
        },
        {
          "duration": 0.1907890666666816,
          "durationTicks": 232,
          "midi": 62,
          "name": "D4",
          "ticks": 134880,
          "time": 110.92081599999999,
          "velocity": 0.5669291338582677
        },
        {
          "duration": 0.1907890666666674,
          "durationTicks": 232,
          "midi": 67,
          "name": "G4",
          "ticks": 135120,
          "time": 111.118184,
          "velocity": 0.5669291338582677
        },
        {
          "duration": 0.1907890666666674,
          "durationTicks": 232,
          "midi": 62,
          "name": "D4",
          "ticks": 135360,
          "time": 111.315552,
          "velocity": 0.5669291338582677
        },
        {
          "duration": 0.1907890666666674,
          "durationTicks": 232,
          "midi": 67,
          "name": "G4",
          "ticks": 135600,
          "time": 111.51292,
          "velocity": 0.5669291338582677
        },
        {
          "duration": 0.1907890666666674,
          "durationTicks": 232,
          "midi": 64,
          "name": "E4",
          "ticks": 135840,
          "time": 111.71028799999999,
          "velocity": 0.5669291338582677
        },
        {
          "duration": 0.1907890666666816,
          "durationTicks": 232,
          "midi": 62,
          "name": "D4",
          "ticks": 136080,
          "time": 111.90765599999999,
          "velocity": 0.5669291338582677
        },
        {
          "duration": 0.1907890666666816,
          "durationTicks": 232,
          "midi": 67,
          "name": "G4",
          "ticks": 136320,
          "time": 112.10502399999999,
          "velocity": 0.5669291338582677
        },
        {
          "duration": 0.1907890666666674,
          "durationTicks": 232,
          "midi": 62,
          "name": "D4",
          "ticks": 136560,
          "time": 112.302392,
          "velocity": 0.5669291338582677
        },
        {
          "duration": 0.1907890666666674,
          "durationTicks": 232,
          "midi": 67,
          "name": "G4",
          "ticks": 136800,
          "time": 112.49976,
          "velocity": 0.5669291338582677
        },
        {
          "duration": 0.1907890666666674,
          "durationTicks": 232,
          "midi": 64,
          "name": "E4",
          "ticks": 137040,
          "time": 112.69712799999999,
          "velocity": 0.5669291338582677
        },
        {
          "duration": 0.1907890666666816,
          "durationTicks": 232,
          "midi": 62,
          "name": "D4",
          "ticks": 137280,
          "time": 112.89449599999999,
          "velocity": 0.5669291338582677
        },
        {
          "duration": 0.1907890666666816,
          "durationTicks": 232,
          "midi": 67,
          "name": "G4",
          "ticks": 137520,
          "time": 113.09186399999999,
          "velocity": 0.5669291338582677
        },
        {
          "duration": 0.1907890666666674,
          "durationTicks": 232,
          "midi": 62,
          "name": "D4",
          "ticks": 137760,
          "time": 113.289232,
          "velocity": 0.5669291338582677
        },
        {
          "duration": 0.1907890666666674,
          "durationTicks": 232,
          "midi": 64,
          "name": "E4",
          "ticks": 138000,
          "time": 113.4866,
          "velocity": 0.5669291338582677
        },
        {
          "duration": 0.1907890666666674,
          "durationTicks": 232,
          "midi": 64,
          "name": "E4",
          "ticks": 138240,
          "time": 113.683968,
          "velocity": 0.5669291338582677
        },
        {
          "duration": 0.1907890666666816,
          "durationTicks": 232,
          "midi": 62,
          "name": "D4",
          "ticks": 138480,
          "time": 113.88133599999999,
          "velocity": 0.5669291338582677
        },
        {
          "duration": 0.1907890666666816,
          "durationTicks": 232,
          "midi": 67,
          "name": "G4",
          "ticks": 138720,
          "time": 114.07870399999999,
          "velocity": 0.5669291338582677
        },
        {
          "duration": 0.1907890666666674,
          "durationTicks": 232,
          "midi": 62,
          "name": "D4",
          "ticks": 138960,
          "time": 114.276072,
          "velocity": 0.5669291338582677
        },
        {
          "duration": 0.1907890666666674,
          "durationTicks": 232,
          "midi": 67,
          "name": "G4",
          "ticks": 139200,
          "time": 114.47344,
          "velocity": 0.5669291338582677
        },
        {
          "duration": 0.1907890666666674,
          "durationTicks": 232,
          "midi": 64,
          "name": "E4",
          "ticks": 139440,
          "time": 114.670808,
          "velocity": 0.5669291338582677
        },
        {
          "duration": 0.1907890666666674,
          "durationTicks": 232,
          "midi": 62,
          "name": "D4",
          "ticks": 139680,
          "time": 114.86817599999999,
          "velocity": 0.5669291338582677
        },
        {
          "duration": 0.1907890666666816,
          "durationTicks": 232,
          "midi": 67,
          "name": "G4",
          "ticks": 139920,
          "time": 115.06554399999999,
          "velocity": 0.5669291338582677
        },
        {
          "duration": 0.1907890666666674,
          "durationTicks": 232,
          "midi": 55,
          "name": "G3",
          "ticks": 140160,
          "time": 115.262912,
          "velocity": 0.5669291338582677
        },
        {
          "duration": 0.1907890666666674,
          "durationTicks": 232,
          "midi": 62,
          "name": "D4",
          "ticks": 140400,
          "time": 115.46028,
          "velocity": 0.5669291338582677
        },
        {
          "duration": 0.1907890666666674,
          "durationTicks": 232,
          "midi": 64,
          "name": "E4",
          "ticks": 140640,
          "time": 115.657648,
          "velocity": 0.5669291338582677
        },
        {
          "duration": 0.1907890666666674,
          "durationTicks": 232,
          "midi": 62,
          "name": "D4",
          "ticks": 140880,
          "time": 115.85501599999999,
          "velocity": 0.5669291338582677
        },
        {
          "duration": 0.1907890666666816,
          "durationTicks": 232,
          "midi": 64,
          "name": "E4",
          "ticks": 141120,
          "time": 116.05238399999999,
          "velocity": 0.5669291338582677
        },
        {
          "duration": 0.1907890666666816,
          "durationTicks": 232,
          "midi": 62,
          "name": "D4",
          "ticks": 141360,
          "time": 116.24975199999999,
          "velocity": 0.5669291338582677
        },
        {
          "duration": 0.1907890666666674,
          "durationTicks": 232,
          "midi": 62,
          "name": "D4",
          "ticks": 141600,
          "time": 116.44712,
          "velocity": 0.5669291338582677
        },
        {
          "duration": 0.1907890666666674,
          "durationTicks": 232,
          "midi": 64,
          "name": "E4",
          "ticks": 141840,
          "time": 116.644488,
          "velocity": 0.5669291338582677
        },
        {
          "duration": 0.1907890666666674,
          "durationTicks": 232,
          "midi": 64,
          "name": "E4",
          "ticks": 142080,
          "time": 116.84185599999999,
          "velocity": 0.5669291338582677
        },
        {
          "duration": 0.1907890666666816,
          "durationTicks": 232,
          "midi": 62,
          "name": "D4",
          "ticks": 142320,
          "time": 117.03922399999999,
          "velocity": 0.5669291338582677
        },
        {
          "duration": 0.1907890666666816,
          "durationTicks": 232,
          "midi": 64,
          "name": "E4",
          "ticks": 142560,
          "time": 117.23659199999999,
          "velocity": 0.5669291338582677
        },
        {
          "duration": 0.1907890666666674,
          "durationTicks": 232,
          "midi": 62,
          "name": "D4",
          "ticks": 142800,
          "time": 117.43396,
          "velocity": 0.5669291338582677
        },
        {
          "duration": 0.1907890666666674,
          "durationTicks": 232,
          "midi": 64,
          "name": "E4",
          "ticks": 143040,
          "time": 117.631328,
          "velocity": 0.5669291338582677
        },
        {
          "duration": 0.1907890666666674,
          "durationTicks": 232,
          "midi": 62,
          "name": "D4",
          "ticks": 143280,
          "time": 117.828696,
          "velocity": 0.5669291338582677
        },
        {
          "duration": 0.1907890666666674,
          "durationTicks": 232,
          "midi": 62,
          "name": "D4",
          "ticks": 143520,
          "time": 118.02606399999999,
          "velocity": 0.5669291338582677
        },
        {
          "duration": 0.1907890666666816,
          "durationTicks": 232,
          "midi": 64,
          "name": "E4",
          "ticks": 143760,
          "time": 118.22343199999999,
          "velocity": 0.5669291338582677
        },
        {
          "duration": 0.1907890666666816,
          "durationTicks": 232,
          "midi": 62,
          "name": "D4",
          "ticks": 144000,
          "time": 118.42079999999999,
          "velocity": 0.5669291338582677
        },
        {
          "duration": 0.1907890666666674,
          "durationTicks": 232,
          "midi": 64,
          "name": "E4",
          "ticks": 144240,
          "time": 118.618168,
          "velocity": 0.5669291338582677
        },
        {
          "duration": 0.1907890666666674,
          "durationTicks": 232,
          "midi": 64,
          "name": "E4",
          "ticks": 144480,
          "time": 118.815536,
          "velocity": 0.5669291338582677
        },
        {
          "duration": 0.1907890666666674,
          "durationTicks": 232,
          "midi": 62,
          "name": "D4",
          "ticks": 144720,
          "time": 119.01290399999999,
          "velocity": 0.5669291338582677
        },
        {
          "duration": 0.1907890666666816,
          "durationTicks": 232,
          "midi": 64,
          "name": "E4",
          "ticks": 144960,
          "time": 119.21027199999999,
          "velocity": 0.5669291338582677
        },
        {
          "duration": 0.1907890666666816,
          "durationTicks": 232,
          "midi": 62,
          "name": "D4",
          "ticks": 145200,
          "time": 119.40763999999999,
          "velocity": 0.5669291338582677
        },
        {
          "duration": 0.1907890666666674,
          "durationTicks": 232,
          "midi": 62,
          "name": "D4",
          "ticks": 145440,
          "time": 119.605008,
          "velocity": 0.5669291338582677
        },
        {
          "duration": 0.1907890666666674,
          "durationTicks": 232,
          "midi": 64,
          "name": "E4",
          "ticks": 145680,
          "time": 119.802376,
          "velocity": 0.5669291338582677
        },
        {
          "duration": 0.1907890666666674,
          "durationTicks": 232,
          "midi": 62,
          "name": "D4",
          "ticks": 145920,
          "time": 119.99974399999999,
          "velocity": 0.5669291338582677
        },
        {
          "duration": 0.1907890666666816,
          "durationTicks": 232,
          "midi": 55,
          "name": "G3",
          "ticks": 146160,
          "time": 120.19711199999999,
          "velocity": 0.5669291338582677
        },
        {
          "duration": 0.1907890666666816,
          "durationTicks": 232,
          "midi": 62,
          "name": "D4",
          "ticks": 146400,
          "time": 120.39447999999999,
          "velocity": 0.5669291338582677
        },
        {
          "duration": 0.1907890666666674,
          "durationTicks": 232,
          "midi": 64,
          "name": "E4",
          "ticks": 146640,
          "time": 120.591848,
          "velocity": 0.5669291338582677
        },
        {
          "duration": 0.1907890666666674,
          "durationTicks": 232,
          "midi": 64,
          "name": "E4",
          "ticks": 146880,
          "time": 120.789216,
          "velocity": 0.5669291338582677
        },
        {
          "duration": 0.1907890666666674,
          "durationTicks": 232,
          "midi": 62,
          "name": "D4",
          "ticks": 147120,
          "time": 120.986584,
          "velocity": 0.5669291338582677
        },
        {
          "duration": 0.1907890666666674,
          "durationTicks": 232,
          "midi": 62,
          "name": "D4",
          "ticks": 147360,
          "time": 121.18395199999999,
          "velocity": 0.5669291338582677
        },
        {
          "duration": 0.1907890666666816,
          "durationTicks": 232,
          "midi": 64,
          "name": "E4",
          "ticks": 147600,
          "time": 121.38131999999999,
          "velocity": 0.5669291338582677
        },
        {
          "duration": 0.1907890666666674,
          "durationTicks": 232,
          "midi": 64,
          "name": "E4",
          "ticks": 147840,
          "time": 121.578688,
          "velocity": 0.5669291338582677
        },
        {
          "duration": 0.1907890666666674,
          "durationTicks": 232,
          "midi": 57,
          "name": "A3",
          "ticks": 148080,
          "time": 121.776056,
          "velocity": 0.5669291338582677
        },
        {
          "duration": 0.1907890666666674,
          "durationTicks": 232,
          "midi": 64,
          "name": "E4",
          "ticks": 148320,
          "time": 121.973424,
          "velocity": 0.5669291338582677
        },
        {
          "duration": 0.1907890666666674,
          "durationTicks": 232,
          "midi": 57,
          "name": "A3",
          "ticks": 148560,
          "time": 122.17079199999999,
          "velocity": 0.5669291338582677
        },
        {
          "duration": 0.1907890666666816,
          "durationTicks": 232,
          "midi": 66,
          "name": "F#4",
          "ticks": 148800,
          "time": 122.36815999999999,
          "velocity": 0.5669291338582677
        },
        {
          "duration": 0.1907890666666816,
          "durationTicks": 232,
          "midi": 66,
          "name": "F#4",
          "ticks": 149040,
          "time": 122.56552799999999,
          "velocity": 0.5669291338582677
        },
        {
          "duration": 0.1907890666666674,
          "durationTicks": 232,
          "midi": 66,
          "name": "F#4",
          "ticks": 149280,
          "time": 122.762896,
          "velocity": 0.5669291338582677
        },
        {
          "duration": 0.1907890666666674,
          "durationTicks": 232,
          "midi": 64,
          "name": "E4",
          "ticks": 149520,
          "time": 122.960264,
          "velocity": 0.5669291338582677
        },
        {
          "duration": 0.1907890666666674,
          "durationTicks": 232,
          "midi": 64,
          "name": "E4",
          "ticks": 149760,
          "time": 123.15763199999999,
          "velocity": 0.5669291338582677
        },
        {
          "duration": 0.1907890666666816,
          "durationTicks": 232,
          "midi": 66,
          "name": "F#4",
          "ticks": 150000,
          "time": 123.35499999999999,
          "velocity": 0.5669291338582677
        },
        {
          "duration": 0.1907890666666816,
          "durationTicks": 232,
          "midi": 66,
          "name": "F#4",
          "ticks": 150240,
          "time": 123.55236799999999,
          "velocity": 0.5669291338582677
        },
        {
          "duration": 0.1907890666666674,
          "durationTicks": 232,
          "midi": 64,
          "name": "E4",
          "ticks": 150480,
          "time": 123.749736,
          "velocity": 0.5669291338582677
        },
        {
          "duration": 0.2565783999999809,
          "durationTicks": 312,
          "midi": 64,
          "name": "E4",
          "ticks": 150720,
          "time": 123.947104,
          "velocity": 0.5669291338582677
        },
        {
          "duration": 0.2565783999999951,
          "durationTicks": 312,
          "midi": 66,
          "name": "F#4",
          "ticks": 151040,
          "time": 124.21026133333334,
          "velocity": 0.5669291338582677
        },
        {
          "duration": 0.2565784000000235,
          "durationTicks": 312,
          "midi": 66,
          "name": "F#4",
          "ticks": 151360,
          "time": 124.47341866666665,
          "velocity": 0.5669291338582677
        },
        {
          "duration": 0.1907890666666816,
          "durationTicks": 232,
          "midi": 66,
          "name": "F#4",
          "ticks": 151680,
          "time": 124.73657599999999,
          "velocity": 0.5669291338582677
        },
        {
          "duration": 0.1907890666666674,
          "durationTicks": 232,
          "midi": 66,
          "name": "F#4",
          "ticks": 151920,
          "time": 124.933944,
          "velocity": 0.5669291338582677
        },
        {
          "duration": 0.1907890666666674,
          "durationTicks": 232,
          "midi": 66,
          "name": "F#4",
          "ticks": 152160,
          "time": 125.131312,
          "velocity": 0.5669291338582677
        },
        {
          "duration": 0.1907890666666674,
          "durationTicks": 232,
          "midi": 64,
          "name": "E4",
          "ticks": 152400,
          "time": 125.32867999999999,
          "velocity": 0.5669291338582677
        },
        {
          "duration": 0.1907890666666816,
          "durationTicks": 232,
          "midi": 66,
          "name": "F#4",
          "ticks": 152640,
          "time": 125.52604799999999,
          "velocity": 0.5669291338582677
        },
        {
          "duration": 0.1907890666666816,
          "durationTicks": 232,
          "midi": 66,
          "name": "F#4",
          "ticks": 152880,
          "time": 125.72341599999999,
          "velocity": 0.5669291338582677
        },
        {
          "duration": 0.1907890666666674,
          "durationTicks": 232,
          "midi": 66,
          "name": "F#4",
          "ticks": 153120,
          "time": 125.920784,
          "velocity": 0.5669291338582677
        },
        {
          "duration": 0.1907890666666674,
          "durationTicks": 232,
          "midi": 64,
          "name": "E4",
          "ticks": 153360,
          "time": 126.118152,
          "velocity": 0.5669291338582677
        },
        {
          "duration": 0.1907890666666674,
          "durationTicks": 232,
          "midi": 64,
          "name": "E4",
          "ticks": 153600,
          "time": 126.31551999999999,
          "velocity": 0.5669291338582677
        },
        {
          "duration": 0.1907890666666816,
          "durationTicks": 232,
          "midi": 66,
          "name": "F#4",
          "ticks": 153840,
          "time": 126.51288799999999,
          "velocity": 0.5669291338582677
        },
        {
          "duration": 0.1907890666666816,
          "durationTicks": 232,
          "midi": 66,
          "name": "F#4",
          "ticks": 154080,
          "time": 126.71025599999999,
          "velocity": 0.5669291338582677
        },
        {
          "duration": 0.1907890666666674,
          "durationTicks": 232,
          "midi": 64,
          "name": "E4",
          "ticks": 154320,
          "time": 126.907624,
          "velocity": 0.5669291338582677
        },
        {
          "duration": 0.1907890666666674,
          "durationTicks": 232,
          "midi": 66,
          "name": "F#4",
          "ticks": 154560,
          "time": 127.104992,
          "velocity": 0.5669291338582677
        },
        {
          "duration": 0.3881570666666647,
          "durationTicks": 472,
          "midi": 64,
          "name": "E4",
          "ticks": 154800,
          "time": 127.30236,
          "velocity": 0.5669291338582677
        },
        {
          "duration": 0.1907890666666816,
          "durationTicks": 232,
          "midi": 56,
          "name": "G#3",
          "ticks": 155280,
          "time": 127.69709599999999,
          "velocity": 0.5669291338582677
        },
        {
          "duration": 0.1907890666666674,
          "durationTicks": 232,
          "midi": 61,
          "name": "C#4",
          "ticks": 155520,
          "time": 127.894464,
          "velocity": 0.5669291338582677
        },
        {
          "duration": 0.19078906666669582,
          "durationTicks": 232,
          "midi": 64,
          "name": "E4",
          "ticks": 155760,
          "time": 128.09183199999998,
          "velocity": 0.5669291338582677
        },
        {
          "duration": 0.1907890666666674,
          "durationTicks": 232,
          "midi": 61,
          "name": "C#4",
          "ticks": 156000,
          "time": 128.2892,
          "velocity": 0.5669291338582677
        },
        {
          "duration": 0.1907890666666674,
          "durationTicks": 232,
          "midi": 64,
          "name": "E4",
          "ticks": 156240,
          "time": 128.486568,
          "velocity": 0.5669291338582677
        },
        {
          "duration": 0.1907890666666674,
          "durationTicks": 232,
          "midi": 61,
          "name": "C#4",
          "ticks": 156480,
          "time": 128.683936,
          "velocity": 0.5669291338582677
        },
        {
          "duration": 0.1907890666666674,
          "durationTicks": 232,
          "midi": 64,
          "name": "E4",
          "ticks": 156720,
          "time": 128.881304,
          "velocity": 0.5669291338582677
        },
        {
          "duration": 0.1907890666666674,
          "durationTicks": 232,
          "midi": 61,
          "name": "C#4",
          "ticks": 156960,
          "time": 129.07867199999998,
          "velocity": 0.5669291338582677
        },
        {
          "duration": 0.1907890666666674,
          "durationTicks": 232,
          "midi": 64,
          "name": "E4",
          "ticks": 157200,
          "time": 129.27604,
          "velocity": 0.5669291338582677
        },
        {
          "duration": 0.1907890666666674,
          "durationTicks": 232,
          "midi": 69,
          "name": "A4",
          "ticks": 157440,
          "time": 129.473408,
          "velocity": 0.5669291338582677
        },
        {
          "duration": 0.1907890666666674,
          "durationTicks": 232,
          "midi": 61,
          "name": "C#4",
          "ticks": 157680,
          "time": 129.670776,
          "velocity": 0.5669291338582677
        },
        {
          "duration": 0.1907890666666674,
          "durationTicks": 232,
          "midi": 64,
          "name": "E4",
          "ticks": 157920,
          "time": 129.868144,
          "velocity": 0.5669291338582677
        },
        {
          "duration": 0.1907890666666674,
          "durationTicks": 232,
          "midi": 61,
          "name": "C#4",
          "ticks": 158160,
          "time": 130.06551199999998,
          "velocity": 0.5669291338582677
        },
        {
          "duration": 0.1907890666666674,
          "durationTicks": 232,
          "midi": 64,
          "name": "E4",
          "ticks": 158400,
          "time": 130.26288,
          "velocity": 0.5669291338582677
        },
        {
          "duration": 0.19078906666669582,
          "durationTicks": 232,
          "midi": 69,
          "name": "A4",
          "ticks": 158640,
          "time": 130.46024799999998,
          "velocity": 0.5669291338582677
        },
        {
          "duration": 0.1907890666666674,
          "durationTicks": 232,
          "midi": 61,
          "name": "C#4",
          "ticks": 158880,
          "time": 130.657616,
          "velocity": 0.5669291338582677
        },
        {
          "duration": 0.1907890666666674,
          "durationTicks": 232,
          "midi": 64,
          "name": "E4",
          "ticks": 159120,
          "time": 130.854984,
          "velocity": 0.5669291338582677
        },
        {
          "duration": 0.1907890666666674,
          "durationTicks": 232,
          "midi": 61,
          "name": "C#4",
          "ticks": 159360,
          "time": 131.05235199999998,
          "velocity": 0.5669291338582677
        },
        {
          "duration": 0.1907890666666674,
          "durationTicks": 232,
          "midi": 64,
          "name": "E4",
          "ticks": 159600,
          "time": 131.24972,
          "velocity": 0.5669291338582677
        },
        {
          "duration": 0.19078906666669582,
          "durationTicks": 232,
          "midi": 69,
          "name": "A4",
          "ticks": 159840,
          "time": 131.44708799999998,
          "velocity": 0.5669291338582677
        },
        {
          "duration": 0.1907890666666674,
          "durationTicks": 232,
          "midi": 61,
          "name": "C#4",
          "ticks": 160080,
          "time": 131.644456,
          "velocity": 0.5669291338582677
        },
        {
          "duration": 0.1907890666666674,
          "durationTicks": 232,
          "midi": 64,
          "name": "E4",
          "ticks": 160320,
          "time": 131.841824,
          "velocity": 0.5669291338582677
        },
        {
          "duration": 0.1907890666666674,
          "durationTicks": 232,
          "midi": 61,
          "name": "C#4",
          "ticks": 160560,
          "time": 132.03919199999999,
          "velocity": 0.5669291338582677
        },
        {
          "duration": 0.1907890666666674,
          "durationTicks": 232,
          "midi": 64,
          "name": "E4",
          "ticks": 160800,
          "time": 132.23656,
          "velocity": 0.5669291338582677
        },
        {
          "duration": 0.19078906666669582,
          "durationTicks": 232,
          "midi": 69,
          "name": "A4",
          "ticks": 161040,
          "time": 132.43392799999998,
          "velocity": 0.5669291338582677
        },
        {
          "duration": 0.1907890666666674,
          "durationTicks": 232,
          "midi": 61,
          "name": "C#4",
          "ticks": 161280,
          "time": 132.631296,
          "velocity": 0.5669291338582677
        },
        {
          "duration": 0.1907890666666674,
          "durationTicks": 232,
          "midi": 64,
          "name": "E4",
          "ticks": 161520,
          "time": 132.828664,
          "velocity": 0.5669291338582677
        },
        {
          "duration": 0.1907890666666674,
          "durationTicks": 232,
          "midi": 69,
          "name": "A4",
          "ticks": 161760,
          "time": 133.026032,
          "velocity": 0.5669291338582677
        },
        {
          "duration": 0.1907890666666674,
          "durationTicks": 232,
          "midi": 61,
          "name": "C#4",
          "ticks": 162000,
          "time": 133.2234,
          "velocity": 0.5669291338582677
        },
        {
          "duration": 0.19078906666669582,
          "durationTicks": 232,
          "midi": 64,
          "name": "E4",
          "ticks": 162240,
          "time": 133.42076799999998,
          "velocity": 0.5669291338582677
        },
        {
          "duration": 0.1907890666666674,
          "durationTicks": 232,
          "midi": 61,
          "name": "C#4",
          "ticks": 162480,
          "time": 133.618136,
          "velocity": 0.5669291338582677
        },
        {
          "duration": 0.1907890666666674,
          "durationTicks": 232,
          "midi": 64,
          "name": "E4",
          "ticks": 162720,
          "time": 133.815504,
          "velocity": 0.5669291338582677
        },
        {
          "duration": 0.1907890666666674,
          "durationTicks": 232,
          "midi": 69,
          "name": "A4",
          "ticks": 162960,
          "time": 134.012872,
          "velocity": 0.5669291338582677
        },
        {
          "duration": 0.1907890666666674,
          "durationTicks": 232,
          "midi": 62,
          "name": "D4",
          "ticks": 163200,
          "time": 134.21024,
          "velocity": 0.5669291338582677
        },
        {
          "duration": 0.19078906666669582,
          "durationTicks": 232,
          "midi": 67,
          "name": "G4",
          "ticks": 163440,
          "time": 134.40760799999998,
          "velocity": 0.5669291338582677
        },
        {
          "duration": 0.1907890666666674,
          "durationTicks": 232,
          "midi": 62,
          "name": "D4",
          "ticks": 163680,
          "time": 134.604976,
          "velocity": 0.5669291338582677
        },
        {
          "duration": 0.1907890666666674,
          "durationTicks": 232,
          "midi": 64,
          "name": "E4",
          "ticks": 163920,
          "time": 134.802344,
          "velocity": 0.5669291338582677
        },
        {
          "duration": 0.1907890666666674,
          "durationTicks": 232,
          "midi": 64,
          "name": "E4",
          "ticks": 164160,
          "time": 134.999712,
          "velocity": 0.5669291338582677
        },
        {
          "duration": 0.1907890666666674,
          "durationTicks": 232,
          "midi": 62,
          "name": "D4",
          "ticks": 164400,
          "time": 135.19708,
          "velocity": 0.5669291338582677
        },
        {
          "duration": 0.1907890666666674,
          "durationTicks": 232,
          "midi": 67,
          "name": "G4",
          "ticks": 164640,
          "time": 135.39444799999998,
          "velocity": 0.5669291338582677
        },
        {
          "duration": 0.1907890666666674,
          "durationTicks": 232,
          "midi": 62,
          "name": "D4",
          "ticks": 164880,
          "time": 135.591816,
          "velocity": 0.5669291338582677
        },
        {
          "duration": 0.19078906666669582,
          "durationTicks": 232,
          "midi": 67,
          "name": "G4",
          "ticks": 165120,
          "time": 135.78918399999998,
          "velocity": 0.5669291338582677
        },
        {
          "duration": 0.1907890666666674,
          "durationTicks": 232,
          "midi": 64,
          "name": "E4",
          "ticks": 165360,
          "time": 135.986552,
          "velocity": 0.5669291338582677
        },
        {
          "duration": 0.1907890666666674,
          "durationTicks": 232,
          "midi": 62,
          "name": "D4",
          "ticks": 165600,
          "time": 136.18392,
          "velocity": 0.5669291338582677
        },
        {
          "duration": 0.1907890666666674,
          "durationTicks": 232,
          "midi": 67,
          "name": "G4",
          "ticks": 165840,
          "time": 136.38128799999998,
          "velocity": 0.5669291338582677
        },
        {
          "duration": 0.1907890666666674,
          "durationTicks": 232,
          "midi": 62,
          "name": "D4",
          "ticks": 166080,
          "time": 136.578656,
          "velocity": 0.5669291338582677
        },
        {
          "duration": 0.19078906666669582,
          "durationTicks": 232,
          "midi": 67,
          "name": "G4",
          "ticks": 166320,
          "time": 136.77602399999998,
          "velocity": 0.5669291338582677
        },
        {
          "duration": 0.1907890666666674,
          "durationTicks": 232,
          "midi": 64,
          "name": "E4",
          "ticks": 166560,
          "time": 136.973392,
          "velocity": 0.5669291338582677
        },
        {
          "duration": 0.1907890666666674,
          "durationTicks": 232,
          "midi": 62,
          "name": "D4",
          "ticks": 166800,
          "time": 137.17076,
          "velocity": 0.5669291338582677
        },
        {
          "duration": 0.1907890666666674,
          "durationTicks": 232,
          "midi": 67,
          "name": "G4",
          "ticks": 167040,
          "time": 137.36812799999998,
          "velocity": 0.5669291338582677
        },
        {
          "duration": 0.1907890666666674,
          "durationTicks": 232,
          "midi": 62,
          "name": "D4",
          "ticks": 167280,
          "time": 137.565496,
          "velocity": 0.5669291338582677
        },
        {
          "duration": 0.19078906666669582,
          "durationTicks": 232,
          "midi": 67,
          "name": "G4",
          "ticks": 167520,
          "time": 137.76286399999998,
          "velocity": 0.5669291338582677
        },
        {
          "duration": 0.1907890666666674,
          "durationTicks": 232,
          "midi": 64,
          "name": "E4",
          "ticks": 167760,
          "time": 137.960232,
          "velocity": 0.5669291338582677
        },
        {
          "duration": 0.1907890666666674,
          "durationTicks": 232,
          "midi": 62,
          "name": "D4",
          "ticks": 168000,
          "time": 138.1576,
          "velocity": 0.5669291338582677
        },
        {
          "duration": 0.1907890666666674,
          "durationTicks": 232,
          "midi": 67,
          "name": "G4",
          "ticks": 168240,
          "time": 138.35496799999999,
          "velocity": 0.5669291338582677
        },
        {
          "duration": 0.1907890666666674,
          "durationTicks": 232,
          "midi": 62,
          "name": "D4",
          "ticks": 168480,
          "time": 138.552336,
          "velocity": 0.5669291338582677
        },
        {
          "duration": 0.19078906666669582,
          "durationTicks": 232,
          "midi": 64,
          "name": "E4",
          "ticks": 168720,
          "time": 138.74970399999998,
          "velocity": 0.5669291338582677
        },
        {
          "duration": 0.1907890666666674,
          "durationTicks": 232,
          "midi": 64,
          "name": "E4",
          "ticks": 168960,
          "time": 138.947072,
          "velocity": 0.5669291338582677
        },
        {
          "duration": 0.1907890666666674,
          "durationTicks": 232,
          "midi": 62,
          "name": "D4",
          "ticks": 169200,
          "time": 139.14444,
          "velocity": 0.5669291338582677
        },
        {
          "duration": 0.1907890666666674,
          "durationTicks": 232,
          "midi": 67,
          "name": "G4",
          "ticks": 169440,
          "time": 139.341808,
          "velocity": 0.5669291338582677
        },
        {
          "duration": 0.1907890666666674,
          "durationTicks": 232,
          "midi": 62,
          "name": "D4",
          "ticks": 169680,
          "time": 139.539176,
          "velocity": 0.5669291338582677
        },
        {
          "duration": 0.19078906666669582,
          "durationTicks": 232,
          "midi": 67,
          "name": "G4",
          "ticks": 169920,
          "time": 139.73654399999998,
          "velocity": 0.5669291338582677
        },
        {
          "duration": 0.1907890666666674,
          "durationTicks": 232,
          "midi": 64,
          "name": "E4",
          "ticks": 170160,
          "time": 139.933912,
          "velocity": 0.5669291338582677
        },
        {
          "duration": 0.1907890666666674,
          "durationTicks": 232,
          "midi": 62,
          "name": "D4",
          "ticks": 170400,
          "time": 140.13128,
          "velocity": 0.5669291338582677
        },
        {
          "duration": 0.1907890666666674,
          "durationTicks": 232,
          "midi": 67,
          "name": "G4",
          "ticks": 170640,
          "time": 140.328648,
          "velocity": 0.5669291338582677
        },
        {
          "duration": 0.1907890666666674,
          "durationTicks": 232,
          "midi": 55,
          "name": "G3",
          "ticks": 170880,
          "time": 140.526016,
          "velocity": 0.5669291338582677
        },
        {
          "duration": 0.19078906666669582,
          "durationTicks": 232,
          "midi": 62,
          "name": "D4",
          "ticks": 171120,
          "time": 140.72338399999998,
          "velocity": 0.5669291338582677
        },
        {
          "duration": 0.1907890666666674,
          "durationTicks": 232,
          "midi": 64,
          "name": "E4",
          "ticks": 171360,
          "time": 140.920752,
          "velocity": 0.5669291338582677
        },
        {
          "duration": 0.1907890666666674,
          "durationTicks": 232,
          "midi": 62,
          "name": "D4",
          "ticks": 171600,
          "time": 141.11812,
          "velocity": 0.5669291338582677
        },
        {
          "duration": 0.1907890666666674,
          "durationTicks": 232,
          "midi": 64,
          "name": "E4",
          "ticks": 171840,
          "time": 141.315488,
          "velocity": 0.5669291338582677
        },
        {
          "duration": 0.1907890666666674,
          "durationTicks": 232,
          "midi": 62,
          "name": "D4",
          "ticks": 172080,
          "time": 141.512856,
          "velocity": 0.5669291338582677
        },
        {
          "duration": 0.1907890666666674,
          "durationTicks": 232,
          "midi": 62,
          "name": "D4",
          "ticks": 172320,
          "time": 141.71022399999998,
          "velocity": 0.5669291338582677
        },
        {
          "duration": 0.1907890666666674,
          "durationTicks": 232,
          "midi": 64,
          "name": "E4",
          "ticks": 172560,
          "time": 141.907592,
          "velocity": 0.5669291338582677
        },
        {
          "duration": 0.1907890666666674,
          "durationTicks": 232,
          "midi": 64,
          "name": "E4",
          "ticks": 172800,
          "time": 142.10496,
          "velocity": 0.5669291338582677
        },
        {
          "duration": 0.1907890666666674,
          "durationTicks": 232,
          "midi": 62,
          "name": "D4",
          "ticks": 173040,
          "time": 142.302328,
          "velocity": 0.5669291338582677
        },
        {
          "duration": 0.1907890666666674,
          "durationTicks": 232,
          "midi": 64,
          "name": "E4",
          "ticks": 173280,
          "time": 142.499696,
          "velocity": 0.5669291338582677
        },
        {
          "duration": 0.1907890666666674,
          "durationTicks": 232,
          "midi": 62,
          "name": "D4",
          "ticks": 173520,
          "time": 142.69706399999998,
          "velocity": 0.5669291338582677
        },
        {
          "duration": 0.1907890666666674,
          "durationTicks": 232,
          "midi": 64,
          "name": "E4",
          "ticks": 173760,
          "time": 142.894432,
          "velocity": 0.5669291338582677
        },
        {
          "duration": 0.19078906666669582,
          "durationTicks": 232,
          "midi": 62,
          "name": "D4",
          "ticks": 174000,
          "time": 143.09179999999998,
          "velocity": 0.5669291338582677
        },
        {
          "duration": 0.1907890666666674,
          "durationTicks": 232,
          "midi": 62,
          "name": "D4",
          "ticks": 174240,
          "time": 143.289168,
          "velocity": 0.5669291338582677
        },
        {
          "duration": 0.1907890666666674,
          "durationTicks": 232,
          "midi": 64,
          "name": "E4",
          "ticks": 174480,
          "time": 143.486536,
          "velocity": 0.5669291338582677
        },
        {
          "duration": 0.1907890666666674,
          "durationTicks": 232,
          "midi": 62,
          "name": "D4",
          "ticks": 174720,
          "time": 143.68390399999998,
          "velocity": 0.5669291338582677
        },
        {
          "duration": 0.1907890666666674,
          "durationTicks": 232,
          "midi": 64,
          "name": "E4",
          "ticks": 174960,
          "time": 143.881272,
          "velocity": 0.5669291338582677
        },
        {
          "duration": 0.19078906666669582,
          "durationTicks": 232,
          "midi": 64,
          "name": "E4",
          "ticks": 175200,
          "time": 144.07863999999998,
          "velocity": 0.5669291338582677
        },
        {
          "duration": 0.1907890666666674,
          "durationTicks": 232,
          "midi": 62,
          "name": "D4",
          "ticks": 175440,
          "time": 144.276008,
          "velocity": 0.5669291338582677
        },
        {
          "duration": 0.1907890666666674,
          "durationTicks": 232,
          "midi": 64,
          "name": "E4",
          "ticks": 175680,
          "time": 144.473376,
          "velocity": 0.5669291338582677
        },
        {
          "duration": 0.1907890666666674,
          "durationTicks": 232,
          "midi": 62,
          "name": "D4",
          "ticks": 175920,
          "time": 144.67074399999998,
          "velocity": 0.5669291338582677
        },
        {
          "duration": 0.1907890666666674,
          "durationTicks": 232,
          "midi": 62,
          "name": "D4",
          "ticks": 176160,
          "time": 144.868112,
          "velocity": 0.5669291338582677
        },
        {
          "duration": 0.19078906666669582,
          "durationTicks": 232,
          "midi": 64,
          "name": "E4",
          "ticks": 176400,
          "time": 145.06547999999998,
          "velocity": 0.5669291338582677
        },
        {
          "duration": 0.1907890666666674,
          "durationTicks": 232,
          "midi": 62,
          "name": "D4",
          "ticks": 176640,
          "time": 145.262848,
          "velocity": 0.5669291338582677
        },
        {
          "duration": 0.1907890666666674,
          "durationTicks": 232,
          "midi": 55,
          "name": "G3",
          "ticks": 176880,
          "time": 145.460216,
          "velocity": 0.5669291338582677
        },
        {
          "duration": 0.1907890666666674,
          "durationTicks": 232,
          "midi": 62,
          "name": "D4",
          "ticks": 177120,
          "time": 145.65758399999999,
          "velocity": 0.5669291338582677
        },
        {
          "duration": 0.1907890666666674,
          "durationTicks": 232,
          "midi": 64,
          "name": "E4",
          "ticks": 177360,
          "time": 145.854952,
          "velocity": 0.5669291338582677
        },
        {
          "duration": 0.19078906666669582,
          "durationTicks": 232,
          "midi": 64,
          "name": "E4",
          "ticks": 177600,
          "time": 146.05231999999998,
          "velocity": 0.5669291338582677
        },
        {
          "duration": 0.1907890666666674,
          "durationTicks": 232,
          "midi": 62,
          "name": "D4",
          "ticks": 177840,
          "time": 146.249688,
          "velocity": 0.5669291338582677
        },
        {
          "duration": 0.1907890666666674,
          "durationTicks": 232,
          "midi": 62,
          "name": "D4",
          "ticks": 178080,
          "time": 146.447056,
          "velocity": 0.5669291338582677
        },
        {
          "duration": 0.1907890666666674,
          "durationTicks": 232,
          "midi": 64,
          "name": "E4",
          "ticks": 178320,
          "time": 146.644424,
          "velocity": 0.5669291338582677
        },
        {
          "duration": 0.1907890666666674,
          "durationTicks": 232,
          "midi": 64,
          "name": "E4",
          "ticks": 178560,
          "time": 146.841792,
          "velocity": 0.5669291338582677
        },
        {
          "duration": 0.19078906666669582,
          "durationTicks": 232,
          "midi": 57,
          "name": "A3",
          "ticks": 178800,
          "time": 147.03915999999998,
          "velocity": 0.5669291338582677
        },
        {
          "duration": 0.1907890666666674,
          "durationTicks": 232,
          "midi": 64,
          "name": "E4",
          "ticks": 179040,
          "time": 147.236528,
          "velocity": 0.5669291338582677
        },
        {
          "duration": 0.1907890666666674,
          "durationTicks": 232,
          "midi": 57,
          "name": "A3",
          "ticks": 179280,
          "time": 147.433896,
          "velocity": 0.5669291338582677
        },
        {
          "duration": 0.1907890666666674,
          "durationTicks": 232,
          "midi": 66,
          "name": "F#4",
          "ticks": 179520,
          "time": 147.631264,
          "velocity": 0.5669291338582677
        },
        {
          "duration": 0.1907890666666674,
          "durationTicks": 232,
          "midi": 66,
          "name": "F#4",
          "ticks": 179760,
          "time": 147.828632,
          "velocity": 0.5669291338582677
        },
        {
          "duration": 0.1907890666666674,
          "durationTicks": 232,
          "midi": 66,
          "name": "F#4",
          "ticks": 180000,
          "time": 148.02599999999998,
          "velocity": 0.5669291338582677
        },
        {
          "duration": 0.1907890666666674,
          "durationTicks": 232,
          "midi": 64,
          "name": "E4",
          "ticks": 180240,
          "time": 148.223368,
          "velocity": 0.5669291338582677
        },
        {
          "duration": 0.19078906666669582,
          "durationTicks": 232,
          "midi": 64,
          "name": "E4",
          "ticks": 180480,
          "time": 148.42073599999998,
          "velocity": 0.5669291338582677
        },
        {
          "duration": 0.1907890666666674,
          "durationTicks": 232,
          "midi": 66,
          "name": "F#4",
          "ticks": 180720,
          "time": 148.618104,
          "velocity": 0.5669291338582677
        },
        {
          "duration": 0.1907890666666674,
          "durationTicks": 232,
          "midi": 66,
          "name": "F#4",
          "ticks": 180960,
          "time": 148.815472,
          "velocity": 0.5669291338582677
        },
        {
          "duration": 0.1907890666666674,
          "durationTicks": 232,
          "midi": 64,
          "name": "E4",
          "ticks": 181200,
          "time": 149.01283999999998,
          "velocity": 0.5669291338582677
        },
        {
          "duration": 0.2565783999999951,
          "durationTicks": 312,
          "midi": 64,
          "name": "E4",
          "ticks": 181440,
          "time": 149.210208,
          "velocity": 0.5669291338582677
        },
        {
          "duration": 0.2565783999999951,
          "durationTicks": 312,
          "midi": 66,
          "name": "F#4",
          "ticks": 181760,
          "time": 149.47336533333333,
          "velocity": 0.5669291338582677
        },
        {
          "duration": 0.2565784000000235,
          "durationTicks": 312,
          "midi": 66,
          "name": "F#4",
          "ticks": 182080,
          "time": 149.73652266666664,
          "velocity": 0.5669291338582677
        },
        {
          "duration": 0.1907890666666674,
          "durationTicks": 232,
          "midi": 66,
          "name": "F#4",
          "ticks": 182400,
          "time": 149.99967999999998,
          "velocity": 0.5669291338582677
        },
        {
          "duration": 0.1907890666666674,
          "durationTicks": 232,
          "midi": 66,
          "name": "F#4",
          "ticks": 182640,
          "time": 150.197048,
          "velocity": 0.5669291338582677
        },
        {
          "duration": 0.19078906666669582,
          "durationTicks": 232,
          "midi": 66,
          "name": "F#4",
          "ticks": 182880,
          "time": 150.39441599999998,
          "velocity": 0.5669291338582677
        },
        {
          "duration": 0.1907890666666674,
          "durationTicks": 232,
          "midi": 64,
          "name": "E4",
          "ticks": 183120,
          "time": 150.591784,
          "velocity": 0.5669291338582677
        },
        {
          "duration": 0.1907890666666674,
          "durationTicks": 232,
          "midi": 66,
          "name": "F#4",
          "ticks": 183360,
          "time": 150.789152,
          "velocity": 0.5669291338582677
        },
        {
          "duration": 0.1907890666666674,
          "durationTicks": 232,
          "midi": 66,
          "name": "F#4",
          "ticks": 183600,
          "time": 150.98651999999998,
          "velocity": 0.5669291338582677
        },
        {
          "duration": 0.1907890666666674,
          "durationTicks": 232,
          "midi": 66,
          "name": "F#4",
          "ticks": 183840,
          "time": 151.183888,
          "velocity": 0.5669291338582677
        },
        {
          "duration": 0.19078906666669582,
          "durationTicks": 232,
          "midi": 64,
          "name": "E4",
          "ticks": 184080,
          "time": 151.38125599999998,
          "velocity": 0.5669291338582677
        },
        {
          "duration": 0.1907890666666674,
          "durationTicks": 232,
          "midi": 64,
          "name": "E4",
          "ticks": 184320,
          "time": 151.578624,
          "velocity": 0.5669291338582677
        },
        {
          "duration": 0.1907890666666674,
          "durationTicks": 232,
          "midi": 66,
          "name": "F#4",
          "ticks": 184560,
          "time": 151.775992,
          "velocity": 0.5669291338582677
        },
        {
          "duration": 0.1907890666666674,
          "durationTicks": 232,
          "midi": 66,
          "name": "F#4",
          "ticks": 184800,
          "time": 151.97335999999999,
          "velocity": 0.5669291338582677
        },
        {
          "duration": 0.1907890666666674,
          "durationTicks": 232,
          "midi": 64,
          "name": "E4",
          "ticks": 185040,
          "time": 152.170728,
          "velocity": 0.5669291338582677
        },
        {
          "duration": 0.19078906666669582,
          "durationTicks": 232,
          "midi": 66,
          "name": "F#4",
          "ticks": 185280,
          "time": 152.36809599999998,
          "velocity": 0.5669291338582677
        },
        {
          "duration": 0.38815706666667893,
          "durationTicks": 472,
          "midi": 64,
          "name": "E4",
          "ticks": 185520,
          "time": 152.565464,
          "velocity": 0.5669291338582677
        },
        {
          "duration": 0.1907890666666674,
          "durationTicks": 232,
          "midi": 56,
          "name": "G#3",
          "ticks": 186000,
          "time": 152.9602,
          "velocity": 0.5669291338582677
        },
        {
          "duration": 0.1907890666666674,
          "durationTicks": 232,
          "midi": 61,
          "name": "C#4",
          "ticks": 186240,
          "time": 153.157568,
          "velocity": 0.5669291338582677
        },
        {
          "duration": 0.19078906666669582,
          "durationTicks": 232,
          "midi": 64,
          "name": "E4",
          "ticks": 186480,
          "time": 153.35493599999998,
          "velocity": 0.5669291338582677
        },
        {
          "duration": 0.1907890666666674,
          "durationTicks": 232,
          "midi": 61,
          "name": "C#4",
          "ticks": 186720,
          "time": 153.552304,
          "velocity": 0.5669291338582677
        },
        {
          "duration": 0.1907890666666674,
          "durationTicks": 232,
          "midi": 64,
          "name": "E4",
          "ticks": 186960,
          "time": 153.749672,
          "velocity": 0.5669291338582677
        },
        {
          "duration": 0.1907890666666674,
          "durationTicks": 232,
          "midi": 61,
          "name": "C#4",
          "ticks": 187200,
          "time": 153.94704,
          "velocity": 0.5669291338582677
        },
        {
          "duration": 0.1907890666666674,
          "durationTicks": 232,
          "midi": 64,
          "name": "E4",
          "ticks": 187440,
          "time": 154.144408,
          "velocity": 0.5669291338582677
        },
        {
          "duration": 0.1907890666666674,
          "durationTicks": 232,
          "midi": 61,
          "name": "C#4",
          "ticks": 187680,
          "time": 154.34177599999998,
          "velocity": 0.5669291338582677
        },
        {
          "duration": 0.1907890666666674,
          "durationTicks": 232,
          "midi": 64,
          "name": "E4",
          "ticks": 187920,
          "time": 154.539144,
          "velocity": 0.5669291338582677
        },
        {
          "duration": 0.1907890666666674,
          "durationTicks": 232,
          "midi": 69,
          "name": "A4",
          "ticks": 188160,
          "time": 154.736512,
          "velocity": 0.5669291338582677
        },
        {
          "duration": 0.1907890666666674,
          "durationTicks": 232,
          "midi": 61,
          "name": "C#4",
          "ticks": 188400,
          "time": 154.93388,
          "velocity": 0.5669291338582677
        },
        {
          "duration": 0.1907890666666674,
          "durationTicks": 232,
          "midi": 64,
          "name": "E4",
          "ticks": 188640,
          "time": 155.131248,
          "velocity": 0.5669291338582677
        },
        {
          "duration": 0.1907890666666674,
          "durationTicks": 232,
          "midi": 61,
          "name": "C#4",
          "ticks": 188880,
          "time": 155.32861599999998,
          "velocity": 0.5669291338582677
        },
        {
          "duration": 0.1907890666666674,
          "durationTicks": 232,
          "midi": 64,
          "name": "E4",
          "ticks": 189120,
          "time": 155.525984,
          "velocity": 0.5669291338582677
        },
        {
          "duration": 0.19078906666669582,
          "durationTicks": 232,
          "midi": 69,
          "name": "A4",
          "ticks": 189360,
          "time": 155.72335199999998,
          "velocity": 0.5669291338582677
        },
        {
          "duration": 0.1907890666666674,
          "durationTicks": 232,
          "midi": 61,
          "name": "C#4",
          "ticks": 189600,
          "time": 155.92072,
          "velocity": 0.5669291338582677
        },
        {
          "duration": 0.1907890666666674,
          "durationTicks": 232,
          "midi": 64,
          "name": "E4",
          "ticks": 189840,
          "time": 156.118088,
          "velocity": 0.5669291338582677
        },
        {
          "duration": 0.1907890666666674,
          "durationTicks": 232,
          "midi": 61,
          "name": "C#4",
          "ticks": 190080,
          "time": 156.31545599999998,
          "velocity": 0.5669291338582677
        },
        {
          "duration": 0.1907890666666674,
          "durationTicks": 232,
          "midi": 64,
          "name": "E4",
          "ticks": 190320,
          "time": 156.512824,
          "velocity": 0.5669291338582677
        },
        {
          "duration": 0.19078906666669582,
          "durationTicks": 232,
          "midi": 69,
          "name": "A4",
          "ticks": 190560,
          "time": 156.71019199999998,
          "velocity": 0.5669291338582677
        },
        {
          "duration": 0.1907890666666674,
          "durationTicks": 232,
          "midi": 61,
          "name": "C#4",
          "ticks": 190800,
          "time": 156.90756,
          "velocity": 0.5669291338582677
        },
        {
          "duration": 0.1907890666666674,
          "durationTicks": 232,
          "midi": 64,
          "name": "E4",
          "ticks": 191040,
          "time": 157.104928,
          "velocity": 0.5669291338582677
        },
        {
          "duration": 0.1907890666666674,
          "durationTicks": 232,
          "midi": 61,
          "name": "C#4",
          "ticks": 191280,
          "time": 157.30229599999998,
          "velocity": 0.5669291338582677
        },
        {
          "duration": 0.1907890666666674,
          "durationTicks": 232,
          "midi": 64,
          "name": "E4",
          "ticks": 191520,
          "time": 157.499664,
          "velocity": 0.5669291338582677
        },
        {
          "duration": 0.19078906666669582,
          "durationTicks": 232,
          "midi": 69,
          "name": "A4",
          "ticks": 191760,
          "time": 157.69703199999998,
          "velocity": 0.5669291338582677
        },
        {
          "duration": 0.1907890666666674,
          "durationTicks": 232,
          "midi": 61,
          "name": "C#4",
          "ticks": 192000,
          "time": 157.8944,
          "velocity": 0.5669291338582677
        },
        {
          "duration": 0.1907890666666674,
          "durationTicks": 232,
          "midi": 64,
          "name": "E4",
          "ticks": 192240,
          "time": 158.091768,
          "velocity": 0.5669291338582677
        },
        {
          "duration": 0.1907890666666674,
          "durationTicks": 232,
          "midi": 69,
          "name": "A4",
          "ticks": 192480,
          "time": 158.28913599999998,
          "velocity": 0.5669291338582677
        },
        {
          "duration": 0.1907890666666674,
          "durationTicks": 232,
          "midi": 61,
          "name": "C#4",
          "ticks": 192720,
          "time": 158.486504,
          "velocity": 0.5669291338582677
        },
        {
          "duration": 0.19078906666669582,
          "durationTicks": 232,
          "midi": 64,
          "name": "E4",
          "ticks": 192960,
          "time": 158.68387199999998,
          "velocity": 0.5669291338582677
        },
        {
          "duration": 0.1907890666666674,
          "durationTicks": 232,
          "midi": 61,
          "name": "C#4",
          "ticks": 193200,
          "time": 158.88124,
          "velocity": 0.5669291338582677
        },
        {
          "duration": 0.1907890666666674,
          "durationTicks": 232,
          "midi": 64,
          "name": "E4",
          "ticks": 193440,
          "time": 159.078608,
          "velocity": 0.5669291338582677
        },
        {
          "duration": 0.1907890666666674,
          "durationTicks": 232,
          "midi": 69,
          "name": "A4",
          "ticks": 193680,
          "time": 159.27597599999999,
          "velocity": 0.5669291338582677
        },
        {
          "duration": 0.1907890666666674,
          "durationTicks": 232,
          "midi": 62,
          "name": "D4",
          "ticks": 193920,
          "time": 159.473344,
          "velocity": 0.5669291338582677
        },
        {
          "duration": 0.19078906666669582,
          "durationTicks": 232,
          "midi": 67,
          "name": "G4",
          "ticks": 194160,
          "time": 159.67071199999998,
          "velocity": 0.5669291338582677
        },
        {
          "duration": 0.1907890666666674,
          "durationTicks": 232,
          "midi": 62,
          "name": "D4",
          "ticks": 194400,
          "time": 159.86808,
          "velocity": 0.5669291338582677
        },
        {
          "duration": 0.1907890666666674,
          "durationTicks": 232,
          "midi": 64,
          "name": "E4",
          "ticks": 194640,
          "time": 160.065448,
          "velocity": 0.5669291338582677
        },
        {
          "duration": 0.1907890666666674,
          "durationTicks": 232,
          "midi": 64,
          "name": "E4",
          "ticks": 194880,
          "time": 160.262816,
          "velocity": 0.5669291338582677
        },
        {
          "duration": 0.1907890666666674,
          "durationTicks": 232,
          "midi": 62,
          "name": "D4",
          "ticks": 195120,
          "time": 160.460184,
          "velocity": 0.5669291338582677
        },
        {
          "duration": 0.1907890666666674,
          "durationTicks": 232,
          "midi": 67,
          "name": "G4",
          "ticks": 195360,
          "time": 160.65755199999998,
          "velocity": 0.5669291338582677
        },
        {
          "duration": 0.1907890666666674,
          "durationTicks": 232,
          "midi": 62,
          "name": "D4",
          "ticks": 195600,
          "time": 160.85492,
          "velocity": 0.5669291338582677
        },
        {
          "duration": 0.19078906666669582,
          "durationTicks": 232,
          "midi": 67,
          "name": "G4",
          "ticks": 195840,
          "time": 161.05228799999998,
          "velocity": 0.5669291338582677
        },
        {
          "duration": 0.1907890666666674,
          "durationTicks": 232,
          "midi": 64,
          "name": "E4",
          "ticks": 196080,
          "time": 161.249656,
          "velocity": 0.5669291338582677
        },
        {
          "duration": 0.1907890666666674,
          "durationTicks": 232,
          "midi": 62,
          "name": "D4",
          "ticks": 196320,
          "time": 161.447024,
          "velocity": 0.5669291338582677
        },
        {
          "duration": 0.1907890666666674,
          "durationTicks": 232,
          "midi": 67,
          "name": "G4",
          "ticks": 196560,
          "time": 161.64439199999998,
          "velocity": 0.5669291338582677
        },
        {
          "duration": 0.1907890666666674,
          "durationTicks": 232,
          "midi": 62,
          "name": "D4",
          "ticks": 196800,
          "time": 161.84176,
          "velocity": 0.5669291338582677
        },
        {
          "duration": 0.19078906666669582,
          "durationTicks": 232,
          "midi": 67,
          "name": "G4",
          "ticks": 197040,
          "time": 162.03912799999998,
          "velocity": 0.5669291338582677
        },
        {
          "duration": 0.1907890666666674,
          "durationTicks": 232,
          "midi": 64,
          "name": "E4",
          "ticks": 197280,
          "time": 162.236496,
          "velocity": 0.5669291338582677
        },
        {
          "duration": 0.1907890666666674,
          "durationTicks": 232,
          "midi": 62,
          "name": "D4",
          "ticks": 197520,
          "time": 162.433864,
          "velocity": 0.5669291338582677
        },
        {
          "duration": 0.1907890666666674,
          "durationTicks": 232,
          "midi": 67,
          "name": "G4",
          "ticks": 197760,
          "time": 162.63123199999998,
          "velocity": 0.5669291338582677
        },
        {
          "duration": 0.1907890666666674,
          "durationTicks": 232,
          "midi": 62,
          "name": "D4",
          "ticks": 198000,
          "time": 162.8286,
          "velocity": 0.5669291338582677
        },
        {
          "duration": 0.19078906666669582,
          "durationTicks": 232,
          "midi": 67,
          "name": "G4",
          "ticks": 198240,
          "time": 163.02596799999998,
          "velocity": 0.5669291338582677
        },
        {
          "duration": 0.1907890666666674,
          "durationTicks": 232,
          "midi": 64,
          "name": "E4",
          "ticks": 198480,
          "time": 163.223336,
          "velocity": 0.5669291338582677
        },
        {
          "duration": 0.1907890666666674,
          "durationTicks": 232,
          "midi": 62,
          "name": "D4",
          "ticks": 198720,
          "time": 163.420704,
          "velocity": 0.5669291338582677
        },
        {
          "duration": 0.1907890666666674,
          "durationTicks": 232,
          "midi": 67,
          "name": "G4",
          "ticks": 198960,
          "time": 163.61807199999998,
          "velocity": 0.5669291338582677
        },
        {
          "duration": 0.1907890666666674,
          "durationTicks": 232,
          "midi": 62,
          "name": "D4",
          "ticks": 199200,
          "time": 163.81544,
          "velocity": 0.5669291338582677
        },
        {
          "duration": 0.19078906666669582,
          "durationTicks": 232,
          "midi": 64,
          "name": "E4",
          "ticks": 199440,
          "time": 164.01280799999998,
          "velocity": 0.5669291338582677
        },
        {
          "duration": 0.1907890666666674,
          "durationTicks": 232,
          "midi": 64,
          "name": "E4",
          "ticks": 199680,
          "time": 164.210176,
          "velocity": 0.5669291338582677
        },
        {
          "duration": 0.1907890666666674,
          "durationTicks": 232,
          "midi": 62,
          "name": "D4",
          "ticks": 199920,
          "time": 164.407544,
          "velocity": 0.5669291338582677
        },
        {
          "duration": 0.1907890666666674,
          "durationTicks": 232,
          "midi": 67,
          "name": "G4",
          "ticks": 200160,
          "time": 164.60491199999998,
          "velocity": 0.5669291338582677
        },
        {
          "duration": 0.1907890666666674,
          "durationTicks": 232,
          "midi": 62,
          "name": "D4",
          "ticks": 200400,
          "time": 164.80228,
          "velocity": 0.5669291338582677
        },
        {
          "duration": 0.19078906666669582,
          "durationTicks": 232,
          "midi": 67,
          "name": "G4",
          "ticks": 200640,
          "time": 164.99964799999998,
          "velocity": 0.5669291338582677
        },
        {
          "duration": 0.1907890666666674,
          "durationTicks": 232,
          "midi": 64,
          "name": "E4",
          "ticks": 200880,
          "time": 165.197016,
          "velocity": 0.5669291338582677
        },
        {
          "duration": 0.1907890666666674,
          "durationTicks": 232,
          "midi": 62,
          "name": "D4",
          "ticks": 201120,
          "time": 165.394384,
          "velocity": 0.5669291338582677
        },
        {
          "duration": 0.1907890666666674,
          "durationTicks": 232,
          "midi": 67,
          "name": "G4",
          "ticks": 201360,
          "time": 165.59175199999999,
          "velocity": 0.5669291338582677
        },
        {
          "duration": 0.1907890666666674,
          "durationTicks": 232,
          "midi": 55,
          "name": "G3",
          "ticks": 201600,
          "time": 165.78912,
          "velocity": 0.5669291338582677
        },
        {
          "duration": 0.19078906666669582,
          "durationTicks": 232,
          "midi": 62,
          "name": "D4",
          "ticks": 201840,
          "time": 165.98648799999998,
          "velocity": 0.5669291338582677
        },
        {
          "duration": 0.1907890666666674,
          "durationTicks": 232,
          "midi": 64,
          "name": "E4",
          "ticks": 202080,
          "time": 166.183856,
          "velocity": 0.5669291338582677
        },
        {
          "duration": 0.1907890666666674,
          "durationTicks": 232,
          "midi": 62,
          "name": "D4",
          "ticks": 202320,
          "time": 166.381224,
          "velocity": 0.5669291338582677
        },
        {
          "duration": 0.1907890666666674,
          "durationTicks": 232,
          "midi": 64,
          "name": "E4",
          "ticks": 202560,
          "time": 166.578592,
          "velocity": 0.5669291338582677
        },
        {
          "duration": 0.1907890666666674,
          "durationTicks": 232,
          "midi": 62,
          "name": "D4",
          "ticks": 202800,
          "time": 166.77596,
          "velocity": 0.5669291338582677
        },
        {
          "duration": 0.1907890666666674,
          "durationTicks": 232,
          "midi": 62,
          "name": "D4",
          "ticks": 203040,
          "time": 166.97332799999998,
          "velocity": 0.5669291338582677
        },
        {
          "duration": 0.1907890666666674,
          "durationTicks": 232,
          "midi": 64,
          "name": "E4",
          "ticks": 203280,
          "time": 167.170696,
          "velocity": 0.5669291338582677
        },
        {
          "duration": 0.1907890666666674,
          "durationTicks": 232,
          "midi": 64,
          "name": "E4",
          "ticks": 203520,
          "time": 167.368064,
          "velocity": 0.5669291338582677
        },
        {
          "duration": 0.1907890666666674,
          "durationTicks": 232,
          "midi": 62,
          "name": "D4",
          "ticks": 203760,
          "time": 167.565432,
          "velocity": 0.5669291338582677
        },
        {
          "duration": 0.1907890666666674,
          "durationTicks": 232,
          "midi": 64,
          "name": "E4",
          "ticks": 204000,
          "time": 167.7628,
          "velocity": 0.5669291338582677
        },
        {
          "duration": 0.1907890666666674,
          "durationTicks": 232,
          "midi": 62,
          "name": "D4",
          "ticks": 204240,
          "time": 167.96016799999998,
          "velocity": 0.5669291338582677
        },
        {
          "duration": 0.1907890666666674,
          "durationTicks": 232,
          "midi": 64,
          "name": "E4",
          "ticks": 204480,
          "time": 168.157536,
          "velocity": 0.5669291338582677
        },
        {
          "duration": 0.19078906666669582,
          "durationTicks": 232,
          "midi": 62,
          "name": "D4",
          "ticks": 204720,
          "time": 168.35490399999998,
          "velocity": 0.5669291338582677
        },
        {
          "duration": 0.1907890666666674,
          "durationTicks": 232,
          "midi": 62,
          "name": "D4",
          "ticks": 204960,
          "time": 168.552272,
          "velocity": 0.5669291338582677
        },
        {
          "duration": 0.1907890666666674,
          "durationTicks": 232,
          "midi": 64,
          "name": "E4",
          "ticks": 205200,
          "time": 168.74964,
          "velocity": 0.5669291338582677
        },
        {
          "duration": 0.1907890666666674,
          "durationTicks": 232,
          "midi": 62,
          "name": "D4",
          "ticks": 205440,
          "time": 168.94700799999998,
          "velocity": 0.5669291338582677
        },
        {
          "duration": 0.1907890666666674,
          "durationTicks": 232,
          "midi": 64,
          "name": "E4",
          "ticks": 205680,
          "time": 169.144376,
          "velocity": 0.5669291338582677
        },
        {
          "duration": 0.19078906666669582,
          "durationTicks": 232,
          "midi": 64,
          "name": "E4",
          "ticks": 205920,
          "time": 169.34174399999998,
          "velocity": 0.5669291338582677
        },
        {
          "duration": 0.1907890666666674,
          "durationTicks": 232,
          "midi": 62,
          "name": "D4",
          "ticks": 206160,
          "time": 169.539112,
          "velocity": 0.5669291338582677
        },
        {
          "duration": 0.1907890666666674,
          "durationTicks": 232,
          "midi": 64,
          "name": "E4",
          "ticks": 206400,
          "time": 169.73648,
          "velocity": 0.5669291338582677
        },
        {
          "duration": 0.1907890666666674,
          "durationTicks": 232,
          "midi": 62,
          "name": "D4",
          "ticks": 206640,
          "time": 169.93384799999998,
          "velocity": 0.5669291338582677
        },
        {
          "duration": 0.1907890666666674,
          "durationTicks": 232,
          "midi": 62,
          "name": "D4",
          "ticks": 206880,
          "time": 170.131216,
          "velocity": 0.5669291338582677
        },
        {
          "duration": 0.19078906666669582,
          "durationTicks": 232,
          "midi": 64,
          "name": "E4",
          "ticks": 207120,
          "time": 170.32858399999998,
          "velocity": 0.5669291338582677
        },
        {
          "duration": 0.1907890666666674,
          "durationTicks": 232,
          "midi": 62,
          "name": "D4",
          "ticks": 207360,
          "time": 170.525952,
          "velocity": 0.5669291338582677
        },
        {
          "duration": 0.1907890666666674,
          "durationTicks": 232,
          "midi": 55,
          "name": "G3",
          "ticks": 207600,
          "time": 170.72332,
          "velocity": 0.5669291338582677
        },
        {
          "duration": 0.1907890666666674,
          "durationTicks": 232,
          "midi": 62,
          "name": "D4",
          "ticks": 207840,
          "time": 170.92068799999998,
          "velocity": 0.5669291338582677
        },
        {
          "duration": 0.1907890666666674,
          "durationTicks": 232,
          "midi": 64,
          "name": "E4",
          "ticks": 208080,
          "time": 171.118056,
          "velocity": 0.5669291338582677
        },
        {
          "duration": 0.19078906666669582,
          "durationTicks": 232,
          "midi": 64,
          "name": "E4",
          "ticks": 208320,
          "time": 171.31542399999998,
          "velocity": 0.5669291338582677
        },
        {
          "duration": 0.1907890666666674,
          "durationTicks": 232,
          "midi": 62,
          "name": "D4",
          "ticks": 208560,
          "time": 171.512792,
          "velocity": 0.5669291338582677
        },
        {
          "duration": 0.1907890666666674,
          "durationTicks": 232,
          "midi": 62,
          "name": "D4",
          "ticks": 208800,
          "time": 171.71016,
          "velocity": 0.5669291338582677
        },
        {
          "duration": 0.1907890666666674,
          "durationTicks": 232,
          "midi": 64,
          "name": "E4",
          "ticks": 209040,
          "time": 171.90752799999999,
          "velocity": 0.5669291338582677
        },
        {
          "duration": 0.1907890666666674,
          "durationTicks": 232,
          "midi": 64,
          "name": "E4",
          "ticks": 209280,
          "time": 172.104896,
          "velocity": 0.5669291338582677
        },
        {
          "duration": 0.19078906666669582,
          "durationTicks": 232,
          "midi": 57,
          "name": "A3",
          "ticks": 209520,
          "time": 172.30226399999998,
          "velocity": 0.5669291338582677
        },
        {
          "duration": 0.1907890666666674,
          "durationTicks": 232,
          "midi": 64,
          "name": "E4",
          "ticks": 209760,
          "time": 172.499632,
          "velocity": 0.5669291338582677
        },
        {
          "duration": 0.1907890666666674,
          "durationTicks": 232,
          "midi": 57,
          "name": "A3",
          "ticks": 210000,
          "time": 172.697,
          "velocity": 0.5669291338582677
        },
        {
          "duration": 0.1907890666666674,
          "durationTicks": 232,
          "midi": 66,
          "name": "F#4",
          "ticks": 210240,
          "time": 172.894368,
          "velocity": 0.5669291338582677
        },
        {
          "duration": 0.1907890666666674,
          "durationTicks": 232,
          "midi": 66,
          "name": "F#4",
          "ticks": 210480,
          "time": 173.091736,
          "velocity": 0.5669291338582677
        },
        {
          "duration": 0.1907890666666674,
          "durationTicks": 232,
          "midi": 66,
          "name": "F#4",
          "ticks": 210720,
          "time": 173.28910399999998,
          "velocity": 0.5669291338582677
        },
        {
          "duration": 0.1907890666666674,
          "durationTicks": 232,
          "midi": 64,
          "name": "E4",
          "ticks": 210960,
          "time": 173.486472,
          "velocity": 0.5669291338582677
        },
        {
          "duration": 0.19078906666669582,
          "durationTicks": 232,
          "midi": 64,
          "name": "E4",
          "ticks": 211200,
          "time": 173.68383999999998,
          "velocity": 0.5669291338582677
        },
        {
          "duration": 0.1907890666666674,
          "durationTicks": 232,
          "midi": 66,
          "name": "F#4",
          "ticks": 211440,
          "time": 173.881208,
          "velocity": 0.5669291338582677
        },
        {
          "duration": 0.1907890666666674,
          "durationTicks": 232,
          "midi": 66,
          "name": "F#4",
          "ticks": 211680,
          "time": 174.078576,
          "velocity": 0.5669291338582677
        },
        {
          "duration": 0.1907890666666674,
          "durationTicks": 232,
          "midi": 64,
          "name": "E4",
          "ticks": 211920,
          "time": 174.27594399999998,
          "velocity": 0.5669291338582677
        },
        {
          "duration": 0.2565783999999951,
          "durationTicks": 312,
          "midi": 64,
          "name": "E4",
          "ticks": 212160,
          "time": 174.473312,
          "velocity": 0.5669291338582677
        },
        {
          "duration": 0.2565783999999951,
          "durationTicks": 312,
          "midi": 66,
          "name": "F#4",
          "ticks": 212480,
          "time": 174.73646933333333,
          "velocity": 0.5669291338582677
        },
        {
          "duration": 0.2565784000000235,
          "durationTicks": 312,
          "midi": 66,
          "name": "F#4",
          "ticks": 212800,
          "time": 174.99962666666664,
          "velocity": 0.5669291338582677
        },
        {
          "duration": 0.1907890666666674,
          "durationTicks": 232,
          "midi": 66,
          "name": "F#4",
          "ticks": 213120,
          "time": 175.26278399999998,
          "velocity": 0.5669291338582677
        },
        {
          "duration": 0.1907890666666674,
          "durationTicks": 232,
          "midi": 66,
          "name": "F#4",
          "ticks": 213360,
          "time": 175.460152,
          "velocity": 0.5669291338582677
        },
        {
          "duration": 0.19078906666669582,
          "durationTicks": 232,
          "midi": 66,
          "name": "F#4",
          "ticks": 213600,
          "time": 175.65751999999998,
          "velocity": 0.5669291338582677
        },
        {
          "duration": 0.1907890666666674,
          "durationTicks": 232,
          "midi": 64,
          "name": "E4",
          "ticks": 213840,
          "time": 175.854888,
          "velocity": 0.5669291338582677
        },
        {
          "duration": 0.1907890666666674,
          "durationTicks": 232,
          "midi": 66,
          "name": "F#4",
          "ticks": 214080,
          "time": 176.052256,
          "velocity": 0.5669291338582677
        },
        {
          "duration": 0.1907890666666674,
          "durationTicks": 232,
          "midi": 66,
          "name": "F#4",
          "ticks": 214320,
          "time": 176.24962399999998,
          "velocity": 0.5669291338582677
        },
        {
          "duration": 0.1907890666666674,
          "durationTicks": 232,
          "midi": 66,
          "name": "F#4",
          "ticks": 214560,
          "time": 176.446992,
          "velocity": 0.5669291338582677
        },
        {
          "duration": 0.19078906666669582,
          "durationTicks": 232,
          "midi": 64,
          "name": "E4",
          "ticks": 214800,
          "time": 176.64435999999998,
          "velocity": 0.5669291338582677
        },
        {
          "duration": 0.1907890666666674,
          "durationTicks": 232,
          "midi": 64,
          "name": "E4",
          "ticks": 215040,
          "time": 176.841728,
          "velocity": 0.5669291338582677
        },
        {
          "duration": 0.1907890666666674,
          "durationTicks": 232,
          "midi": 66,
          "name": "F#4",
          "ticks": 215280,
          "time": 177.039096,
          "velocity": 0.5669291338582677
        },
        {
          "duration": 0.1907890666666674,
          "durationTicks": 232,
          "midi": 66,
          "name": "F#4",
          "ticks": 215520,
          "time": 177.23646399999998,
          "velocity": 0.5669291338582677
        },
        {
          "duration": 0.1907890666666674,
          "durationTicks": 232,
          "midi": 64,
          "name": "E4",
          "ticks": 215760,
          "time": 177.433832,
          "velocity": 0.5669291338582677
        },
        {
          "duration": 0.19078906666669582,
          "durationTicks": 232,
          "midi": 66,
          "name": "F#4",
          "ticks": 216000,
          "time": 177.63119999999998,
          "velocity": 0.5669291338582677
        },
        {
          "duration": 0.38815706666667893,
          "durationTicks": 472,
          "midi": 64,
          "name": "E4",
          "ticks": 216240,
          "time": 177.828568,
          "velocity": 0.5669291338582677
        },
        {
          "duration": 0.1907890666666674,
          "durationTicks": 232,
          "midi": 56,
          "name": "G#3",
          "ticks": 216720,
          "time": 178.22330399999998,
          "velocity": 0.5669291338582677
        },
        {
          "duration": 0.1907890666666674,
          "durationTicks": 232,
          "midi": 61,
          "name": "C#4",
          "ticks": 216960,
          "time": 178.420672,
          "velocity": 0.5669291338582677
        },
        {
          "duration": 0.19078906666669582,
          "durationTicks": 232,
          "midi": 64,
          "name": "E4",
          "ticks": 217200,
          "time": 178.61803999999998,
          "velocity": 0.5669291338582677
        },
        {
          "duration": 0.1907890666666674,
          "durationTicks": 232,
          "midi": 61,
          "name": "C#4",
          "ticks": 217440,
          "time": 178.815408,
          "velocity": 0.5669291338582677
        },
        {
          "duration": 0.1907890666666674,
          "durationTicks": 232,
          "midi": 64,
          "name": "E4",
          "ticks": 217680,
          "time": 179.012776,
          "velocity": 0.5669291338582677
        },
        {
          "duration": 0.1907890666666674,
          "durationTicks": 232,
          "midi": 61,
          "name": "C#4",
          "ticks": 217920,
          "time": 179.21014399999999,
          "velocity": 0.5669291338582677
        },
        {
          "duration": 0.1907890666666674,
          "durationTicks": 232,
          "midi": 64,
          "name": "E4",
          "ticks": 218160,
          "time": 179.407512,
          "velocity": 0.5669291338582677
        },
        {
          "duration": 0.1907890666666674,
          "durationTicks": 232,
          "midi": 61,
          "name": "C#4",
          "ticks": 218400,
          "time": 179.60487999999998,
          "velocity": 0.5669291338582677
        },
        {
          "duration": 0.1907890666666674,
          "durationTicks": 232,
          "midi": 64,
          "name": "E4",
          "ticks": 218640,
          "time": 179.802248,
          "velocity": 0.5669291338582677
        },
        {
          "duration": 0.1907890666666674,
          "durationTicks": 232,
          "midi": 69,
          "name": "A4",
          "ticks": 218880,
          "time": 179.999616,
          "velocity": 0.5669291338582677
        },
        {
          "duration": 0.1907890666666674,
          "durationTicks": 232,
          "midi": 61,
          "name": "C#4",
          "ticks": 219120,
          "time": 180.196984,
          "velocity": 0.5669291338582677
        },
        {
          "duration": 0.1907890666666674,
          "durationTicks": 232,
          "midi": 64,
          "name": "E4",
          "ticks": 219360,
          "time": 180.394352,
          "velocity": 0.5669291338582677
        },
        {
          "duration": 0.1907890666666674,
          "durationTicks": 232,
          "midi": 61,
          "name": "C#4",
          "ticks": 219600,
          "time": 180.59171999999998,
          "velocity": 0.5669291338582677
        },
        {
          "duration": 0.1907890666666674,
          "durationTicks": 232,
          "midi": 64,
          "name": "E4",
          "ticks": 219840,
          "time": 180.789088,
          "velocity": 0.5669291338582677
        },
        {
          "duration": 0.19078906666669582,
          "durationTicks": 232,
          "midi": 69,
          "name": "A4",
          "ticks": 220080,
          "time": 180.98645599999998,
          "velocity": 0.5669291338582677
        },
        {
          "duration": 0.1907890666666674,
          "durationTicks": 232,
          "midi": 61,
          "name": "C#4",
          "ticks": 220320,
          "time": 181.183824,
          "velocity": 0.5669291338582677
        },
        {
          "duration": 0.1907890666666674,
          "durationTicks": 232,
          "midi": 64,
          "name": "E4",
          "ticks": 220560,
          "time": 181.381192,
          "velocity": 0.5669291338582677
        },
        {
          "duration": 0.1907890666666674,
          "durationTicks": 232,
          "midi": 61,
          "name": "C#4",
          "ticks": 220800,
          "time": 181.57855999999998,
          "velocity": 0.5669291338582677
        },
        {
          "duration": 0.1907890666666674,
          "durationTicks": 232,
          "midi": 64,
          "name": "E4",
          "ticks": 221040,
          "time": 181.775928,
          "velocity": 0.5669291338582677
        },
        {
          "duration": 0.19078906666669582,
          "durationTicks": 232,
          "midi": 69,
          "name": "A4",
          "ticks": 221280,
          "time": 181.97329599999998,
          "velocity": 0.5669291338582677
        },
        {
          "duration": 0.1907890666666674,
          "durationTicks": 232,
          "midi": 61,
          "name": "C#4",
          "ticks": 221520,
          "time": 182.170664,
          "velocity": 0.5669291338582677
        },
        {
          "duration": 0.1907890666666674,
          "durationTicks": 232,
          "midi": 64,
          "name": "E4",
          "ticks": 221760,
          "time": 182.368032,
          "velocity": 0.5669291338582677
        },
        {
          "duration": 0.1907890666666674,
          "durationTicks": 232,
          "midi": 61,
          "name": "C#4",
          "ticks": 222000,
          "time": 182.56539999999998,
          "velocity": 0.5669291338582677
        },
        {
          "duration": 0.1907890666666674,
          "durationTicks": 232,
          "midi": 64,
          "name": "E4",
          "ticks": 222240,
          "time": 182.762768,
          "velocity": 0.5669291338582677
        },
        {
          "duration": 0.19078906666669582,
          "durationTicks": 232,
          "midi": 69,
          "name": "A4",
          "ticks": 222480,
          "time": 182.96013599999998,
          "velocity": 0.5669291338582677
        },
        {
          "duration": 0.1907890666666674,
          "durationTicks": 232,
          "midi": 61,
          "name": "C#4",
          "ticks": 222720,
          "time": 183.157504,
          "velocity": 0.5669291338582677
        },
        {
          "duration": 0.1907890666666674,
          "durationTicks": 232,
          "midi": 64,
          "name": "E4",
          "ticks": 222960,
          "time": 183.354872,
          "velocity": 0.5669291338582677
        },
        {
          "duration": 0.1907890666666674,
          "durationTicks": 232,
          "midi": 69,
          "name": "A4",
          "ticks": 223200,
          "time": 183.55223999999998,
          "velocity": 0.5669291338582677
        },
        {
          "duration": 0.1907890666666674,
          "durationTicks": 232,
          "midi": 61,
          "name": "C#4",
          "ticks": 223440,
          "time": 183.749608,
          "velocity": 0.5669291338582677
        },
        {
          "duration": 0.19078906666669582,
          "durationTicks": 232,
          "midi": 64,
          "name": "E4",
          "ticks": 223680,
          "time": 183.94697599999998,
          "velocity": 0.5669291338582677
        },
        {
          "duration": 0.1907890666666674,
          "durationTicks": 232,
          "midi": 61,
          "name": "C#4",
          "ticks": 223920,
          "time": 184.144344,
          "velocity": 0.5669291338582677
        },
        {
          "duration": 0.1907890666666674,
          "durationTicks": 232,
          "midi": 64,
          "name": "E4",
          "ticks": 224160,
          "time": 184.341712,
          "velocity": 0.5669291338582677
        },
        {
          "duration": 0.1907890666666674,
          "durationTicks": 232,
          "midi": 69,
          "name": "A4",
          "ticks": 224400,
          "time": 184.53907999999998,
          "velocity": 0.5669291338582677
        }
      ]
    },
    {
      "channel": 0,
      "controlChanges": {
        "6": [
          {
            "number": 6,
            "ticks": 420,
            "time": 0.345394,
            "value": 0.09448818897637795
          }
        ],
        "38": [
          {
            "number": 38,
            "ticks": 420,
            "time": 0.345394,
            "value": 0
          }
        ],
        "100": [
          {
            "number": 100,
            "ticks": 420,
            "time": 0.345394,
            "value": 0
          }
        ],
        "101": [
          {
            "number": 101,
            "ticks": 420,
            "time": 0.345394,
            "value": 0
          }
        ],
        "121": [
          {
            "number": 121,
            "ticks": 420,
            "time": 0.345394,
            "value": 0
          }
        ],
        "123": [
          {
            "number": 123,
            "ticks": 420,
            "time": 0.345394,
            "value": 0
          }
        ]
      },
      "pitchBends": [
        {
          "ticks": 420,
          "time": 0.345394,
          "value": 0
        }
      ],
      "instrument": {
        "family": "piano",
        "number": 0,
        "name": "acoustic grand piano"
      },
      "name": "Ed O'Brien",
      "notes": [],
      "endOfTrackTicks": 224632
    },
    {
      "channel": 3,
      "controlChanges": {
        "7": [
          {
            "number": 7,
            "ticks": 480,
            "time": 0.394736,
            "value": 0.7086614173228346
          }
        ],
        "10": [
          {
            "number": 10,
            "ticks": 480,
            "time": 0.394736,
            "value": 0.9606299212598425
          }
        ]
      },
      "pitchBends": [],
      "instrument": {
        "family": "guitar",
        "number": 26,
        "name": "electric guitar (jazz)"
      },
      "name": "",
      "notes": [
        {
          "duration": 0.1907890666666674,
          "durationTicks": 232,
          "midi": 64,
          "name": "E4",
          "ticks": 132480,
          "time": 108.947136,
          "velocity": 0.5669291338582677
        },
        {
          "duration": 0.1907890666666674,
          "durationTicks": 232,
          "midi": 67,
          "name": "G4",
          "ticks": 132720,
          "time": 109.144504,
          "velocity": 0.5669291338582677
        },
        {
          "duration": 0.1907890666666674,
          "durationTicks": 232,
          "midi": 71,
          "name": "B4",
          "ticks": 132960,
          "time": 109.341872,
          "velocity": 0.5669291338582677
        },
        {
          "duration": 0.1907890666666674,
          "durationTicks": 232,
          "midi": 67,
          "name": "G4",
          "ticks": 133200,
          "time": 109.53923999999999,
          "velocity": 0.5669291338582677
        },
        {
          "duration": 0.1907890666666816,
          "durationTicks": 232,
          "midi": 71,
          "name": "B4",
          "ticks": 133440,
          "time": 109.73660799999999,
          "velocity": 0.5669291338582677
        },
        {
          "duration": 0.1907890666666816,
          "durationTicks": 232,
          "midi": 64,
          "name": "E4",
          "ticks": 133680,
          "time": 109.93397599999999,
          "velocity": 0.5669291338582677
        },
        {
          "duration": 0.1907890666666674,
          "durationTicks": 232,
          "midi": 71,
          "name": "B4",
          "ticks": 133920,
          "time": 110.131344,
          "velocity": 0.5669291338582677
        },
        {
          "duration": 0.1907890666666674,
          "durationTicks": 232,
          "midi": 67,
          "name": "G4",
          "ticks": 134160,
          "time": 110.328712,
          "velocity": 0.5669291338582677
        },
        {
          "duration": 0.1907890666666674,
          "durationTicks": 232,
          "midi": 71,
          "name": "B4",
          "ticks": 134400,
          "time": 110.52608,
          "velocity": 0.5669291338582677
        },
        {
          "duration": 0.1907890666666816,
          "durationTicks": 232,
          "midi": 64,
          "name": "E4",
          "ticks": 134640,
          "time": 110.72344799999999,
          "velocity": 0.5669291338582677
        },
        {
          "duration": 0.1907890666666816,
          "durationTicks": 232,
          "midi": 71,
          "name": "B4",
          "ticks": 134880,
          "time": 110.92081599999999,
          "velocity": 0.5669291338582677
        },
        {
          "duration": 0.1907890666666674,
          "durationTicks": 232,
          "midi": 67,
          "name": "G4",
          "ticks": 135120,
          "time": 111.118184,
          "velocity": 0.5669291338582677
        },
        {
          "duration": 0.1907890666666674,
          "durationTicks": 232,
          "midi": 64,
          "name": "E4",
          "ticks": 135360,
          "time": 111.315552,
          "velocity": 0.5669291338582677
        },
        {
          "duration": 0.1907890666666674,
          "durationTicks": 232,
          "midi": 67,
          "name": "G4",
          "ticks": 135600,
          "time": 111.51292,
          "velocity": 0.5669291338582677
        },
        {
          "duration": 0.1907890666666674,
          "durationTicks": 232,
          "midi": 71,
          "name": "B4",
          "ticks": 135840,
          "time": 111.71028799999999,
          "velocity": 0.5669291338582677
        },
        {
          "duration": 0.1907890666666816,
          "durationTicks": 232,
          "midi": 64,
          "name": "E4",
          "ticks": 136080,
          "time": 111.90765599999999,
          "velocity": 0.5669291338582677
        },
        {
          "duration": 0.1907890666666816,
          "durationTicks": 232,
          "midi": 67,
          "name": "G4",
          "ticks": 136320,
          "time": 112.10502399999999,
          "velocity": 0.5669291338582677
        },
        {
          "duration": 0.1907890666666674,
          "durationTicks": 232,
          "midi": 64,
          "name": "E4",
          "ticks": 136560,
          "time": 112.302392,
          "velocity": 0.5669291338582677
        },
        {
          "duration": 0.1907890666666674,
          "durationTicks": 232,
          "midi": 67,
          "name": "G4",
          "ticks": 136800,
          "time": 112.49976,
          "velocity": 0.5669291338582677
        },
        {
          "duration": 0.1907890666666674,
          "durationTicks": 232,
          "midi": 71,
          "name": "B4",
          "ticks": 137040,
          "time": 112.69712799999999,
          "velocity": 0.5669291338582677
        },
        {
          "duration": 0.1907890666666816,
          "durationTicks": 232,
          "midi": 64,
          "name": "E4",
          "ticks": 137280,
          "time": 112.89449599999999,
          "velocity": 0.5669291338582677
        },
        {
          "duration": 0.1907890666666816,
          "durationTicks": 232,
          "midi": 67,
          "name": "G4",
          "ticks": 137520,
          "time": 113.09186399999999,
          "velocity": 0.5669291338582677
        },
        {
          "duration": 0.1907890666666674,
          "durationTicks": 232,
          "midi": 64,
          "name": "E4",
          "ticks": 137760,
          "time": 113.289232,
          "velocity": 0.5669291338582677
        },
        {
          "duration": 0.1907890666666674,
          "durationTicks": 232,
          "midi": 67,
          "name": "G4",
          "ticks": 138000,
          "time": 113.4866,
          "velocity": 0.5669291338582677
        },
        {
          "duration": 0.1907890666666674,
          "durationTicks": 232,
          "midi": 71,
          "name": "B4",
          "ticks": 138240,
          "time": 113.683968,
          "velocity": 0.5669291338582677
        },
        {
          "duration": 0.1907890666666816,
          "durationTicks": 232,
          "midi": 64,
          "name": "E4",
          "ticks": 138480,
          "time": 113.88133599999999,
          "velocity": 0.5669291338582677
        },
        {
          "duration": 0.1907890666666816,
          "durationTicks": 232,
          "midi": 67,
          "name": "G4",
          "ticks": 138720,
          "time": 114.07870399999999,
          "velocity": 0.5669291338582677
        },
        {
          "duration": 0.1907890666666674,
          "durationTicks": 232,
          "midi": 71,
          "name": "B4",
          "ticks": 138960,
          "time": 114.276072,
          "velocity": 0.5669291338582677
        },
        {
          "duration": 0.1907890666666674,
          "durationTicks": 232,
          "midi": 67,
          "name": "G4",
          "ticks": 139200,
          "time": 114.47344,
          "velocity": 0.5669291338582677
        },
        {
          "duration": 0.1907890666666674,
          "durationTicks": 232,
          "midi": 71,
          "name": "B4",
          "ticks": 139440,
          "time": 114.670808,
          "velocity": 0.5669291338582677
        },
        {
          "duration": 0.1907890666666674,
          "durationTicks": 232,
          "midi": 64,
          "name": "E4",
          "ticks": 139680,
          "time": 114.86817599999999,
          "velocity": 0.5669291338582677
        },
        {
          "duration": 0.1907890666666816,
          "durationTicks": 232,
          "midi": 67,
          "name": "G4",
          "ticks": 139920,
          "time": 115.06554399999999,
          "velocity": 0.5669291338582677
        },
        {
          "duration": 0.1907890666666674,
          "durationTicks": 232,
          "midi": 66,
          "name": "F#4",
          "ticks": 140160,
          "time": 115.262912,
          "velocity": 0.5669291338582677
        },
        {
          "duration": 0.1907890666666674,
          "durationTicks": 232,
          "midi": 69,
          "name": "A4",
          "ticks": 140400,
          "time": 115.46028,
          "velocity": 0.5669291338582677
        },
        {
          "duration": 0.1907890666666674,
          "durationTicks": 232,
          "midi": 73,
          "name": "C#5",
          "ticks": 140640,
          "time": 115.657648,
          "velocity": 0.5669291338582677
        },
        {
          "duration": 0.1907890666666674,
          "durationTicks": 232,
          "midi": 66,
          "name": "F#4",
          "ticks": 140880,
          "time": 115.85501599999999,
          "velocity": 0.5669291338582677
        },
        {
          "duration": 0.1907890666666816,
          "durationTicks": 232,
          "midi": 73,
          "name": "C#5",
          "ticks": 141120,
          "time": 116.05238399999999,
          "velocity": 0.5669291338582677
        },
        {
          "duration": 0.1907890666666816,
          "durationTicks": 232,
          "midi": 66,
          "name": "F#4",
          "ticks": 141360,
          "time": 116.24975199999999,
          "velocity": 0.5669291338582677
        },
        {
          "duration": 0.1907890666666674,
          "durationTicks": 232,
          "midi": 73,
          "name": "C#5",
          "ticks": 141600,
          "time": 116.44712,
          "velocity": 0.5669291338582677
        },
        {
          "duration": 0.1907890666666674,
          "durationTicks": 232,
          "midi": 69,
          "name": "A4",
          "ticks": 141840,
          "time": 116.644488,
          "velocity": 0.5669291338582677
        },
        {
          "duration": 0.1907890666666674,
          "durationTicks": 232,
          "midi": 73,
          "name": "C#5",
          "ticks": 142080,
          "time": 116.84185599999999,
          "velocity": 0.5669291338582677
        },
        {
          "duration": 0.1907890666666816,
          "durationTicks": 232,
          "midi": 66,
          "name": "F#4",
          "ticks": 142320,
          "time": 117.03922399999999,
          "velocity": 0.5669291338582677
        },
        {
          "duration": 0.1907890666666816,
          "durationTicks": 232,
          "midi": 66,
          "name": "F#4",
          "ticks": 142560,
          "time": 117.23659199999999,
          "velocity": 0.5669291338582677
        },
        {
          "duration": 0.1907890666666674,
          "durationTicks": 232,
          "midi": 69,
          "name": "A4",
          "ticks": 142800,
          "time": 117.43396,
          "velocity": 0.5669291338582677
        },
        {
          "duration": 0.1907890666666674,
          "durationTicks": 232,
          "midi": 73,
          "name": "C#5",
          "ticks": 143040,
          "time": 117.631328,
          "velocity": 0.5669291338582677
        },
        {
          "duration": 0.1907890666666674,
          "durationTicks": 232,
          "midi": 66,
          "name": "F#4",
          "ticks": 143280,
          "time": 117.828696,
          "velocity": 0.5669291338582677
        },
        {
          "duration": 0.1907890666666674,
          "durationTicks": 232,
          "midi": 69,
          "name": "A4",
          "ticks": 143520,
          "time": 118.02606399999999,
          "velocity": 0.5669291338582677
        },
        {
          "duration": 0.1907890666666816,
          "durationTicks": 232,
          "midi": 73,
          "name": "C#5",
          "ticks": 143760,
          "time": 118.22343199999999,
          "velocity": 0.5669291338582677
        },
        {
          "duration": 0.1907890666666816,
          "durationTicks": 232,
          "midi": 69,
          "name": "A4",
          "ticks": 144000,
          "time": 118.42079999999999,
          "velocity": 0.5669291338582677
        },
        {
          "duration": 0.1907890666666674,
          "durationTicks": 232,
          "midi": 73,
          "name": "C#5",
          "ticks": 144240,
          "time": 118.618168,
          "velocity": 0.5669291338582677
        },
        {
          "duration": 0.1907890666666674,
          "durationTicks": 232,
          "midi": 66,
          "name": "F#4",
          "ticks": 144480,
          "time": 118.815536,
          "velocity": 0.5669291338582677
        },
        {
          "duration": 0.1907890666666674,
          "durationTicks": 232,
          "midi": 69,
          "name": "A4",
          "ticks": 144720,
          "time": 119.01290399999999,
          "velocity": 0.5669291338582677
        },
        {
          "duration": 0.1907890666666816,
          "durationTicks": 232,
          "midi": 66,
          "name": "F#4",
          "ticks": 144960,
          "time": 119.21027199999999,
          "velocity": 0.5669291338582677
        },
        {
          "duration": 0.1907890666666816,
          "durationTicks": 232,
          "midi": 69,
          "name": "A4",
          "ticks": 145200,
          "time": 119.40763999999999,
          "velocity": 0.5669291338582677
        },
        {
          "duration": 0.1907890666666674,
          "durationTicks": 232,
          "midi": 73,
          "name": "C#5",
          "ticks": 145440,
          "time": 119.605008,
          "velocity": 0.5669291338582677
        },
        {
          "duration": 0.1907890666666674,
          "durationTicks": 232,
          "midi": 66,
          "name": "F#4",
          "ticks": 145680,
          "time": 119.802376,
          "velocity": 0.5669291338582677
        },
        {
          "duration": 0.1907890666666674,
          "durationTicks": 232,
          "midi": 69,
          "name": "A4",
          "ticks": 145920,
          "time": 119.99974399999999,
          "velocity": 0.5669291338582677
        },
        {
          "duration": 0.1907890666666816,
          "durationTicks": 232,
          "midi": 73,
          "name": "C#5",
          "ticks": 146160,
          "time": 120.19711199999999,
          "velocity": 0.5669291338582677
        },
        {
          "duration": 0.1907890666666816,
          "durationTicks": 232,
          "midi": 69,
          "name": "A4",
          "ticks": 146400,
          "time": 120.39447999999999,
          "velocity": 0.5669291338582677
        },
        {
          "duration": 0.1907890666666674,
          "durationTicks": 232,
          "midi": 73,
          "name": "C#5",
          "ticks": 146640,
          "time": 120.591848,
          "velocity": 0.5669291338582677
        },
        {
          "duration": 0.1907890666666674,
          "durationTicks": 232,
          "midi": 69,
          "name": "A4",
          "ticks": 146880,
          "time": 120.789216,
          "velocity": 0.5669291338582677
        },
        {
          "duration": 0.1907890666666674,
          "durationTicks": 232,
          "midi": 73,
          "name": "C#5",
          "ticks": 147120,
          "time": 120.986584,
          "velocity": 0.5669291338582677
        },
        {
          "duration": 0.1907890666666674,
          "durationTicks": 232,
          "midi": 66,
          "name": "F#4",
          "ticks": 147360,
          "time": 121.18395199999999,
          "velocity": 0.5669291338582677
        },
        {
          "duration": 0.1907890666666816,
          "durationTicks": 232,
          "midi": 69,
          "name": "A4",
          "ticks": 147600,
          "time": 121.38131999999999,
          "velocity": 0.5669291338582677
        },
        {
          "duration": 0.1907890666666674,
          "durationTicks": 232,
          "midi": 66,
          "name": "F#4",
          "ticks": 147840,
          "time": 121.578688,
          "velocity": 0.5669291338582677
        },
        {
          "duration": 0.1907890666666674,
          "durationTicks": 232,
          "midi": 69,
          "name": "A4",
          "ticks": 148080,
          "time": 121.776056,
          "velocity": 0.5669291338582677
        },
        {
          "duration": 0.1907890666666674,
          "durationTicks": 232,
          "midi": 73,
          "name": "C#5",
          "ticks": 148320,
          "time": 121.973424,
          "velocity": 0.5669291338582677
        },
        {
          "duration": 0.1907890666666674,
          "durationTicks": 232,
          "midi": 66,
          "name": "F#4",
          "ticks": 148560,
          "time": 122.17079199999999,
          "velocity": 0.5669291338582677
        },
        {
          "duration": 0.1907890666666816,
          "durationTicks": 232,
          "midi": 69,
          "name": "A4",
          "ticks": 148800,
          "time": 122.36815999999999,
          "velocity": 0.5669291338582677
        },
        {
          "duration": 0.1907890666666816,
          "durationTicks": 232,
          "midi": 73,
          "name": "C#5",
          "ticks": 149040,
          "time": 122.56552799999999,
          "velocity": 0.5669291338582677
        },
        {
          "duration": 0.1907890666666674,
          "durationTicks": 232,
          "midi": 66,
          "name": "F#4",
          "ticks": 149280,
          "time": 122.762896,
          "velocity": 0.5669291338582677
        },
        {
          "duration": 0.1907890666666674,
          "durationTicks": 232,
          "midi": 66,
          "name": "F#4",
          "ticks": 149520,
          "time": 122.960264,
          "velocity": 0.5669291338582677
        },
        {
          "duration": 0.1907890666666674,
          "durationTicks": 232,
          "midi": 66,
          "name": "F#4",
          "ticks": 149760,
          "time": 123.15763199999999,
          "velocity": 0.5669291338582677
        },
        {
          "duration": 0.1907890666666816,
          "durationTicks": 232,
          "midi": 69,
          "name": "A4",
          "ticks": 150000,
          "time": 123.35499999999999,
          "velocity": 0.5669291338582677
        },
        {
          "duration": 0.1907890666666816,
          "durationTicks": 232,
          "midi": 73,
          "name": "C#5",
          "ticks": 150240,
          "time": 123.55236799999999,
          "velocity": 0.5669291338582677
        },
        {
          "duration": 0.1907890666666674,
          "durationTicks": 232,
          "midi": 66,
          "name": "F#4",
          "ticks": 150480,
          "time": 123.749736,
          "velocity": 0.5669291338582677
        },
        {
          "duration": 0.1907890666666674,
          "durationTicks": 232,
          "midi": 73,
          "name": "C#5",
          "ticks": 150720,
          "time": 123.947104,
          "velocity": 0.5669291338582677
        },
        {
          "duration": 0.1907890666666674,
          "durationTicks": 232,
          "midi": 66,
          "name": "F#4",
          "ticks": 150960,
          "time": 124.144472,
          "velocity": 0.5669291338582677
        },
        {
          "duration": 0.1907890666666674,
          "durationTicks": 232,
          "midi": 69,
          "name": "A4",
          "ticks": 151200,
          "time": 124.34183999999999,
          "velocity": 0.5669291338582677
        },
        {
          "duration": 0.1907890666666816,
          "durationTicks": 232,
          "midi": 73,
          "name": "C#5",
          "ticks": 151440,
          "time": 124.53920799999999,
          "velocity": 0.5669291338582677
        },
        {
          "duration": 0.1907890666666816,
          "durationTicks": 232,
          "midi": 66,
          "name": "F#4",
          "ticks": 151680,
          "time": 124.73657599999999,
          "velocity": 0.5669291338582677
        },
        {
          "duration": 0.1907890666666674,
          "durationTicks": 232,
          "midi": 69,
          "name": "A4",
          "ticks": 151920,
          "time": 124.933944,
          "velocity": 0.5669291338582677
        },
        {
          "duration": 0.1907890666666674,
          "durationTicks": 232,
          "midi": 66,
          "name": "F#4",
          "ticks": 152160,
          "time": 125.131312,
          "velocity": 0.5669291338582677
        },
        {
          "duration": 0.1907890666666674,
          "durationTicks": 232,
          "midi": 69,
          "name": "A4",
          "ticks": 152400,
          "time": 125.32867999999999,
          "velocity": 0.5669291338582677
        },
        {
          "duration": 0.1907890666666816,
          "durationTicks": 232,
          "midi": 73,
          "name": "C#5",
          "ticks": 152640,
          "time": 125.52604799999999,
          "velocity": 0.5669291338582677
        },
        {
          "duration": 0.1907890666666816,
          "durationTicks": 232,
          "midi": 66,
          "name": "F#4",
          "ticks": 152880,
          "time": 125.72341599999999,
          "velocity": 0.5669291338582677
        },
        {
          "duration": 0.1907890666666674,
          "durationTicks": 232,
          "midi": 66,
          "name": "F#4",
          "ticks": 153120,
          "time": 125.920784,
          "velocity": 0.5669291338582677
        },
        {
          "duration": 0.1907890666666674,
          "durationTicks": 232,
          "midi": 69,
          "name": "A4",
          "ticks": 153360,
          "time": 126.118152,
          "velocity": 0.5669291338582677
        },
        {
          "duration": 0.1907890666666674,
          "durationTicks": 232,
          "midi": 69,
          "name": "A4",
          "ticks": 153600,
          "time": 126.31551999999999,
          "velocity": 0.5669291338582677
        },
        {
          "duration": 0.1907890666666816,
          "durationTicks": 232,
          "midi": 73,
          "name": "C#5",
          "ticks": 153840,
          "time": 126.51288799999999,
          "velocity": 0.5669291338582677
        },
        {
          "duration": 0.1907890666666816,
          "durationTicks": 232,
          "midi": 66,
          "name": "F#4",
          "ticks": 154080,
          "time": 126.71025599999999,
          "velocity": 0.5669291338582677
        },
        {
          "duration": 0.1907890666666674,
          "durationTicks": 232,
          "midi": 69,
          "name": "A4",
          "ticks": 154320,
          "time": 126.907624,
          "velocity": 0.5669291338582677
        },
        {
          "duration": 0.1907890666666674,
          "durationTicks": 232,
          "midi": 66,
          "name": "F#4",
          "ticks": 154560,
          "time": 127.104992,
          "velocity": 0.5669291338582677
        },
        {
          "duration": 0.1907890666666674,
          "durationTicks": 232,
          "midi": 69,
          "name": "A4",
          "ticks": 154800,
          "time": 127.30236,
          "velocity": 0.5669291338582677
        },
        {
          "duration": 0.1907890666666674,
          "durationTicks": 232,
          "midi": 73,
          "name": "C#5",
          "ticks": 155040,
          "time": 127.49972799999999,
          "velocity": 0.5669291338582677
        },
        {
          "duration": 0.1907890666666816,
          "durationTicks": 232,
          "midi": 66,
          "name": "F#4",
          "ticks": 155280,
          "time": 127.69709599999999,
          "velocity": 0.5669291338582677
        },
        {
          "duration": 0.1907890666666674,
          "durationTicks": 232,
          "midi": 67,
          "name": "G4",
          "ticks": 155520,
          "time": 127.894464,
          "velocity": 0.5669291338582677
        },
        {
          "duration": 0.19078906666669582,
          "durationTicks": 232,
          "midi": 74,
          "name": "D5",
          "ticks": 155760,
          "time": 128.09183199999998,
          "velocity": 0.5669291338582677
        },
        {
          "duration": 0.1907890666666674,
          "durationTicks": 232,
          "midi": 67,
          "name": "G4",
          "ticks": 156000,
          "time": 128.2892,
          "velocity": 0.5669291338582677
        },
        {
          "duration": 0.1907890666666674,
          "durationTicks": 232,
          "midi": 74,
          "name": "D5",
          "ticks": 156240,
          "time": 128.486568,
          "velocity": 0.5669291338582677
        },
        {
          "duration": 0.1907890666666674,
          "durationTicks": 232,
          "midi": 67,
          "name": "G4",
          "ticks": 156480,
          "time": 128.683936,
          "velocity": 0.5669291338582677
        },
        {
          "duration": 0.1907890666666674,
          "durationTicks": 232,
          "midi": 71,
          "name": "B4",
          "ticks": 156720,
          "time": 128.881304,
          "velocity": 0.5669291338582677
        },
        {
          "duration": 0.1907890666666674,
          "durationTicks": 232,
          "midi": 67,
          "name": "G4",
          "ticks": 156960,
          "time": 129.07867199999998,
          "velocity": 0.5669291338582677
        },
        {
          "duration": 0.1907890666666674,
          "durationTicks": 232,
          "midi": 71,
          "name": "B4",
          "ticks": 157200,
          "time": 129.27604,
          "velocity": 0.5669291338582677
        },
        {
          "duration": 0.1907890666666674,
          "durationTicks": 232,
          "midi": 74,
          "name": "D5",
          "ticks": 157440,
          "time": 129.473408,
          "velocity": 0.5669291338582677
        },
        {
          "duration": 0.1907890666666674,
          "durationTicks": 232,
          "midi": 67,
          "name": "G4",
          "ticks": 157680,
          "time": 129.670776,
          "velocity": 0.5669291338582677
        },
        {
          "duration": 0.1907890666666674,
          "durationTicks": 232,
          "midi": 71,
          "name": "B4",
          "ticks": 157920,
          "time": 129.868144,
          "velocity": 0.5669291338582677
        },
        {
          "duration": 0.1907890666666674,
          "durationTicks": 232,
          "midi": 67,
          "name": "G4",
          "ticks": 158160,
          "time": 130.06551199999998,
          "velocity": 0.5669291338582677
        },
        {
          "duration": 0.1907890666666674,
          "durationTicks": 232,
          "midi": 71,
          "name": "B4",
          "ticks": 158400,
          "time": 130.26288,
          "velocity": 0.5669291338582677
        },
        {
          "duration": 0.19078906666669582,
          "durationTicks": 232,
          "midi": 74,
          "name": "D5",
          "ticks": 158640,
          "time": 130.46024799999998,
          "velocity": 0.5669291338582677
        },
        {
          "duration": 0.1907890666666674,
          "durationTicks": 232,
          "midi": 67,
          "name": "G4",
          "ticks": 158880,
          "time": 130.657616,
          "velocity": 0.5669291338582677
        },
        {
          "duration": 0.1907890666666674,
          "durationTicks": 232,
          "midi": 71,
          "name": "B4",
          "ticks": 159120,
          "time": 130.854984,
          "velocity": 0.5669291338582677
        },
        {
          "duration": 0.1907890666666674,
          "durationTicks": 232,
          "midi": 67,
          "name": "G4",
          "ticks": 159360,
          "time": 131.05235199999998,
          "velocity": 0.5669291338582677
        },
        {
          "duration": 0.1907890666666674,
          "durationTicks": 232,
          "midi": 71,
          "name": "B4",
          "ticks": 159600,
          "time": 131.24972,
          "velocity": 0.5669291338582677
        },
        {
          "duration": 0.19078906666669582,
          "durationTicks": 232,
          "midi": 74,
          "name": "D5",
          "ticks": 159840,
          "time": 131.44708799999998,
          "velocity": 0.5669291338582677
        },
        {
          "duration": 0.1907890666666674,
          "durationTicks": 232,
          "midi": 67,
          "name": "G4",
          "ticks": 160080,
          "time": 131.644456,
          "velocity": 0.5669291338582677
        },
        {
          "duration": 0.1907890666666674,
          "durationTicks": 232,
          "midi": 71,
          "name": "B4",
          "ticks": 160320,
          "time": 131.841824,
          "velocity": 0.5669291338582677
        },
        {
          "duration": 0.1907890666666674,
          "durationTicks": 232,
          "midi": 67,
          "name": "G4",
          "ticks": 160560,
          "time": 132.03919199999999,
          "velocity": 0.5669291338582677
        },
        {
          "duration": 0.1907890666666674,
          "durationTicks": 232,
          "midi": 71,
          "name": "B4",
          "ticks": 160800,
          "time": 132.23656,
          "velocity": 0.5669291338582677
        },
        {
          "duration": 0.19078906666669582,
          "durationTicks": 232,
          "midi": 74,
          "name": "D5",
          "ticks": 161040,
          "time": 132.43392799999998,
          "velocity": 0.5669291338582677
        },
        {
          "duration": 0.1907890666666674,
          "durationTicks": 232,
          "midi": 67,
          "name": "G4",
          "ticks": 161280,
          "time": 132.631296,
          "velocity": 0.5669291338582677
        },
        {
          "duration": 0.1907890666666674,
          "durationTicks": 232,
          "midi": 71,
          "name": "B4",
          "ticks": 161520,
          "time": 132.828664,
          "velocity": 0.5669291338582677
        },
        {
          "duration": 0.1907890666666674,
          "durationTicks": 232,
          "midi": 67,
          "name": "G4",
          "ticks": 161760,
          "time": 133.026032,
          "velocity": 0.5669291338582677
        },
        {
          "duration": 0.1907890666666674,
          "durationTicks": 232,
          "midi": 71,
          "name": "B4",
          "ticks": 162000,
          "time": 133.2234,
          "velocity": 0.5669291338582677
        },
        {
          "duration": 0.19078906666669582,
          "durationTicks": 232,
          "midi": 74,
          "name": "D5",
          "ticks": 162240,
          "time": 133.42076799999998,
          "velocity": 0.5669291338582677
        },
        {
          "duration": 0.1907890666666674,
          "durationTicks": 232,
          "midi": 67,
          "name": "G4",
          "ticks": 162480,
          "time": 133.618136,
          "velocity": 0.5669291338582677
        },
        {
          "duration": 0.1907890666666674,
          "durationTicks": 232,
          "midi": 71,
          "name": "B4",
          "ticks": 162720,
          "time": 133.815504,
          "velocity": 0.5669291338582677
        },
        {
          "duration": 0.1907890666666674,
          "durationTicks": 232,
          "midi": 67,
          "name": "G4",
          "ticks": 162960,
          "time": 134.012872,
          "velocity": 0.5669291338582677
        },
        {
          "duration": 0.1907890666666674,
          "durationTicks": 232,
          "midi": 64,
          "name": "E4",
          "ticks": 163200,
          "time": 134.21024,
          "velocity": 0.5669291338582677
        },
        {
          "duration": 0.19078906666669582,
          "durationTicks": 232,
          "midi": 67,
          "name": "G4",
          "ticks": 163440,
          "time": 134.40760799999998,
          "velocity": 0.5669291338582677
        },
        {
          "duration": 0.1907890666666674,
          "durationTicks": 232,
          "midi": 71,
          "name": "B4",
          "ticks": 163680,
          "time": 134.604976,
          "velocity": 0.5669291338582677
        },
        {
          "duration": 0.1907890666666674,
          "durationTicks": 232,
          "midi": 67,
          "name": "G4",
          "ticks": 163920,
          "time": 134.802344,
          "velocity": 0.5669291338582677
        },
        {
          "duration": 0.1907890666666674,
          "durationTicks": 232,
          "midi": 71,
          "name": "B4",
          "ticks": 164160,
          "time": 134.999712,
          "velocity": 0.5669291338582677
        },
        {
          "duration": 0.1907890666666674,
          "durationTicks": 232,
          "midi": 64,
          "name": "E4",
          "ticks": 164400,
          "time": 135.19708,
          "velocity": 0.5669291338582677
        },
        {
          "duration": 0.1907890666666674,
          "durationTicks": 232,
          "midi": 71,
          "name": "B4",
          "ticks": 164640,
          "time": 135.39444799999998,
          "velocity": 0.5669291338582677
        },
        {
          "duration": 0.1907890666666674,
          "durationTicks": 232,
          "midi": 67,
          "name": "G4",
          "ticks": 164880,
          "time": 135.591816,
          "velocity": 0.5669291338582677
        },
        {
          "duration": 0.19078906666669582,
          "durationTicks": 232,
          "midi": 71,
          "name": "B4",
          "ticks": 165120,
          "time": 135.78918399999998,
          "velocity": 0.5669291338582677
        },
        {
          "duration": 0.1907890666666674,
          "durationTicks": 232,
          "midi": 64,
          "name": "E4",
          "ticks": 165360,
          "time": 135.986552,
          "velocity": 0.5669291338582677
        },
        {
          "duration": 0.1907890666666674,
          "durationTicks": 232,
          "midi": 71,
          "name": "B4",
          "ticks": 165600,
          "time": 136.18392,
          "velocity": 0.5669291338582677
        },
        {
          "duration": 0.1907890666666674,
          "durationTicks": 232,
          "midi": 67,
          "name": "G4",
          "ticks": 165840,
          "time": 136.38128799999998,
          "velocity": 0.5669291338582677
        },
        {
          "duration": 0.1907890666666674,
          "durationTicks": 232,
          "midi": 64,
          "name": "E4",
          "ticks": 166080,
          "time": 136.578656,
          "velocity": 0.5669291338582677
        },
        {
          "duration": 0.19078906666669582,
          "durationTicks": 232,
          "midi": 67,
          "name": "G4",
          "ticks": 166320,
          "time": 136.77602399999998,
          "velocity": 0.5669291338582677
        },
        {
          "duration": 0.1907890666666674,
          "durationTicks": 232,
          "midi": 71,
          "name": "B4",
          "ticks": 166560,
          "time": 136.973392,
          "velocity": 0.5669291338582677
        },
        {
          "duration": 0.1907890666666674,
          "durationTicks": 232,
          "midi": 64,
          "name": "E4",
          "ticks": 166800,
          "time": 137.17076,
          "velocity": 0.5669291338582677
        },
        {
          "duration": 0.1907890666666674,
          "durationTicks": 232,
          "midi": 67,
          "name": "G4",
          "ticks": 167040,
          "time": 137.36812799999998,
          "velocity": 0.5669291338582677
        },
        {
          "duration": 0.1907890666666674,
          "durationTicks": 232,
          "midi": 64,
          "name": "E4",
          "ticks": 167280,
          "time": 137.565496,
          "velocity": 0.5669291338582677
        },
        {
          "duration": 0.19078906666669582,
          "durationTicks": 232,
          "midi": 67,
          "name": "G4",
          "ticks": 167520,
          "time": 137.76286399999998,
          "velocity": 0.5669291338582677
        },
        {
          "duration": 0.1907890666666674,
          "durationTicks": 232,
          "midi": 71,
          "name": "B4",
          "ticks": 167760,
          "time": 137.960232,
          "velocity": 0.5669291338582677
        },
        {
          "duration": 0.1907890666666674,
          "durationTicks": 232,
          "midi": 64,
          "name": "E4",
          "ticks": 168000,
          "time": 138.1576,
          "velocity": 0.5669291338582677
        },
        {
          "duration": 0.1907890666666674,
          "durationTicks": 232,
          "midi": 67,
          "name": "G4",
          "ticks": 168240,
          "time": 138.35496799999999,
          "velocity": 0.5669291338582677
        },
        {
          "duration": 0.1907890666666674,
          "durationTicks": 232,
          "midi": 64,
          "name": "E4",
          "ticks": 168480,
          "time": 138.552336,
          "velocity": 0.5669291338582677
        },
        {
          "duration": 0.19078906666669582,
          "durationTicks": 232,
          "midi": 67,
          "name": "G4",
          "ticks": 168720,
          "time": 138.74970399999998,
          "velocity": 0.5669291338582677
        },
        {
          "duration": 0.1907890666666674,
          "durationTicks": 232,
          "midi": 71,
          "name": "B4",
          "ticks": 168960,
          "time": 138.947072,
          "velocity": 0.5669291338582677
        },
        {
          "duration": 0.1907890666666674,
          "durationTicks": 232,
          "midi": 64,
          "name": "E4",
          "ticks": 169200,
          "time": 139.14444,
          "velocity": 0.5669291338582677
        },
        {
          "duration": 0.1907890666666674,
          "durationTicks": 232,
          "midi": 67,
          "name": "G4",
          "ticks": 169440,
          "time": 139.341808,
          "velocity": 0.5669291338582677
        },
        {
          "duration": 0.1907890666666674,
          "durationTicks": 232,
          "midi": 71,
          "name": "B4",
          "ticks": 169680,
          "time": 139.539176,
          "velocity": 0.5669291338582677
        },
        {
          "duration": 0.19078906666669582,
          "durationTicks": 232,
          "midi": 67,
          "name": "G4",
          "ticks": 169920,
          "time": 139.73654399999998,
          "velocity": 0.5669291338582677
        },
        {
          "duration": 0.1907890666666674,
          "durationTicks": 232,
          "midi": 71,
          "name": "B4",
          "ticks": 170160,
          "time": 139.933912,
          "velocity": 0.5669291338582677
        },
        {
          "duration": 0.1907890666666674,
          "durationTicks": 232,
          "midi": 64,
          "name": "E4",
          "ticks": 170400,
          "time": 140.13128,
          "velocity": 0.5669291338582677
        },
        {
          "duration": 0.1907890666666674,
          "durationTicks": 232,
          "midi": 67,
          "name": "G4",
          "ticks": 170640,
          "time": 140.328648,
          "velocity": 0.5669291338582677
        },
        {
          "duration": 0.1907890666666674,
          "durationTicks": 232,
          "midi": 66,
          "name": "F#4",
          "ticks": 170880,
          "time": 140.526016,
          "velocity": 0.5669291338582677
        },
        {
          "duration": 0.19078906666669582,
          "durationTicks": 232,
          "midi": 69,
          "name": "A4",
          "ticks": 171120,
          "time": 140.72338399999998,
          "velocity": 0.5669291338582677
        },
        {
          "duration": 0.1907890666666674,
          "durationTicks": 232,
          "midi": 73,
          "name": "C#5",
          "ticks": 171360,
          "time": 140.920752,
          "velocity": 0.5669291338582677
        },
        {
          "duration": 0.1907890666666674,
          "durationTicks": 232,
          "midi": 66,
          "name": "F#4",
          "ticks": 171600,
          "time": 141.11812,
          "velocity": 0.5669291338582677
        },
        {
          "duration": 0.1907890666666674,
          "durationTicks": 232,
          "midi": 73,
          "name": "C#5",
          "ticks": 171840,
          "time": 141.315488,
          "velocity": 0.5669291338582677
        },
        {
          "duration": 0.1907890666666674,
          "durationTicks": 232,
          "midi": 66,
          "name": "F#4",
          "ticks": 172080,
          "time": 141.512856,
          "velocity": 0.5669291338582677
        },
        {
          "duration": 0.1907890666666674,
          "durationTicks": 232,
          "midi": 73,
          "name": "C#5",
          "ticks": 172320,
          "time": 141.71022399999998,
          "velocity": 0.5669291338582677
        },
        {
          "duration": 0.1907890666666674,
          "durationTicks": 232,
          "midi": 69,
          "name": "A4",
          "ticks": 172560,
          "time": 141.907592,
          "velocity": 0.5669291338582677
        },
        {
          "duration": 0.1907890666666674,
          "durationTicks": 232,
          "midi": 73,
          "name": "C#5",
          "ticks": 172800,
          "time": 142.10496,
          "velocity": 0.5669291338582677
        },
        {
          "duration": 0.1907890666666674,
          "durationTicks": 232,
          "midi": 66,
          "name": "F#4",
          "ticks": 173040,
          "time": 142.302328,
          "velocity": 0.5669291338582677
        },
        {
          "duration": 0.1907890666666674,
          "durationTicks": 232,
          "midi": 66,
          "name": "F#4",
          "ticks": 173280,
          "time": 142.499696,
          "velocity": 0.5669291338582677
        },
        {
          "duration": 0.1907890666666674,
          "durationTicks": 232,
          "midi": 69,
          "name": "A4",
          "ticks": 173520,
          "time": 142.69706399999998,
          "velocity": 0.5669291338582677
        },
        {
          "duration": 0.1907890666666674,
          "durationTicks": 232,
          "midi": 73,
          "name": "C#5",
          "ticks": 173760,
          "time": 142.894432,
          "velocity": 0.5669291338582677
        },
        {
          "duration": 0.19078906666669582,
          "durationTicks": 232,
          "midi": 66,
          "name": "F#4",
          "ticks": 174000,
          "time": 143.09179999999998,
          "velocity": 0.5669291338582677
        },
        {
          "duration": 0.1907890666666674,
          "durationTicks": 232,
          "midi": 69,
          "name": "A4",
          "ticks": 174240,
          "time": 143.289168,
          "velocity": 0.5669291338582677
        },
        {
          "duration": 0.1907890666666674,
          "durationTicks": 232,
          "midi": 73,
          "name": "C#5",
          "ticks": 174480,
          "time": 143.486536,
          "velocity": 0.5669291338582677
        },
        {
          "duration": 0.1907890666666674,
          "durationTicks": 232,
          "midi": 69,
          "name": "A4",
          "ticks": 174720,
          "time": 143.68390399999998,
          "velocity": 0.5669291338582677
        },
        {
          "duration": 0.1907890666666674,
          "durationTicks": 232,
          "midi": 73,
          "name": "C#5",
          "ticks": 174960,
          "time": 143.881272,
          "velocity": 0.5669291338582677
        },
        {
          "duration": 0.19078906666669582,
          "durationTicks": 232,
          "midi": 66,
          "name": "F#4",
          "ticks": 175200,
          "time": 144.07863999999998,
          "velocity": 0.5669291338582677
        },
        {
          "duration": 0.1907890666666674,
          "durationTicks": 232,
          "midi": 69,
          "name": "A4",
          "ticks": 175440,
          "time": 144.276008,
          "velocity": 0.5669291338582677
        },
        {
          "duration": 0.1907890666666674,
          "durationTicks": 232,
          "midi": 66,
          "name": "F#4",
          "ticks": 175680,
          "time": 144.473376,
          "velocity": 0.5669291338582677
        },
        {
          "duration": 0.1907890666666674,
          "durationTicks": 232,
          "midi": 69,
          "name": "A4",
          "ticks": 175920,
          "time": 144.67074399999998,
          "velocity": 0.5669291338582677
        },
        {
          "duration": 0.1907890666666674,
          "durationTicks": 232,
          "midi": 73,
          "name": "C#5",
          "ticks": 176160,
          "time": 144.868112,
          "velocity": 0.5669291338582677
        },
        {
          "duration": 0.19078906666669582,
          "durationTicks": 232,
          "midi": 66,
          "name": "F#4",
          "ticks": 176400,
          "time": 145.06547999999998,
          "velocity": 0.5669291338582677
        },
        {
          "duration": 0.1907890666666674,
          "durationTicks": 232,
          "midi": 69,
          "name": "A4",
          "ticks": 176640,
          "time": 145.262848,
          "velocity": 0.5669291338582677
        },
        {
          "duration": 0.1907890666666674,
          "durationTicks": 232,
          "midi": 73,
          "name": "C#5",
          "ticks": 176880,
          "time": 145.460216,
          "velocity": 0.5669291338582677
        },
        {
          "duration": 0.1907890666666674,
          "durationTicks": 232,
          "midi": 69,
          "name": "A4",
          "ticks": 177120,
          "time": 145.65758399999999,
          "velocity": 0.5669291338582677
        },
        {
          "duration": 0.1907890666666674,
          "durationTicks": 232,
          "midi": 73,
          "name": "C#5",
          "ticks": 177360,
          "time": 145.854952,
          "velocity": 0.5669291338582677
        },
        {
          "duration": 0.19078906666669582,
          "durationTicks": 232,
          "midi": 69,
          "name": "A4",
          "ticks": 177600,
          "time": 146.05231999999998,
          "velocity": 0.5669291338582677
        },
        {
          "duration": 0.1907890666666674,
          "durationTicks": 232,
          "midi": 73,
          "name": "C#5",
          "ticks": 177840,
          "time": 146.249688,
          "velocity": 0.5669291338582677
        },
        {
          "duration": 0.1907890666666674,
          "durationTicks": 232,
          "midi": 66,
          "name": "F#4",
          "ticks": 178080,
          "time": 146.447056,
          "velocity": 0.5669291338582677
        },
        {
          "duration": 0.1907890666666674,
          "durationTicks": 232,
          "midi": 69,
          "name": "A4",
          "ticks": 178320,
          "time": 146.644424,
          "velocity": 0.5669291338582677
        },
        {
          "duration": 0.1907890666666674,
          "durationTicks": 232,
          "midi": 66,
          "name": "F#4",
          "ticks": 178560,
          "time": 146.841792,
          "velocity": 0.5669291338582677
        },
        {
          "duration": 0.19078906666669582,
          "durationTicks": 232,
          "midi": 69,
          "name": "A4",
          "ticks": 178800,
          "time": 147.03915999999998,
          "velocity": 0.5669291338582677
        },
        {
          "duration": 0.1907890666666674,
          "durationTicks": 232,
          "midi": 73,
          "name": "C#5",
          "ticks": 179040,
          "time": 147.236528,
          "velocity": 0.5669291338582677
        },
        {
          "duration": 0.1907890666666674,
          "durationTicks": 232,
          "midi": 66,
          "name": "F#4",
          "ticks": 179280,
          "time": 147.433896,
          "velocity": 0.5669291338582677
        },
        {
          "duration": 0.1907890666666674,
          "durationTicks": 232,
          "midi": 69,
          "name": "A4",
          "ticks": 179520,
          "time": 147.631264,
          "velocity": 0.5669291338582677
        },
        {
          "duration": 0.1907890666666674,
          "durationTicks": 232,
          "midi": 73,
          "name": "C#5",
          "ticks": 179760,
          "time": 147.828632,
          "velocity": 0.5669291338582677
        },
        {
          "duration": 0.1907890666666674,
          "durationTicks": 232,
          "midi": 66,
          "name": "F#4",
          "ticks": 180000,
          "time": 148.02599999999998,
          "velocity": 0.5669291338582677
        },
        {
          "duration": 0.1907890666666674,
          "durationTicks": 232,
          "midi": 66,
          "name": "F#4",
          "ticks": 180240,
          "time": 148.223368,
          "velocity": 0.5669291338582677
        },
        {
          "duration": 0.19078906666669582,
          "durationTicks": 232,
          "midi": 66,
          "name": "F#4",
          "ticks": 180480,
          "time": 148.42073599999998,
          "velocity": 0.5669291338582677
        },
        {
          "duration": 0.1907890666666674,
          "durationTicks": 232,
          "midi": 69,
          "name": "A4",
          "ticks": 180720,
          "time": 148.618104,
          "velocity": 0.5669291338582677
        },
        {
          "duration": 0.1907890666666674,
          "durationTicks": 232,
          "midi": 73,
          "name": "C#5",
          "ticks": 180960,
          "time": 148.815472,
          "velocity": 0.5669291338582677
        },
        {
          "duration": 0.1907890666666674,
          "durationTicks": 232,
          "midi": 66,
          "name": "F#4",
          "ticks": 181200,
          "time": 149.01283999999998,
          "velocity": 0.5669291338582677
        },
        {
          "duration": 0.1907890666666674,
          "durationTicks": 232,
          "midi": 73,
          "name": "C#5",
          "ticks": 181440,
          "time": 149.210208,
          "velocity": 0.5669291338582677
        },
        {
          "duration": 0.19078906666669582,
          "durationTicks": 232,
          "midi": 66,
          "name": "F#4",
          "ticks": 181680,
          "time": 149.40757599999998,
          "velocity": 0.5669291338582677
        },
        {
          "duration": 0.1907890666666674,
          "durationTicks": 232,
          "midi": 69,
          "name": "A4",
          "ticks": 181920,
          "time": 149.604944,
          "velocity": 0.5669291338582677
        },
        {
          "duration": 0.1907890666666674,
          "durationTicks": 232,
          "midi": 73,
          "name": "C#5",
          "ticks": 182160,
          "time": 149.802312,
          "velocity": 0.5669291338582677
        },
        {
          "duration": 0.1907890666666674,
          "durationTicks": 232,
          "midi": 66,
          "name": "F#4",
          "ticks": 182400,
          "time": 149.99967999999998,
          "velocity": 0.5669291338582677
        },
        {
          "duration": 0.1907890666666674,
          "durationTicks": 232,
          "midi": 69,
          "name": "A4",
          "ticks": 182640,
          "time": 150.197048,
          "velocity": 0.5669291338582677
        },
        {
          "duration": 0.19078906666669582,
          "durationTicks": 232,
          "midi": 66,
          "name": "F#4",
          "ticks": 182880,
          "time": 150.39441599999998,
          "velocity": 0.5669291338582677
        },
        {
          "duration": 0.1907890666666674,
          "durationTicks": 232,
          "midi": 69,
          "name": "A4",
          "ticks": 183120,
          "time": 150.591784,
          "velocity": 0.5669291338582677
        },
        {
          "duration": 0.1907890666666674,
          "durationTicks": 232,
          "midi": 73,
          "name": "C#5",
          "ticks": 183360,
          "time": 150.789152,
          "velocity": 0.5669291338582677
        },
        {
          "duration": 0.1907890666666674,
          "durationTicks": 232,
          "midi": 66,
          "name": "F#4",
          "ticks": 183600,
          "time": 150.98651999999998,
          "velocity": 0.5669291338582677
        },
        {
          "duration": 0.1907890666666674,
          "durationTicks": 232,
          "midi": 66,
          "name": "F#4",
          "ticks": 183840,
          "time": 151.183888,
          "velocity": 0.5669291338582677
        },
        {
          "duration": 0.19078906666669582,
          "durationTicks": 232,
          "midi": 69,
          "name": "A4",
          "ticks": 184080,
          "time": 151.38125599999998,
          "velocity": 0.5669291338582677
        },
        {
          "duration": 0.1907890666666674,
          "durationTicks": 232,
          "midi": 69,
          "name": "A4",
          "ticks": 184320,
          "time": 151.578624,
          "velocity": 0.5669291338582677
        },
        {
          "duration": 0.1907890666666674,
          "durationTicks": 232,
          "midi": 73,
          "name": "C#5",
          "ticks": 184560,
          "time": 151.775992,
          "velocity": 0.5669291338582677
        },
        {
          "duration": 0.1907890666666674,
          "durationTicks": 232,
          "midi": 66,
          "name": "F#4",
          "ticks": 184800,
          "time": 151.97335999999999,
          "velocity": 0.5669291338582677
        },
        {
          "duration": 0.1907890666666674,
          "durationTicks": 232,
          "midi": 69,
          "name": "A4",
          "ticks": 185040,
          "time": 152.170728,
          "velocity": 0.5669291338582677
        },
        {
          "duration": 0.19078906666669582,
          "durationTicks": 232,
          "midi": 66,
          "name": "F#4",
          "ticks": 185280,
          "time": 152.36809599999998,
          "velocity": 0.5669291338582677
        },
        {
          "duration": 0.1907890666666674,
          "durationTicks": 232,
          "midi": 69,
          "name": "A4",
          "ticks": 185520,
          "time": 152.565464,
          "velocity": 0.5669291338582677
        },
        {
          "duration": 0.1907890666666674,
          "durationTicks": 232,
          "midi": 73,
          "name": "C#5",
          "ticks": 185760,
          "time": 152.762832,
          "velocity": 0.5669291338582677
        },
        {
          "duration": 0.1907890666666674,
          "durationTicks": 232,
          "midi": 66,
          "name": "F#4",
          "ticks": 186000,
          "time": 152.9602,
          "velocity": 0.5669291338582677
        },
        {
          "duration": 0.1907890666666674,
          "durationTicks": 232,
          "midi": 67,
          "name": "G4",
          "ticks": 186240,
          "time": 153.157568,
          "velocity": 0.5669291338582677
        },
        {
          "duration": 0.19078906666669582,
          "durationTicks": 232,
          "midi": 74,
          "name": "D5",
          "ticks": 186480,
          "time": 153.35493599999998,
          "velocity": 0.5669291338582677
        },
        {
          "duration": 0.1907890666666674,
          "durationTicks": 232,
          "midi": 67,
          "name": "G4",
          "ticks": 186720,
          "time": 153.552304,
          "velocity": 0.5669291338582677
        },
        {
          "duration": 0.1907890666666674,
          "durationTicks": 232,
          "midi": 74,
          "name": "D5",
          "ticks": 186960,
          "time": 153.749672,
          "velocity": 0.5669291338582677
        },
        {
          "duration": 0.1907890666666674,
          "durationTicks": 232,
          "midi": 67,
          "name": "G4",
          "ticks": 187200,
          "time": 153.94704,
          "velocity": 0.5669291338582677
        },
        {
          "duration": 0.1907890666666674,
          "durationTicks": 232,
          "midi": 71,
          "name": "B4",
          "ticks": 187440,
          "time": 154.144408,
          "velocity": 0.5669291338582677
        },
        {
          "duration": 0.1907890666666674,
          "durationTicks": 232,
          "midi": 67,
          "name": "G4",
          "ticks": 187680,
          "time": 154.34177599999998,
          "velocity": 0.5669291338582677
        },
        {
          "duration": 0.1907890666666674,
          "durationTicks": 232,
          "midi": 71,
          "name": "B4",
          "ticks": 187920,
          "time": 154.539144,
          "velocity": 0.5669291338582677
        },
        {
          "duration": 0.1907890666666674,
          "durationTicks": 232,
          "midi": 74,
          "name": "D5",
          "ticks": 188160,
          "time": 154.736512,
          "velocity": 0.5669291338582677
        },
        {
          "duration": 0.1907890666666674,
          "durationTicks": 232,
          "midi": 67,
          "name": "G4",
          "ticks": 188400,
          "time": 154.93388,
          "velocity": 0.5669291338582677
        },
        {
          "duration": 0.1907890666666674,
          "durationTicks": 232,
          "midi": 71,
          "name": "B4",
          "ticks": 188640,
          "time": 155.131248,
          "velocity": 0.5669291338582677
        },
        {
          "duration": 0.1907890666666674,
          "durationTicks": 232,
          "midi": 67,
          "name": "G4",
          "ticks": 188880,
          "time": 155.32861599999998,
          "velocity": 0.5669291338582677
        },
        {
          "duration": 0.1907890666666674,
          "durationTicks": 232,
          "midi": 71,
          "name": "B4",
          "ticks": 189120,
          "time": 155.525984,
          "velocity": 0.5669291338582677
        },
        {
          "duration": 0.19078906666669582,
          "durationTicks": 232,
          "midi": 74,
          "name": "D5",
          "ticks": 189360,
          "time": 155.72335199999998,
          "velocity": 0.5669291338582677
        },
        {
          "duration": 0.1907890666666674,
          "durationTicks": 232,
          "midi": 67,
          "name": "G4",
          "ticks": 189600,
          "time": 155.92072,
          "velocity": 0.5669291338582677
        },
        {
          "duration": 0.1907890666666674,
          "durationTicks": 232,
          "midi": 71,
          "name": "B4",
          "ticks": 189840,
          "time": 156.118088,
          "velocity": 0.5669291338582677
        },
        {
          "duration": 0.1907890666666674,
          "durationTicks": 232,
          "midi": 67,
          "name": "G4",
          "ticks": 190080,
          "time": 156.31545599999998,
          "velocity": 0.5669291338582677
        },
        {
          "duration": 0.1907890666666674,
          "durationTicks": 232,
          "midi": 71,
          "name": "B4",
          "ticks": 190320,
          "time": 156.512824,
          "velocity": 0.5669291338582677
        },
        {
          "duration": 0.19078906666669582,
          "durationTicks": 232,
          "midi": 74,
          "name": "D5",
          "ticks": 190560,
          "time": 156.71019199999998,
          "velocity": 0.5669291338582677
        },
        {
          "duration": 0.1907890666666674,
          "durationTicks": 232,
          "midi": 67,
          "name": "G4",
          "ticks": 190800,
          "time": 156.90756,
          "velocity": 0.5669291338582677
        },
        {
          "duration": 0.1907890666666674,
          "durationTicks": 232,
          "midi": 71,
          "name": "B4",
          "ticks": 191040,
          "time": 157.104928,
          "velocity": 0.5669291338582677
        },
        {
          "duration": 0.1907890666666674,
          "durationTicks": 232,
          "midi": 67,
          "name": "G4",
          "ticks": 191280,
          "time": 157.30229599999998,
          "velocity": 0.5669291338582677
        },
        {
          "duration": 0.1907890666666674,
          "durationTicks": 232,
          "midi": 71,
          "name": "B4",
          "ticks": 191520,
          "time": 157.499664,
          "velocity": 0.5669291338582677
        },
        {
          "duration": 0.19078906666669582,
          "durationTicks": 232,
          "midi": 74,
          "name": "D5",
          "ticks": 191760,
          "time": 157.69703199999998,
          "velocity": 0.5669291338582677
        },
        {
          "duration": 0.1907890666666674,
          "durationTicks": 232,
          "midi": 67,
          "name": "G4",
          "ticks": 192000,
          "time": 157.8944,
          "velocity": 0.5669291338582677
        },
        {
          "duration": 0.1907890666666674,
          "durationTicks": 232,
          "midi": 71,
          "name": "B4",
          "ticks": 192240,
          "time": 158.091768,
          "velocity": 0.5669291338582677
        },
        {
          "duration": 0.1907890666666674,
          "durationTicks": 232,
          "midi": 67,
          "name": "G4",
          "ticks": 192480,
          "time": 158.28913599999998,
          "velocity": 0.5669291338582677
        },
        {
          "duration": 0.1907890666666674,
          "durationTicks": 232,
          "midi": 71,
          "name": "B4",
          "ticks": 192720,
          "time": 158.486504,
          "velocity": 0.5669291338582677
        },
        {
          "duration": 0.19078906666669582,
          "durationTicks": 232,
          "midi": 74,
          "name": "D5",
          "ticks": 192960,
          "time": 158.68387199999998,
          "velocity": 0.5669291338582677
        },
        {
          "duration": 0.1907890666666674,
          "durationTicks": 232,
          "midi": 67,
          "name": "G4",
          "ticks": 193200,
          "time": 158.88124,
          "velocity": 0.5669291338582677
        },
        {
          "duration": 0.1907890666666674,
          "durationTicks": 232,
          "midi": 71,
          "name": "B4",
          "ticks": 193440,
          "time": 159.078608,
          "velocity": 0.5669291338582677
        },
        {
          "duration": 0.1907890666666674,
          "durationTicks": 232,
          "midi": 67,
          "name": "G4",
          "ticks": 193680,
          "time": 159.27597599999999,
          "velocity": 0.5669291338582677
        },
        {
          "duration": 0.1907890666666674,
          "durationTicks": 232,
          "midi": 64,
          "name": "E4",
          "ticks": 193920,
          "time": 159.473344,
          "velocity": 0.5669291338582677
        },
        {
          "duration": 0.19078906666669582,
          "durationTicks": 232,
          "midi": 67,
          "name": "G4",
          "ticks": 194160,
          "time": 159.67071199999998,
          "velocity": 0.5669291338582677
        },
        {
          "duration": 0.1907890666666674,
          "durationTicks": 232,
          "midi": 71,
          "name": "B4",
          "ticks": 194400,
          "time": 159.86808,
          "velocity": 0.5669291338582677
        },
        {
          "duration": 0.1907890666666674,
          "durationTicks": 232,
          "midi": 67,
          "name": "G4",
          "ticks": 194640,
          "time": 160.065448,
          "velocity": 0.5669291338582677
        },
        {
          "duration": 0.1907890666666674,
          "durationTicks": 232,
          "midi": 71,
          "name": "B4",
          "ticks": 194880,
          "time": 160.262816,
          "velocity": 0.5669291338582677
        },
        {
          "duration": 0.1907890666666674,
          "durationTicks": 232,
          "midi": 64,
          "name": "E4",
          "ticks": 195120,
          "time": 160.460184,
          "velocity": 0.5669291338582677
        },
        {
          "duration": 0.1907890666666674,
          "durationTicks": 232,
          "midi": 71,
          "name": "B4",
          "ticks": 195360,
          "time": 160.65755199999998,
          "velocity": 0.5669291338582677
        },
        {
          "duration": 0.1907890666666674,
          "durationTicks": 232,
          "midi": 67,
          "name": "G4",
          "ticks": 195600,
          "time": 160.85492,
          "velocity": 0.5669291338582677
        },
        {
          "duration": 0.19078906666669582,
          "durationTicks": 232,
          "midi": 71,
          "name": "B4",
          "ticks": 195840,
          "time": 161.05228799999998,
          "velocity": 0.5669291338582677
        },
        {
          "duration": 0.1907890666666674,
          "durationTicks": 232,
          "midi": 64,
          "name": "E4",
          "ticks": 196080,
          "time": 161.249656,
          "velocity": 0.5669291338582677
        },
        {
          "duration": 0.1907890666666674,
          "durationTicks": 232,
          "midi": 71,
          "name": "B4",
          "ticks": 196320,
          "time": 161.447024,
          "velocity": 0.5669291338582677
        },
        {
          "duration": 0.1907890666666674,
          "durationTicks": 232,
          "midi": 67,
          "name": "G4",
          "ticks": 196560,
          "time": 161.64439199999998,
          "velocity": 0.5669291338582677
        },
        {
          "duration": 0.1907890666666674,
          "durationTicks": 232,
          "midi": 64,
          "name": "E4",
          "ticks": 196800,
          "time": 161.84176,
          "velocity": 0.5669291338582677
        },
        {
          "duration": 0.19078906666669582,
          "durationTicks": 232,
          "midi": 67,
          "name": "G4",
          "ticks": 197040,
          "time": 162.03912799999998,
          "velocity": 0.5669291338582677
        },
        {
          "duration": 0.1907890666666674,
          "durationTicks": 232,
          "midi": 71,
          "name": "B4",
          "ticks": 197280,
          "time": 162.236496,
          "velocity": 0.5669291338582677
        },
        {
          "duration": 0.1907890666666674,
          "durationTicks": 232,
          "midi": 64,
          "name": "E4",
          "ticks": 197520,
          "time": 162.433864,
          "velocity": 0.5669291338582677
        },
        {
          "duration": 0.1907890666666674,
          "durationTicks": 232,
          "midi": 67,
          "name": "G4",
          "ticks": 197760,
          "time": 162.63123199999998,
          "velocity": 0.5669291338582677
        },
        {
          "duration": 0.1907890666666674,
          "durationTicks": 232,
          "midi": 64,
          "name": "E4",
          "ticks": 198000,
          "time": 162.8286,
          "velocity": 0.5669291338582677
        },
        {
          "duration": 0.19078906666669582,
          "durationTicks": 232,
          "midi": 67,
          "name": "G4",
          "ticks": 198240,
          "time": 163.02596799999998,
          "velocity": 0.5669291338582677
        },
        {
          "duration": 0.1907890666666674,
          "durationTicks": 232,
          "midi": 71,
          "name": "B4",
          "ticks": 198480,
          "time": 163.223336,
          "velocity": 0.5669291338582677
        },
        {
          "duration": 0.1907890666666674,
          "durationTicks": 232,
          "midi": 64,
          "name": "E4",
          "ticks": 198720,
          "time": 163.420704,
          "velocity": 0.5669291338582677
        },
        {
          "duration": 0.1907890666666674,
          "durationTicks": 232,
          "midi": 67,
          "name": "G4",
          "ticks": 198960,
          "time": 163.61807199999998,
          "velocity": 0.5669291338582677
        },
        {
          "duration": 0.1907890666666674,
          "durationTicks": 232,
          "midi": 64,
          "name": "E4",
          "ticks": 199200,
          "time": 163.81544,
          "velocity": 0.5669291338582677
        },
        {
          "duration": 0.19078906666669582,
          "durationTicks": 232,
          "midi": 67,
          "name": "G4",
          "ticks": 199440,
          "time": 164.01280799999998,
          "velocity": 0.5669291338582677
        },
        {
          "duration": 0.1907890666666674,
          "durationTicks": 232,
          "midi": 71,
          "name": "B4",
          "ticks": 199680,
          "time": 164.210176,
          "velocity": 0.5669291338582677
        },
        {
          "duration": 0.1907890666666674,
          "durationTicks": 232,
          "midi": 64,
          "name": "E4",
          "ticks": 199920,
          "time": 164.407544,
          "velocity": 0.5669291338582677
        },
        {
          "duration": 0.1907890666666674,
          "durationTicks": 232,
          "midi": 67,
          "name": "G4",
          "ticks": 200160,
          "time": 164.60491199999998,
          "velocity": 0.5669291338582677
        },
        {
          "duration": 0.1907890666666674,
          "durationTicks": 232,
          "midi": 71,
          "name": "B4",
          "ticks": 200400,
          "time": 164.80228,
          "velocity": 0.5669291338582677
        },
        {
          "duration": 0.19078906666669582,
          "durationTicks": 232,
          "midi": 67,
          "name": "G4",
          "ticks": 200640,
          "time": 164.99964799999998,
          "velocity": 0.5669291338582677
        },
        {
          "duration": 0.1907890666666674,
          "durationTicks": 232,
          "midi": 71,
          "name": "B4",
          "ticks": 200880,
          "time": 165.197016,
          "velocity": 0.5669291338582677
        },
        {
          "duration": 0.1907890666666674,
          "durationTicks": 232,
          "midi": 64,
          "name": "E4",
          "ticks": 201120,
          "time": 165.394384,
          "velocity": 0.5669291338582677
        },
        {
          "duration": 0.1907890666666674,
          "durationTicks": 232,
          "midi": 67,
          "name": "G4",
          "ticks": 201360,
          "time": 165.59175199999999,
          "velocity": 0.5669291338582677
        },
        {
          "duration": 0.1907890666666674,
          "durationTicks": 232,
          "midi": 66,
          "name": "F#4",
          "ticks": 201600,
          "time": 165.78912,
          "velocity": 0.5669291338582677
        },
        {
          "duration": 0.19078906666669582,
          "durationTicks": 232,
          "midi": 69,
          "name": "A4",
          "ticks": 201840,
          "time": 165.98648799999998,
          "velocity": 0.5669291338582677
        },
        {
          "duration": 0.1907890666666674,
          "durationTicks": 232,
          "midi": 73,
          "name": "C#5",
          "ticks": 202080,
          "time": 166.183856,
          "velocity": 0.5669291338582677
        },
        {
          "duration": 0.1907890666666674,
          "durationTicks": 232,
          "midi": 66,
          "name": "F#4",
          "ticks": 202320,
          "time": 166.381224,
          "velocity": 0.5669291338582677
        },
        {
          "duration": 0.1907890666666674,
          "durationTicks": 232,
          "midi": 73,
          "name": "C#5",
          "ticks": 202560,
          "time": 166.578592,
          "velocity": 0.5669291338582677
        },
        {
          "duration": 0.1907890666666674,
          "durationTicks": 232,
          "midi": 66,
          "name": "F#4",
          "ticks": 202800,
          "time": 166.77596,
          "velocity": 0.5669291338582677
        },
        {
          "duration": 0.1907890666666674,
          "durationTicks": 232,
          "midi": 73,
          "name": "C#5",
          "ticks": 203040,
          "time": 166.97332799999998,
          "velocity": 0.5669291338582677
        },
        {
          "duration": 0.1907890666666674,
          "durationTicks": 232,
          "midi": 69,
          "name": "A4",
          "ticks": 203280,
          "time": 167.170696,
          "velocity": 0.5669291338582677
        },
        {
          "duration": 0.1907890666666674,
          "durationTicks": 232,
          "midi": 73,
          "name": "C#5",
          "ticks": 203520,
          "time": 167.368064,
          "velocity": 0.5669291338582677
        },
        {
          "duration": 0.1907890666666674,
          "durationTicks": 232,
          "midi": 66,
          "name": "F#4",
          "ticks": 203760,
          "time": 167.565432,
          "velocity": 0.5669291338582677
        },
        {
          "duration": 0.1907890666666674,
          "durationTicks": 232,
          "midi": 66,
          "name": "F#4",
          "ticks": 204000,
          "time": 167.7628,
          "velocity": 0.5669291338582677
        },
        {
          "duration": 0.1907890666666674,
          "durationTicks": 232,
          "midi": 69,
          "name": "A4",
          "ticks": 204240,
          "time": 167.96016799999998,
          "velocity": 0.5669291338582677
        },
        {
          "duration": 0.1907890666666674,
          "durationTicks": 232,
          "midi": 73,
          "name": "C#5",
          "ticks": 204480,
          "time": 168.157536,
          "velocity": 0.5669291338582677
        },
        {
          "duration": 0.19078906666669582,
          "durationTicks": 232,
          "midi": 66,
          "name": "F#4",
          "ticks": 204720,
          "time": 168.35490399999998,
          "velocity": 0.5669291338582677
        },
        {
          "duration": 0.1907890666666674,
          "durationTicks": 232,
          "midi": 69,
          "name": "A4",
          "ticks": 204960,
          "time": 168.552272,
          "velocity": 0.5669291338582677
        },
        {
          "duration": 0.1907890666666674,
          "durationTicks": 232,
          "midi": 73,
          "name": "C#5",
          "ticks": 205200,
          "time": 168.74964,
          "velocity": 0.5669291338582677
        },
        {
          "duration": 0.1907890666666674,
          "durationTicks": 232,
          "midi": 69,
          "name": "A4",
          "ticks": 205440,
          "time": 168.94700799999998,
          "velocity": 0.5669291338582677
        },
        {
          "duration": 0.1907890666666674,
          "durationTicks": 232,
          "midi": 73,
          "name": "C#5",
          "ticks": 205680,
          "time": 169.144376,
          "velocity": 0.5669291338582677
        },
        {
          "duration": 0.19078906666669582,
          "durationTicks": 232,
          "midi": 66,
          "name": "F#4",
          "ticks": 205920,
          "time": 169.34174399999998,
          "velocity": 0.5669291338582677
        },
        {
          "duration": 0.1907890666666674,
          "durationTicks": 232,
          "midi": 69,
          "name": "A4",
          "ticks": 206160,
          "time": 169.539112,
          "velocity": 0.5669291338582677
        },
        {
          "duration": 0.1907890666666674,
          "durationTicks": 232,
          "midi": 66,
          "name": "F#4",
          "ticks": 206400,
          "time": 169.73648,
          "velocity": 0.5669291338582677
        },
        {
          "duration": 0.1907890666666674,
          "durationTicks": 232,
          "midi": 69,
          "name": "A4",
          "ticks": 206640,
          "time": 169.93384799999998,
          "velocity": 0.5669291338582677
        },
        {
          "duration": 0.1907890666666674,
          "durationTicks": 232,
          "midi": 73,
          "name": "C#5",
          "ticks": 206880,
          "time": 170.131216,
          "velocity": 0.5669291338582677
        },
        {
          "duration": 0.19078906666669582,
          "durationTicks": 232,
          "midi": 66,
          "name": "F#4",
          "ticks": 207120,
          "time": 170.32858399999998,
          "velocity": 0.5669291338582677
        },
        {
          "duration": 0.1907890666666674,
          "durationTicks": 232,
          "midi": 69,
          "name": "A4",
          "ticks": 207360,
          "time": 170.525952,
          "velocity": 0.5669291338582677
        },
        {
          "duration": 0.1907890666666674,
          "durationTicks": 232,
          "midi": 73,
          "name": "C#5",
          "ticks": 207600,
          "time": 170.72332,
          "velocity": 0.5669291338582677
        },
        {
          "duration": 0.1907890666666674,
          "durationTicks": 232,
          "midi": 69,
          "name": "A4",
          "ticks": 207840,
          "time": 170.92068799999998,
          "velocity": 0.5669291338582677
        },
        {
          "duration": 0.1907890666666674,
          "durationTicks": 232,
          "midi": 73,
          "name": "C#5",
          "ticks": 208080,
          "time": 171.118056,
          "velocity": 0.5669291338582677
        },
        {
          "duration": 0.19078906666669582,
          "durationTicks": 232,
          "midi": 69,
          "name": "A4",
          "ticks": 208320,
          "time": 171.31542399999998,
          "velocity": 0.5669291338582677
        },
        {
          "duration": 0.1907890666666674,
          "durationTicks": 232,
          "midi": 73,
          "name": "C#5",
          "ticks": 208560,
          "time": 171.512792,
          "velocity": 0.5669291338582677
        },
        {
          "duration": 0.1907890666666674,
          "durationTicks": 232,
          "midi": 66,
          "name": "F#4",
          "ticks": 208800,
          "time": 171.71016,
          "velocity": 0.5669291338582677
        },
        {
          "duration": 0.1907890666666674,
          "durationTicks": 232,
          "midi": 69,
          "name": "A4",
          "ticks": 209040,
          "time": 171.90752799999999,
          "velocity": 0.5669291338582677
        },
        {
          "duration": 0.1907890666666674,
          "durationTicks": 232,
          "midi": 66,
          "name": "F#4",
          "ticks": 209280,
          "time": 172.104896,
          "velocity": 0.5669291338582677
        },
        {
          "duration": 0.19078906666669582,
          "durationTicks": 232,
          "midi": 69,
          "name": "A4",
          "ticks": 209520,
          "time": 172.30226399999998,
          "velocity": 0.5669291338582677
        },
        {
          "duration": 0.1907890666666674,
          "durationTicks": 232,
          "midi": 73,
          "name": "C#5",
          "ticks": 209760,
          "time": 172.499632,
          "velocity": 0.5669291338582677
        },
        {
          "duration": 0.1907890666666674,
          "durationTicks": 232,
          "midi": 66,
          "name": "F#4",
          "ticks": 210000,
          "time": 172.697,
          "velocity": 0.5669291338582677
        },
        {
          "duration": 0.1907890666666674,
          "durationTicks": 232,
          "midi": 69,
          "name": "A4",
          "ticks": 210240,
          "time": 172.894368,
          "velocity": 0.5669291338582677
        },
        {
          "duration": 0.1907890666666674,
          "durationTicks": 232,
          "midi": 73,
          "name": "C#5",
          "ticks": 210480,
          "time": 173.091736,
          "velocity": 0.5669291338582677
        },
        {
          "duration": 0.1907890666666674,
          "durationTicks": 232,
          "midi": 66,
          "name": "F#4",
          "ticks": 210720,
          "time": 173.28910399999998,
          "velocity": 0.5669291338582677
        },
        {
          "duration": 0.1907890666666674,
          "durationTicks": 232,
          "midi": 66,
          "name": "F#4",
          "ticks": 210960,
          "time": 173.486472,
          "velocity": 0.5669291338582677
        },
        {
          "duration": 0.19078906666669582,
          "durationTicks": 232,
          "midi": 66,
          "name": "F#4",
          "ticks": 211200,
          "time": 173.68383999999998,
          "velocity": 0.5669291338582677
        },
        {
          "duration": 0.1907890666666674,
          "durationTicks": 232,
          "midi": 69,
          "name": "A4",
          "ticks": 211440,
          "time": 173.881208,
          "velocity": 0.5669291338582677
        },
        {
          "duration": 0.1907890666666674,
          "durationTicks": 232,
          "midi": 73,
          "name": "C#5",
          "ticks": 211680,
          "time": 174.078576,
          "velocity": 0.5669291338582677
        },
        {
          "duration": 0.1907890666666674,
          "durationTicks": 232,
          "midi": 66,
          "name": "F#4",
          "ticks": 211920,
          "time": 174.27594399999998,
          "velocity": 0.5669291338582677
        },
        {
          "duration": 0.1907890666666674,
          "durationTicks": 232,
          "midi": 73,
          "name": "C#5",
          "ticks": 212160,
          "time": 174.473312,
          "velocity": 0.5669291338582677
        },
        {
          "duration": 0.19078906666669582,
          "durationTicks": 232,
          "midi": 66,
          "name": "F#4",
          "ticks": 212400,
          "time": 174.67067999999998,
          "velocity": 0.5669291338582677
        },
        {
          "duration": 0.1907890666666674,
          "durationTicks": 232,
          "midi": 69,
          "name": "A4",
          "ticks": 212640,
          "time": 174.868048,
          "velocity": 0.5669291338582677
        },
        {
          "duration": 0.1907890666666674,
          "durationTicks": 232,
          "midi": 73,
          "name": "C#5",
          "ticks": 212880,
          "time": 175.065416,
          "velocity": 0.5669291338582677
        },
        {
          "duration": 0.1907890666666674,
          "durationTicks": 232,
          "midi": 66,
          "name": "F#4",
          "ticks": 213120,
          "time": 175.26278399999998,
          "velocity": 0.5669291338582677
        },
        {
          "duration": 0.1907890666666674,
          "durationTicks": 232,
          "midi": 69,
          "name": "A4",
          "ticks": 213360,
          "time": 175.460152,
          "velocity": 0.5669291338582677
        },
        {
          "duration": 0.19078906666669582,
          "durationTicks": 232,
          "midi": 66,
          "name": "F#4",
          "ticks": 213600,
          "time": 175.65751999999998,
          "velocity": 0.5669291338582677
        },
        {
          "duration": 0.1907890666666674,
          "durationTicks": 232,
          "midi": 69,
          "name": "A4",
          "ticks": 213840,
          "time": 175.854888,
          "velocity": 0.5669291338582677
        },
        {
          "duration": 0.1907890666666674,
          "durationTicks": 232,
          "midi": 73,
          "name": "C#5",
          "ticks": 214080,
          "time": 176.052256,
          "velocity": 0.5669291338582677
        },
        {
          "duration": 0.1907890666666674,
          "durationTicks": 232,
          "midi": 66,
          "name": "F#4",
          "ticks": 214320,
          "time": 176.24962399999998,
          "velocity": 0.5669291338582677
        },
        {
          "duration": 0.1907890666666674,
          "durationTicks": 232,
          "midi": 66,
          "name": "F#4",
          "ticks": 214560,
          "time": 176.446992,
          "velocity": 0.5669291338582677
        },
        {
          "duration": 0.19078906666669582,
          "durationTicks": 232,
          "midi": 69,
          "name": "A4",
          "ticks": 214800,
          "time": 176.64435999999998,
          "velocity": 0.5669291338582677
        },
        {
          "duration": 0.1907890666666674,
          "durationTicks": 232,
          "midi": 69,
          "name": "A4",
          "ticks": 215040,
          "time": 176.841728,
          "velocity": 0.5669291338582677
        },
        {
          "duration": 0.1907890666666674,
          "durationTicks": 232,
          "midi": 73,
          "name": "C#5",
          "ticks": 215280,
          "time": 177.039096,
          "velocity": 0.5669291338582677
        },
        {
          "duration": 0.1907890666666674,
          "durationTicks": 232,
          "midi": 66,
          "name": "F#4",
          "ticks": 215520,
          "time": 177.23646399999998,
          "velocity": 0.5669291338582677
        },
        {
          "duration": 0.1907890666666674,
          "durationTicks": 232,
          "midi": 69,
          "name": "A4",
          "ticks": 215760,
          "time": 177.433832,
          "velocity": 0.5669291338582677
        },
        {
          "duration": 0.19078906666669582,
          "durationTicks": 232,
          "midi": 66,
          "name": "F#4",
          "ticks": 216000,
          "time": 177.63119999999998,
          "velocity": 0.5669291338582677
        },
        {
          "duration": 0.1907890666666674,
          "durationTicks": 232,
          "midi": 69,
          "name": "A4",
          "ticks": 216240,
          "time": 177.828568,
          "velocity": 0.5669291338582677
        },
        {
          "duration": 0.1907890666666674,
          "durationTicks": 232,
          "midi": 73,
          "name": "C#5",
          "ticks": 216480,
          "time": 178.025936,
          "velocity": 0.5669291338582677
        },
        {
          "duration": 0.1907890666666674,
          "durationTicks": 232,
          "midi": 66,
          "name": "F#4",
          "ticks": 216720,
          "time": 178.22330399999998,
          "velocity": 0.5669291338582677
        },
        {
          "duration": 0.1907890666666674,
          "durationTicks": 232,
          "midi": 67,
          "name": "G4",
          "ticks": 216960,
          "time": 178.420672,
          "velocity": 0.5669291338582677
        },
        {
          "duration": 0.19078906666669582,
          "durationTicks": 232,
          "midi": 74,
          "name": "D5",
          "ticks": 217200,
          "time": 178.61803999999998,
          "velocity": 0.5669291338582677
        },
        {
          "duration": 0.1907890666666674,
          "durationTicks": 232,
          "midi": 67,
          "name": "G4",
          "ticks": 217440,
          "time": 178.815408,
          "velocity": 0.5669291338582677
        },
        {
          "duration": 0.1907890666666674,
          "durationTicks": 232,
          "midi": 74,
          "name": "D5",
          "ticks": 217680,
          "time": 179.012776,
          "velocity": 0.5669291338582677
        },
        {
          "duration": 0.1907890666666674,
          "durationTicks": 232,
          "midi": 67,
          "name": "G4",
          "ticks": 217920,
          "time": 179.21014399999999,
          "velocity": 0.5669291338582677
        },
        {
          "duration": 0.1907890666666674,
          "durationTicks": 232,
          "midi": 71,
          "name": "B4",
          "ticks": 218160,
          "time": 179.407512,
          "velocity": 0.5669291338582677
        },
        {
          "duration": 0.1907890666666674,
          "durationTicks": 232,
          "midi": 67,
          "name": "G4",
          "ticks": 218400,
          "time": 179.60487999999998,
          "velocity": 0.5669291338582677
        },
        {
          "duration": 0.1907890666666674,
          "durationTicks": 232,
          "midi": 71,
          "name": "B4",
          "ticks": 218640,
          "time": 179.802248,
          "velocity": 0.5669291338582677
        },
        {
          "duration": 0.1907890666666674,
          "durationTicks": 232,
          "midi": 74,
          "name": "D5",
          "ticks": 218880,
          "time": 179.999616,
          "velocity": 0.5669291338582677
        },
        {
          "duration": 0.1907890666666674,
          "durationTicks": 232,
          "midi": 67,
          "name": "G4",
          "ticks": 219120,
          "time": 180.196984,
          "velocity": 0.5669291338582677
        },
        {
          "duration": 0.1907890666666674,
          "durationTicks": 232,
          "midi": 71,
          "name": "B4",
          "ticks": 219360,
          "time": 180.394352,
          "velocity": 0.5669291338582677
        },
        {
          "duration": 0.1907890666666674,
          "durationTicks": 232,
          "midi": 67,
          "name": "G4",
          "ticks": 219600,
          "time": 180.59171999999998,
          "velocity": 0.5669291338582677
        },
        {
          "duration": 0.1907890666666674,
          "durationTicks": 232,
          "midi": 71,
          "name": "B4",
          "ticks": 219840,
          "time": 180.789088,
          "velocity": 0.5669291338582677
        },
        {
          "duration": 0.19078906666669582,
          "durationTicks": 232,
          "midi": 74,
          "name": "D5",
          "ticks": 220080,
          "time": 180.98645599999998,
          "velocity": 0.5669291338582677
        },
        {
          "duration": 0.1907890666666674,
          "durationTicks": 232,
          "midi": 67,
          "name": "G4",
          "ticks": 220320,
          "time": 181.183824,
          "velocity": 0.5669291338582677
        },
        {
          "duration": 0.1907890666666674,
          "durationTicks": 232,
          "midi": 71,
          "name": "B4",
          "ticks": 220560,
          "time": 181.381192,
          "velocity": 0.5669291338582677
        },
        {
          "duration": 0.1907890666666674,
          "durationTicks": 232,
          "midi": 67,
          "name": "G4",
          "ticks": 220800,
          "time": 181.57855999999998,
          "velocity": 0.5669291338582677
        },
        {
          "duration": 0.1907890666666674,
          "durationTicks": 232,
          "midi": 71,
          "name": "B4",
          "ticks": 221040,
          "time": 181.775928,
          "velocity": 0.5669291338582677
        },
        {
          "duration": 0.19078906666669582,
          "durationTicks": 232,
          "midi": 74,
          "name": "D5",
          "ticks": 221280,
          "time": 181.97329599999998,
          "velocity": 0.5669291338582677
        },
        {
          "duration": 0.1907890666666674,
          "durationTicks": 232,
          "midi": 67,
          "name": "G4",
          "ticks": 221520,
          "time": 182.170664,
          "velocity": 0.5669291338582677
        },
        {
          "duration": 0.1907890666666674,
          "durationTicks": 232,
          "midi": 71,
          "name": "B4",
          "ticks": 221760,
          "time": 182.368032,
          "velocity": 0.5669291338582677
        },
        {
          "duration": 0.1907890666666674,
          "durationTicks": 232,
          "midi": 67,
          "name": "G4",
          "ticks": 222000,
          "time": 182.56539999999998,
          "velocity": 0.5669291338582677
        },
        {
          "duration": 0.1907890666666674,
          "durationTicks": 232,
          "midi": 71,
          "name": "B4",
          "ticks": 222240,
          "time": 182.762768,
          "velocity": 0.5669291338582677
        },
        {
          "duration": 0.19078906666669582,
          "durationTicks": 232,
          "midi": 74,
          "name": "D5",
          "ticks": 222480,
          "time": 182.96013599999998,
          "velocity": 0.5669291338582677
        },
        {
          "duration": 0.1907890666666674,
          "durationTicks": 232,
          "midi": 67,
          "name": "G4",
          "ticks": 222720,
          "time": 183.157504,
          "velocity": 0.5669291338582677
        },
        {
          "duration": 0.1907890666666674,
          "durationTicks": 232,
          "midi": 71,
          "name": "B4",
          "ticks": 222960,
          "time": 183.354872,
          "velocity": 0.5669291338582677
        },
        {
          "duration": 0.1907890666666674,
          "durationTicks": 232,
          "midi": 67,
          "name": "G4",
          "ticks": 223200,
          "time": 183.55223999999998,
          "velocity": 0.5669291338582677
        },
        {
          "duration": 0.1907890666666674,
          "durationTicks": 232,
          "midi": 71,
          "name": "B4",
          "ticks": 223440,
          "time": 183.749608,
          "velocity": 0.5669291338582677
        },
        {
          "duration": 0.19078906666669582,
          "durationTicks": 232,
          "midi": 74,
          "name": "D5",
          "ticks": 223680,
          "time": 183.94697599999998,
          "velocity": 0.5669291338582677
        },
        {
          "duration": 0.1907890666666674,
          "durationTicks": 232,
          "midi": 67,
          "name": "G4",
          "ticks": 223920,
          "time": 184.144344,
          "velocity": 0.5669291338582677
        },
        {
          "duration": 0.1907890666666674,
          "durationTicks": 232,
          "midi": 71,
          "name": "B4",
          "ticks": 224160,
          "time": 184.341712,
          "velocity": 0.5669291338582677
        },
        {
          "duration": 0.1907890666666674,
          "durationTicks": 232,
          "midi": 67,
          "name": "G4",
          "ticks": 224400,
          "time": 184.53907999999998,
          "velocity": 0.5669291338582677
        }
      ]
    },
    {
      "channel": 0,
      "controlChanges": {
        "6": [
          {
            "number": 6,
            "ticks": 540,
            "time": 0.444078,
            "value": 0.09448818897637795
          }
        ],
        "38": [
          {
            "number": 38,
            "ticks": 540,
            "time": 0.444078,
            "value": 0
          }
        ],
        "100": [
          {
            "number": 100,
            "ticks": 540,
            "time": 0.444078,
            "value": 0
          }
        ],
        "101": [
          {
            "number": 101,
            "ticks": 540,
            "time": 0.444078,
            "value": 0
          }
        ],
        "121": [
          {
            "number": 121,
            "ticks": 540,
            "time": 0.444078,
            "value": 0
          }
        ],
        "123": [
          {
            "number": 123,
            "ticks": 540,
            "time": 0.444078,
            "value": 0
          }
        ]
      },
      "pitchBends": [
        {
          "ticks": 540,
          "time": 0.444078,
          "value": 0
        }
      ],
      "instrument": {
        "family": "piano",
        "number": 0,
        "name": "acoustic grand piano"
      },
      "name": "Harmony Guitar 1",
      "notes": [],
      "endOfTrackTicks": 224632
    },
    {
      "channel": 4,
      "controlChanges": {
        "7": [
          {
            "number": 7,
            "ticks": 600,
            "time": 0.49341999999999997,
            "value": 0.6141732283464567
          }
        ],
        "10": [
          {
            "number": 10,
            "ticks": 600,
            "time": 0.49341999999999997,
            "value": 0.6771653543307087
          }
        ]
      },
      "pitchBends": [],
      "instrument": {
        "family": "guitar",
        "number": 27,
        "name": "electric guitar (clean)"
      },
      "name": "",
      "notes": [
        {
          "duration": 0.1907890666666674,
          "durationTicks": 232,
          "midi": 67,
          "name": "G4",
          "ticks": 163200,
          "time": 134.21024,
          "velocity": 0.5196850393700787
        },
        {
          "duration": 0.19078906666669582,
          "durationTicks": 232,
          "midi": 71,
          "name": "B4",
          "ticks": 163440,
          "time": 134.40760799999998,
          "velocity": 0.5196850393700787
        },
        {
          "duration": 0.1907890666666674,
          "durationTicks": 232,
          "midi": 67,
          "name": "G4",
          "ticks": 163680,
          "time": 134.604976,
          "velocity": 0.5196850393700787
        },
        {
          "duration": 0.1907890666666674,
          "durationTicks": 232,
          "midi": 71,
          "name": "B4",
          "ticks": 163920,
          "time": 134.802344,
          "velocity": 0.5196850393700787
        },
        {
          "duration": 0.1907890666666674,
          "durationTicks": 232,
          "midi": 74,
          "name": "D5",
          "ticks": 164160,
          "time": 134.999712,
          "velocity": 0.5196850393700787
        },
        {
          "duration": 0.1907890666666674,
          "durationTicks": 232,
          "midi": 67,
          "name": "G4",
          "ticks": 164400,
          "time": 135.19708,
          "velocity": 0.5196850393700787
        },
        {
          "duration": 0.1907890666666674,
          "durationTicks": 232,
          "midi": 71,
          "name": "B4",
          "ticks": 164640,
          "time": 135.39444799999998,
          "velocity": 0.5196850393700787
        },
        {
          "duration": 0.1907890666666674,
          "durationTicks": 232,
          "midi": 67,
          "name": "G4",
          "ticks": 164880,
          "time": 135.591816,
          "velocity": 0.5196850393700787
        },
        {
          "duration": 0.19078906666669582,
          "durationTicks": 232,
          "midi": 67,
          "name": "G4",
          "ticks": 165120,
          "time": 135.78918399999998,
          "velocity": 0.5196850393700787
        },
        {
          "duration": 0.1907890666666674,
          "durationTicks": 232,
          "midi": 71,
          "name": "B4",
          "ticks": 165360,
          "time": 135.986552,
          "velocity": 0.5196850393700787
        },
        {
          "duration": 0.1907890666666674,
          "durationTicks": 232,
          "midi": 74,
          "name": "D5",
          "ticks": 165600,
          "time": 136.18392,
          "velocity": 0.5196850393700787
        },
        {
          "duration": 0.1907890666666674,
          "durationTicks": 232,
          "midi": 67,
          "name": "G4",
          "ticks": 165840,
          "time": 136.38128799999998,
          "velocity": 0.5196850393700787
        },
        {
          "duration": 0.1907890666666674,
          "durationTicks": 232,
          "midi": 71,
          "name": "B4",
          "ticks": 166080,
          "time": 136.578656,
          "velocity": 0.5196850393700787
        },
        {
          "duration": 0.19078906666669582,
          "durationTicks": 232,
          "midi": 67,
          "name": "G4",
          "ticks": 166320,
          "time": 136.77602399999998,
          "velocity": 0.5196850393700787
        },
        {
          "duration": 0.1907890666666674,
          "durationTicks": 232,
          "midi": 71,
          "name": "B4",
          "ticks": 166560,
          "time": 136.973392,
          "velocity": 0.5196850393700787
        },
        {
          "duration": 0.1907890666666674,
          "durationTicks": 232,
          "midi": 74,
          "name": "D5",
          "ticks": 166800,
          "time": 137.17076,
          "velocity": 0.5196850393700787
        },
        {
          "duration": 0.1907890666666674,
          "durationTicks": 232,
          "midi": 67,
          "name": "G4",
          "ticks": 167040,
          "time": 137.36812799999998,
          "velocity": 0.5196850393700787
        },
        {
          "duration": 0.1907890666666674,
          "durationTicks": 232,
          "midi": 71,
          "name": "B4",
          "ticks": 167280,
          "time": 137.565496,
          "velocity": 0.5196850393700787
        },
        {
          "duration": 0.19078906666669582,
          "durationTicks": 232,
          "midi": 67,
          "name": "G4",
          "ticks": 167520,
          "time": 137.76286399999998,
          "velocity": 0.5196850393700787
        },
        {
          "duration": 0.1907890666666674,
          "durationTicks": 232,
          "midi": 71,
          "name": "B4",
          "ticks": 167760,
          "time": 137.960232,
          "velocity": 0.5196850393700787
        },
        {
          "duration": 0.1907890666666674,
          "durationTicks": 232,
          "midi": 74,
          "name": "D5",
          "ticks": 168000,
          "time": 138.1576,
          "velocity": 0.5196850393700787
        },
        {
          "duration": 0.1907890666666674,
          "durationTicks": 232,
          "midi": 67,
          "name": "G4",
          "ticks": 168240,
          "time": 138.35496799999999,
          "velocity": 0.5196850393700787
        },
        {
          "duration": 0.1907890666666674,
          "durationTicks": 232,
          "midi": 71,
          "name": "B4",
          "ticks": 168480,
          "time": 138.552336,
          "velocity": 0.5196850393700787
        },
        {
          "duration": 0.19078906666669582,
          "durationTicks": 232,
          "midi": 67,
          "name": "G4",
          "ticks": 168720,
          "time": 138.74970399999998,
          "velocity": 0.5196850393700787
        },
        {
          "duration": 0.1907890666666674,
          "durationTicks": 232,
          "midi": 67,
          "name": "G4",
          "ticks": 168960,
          "time": 138.947072,
          "velocity": 0.5196850393700787
        },
        {
          "duration": 0.1907890666666674,
          "durationTicks": 232,
          "midi": 71,
          "name": "B4",
          "ticks": 169200,
          "time": 139.14444,
          "velocity": 0.5196850393700787
        },
        {
          "duration": 0.1907890666666674,
          "durationTicks": 232,
          "midi": 74,
          "name": "D5",
          "ticks": 169440,
          "time": 139.341808,
          "velocity": 0.5196850393700787
        },
        {
          "duration": 0.1907890666666674,
          "durationTicks": 232,
          "midi": 67,
          "name": "G4",
          "ticks": 169680,
          "time": 139.539176,
          "velocity": 0.5196850393700787
        },
        {
          "duration": 0.19078906666669582,
          "durationTicks": 232,
          "midi": 71,
          "name": "B4",
          "ticks": 169920,
          "time": 139.73654399999998,
          "velocity": 0.5196850393700787
        },
        {
          "duration": 0.1907890666666674,
          "durationTicks": 232,
          "midi": 67,
          "name": "G4",
          "ticks": 170160,
          "time": 139.933912,
          "velocity": 0.5196850393700787
        },
        {
          "duration": 0.1907890666666674,
          "durationTicks": 232,
          "midi": 71,
          "name": "B4",
          "ticks": 170400,
          "time": 140.13128,
          "velocity": 0.5196850393700787
        },
        {
          "duration": 0.1907890666666674,
          "durationTicks": 232,
          "midi": 67,
          "name": "G4",
          "ticks": 170640,
          "time": 140.328648,
          "velocity": 0.5196850393700787
        },
        {
          "duration": 0.1907890666666674,
          "durationTicks": 232,
          "midi": 69,
          "name": "A4",
          "ticks": 170880,
          "time": 140.526016,
          "velocity": 0.5196850393700787
        },
        {
          "duration": 0.19078906666669582,
          "durationTicks": 232,
          "midi": 73,
          "name": "C#5",
          "ticks": 171120,
          "time": 140.72338399999998,
          "velocity": 0.5196850393700787
        },
        {
          "duration": 0.1907890666666674,
          "durationTicks": 232,
          "midi": 69,
          "name": "A4",
          "ticks": 171360,
          "time": 140.920752,
          "velocity": 0.5196850393700787
        },
        {
          "duration": 0.1907890666666674,
          "durationTicks": 232,
          "midi": 73,
          "name": "C#5",
          "ticks": 171600,
          "time": 141.11812,
          "velocity": 0.5196850393700787
        },
        {
          "duration": 0.1907890666666674,
          "durationTicks": 232,
          "midi": 76,
          "name": "E5",
          "ticks": 171840,
          "time": 141.315488,
          "velocity": 0.5196850393700787
        },
        {
          "duration": 0.1907890666666674,
          "durationTicks": 232,
          "midi": 69,
          "name": "A4",
          "ticks": 172080,
          "time": 141.512856,
          "velocity": 0.5196850393700787
        },
        {
          "duration": 0.1907890666666674,
          "durationTicks": 232,
          "midi": 73,
          "name": "C#5",
          "ticks": 172320,
          "time": 141.71022399999998,
          "velocity": 0.5196850393700787
        },
        {
          "duration": 0.1907890666666674,
          "durationTicks": 232,
          "midi": 69,
          "name": "A4",
          "ticks": 172560,
          "time": 141.907592,
          "velocity": 0.5196850393700787
        },
        {
          "duration": 0.1907890666666674,
          "durationTicks": 232,
          "midi": 69,
          "name": "A4",
          "ticks": 172800,
          "time": 142.10496,
          "velocity": 0.5196850393700787
        },
        {
          "duration": 0.1907890666666674,
          "durationTicks": 232,
          "midi": 73,
          "name": "C#5",
          "ticks": 173040,
          "time": 142.302328,
          "velocity": 0.5196850393700787
        },
        {
          "duration": 0.1907890666666674,
          "durationTicks": 232,
          "midi": 76,
          "name": "E5",
          "ticks": 173280,
          "time": 142.499696,
          "velocity": 0.5196850393700787
        },
        {
          "duration": 0.1907890666666674,
          "durationTicks": 232,
          "midi": 69,
          "name": "A4",
          "ticks": 173520,
          "time": 142.69706399999998,
          "velocity": 0.5196850393700787
        },
        {
          "duration": 0.1907890666666674,
          "durationTicks": 232,
          "midi": 73,
          "name": "C#5",
          "ticks": 173760,
          "time": 142.894432,
          "velocity": 0.5196850393700787
        },
        {
          "duration": 0.19078906666669582,
          "durationTicks": 232,
          "midi": 69,
          "name": "A4",
          "ticks": 174000,
          "time": 143.09179999999998,
          "velocity": 0.5196850393700787
        },
        {
          "duration": 0.1907890666666674,
          "durationTicks": 232,
          "midi": 73,
          "name": "C#5",
          "ticks": 174240,
          "time": 143.289168,
          "velocity": 0.5196850393700787
        },
        {
          "duration": 0.1907890666666674,
          "durationTicks": 232,
          "midi": 76,
          "name": "E5",
          "ticks": 174480,
          "time": 143.486536,
          "velocity": 0.5196850393700787
        },
        {
          "duration": 0.1907890666666674,
          "durationTicks": 232,
          "midi": 69,
          "name": "A4",
          "ticks": 174720,
          "time": 143.68390399999998,
          "velocity": 0.5196850393700787
        },
        {
          "duration": 0.1907890666666674,
          "durationTicks": 232,
          "midi": 73,
          "name": "C#5",
          "ticks": 174960,
          "time": 143.881272,
          "velocity": 0.5196850393700787
        },
        {
          "duration": 0.19078906666669582,
          "durationTicks": 232,
          "midi": 69,
          "name": "A4",
          "ticks": 175200,
          "time": 144.07863999999998,
          "velocity": 0.5196850393700787
        },
        {
          "duration": 0.1907890666666674,
          "durationTicks": 232,
          "midi": 73,
          "name": "C#5",
          "ticks": 175440,
          "time": 144.276008,
          "velocity": 0.5196850393700787
        },
        {
          "duration": 0.1907890666666674,
          "durationTicks": 232,
          "midi": 76,
          "name": "E5",
          "ticks": 175680,
          "time": 144.473376,
          "velocity": 0.5196850393700787
        },
        {
          "duration": 0.1907890666666674,
          "durationTicks": 232,
          "midi": 69,
          "name": "A4",
          "ticks": 175920,
          "time": 144.67074399999998,
          "velocity": 0.5196850393700787
        },
        {
          "duration": 0.1907890666666674,
          "durationTicks": 232,
          "midi": 73,
          "name": "C#5",
          "ticks": 176160,
          "time": 144.868112,
          "velocity": 0.5196850393700787
        },
        {
          "duration": 0.19078906666669582,
          "durationTicks": 232,
          "midi": 69,
          "name": "A4",
          "ticks": 176400,
          "time": 145.06547999999998,
          "velocity": 0.5196850393700787
        },
        {
          "duration": 0.1907890666666674,
          "durationTicks": 232,
          "midi": 69,
          "name": "A4",
          "ticks": 176640,
          "time": 145.262848,
          "velocity": 0.5196850393700787
        },
        {
          "duration": 0.1907890666666674,
          "durationTicks": 232,
          "midi": 73,
          "name": "C#5",
          "ticks": 176880,
          "time": 145.460216,
          "velocity": 0.5196850393700787
        },
        {
          "duration": 0.1907890666666674,
          "durationTicks": 232,
          "midi": 76,
          "name": "E5",
          "ticks": 177120,
          "time": 145.65758399999999,
          "velocity": 0.5196850393700787
        },
        {
          "duration": 0.1907890666666674,
          "durationTicks": 232,
          "midi": 69,
          "name": "A4",
          "ticks": 177360,
          "time": 145.854952,
          "velocity": 0.5196850393700787
        },
        {
          "duration": 0.19078906666669582,
          "durationTicks": 232,
          "midi": 73,
          "name": "C#5",
          "ticks": 177600,
          "time": 146.05231999999998,
          "velocity": 0.5196850393700787
        },
        {
          "duration": 0.1907890666666674,
          "durationTicks": 232,
          "midi": 69,
          "name": "A4",
          "ticks": 177840,
          "time": 146.249688,
          "velocity": 0.5196850393700787
        },
        {
          "duration": 0.1907890666666674,
          "durationTicks": 232,
          "midi": 73,
          "name": "C#5",
          "ticks": 178080,
          "time": 146.447056,
          "velocity": 0.5196850393700787
        },
        {
          "duration": 0.1907890666666674,
          "durationTicks": 232,
          "midi": 69,
          "name": "A4",
          "ticks": 178320,
          "time": 146.644424,
          "velocity": 0.5196850393700787
        },
        {
          "duration": 0.1907890666666674,
          "durationTicks": 232,
          "midi": 69,
          "name": "A4",
          "ticks": 178560,
          "time": 146.841792,
          "velocity": 0.5196850393700787
        },
        {
          "duration": 0.19078906666669582,
          "durationTicks": 232,
          "midi": 73,
          "name": "C#5",
          "ticks": 178800,
          "time": 147.03915999999998,
          "velocity": 0.5196850393700787
        },
        {
          "duration": 0.1907890666666674,
          "durationTicks": 232,
          "midi": 69,
          "name": "A4",
          "ticks": 179040,
          "time": 147.236528,
          "velocity": 0.5196850393700787
        },
        {
          "duration": 0.1907890666666674,
          "durationTicks": 232,
          "midi": 73,
          "name": "C#5",
          "ticks": 179280,
          "time": 147.433896,
          "velocity": 0.5196850393700787
        },
        {
          "duration": 0.1907890666666674,
          "durationTicks": 232,
          "midi": 76,
          "name": "E5",
          "ticks": 179520,
          "time": 147.631264,
          "velocity": 0.5196850393700787
        },
        {
          "duration": 0.1907890666666674,
          "durationTicks": 232,
          "midi": 69,
          "name": "A4",
          "ticks": 179760,
          "time": 147.828632,
          "velocity": 0.5196850393700787
        },
        {
          "duration": 0.1907890666666674,
          "durationTicks": 232,
          "midi": 73,
          "name": "C#5",
          "ticks": 180000,
          "time": 148.02599999999998,
          "velocity": 0.5196850393700787
        },
        {
          "duration": 0.1907890666666674,
          "durationTicks": 232,
          "midi": 69,
          "name": "A4",
          "ticks": 180240,
          "time": 148.223368,
          "velocity": 0.5196850393700787
        },
        {
          "duration": 0.19078906666669582,
          "durationTicks": 232,
          "midi": 69,
          "name": "A4",
          "ticks": 180480,
          "time": 148.42073599999998,
          "velocity": 0.5196850393700787
        },
        {
          "duration": 0.1907890666666674,
          "durationTicks": 232,
          "midi": 73,
          "name": "C#5",
          "ticks": 180720,
          "time": 148.618104,
          "velocity": 0.5196850393700787
        },
        {
          "duration": 0.1907890666666674,
          "durationTicks": 232,
          "midi": 76,
          "name": "E5",
          "ticks": 180960,
          "time": 148.815472,
          "velocity": 0.5196850393700787
        },
        {
          "duration": 0.1907890666666674,
          "durationTicks": 232,
          "midi": 69,
          "name": "A4",
          "ticks": 181200,
          "time": 149.01283999999998,
          "velocity": 0.5196850393700787
        },
        {
          "duration": 0.1907890666666674,
          "durationTicks": 232,
          "midi": 73,
          "name": "C#5",
          "ticks": 181440,
          "time": 149.210208,
          "velocity": 0.5196850393700787
        },
        {
          "duration": 0.19078906666669582,
          "durationTicks": 232,
          "midi": 69,
          "name": "A4",
          "ticks": 181680,
          "time": 149.40757599999998,
          "velocity": 0.5196850393700787
        },
        {
          "duration": 0.1907890666666674,
          "durationTicks": 232,
          "midi": 73,
          "name": "C#5",
          "ticks": 181920,
          "time": 149.604944,
          "velocity": 0.5196850393700787
        },
        {
          "duration": 0.1907890666666674,
          "durationTicks": 232,
          "midi": 76,
          "name": "E5",
          "ticks": 182160,
          "time": 149.802312,
          "velocity": 0.5196850393700787
        },
        {
          "duration": 0.1907890666666674,
          "durationTicks": 232,
          "midi": 69,
          "name": "A4",
          "ticks": 182400,
          "time": 149.99967999999998,
          "velocity": 0.5196850393700787
        },
        {
          "duration": 0.1907890666666674,
          "durationTicks": 232,
          "midi": 73,
          "name": "C#5",
          "ticks": 182640,
          "time": 150.197048,
          "velocity": 0.5196850393700787
        },
        {
          "duration": 0.19078906666669582,
          "durationTicks": 232,
          "midi": 69,
          "name": "A4",
          "ticks": 182880,
          "time": 150.39441599999998,
          "velocity": 0.5196850393700787
        },
        {
          "duration": 0.1907890666666674,
          "durationTicks": 232,
          "midi": 73,
          "name": "C#5",
          "ticks": 183120,
          "time": 150.591784,
          "velocity": 0.5196850393700787
        },
        {
          "duration": 0.1907890666666674,
          "durationTicks": 232,
          "midi": 76,
          "name": "E5",
          "ticks": 183360,
          "time": 150.789152,
          "velocity": 0.5196850393700787
        },
        {
          "duration": 0.1907890666666674,
          "durationTicks": 232,
          "midi": 69,
          "name": "A4",
          "ticks": 183600,
          "time": 150.98651999999998,
          "velocity": 0.5196850393700787
        },
        {
          "duration": 0.1907890666666674,
          "durationTicks": 232,
          "midi": 73,
          "name": "C#5",
          "ticks": 183840,
          "time": 151.183888,
          "velocity": 0.5196850393700787
        },
        {
          "duration": 0.19078906666669582,
          "durationTicks": 232,
          "midi": 69,
          "name": "A4",
          "ticks": 184080,
          "time": 151.38125599999998,
          "velocity": 0.5196850393700787
        },
        {
          "duration": 0.1907890666666674,
          "durationTicks": 232,
          "midi": 69,
          "name": "A4",
          "ticks": 184320,
          "time": 151.578624,
          "velocity": 0.5196850393700787
        },
        {
          "duration": 0.1907890666666674,
          "durationTicks": 232,
          "midi": 73,
          "name": "C#5",
          "ticks": 184560,
          "time": 151.775992,
          "velocity": 0.5196850393700787
        },
        {
          "duration": 0.1907890666666674,
          "durationTicks": 232,
          "midi": 76,
          "name": "E5",
          "ticks": 184800,
          "time": 151.97335999999999,
          "velocity": 0.5196850393700787
        },
        {
          "duration": 0.1907890666666674,
          "durationTicks": 232,
          "midi": 69,
          "name": "A4",
          "ticks": 185040,
          "time": 152.170728,
          "velocity": 0.5196850393700787
        },
        {
          "duration": 0.19078906666669582,
          "durationTicks": 232,
          "midi": 73,
          "name": "C#5",
          "ticks": 185280,
          "time": 152.36809599999998,
          "velocity": 0.5196850393700787
        },
        {
          "duration": 0.1907890666666674,
          "durationTicks": 232,
          "midi": 69,
          "name": "A4",
          "ticks": 185520,
          "time": 152.565464,
          "velocity": 0.5196850393700787
        },
        {
          "duration": 0.1907890666666674,
          "durationTicks": 232,
          "midi": 73,
          "name": "C#5",
          "ticks": 185760,
          "time": 152.762832,
          "velocity": 0.5196850393700787
        },
        {
          "duration": 0.1907890666666674,
          "durationTicks": 232,
          "midi": 69,
          "name": "A4",
          "ticks": 186000,
          "time": 152.9602,
          "velocity": 0.5196850393700787
        },
        {
          "duration": 0.1907890666666674,
          "durationTicks": 232,
          "midi": 71,
          "name": "B4",
          "ticks": 186240,
          "time": 153.157568,
          "velocity": 0.5196850393700787
        },
        {
          "duration": 0.19078906666669582,
          "durationTicks": 232,
          "midi": 78,
          "name": "F#5",
          "ticks": 186480,
          "time": 153.35493599999998,
          "velocity": 0.5196850393700787
        },
        {
          "duration": 0.1907890666666674,
          "durationTicks": 232,
          "midi": 74,
          "name": "D5",
          "ticks": 186720,
          "time": 153.552304,
          "velocity": 0.5196850393700787
        },
        {
          "duration": 0.1907890666666674,
          "durationTicks": 232,
          "midi": 71,
          "name": "B4",
          "ticks": 186960,
          "time": 153.749672,
          "velocity": 0.5196850393700787
        },
        {
          "duration": 0.1907890666666674,
          "durationTicks": 232,
          "midi": 78,
          "name": "F#5",
          "ticks": 187200,
          "time": 153.94704,
          "velocity": 0.5196850393700787
        },
        {
          "duration": 0.1907890666666674,
          "durationTicks": 232,
          "midi": 74,
          "name": "D5",
          "ticks": 187440,
          "time": 154.144408,
          "velocity": 0.5196850393700787
        },
        {
          "duration": 0.1907890666666674,
          "durationTicks": 232,
          "midi": 71,
          "name": "B4",
          "ticks": 187680,
          "time": 154.34177599999998,
          "velocity": 0.5196850393700787
        },
        {
          "duration": 0.1907890666666674,
          "durationTicks": 232,
          "midi": 78,
          "name": "F#5",
          "ticks": 187920,
          "time": 154.539144,
          "velocity": 0.5196850393700787
        },
        {
          "duration": 0.1907890666666674,
          "durationTicks": 232,
          "midi": 71,
          "name": "B4",
          "ticks": 188160,
          "time": 154.736512,
          "velocity": 0.5196850393700787
        },
        {
          "duration": 0.1907890666666674,
          "durationTicks": 232,
          "midi": 74,
          "name": "D5",
          "ticks": 188400,
          "time": 154.93388,
          "velocity": 0.5196850393700787
        },
        {
          "duration": 0.1907890666666674,
          "durationTicks": 232,
          "midi": 78,
          "name": "F#5",
          "ticks": 188640,
          "time": 155.131248,
          "velocity": 0.5196850393700787
        },
        {
          "duration": 0.1907890666666674,
          "durationTicks": 232,
          "midi": 71,
          "name": "B4",
          "ticks": 188880,
          "time": 155.32861599999998,
          "velocity": 0.5196850393700787
        },
        {
          "duration": 0.1907890666666674,
          "durationTicks": 232,
          "midi": 74,
          "name": "D5",
          "ticks": 189120,
          "time": 155.525984,
          "velocity": 0.5196850393700787
        },
        {
          "duration": 0.19078906666669582,
          "durationTicks": 232,
          "midi": 78,
          "name": "F#5",
          "ticks": 189360,
          "time": 155.72335199999998,
          "velocity": 0.5196850393700787
        },
        {
          "duration": 0.1907890666666674,
          "durationTicks": 232,
          "midi": 71,
          "name": "B4",
          "ticks": 189600,
          "time": 155.92072,
          "velocity": 0.5196850393700787
        },
        {
          "duration": 0.1907890666666674,
          "durationTicks": 232,
          "midi": 74,
          "name": "D5",
          "ticks": 189840,
          "time": 156.118088,
          "velocity": 0.5196850393700787
        },
        {
          "duration": 0.1907890666666674,
          "durationTicks": 232,
          "midi": 71,
          "name": "B4",
          "ticks": 190080,
          "time": 156.31545599999998,
          "velocity": 0.5196850393700787
        },
        {
          "duration": 0.1907890666666674,
          "durationTicks": 232,
          "midi": 74,
          "name": "D5",
          "ticks": 190320,
          "time": 156.512824,
          "velocity": 0.5196850393700787
        },
        {
          "duration": 0.19078906666669582,
          "durationTicks": 232,
          "midi": 71,
          "name": "B4",
          "ticks": 190560,
          "time": 156.71019199999998,
          "velocity": 0.5196850393700787
        },
        {
          "duration": 0.1907890666666674,
          "durationTicks": 232,
          "midi": 74,
          "name": "D5",
          "ticks": 190800,
          "time": 156.90756,
          "velocity": 0.5196850393700787
        },
        {
          "duration": 0.1907890666666674,
          "durationTicks": 232,
          "midi": 78,
          "name": "F#5",
          "ticks": 191040,
          "time": 157.104928,
          "velocity": 0.5196850393700787
        },
        {
          "duration": 0.1907890666666674,
          "durationTicks": 232,
          "midi": 71,
          "name": "B4",
          "ticks": 191280,
          "time": 157.30229599999998,
          "velocity": 0.5196850393700787
        },
        {
          "duration": 0.1907890666666674,
          "durationTicks": 232,
          "midi": 74,
          "name": "D5",
          "ticks": 191520,
          "time": 157.499664,
          "velocity": 0.5196850393700787
        },
        {
          "duration": 0.19078906666669582,
          "durationTicks": 232,
          "midi": 71,
          "name": "B4",
          "ticks": 191760,
          "time": 157.69703199999998,
          "velocity": 0.5196850393700787
        },
        {
          "duration": 0.1907890666666674,
          "durationTicks": 232,
          "midi": 71,
          "name": "B4",
          "ticks": 192000,
          "time": 157.8944,
          "velocity": 0.5196850393700787
        },
        {
          "duration": 0.1907890666666674,
          "durationTicks": 232,
          "midi": 74,
          "name": "D5",
          "ticks": 192240,
          "time": 158.091768,
          "velocity": 0.5196850393700787
        },
        {
          "duration": 0.1907890666666674,
          "durationTicks": 232,
          "midi": 78,
          "name": "F#5",
          "ticks": 192480,
          "time": 158.28913599999998,
          "velocity": 0.5196850393700787
        },
        {
          "duration": 0.1907890666666674,
          "durationTicks": 232,
          "midi": 71,
          "name": "B4",
          "ticks": 192720,
          "time": 158.486504,
          "velocity": 0.5196850393700787
        },
        {
          "duration": 0.19078906666669582,
          "durationTicks": 232,
          "midi": 74,
          "name": "D5",
          "ticks": 192960,
          "time": 158.68387199999998,
          "velocity": 0.5196850393700787
        },
        {
          "duration": 0.1907890666666674,
          "durationTicks": 232,
          "midi": 71,
          "name": "B4",
          "ticks": 193200,
          "time": 158.88124,
          "velocity": 0.5196850393700787
        },
        {
          "duration": 0.1907890666666674,
          "durationTicks": 232,
          "midi": 74,
          "name": "D5",
          "ticks": 193440,
          "time": 159.078608,
          "velocity": 0.5196850393700787
        },
        {
          "duration": 0.1907890666666674,
          "durationTicks": 232,
          "midi": 71,
          "name": "B4",
          "ticks": 193680,
          "time": 159.27597599999999,
          "velocity": 0.5196850393700787
        },
        {
          "duration": 0.1907890666666674,
          "durationTicks": 232,
          "midi": 67,
          "name": "G4",
          "ticks": 193920,
          "time": 159.473344,
          "velocity": 0.5196850393700787
        },
        {
          "duration": 0.19078906666669582,
          "durationTicks": 232,
          "midi": 71,
          "name": "B4",
          "ticks": 194160,
          "time": 159.67071199999998,
          "velocity": 0.5196850393700787
        },
        {
          "duration": 0.1907890666666674,
          "durationTicks": 232,
          "midi": 67,
          "name": "G4",
          "ticks": 194400,
          "time": 159.86808,
          "velocity": 0.5196850393700787
        },
        {
          "duration": 0.1907890666666674,
          "durationTicks": 232,
          "midi": 71,
          "name": "B4",
          "ticks": 194640,
          "time": 160.065448,
          "velocity": 0.5196850393700787
        },
        {
          "duration": 0.1907890666666674,
          "durationTicks": 232,
          "midi": 74,
          "name": "D5",
          "ticks": 194880,
          "time": 160.262816,
          "velocity": 0.5196850393700787
        },
        {
          "duration": 0.1907890666666674,
          "durationTicks": 232,
          "midi": 67,
          "name": "G4",
          "ticks": 195120,
          "time": 160.460184,
          "velocity": 0.5196850393700787
        },
        {
          "duration": 0.1907890666666674,
          "durationTicks": 232,
          "midi": 71,
          "name": "B4",
          "ticks": 195360,
          "time": 160.65755199999998,
          "velocity": 0.5196850393700787
        },
        {
          "duration": 0.1907890666666674,
          "durationTicks": 232,
          "midi": 67,
          "name": "G4",
          "ticks": 195600,
          "time": 160.85492,
          "velocity": 0.5196850393700787
        },
        {
          "duration": 0.19078906666669582,
          "durationTicks": 232,
          "midi": 67,
          "name": "G4",
          "ticks": 195840,
          "time": 161.05228799999998,
          "velocity": 0.5196850393700787
        },
        {
          "duration": 0.1907890666666674,
          "durationTicks": 232,
          "midi": 71,
          "name": "B4",
          "ticks": 196080,
          "time": 161.249656,
          "velocity": 0.5196850393700787
        },
        {
          "duration": 0.1907890666666674,
          "durationTicks": 232,
          "midi": 74,
          "name": "D5",
          "ticks": 196320,
          "time": 161.447024,
          "velocity": 0.5196850393700787
        },
        {
          "duration": 0.1907890666666674,
          "durationTicks": 232,
          "midi": 67,
          "name": "G4",
          "ticks": 196560,
          "time": 161.64439199999998,
          "velocity": 0.5196850393700787
        },
        {
          "duration": 0.1907890666666674,
          "durationTicks": 232,
          "midi": 71,
          "name": "B4",
          "ticks": 196800,
          "time": 161.84176,
          "velocity": 0.5196850393700787
        },
        {
          "duration": 0.19078906666669582,
          "durationTicks": 232,
          "midi": 67,
          "name": "G4",
          "ticks": 197040,
          "time": 162.03912799999998,
          "velocity": 0.5196850393700787
        },
        {
          "duration": 0.1907890666666674,
          "durationTicks": 232,
          "midi": 71,
          "name": "B4",
          "ticks": 197280,
          "time": 162.236496,
          "velocity": 0.5196850393700787
        },
        {
          "duration": 0.1907890666666674,
          "durationTicks": 232,
          "midi": 74,
          "name": "D5",
          "ticks": 197520,
          "time": 162.433864,
          "velocity": 0.5196850393700787
        },
        {
          "duration": 0.1907890666666674,
          "durationTicks": 232,
          "midi": 67,
          "name": "G4",
          "ticks": 197760,
          "time": 162.63123199999998,
          "velocity": 0.5196850393700787
        },
        {
          "duration": 0.1907890666666674,
          "durationTicks": 232,
          "midi": 71,
          "name": "B4",
          "ticks": 198000,
          "time": 162.8286,
          "velocity": 0.5196850393700787
        },
        {
          "duration": 0.19078906666669582,
          "durationTicks": 232,
          "midi": 67,
          "name": "G4",
          "ticks": 198240,
          "time": 163.02596799999998,
          "velocity": 0.5196850393700787
        },
        {
          "duration": 0.1907890666666674,
          "durationTicks": 232,
          "midi": 71,
          "name": "B4",
          "ticks": 198480,
          "time": 163.223336,
          "velocity": 0.5196850393700787
        },
        {
          "duration": 0.1907890666666674,
          "durationTicks": 232,
          "midi": 74,
          "name": "D5",
          "ticks": 198720,
          "time": 163.420704,
          "velocity": 0.5196850393700787
        },
        {
          "duration": 0.1907890666666674,
          "durationTicks": 232,
          "midi": 67,
          "name": "G4",
          "ticks": 198960,
          "time": 163.61807199999998,
          "velocity": 0.5196850393700787
        },
        {
          "duration": 0.1907890666666674,
          "durationTicks": 232,
          "midi": 71,
          "name": "B4",
          "ticks": 199200,
          "time": 163.81544,
          "velocity": 0.5196850393700787
        },
        {
          "duration": 0.19078906666669582,
          "durationTicks": 232,
          "midi": 67,
          "name": "G4",
          "ticks": 199440,
          "time": 164.01280799999998,
          "velocity": 0.5196850393700787
        },
        {
          "duration": 0.1907890666666674,
          "durationTicks": 232,
          "midi": 67,
          "name": "G4",
          "ticks": 199680,
          "time": 164.210176,
          "velocity": 0.5196850393700787
        },
        {
          "duration": 0.1907890666666674,
          "durationTicks": 232,
          "midi": 71,
          "name": "B4",
          "ticks": 199920,
          "time": 164.407544,
          "velocity": 0.5196850393700787
        },
        {
          "duration": 0.1907890666666674,
          "durationTicks": 232,
          "midi": 74,
          "name": "D5",
          "ticks": 200160,
          "time": 164.60491199999998,
          "velocity": 0.5196850393700787
        },
        {
          "duration": 0.1907890666666674,
          "durationTicks": 232,
          "midi": 67,
          "name": "G4",
          "ticks": 200400,
          "time": 164.80228,
          "velocity": 0.5196850393700787
        },
        {
          "duration": 0.19078906666669582,
          "durationTicks": 232,
          "midi": 71,
          "name": "B4",
          "ticks": 200640,
          "time": 164.99964799999998,
          "velocity": 0.5196850393700787
        },
        {
          "duration": 0.1907890666666674,
          "durationTicks": 232,
          "midi": 67,
          "name": "G4",
          "ticks": 200880,
          "time": 165.197016,
          "velocity": 0.5196850393700787
        },
        {
          "duration": 0.1907890666666674,
          "durationTicks": 232,
          "midi": 71,
          "name": "B4",
          "ticks": 201120,
          "time": 165.394384,
          "velocity": 0.5196850393700787
        },
        {
          "duration": 0.1907890666666674,
          "durationTicks": 232,
          "midi": 67,
          "name": "G4",
          "ticks": 201360,
          "time": 165.59175199999999,
          "velocity": 0.5196850393700787
        },
        {
          "duration": 0.1907890666666674,
          "durationTicks": 232,
          "midi": 69,
          "name": "A4",
          "ticks": 201600,
          "time": 165.78912,
          "velocity": 0.5196850393700787
        },
        {
          "duration": 0.19078906666669582,
          "durationTicks": 232,
          "midi": 73,
          "name": "C#5",
          "ticks": 201840,
          "time": 165.98648799999998,
          "velocity": 0.5196850393700787
        },
        {
          "duration": 0.1907890666666674,
          "durationTicks": 232,
          "midi": 69,
          "name": "A4",
          "ticks": 202080,
          "time": 166.183856,
          "velocity": 0.5196850393700787
        },
        {
          "duration": 0.1907890666666674,
          "durationTicks": 232,
          "midi": 73,
          "name": "C#5",
          "ticks": 202320,
          "time": 166.381224,
          "velocity": 0.5196850393700787
        },
        {
          "duration": 0.1907890666666674,
          "durationTicks": 232,
          "midi": 76,
          "name": "E5",
          "ticks": 202560,
          "time": 166.578592,
          "velocity": 0.5196850393700787
        },
        {
          "duration": 0.1907890666666674,
          "durationTicks": 232,
          "midi": 69,
          "name": "A4",
          "ticks": 202800,
          "time": 166.77596,
          "velocity": 0.5196850393700787
        },
        {
          "duration": 0.1907890666666674,
          "durationTicks": 232,
          "midi": 73,
          "name": "C#5",
          "ticks": 203040,
          "time": 166.97332799999998,
          "velocity": 0.5196850393700787
        },
        {
          "duration": 0.1907890666666674,
          "durationTicks": 232,
          "midi": 69,
          "name": "A4",
          "ticks": 203280,
          "time": 167.170696,
          "velocity": 0.5196850393700787
        },
        {
          "duration": 0.1907890666666674,
          "durationTicks": 232,
          "midi": 69,
          "name": "A4",
          "ticks": 203520,
          "time": 167.368064,
          "velocity": 0.5196850393700787
        },
        {
          "duration": 0.1907890666666674,
          "durationTicks": 232,
          "midi": 73,
          "name": "C#5",
          "ticks": 203760,
          "time": 167.565432,
          "velocity": 0.5196850393700787
        },
        {
          "duration": 0.1907890666666674,
          "durationTicks": 232,
          "midi": 76,
          "name": "E5",
          "ticks": 204000,
          "time": 167.7628,
          "velocity": 0.5196850393700787
        },
        {
          "duration": 0.1907890666666674,
          "durationTicks": 232,
          "midi": 69,
          "name": "A4",
          "ticks": 204240,
          "time": 167.96016799999998,
          "velocity": 0.5196850393700787
        },
        {
          "duration": 0.1907890666666674,
          "durationTicks": 232,
          "midi": 73,
          "name": "C#5",
          "ticks": 204480,
          "time": 168.157536,
          "velocity": 0.5196850393700787
        },
        {
          "duration": 0.19078906666669582,
          "durationTicks": 232,
          "midi": 69,
          "name": "A4",
          "ticks": 204720,
          "time": 168.35490399999998,
          "velocity": 0.5196850393700787
        },
        {
          "duration": 0.1907890666666674,
          "durationTicks": 232,
          "midi": 73,
          "name": "C#5",
          "ticks": 204960,
          "time": 168.552272,
          "velocity": 0.5196850393700787
        },
        {
          "duration": 0.1907890666666674,
          "durationTicks": 232,
          "midi": 76,
          "name": "E5",
          "ticks": 205200,
          "time": 168.74964,
          "velocity": 0.5196850393700787
        },
        {
          "duration": 0.1907890666666674,
          "durationTicks": 232,
          "midi": 69,
          "name": "A4",
          "ticks": 205440,
          "time": 168.94700799999998,
          "velocity": 0.5196850393700787
        },
        {
          "duration": 0.1907890666666674,
          "durationTicks": 232,
          "midi": 73,
          "name": "C#5",
          "ticks": 205680,
          "time": 169.144376,
          "velocity": 0.5196850393700787
        },
        {
          "duration": 0.19078906666669582,
          "durationTicks": 232,
          "midi": 69,
          "name": "A4",
          "ticks": 205920,
          "time": 169.34174399999998,
          "velocity": 0.5196850393700787
        },
        {
          "duration": 0.1907890666666674,
          "durationTicks": 232,
          "midi": 73,
          "name": "C#5",
          "ticks": 206160,
          "time": 169.539112,
          "velocity": 0.5196850393700787
        },
        {
          "duration": 0.1907890666666674,
          "durationTicks": 232,
          "midi": 76,
          "name": "E5",
          "ticks": 206400,
          "time": 169.73648,
          "velocity": 0.5196850393700787
        },
        {
          "duration": 0.1907890666666674,
          "durationTicks": 232,
          "midi": 69,
          "name": "A4",
          "ticks": 206640,
          "time": 169.93384799999998,
          "velocity": 0.5196850393700787
        },
        {
          "duration": 0.1907890666666674,
          "durationTicks": 232,
          "midi": 73,
          "name": "C#5",
          "ticks": 206880,
          "time": 170.131216,
          "velocity": 0.5196850393700787
        },
        {
          "duration": 0.19078906666669582,
          "durationTicks": 232,
          "midi": 69,
          "name": "A4",
          "ticks": 207120,
          "time": 170.32858399999998,
          "velocity": 0.5196850393700787
        },
        {
          "duration": 0.1907890666666674,
          "durationTicks": 232,
          "midi": 69,
          "name": "A4",
          "ticks": 207360,
          "time": 170.525952,
          "velocity": 0.5196850393700787
        },
        {
          "duration": 0.1907890666666674,
          "durationTicks": 232,
          "midi": 73,
          "name": "C#5",
          "ticks": 207600,
          "time": 170.72332,
          "velocity": 0.5196850393700787
        },
        {
          "duration": 0.1907890666666674,
          "durationTicks": 232,
          "midi": 76,
          "name": "E5",
          "ticks": 207840,
          "time": 170.92068799999998,
          "velocity": 0.5196850393700787
        },
        {
          "duration": 0.1907890666666674,
          "durationTicks": 232,
          "midi": 69,
          "name": "A4",
          "ticks": 208080,
          "time": 171.118056,
          "velocity": 0.5196850393700787
        },
        {
          "duration": 0.19078906666669582,
          "durationTicks": 232,
          "midi": 73,
          "name": "C#5",
          "ticks": 208320,
          "time": 171.31542399999998,
          "velocity": 0.5196850393700787
        },
        {
          "duration": 0.1907890666666674,
          "durationTicks": 232,
          "midi": 69,
          "name": "A4",
          "ticks": 208560,
          "time": 171.512792,
          "velocity": 0.5196850393700787
        },
        {
          "duration": 0.1907890666666674,
          "durationTicks": 232,
          "midi": 73,
          "name": "C#5",
          "ticks": 208800,
          "time": 171.71016,
          "velocity": 0.5196850393700787
        },
        {
          "duration": 0.1907890666666674,
          "durationTicks": 232,
          "midi": 69,
          "name": "A4",
          "ticks": 209040,
          "time": 171.90752799999999,
          "velocity": 0.5196850393700787
        },
        {
          "duration": 0.1907890666666674,
          "durationTicks": 232,
          "midi": 69,
          "name": "A4",
          "ticks": 209280,
          "time": 172.104896,
          "velocity": 0.5196850393700787
        },
        {
          "duration": 0.19078906666669582,
          "durationTicks": 232,
          "midi": 73,
          "name": "C#5",
          "ticks": 209520,
          "time": 172.30226399999998,
          "velocity": 0.5196850393700787
        },
        {
          "duration": 0.1907890666666674,
          "durationTicks": 232,
          "midi": 69,
          "name": "A4",
          "ticks": 209760,
          "time": 172.499632,
          "velocity": 0.5196850393700787
        },
        {
          "duration": 0.1907890666666674,
          "durationTicks": 232,
          "midi": 73,
          "name": "C#5",
          "ticks": 210000,
          "time": 172.697,
          "velocity": 0.5196850393700787
        },
        {
          "duration": 0.1907890666666674,
          "durationTicks": 232,
          "midi": 76,
          "name": "E5",
          "ticks": 210240,
          "time": 172.894368,
          "velocity": 0.5196850393700787
        },
        {
          "duration": 0.1907890666666674,
          "durationTicks": 232,
          "midi": 69,
          "name": "A4",
          "ticks": 210480,
          "time": 173.091736,
          "velocity": 0.5196850393700787
        },
        {
          "duration": 0.1907890666666674,
          "durationTicks": 232,
          "midi": 73,
          "name": "C#5",
          "ticks": 210720,
          "time": 173.28910399999998,
          "velocity": 0.5196850393700787
        },
        {
          "duration": 0.1907890666666674,
          "durationTicks": 232,
          "midi": 69,
          "name": "A4",
          "ticks": 210960,
          "time": 173.486472,
          "velocity": 0.5196850393700787
        },
        {
          "duration": 0.19078906666669582,
          "durationTicks": 232,
          "midi": 69,
          "name": "A4",
          "ticks": 211200,
          "time": 173.68383999999998,
          "velocity": 0.5196850393700787
        },
        {
          "duration": 0.1907890666666674,
          "durationTicks": 232,
          "midi": 73,
          "name": "C#5",
          "ticks": 211440,
          "time": 173.881208,
          "velocity": 0.5196850393700787
        },
        {
          "duration": 0.1907890666666674,
          "durationTicks": 232,
          "midi": 76,
          "name": "E5",
          "ticks": 211680,
          "time": 174.078576,
          "velocity": 0.5196850393700787
        },
        {
          "duration": 0.1907890666666674,
          "durationTicks": 232,
          "midi": 69,
          "name": "A4",
          "ticks": 211920,
          "time": 174.27594399999998,
          "velocity": 0.5196850393700787
        },
        {
          "duration": 0.1907890666666674,
          "durationTicks": 232,
          "midi": 73,
          "name": "C#5",
          "ticks": 212160,
          "time": 174.473312,
          "velocity": 0.5196850393700787
        },
        {
          "duration": 0.19078906666669582,
          "durationTicks": 232,
          "midi": 69,
          "name": "A4",
          "ticks": 212400,
          "time": 174.67067999999998,
          "velocity": 0.5196850393700787
        },
        {
          "duration": 0.1907890666666674,
          "durationTicks": 232,
          "midi": 73,
          "name": "C#5",
          "ticks": 212640,
          "time": 174.868048,
          "velocity": 0.5196850393700787
        },
        {
          "duration": 0.1907890666666674,
          "durationTicks": 232,
          "midi": 76,
          "name": "E5",
          "ticks": 212880,
          "time": 175.065416,
          "velocity": 0.5196850393700787
        },
        {
          "duration": 0.1907890666666674,
          "durationTicks": 232,
          "midi": 69,
          "name": "A4",
          "ticks": 213120,
          "time": 175.26278399999998,
          "velocity": 0.5196850393700787
        },
        {
          "duration": 0.1907890666666674,
          "durationTicks": 232,
          "midi": 73,
          "name": "C#5",
          "ticks": 213360,
          "time": 175.460152,
          "velocity": 0.5196850393700787
        },
        {
          "duration": 0.19078906666669582,
          "durationTicks": 232,
          "midi": 69,
          "name": "A4",
          "ticks": 213600,
          "time": 175.65751999999998,
          "velocity": 0.5196850393700787
        },
        {
          "duration": 0.1907890666666674,
          "durationTicks": 232,
          "midi": 73,
          "name": "C#5",
          "ticks": 213840,
          "time": 175.854888,
          "velocity": 0.5196850393700787
        },
        {
          "duration": 0.1907890666666674,
          "durationTicks": 232,
          "midi": 76,
          "name": "E5",
          "ticks": 214080,
          "time": 176.052256,
          "velocity": 0.5196850393700787
        },
        {
          "duration": 0.1907890666666674,
          "durationTicks": 232,
          "midi": 69,
          "name": "A4",
          "ticks": 214320,
          "time": 176.24962399999998,
          "velocity": 0.5196850393700787
        },
        {
          "duration": 0.1907890666666674,
          "durationTicks": 232,
          "midi": 73,
          "name": "C#5",
          "ticks": 214560,
          "time": 176.446992,
          "velocity": 0.5196850393700787
        },
        {
          "duration": 0.19078906666669582,
          "durationTicks": 232,
          "midi": 69,
          "name": "A4",
          "ticks": 214800,
          "time": 176.64435999999998,
          "velocity": 0.5196850393700787
        },
        {
          "duration": 0.1907890666666674,
          "durationTicks": 232,
          "midi": 69,
          "name": "A4",
          "ticks": 215040,
          "time": 176.841728,
          "velocity": 0.5196850393700787
        },
        {
          "duration": 0.1907890666666674,
          "durationTicks": 232,
          "midi": 73,
          "name": "C#5",
          "ticks": 215280,
          "time": 177.039096,
          "velocity": 0.5196850393700787
        },
        {
          "duration": 0.1907890666666674,
          "durationTicks": 232,
          "midi": 76,
          "name": "E5",
          "ticks": 215520,
          "time": 177.23646399999998,
          "velocity": 0.5196850393700787
        },
        {
          "duration": 0.1907890666666674,
          "durationTicks": 232,
          "midi": 69,
          "name": "A4",
          "ticks": 215760,
          "time": 177.433832,
          "velocity": 0.5196850393700787
        },
        {
          "duration": 0.19078906666669582,
          "durationTicks": 232,
          "midi": 73,
          "name": "C#5",
          "ticks": 216000,
          "time": 177.63119999999998,
          "velocity": 0.5196850393700787
        },
        {
          "duration": 0.1907890666666674,
          "durationTicks": 232,
          "midi": 69,
          "name": "A4",
          "ticks": 216240,
          "time": 177.828568,
          "velocity": 0.5196850393700787
        },
        {
          "duration": 0.1907890666666674,
          "durationTicks": 232,
          "midi": 73,
          "name": "C#5",
          "ticks": 216480,
          "time": 178.025936,
          "velocity": 0.5196850393700787
        },
        {
          "duration": 0.1907890666666674,
          "durationTicks": 232,
          "midi": 69,
          "name": "A4",
          "ticks": 216720,
          "time": 178.22330399999998,
          "velocity": 0.5196850393700787
        },
        {
          "duration": 0.1907890666666674,
          "durationTicks": 232,
          "midi": 71,
          "name": "B4",
          "ticks": 216960,
          "time": 178.420672,
          "velocity": 0.5196850393700787
        },
        {
          "duration": 0.19078906666669582,
          "durationTicks": 232,
          "midi": 78,
          "name": "F#5",
          "ticks": 217200,
          "time": 178.61803999999998,
          "velocity": 0.5196850393700787
        },
        {
          "duration": 0.1907890666666674,
          "durationTicks": 232,
          "midi": 74,
          "name": "D5",
          "ticks": 217440,
          "time": 178.815408,
          "velocity": 0.5196850393700787
        },
        {
          "duration": 0.1907890666666674,
          "durationTicks": 232,
          "midi": 71,
          "name": "B4",
          "ticks": 217680,
          "time": 179.012776,
          "velocity": 0.5196850393700787
        },
        {
          "duration": 0.1907890666666674,
          "durationTicks": 232,
          "midi": 78,
          "name": "F#5",
          "ticks": 217920,
          "time": 179.21014399999999,
          "velocity": 0.5196850393700787
        },
        {
          "duration": 0.1907890666666674,
          "durationTicks": 232,
          "midi": 74,
          "name": "D5",
          "ticks": 218160,
          "time": 179.407512,
          "velocity": 0.5196850393700787
        },
        {
          "duration": 0.1907890666666674,
          "durationTicks": 232,
          "midi": 71,
          "name": "B4",
          "ticks": 218400,
          "time": 179.60487999999998,
          "velocity": 0.5196850393700787
        },
        {
          "duration": 0.1907890666666674,
          "durationTicks": 232,
          "midi": 78,
          "name": "F#5",
          "ticks": 218640,
          "time": 179.802248,
          "velocity": 0.5196850393700787
        },
        {
          "duration": 0.1907890666666674,
          "durationTicks": 232,
          "midi": 71,
          "name": "B4",
          "ticks": 218880,
          "time": 179.999616,
          "velocity": 0.5196850393700787
        },
        {
          "duration": 0.1907890666666674,
          "durationTicks": 232,
          "midi": 74,
          "name": "D5",
          "ticks": 219120,
          "time": 180.196984,
          "velocity": 0.5196850393700787
        },
        {
          "duration": 0.1907890666666674,
          "durationTicks": 232,
          "midi": 78,
          "name": "F#5",
          "ticks": 219360,
          "time": 180.394352,
          "velocity": 0.5196850393700787
        },
        {
          "duration": 0.1907890666666674,
          "durationTicks": 232,
          "midi": 71,
          "name": "B4",
          "ticks": 219600,
          "time": 180.59171999999998,
          "velocity": 0.5196850393700787
        },
        {
          "duration": 0.1907890666666674,
          "durationTicks": 232,
          "midi": 74,
          "name": "D5",
          "ticks": 219840,
          "time": 180.789088,
          "velocity": 0.5196850393700787
        },
        {
          "duration": 0.19078906666669582,
          "durationTicks": 232,
          "midi": 78,
          "name": "F#5",
          "ticks": 220080,
          "time": 180.98645599999998,
          "velocity": 0.5196850393700787
        },
        {
          "duration": 0.1907890666666674,
          "durationTicks": 232,
          "midi": 71,
          "name": "B4",
          "ticks": 220320,
          "time": 181.183824,
          "velocity": 0.5196850393700787
        },
        {
          "duration": 0.1907890666666674,
          "durationTicks": 232,
          "midi": 74,
          "name": "D5",
          "ticks": 220560,
          "time": 181.381192,
          "velocity": 0.5196850393700787
        },
        {
          "duration": 0.1907890666666674,
          "durationTicks": 232,
          "midi": 71,
          "name": "B4",
          "ticks": 220800,
          "time": 181.57855999999998,
          "velocity": 0.5196850393700787
        },
        {
          "duration": 0.1907890666666674,
          "durationTicks": 232,
          "midi": 74,
          "name": "D5",
          "ticks": 221040,
          "time": 181.775928,
          "velocity": 0.5196850393700787
        },
        {
          "duration": 0.19078906666669582,
          "durationTicks": 232,
          "midi": 71,
          "name": "B4",
          "ticks": 221280,
          "time": 181.97329599999998,
          "velocity": 0.5196850393700787
        },
        {
          "duration": 0.1907890666666674,
          "durationTicks": 232,
          "midi": 74,
          "name": "D5",
          "ticks": 221520,
          "time": 182.170664,
          "velocity": 0.5196850393700787
        },
        {
          "duration": 0.1907890666666674,
          "durationTicks": 232,
          "midi": 78,
          "name": "F#5",
          "ticks": 221760,
          "time": 182.368032,
          "velocity": 0.5196850393700787
        },
        {
          "duration": 0.1907890666666674,
          "durationTicks": 232,
          "midi": 71,
          "name": "B4",
          "ticks": 222000,
          "time": 182.56539999999998,
          "velocity": 0.5196850393700787
        },
        {
          "duration": 0.1907890666666674,
          "durationTicks": 232,
          "midi": 74,
          "name": "D5",
          "ticks": 222240,
          "time": 182.762768,
          "velocity": 0.5196850393700787
        },
        {
          "duration": 0.19078906666669582,
          "durationTicks": 232,
          "midi": 71,
          "name": "B4",
          "ticks": 222480,
          "time": 182.96013599999998,
          "velocity": 0.5196850393700787
        },
        {
          "duration": 0.1907890666666674,
          "durationTicks": 232,
          "midi": 71,
          "name": "B4",
          "ticks": 222720,
          "time": 183.157504,
          "velocity": 0.5196850393700787
        },
        {
          "duration": 0.1907890666666674,
          "durationTicks": 232,
          "midi": 74,
          "name": "D5",
          "ticks": 222960,
          "time": 183.354872,
          "velocity": 0.5196850393700787
        },
        {
          "duration": 0.1907890666666674,
          "durationTicks": 232,
          "midi": 78,
          "name": "F#5",
          "ticks": 223200,
          "time": 183.55223999999998,
          "velocity": 0.5196850393700787
        },
        {
          "duration": 0.1907890666666674,
          "durationTicks": 232,
          "midi": 71,
          "name": "B4",
          "ticks": 223440,
          "time": 183.749608,
          "velocity": 0.5196850393700787
        },
        {
          "duration": 0.19078906666669582,
          "durationTicks": 232,
          "midi": 74,
          "name": "D5",
          "ticks": 223680,
          "time": 183.94697599999998,
          "velocity": 0.5196850393700787
        },
        {
          "duration": 0.1907890666666674,
          "durationTicks": 232,
          "midi": 71,
          "name": "B4",
          "ticks": 223920,
          "time": 184.144344,
          "velocity": 0.5196850393700787
        },
        {
          "duration": 0.1907890666666674,
          "durationTicks": 232,
          "midi": 74,
          "name": "D5",
          "ticks": 224160,
          "time": 184.341712,
          "velocity": 0.5196850393700787
        },
        {
          "duration": 0.1907890666666674,
          "durationTicks": 232,
          "midi": 71,
          "name": "B4",
          "ticks": 224400,
          "time": 184.53907999999998,
          "velocity": 0.5196850393700787
        }
      ]
    },
    {
      "channel": 0,
      "controlChanges": {
        "6": [
          {
            "number": 6,
            "ticks": 660,
            "time": 0.542762,
            "value": 0.09448818897637795
          }
        ],
        "38": [
          {
            "number": 38,
            "ticks": 660,
            "time": 0.542762,
            "value": 0
          }
        ],
        "100": [
          {
            "number": 100,
            "ticks": 660,
            "time": 0.542762,
            "value": 0
          }
        ],
        "101": [
          {
            "number": 101,
            "ticks": 660,
            "time": 0.542762,
            "value": 0
          }
        ],
        "121": [
          {
            "number": 121,
            "ticks": 660,
            "time": 0.542762,
            "value": 0
          }
        ],
        "123": [
          {
            "number": 123,
            "ticks": 660,
            "time": 0.542762,
            "value": 0
          }
        ]
      },
      "pitchBends": [
        {
          "ticks": 660,
          "time": 0.542762,
          "value": 0
        }
      ],
      "instrument": {
        "family": "piano",
        "number": 0,
        "name": "acoustic grand piano"
      },
      "name": "Harmony Guitar 2",
      "notes": [],
      "endOfTrackTicks": 224632
    },
    {
      "channel": 5,
      "controlChanges": {
        "7": [
          {
            "number": 7,
            "ticks": 720,
            "time": 0.592104,
            "value": 0.6141732283464567
          }
        ],
        "10": [
          {
            "number": 10,
            "ticks": 720,
            "time": 0.592104,
            "value": 0.33070866141732286
          }
        ]
      },
      "pitchBends": [],
      "instrument": {
        "family": "guitar",
        "number": 27,
        "name": "electric guitar (clean)"
      },
      "name": "",
      "notes": [
        {
          "duration": 0.1907890666666674,
          "durationTicks": 232,
          "midi": 71,
          "name": "B4",
          "ticks": 193920,
          "time": 159.473344,
          "velocity": 0.5196850393700787
        },
        {
          "duration": 0.19078906666669582,
          "durationTicks": 232,
          "midi": 74,
          "name": "D5",
          "ticks": 194160,
          "time": 159.67071199999998,
          "velocity": 0.5196850393700787
        },
        {
          "duration": 0.1907890666666674,
          "durationTicks": 232,
          "midi": 71,
          "name": "B4",
          "ticks": 194400,
          "time": 159.86808,
          "velocity": 0.5196850393700787
        },
        {
          "duration": 0.1907890666666674,
          "durationTicks": 232,
          "midi": 78,
          "name": "F#5",
          "ticks": 194640,
          "time": 160.065448,
          "velocity": 0.5196850393700787
        },
        {
          "duration": 0.1907890666666674,
          "durationTicks": 232,
          "midi": 71,
          "name": "B4",
          "ticks": 194880,
          "time": 160.262816,
          "velocity": 0.5196850393700787
        },
        {
          "duration": 0.1907890666666674,
          "durationTicks": 232,
          "midi": 74,
          "name": "D5",
          "ticks": 195120,
          "time": 160.460184,
          "velocity": 0.5196850393700787
        },
        {
          "duration": 0.1907890666666674,
          "durationTicks": 232,
          "midi": 71,
          "name": "B4",
          "ticks": 195360,
          "time": 160.65755199999998,
          "velocity": 0.5196850393700787
        },
        {
          "duration": 0.1907890666666674,
          "durationTicks": 232,
          "midi": 74,
          "name": "D5",
          "ticks": 195600,
          "time": 160.85492,
          "velocity": 0.5196850393700787
        },
        {
          "duration": 0.19078906666669582,
          "durationTicks": 232,
          "midi": 78,
          "name": "F#5",
          "ticks": 195840,
          "time": 161.05228799999998,
          "velocity": 0.5196850393700787
        },
        {
          "duration": 0.1907890666666674,
          "durationTicks": 232,
          "midi": 71,
          "name": "B4",
          "ticks": 196080,
          "time": 161.249656,
          "velocity": 0.5196850393700787
        },
        {
          "duration": 0.1907890666666674,
          "durationTicks": 232,
          "midi": 74,
          "name": "D5",
          "ticks": 196320,
          "time": 161.447024,
          "velocity": 0.5196850393700787
        },
        {
          "duration": 0.1907890666666674,
          "durationTicks": 232,
          "midi": 78,
          "name": "F#5",
          "ticks": 196560,
          "time": 161.64439199999998,
          "velocity": 0.5196850393700787
        },
        {
          "duration": 0.1907890666666674,
          "durationTicks": 232,
          "midi": 71,
          "name": "B4",
          "ticks": 196800,
          "time": 161.84176,
          "velocity": 0.5196850393700787
        },
        {
          "duration": 0.19078906666669582,
          "durationTicks": 232,
          "midi": 78,
          "name": "F#5",
          "ticks": 197040,
          "time": 162.03912799999998,
          "velocity": 0.5196850393700787
        },
        {
          "duration": 0.1907890666666674,
          "durationTicks": 232,
          "midi": 71,
          "name": "B4",
          "ticks": 197280,
          "time": 162.236496,
          "velocity": 0.5196850393700787
        },
        {
          "duration": 0.1907890666666674,
          "durationTicks": 232,
          "midi": 74,
          "name": "D5",
          "ticks": 197520,
          "time": 162.433864,
          "velocity": 0.5196850393700787
        },
        {
          "duration": 0.1907890666666674,
          "durationTicks": 232,
          "midi": 71,
          "name": "B4",
          "ticks": 197760,
          "time": 162.63123199999998,
          "velocity": 0.5196850393700787
        },
        {
          "duration": 0.1907890666666674,
          "durationTicks": 232,
          "midi": 74,
          "name": "D5",
          "ticks": 198000,
          "time": 162.8286,
          "velocity": 0.5196850393700787
        },
        {
          "duration": 0.19078906666669582,
          "durationTicks": 232,
          "midi": 78,
          "name": "F#5",
          "ticks": 198240,
          "time": 163.02596799999998,
          "velocity": 0.5196850393700787
        },
        {
          "duration": 0.1907890666666674,
          "durationTicks": 232,
          "midi": 71,
          "name": "B4",
          "ticks": 198480,
          "time": 163.223336,
          "velocity": 0.5196850393700787
        },
        {
          "duration": 0.1907890666666674,
          "durationTicks": 232,
          "midi": 74,
          "name": "D5",
          "ticks": 198720,
          "time": 163.420704,
          "velocity": 0.5196850393700787
        },
        {
          "duration": 0.1907890666666674,
          "durationTicks": 232,
          "midi": 71,
          "name": "B4",
          "ticks": 198960,
          "time": 163.61807199999998,
          "velocity": 0.5196850393700787
        },
        {
          "duration": 0.1907890666666674,
          "durationTicks": 232,
          "midi": 74,
          "name": "D5",
          "ticks": 199200,
          "time": 163.81544,
          "velocity": 0.5196850393700787
        },
        {
          "duration": 0.19078906666669582,
          "durationTicks": 232,
          "midi": 78,
          "name": "F#5",
          "ticks": 199440,
          "time": 164.01280799999998,
          "velocity": 0.5196850393700787
        },
        {
          "duration": 0.1907890666666674,
          "durationTicks": 232,
          "midi": 71,
          "name": "B4",
          "ticks": 199680,
          "time": 164.210176,
          "velocity": 0.5196850393700787
        },
        {
          "duration": 0.1907890666666674,
          "durationTicks": 232,
          "midi": 74,
          "name": "D5",
          "ticks": 199920,
          "time": 164.407544,
          "velocity": 0.5196850393700787
        },
        {
          "duration": 0.1907890666666674,
          "durationTicks": 232,
          "midi": 71,
          "name": "B4",
          "ticks": 200160,
          "time": 164.60491199999998,
          "velocity": 0.5196850393700787
        },
        {
          "duration": 0.1907890666666674,
          "durationTicks": 232,
          "midi": 74,
          "name": "D5",
          "ticks": 200400,
          "time": 164.80228,
          "velocity": 0.5196850393700787
        },
        {
          "duration": 0.19078906666669582,
          "durationTicks": 232,
          "midi": 78,
          "name": "F#5",
          "ticks": 200640,
          "time": 164.99964799999998,
          "velocity": 0.5196850393700787
        },
        {
          "duration": 0.1907890666666674,
          "durationTicks": 232,
          "midi": 71,
          "name": "B4",
          "ticks": 200880,
          "time": 165.197016,
          "velocity": 0.5196850393700787
        },
        {
          "duration": 0.1907890666666674,
          "durationTicks": 232,
          "midi": 74,
          "name": "D5",
          "ticks": 201120,
          "time": 165.394384,
          "velocity": 0.5196850393700787
        },
        {
          "duration": 0.1907890666666674,
          "durationTicks": 232,
          "midi": 71,
          "name": "B4",
          "ticks": 201360,
          "time": 165.59175199999999,
          "velocity": 0.5196850393700787
        },
        {
          "duration": 0.1907890666666674,
          "durationTicks": 232,
          "midi": 76,
          "name": "E5",
          "ticks": 201600,
          "time": 165.78912,
          "velocity": 0.5196850393700787
        },
        {
          "duration": 0.19078906666669582,
          "durationTicks": 232,
          "midi": 81,
          "name": "A5",
          "ticks": 201840,
          "time": 165.98648799999998,
          "velocity": 0.5196850393700787
        },
        {
          "duration": 0.1907890666666674,
          "durationTicks": 232,
          "midi": 73,
          "name": "C#5",
          "ticks": 202080,
          "time": 166.183856,
          "velocity": 0.5196850393700787
        },
        {
          "duration": 0.1907890666666674,
          "durationTicks": 232,
          "midi": 76,
          "name": "E5",
          "ticks": 202320,
          "time": 166.381224,
          "velocity": 0.5196850393700787
        },
        {
          "duration": 0.1907890666666674,
          "durationTicks": 232,
          "midi": 73,
          "name": "C#5",
          "ticks": 202560,
          "time": 166.578592,
          "velocity": 0.5196850393700787
        },
        {
          "duration": 0.1907890666666674,
          "durationTicks": 232,
          "midi": 76,
          "name": "E5",
          "ticks": 202800,
          "time": 166.77596,
          "velocity": 0.5196850393700787
        },
        {
          "duration": 0.1907890666666674,
          "durationTicks": 232,
          "midi": 81,
          "name": "A5",
          "ticks": 203040,
          "time": 166.97332799999998,
          "velocity": 0.5196850393700787
        },
        {
          "duration": 0.1907890666666674,
          "durationTicks": 232,
          "midi": 73,
          "name": "C#5",
          "ticks": 203280,
          "time": 167.170696,
          "velocity": 0.5196850393700787
        },
        {
          "duration": 0.1907890666666674,
          "durationTicks": 232,
          "midi": 76,
          "name": "E5",
          "ticks": 203520,
          "time": 167.368064,
          "velocity": 0.5196850393700787
        },
        {
          "duration": 0.1907890666666674,
          "durationTicks": 232,
          "midi": 81,
          "name": "A5",
          "ticks": 203760,
          "time": 167.565432,
          "velocity": 0.5196850393700787
        },
        {
          "duration": 0.1907890666666674,
          "durationTicks": 232,
          "midi": 73,
          "name": "C#5",
          "ticks": 204000,
          "time": 167.7628,
          "velocity": 0.5196850393700787
        },
        {
          "duration": 0.1907890666666674,
          "durationTicks": 232,
          "midi": 76,
          "name": "E5",
          "ticks": 204240,
          "time": 167.96016799999998,
          "velocity": 0.5196850393700787
        },
        {
          "duration": 0.1907890666666674,
          "durationTicks": 232,
          "midi": 73,
          "name": "C#5",
          "ticks": 204480,
          "time": 168.157536,
          "velocity": 0.5196850393700787
        },
        {
          "duration": 0.19078906666669582,
          "durationTicks": 232,
          "midi": 76,
          "name": "E5",
          "ticks": 204720,
          "time": 168.35490399999998,
          "velocity": 0.5196850393700787
        },
        {
          "duration": 0.1907890666666674,
          "durationTicks": 232,
          "midi": 73,
          "name": "C#5",
          "ticks": 204960,
          "time": 168.552272,
          "velocity": 0.5196850393700787
        },
        {
          "duration": 0.1907890666666674,
          "durationTicks": 232,
          "midi": 76,
          "name": "E5",
          "ticks": 205200,
          "time": 168.74964,
          "velocity": 0.5196850393700787
        },
        {
          "duration": 0.1907890666666674,
          "durationTicks": 232,
          "midi": 81,
          "name": "A5",
          "ticks": 205440,
          "time": 168.94700799999998,
          "velocity": 0.5196850393700787
        },
        {
          "duration": 0.1907890666666674,
          "durationTicks": 232,
          "midi": 73,
          "name": "C#5",
          "ticks": 205680,
          "time": 169.144376,
          "velocity": 0.5196850393700787
        },
        {
          "duration": 0.19078906666669582,
          "durationTicks": 232,
          "midi": 76,
          "name": "E5",
          "ticks": 205920,
          "time": 169.34174399999998,
          "velocity": 0.5196850393700787
        },
        {
          "duration": 0.1907890666666674,
          "durationTicks": 232,
          "midi": 73,
          "name": "C#5",
          "ticks": 206160,
          "time": 169.539112,
          "velocity": 0.5196850393700787
        },
        {
          "duration": 0.1907890666666674,
          "durationTicks": 232,
          "midi": 76,
          "name": "E5",
          "ticks": 206400,
          "time": 169.73648,
          "velocity": 0.5196850393700787
        },
        {
          "duration": 0.1907890666666674,
          "durationTicks": 232,
          "midi": 81,
          "name": "A5",
          "ticks": 206640,
          "time": 169.93384799999998,
          "velocity": 0.5196850393700787
        },
        {
          "duration": 0.1907890666666674,
          "durationTicks": 232,
          "midi": 73,
          "name": "C#5",
          "ticks": 206880,
          "time": 170.131216,
          "velocity": 0.5196850393700787
        },
        {
          "duration": 0.19078906666669582,
          "durationTicks": 232,
          "midi": 76,
          "name": "E5",
          "ticks": 207120,
          "time": 170.32858399999998,
          "velocity": 0.5196850393700787
        },
        {
          "duration": 0.1907890666666674,
          "durationTicks": 232,
          "midi": 73,
          "name": "C#5",
          "ticks": 207360,
          "time": 170.525952,
          "velocity": 0.5196850393700787
        },
        {
          "duration": 0.1907890666666674,
          "durationTicks": 232,
          "midi": 76,
          "name": "E5",
          "ticks": 207600,
          "time": 170.72332,
          "velocity": 0.5196850393700787
        },
        {
          "duration": 0.1907890666666674,
          "durationTicks": 232,
          "midi": 81,
          "name": "A5",
          "ticks": 207840,
          "time": 170.92068799999998,
          "velocity": 0.5196850393700787
        },
        {
          "duration": 0.1907890666666674,
          "durationTicks": 232,
          "midi": 73,
          "name": "C#5",
          "ticks": 208080,
          "time": 171.118056,
          "velocity": 0.5196850393700787
        },
        {
          "duration": 0.19078906666669582,
          "durationTicks": 232,
          "midi": 76,
          "name": "E5",
          "ticks": 208320,
          "time": 171.31542399999998,
          "velocity": 0.5196850393700787
        },
        {
          "duration": 0.1907890666666674,
          "durationTicks": 232,
          "midi": 73,
          "name": "C#5",
          "ticks": 208560,
          "time": 171.512792,
          "velocity": 0.5196850393700787
        },
        {
          "duration": 0.1907890666666674,
          "durationTicks": 232,
          "midi": 76,
          "name": "E5",
          "ticks": 208800,
          "time": 171.71016,
          "velocity": 0.5196850393700787
        },
        {
          "duration": 0.1907890666666674,
          "durationTicks": 232,
          "midi": 81,
          "name": "A5",
          "ticks": 209040,
          "time": 171.90752799999999,
          "velocity": 0.5196850393700787
        },
        {
          "duration": 0.1907890666666674,
          "durationTicks": 232,
          "midi": 73,
          "name": "C#5",
          "ticks": 209280,
          "time": 172.104896,
          "velocity": 0.5196850393700787
        },
        {
          "duration": 0.19078906666669582,
          "durationTicks": 232,
          "midi": 76,
          "name": "E5",
          "ticks": 209520,
          "time": 172.30226399999998,
          "velocity": 0.5196850393700787
        },
        {
          "duration": 0.1907890666666674,
          "durationTicks": 232,
          "midi": 73,
          "name": "C#5",
          "ticks": 209760,
          "time": 172.499632,
          "velocity": 0.5196850393700787
        },
        {
          "duration": 0.1907890666666674,
          "durationTicks": 232,
          "midi": 76,
          "name": "E5",
          "ticks": 210000,
          "time": 172.697,
          "velocity": 0.5196850393700787
        },
        {
          "duration": 0.1907890666666674,
          "durationTicks": 232,
          "midi": 81,
          "name": "A5",
          "ticks": 210240,
          "time": 172.894368,
          "velocity": 0.5196850393700787
        },
        {
          "duration": 0.1907890666666674,
          "durationTicks": 232,
          "midi": 73,
          "name": "C#5",
          "ticks": 210480,
          "time": 173.091736,
          "velocity": 0.5196850393700787
        },
        {
          "duration": 0.1907890666666674,
          "durationTicks": 232,
          "midi": 76,
          "name": "E5",
          "ticks": 210720,
          "time": 173.28910399999998,
          "velocity": 0.5196850393700787
        },
        {
          "duration": 0.1907890666666674,
          "durationTicks": 232,
          "midi": 73,
          "name": "C#5",
          "ticks": 210960,
          "time": 173.486472,
          "velocity": 0.5196850393700787
        },
        {
          "duration": 0.19078906666669582,
          "durationTicks": 232,
          "midi": 76,
          "name": "E5",
          "ticks": 211200,
          "time": 173.68383999999998,
          "velocity": 0.5196850393700787
        },
        {
          "duration": 0.1907890666666674,
          "durationTicks": 232,
          "midi": 81,
          "name": "A5",
          "ticks": 211440,
          "time": 173.881208,
          "velocity": 0.5196850393700787
        },
        {
          "duration": 0.1907890666666674,
          "durationTicks": 232,
          "midi": 73,
          "name": "C#5",
          "ticks": 211680,
          "time": 174.078576,
          "velocity": 0.5196850393700787
        },
        {
          "duration": 0.1907890666666674,
          "durationTicks": 232,
          "midi": 76,
          "name": "E5",
          "ticks": 211920,
          "time": 174.27594399999998,
          "velocity": 0.5196850393700787
        },
        {
          "duration": 0.1907890666666674,
          "durationTicks": 232,
          "midi": 73,
          "name": "C#5",
          "ticks": 212160,
          "time": 174.473312,
          "velocity": 0.5196850393700787
        },
        {
          "duration": 0.19078906666669582,
          "durationTicks": 232,
          "midi": 76,
          "name": "E5",
          "ticks": 212400,
          "time": 174.67067999999998,
          "velocity": 0.5196850393700787
        },
        {
          "duration": 0.1907890666666674,
          "durationTicks": 232,
          "midi": 73,
          "name": "C#5",
          "ticks": 212640,
          "time": 174.868048,
          "velocity": 0.5196850393700787
        },
        {
          "duration": 0.1907890666666674,
          "durationTicks": 232,
          "midi": 76,
          "name": "E5",
          "ticks": 212880,
          "time": 175.065416,
          "velocity": 0.5196850393700787
        },
        {
          "duration": 0.1907890666666674,
          "durationTicks": 232,
          "midi": 81,
          "name": "A5",
          "ticks": 213120,
          "time": 175.26278399999998,
          "velocity": 0.5196850393700787
        },
        {
          "duration": 0.1907890666666674,
          "durationTicks": 232,
          "midi": 73,
          "name": "C#5",
          "ticks": 213360,
          "time": 175.460152,
          "velocity": 0.5196850393700787
        },
        {
          "duration": 0.19078906666669582,
          "durationTicks": 232,
          "midi": 76,
          "name": "E5",
          "ticks": 213600,
          "time": 175.65751999999998,
          "velocity": 0.5196850393700787
        },
        {
          "duration": 0.1907890666666674,
          "durationTicks": 232,
          "midi": 81,
          "name": "A5",
          "ticks": 213840,
          "time": 175.854888,
          "velocity": 0.5196850393700787
        },
        {
          "duration": 0.1907890666666674,
          "durationTicks": 232,
          "midi": 73,
          "name": "C#5",
          "ticks": 214080,
          "time": 176.052256,
          "velocity": 0.5196850393700787
        },
        {
          "duration": 0.1907890666666674,
          "durationTicks": 232,
          "midi": 76,
          "name": "E5",
          "ticks": 214320,
          "time": 176.24962399999998,
          "velocity": 0.5196850393700787
        },
        {
          "duration": 0.1907890666666674,
          "durationTicks": 232,
          "midi": 73,
          "name": "C#5",
          "ticks": 214560,
          "time": 176.446992,
          "velocity": 0.5196850393700787
        },
        {
          "duration": 0.19078906666669582,
          "durationTicks": 232,
          "midi": 76,
          "name": "E5",
          "ticks": 214800,
          "time": 176.64435999999998,
          "velocity": 0.5196850393700787
        },
        {
          "duration": 0.1907890666666674,
          "durationTicks": 232,
          "midi": 81,
          "name": "A5",
          "ticks": 215040,
          "time": 176.841728,
          "velocity": 0.5196850393700787
        },
        {
          "duration": 0.1907890666666674,
          "durationTicks": 232,
          "midi": 73,
          "name": "C#5",
          "ticks": 215280,
          "time": 177.039096,
          "velocity": 0.5196850393700787
        },
        {
          "duration": 0.1907890666666674,
          "durationTicks": 232,
          "midi": 76,
          "name": "E5",
          "ticks": 215520,
          "time": 177.23646399999998,
          "velocity": 0.5196850393700787
        },
        {
          "duration": 0.1907890666666674,
          "durationTicks": 232,
          "midi": 73,
          "name": "C#5",
          "ticks": 215760,
          "time": 177.433832,
          "velocity": 0.5196850393700787
        },
        {
          "duration": 0.19078906666669582,
          "durationTicks": 232,
          "midi": 76,
          "name": "E5",
          "ticks": 216000,
          "time": 177.63119999999998,
          "velocity": 0.5196850393700787
        },
        {
          "duration": 0.1907890666666674,
          "durationTicks": 232,
          "midi": 73,
          "name": "C#5",
          "ticks": 216240,
          "time": 177.828568,
          "velocity": 0.5196850393700787
        },
        {
          "duration": 0.1907890666666674,
          "durationTicks": 232,
          "midi": 76,
          "name": "E5",
          "ticks": 216480,
          "time": 178.025936,
          "velocity": 0.5196850393700787
        },
        {
          "duration": 0.1907890666666674,
          "durationTicks": 232,
          "midi": 73,
          "name": "C#5",
          "ticks": 216720,
          "time": 178.22330399999998,
          "velocity": 0.5196850393700787
        },
        {
          "duration": 0.1907890666666674,
          "durationTicks": 232,
          "midi": 71,
          "name": "B4",
          "ticks": 216960,
          "time": 178.420672,
          "velocity": 0.5196850393700787
        },
        {
          "duration": 0.19078906666669582,
          "durationTicks": 232,
          "midi": 74,
          "name": "D5",
          "ticks": 217200,
          "time": 178.61803999999998,
          "velocity": 0.5196850393700787
        },
        {
          "duration": 0.1907890666666674,
          "durationTicks": 232,
          "midi": 71,
          "name": "B4",
          "ticks": 217440,
          "time": 178.815408,
          "velocity": 0.5196850393700787
        },
        {
          "duration": 0.1907890666666674,
          "durationTicks": 232,
          "midi": 74,
          "name": "D5",
          "ticks": 217680,
          "time": 179.012776,
          "velocity": 0.5196850393700787
        },
        {
          "duration": 0.1907890666666674,
          "durationTicks": 232,
          "midi": 79,
          "name": "G5",
          "ticks": 217920,
          "time": 179.21014399999999,
          "velocity": 0.5196850393700787
        },
        {
          "duration": 0.1907890666666674,
          "durationTicks": 232,
          "midi": 71,
          "name": "B4",
          "ticks": 218160,
          "time": 179.407512,
          "velocity": 0.5196850393700787
        },
        {
          "duration": 0.1907890666666674,
          "durationTicks": 232,
          "midi": 74,
          "name": "D5",
          "ticks": 218400,
          "time": 179.60487999999998,
          "velocity": 0.5196850393700787
        },
        {
          "duration": 0.1907890666666674,
          "durationTicks": 232,
          "midi": 71,
          "name": "B4",
          "ticks": 218640,
          "time": 179.802248,
          "velocity": 0.5196850393700787
        },
        {
          "duration": 0.1907890666666674,
          "durationTicks": 232,
          "midi": 74,
          "name": "D5",
          "ticks": 218880,
          "time": 179.999616,
          "velocity": 0.5196850393700787
        },
        {
          "duration": 0.1907890666666674,
          "durationTicks": 232,
          "midi": 79,
          "name": "G5",
          "ticks": 219120,
          "time": 180.196984,
          "velocity": 0.5196850393700787
        },
        {
          "duration": 0.1907890666666674,
          "durationTicks": 232,
          "midi": 71,
          "name": "B4",
          "ticks": 219360,
          "time": 180.394352,
          "velocity": 0.5196850393700787
        },
        {
          "duration": 0.1907890666666674,
          "durationTicks": 232,
          "midi": 79,
          "name": "G5",
          "ticks": 219600,
          "time": 180.59171999999998,
          "velocity": 0.5196850393700787
        },
        {
          "duration": 0.1907890666666674,
          "durationTicks": 232,
          "midi": 71,
          "name": "B4",
          "ticks": 219840,
          "time": 180.789088,
          "velocity": 0.5196850393700787
        },
        {
          "duration": 0.19078906666669582,
          "durationTicks": 232,
          "midi": 74,
          "name": "D5",
          "ticks": 220080,
          "time": 180.98645599999998,
          "velocity": 0.5196850393700787
        },
        {
          "duration": 0.1907890666666674,
          "durationTicks": 232,
          "midi": 79,
          "name": "G5",
          "ticks": 220320,
          "time": 181.183824,
          "velocity": 0.5196850393700787
        },
        {
          "duration": 0.1907890666666674,
          "durationTicks": 232,
          "midi": 74,
          "name": "D5",
          "ticks": 220560,
          "time": 181.381192,
          "velocity": 0.5196850393700787
        },
        {
          "duration": 0.1907890666666674,
          "durationTicks": 232,
          "midi": 79,
          "name": "G5",
          "ticks": 220800,
          "time": 181.57855999999998,
          "velocity": 0.5196850393700787
        },
        {
          "duration": 0.1907890666666674,
          "durationTicks": 232,
          "midi": 71,
          "name": "B4",
          "ticks": 221040,
          "time": 181.775928,
          "velocity": 0.5196850393700787
        },
        {
          "duration": 0.19078906666669582,
          "durationTicks": 232,
          "midi": 74,
          "name": "D5",
          "ticks": 221280,
          "time": 181.97329599999998,
          "velocity": 0.5196850393700787
        },
        {
          "duration": 0.1907890666666674,
          "durationTicks": 232,
          "midi": 79,
          "name": "G5",
          "ticks": 221520,
          "time": 182.170664,
          "velocity": 0.5196850393700787
        },
        {
          "duration": 0.1907890666666674,
          "durationTicks": 232,
          "midi": 71,
          "name": "B4",
          "ticks": 221760,
          "time": 182.368032,
          "velocity": 0.5196850393700787
        },
        {
          "duration": 0.1907890666666674,
          "durationTicks": 232,
          "midi": 79,
          "name": "G5",
          "ticks": 222000,
          "time": 182.56539999999998,
          "velocity": 0.5196850393700787
        },
        {
          "duration": 0.1907890666666674,
          "durationTicks": 232,
          "midi": 71,
          "name": "B4",
          "ticks": 222240,
          "time": 182.762768,
          "velocity": 0.5196850393700787
        },
        {
          "duration": 0.19078906666669582,
          "durationTicks": 232,
          "midi": 74,
          "name": "D5",
          "ticks": 222480,
          "time": 182.96013599999998,
          "velocity": 0.5196850393700787
        },
        {
          "duration": 0.1907890666666674,
          "durationTicks": 232,
          "midi": 79,
          "name": "G5",
          "ticks": 222720,
          "time": 183.157504,
          "velocity": 0.5196850393700787
        },
        {
          "duration": 0.1907890666666674,
          "durationTicks": 232,
          "midi": 71,
          "name": "B4",
          "ticks": 222960,
          "time": 183.354872,
          "velocity": 0.5196850393700787
        },
        {
          "duration": 0.1907890666666674,
          "durationTicks": 232,
          "midi": 79,
          "name": "G5",
          "ticks": 223200,
          "time": 183.55223999999998,
          "velocity": 0.5196850393700787
        },
        {
          "duration": 0.1907890666666674,
          "durationTicks": 232,
          "midi": 71,
          "name": "B4",
          "ticks": 223440,
          "time": 183.749608,
          "velocity": 0.5196850393700787
        },
        {
          "duration": 0.19078906666669582,
          "durationTicks": 232,
          "midi": 74,
          "name": "D5",
          "ticks": 223680,
          "time": 183.94697599999998,
          "velocity": 0.5196850393700787
        },
        {
          "duration": 0.1907890666666674,
          "durationTicks": 232,
          "midi": 71,
          "name": "B4",
          "ticks": 223920,
          "time": 184.144344,
          "velocity": 0.5196850393700787
        },
        {
          "duration": 0.1907890666666674,
          "durationTicks": 232,
          "midi": 74,
          "name": "D5",
          "ticks": 224160,
          "time": 184.341712,
          "velocity": 0.5196850393700787
        },
        {
          "duration": 0.1907890666666674,
          "durationTicks": 232,
          "midi": 71,
          "name": "B4",
          "ticks": 224400,
          "time": 184.53907999999998,
          "velocity": 0.5196850393700787
        }
      ]
    },
    {
      "channel": 0,
      "controlChanges": {
        "6": [
          {
            "number": 6,
            "ticks": 780,
            "time": 0.641446,
            "value": 0.09448818897637795
          }
        ],
        "38": [
          {
            "number": 38,
            "ticks": 780,
            "time": 0.641446,
            "value": 0
          }
        ],
        "100": [
          {
            "number": 100,
            "ticks": 780,
            "time": 0.641446,
            "value": 0
          }
        ],
        "101": [
          {
            "number": 101,
            "ticks": 780,
            "time": 0.641446,
            "value": 0
          }
        ],
        "121": [
          {
            "number": 121,
            "ticks": 780,
            "time": 0.641446,
            "value": 0
          }
        ],
        "123": [
          {
            "number": 123,
            "ticks": 780,
            "time": 0.641446,
            "value": 0
          }
        ]
      },
      "pitchBends": [
        {
          "ticks": 780,
          "time": 0.641446,
          "value": 0
        }
      ],
      "instrument": {
        "family": "piano",
        "number": 0,
        "name": "acoustic grand piano"
      },
      "name": "Harmony Bass 1",
      "notes": [],
      "endOfTrackTicks": 370318
    },
    {
      "channel": 6,
      "controlChanges": {
        "7": [
          {
            "number": 7,
            "ticks": 840,
            "time": 0.690788,
            "value": 0.7952755905511811
          }
        ],
        "10": [
          {
            "number": 10,
            "ticks": 840,
            "time": 0.690788,
            "value": 0.4566929133858268
          }
        ]
      },
      "pitchBends": [],
      "instrument": {
        "family": "bass",
        "number": 33,
        "name": "electric bass (finger)"
      },
      "name": "",
      "notes": [
        {
          "duration": 0.19572326666664708,
          "durationTicks": 238,
          "midi": 35,
          "name": "B1",
          "ticks": 288000,
          "time": 236.84159999999997,
          "velocity": 0.7401574803149606
        },
        {
          "duration": 0.19572326666664708,
          "durationTicks": 238,
          "midi": 35,
          "name": "B1",
          "ticks": 288240,
          "time": 237.03896799999998,
          "velocity": 0.7401574803149606
        },
        {
          "duration": 0.19572326666664708,
          "durationTicks": 238,
          "midi": 35,
          "name": "B1",
          "ticks": 288480,
          "time": 237.236336,
          "velocity": 0.7401574803149606
        },
        {
          "duration": 0.19572326666664708,
          "durationTicks": 238,
          "midi": 35,
          "name": "B1",
          "ticks": 288720,
          "time": 237.43370399999998,
          "velocity": 0.7401574803149606
        },
        {
          "duration": 0.19572326666664708,
          "durationTicks": 238,
          "midi": 35,
          "name": "B1",
          "ticks": 288960,
          "time": 237.631072,
          "velocity": 0.7401574803149606
        },
        {
          "duration": 0.19572326666664708,
          "durationTicks": 238,
          "midi": 35,
          "name": "B1",
          "ticks": 289200,
          "time": 237.82843999999997,
          "velocity": 0.7401574803149606
        },
        {
          "duration": 0.19572326666664708,
          "durationTicks": 238,
          "midi": 35,
          "name": "B1",
          "ticks": 289440,
          "time": 238.02580799999998,
          "velocity": 0.7401574803149606
        },
        {
          "duration": 0.19572326666664708,
          "durationTicks": 238,
          "midi": 35,
          "name": "B1",
          "ticks": 289680,
          "time": 238.223176,
          "velocity": 0.7401574803149606
        },
        {
          "duration": 0.19572326666664708,
          "durationTicks": 238,
          "midi": 35,
          "name": "B1",
          "ticks": 289920,
          "time": 238.42054399999998,
          "velocity": 0.7401574803149606
        },
        {
          "duration": 0.19572326666664708,
          "durationTicks": 238,
          "midi": 35,
          "name": "B1",
          "ticks": 290160,
          "time": 238.617912,
          "velocity": 0.7401574803149606
        },
        {
          "duration": 0.19572326666664708,
          "durationTicks": 238,
          "midi": 35,
          "name": "B1",
          "ticks": 290400,
          "time": 238.81527999999997,
          "velocity": 0.7401574803149606
        },
        {
          "duration": 0.19572326666664708,
          "durationTicks": 238,
          "midi": 35,
          "name": "B1",
          "ticks": 290640,
          "time": 239.01264799999998,
          "velocity": 0.7401574803149606
        },
        {
          "duration": 0.19572326666664708,
          "durationTicks": 238,
          "midi": 35,
          "name": "B1",
          "ticks": 290880,
          "time": 239.210016,
          "velocity": 0.7401574803149606
        },
        {
          "duration": 0.19572326666664708,
          "durationTicks": 238,
          "midi": 35,
          "name": "B1",
          "ticks": 291120,
          "time": 239.40738399999998,
          "velocity": 0.7401574803149606
        },
        {
          "duration": 0.19572326666664708,
          "durationTicks": 238,
          "midi": 35,
          "name": "B1",
          "ticks": 291360,
          "time": 239.604752,
          "velocity": 0.7401574803149606
        },
        {
          "duration": 0.19572326666664708,
          "durationTicks": 238,
          "midi": 35,
          "name": "B1",
          "ticks": 291600,
          "time": 239.80211999999997,
          "velocity": 0.7401574803149606
        },
        {
          "duration": 0.19572326666664708,
          "durationTicks": 238,
          "midi": 35,
          "name": "B1",
          "ticks": 291840,
          "time": 239.99948799999999,
          "velocity": 0.7401574803149606
        },
        {
          "duration": 0.19572326666664708,
          "durationTicks": 238,
          "midi": 35,
          "name": "B1",
          "ticks": 292080,
          "time": 240.196856,
          "velocity": 0.7401574803149606
        },
        {
          "duration": 0.19572326666664708,
          "durationTicks": 238,
          "midi": 35,
          "name": "B1",
          "ticks": 292320,
          "time": 240.39422399999998,
          "velocity": 0.7401574803149606
        },
        {
          "duration": 0.19572326666664708,
          "durationTicks": 238,
          "midi": 35,
          "name": "B1",
          "ticks": 292560,
          "time": 240.591592,
          "velocity": 0.7401574803149606
        },
        {
          "duration": 0.19572326666664708,
          "durationTicks": 238,
          "midi": 35,
          "name": "B1",
          "ticks": 292800,
          "time": 240.78895999999997,
          "velocity": 0.7401574803149606
        },
        {
          "duration": 0.19572326666664708,
          "durationTicks": 238,
          "midi": 35,
          "name": "B1",
          "ticks": 293040,
          "time": 240.986328,
          "velocity": 0.7401574803149606
        },
        {
          "duration": 0.19572326666664708,
          "durationTicks": 238,
          "midi": 35,
          "name": "B1",
          "ticks": 293280,
          "time": 241.183696,
          "velocity": 0.7401574803149606
        },
        {
          "duration": 0.19572326666664708,
          "durationTicks": 238,
          "midi": 35,
          "name": "B1",
          "ticks": 293520,
          "time": 241.38106399999998,
          "velocity": 0.7401574803149606
        },
        {
          "duration": 0.19572326666664708,
          "durationTicks": 238,
          "midi": 35,
          "name": "B1",
          "ticks": 293760,
          "time": 241.578432,
          "velocity": 0.7401574803149606
        },
        {
          "duration": 0.19572326666664708,
          "durationTicks": 238,
          "midi": 35,
          "name": "B1",
          "ticks": 294000,
          "time": 241.77579999999998,
          "velocity": 0.7401574803149606
        },
        {
          "duration": 0.19572326666664708,
          "durationTicks": 238,
          "midi": 35,
          "name": "B1",
          "ticks": 294240,
          "time": 241.973168,
          "velocity": 0.7401574803149606
        },
        {
          "duration": 0.19572326666661866,
          "durationTicks": 238,
          "midi": 35,
          "name": "B1",
          "ticks": 294480,
          "time": 242.170536,
          "velocity": 0.7401574803149606
        },
        {
          "duration": 0.19572326666664708,
          "durationTicks": 238,
          "midi": 35,
          "name": "B1",
          "ticks": 294720,
          "time": 242.36790399999998,
          "velocity": 0.7401574803149606
        },
        {
          "duration": 0.19572326666664708,
          "durationTicks": 238,
          "midi": 35,
          "name": "B1",
          "ticks": 294960,
          "time": 242.565272,
          "velocity": 0.7401574803149606
        },
        {
          "duration": 0.19572326666664708,
          "durationTicks": 238,
          "midi": 35,
          "name": "B1",
          "ticks": 295200,
          "time": 242.76263999999998,
          "velocity": 0.7401574803149606
        },
        {
          "duration": 0.19572326666664708,
          "durationTicks": 238,
          "midi": 35,
          "name": "B1",
          "ticks": 295440,
          "time": 242.960008,
          "velocity": 0.7401574803149606
        },
        {
          "duration": 0.19572326666661866,
          "durationTicks": 238,
          "midi": 36,
          "name": "C2",
          "ticks": 295680,
          "time": 243.157376,
          "velocity": 0.7401574803149606
        },
        {
          "duration": 0.19572326666664708,
          "durationTicks": 238,
          "midi": 36,
          "name": "C2",
          "ticks": 295920,
          "time": 243.35474399999998,
          "velocity": 0.7401574803149606
        },
        {
          "duration": 0.19572326666664708,
          "durationTicks": 238,
          "midi": 36,
          "name": "C2",
          "ticks": 296160,
          "time": 243.552112,
          "velocity": 0.7401574803149606
        },
        {
          "duration": 0.19572326666664708,
          "durationTicks": 238,
          "midi": 36,
          "name": "C2",
          "ticks": 296400,
          "time": 243.74947999999998,
          "velocity": 0.7401574803149606
        },
        {
          "duration": 0.19572326666664708,
          "durationTicks": 238,
          "midi": 36,
          "name": "C2",
          "ticks": 296640,
          "time": 243.946848,
          "velocity": 0.7401574803149606
        },
        {
          "duration": 0.19572326666664708,
          "durationTicks": 238,
          "midi": 36,
          "name": "C2",
          "ticks": 296880,
          "time": 244.14421599999997,
          "velocity": 0.7401574803149606
        },
        {
          "duration": 0.19572326666664708,
          "durationTicks": 238,
          "midi": 36,
          "name": "C2",
          "ticks": 297120,
          "time": 244.34158399999998,
          "velocity": 0.7401574803149606
        },
        {
          "duration": 0.19572326666664708,
          "durationTicks": 238,
          "midi": 36,
          "name": "C2",
          "ticks": 297360,
          "time": 244.538952,
          "velocity": 0.7401574803149606
        },
        {
          "duration": 0.19572326666664708,
          "durationTicks": 238,
          "midi": 36,
          "name": "C2",
          "ticks": 297600,
          "time": 244.73631999999998,
          "velocity": 0.7401574803149606
        },
        {
          "duration": 0.19572326666664708,
          "durationTicks": 238,
          "midi": 36,
          "name": "C2",
          "ticks": 297840,
          "time": 244.933688,
          "velocity": 0.7401574803149606
        },
        {
          "duration": 0.19572326666664708,
          "durationTicks": 238,
          "midi": 36,
          "name": "C2",
          "ticks": 298080,
          "time": 245.13105599999997,
          "velocity": 0.7401574803149606
        },
        {
          "duration": 0.19572326666664708,
          "durationTicks": 238,
          "midi": 36,
          "name": "C2",
          "ticks": 298320,
          "time": 245.32842399999998,
          "velocity": 0.7401574803149606
        },
        {
          "duration": 0.19572326666664708,
          "durationTicks": 238,
          "midi": 36,
          "name": "C2",
          "ticks": 298560,
          "time": 245.525792,
          "velocity": 0.7401574803149606
        },
        {
          "duration": 0.19572326666664708,
          "durationTicks": 238,
          "midi": 36,
          "name": "C2",
          "ticks": 298800,
          "time": 245.72315999999998,
          "velocity": 0.7401574803149606
        },
        {
          "duration": 0.19572326666664708,
          "durationTicks": 238,
          "midi": 36,
          "name": "C2",
          "ticks": 299040,
          "time": 245.920528,
          "velocity": 0.7401574803149606
        },
        {
          "duration": 0.19572326666664708,
          "durationTicks": 238,
          "midi": 36,
          "name": "C2",
          "ticks": 299280,
          "time": 246.11789599999997,
          "velocity": 0.7401574803149606
        },
        {
          "duration": 0.19572326666664708,
          "durationTicks": 238,
          "midi": 35,
          "name": "B1",
          "ticks": 299520,
          "time": 246.31526399999998,
          "velocity": 0.7401574803149606
        },
        {
          "duration": 0.19572326666664708,
          "durationTicks": 238,
          "midi": 35,
          "name": "B1",
          "ticks": 299760,
          "time": 246.512632,
          "velocity": 0.7401574803149606
        },
        {
          "duration": 0.19572326666664708,
          "durationTicks": 238,
          "midi": 35,
          "name": "B1",
          "ticks": 300000,
          "time": 246.70999999999998,
          "velocity": 0.7401574803149606
        },
        {
          "duration": 0.19572326666664708,
          "durationTicks": 238,
          "midi": 35,
          "name": "B1",
          "ticks": 300240,
          "time": 246.907368,
          "velocity": 0.7401574803149606
        },
        {
          "duration": 0.19572326666664708,
          "durationTicks": 238,
          "midi": 35,
          "name": "B1",
          "ticks": 300480,
          "time": 247.10473599999997,
          "velocity": 0.7401574803149606
        },
        {
          "duration": 0.19572326666664708,
          "durationTicks": 238,
          "midi": 35,
          "name": "B1",
          "ticks": 300720,
          "time": 247.30210399999999,
          "velocity": 0.7401574803149606
        },
        {
          "duration": 0.19572326666664708,
          "durationTicks": 238,
          "midi": 35,
          "name": "B1",
          "ticks": 300960,
          "time": 247.499472,
          "velocity": 0.7401574803149606
        },
        {
          "duration": 0.19572326666664708,
          "durationTicks": 238,
          "midi": 35,
          "name": "B1",
          "ticks": 301200,
          "time": 247.69683999999998,
          "velocity": 0.7401574803149606
        },
        {
          "duration": 0.19572326666664708,
          "durationTicks": 238,
          "midi": 35,
          "name": "B1",
          "ticks": 301440,
          "time": 247.894208,
          "velocity": 0.7401574803149606
        },
        {
          "duration": 0.19572326666664708,
          "durationTicks": 238,
          "midi": 35,
          "name": "B1",
          "ticks": 301680,
          "time": 248.09157599999998,
          "velocity": 0.7401574803149606
        },
        {
          "duration": 0.19572326666664708,
          "durationTicks": 238,
          "midi": 35,
          "name": "B1",
          "ticks": 301920,
          "time": 248.288944,
          "velocity": 0.7401574803149606
        },
        {
          "duration": 0.19572326666661866,
          "durationTicks": 238,
          "midi": 35,
          "name": "B1",
          "ticks": 302160,
          "time": 248.486312,
          "velocity": 0.7401574803149606
        },
        {
          "duration": 0.19572326666664708,
          "durationTicks": 238,
          "midi": 35,
          "name": "B1",
          "ticks": 302400,
          "time": 248.68367999999998,
          "velocity": 0.7401574803149606
        },
        {
          "duration": 0.19572326666664708,
          "durationTicks": 238,
          "midi": 35,
          "name": "B1",
          "ticks": 302640,
          "time": 248.881048,
          "velocity": 0.7401574803149606
        },
        {
          "duration": 0.19572326666664708,
          "durationTicks": 238,
          "midi": 35,
          "name": "B1",
          "ticks": 302880,
          "time": 249.07841599999998,
          "velocity": 0.7401574803149606
        },
        {
          "duration": 0.19572326666664708,
          "durationTicks": 238,
          "midi": 35,
          "name": "B1",
          "ticks": 303120,
          "time": 249.275784,
          "velocity": 0.7401574803149606
        },
        {
          "duration": 0.19572326666664708,
          "durationTicks": 238,
          "midi": 33,
          "name": "A1",
          "ticks": 303360,
          "time": 249.47315199999997,
          "velocity": 0.7401574803149606
        },
        {
          "duration": 0.19572326666664708,
          "durationTicks": 238,
          "midi": 33,
          "name": "A1",
          "ticks": 303600,
          "time": 249.67051999999998,
          "velocity": 0.7401574803149606
        },
        {
          "duration": 0.19572326666664708,
          "durationTicks": 238,
          "midi": 33,
          "name": "A1",
          "ticks": 303840,
          "time": 249.867888,
          "velocity": 0.7401574803149606
        },
        {
          "duration": 0.19572326666664708,
          "durationTicks": 238,
          "midi": 33,
          "name": "A1",
          "ticks": 304080,
          "time": 250.06525599999998,
          "velocity": 0.7401574803149606
        },
        {
          "duration": 0.19572326666664708,
          "durationTicks": 238,
          "midi": 33,
          "name": "A1",
          "ticks": 304320,
          "time": 250.262624,
          "velocity": 0.7401574803149606
        },
        {
          "duration": 0.19572326666664708,
          "durationTicks": 238,
          "midi": 28,
          "name": "E1",
          "ticks": 304560,
          "time": 250.45999199999997,
          "velocity": 0.7401574803149606
        },
        {
          "duration": 0.19572326666664708,
          "durationTicks": 238,
          "midi": 30,
          "name": "F#1",
          "ticks": 304800,
          "time": 250.65735999999998,
          "velocity": 0.7401574803149606
        },
        {
          "duration": 0.3930912666666302,
          "durationTicks": 478,
          "midi": 33,
          "name": "A1",
          "ticks": 305040,
          "time": 250.854728,
          "velocity": 0.7401574803149606
        },
        {
          "duration": 0.19572326666664708,
          "durationTicks": 238,
          "midi": 33,
          "name": "A1",
          "ticks": 305520,
          "time": 251.249464,
          "velocity": 0.7401574803149606
        },
        {
          "duration": 0.19572326666664708,
          "durationTicks": 238,
          "midi": 33,
          "name": "A1",
          "ticks": 305760,
          "time": 251.44683199999997,
          "velocity": 0.7401574803149606
        },
        {
          "duration": 0.19572326666664708,
          "durationTicks": 238,
          "midi": 33,
          "name": "A1",
          "ticks": 306000,
          "time": 251.64419999999998,
          "velocity": 0.7401574803149606
        },
        {
          "duration": 0.19572326666664708,
          "durationTicks": 238,
          "midi": 33,
          "name": "A1",
          "ticks": 306240,
          "time": 251.841568,
          "velocity": 0.7401574803149606
        },
        {
          "duration": 0.19572326666664708,
          "durationTicks": 238,
          "midi": 33,
          "name": "A1",
          "ticks": 306480,
          "time": 252.03893599999998,
          "velocity": 0.7401574803149606
        },
        {
          "duration": 0.19572326666664708,
          "durationTicks": 238,
          "midi": 28,
          "name": "E1",
          "ticks": 306720,
          "time": 252.236304,
          "velocity": 0.7401574803149606
        },
        {
          "duration": 0.19572326666664708,
          "durationTicks": 238,
          "midi": 30,
          "name": "F#1",
          "ticks": 306960,
          "time": 252.43367199999997,
          "velocity": 0.7401574803149606
        },
        {
          "duration": 0.19572326666664708,
          "durationTicks": 238,
          "midi": 31,
          "name": "G1",
          "ticks": 307200,
          "time": 252.63103999999998,
          "velocity": 0.7401574803149606
        },
        {
          "duration": 0.19572326666664708,
          "durationTicks": 238,
          "midi": 31,
          "name": "G1",
          "ticks": 307440,
          "time": 252.828408,
          "velocity": 0.7401574803149606
        },
        {
          "duration": 0.19572326666664708,
          "durationTicks": 238,
          "midi": 31,
          "name": "G1",
          "ticks": 307680,
          "time": 253.02577599999998,
          "velocity": 0.7401574803149606
        },
        {
          "duration": 0.19572326666664708,
          "durationTicks": 238,
          "midi": 30,
          "name": "F#1",
          "ticks": 307920,
          "time": 253.223144,
          "velocity": 0.7401574803149606
        },
        {
          "duration": 0.19572326666664708,
          "durationTicks": 238,
          "midi": 28,
          "name": "E1",
          "ticks": 308160,
          "time": 253.42051199999997,
          "velocity": 0.7401574803149606
        },
        {
          "duration": 0.19572326666664708,
          "durationTicks": 238,
          "midi": 28,
          "name": "E1",
          "ticks": 308400,
          "time": 253.61787999999999,
          "velocity": 0.7401574803149606
        },
        {
          "duration": 0.19572326666664708,
          "durationTicks": 238,
          "midi": 28,
          "name": "E1",
          "ticks": 308640,
          "time": 253.815248,
          "velocity": 0.7401574803149606
        },
        {
          "duration": 0.19572326666664708,
          "durationTicks": 238,
          "midi": 28,
          "name": "E1",
          "ticks": 308880,
          "time": 254.01261599999998,
          "velocity": 0.7401574803149606
        },
        {
          "duration": 0.19572326666664708,
          "durationTicks": 238,
          "midi": 28,
          "name": "E1",
          "ticks": 309120,
          "time": 254.209984,
          "velocity": 0.7401574803149606
        },
        {
          "duration": 0.19572326666664708,
          "durationTicks": 238,
          "midi": 28,
          "name": "E1",
          "ticks": 309360,
          "time": 254.40735199999997,
          "velocity": 0.7401574803149606
        },
        {
          "duration": 0.19572326666664708,
          "durationTicks": 238,
          "midi": 28,
          "name": "E1",
          "ticks": 309600,
          "time": 254.60472,
          "velocity": 0.7401574803149606
        },
        {
          "duration": 0.19572326666661866,
          "durationTicks": 238,
          "midi": 28,
          "name": "E1",
          "ticks": 309840,
          "time": 254.802088,
          "velocity": 0.7401574803149606
        },
        {
          "duration": 0.19572326666664708,
          "durationTicks": 238,
          "midi": 28,
          "name": "E1",
          "ticks": 310080,
          "time": 254.99945599999998,
          "velocity": 0.7401574803149606
        },
        {
          "duration": 0.19572326666664708,
          "durationTicks": 238,
          "midi": 28,
          "name": "E1",
          "ticks": 310320,
          "time": 255.196824,
          "velocity": 0.7401574803149606
        },
        {
          "duration": 0.19572326666664708,
          "durationTicks": 238,
          "midi": 28,
          "name": "E1",
          "ticks": 310560,
          "time": 255.39419199999998,
          "velocity": 0.7401574803149606
        },
        {
          "duration": 0.19572326666664708,
          "durationTicks": 238,
          "midi": 28,
          "name": "E1",
          "ticks": 310800,
          "time": 255.59156,
          "velocity": 0.7401574803149606
        },
        {
          "duration": 0.19572326666661866,
          "durationTicks": 238,
          "midi": 28,
          "name": "E1",
          "ticks": 311040,
          "time": 255.788928,
          "velocity": 0.7401574803149606
        },
        {
          "duration": 0.1957232666666755,
          "durationTicks": 238,
          "midi": 28,
          "name": "E1",
          "ticks": 311280,
          "time": 255.98629599999998,
          "velocity": 0.7401574803149606
        },
        {
          "duration": 0.1957232666666755,
          "durationTicks": 238,
          "midi": 28,
          "name": "E1",
          "ticks": 311520,
          "time": 256.18366399999996,
          "velocity": 0.7401574803149606
        },
        {
          "duration": 0.19572326666661866,
          "durationTicks": 238,
          "midi": 28,
          "name": "E1",
          "ticks": 311760,
          "time": 256.381032,
          "velocity": 0.7401574803149606
        },
        {
          "duration": 0.19572326666661866,
          "durationTicks": 238,
          "midi": 28,
          "name": "E1",
          "ticks": 312000,
          "time": 256.5784,
          "velocity": 0.7401574803149606
        },
        {
          "duration": 0.1957232666666755,
          "durationTicks": 238,
          "midi": 28,
          "name": "E1",
          "ticks": 312240,
          "time": 256.77576799999997,
          "velocity": 0.7401574803149606
        },
        {
          "duration": 0.19572326666661866,
          "durationTicks": 238,
          "midi": 28,
          "name": "E1",
          "ticks": 312480,
          "time": 256.973136,
          "velocity": 0.7401574803149606
        },
        {
          "duration": 0.19572326666661866,
          "durationTicks": 238,
          "midi": 28,
          "name": "E1",
          "ticks": 312720,
          "time": 257.170504,
          "velocity": 0.7401574803149606
        },
        {
          "duration": 0.1957232666666755,
          "durationTicks": 238,
          "midi": 28,
          "name": "E1",
          "ticks": 312960,
          "time": 257.367872,
          "velocity": 0.7401574803149606
        },
        {
          "duration": 0.1957232666666755,
          "durationTicks": 238,
          "midi": 28,
          "name": "E1",
          "ticks": 313200,
          "time": 257.56523999999996,
          "velocity": 0.7401574803149606
        },
        {
          "duration": 0.19572326666661866,
          "durationTicks": 238,
          "midi": 28,
          "name": "E1",
          "ticks": 313440,
          "time": 257.762608,
          "velocity": 0.7401574803149606
        },
        {
          "duration": 0.19572326666661866,
          "durationTicks": 238,
          "midi": 28,
          "name": "E1",
          "ticks": 313680,
          "time": 257.959976,
          "velocity": 0.7401574803149606
        },
        {
          "duration": 0.1957232666666755,
          "durationTicks": 238,
          "midi": 40,
          "name": "E2",
          "ticks": 313920,
          "time": 258.15734399999997,
          "velocity": 0.7401574803149606
        },
        {
          "duration": 0.19572326666661866,
          "durationTicks": 238,
          "midi": 38,
          "name": "D2",
          "ticks": 314160,
          "time": 258.354712,
          "velocity": 0.7401574803149606
        },
        {
          "duration": 0.19572326666661866,
          "durationTicks": 238,
          "midi": 35,
          "name": "B1",
          "ticks": 314400,
          "time": 258.55208,
          "velocity": 0.7401574803149606
        },
        {
          "duration": 0.1957232666666755,
          "durationTicks": 238,
          "midi": 35,
          "name": "B1",
          "ticks": 314640,
          "time": 258.749448,
          "velocity": 0.7401574803149606
        },
        {
          "duration": 0.19572326666661866,
          "durationTicks": 238,
          "midi": 35,
          "name": "B1",
          "ticks": 314880,
          "time": 258.946816,
          "velocity": 0.7401574803149606
        },
        {
          "duration": 0.19572326666661866,
          "durationTicks": 238,
          "midi": 35,
          "name": "B1",
          "ticks": 315120,
          "time": 259.144184,
          "velocity": 0.7401574803149606
        },
        {
          "duration": 0.1957232666666755,
          "durationTicks": 238,
          "midi": 35,
          "name": "B1",
          "ticks": 315360,
          "time": 259.341552,
          "velocity": 0.7401574803149606
        },
        {
          "duration": 0.1957232666666755,
          "durationTicks": 238,
          "midi": 35,
          "name": "B1",
          "ticks": 315600,
          "time": 259.53891999999996,
          "velocity": 0.7401574803149606
        },
        {
          "duration": 0.19572326666661866,
          "durationTicks": 238,
          "midi": 35,
          "name": "B1",
          "ticks": 315840,
          "time": 259.736288,
          "velocity": 0.7401574803149606
        },
        {
          "duration": 0.19572326666661866,
          "durationTicks": 238,
          "midi": 35,
          "name": "B1",
          "ticks": 316080,
          "time": 259.933656,
          "velocity": 0.7401574803149606
        },
        {
          "duration": 0.1957232666666755,
          "durationTicks": 238,
          "midi": 35,
          "name": "B1",
          "ticks": 316320,
          "time": 260.13102399999997,
          "velocity": 0.7401574803149606
        },
        {
          "duration": 0.19572326666661866,
          "durationTicks": 238,
          "midi": 35,
          "name": "B1",
          "ticks": 316560,
          "time": 260.328392,
          "velocity": 0.7401574803149606
        },
        {
          "duration": 0.19572326666661866,
          "durationTicks": 238,
          "midi": 35,
          "name": "B1",
          "ticks": 316800,
          "time": 260.52576,
          "velocity": 0.7401574803149606
        },
        {
          "duration": 0.1957232666666755,
          "durationTicks": 238,
          "midi": 35,
          "name": "B1",
          "ticks": 317040,
          "time": 260.723128,
          "velocity": 0.7401574803149606
        },
        {
          "duration": 0.1957232666666755,
          "durationTicks": 238,
          "midi": 35,
          "name": "B1",
          "ticks": 317280,
          "time": 260.92049599999996,
          "velocity": 0.7401574803149606
        },
        {
          "duration": 0.19572326666661866,
          "durationTicks": 238,
          "midi": 35,
          "name": "B1",
          "ticks": 317520,
          "time": 261.117864,
          "velocity": 0.7401574803149606
        },
        {
          "duration": 0.1957232666666755,
          "durationTicks": 238,
          "midi": 35,
          "name": "B1",
          "ticks": 317760,
          "time": 261.315232,
          "velocity": 0.7401574803149606
        },
        {
          "duration": 0.1957232666666755,
          "durationTicks": 238,
          "midi": 35,
          "name": "B1",
          "ticks": 318000,
          "time": 261.51259999999996,
          "velocity": 0.7401574803149606
        },
        {
          "duration": 0.19572326666661866,
          "durationTicks": 238,
          "midi": 35,
          "name": "B1",
          "ticks": 318240,
          "time": 261.709968,
          "velocity": 0.7401574803149606
        },
        {
          "duration": 0.19572326666661866,
          "durationTicks": 238,
          "midi": 35,
          "name": "B1",
          "ticks": 318480,
          "time": 261.907336,
          "velocity": 0.7401574803149606
        },
        {
          "duration": 0.1957232666666755,
          "durationTicks": 238,
          "midi": 35,
          "name": "B1",
          "ticks": 318720,
          "time": 262.10470399999997,
          "velocity": 0.7401574803149606
        },
        {
          "duration": 0.19572326666661866,
          "durationTicks": 238,
          "midi": 35,
          "name": "B1",
          "ticks": 318960,
          "time": 262.302072,
          "velocity": 0.7401574803149606
        },
        {
          "duration": 0.19572326666661866,
          "durationTicks": 238,
          "midi": 35,
          "name": "B1",
          "ticks": 319200,
          "time": 262.49944,
          "velocity": 0.7401574803149606
        },
        {
          "duration": 0.1957232666666755,
          "durationTicks": 238,
          "midi": 35,
          "name": "B1",
          "ticks": 319440,
          "time": 262.696808,
          "velocity": 0.7401574803149606
        },
        {
          "duration": 0.1957232666666755,
          "durationTicks": 238,
          "midi": 35,
          "name": "B1",
          "ticks": 319680,
          "time": 262.89417599999996,
          "velocity": 0.7401574803149606
        },
        {
          "duration": 0.19572326666661866,
          "durationTicks": 238,
          "midi": 35,
          "name": "B1",
          "ticks": 319920,
          "time": 263.091544,
          "velocity": 0.7401574803149606
        },
        {
          "duration": 0.1957232666666755,
          "durationTicks": 238,
          "midi": 35,
          "name": "B1",
          "ticks": 320160,
          "time": 263.288912,
          "velocity": 0.7401574803149606
        },
        {
          "duration": 0.1957232666666755,
          "durationTicks": 238,
          "midi": 35,
          "name": "B1",
          "ticks": 320400,
          "time": 263.48627999999997,
          "velocity": 0.7401574803149606
        },
        {
          "duration": 0.19572326666661866,
          "durationTicks": 238,
          "midi": 35,
          "name": "B1",
          "ticks": 320640,
          "time": 263.683648,
          "velocity": 0.7401574803149606
        },
        {
          "duration": 0.19572326666661866,
          "durationTicks": 238,
          "midi": 35,
          "name": "B1",
          "ticks": 320880,
          "time": 263.881016,
          "velocity": 0.7401574803149606
        },
        {
          "duration": 0.1957232666666755,
          "durationTicks": 238,
          "midi": 35,
          "name": "B1",
          "ticks": 321120,
          "time": 264.07838399999997,
          "velocity": 0.7401574803149606
        },
        {
          "duration": 0.19572326666661866,
          "durationTicks": 238,
          "midi": 35,
          "name": "B1",
          "ticks": 321360,
          "time": 264.275752,
          "velocity": 0.7401574803149606
        },
        {
          "duration": 0.19572326666661866,
          "durationTicks": 238,
          "midi": 35,
          "name": "B1",
          "ticks": 321600,
          "time": 264.47312,
          "velocity": 0.7401574803149606
        },
        {
          "duration": 0.1957232666666755,
          "durationTicks": 238,
          "midi": 35,
          "name": "B1",
          "ticks": 321840,
          "time": 264.670488,
          "velocity": 0.7401574803149606
        },
        {
          "duration": 0.1957232666666755,
          "durationTicks": 238,
          "midi": 35,
          "name": "B1",
          "ticks": 322080,
          "time": 264.86785599999996,
          "velocity": 0.7401574803149606
        },
        {
          "duration": 0.19572326666661866,
          "durationTicks": 238,
          "midi": 35,
          "name": "B1",
          "ticks": 322320,
          "time": 265.065224,
          "velocity": 0.7401574803149606
        },
        {
          "duration": 0.19572326666661866,
          "durationTicks": 238,
          "midi": 36,
          "name": "C2",
          "ticks": 322560,
          "time": 265.262592,
          "velocity": 0.7401574803149606
        },
        {
          "duration": 0.1957232666666755,
          "durationTicks": 238,
          "midi": 36,
          "name": "C2",
          "ticks": 322800,
          "time": 265.45995999999997,
          "velocity": 0.7401574803149606
        },
        {
          "duration": 0.19572326666661866,
          "durationTicks": 238,
          "midi": 36,
          "name": "C2",
          "ticks": 323040,
          "time": 265.657328,
          "velocity": 0.7401574803149606
        },
        {
          "duration": 0.19572326666661866,
          "durationTicks": 238,
          "midi": 36,
          "name": "C2",
          "ticks": 323280,
          "time": 265.854696,
          "velocity": 0.7401574803149606
        },
        {
          "duration": 0.1957232666666755,
          "durationTicks": 238,
          "midi": 36,
          "name": "C2",
          "ticks": 323520,
          "time": 266.052064,
          "velocity": 0.7401574803149606
        },
        {
          "duration": 0.1957232666666755,
          "durationTicks": 238,
          "midi": 36,
          "name": "C2",
          "ticks": 323760,
          "time": 266.24943199999996,
          "velocity": 0.7401574803149606
        },
        {
          "duration": 0.19572326666661866,
          "durationTicks": 238,
          "midi": 36,
          "name": "C2",
          "ticks": 324000,
          "time": 266.4468,
          "velocity": 0.7401574803149606
        },
        {
          "duration": 0.1957232666666755,
          "durationTicks": 238,
          "midi": 36,
          "name": "C2",
          "ticks": 324240,
          "time": 266.644168,
          "velocity": 0.7401574803149606
        },
        {
          "duration": 0.1957232666666755,
          "durationTicks": 238,
          "midi": 36,
          "name": "C2",
          "ticks": 324480,
          "time": 266.84153599999996,
          "velocity": 0.7401574803149606
        },
        {
          "duration": 0.19572326666661866,
          "durationTicks": 238,
          "midi": 36,
          "name": "C2",
          "ticks": 324720,
          "time": 267.038904,
          "velocity": 0.7401574803149606
        },
        {
          "duration": 0.19572326666661866,
          "durationTicks": 238,
          "midi": 36,
          "name": "C2",
          "ticks": 324960,
          "time": 267.236272,
          "velocity": 0.7401574803149606
        },
        {
          "duration": 0.1957232666666755,
          "durationTicks": 238,
          "midi": 36,
          "name": "C2",
          "ticks": 325200,
          "time": 267.43363999999997,
          "velocity": 0.7401574803149606
        },
        {
          "duration": 0.19572326666661866,
          "durationTicks": 238,
          "midi": 36,
          "name": "C2",
          "ticks": 325440,
          "time": 267.631008,
          "velocity": 0.7401574803149606
        },
        {
          "duration": 0.19572326666661866,
          "durationTicks": 238,
          "midi": 36,
          "name": "C2",
          "ticks": 325680,
          "time": 267.828376,
          "velocity": 0.7401574803149606
        },
        {
          "duration": 0.1957232666666755,
          "durationTicks": 238,
          "midi": 36,
          "name": "C2",
          "ticks": 325920,
          "time": 268.025744,
          "velocity": 0.7401574803149606
        },
        {
          "duration": 0.1957232666666755,
          "durationTicks": 238,
          "midi": 36,
          "name": "C2",
          "ticks": 326160,
          "time": 268.22311199999996,
          "velocity": 0.7401574803149606
        },
        {
          "duration": 0.19572326666661866,
          "durationTicks": 238,
          "midi": 35,
          "name": "B1",
          "ticks": 326400,
          "time": 268.42048,
          "velocity": 0.7401574803149606
        },
        {
          "duration": 0.1957232666666755,
          "durationTicks": 238,
          "midi": 35,
          "name": "B1",
          "ticks": 326640,
          "time": 268.617848,
          "velocity": 0.7401574803149606
        },
        {
          "duration": 0.1957232666666755,
          "durationTicks": 238,
          "midi": 35,
          "name": "B1",
          "ticks": 326880,
          "time": 268.81521599999996,
          "velocity": 0.7401574803149606
        },
        {
          "duration": 0.19572326666661866,
          "durationTicks": 238,
          "midi": 35,
          "name": "B1",
          "ticks": 327120,
          "time": 269.012584,
          "velocity": 0.7401574803149606
        },
        {
          "duration": 0.19572326666661866,
          "durationTicks": 238,
          "midi": 35,
          "name": "B1",
          "ticks": 327360,
          "time": 269.209952,
          "velocity": 0.7401574803149606
        },
        {
          "duration": 0.1957232666666755,
          "durationTicks": 238,
          "midi": 35,
          "name": "B1",
          "ticks": 327600,
          "time": 269.40731999999997,
          "velocity": 0.7401574803149606
        },
        {
          "duration": 0.19572326666661866,
          "durationTicks": 238,
          "midi": 35,
          "name": "B1",
          "ticks": 327840,
          "time": 269.604688,
          "velocity": 0.7401574803149606
        },
        {
          "duration": 0.19572326666661866,
          "durationTicks": 238,
          "midi": 35,
          "name": "B1",
          "ticks": 328080,
          "time": 269.802056,
          "velocity": 0.7401574803149606
        },
        {
          "duration": 0.1957232666666755,
          "durationTicks": 238,
          "midi": 35,
          "name": "B1",
          "ticks": 328320,
          "time": 269.999424,
          "velocity": 0.7401574803149606
        },
        {
          "duration": 0.1957232666666755,
          "durationTicks": 238,
          "midi": 35,
          "name": "B1",
          "ticks": 328560,
          "time": 270.19679199999996,
          "velocity": 0.7401574803149606
        },
        {
          "duration": 0.19572326666661866,
          "durationTicks": 238,
          "midi": 35,
          "name": "B1",
          "ticks": 328800,
          "time": 270.39416,
          "velocity": 0.7401574803149606
        },
        {
          "duration": 0.19572326666661866,
          "durationTicks": 238,
          "midi": 35,
          "name": "B1",
          "ticks": 329040,
          "time": 270.591528,
          "velocity": 0.7401574803149606
        },
        {
          "duration": 0.1957232666666755,
          "durationTicks": 238,
          "midi": 35,
          "name": "B1",
          "ticks": 329280,
          "time": 270.78889599999997,
          "velocity": 0.7401574803149606
        },
        {
          "duration": 0.19572326666661866,
          "durationTicks": 238,
          "midi": 35,
          "name": "B1",
          "ticks": 329520,
          "time": 270.986264,
          "velocity": 0.7401574803149606
        },
        {
          "duration": 0.19572326666661866,
          "durationTicks": 238,
          "midi": 35,
          "name": "B1",
          "ticks": 329760,
          "time": 271.183632,
          "velocity": 0.7401574803149606
        },
        {
          "duration": 0.1957232666666755,
          "durationTicks": 238,
          "midi": 35,
          "name": "B1",
          "ticks": 330000,
          "time": 271.381,
          "velocity": 0.7401574803149606
        },
        {
          "duration": 0.1957232666666755,
          "durationTicks": 238,
          "midi": 33,
          "name": "A1",
          "ticks": 330240,
          "time": 271.57836799999995,
          "velocity": 0.7401574803149606
        },
        {
          "duration": 0.19572326666661866,
          "durationTicks": 238,
          "midi": 33,
          "name": "A1",
          "ticks": 330480,
          "time": 271.775736,
          "velocity": 0.7401574803149606
        },
        {
          "duration": 0.1957232666666755,
          "durationTicks": 238,
          "midi": 33,
          "name": "A1",
          "ticks": 330720,
          "time": 271.973104,
          "velocity": 0.7401574803149606
        },
        {
          "duration": 0.1957232666666755,
          "durationTicks": 238,
          "midi": 33,
          "name": "A1",
          "ticks": 330960,
          "time": 272.17047199999996,
          "velocity": 0.7401574803149606
        },
        {
          "duration": 0.19572326666661866,
          "durationTicks": 238,
          "midi": 33,
          "name": "A1",
          "ticks": 331200,
          "time": 272.36784,
          "velocity": 0.7401574803149606
        },
        {
          "duration": 0.19572326666661866,
          "durationTicks": 238,
          "midi": 28,
          "name": "E1",
          "ticks": 331440,
          "time": 272.565208,
          "velocity": 0.7401574803149606
        },
        {
          "duration": 0.1957232666666755,
          "durationTicks": 238,
          "midi": 30,
          "name": "F#1",
          "ticks": 331680,
          "time": 272.76257599999997,
          "velocity": 0.7401574803149606
        },
        {
          "duration": 0.39309126666660177,
          "durationTicks": 478,
          "midi": 33,
          "name": "A1",
          "ticks": 331920,
          "time": 272.959944,
          "velocity": 0.7401574803149606
        },
        {
          "duration": 0.1957232666666755,
          "durationTicks": 238,
          "midi": 33,
          "name": "A1",
          "ticks": 332400,
          "time": 273.35468,
          "velocity": 0.7401574803149606
        },
        {
          "duration": 0.1957232666666755,
          "durationTicks": 238,
          "midi": 33,
          "name": "A1",
          "ticks": 332640,
          "time": 273.55204799999996,
          "velocity": 0.7401574803149606
        },
        {
          "duration": 0.19572326666661866,
          "durationTicks": 238,
          "midi": 33,
          "name": "A1",
          "ticks": 332880,
          "time": 273.749416,
          "velocity": 0.7401574803149606
        },
        {
          "duration": 0.1957232666666755,
          "durationTicks": 238,
          "midi": 33,
          "name": "A1",
          "ticks": 333120,
          "time": 273.946784,
          "velocity": 0.7401574803149606
        },
        {
          "duration": 0.1957232666666755,
          "durationTicks": 238,
          "midi": 33,
          "name": "A1",
          "ticks": 333360,
          "time": 274.14415199999996,
          "velocity": 0.7401574803149606
        },
        {
          "duration": 0.19572326666661866,
          "durationTicks": 238,
          "midi": 28,
          "name": "E1",
          "ticks": 333600,
          "time": 274.34152,
          "velocity": 0.7401574803149606
        },
        {
          "duration": 0.19572326666661866,
          "durationTicks": 238,
          "midi": 30,
          "name": "F#1",
          "ticks": 333840,
          "time": 274.538888,
          "velocity": 0.7401574803149606
        },
        {
          "duration": 0.1957232666666755,
          "durationTicks": 238,
          "midi": 31,
          "name": "G1",
          "ticks": 334080,
          "time": 274.73625599999997,
          "velocity": 0.7401574803149606
        },
        {
          "duration": 0.19572326666661866,
          "durationTicks": 238,
          "midi": 31,
          "name": "G1",
          "ticks": 334320,
          "time": 274.933624,
          "velocity": 0.7401574803149606
        },
        {
          "duration": 0.19572326666661866,
          "durationTicks": 238,
          "midi": 31,
          "name": "G1",
          "ticks": 334560,
          "time": 275.130992,
          "velocity": 0.7401574803149606
        },
        {
          "duration": 0.1957232666666755,
          "durationTicks": 238,
          "midi": 30,
          "name": "F#1",
          "ticks": 334800,
          "time": 275.32836,
          "velocity": 0.7401574803149606
        },
        {
          "duration": 0.1957232666666755,
          "durationTicks": 238,
          "midi": 28,
          "name": "E1",
          "ticks": 335040,
          "time": 275.52572799999996,
          "velocity": 0.7401574803149606
        },
        {
          "duration": 0.19572326666661866,
          "durationTicks": 238,
          "midi": 28,
          "name": "E1",
          "ticks": 335280,
          "time": 275.723096,
          "velocity": 0.7401574803149606
        },
        {
          "duration": 0.1957232666666755,
          "durationTicks": 238,
          "midi": 28,
          "name": "E1",
          "ticks": 335520,
          "time": 275.920464,
          "velocity": 0.7401574803149606
        },
        {
          "duration": 0.1957232666666755,
          "durationTicks": 238,
          "midi": 28,
          "name": "E1",
          "ticks": 335760,
          "time": 276.11783199999996,
          "velocity": 0.7401574803149606
        },
        {
          "duration": 0.19572326666661866,
          "durationTicks": 238,
          "midi": 28,
          "name": "E1",
          "ticks": 336000,
          "time": 276.3152,
          "velocity": 0.7401574803149606
        },
        {
          "duration": 0.19572326666661866,
          "durationTicks": 238,
          "midi": 28,
          "name": "E1",
          "ticks": 336240,
          "time": 276.512568,
          "velocity": 0.7401574803149606
        },
        {
          "duration": 0.1957232666666755,
          "durationTicks": 238,
          "midi": 28,
          "name": "E1",
          "ticks": 336480,
          "time": 276.70993599999997,
          "velocity": 0.7401574803149606
        },
        {
          "duration": 0.19572326666661866,
          "durationTicks": 238,
          "midi": 28,
          "name": "E1",
          "ticks": 336720,
          "time": 276.907304,
          "velocity": 0.7401574803149606
        },
        {
          "duration": 0.19572326666661866,
          "durationTicks": 238,
          "midi": 28,
          "name": "E1",
          "ticks": 336960,
          "time": 277.104672,
          "velocity": 0.7401574803149606
        },
        {
          "duration": 0.1957232666666755,
          "durationTicks": 238,
          "midi": 28,
          "name": "E1",
          "ticks": 337200,
          "time": 277.30204,
          "velocity": 0.7401574803149606
        },
        {
          "duration": 0.1957232666666755,
          "durationTicks": 238,
          "midi": 28,
          "name": "E1",
          "ticks": 337440,
          "time": 277.49940799999996,
          "velocity": 0.7401574803149606
        },
        {
          "duration": 0.19572326666661866,
          "durationTicks": 238,
          "midi": 28,
          "name": "E1",
          "ticks": 337680,
          "time": 277.696776,
          "velocity": 0.7401574803149606
        },
        {
          "duration": 0.19572326666661866,
          "durationTicks": 238,
          "midi": 28,
          "name": "E1",
          "ticks": 337920,
          "time": 277.894144,
          "velocity": 0.7401574803149606
        },
        {
          "duration": 0.1957232666666755,
          "durationTicks": 238,
          "midi": 28,
          "name": "E1",
          "ticks": 338160,
          "time": 278.09151199999997,
          "velocity": 0.7401574803149606
        },
        {
          "duration": 0.19572326666661866,
          "durationTicks": 238,
          "midi": 28,
          "name": "E1",
          "ticks": 338400,
          "time": 278.28888,
          "velocity": 0.7401574803149606
        },
        {
          "duration": 0.19572326666661866,
          "durationTicks": 238,
          "midi": 28,
          "name": "E1",
          "ticks": 338640,
          "time": 278.486248,
          "velocity": 0.7401574803149606
        },
        {
          "duration": 0.1957232666666755,
          "durationTicks": 238,
          "midi": 28,
          "name": "E1",
          "ticks": 338880,
          "time": 278.683616,
          "velocity": 0.7401574803149606
        },
        {
          "duration": 0.1957232666666755,
          "durationTicks": 238,
          "midi": 28,
          "name": "E1",
          "ticks": 339120,
          "time": 278.88098399999996,
          "velocity": 0.7401574803149606
        },
        {
          "duration": 0.19572326666661866,
          "durationTicks": 238,
          "midi": 28,
          "name": "E1",
          "ticks": 339360,
          "time": 279.078352,
          "velocity": 0.7401574803149606
        },
        {
          "duration": 0.1957232666666755,
          "durationTicks": 238,
          "midi": 28,
          "name": "E1",
          "ticks": 339600,
          "time": 279.27572,
          "velocity": 0.7401574803149606
        },
        {
          "duration": 0.1957232666666755,
          "durationTicks": 238,
          "midi": 28,
          "name": "E1",
          "ticks": 339840,
          "time": 279.47308799999996,
          "velocity": 0.7401574803149606
        },
        {
          "duration": 0.19572326666661866,
          "durationTicks": 238,
          "midi": 28,
          "name": "E1",
          "ticks": 340080,
          "time": 279.670456,
          "velocity": 0.7401574803149606
        },
        {
          "duration": 0.19572326666661866,
          "durationTicks": 238,
          "midi": 28,
          "name": "E1",
          "ticks": 340320,
          "time": 279.867824,
          "velocity": 0.7401574803149606
        },
        {
          "duration": 0.1957232666666755,
          "durationTicks": 238,
          "midi": 28,
          "name": "E1",
          "ticks": 340560,
          "time": 280.06519199999997,
          "velocity": 0.7401574803149606
        },
        {
          "duration": 0.19572326666661866,
          "durationTicks": 238,
          "midi": 40,
          "name": "E2",
          "ticks": 340800,
          "time": 280.26256,
          "velocity": 0.7401574803149606
        },
        {
          "duration": 0.19572326666661866,
          "durationTicks": 238,
          "midi": 38,
          "name": "D2",
          "ticks": 341040,
          "time": 280.459928,
          "velocity": 0.7401574803149606
        },
        {
          "duration": 0.1957232666666755,
          "durationTicks": 238,
          "midi": 35,
          "name": "B1",
          "ticks": 341280,
          "time": 280.657296,
          "velocity": 0.7401574803149606
        },
        {
          "duration": 0.1957232666666755,
          "durationTicks": 238,
          "midi": 35,
          "name": "B1",
          "ticks": 341520,
          "time": 280.85466399999996,
          "velocity": 0.7401574803149606
        },
        {
          "duration": 0.19572326666661866,
          "durationTicks": 238,
          "midi": 35,
          "name": "B1",
          "ticks": 341760,
          "time": 281.052032,
          "velocity": 0.7401574803149606
        },
        {
          "duration": 0.1957232666666755,
          "durationTicks": 238,
          "midi": 35,
          "name": "B1",
          "ticks": 342000,
          "time": 281.2494,
          "velocity": 0.7401574803149606
        },
        {
          "duration": 0.1957232666666755,
          "durationTicks": 238,
          "midi": 35,
          "name": "B1",
          "ticks": 342240,
          "time": 281.44676799999996,
          "velocity": 0.7401574803149606
        },
        {
          "duration": 0.19572326666661866,
          "durationTicks": 238,
          "midi": 35,
          "name": "B1",
          "ticks": 342480,
          "time": 281.644136,
          "velocity": 0.7401574803149606
        },
        {
          "duration": 0.19572326666661866,
          "durationTicks": 238,
          "midi": 35,
          "name": "B1",
          "ticks": 342720,
          "time": 281.841504,
          "velocity": 0.7401574803149606
        },
        {
          "duration": 0.1957232666666755,
          "durationTicks": 238,
          "midi": 35,
          "name": "B1",
          "ticks": 342960,
          "time": 282.03887199999997,
          "velocity": 0.7401574803149606
        },
        {
          "duration": 0.19572326666661866,
          "durationTicks": 238,
          "midi": 35,
          "name": "B1",
          "ticks": 343200,
          "time": 282.23624,
          "velocity": 0.7401574803149606
        },
        {
          "duration": 0.19572326666661866,
          "durationTicks": 238,
          "midi": 35,
          "name": "B1",
          "ticks": 343440,
          "time": 282.433608,
          "velocity": 0.7401574803149606
        },
        {
          "duration": 0.1957232666666755,
          "durationTicks": 238,
          "midi": 35,
          "name": "B1",
          "ticks": 343680,
          "time": 282.630976,
          "velocity": 0.7401574803149606
        },
        {
          "duration": 0.1957232666666755,
          "durationTicks": 238,
          "midi": 35,
          "name": "B1",
          "ticks": 343920,
          "time": 282.82834399999996,
          "velocity": 0.7401574803149606
        },
        {
          "duration": 0.19572326666661866,
          "durationTicks": 238,
          "midi": 35,
          "name": "B1",
          "ticks": 344160,
          "time": 283.025712,
          "velocity": 0.7401574803149606
        },
        {
          "duration": 0.19572326666661866,
          "durationTicks": 238,
          "midi": 35,
          "name": "B1",
          "ticks": 344400,
          "time": 283.22308,
          "velocity": 0.7401574803149606
        },
        {
          "duration": 0.1957232666666755,
          "durationTicks": 238,
          "midi": 35,
          "name": "B1",
          "ticks": 344640,
          "time": 283.42044799999996,
          "velocity": 0.7401574803149606
        },
        {
          "duration": 0.19572326666661866,
          "durationTicks": 238,
          "midi": 35,
          "name": "B1",
          "ticks": 344880,
          "time": 283.617816,
          "velocity": 0.7401574803149606
        },
        {
          "duration": 0.19572326666661866,
          "durationTicks": 238,
          "midi": 35,
          "name": "B1",
          "ticks": 345120,
          "time": 283.815184,
          "velocity": 0.7401574803149606
        },
        {
          "duration": 0.1957232666666755,
          "durationTicks": 238,
          "midi": 35,
          "name": "B1",
          "ticks": 345360,
          "time": 284.01255199999997,
          "velocity": 0.7401574803149606
        },
        {
          "duration": 0.19572326666661866,
          "durationTicks": 238,
          "midi": 35,
          "name": "B1",
          "ticks": 345600,
          "time": 284.20992,
          "velocity": 0.7401574803149606
        },
        {
          "duration": 0.19572326666661866,
          "durationTicks": 238,
          "midi": 35,
          "name": "B1",
          "ticks": 345840,
          "time": 284.407288,
          "velocity": 0.7401574803149606
        },
        {
          "duration": 0.1957232666666755,
          "durationTicks": 238,
          "midi": 35,
          "name": "B1",
          "ticks": 346080,
          "time": 284.604656,
          "velocity": 0.7401574803149606
        },
        {
          "duration": 0.1957232666666755,
          "durationTicks": 238,
          "midi": 35,
          "name": "B1",
          "ticks": 346320,
          "time": 284.80202399999996,
          "velocity": 0.7401574803149606
        },
        {
          "duration": 0.19572326666661866,
          "durationTicks": 238,
          "midi": 35,
          "name": "B1",
          "ticks": 346560,
          "time": 284.999392,
          "velocity": 0.7401574803149606
        },
        {
          "duration": 0.19572326666661866,
          "durationTicks": 238,
          "midi": 35,
          "name": "B1",
          "ticks": 346800,
          "time": 285.19676,
          "velocity": 0.7401574803149606
        },
        {
          "duration": 0.1957232666666755,
          "durationTicks": 238,
          "midi": 35,
          "name": "B1",
          "ticks": 347040,
          "time": 285.39412799999997,
          "velocity": 0.7401574803149606
        },
        {
          "duration": 0.19572326666661866,
          "durationTicks": 238,
          "midi": 35,
          "name": "B1",
          "ticks": 347280,
          "time": 285.591496,
          "velocity": 0.7401574803149606
        },
        {
          "duration": 0.19572326666661866,
          "durationTicks": 238,
          "midi": 35,
          "name": "B1",
          "ticks": 347520,
          "time": 285.788864,
          "velocity": 0.7401574803149606
        },
        {
          "duration": 0.1957232666666755,
          "durationTicks": 238,
          "midi": 35,
          "name": "B1",
          "ticks": 347760,
          "time": 285.986232,
          "velocity": 0.7401574803149606
        },
        {
          "duration": 0.1957232666666755,
          "durationTicks": 238,
          "midi": 35,
          "name": "B1",
          "ticks": 348000,
          "time": 286.18359999999996,
          "velocity": 0.7401574803149606
        },
        {
          "duration": 0.19572326666661866,
          "durationTicks": 238,
          "midi": 35,
          "name": "B1",
          "ticks": 348240,
          "time": 286.380968,
          "velocity": 0.7401574803149606
        },
        {
          "duration": 0.1957232666666755,
          "durationTicks": 238,
          "midi": 35,
          "name": "B1",
          "ticks": 348480,
          "time": 286.578336,
          "velocity": 0.7401574803149606
        },
        {
          "duration": 0.1957232666666755,
          "durationTicks": 238,
          "midi": 35,
          "name": "B1",
          "ticks": 348720,
          "time": 286.77570399999996,
          "velocity": 0.7401574803149606
        },
        {
          "duration": 0.19572326666661866,
          "durationTicks": 238,
          "midi": 35,
          "name": "B1",
          "ticks": 348960,
          "time": 286.973072,
          "velocity": 0.7401574803149606
        },
        {
          "duration": 0.19572326666661866,
          "durationTicks": 238,
          "midi": 35,
          "name": "B1",
          "ticks": 349200,
          "time": 287.17044,
          "velocity": 0.7401574803149606
        },
        {
          "duration": 0.1957232666666755,
          "durationTicks": 238,
          "midi": 36,
          "name": "C2",
          "ticks": 349440,
          "time": 287.36780799999997,
          "velocity": 0.7401574803149606
        },
        {
          "duration": 0.19572326666661866,
          "durationTicks": 238,
          "midi": 36,
          "name": "C2",
          "ticks": 349680,
          "time": 287.565176,
          "velocity": 0.7401574803149606
        },
        {
          "duration": 0.19572326666661866,
          "durationTicks": 238,
          "midi": 36,
          "name": "C2",
          "ticks": 349920,
          "time": 287.762544,
          "velocity": 0.7401574803149606
        },
        {
          "duration": 0.1957232666666755,
          "durationTicks": 238,
          "midi": 36,
          "name": "C2",
          "ticks": 350160,
          "time": 287.959912,
          "velocity": 0.7401574803149606
        },
        {
          "duration": 0.1957232666666755,
          "durationTicks": 238,
          "midi": 36,
          "name": "C2",
          "ticks": 350400,
          "time": 288.15727999999996,
          "velocity": 0.7401574803149606
        },
        {
          "duration": 0.19572326666661866,
          "durationTicks": 238,
          "midi": 36,
          "name": "C2",
          "ticks": 350640,
          "time": 288.354648,
          "velocity": 0.7401574803149606
        },
        {
          "duration": 0.1957232666666755,
          "durationTicks": 238,
          "midi": 36,
          "name": "C2",
          "ticks": 350880,
          "time": 288.552016,
          "velocity": 0.7401574803149606
        },
        {
          "duration": 0.1957232666666755,
          "durationTicks": 238,
          "midi": 36,
          "name": "C2",
          "ticks": 351120,
          "time": 288.74938399999996,
          "velocity": 0.7401574803149606
        },
        {
          "duration": 0.19572326666661866,
          "durationTicks": 238,
          "midi": 36,
          "name": "C2",
          "ticks": 351360,
          "time": 288.946752,
          "velocity": 0.7401574803149606
        },
        {
          "duration": 0.19572326666661866,
          "durationTicks": 238,
          "midi": 36,
          "name": "C2",
          "ticks": 351600,
          "time": 289.14412,
          "velocity": 0.7401574803149606
        },
        {
          "duration": 0.1957232666666755,
          "durationTicks": 238,
          "midi": 36,
          "name": "C2",
          "ticks": 351840,
          "time": 289.34148799999997,
          "velocity": 0.7401574803149606
        },
        {
          "duration": 0.19572326666661866,
          "durationTicks": 238,
          "midi": 36,
          "name": "C2",
          "ticks": 352080,
          "time": 289.538856,
          "velocity": 0.7401574803149606
        },
        {
          "duration": 0.19572326666661866,
          "durationTicks": 238,
          "midi": 36,
          "name": "C2",
          "ticks": 352320,
          "time": 289.736224,
          "velocity": 0.7401574803149606
        },
        {
          "duration": 0.1957232666666755,
          "durationTicks": 238,
          "midi": 36,
          "name": "C2",
          "ticks": 352560,
          "time": 289.933592,
          "velocity": 0.7401574803149606
        },
        {
          "duration": 0.1957232666666755,
          "durationTicks": 238,
          "midi": 36,
          "name": "C2",
          "ticks": 352800,
          "time": 290.13095999999996,
          "velocity": 0.7401574803149606
        },
        {
          "duration": 0.19572326666661866,
          "durationTicks": 238,
          "midi": 36,
          "name": "C2",
          "ticks": 353040,
          "time": 290.328328,
          "velocity": 0.7401574803149606
        },
        {
          "duration": 0.19572326666661866,
          "durationTicks": 238,
          "midi": 35,
          "name": "B1",
          "ticks": 353280,
          "time": 290.525696,
          "velocity": 0.7401574803149606
        },
        {
          "duration": 0.1957232666666755,
          "durationTicks": 238,
          "midi": 35,
          "name": "B1",
          "ticks": 353520,
          "time": 290.72306399999997,
          "velocity": 0.7401574803149606
        },
        {
          "duration": 0.19572326666661866,
          "durationTicks": 238,
          "midi": 35,
          "name": "B1",
          "ticks": 353760,
          "time": 290.920432,
          "velocity": 0.7401574803149606
        },
        {
          "duration": 0.19572326666661866,
          "durationTicks": 238,
          "midi": 35,
          "name": "B1",
          "ticks": 354000,
          "time": 291.1178,
          "velocity": 0.7401574803149606
        },
        {
          "duration": 0.1957232666666755,
          "durationTicks": 238,
          "midi": 35,
          "name": "B1",
          "ticks": 354240,
          "time": 291.31516799999997,
          "velocity": 0.7401574803149606
        },
        {
          "duration": 0.1957232666666755,
          "durationTicks": 238,
          "midi": 35,
          "name": "B1",
          "ticks": 354480,
          "time": 291.51253599999995,
          "velocity": 0.7401574803149606
        },
        {
          "duration": 0.19572326666661866,
          "durationTicks": 238,
          "midi": 35,
          "name": "B1",
          "ticks": 354720,
          "time": 291.709904,
          "velocity": 0.7401574803149606
        },
        {
          "duration": 0.1957232666666755,
          "durationTicks": 238,
          "midi": 35,
          "name": "B1",
          "ticks": 354960,
          "time": 291.907272,
          "velocity": 0.7401574803149606
        },
        {
          "duration": 0.1957232666666755,
          "durationTicks": 238,
          "midi": 35,
          "name": "B1",
          "ticks": 355200,
          "time": 292.10463999999996,
          "velocity": 0.7401574803149606
        },
        {
          "duration": 0.19572326666661866,
          "durationTicks": 238,
          "midi": 35,
          "name": "B1",
          "ticks": 355440,
          "time": 292.302008,
          "velocity": 0.7401574803149606
        },
        {
          "duration": 0.19572326666661866,
          "durationTicks": 238,
          "midi": 35,
          "name": "B1",
          "ticks": 355680,
          "time": 292.499376,
          "velocity": 0.7401574803149606
        },
        {
          "duration": 0.1957232666666755,
          "durationTicks": 238,
          "midi": 35,
          "name": "B1",
          "ticks": 355920,
          "time": 292.69674399999997,
          "velocity": 0.7401574803149606
        },
        {
          "duration": 0.19572326666661866,
          "durationTicks": 238,
          "midi": 35,
          "name": "B1",
          "ticks": 356160,
          "time": 292.894112,
          "velocity": 0.7401574803149606
        },
        {
          "duration": 0.19572326666661866,
          "durationTicks": 238,
          "midi": 35,
          "name": "B1",
          "ticks": 356400,
          "time": 293.09148,
          "velocity": 0.7401574803149606
        },
        {
          "duration": 0.1957232666666755,
          "durationTicks": 238,
          "midi": 35,
          "name": "B1",
          "ticks": 356640,
          "time": 293.288848,
          "velocity": 0.7401574803149606
        },
        {
          "duration": 0.1957232666666755,
          "durationTicks": 238,
          "midi": 35,
          "name": "B1",
          "ticks": 356880,
          "time": 293.48621599999996,
          "velocity": 0.7401574803149606
        },
        {
          "duration": 0.19572326666661866,
          "durationTicks": 238,
          "midi": 33,
          "name": "A1",
          "ticks": 357120,
          "time": 293.683584,
          "velocity": 0.7401574803149606
        },
        {
          "duration": 0.1957232666666755,
          "durationTicks": 238,
          "midi": 33,
          "name": "A1",
          "ticks": 357360,
          "time": 293.880952,
          "velocity": 0.7401574803149606
        },
        {
          "duration": 0.1957232666666755,
          "durationTicks": 238,
          "midi": 33,
          "name": "A1",
          "ticks": 357600,
          "time": 294.07831999999996,
          "velocity": 0.7401574803149606
        },
        {
          "duration": 0.19572326666661866,
          "durationTicks": 238,
          "midi": 33,
          "name": "A1",
          "ticks": 357840,
          "time": 294.275688,
          "velocity": 0.7401574803149606
        },
        {
          "duration": 0.19572326666661866,
          "durationTicks": 238,
          "midi": 33,
          "name": "A1",
          "ticks": 358080,
          "time": 294.473056,
          "velocity": 0.7401574803149606
        },
        {
          "duration": 0.1957232666666755,
          "durationTicks": 238,
          "midi": 28,
          "name": "E1",
          "ticks": 358320,
          "time": 294.67042399999997,
          "velocity": 0.7401574803149606
        },
        {
          "duration": 0.19572326666661866,
          "durationTicks": 238,
          "midi": 30,
          "name": "F#1",
          "ticks": 358560,
          "time": 294.867792,
          "velocity": 0.7401574803149606
        },
        {
          "duration": 0.3930912666666586,
          "durationTicks": 478,
          "midi": 33,
          "name": "A1",
          "ticks": 358800,
          "time": 295.06516,
          "velocity": 0.7401574803149606
        },
        {
          "duration": 0.1957232666666755,
          "durationTicks": 238,
          "midi": 33,
          "name": "A1",
          "ticks": 359280,
          "time": 295.45989599999996,
          "velocity": 0.7401574803149606
        },
        {
          "duration": 0.19572326666661866,
          "durationTicks": 238,
          "midi": 33,
          "name": "A1",
          "ticks": 359520,
          "time": 295.657264,
          "velocity": 0.7401574803149606
        },
        {
          "duration": 0.19572326666661866,
          "durationTicks": 238,
          "midi": 33,
          "name": "A1",
          "ticks": 359760,
          "time": 295.854632,
          "velocity": 0.7401574803149606
        },
        {
          "duration": 0.1957232666666755,
          "durationTicks": 238,
          "midi": 33,
          "name": "A1",
          "ticks": 360000,
          "time": 296.05199999999996,
          "velocity": 0.7401574803149606
        },
        {
          "duration": 0.19572326666661866,
          "durationTicks": 238,
          "midi": 33,
          "name": "A1",
          "ticks": 360240,
          "time": 296.249368,
          "velocity": 0.7401574803149606
        },
        {
          "duration": 0.19572326666661866,
          "durationTicks": 238,
          "midi": 28,
          "name": "E1",
          "ticks": 360480,
          "time": 296.446736,
          "velocity": 0.7401574803149606
        },
        {
          "duration": 0.1957232666666755,
          "durationTicks": 238,
          "midi": 30,
          "name": "F#1",
          "ticks": 360720,
          "time": 296.64410399999997,
          "velocity": 0.7401574803149606
        },
        {
          "duration": 0.1957232666666755,
          "durationTicks": 238,
          "midi": 31,
          "name": "G1",
          "ticks": 360960,
          "time": 296.84147199999995,
          "velocity": 0.7401574803149606
        },
        {
          "duration": 0.19572326666661866,
          "durationTicks": 238,
          "midi": 31,
          "name": "G1",
          "ticks": 361200,
          "time": 297.03884,
          "velocity": 0.7401574803149606
        },
        {
          "duration": 0.1957232666666755,
          "durationTicks": 238,
          "midi": 31,
          "name": "G1",
          "ticks": 361440,
          "time": 297.236208,
          "velocity": 0.7401574803149606
        },
        {
          "duration": 0.1957232666666755,
          "durationTicks": 238,
          "midi": 30,
          "name": "F#1",
          "ticks": 361680,
          "time": 297.43357599999996,
          "velocity": 0.7401574803149606
        },
        {
          "duration": 0.19572326666661866,
          "durationTicks": 238,
          "midi": 28,
          "name": "E1",
          "ticks": 361920,
          "time": 297.630944,
          "velocity": 0.7401574803149606
        },
        {
          "duration": 0.19572326666661866,
          "durationTicks": 238,
          "midi": 28,
          "name": "E1",
          "ticks": 362160,
          "time": 297.828312,
          "velocity": 0.7401574803149606
        },
        {
          "duration": 0.1957232666666755,
          "durationTicks": 238,
          "midi": 28,
          "name": "E1",
          "ticks": 362400,
          "time": 298.02567999999997,
          "velocity": 0.7401574803149606
        },
        {
          "duration": 0.19572326666661866,
          "durationTicks": 238,
          "midi": 28,
          "name": "E1",
          "ticks": 362640,
          "time": 298.223048,
          "velocity": 0.7401574803149606
        },
        {
          "duration": 0.19572326666661866,
          "durationTicks": 238,
          "midi": 28,
          "name": "E1",
          "ticks": 362880,
          "time": 298.420416,
          "velocity": 0.7401574803149606
        },
        {
          "duration": 0.1957232666666755,
          "durationTicks": 238,
          "midi": 28,
          "name": "E1",
          "ticks": 363120,
          "time": 298.617784,
          "velocity": 0.7401574803149606
        },
        {
          "duration": 0.1957232666666755,
          "durationTicks": 238,
          "midi": 28,
          "name": "E1",
          "ticks": 363360,
          "time": 298.81515199999996,
          "velocity": 0.7401574803149606
        },
        {
          "duration": 0.19572326666661866,
          "durationTicks": 238,
          "midi": 28,
          "name": "E1",
          "ticks": 363600,
          "time": 299.01252,
          "velocity": 0.7401574803149606
        },
        {
          "duration": 0.1957232666666755,
          "durationTicks": 238,
          "midi": 28,
          "name": "E1",
          "ticks": 363840,
          "time": 299.209888,
          "velocity": 0.7401574803149606
        },
        {
          "duration": 0.1957232666666755,
          "durationTicks": 238,
          "midi": 28,
          "name": "E1",
          "ticks": 364080,
          "time": 299.40725599999996,
          "velocity": 0.7401574803149606
        },
        {
          "duration": 0.19572326666661866,
          "durationTicks": 238,
          "midi": 28,
          "name": "E1",
          "ticks": 364320,
          "time": 299.604624,
          "velocity": 0.7401574803149606
        },
        {
          "duration": 0.19572326666661866,
          "durationTicks": 238,
          "midi": 28,
          "name": "E1",
          "ticks": 364560,
          "time": 299.801992,
          "velocity": 0.7401574803149606
        },
        {
          "duration": 0.1957232666666755,
          "durationTicks": 238,
          "midi": 28,
          "name": "E1",
          "ticks": 364800,
          "time": 299.99935999999997,
          "velocity": 0.7401574803149606
        },
        {
          "duration": 0.19572326666661866,
          "durationTicks": 238,
          "midi": 28,
          "name": "E1",
          "ticks": 365040,
          "time": 300.196728,
          "velocity": 0.7401574803149606
        },
        {
          "duration": 0.19572326666661866,
          "durationTicks": 238,
          "midi": 28,
          "name": "E1",
          "ticks": 365280,
          "time": 300.394096,
          "velocity": 0.7401574803149606
        },
        {
          "duration": 0.1957232666666755,
          "durationTicks": 238,
          "midi": 28,
          "name": "E1",
          "ticks": 365520,
          "time": 300.591464,
          "velocity": 0.7401574803149606
        },
        {
          "duration": 0.1957232666666755,
          "durationTicks": 238,
          "midi": 28,
          "name": "E1",
          "ticks": 365760,
          "time": 300.78883199999996,
          "velocity": 0.7401574803149606
        },
        {
          "duration": 0.19572326666661866,
          "durationTicks": 238,
          "midi": 28,
          "name": "E1",
          "ticks": 366000,
          "time": 300.9862,
          "velocity": 0.7401574803149606
        },
        {
          "duration": 0.1957232666666755,
          "durationTicks": 238,
          "midi": 28,
          "name": "E1",
          "ticks": 366240,
          "time": 301.183568,
          "velocity": 0.7401574803149606
        },
        {
          "duration": 0.1957232666666755,
          "durationTicks": 238,
          "midi": 28,
          "name": "E1",
          "ticks": 366480,
          "time": 301.38093599999996,
          "velocity": 0.7401574803149606
        },
        {
          "duration": 0.19572326666661866,
          "durationTicks": 238,
          "midi": 28,
          "name": "E1",
          "ticks": 366720,
          "time": 301.578304,
          "velocity": 0.7401574803149606
        },
        {
          "duration": 0.19572326666661866,
          "durationTicks": 238,
          "midi": 28,
          "name": "E1",
          "ticks": 366960,
          "time": 301.775672,
          "velocity": 0.7401574803149606
        },
        {
          "duration": 0.1957232666666755,
          "durationTicks": 238,
          "midi": 28,
          "name": "E1",
          "ticks": 367200,
          "time": 301.97303999999997,
          "velocity": 0.7401574803149606
        },
        {
          "duration": 0.19572326666661866,
          "durationTicks": 238,
          "midi": 28,
          "name": "E1",
          "ticks": 367440,
          "time": 302.170408,
          "velocity": 0.7401574803149606
        },
        {
          "duration": 0.19572326666661866,
          "durationTicks": 238,
          "midi": 40,
          "name": "E2",
          "ticks": 367680,
          "time": 302.367776,
          "velocity": 0.7401574803149606
        },
        {
          "duration": 0.1957232666666755,
          "durationTicks": 238,
          "midi": 38,
          "name": "D2",
          "ticks": 367920,
          "time": 302.565144,
          "velocity": 0.7401574803149606
        },
        {
          "duration": 0.1957232666666755,
          "durationTicks": 238,
          "midi": 35,
          "name": "B1",
          "ticks": 368160,
          "time": 302.76251199999996,
          "velocity": 0.7401574803149606
        },
        {
          "duration": 1.5772992666666141,
          "durationTicks": 1918,
          "midi": 35,
          "name": "B1",
          "ticks": 368400,
          "time": 302.95988,
          "velocity": 0.7401574803149606
        }
      ]
    },
    {
      "channel": 9,
      "controlChanges": {
        "7": [
          {
            "number": 7,
            "ticks": 0,
            "time": 0,
            "value": 0.8188976377952756
          }
        ],
        "121": [
          {
            "number": 121,
            "ticks": 0,
            "time": 0,
            "value": 0
          }
        ],
        "123": [
          {
            "number": 123,
            "ticks": 0,
            "time": 0,
            "value": 0
          }
        ]
      },
      "pitchBends": [],
      "instrument": {
        "family": "drums",
        "number": 0,
        "name": "standard kit"
      },
      "name": "Philip Selway",
      "notes": [
        {
          "duration": 0.39309126666666666,
          "durationTicks": 478,
          "midi": 37,
          "name": "C#2",
          "ticks": 0,
          "time": 0,
          "velocity": 0.48031496062992124
        },
        {
          "duration": 0.3930912666666666,
          "durationTicks": 478,
          "midi": 37,
          "name": "C#2",
          "ticks": 480,
          "time": 0.394736,
          "velocity": 0.48031496062992124
        },
        {
          "duration": 0.3930912666666666,
          "durationTicks": 478,
          "midi": 37,
          "name": "C#2",
          "ticks": 960,
          "time": 0.789472,
          "velocity": 0.48031496062992124
        },
        {
          "duration": 0.3930912666666666,
          "durationTicks": 478,
          "midi": 37,
          "name": "C#2",
          "ticks": 1440,
          "time": 1.184208,
          "velocity": 0.48031496062992124
        },
        {
          "duration": 0.19572326666666684,
          "durationTicks": 238,
          "midi": 35,
          "name": "B1",
          "ticks": 1920,
          "time": 1.578944,
          "velocity": 0.8031496062992126
        },
        {
          "duration": 0.19572326666666684,
          "durationTicks": 238,
          "midi": 42,
          "name": "F#2",
          "ticks": 1920,
          "time": 1.578944,
          "velocity": 0.6456692913385826
        },
        {
          "duration": 0.19572326666666684,
          "durationTicks": 238,
          "midi": 35,
          "name": "B1",
          "ticks": 2160,
          "time": 1.776312,
          "velocity": 0.8031496062992126
        },
        {
          "duration": 0.19572326666666684,
          "durationTicks": 238,
          "midi": 42,
          "name": "F#2",
          "ticks": 2160,
          "time": 1.776312,
          "velocity": 0.6456692913385826
        },
        {
          "duration": 0.19572326666666662,
          "durationTicks": 238,
          "midi": 37,
          "name": "C#2",
          "ticks": 2400,
          "time": 1.9736799999999999,
          "velocity": 0.8031496062992126
        },
        {
          "duration": 0.19572326666666662,
          "durationTicks": 238,
          "midi": 42,
          "name": "F#2",
          "ticks": 2400,
          "time": 1.9736799999999999,
          "velocity": 0.6456692913385826
        },
        {
          "duration": 0.09703926666666662,
          "durationTicks": 118,
          "midi": 42,
          "name": "F#2",
          "ticks": 2640,
          "time": 2.171048,
          "velocity": 0.6456692913385826
        },
        {
          "duration": 0.09703926666666662,
          "durationTicks": 118,
          "midi": 37,
          "name": "C#2",
          "ticks": 2760,
          "time": 2.269732,
          "velocity": 0.8031496062992126
        },
        {
          "duration": 0.19572326666666662,
          "durationTicks": 238,
          "midi": 42,
          "name": "F#2",
          "ticks": 2880,
          "time": 2.368416,
          "velocity": 0.6456692913385826
        },
        {
          "duration": 0.19572326666666662,
          "durationTicks": 238,
          "midi": 42,
          "name": "F#2",
          "ticks": 3120,
          "time": 2.565784,
          "velocity": 0.6456692913385826
        },
        {
          "duration": 0.19572326666666662,
          "durationTicks": 238,
          "midi": 37,
          "name": "C#2",
          "ticks": 3360,
          "time": 2.763152,
          "velocity": 0.8031496062992126
        },
        {
          "duration": 0.19572326666666662,
          "durationTicks": 238,
          "midi": 42,
          "name": "F#2",
          "ticks": 3360,
          "time": 2.763152,
          "velocity": 0.6456692913385826
        },
        {
          "duration": 0.09703926666666662,
          "durationTicks": 118,
          "midi": 42,
          "name": "F#2",
          "ticks": 3600,
          "time": 2.96052,
          "velocity": 0.6456692913385826
        },
        {
          "duration": 0.09703926666666662,
          "durationTicks": 118,
          "midi": 37,
          "name": "C#2",
          "ticks": 3720,
          "time": 3.059204,
          "velocity": 0.8031496062992126
        },
        {
          "duration": 0.19572326666666662,
          "durationTicks": 238,
          "midi": 42,
          "name": "F#2",
          "ticks": 3840,
          "time": 3.157888,
          "velocity": 0.6456692913385826
        },
        {
          "duration": 0.19572326666666662,
          "durationTicks": 238,
          "midi": 42,
          "name": "F#2",
          "ticks": 4080,
          "time": 3.355256,
          "velocity": 0.6456692913385826
        },
        {
          "duration": 0.19572326666666662,
          "durationTicks": 238,
          "midi": 37,
          "name": "C#2",
          "ticks": 4320,
          "time": 3.552624,
          "velocity": 0.8031496062992126
        },
        {
          "duration": 0.19572326666666662,
          "durationTicks": 238,
          "midi": 42,
          "name": "F#2",
          "ticks": 4320,
          "time": 3.552624,
          "velocity": 0.6456692913385826
        },
        {
          "duration": 0.09703926666666662,
          "durationTicks": 118,
          "midi": 42,
          "name": "F#2",
          "ticks": 4560,
          "time": 3.7499919999999998,
          "velocity": 0.6456692913385826
        },
        {
          "duration": 0.09703926666666662,
          "durationTicks": 118,
          "midi": 37,
          "name": "C#2",
          "ticks": 4680,
          "time": 3.8486759999999998,
          "velocity": 0.8031496062992126
        },
        {
          "duration": 0.19572326666666662,
          "durationTicks": 238,
          "midi": 42,
          "name": "F#2",
          "ticks": 4800,
          "time": 3.9473599999999998,
          "velocity": 0.6456692913385826
        },
        {
          "duration": 0.19572326666666662,
          "durationTicks": 238,
          "midi": 42,
          "name": "F#2",
          "ticks": 5040,
          "time": 4.144728,
          "velocity": 0.6456692913385826
        },
        {
          "duration": 0.19572326666666662,
          "durationTicks": 238,
          "midi": 37,
          "name": "C#2",
          "ticks": 5280,
          "time": 4.342096,
          "velocity": 0.8031496062992126
        },
        {
          "duration": 0.19572326666666662,
          "durationTicks": 238,
          "midi": 42,
          "name": "F#2",
          "ticks": 5280,
          "time": 4.342096,
          "velocity": 0.6456692913385826
        },
        {
          "duration": 0.09703926666666707,
          "durationTicks": 118,
          "midi": 42,
          "name": "F#2",
          "ticks": 5520,
          "time": 4.539464,
          "velocity": 0.6456692913385826
        },
        {
          "duration": 0.09703926666666707,
          "durationTicks": 118,
          "midi": 37,
          "name": "C#2",
          "ticks": 5640,
          "time": 4.638147999999999,
          "velocity": 0.8031496062992126
        },
        {
          "duration": 0.19572326666666662,
          "durationTicks": 238,
          "midi": 35,
          "name": "B1",
          "ticks": 5760,
          "time": 4.736832,
          "velocity": 0.8031496062992126
        },
        {
          "duration": 0.19572326666666662,
          "durationTicks": 238,
          "midi": 42,
          "name": "F#2",
          "ticks": 5760,
          "time": 4.736832,
          "velocity": 0.6456692913385826
        },
        {
          "duration": 0.19572326666666662,
          "durationTicks": 238,
          "midi": 42,
          "name": "F#2",
          "ticks": 6000,
          "time": 4.9342,
          "velocity": 0.6456692913385826
        },
        {
          "duration": 0.19572326666666662,
          "durationTicks": 238,
          "midi": 37,
          "name": "C#2",
          "ticks": 6240,
          "time": 5.131568,
          "velocity": 0.8031496062992126
        },
        {
          "duration": 0.19572326666666662,
          "durationTicks": 238,
          "midi": 42,
          "name": "F#2",
          "ticks": 6240,
          "time": 5.131568,
          "velocity": 0.6456692913385826
        },
        {
          "duration": 0.09703926666666707,
          "durationTicks": 118,
          "midi": 42,
          "name": "F#2",
          "ticks": 6480,
          "time": 5.328936,
          "velocity": 0.6456692913385826
        },
        {
          "duration": 0.09703926666666707,
          "durationTicks": 118,
          "midi": 37,
          "name": "C#2",
          "ticks": 6600,
          "time": 5.427619999999999,
          "velocity": 0.8031496062992126
        },
        {
          "duration": 0.19572326666666662,
          "durationTicks": 238,
          "midi": 42,
          "name": "F#2",
          "ticks": 6720,
          "time": 5.526304,
          "velocity": 0.6456692913385826
        },
        {
          "duration": 0.19572326666666662,
          "durationTicks": 238,
          "midi": 42,
          "name": "F#2",
          "ticks": 6960,
          "time": 5.723672,
          "velocity": 0.6456692913385826
        },
        {
          "duration": 0.19572326666666662,
          "durationTicks": 238,
          "midi": 37,
          "name": "C#2",
          "ticks": 7200,
          "time": 5.92104,
          "velocity": 0.8031496062992126
        },
        {
          "duration": 0.19572326666666662,
          "durationTicks": 238,
          "midi": 42,
          "name": "F#2",
          "ticks": 7200,
          "time": 5.92104,
          "velocity": 0.6456692913385826
        },
        {
          "duration": 0.09703926666666707,
          "durationTicks": 118,
          "midi": 42,
          "name": "F#2",
          "ticks": 7440,
          "time": 6.118408,
          "velocity": 0.6456692913385826
        },
        {
          "duration": 0.09703926666666707,
          "durationTicks": 118,
          "midi": 37,
          "name": "C#2",
          "ticks": 7560,
          "time": 6.217091999999999,
          "velocity": 0.8031496062992126
        },
        {
          "duration": 0.19572326666666662,
          "durationTicks": 238,
          "midi": 42,
          "name": "F#2",
          "ticks": 7680,
          "time": 6.315776,
          "velocity": 0.6456692913385826
        },
        {
          "duration": 0.19572326666666662,
          "durationTicks": 238,
          "midi": 42,
          "name": "F#2",
          "ticks": 7920,
          "time": 6.513144,
          "velocity": 0.6456692913385826
        },
        {
          "duration": 0.19572326666666662,
          "durationTicks": 238,
          "midi": 37,
          "name": "C#2",
          "ticks": 8160,
          "time": 6.710512,
          "velocity": 0.8031496062992126
        },
        {
          "duration": 0.19572326666666662,
          "durationTicks": 238,
          "midi": 42,
          "name": "F#2",
          "ticks": 8160,
          "time": 6.710512,
          "velocity": 0.6456692913385826
        },
        {
          "duration": 0.09703926666666707,
          "durationTicks": 118,
          "midi": 42,
          "name": "F#2",
          "ticks": 8400,
          "time": 6.90788,
          "velocity": 0.6456692913385826
        },
        {
          "duration": 0.09703926666666707,
          "durationTicks": 118,
          "midi": 37,
          "name": "C#2",
          "ticks": 8520,
          "time": 7.006563999999999,
          "velocity": 0.8031496062992126
        },
        {
          "duration": 0.19572326666666662,
          "durationTicks": 238,
          "midi": 42,
          "name": "F#2",
          "ticks": 8640,
          "time": 7.105248,
          "velocity": 0.6456692913385826
        },
        {
          "duration": 0.19572326666666662,
          "durationTicks": 238,
          "midi": 42,
          "name": "F#2",
          "ticks": 8880,
          "time": 7.3026159999999996,
          "velocity": 0.6456692913385826
        },
        {
          "duration": 0.19572326666666662,
          "durationTicks": 238,
          "midi": 37,
          "name": "C#2",
          "ticks": 9120,
          "time": 7.4999839999999995,
          "velocity": 0.8031496062992126
        },
        {
          "duration": 0.19572326666666662,
          "durationTicks": 238,
          "midi": 42,
          "name": "F#2",
          "ticks": 9120,
          "time": 7.4999839999999995,
          "velocity": 0.6456692913385826
        },
        {
          "duration": 0.09703926666666707,
          "durationTicks": 118,
          "midi": 42,
          "name": "F#2",
          "ticks": 9360,
          "time": 7.6973519999999995,
          "velocity": 0.6456692913385826
        },
        {
          "duration": 0.09703926666666707,
          "durationTicks": 118,
          "midi": 37,
          "name": "C#2",
          "ticks": 9480,
          "time": 7.796035999999999,
          "velocity": 0.8031496062992126
        },
        {
          "duration": 0.19572326666666662,
          "durationTicks": 238,
          "midi": 35,
          "name": "B1",
          "ticks": 9600,
          "time": 7.8947199999999995,
          "velocity": 0.8031496062992126
        },
        {
          "duration": 0.19572326666666662,
          "durationTicks": 238,
          "midi": 42,
          "name": "F#2",
          "ticks": 9600,
          "time": 7.8947199999999995,
          "velocity": 0.6456692913385826
        },
        {
          "duration": 0.19572326666666662,
          "durationTicks": 238,
          "midi": 35,
          "name": "B1",
          "ticks": 9840,
          "time": 8.092088,
          "velocity": 0.8031496062992126
        },
        {
          "duration": 0.19572326666666662,
          "durationTicks": 238,
          "midi": 42,
          "name": "F#2",
          "ticks": 9840,
          "time": 8.092088,
          "velocity": 0.6456692913385826
        },
        {
          "duration": 0.19572326666666662,
          "durationTicks": 238,
          "midi": 37,
          "name": "C#2",
          "ticks": 10080,
          "time": 8.289456,
          "velocity": 0.8031496062992126
        },
        {
          "duration": 0.19572326666666662,
          "durationTicks": 238,
          "midi": 42,
          "name": "F#2",
          "ticks": 10080,
          "time": 8.289456,
          "velocity": 0.6456692913385826
        },
        {
          "duration": 0.09703926666666796,
          "durationTicks": 118,
          "midi": 42,
          "name": "F#2",
          "ticks": 10320,
          "time": 8.486823999999999,
          "velocity": 0.6456692913385826
        },
        {
          "duration": 0.09703926666666796,
          "durationTicks": 118,
          "midi": 37,
          "name": "C#2",
          "ticks": 10440,
          "time": 8.585507999999999,
          "velocity": 0.8031496062992126
        },
        {
          "duration": 0.19572326666666662,
          "durationTicks": 238,
          "midi": 42,
          "name": "F#2",
          "ticks": 10560,
          "time": 8.684192,
          "velocity": 0.6456692913385826
        },
        {
          "duration": 0.19572326666666662,
          "durationTicks": 238,
          "midi": 42,
          "name": "F#2",
          "ticks": 10800,
          "time": 8.88156,
          "velocity": 0.6456692913385826
        },
        {
          "duration": 0.19572326666666662,
          "durationTicks": 238,
          "midi": 37,
          "name": "C#2",
          "ticks": 11040,
          "time": 9.078928,
          "velocity": 0.8031496062992126
        },
        {
          "duration": 0.19572326666666662,
          "durationTicks": 238,
          "midi": 42,
          "name": "F#2",
          "ticks": 11040,
          "time": 9.078928,
          "velocity": 0.6456692913385826
        },
        {
          "duration": 0.09703926666666796,
          "durationTicks": 118,
          "midi": 42,
          "name": "F#2",
          "ticks": 11280,
          "time": 9.276295999999999,
          "velocity": 0.6456692913385826
        },
        {
          "duration": 0.09703926666666796,
          "durationTicks": 118,
          "midi": 37,
          "name": "C#2",
          "ticks": 11400,
          "time": 9.374979999999999,
          "velocity": 0.8031496062992126
        },
        {
          "duration": 0.19572326666666662,
          "durationTicks": 238,
          "midi": 42,
          "name": "F#2",
          "ticks": 11520,
          "time": 9.473664,
          "velocity": 0.6456692913385826
        },
        {
          "duration": 0.19572326666666662,
          "durationTicks": 238,
          "midi": 42,
          "name": "F#2",
          "ticks": 11760,
          "time": 9.671032,
          "velocity": 0.6456692913385826
        },
        {
          "duration": 0.19572326666666662,
          "durationTicks": 238,
          "midi": 37,
          "name": "C#2",
          "ticks": 12000,
          "time": 9.8684,
          "velocity": 0.8031496062992126
        },
        {
          "duration": 0.19572326666666662,
          "durationTicks": 238,
          "midi": 42,
          "name": "F#2",
          "ticks": 12000,
          "time": 9.8684,
          "velocity": 0.6456692913385826
        },
        {
          "duration": 0.09703926666666796,
          "durationTicks": 118,
          "midi": 42,
          "name": "F#2",
          "ticks": 12240,
          "time": 10.065767999999998,
          "velocity": 0.6456692913385826
        },
        {
          "duration": 0.09703926666666796,
          "durationTicks": 118,
          "midi": 37,
          "name": "C#2",
          "ticks": 12360,
          "time": 10.164451999999999,
          "velocity": 0.8031496062992126
        },
        {
          "duration": 0.19572326666666662,
          "durationTicks": 238,
          "midi": 42,
          "name": "F#2",
          "ticks": 12480,
          "time": 10.263136,
          "velocity": 0.6456692913385826
        },
        {
          "duration": 0.19572326666666662,
          "durationTicks": 238,
          "midi": 42,
          "name": "F#2",
          "ticks": 12720,
          "time": 10.460504,
          "velocity": 0.6456692913385826
        },
        {
          "duration": 0.19572326666666662,
          "durationTicks": 238,
          "midi": 37,
          "name": "C#2",
          "ticks": 12960,
          "time": 10.657872,
          "velocity": 0.8031496062992126
        },
        {
          "duration": 0.19572326666666662,
          "durationTicks": 238,
          "midi": 42,
          "name": "F#2",
          "ticks": 12960,
          "time": 10.657872,
          "velocity": 0.6456692913385826
        },
        {
          "duration": 0.09703926666666796,
          "durationTicks": 118,
          "midi": 42,
          "name": "F#2",
          "ticks": 13200,
          "time": 10.855239999999998,
          "velocity": 0.6456692913385826
        },
        {
          "duration": 0.09703926666666796,
          "durationTicks": 118,
          "midi": 37,
          "name": "C#2",
          "ticks": 13320,
          "time": 10.953923999999999,
          "velocity": 0.8031496062992126
        },
        {
          "duration": 0.19572326666666662,
          "durationTicks": 238,
          "midi": 35,
          "name": "B1",
          "ticks": 13440,
          "time": 11.052608,
          "velocity": 0.8031496062992126
        },
        {
          "duration": 0.19572326666666662,
          "durationTicks": 238,
          "midi": 42,
          "name": "F#2",
          "ticks": 13440,
          "time": 11.052608,
          "velocity": 0.6456692913385826
        },
        {
          "duration": 0.19572326666666662,
          "durationTicks": 238,
          "midi": 42,
          "name": "F#2",
          "ticks": 13680,
          "time": 11.249976,
          "velocity": 0.6456692913385826
        },
        {
          "duration": 0.19572326666666662,
          "durationTicks": 238,
          "midi": 37,
          "name": "C#2",
          "ticks": 13920,
          "time": 11.447344,
          "velocity": 0.8031496062992126
        },
        {
          "duration": 0.19572326666666662,
          "durationTicks": 238,
          "midi": 42,
          "name": "F#2",
          "ticks": 13920,
          "time": 11.447344,
          "velocity": 0.6456692913385826
        },
        {
          "duration": 0.09703926666666796,
          "durationTicks": 118,
          "midi": 42,
          "name": "F#2",
          "ticks": 14160,
          "time": 11.644711999999998,
          "velocity": 0.6456692913385826
        },
        {
          "duration": 0.09703926666666796,
          "durationTicks": 118,
          "midi": 37,
          "name": "C#2",
          "ticks": 14280,
          "time": 11.743395999999999,
          "velocity": 0.8031496062992126
        },
        {
          "duration": 0.19572326666666662,
          "durationTicks": 238,
          "midi": 42,
          "name": "F#2",
          "ticks": 14400,
          "time": 11.84208,
          "velocity": 0.6456692913385826
        },
        {
          "duration": 0.19572326666666662,
          "durationTicks": 238,
          "midi": 42,
          "name": "F#2",
          "ticks": 14640,
          "time": 12.039448,
          "velocity": 0.6456692913385826
        },
        {
          "duration": 0.19572326666666662,
          "durationTicks": 238,
          "midi": 37,
          "name": "C#2",
          "ticks": 14880,
          "time": 12.236816,
          "velocity": 0.8031496062992126
        },
        {
          "duration": 0.19572326666666662,
          "durationTicks": 238,
          "midi": 42,
          "name": "F#2",
          "ticks": 14880,
          "time": 12.236816,
          "velocity": 0.6456692913385826
        },
        {
          "duration": 0.09703926666666796,
          "durationTicks": 118,
          "midi": 42,
          "name": "F#2",
          "ticks": 15120,
          "time": 12.434183999999998,
          "velocity": 0.6456692913385826
        },
        {
          "duration": 0.09703926666666796,
          "durationTicks": 118,
          "midi": 37,
          "name": "C#2",
          "ticks": 15240,
          "time": 12.532867999999999,
          "velocity": 0.8031496062992126
        },
        {
          "duration": 0.19572326666666484,
          "durationTicks": 238,
          "midi": 42,
          "name": "F#2",
          "ticks": 15360,
          "time": 12.631552,
          "velocity": 0.6456692913385826
        },
        {
          "duration": 0.19572326666666484,
          "durationTicks": 238,
          "midi": 42,
          "name": "F#2",
          "ticks": 15600,
          "time": 12.82892,
          "velocity": 0.6456692913385826
        },
        {
          "duration": 0.19572326666666484,
          "durationTicks": 238,
          "midi": 37,
          "name": "C#2",
          "ticks": 15840,
          "time": 13.026288,
          "velocity": 0.8031496062992126
        },
        {
          "duration": 0.19572326666666484,
          "durationTicks": 238,
          "midi": 42,
          "name": "F#2",
          "ticks": 15840,
          "time": 13.026288,
          "velocity": 0.6456692913385826
        },
        {
          "duration": 0.09703926666666618,
          "durationTicks": 118,
          "midi": 42,
          "name": "F#2",
          "ticks": 16080,
          "time": 13.223655999999998,
          "velocity": 0.6456692913385826
        },
        {
          "duration": 0.09703926666666618,
          "durationTicks": 118,
          "midi": 37,
          "name": "C#2",
          "ticks": 16200,
          "time": 13.322339999999999,
          "velocity": 0.8031496062992126
        },
        {
          "duration": 0.19572326666666484,
          "durationTicks": 238,
          "midi": 42,
          "name": "F#2",
          "ticks": 16320,
          "time": 13.421024,
          "velocity": 0.6456692913385826
        },
        {
          "duration": 0.19572326666666484,
          "durationTicks": 238,
          "midi": 42,
          "name": "F#2",
          "ticks": 16560,
          "time": 13.618392,
          "velocity": 0.6456692913385826
        },
        {
          "duration": 0.19572326666666484,
          "durationTicks": 238,
          "midi": 37,
          "name": "C#2",
          "ticks": 16800,
          "time": 13.81576,
          "velocity": 0.8031496062992126
        },
        {
          "duration": 0.19572326666666484,
          "durationTicks": 238,
          "midi": 42,
          "name": "F#2",
          "ticks": 16800,
          "time": 13.81576,
          "velocity": 0.6456692913385826
        },
        {
          "duration": 0.09703926666666618,
          "durationTicks": 118,
          "midi": 42,
          "name": "F#2",
          "ticks": 17040,
          "time": 14.013127999999998,
          "velocity": 0.6456692913385826
        },
        {
          "duration": 0.09703926666666618,
          "durationTicks": 118,
          "midi": 37,
          "name": "C#2",
          "ticks": 17160,
          "time": 14.111811999999999,
          "velocity": 0.8031496062992126
        },
        {
          "duration": 0.19572326666666484,
          "durationTicks": 238,
          "midi": 35,
          "name": "B1",
          "ticks": 17280,
          "time": 14.210496,
          "velocity": 0.8031496062992126
        },
        {
          "duration": 0.19572326666666484,
          "durationTicks": 238,
          "midi": 42,
          "name": "F#2",
          "ticks": 17280,
          "time": 14.210496,
          "velocity": 0.6456692913385826
        },
        {
          "duration": 0.19572326666666484,
          "durationTicks": 238,
          "midi": 35,
          "name": "B1",
          "ticks": 17520,
          "time": 14.407864,
          "velocity": 0.8031496062992126
        },
        {
          "duration": 0.19572326666666484,
          "durationTicks": 238,
          "midi": 42,
          "name": "F#2",
          "ticks": 17520,
          "time": 14.407864,
          "velocity": 0.6456692913385826
        },
        {
          "duration": 0.19572326666666484,
          "durationTicks": 238,
          "midi": 37,
          "name": "C#2",
          "ticks": 17760,
          "time": 14.605231999999999,
          "velocity": 0.8031496062992126
        },
        {
          "duration": 0.19572326666666484,
          "durationTicks": 238,
          "midi": 42,
          "name": "F#2",
          "ticks": 17760,
          "time": 14.605231999999999,
          "velocity": 0.6456692913385826
        },
        {
          "duration": 0.09703926666666618,
          "durationTicks": 118,
          "midi": 42,
          "name": "F#2",
          "ticks": 18000,
          "time": 14.802599999999998,
          "velocity": 0.6456692913385826
        },
        {
          "duration": 0.09703926666666618,
          "durationTicks": 118,
          "midi": 37,
          "name": "C#2",
          "ticks": 18120,
          "time": 14.901283999999999,
          "velocity": 0.8031496062992126
        },
        {
          "duration": 0.19572326666666484,
          "durationTicks": 238,
          "midi": 42,
          "name": "F#2",
          "ticks": 18240,
          "time": 14.999967999999999,
          "velocity": 0.6456692913385826
        },
        {
          "duration": 0.19572326666666484,
          "durationTicks": 238,
          "midi": 42,
          "name": "F#2",
          "ticks": 18480,
          "time": 15.197336,
          "velocity": 0.6456692913385826
        },
        {
          "duration": 0.19572326666666484,
          "durationTicks": 238,
          "midi": 37,
          "name": "C#2",
          "ticks": 18720,
          "time": 15.394703999999999,
          "velocity": 0.8031496062992126
        },
        {
          "duration": 0.19572326666666484,
          "durationTicks": 238,
          "midi": 42,
          "name": "F#2",
          "ticks": 18720,
          "time": 15.394703999999999,
          "velocity": 0.6456692913385826
        },
        {
          "duration": 0.09703926666666618,
          "durationTicks": 118,
          "midi": 42,
          "name": "F#2",
          "ticks": 18960,
          "time": 15.592071999999998,
          "velocity": 0.6456692913385826
        },
        {
          "duration": 0.09703926666666618,
          "durationTicks": 118,
          "midi": 37,
          "name": "C#2",
          "ticks": 19080,
          "time": 15.690755999999999,
          "velocity": 0.8031496062992126
        },
        {
          "duration": 0.19572326666666484,
          "durationTicks": 238,
          "midi": 42,
          "name": "F#2",
          "ticks": 19200,
          "time": 15.789439999999999,
          "velocity": 0.6456692913385826
        },
        {
          "duration": 0.19572326666666484,
          "durationTicks": 238,
          "midi": 42,
          "name": "F#2",
          "ticks": 19440,
          "time": 15.986808,
          "velocity": 0.6456692913385826
        },
        {
          "duration": 0.19572326666666484,
          "durationTicks": 238,
          "midi": 37,
          "name": "C#2",
          "ticks": 19680,
          "time": 16.184176,
          "velocity": 0.8031496062992126
        },
        {
          "duration": 0.19572326666666484,
          "durationTicks": 238,
          "midi": 42,
          "name": "F#2",
          "ticks": 19680,
          "time": 16.184176,
          "velocity": 0.6456692913385826
        },
        {
          "duration": 0.09703926666666618,
          "durationTicks": 118,
          "midi": 42,
          "name": "F#2",
          "ticks": 19920,
          "time": 16.381543999999998,
          "velocity": 0.6456692913385826
        },
        {
          "duration": 0.09703926666666263,
          "durationTicks": 118,
          "midi": 37,
          "name": "C#2",
          "ticks": 20040,
          "time": 16.480228,
          "velocity": 0.8031496062992126
        },
        {
          "duration": 0.19572326666666484,
          "durationTicks": 238,
          "midi": 42,
          "name": "F#2",
          "ticks": 20160,
          "time": 16.578912,
          "velocity": 0.6456692913385826
        },
        {
          "duration": 0.19572326666666484,
          "durationTicks": 238,
          "midi": 42,
          "name": "F#2",
          "ticks": 20400,
          "time": 16.77628,
          "velocity": 0.6456692913385826
        },
        {
          "duration": 0.1957232666666684,
          "durationTicks": 238,
          "midi": 37,
          "name": "C#2",
          "ticks": 20640,
          "time": 16.973647999999997,
          "velocity": 0.8031496062992126
        },
        {
          "duration": 0.1957232666666684,
          "durationTicks": 238,
          "midi": 42,
          "name": "F#2",
          "ticks": 20640,
          "time": 16.973647999999997,
          "velocity": 0.6456692913385826
        },
        {
          "duration": 0.09703926666666618,
          "durationTicks": 118,
          "midi": 42,
          "name": "F#2",
          "ticks": 20880,
          "time": 17.171015999999998,
          "velocity": 0.6456692913385826
        },
        {
          "duration": 0.09703926666666263,
          "durationTicks": 118,
          "midi": 37,
          "name": "C#2",
          "ticks": 21000,
          "time": 17.2697,
          "velocity": 0.8031496062992126
        },
        {
          "duration": 0.19572326666666484,
          "durationTicks": 238,
          "midi": 35,
          "name": "B1",
          "ticks": 21120,
          "time": 17.368384,
          "velocity": 0.8031496062992126
        },
        {
          "duration": 0.19572326666666484,
          "durationTicks": 238,
          "midi": 42,
          "name": "F#2",
          "ticks": 21120,
          "time": 17.368384,
          "velocity": 0.6456692913385826
        },
        {
          "duration": 0.19572326666666484,
          "durationTicks": 238,
          "midi": 42,
          "name": "F#2",
          "ticks": 21360,
          "time": 17.565752,
          "velocity": 0.6456692913385826
        },
        {
          "duration": 0.19572326666666484,
          "durationTicks": 238,
          "midi": 37,
          "name": "C#2",
          "ticks": 21600,
          "time": 17.76312,
          "velocity": 0.8031496062992126
        },
        {
          "duration": 0.19572326666666484,
          "durationTicks": 238,
          "midi": 42,
          "name": "F#2",
          "ticks": 21600,
          "time": 17.76312,
          "velocity": 0.6456692913385826
        },
        {
          "duration": 0.09703926666666618,
          "durationTicks": 118,
          "midi": 42,
          "name": "F#2",
          "ticks": 21840,
          "time": 17.960487999999998,
          "velocity": 0.6456692913385826
        },
        {
          "duration": 0.09703926666666263,
          "durationTicks": 118,
          "midi": 37,
          "name": "C#2",
          "ticks": 21960,
          "time": 18.059172,
          "velocity": 0.8031496062992126
        },
        {
          "duration": 0.19572326666666484,
          "durationTicks": 238,
          "midi": 42,
          "name": "F#2",
          "ticks": 22080,
          "time": 18.157856,
          "velocity": 0.6456692913385826
        },
        {
          "duration": 0.19572326666666484,
          "durationTicks": 238,
          "midi": 42,
          "name": "F#2",
          "ticks": 22320,
          "time": 18.355224,
          "velocity": 0.6456692913385826
        },
        {
          "duration": 0.1957232666666684,
          "durationTicks": 238,
          "midi": 37,
          "name": "C#2",
          "ticks": 22560,
          "time": 18.552591999999997,
          "velocity": 0.8031496062992126
        },
        {
          "duration": 0.1957232666666684,
          "durationTicks": 238,
          "midi": 42,
          "name": "F#2",
          "ticks": 22560,
          "time": 18.552591999999997,
          "velocity": 0.6456692913385826
        },
        {
          "duration": 0.09703926666666618,
          "durationTicks": 118,
          "midi": 42,
          "name": "F#2",
          "ticks": 22800,
          "time": 18.749959999999998,
          "velocity": 0.6456692913385826
        },
        {
          "duration": 0.09703926666666263,
          "durationTicks": 118,
          "midi": 37,
          "name": "C#2",
          "ticks": 22920,
          "time": 18.848644,
          "velocity": 0.8031496062992126
        },
        {
          "duration": 0.19572326666666484,
          "durationTicks": 238,
          "midi": 42,
          "name": "F#2",
          "ticks": 23040,
          "time": 18.947328,
          "velocity": 0.6456692913385826
        },
        {
          "duration": 0.19572326666666484,
          "durationTicks": 238,
          "midi": 42,
          "name": "F#2",
          "ticks": 23280,
          "time": 19.144696,
          "velocity": 0.6456692913385826
        },
        {
          "duration": 0.19572326666666484,
          "durationTicks": 238,
          "midi": 37,
          "name": "C#2",
          "ticks": 23520,
          "time": 19.342064,
          "velocity": 0.8031496062992126
        },
        {
          "duration": 0.19572326666666484,
          "durationTicks": 238,
          "midi": 42,
          "name": "F#2",
          "ticks": 23520,
          "time": 19.342064,
          "velocity": 0.6456692913385826
        },
        {
          "duration": 0.09703926666666618,
          "durationTicks": 118,
          "midi": 42,
          "name": "F#2",
          "ticks": 23760,
          "time": 19.539431999999998,
          "velocity": 0.6456692913385826
        },
        {
          "duration": 0.09703926666666263,
          "durationTicks": 118,
          "midi": 37,
          "name": "C#2",
          "ticks": 23880,
          "time": 19.638116,
          "velocity": 0.8031496062992126
        },
        {
          "duration": 0.19572326666666484,
          "durationTicks": 238,
          "midi": 42,
          "name": "F#2",
          "ticks": 24000,
          "time": 19.7368,
          "velocity": 0.6456692913385826
        },
        {
          "duration": 0.19572326666666484,
          "durationTicks": 238,
          "midi": 42,
          "name": "F#2",
          "ticks": 24240,
          "time": 19.934168,
          "velocity": 0.6456692913385826
        },
        {
          "duration": 0.1957232666666684,
          "durationTicks": 238,
          "midi": 37,
          "name": "C#2",
          "ticks": 24480,
          "time": 20.131535999999997,
          "velocity": 0.8031496062992126
        },
        {
          "duration": 0.1957232666666684,
          "durationTicks": 238,
          "midi": 42,
          "name": "F#2",
          "ticks": 24480,
          "time": 20.131535999999997,
          "velocity": 0.6456692913385826
        },
        {
          "duration": 0.09703926666666618,
          "durationTicks": 118,
          "midi": 42,
          "name": "F#2",
          "ticks": 24720,
          "time": 20.328903999999998,
          "velocity": 0.6456692913385826
        },
        {
          "duration": 0.09703926666666263,
          "durationTicks": 118,
          "midi": 37,
          "name": "C#2",
          "ticks": 24840,
          "time": 20.427588,
          "velocity": 0.8031496062992126
        },
        {
          "duration": 0.19572326666666484,
          "durationTicks": 238,
          "midi": 35,
          "name": "B1",
          "ticks": 24960,
          "time": 20.526272,
          "velocity": 0.8031496062992126
        },
        {
          "duration": 0.19572326666666484,
          "durationTicks": 238,
          "midi": 42,
          "name": "F#2",
          "ticks": 24960,
          "time": 20.526272,
          "velocity": 0.6456692913385826
        },
        {
          "duration": 0.19572326666666484,
          "durationTicks": 238,
          "midi": 35,
          "name": "B1",
          "ticks": 25200,
          "time": 20.72364,
          "velocity": 0.8031496062992126
        },
        {
          "duration": 0.19572326666666484,
          "durationTicks": 238,
          "midi": 42,
          "name": "F#2",
          "ticks": 25200,
          "time": 20.72364,
          "velocity": 0.6456692913385826
        },
        {
          "duration": 0.19572326666666484,
          "durationTicks": 238,
          "midi": 37,
          "name": "C#2",
          "ticks": 25440,
          "time": 20.921008,
          "velocity": 0.8031496062992126
        },
        {
          "duration": 0.19572326666666484,
          "durationTicks": 238,
          "midi": 42,
          "name": "F#2",
          "ticks": 25440,
          "time": 20.921008,
          "velocity": 0.6456692913385826
        },
        {
          "duration": 0.09703926666666618,
          "durationTicks": 118,
          "midi": 42,
          "name": "F#2",
          "ticks": 25680,
          "time": 21.118375999999998,
          "velocity": 0.6456692913385826
        },
        {
          "duration": 0.09703926666666263,
          "durationTicks": 118,
          "midi": 37,
          "name": "C#2",
          "ticks": 25800,
          "time": 21.21706,
          "velocity": 0.8031496062992126
        },
        {
          "duration": 0.19572326666666484,
          "durationTicks": 238,
          "midi": 42,
          "name": "F#2",
          "ticks": 25920,
          "time": 21.315744,
          "velocity": 0.6456692913385826
        },
        {
          "duration": 0.19572326666666484,
          "durationTicks": 238,
          "midi": 42,
          "name": "F#2",
          "ticks": 26160,
          "time": 21.513112,
          "velocity": 0.6456692913385826
        },
        {
          "duration": 0.1957232666666684,
          "durationTicks": 238,
          "midi": 37,
          "name": "C#2",
          "ticks": 26400,
          "time": 21.710479999999997,
          "velocity": 0.8031496062992126
        },
        {
          "duration": 0.1957232666666684,
          "durationTicks": 238,
          "midi": 42,
          "name": "F#2",
          "ticks": 26400,
          "time": 21.710479999999997,
          "velocity": 0.6456692913385826
        },
        {
          "duration": 0.09703926666666618,
          "durationTicks": 118,
          "midi": 42,
          "name": "F#2",
          "ticks": 26640,
          "time": 21.907847999999998,
          "velocity": 0.6456692913385826
        },
        {
          "duration": 0.09703926666666263,
          "durationTicks": 118,
          "midi": 37,
          "name": "C#2",
          "ticks": 26760,
          "time": 22.006532,
          "velocity": 0.8031496062992126
        },
        {
          "duration": 0.19572326666666484,
          "durationTicks": 238,
          "midi": 42,
          "name": "F#2",
          "ticks": 26880,
          "time": 22.105216,
          "velocity": 0.6456692913385826
        },
        {
          "duration": 0.19572326666666484,
          "durationTicks": 238,
          "midi": 42,
          "name": "F#2",
          "ticks": 27120,
          "time": 22.302584,
          "velocity": 0.6456692913385826
        },
        {
          "duration": 0.19572326666666484,
          "durationTicks": 238,
          "midi": 37,
          "name": "C#2",
          "ticks": 27360,
          "time": 22.499952,
          "velocity": 0.8031496062992126
        },
        {
          "duration": 0.19572326666666484,
          "durationTicks": 238,
          "midi": 42,
          "name": "F#2",
          "ticks": 27360,
          "time": 22.499952,
          "velocity": 0.6456692913385826
        },
        {
          "duration": 0.09703926666666618,
          "durationTicks": 118,
          "midi": 42,
          "name": "F#2",
          "ticks": 27600,
          "time": 22.697319999999998,
          "velocity": 0.6456692913385826
        },
        {
          "duration": 0.09703926666666263,
          "durationTicks": 118,
          "midi": 37,
          "name": "C#2",
          "ticks": 27720,
          "time": 22.796004,
          "velocity": 0.8031496062992126
        },
        {
          "duration": 0.19572326666666484,
          "durationTicks": 238,
          "midi": 42,
          "name": "F#2",
          "ticks": 27840,
          "time": 22.894688,
          "velocity": 0.6456692913385826
        },
        {
          "duration": 0.19572326666666484,
          "durationTicks": 238,
          "midi": 42,
          "name": "F#2",
          "ticks": 28080,
          "time": 23.092056,
          "velocity": 0.6456692913385826
        },
        {
          "duration": 0.1957232666666684,
          "durationTicks": 238,
          "midi": 37,
          "name": "C#2",
          "ticks": 28320,
          "time": 23.289423999999997,
          "velocity": 0.8031496062992126
        },
        {
          "duration": 0.1957232666666684,
          "durationTicks": 238,
          "midi": 42,
          "name": "F#2",
          "ticks": 28320,
          "time": 23.289423999999997,
          "velocity": 0.6456692913385826
        },
        {
          "duration": 0.09703926666666618,
          "durationTicks": 118,
          "midi": 42,
          "name": "F#2",
          "ticks": 28560,
          "time": 23.486791999999998,
          "velocity": 0.6456692913385826
        },
        {
          "duration": 0.09703926666666263,
          "durationTicks": 118,
          "midi": 37,
          "name": "C#2",
          "ticks": 28680,
          "time": 23.585476,
          "velocity": 0.8031496062992126
        },
        {
          "duration": 0.19572326666666484,
          "durationTicks": 238,
          "midi": 35,
          "name": "B1",
          "ticks": 28800,
          "time": 23.68416,
          "velocity": 0.8031496062992126
        },
        {
          "duration": 0.19572326666666484,
          "durationTicks": 238,
          "midi": 42,
          "name": "F#2",
          "ticks": 28800,
          "time": 23.68416,
          "velocity": 0.6456692913385826
        },
        {
          "duration": 0.19572326666666484,
          "durationTicks": 238,
          "midi": 42,
          "name": "F#2",
          "ticks": 29040,
          "time": 23.881528,
          "velocity": 0.6456692913385826
        },
        {
          "duration": 0.19572326666666484,
          "durationTicks": 238,
          "midi": 37,
          "name": "C#2",
          "ticks": 29280,
          "time": 24.078896,
          "velocity": 0.8031496062992126
        },
        {
          "duration": 0.19572326666666484,
          "durationTicks": 238,
          "midi": 42,
          "name": "F#2",
          "ticks": 29280,
          "time": 24.078896,
          "velocity": 0.6456692913385826
        },
        {
          "duration": 0.09703926666666618,
          "durationTicks": 118,
          "midi": 42,
          "name": "F#2",
          "ticks": 29520,
          "time": 24.276263999999998,
          "velocity": 0.6456692913385826
        },
        {
          "duration": 0.09703926666666263,
          "durationTicks": 118,
          "midi": 37,
          "name": "C#2",
          "ticks": 29640,
          "time": 24.374948,
          "velocity": 0.8031496062992126
        },
        {
          "duration": 0.19572326666666484,
          "durationTicks": 238,
          "midi": 42,
          "name": "F#2",
          "ticks": 29760,
          "time": 24.473632,
          "velocity": 0.6456692913385826
        },
        {
          "duration": 0.19572326666666484,
          "durationTicks": 238,
          "midi": 42,
          "name": "F#2",
          "ticks": 30000,
          "time": 24.671,
          "velocity": 0.6456692913385826
        },
        {
          "duration": 0.1957232666666684,
          "durationTicks": 238,
          "midi": 37,
          "name": "C#2",
          "ticks": 30240,
          "time": 24.868367999999997,
          "velocity": 0.8031496062992126
        },
        {
          "duration": 0.1957232666666684,
          "durationTicks": 238,
          "midi": 42,
          "name": "F#2",
          "ticks": 30240,
          "time": 24.868367999999997,
          "velocity": 0.6456692913385826
        },
        {
          "duration": 0.09703926666666618,
          "durationTicks": 118,
          "midi": 42,
          "name": "F#2",
          "ticks": 30480,
          "time": 25.065735999999998,
          "velocity": 0.6456692913385826
        },
        {
          "duration": 0.09703926666666263,
          "durationTicks": 118,
          "midi": 37,
          "name": "C#2",
          "ticks": 30600,
          "time": 25.16442,
          "velocity": 0.8031496062992126
        },
        {
          "duration": 0.1957232666666684,
          "durationTicks": 238,
          "midi": 42,
          "name": "F#2",
          "ticks": 30720,
          "time": 25.263104,
          "velocity": 0.6456692913385826
        },
        {
          "duration": 0.1957232666666684,
          "durationTicks": 238,
          "midi": 42,
          "name": "F#2",
          "ticks": 30960,
          "time": 25.460472,
          "velocity": 0.6456692913385826
        },
        {
          "duration": 0.19572326666666484,
          "durationTicks": 238,
          "midi": 37,
          "name": "C#2",
          "ticks": 31200,
          "time": 25.65784,
          "velocity": 0.8031496062992126
        },
        {
          "duration": 0.19572326666666484,
          "durationTicks": 238,
          "midi": 42,
          "name": "F#2",
          "ticks": 31200,
          "time": 25.65784,
          "velocity": 0.6456692913385826
        },
        {
          "duration": 0.09703926666666973,
          "durationTicks": 118,
          "midi": 42,
          "name": "F#2",
          "ticks": 31440,
          "time": 25.855207999999998,
          "velocity": 0.6456692913385826
        },
        {
          "duration": 0.09703926666666618,
          "durationTicks": 118,
          "midi": 37,
          "name": "C#2",
          "ticks": 31560,
          "time": 25.953892,
          "velocity": 0.8031496062992126
        },
        {
          "duration": 0.1957232666666684,
          "durationTicks": 238,
          "midi": 42,
          "name": "F#2",
          "ticks": 31680,
          "time": 26.052576,
          "velocity": 0.6456692913385826
        },
        {
          "duration": 0.1957232666666684,
          "durationTicks": 238,
          "midi": 42,
          "name": "F#2",
          "ticks": 31920,
          "time": 26.249944,
          "velocity": 0.6456692913385826
        },
        {
          "duration": 0.1957232666666684,
          "durationTicks": 238,
          "midi": 37,
          "name": "C#2",
          "ticks": 32160,
          "time": 26.447311999999997,
          "velocity": 0.8031496062992126
        },
        {
          "duration": 0.1957232666666684,
          "durationTicks": 238,
          "midi": 42,
          "name": "F#2",
          "ticks": 32160,
          "time": 26.447311999999997,
          "velocity": 0.6456692913385826
        },
        {
          "duration": 0.09703926666666973,
          "durationTicks": 118,
          "midi": 42,
          "name": "F#2",
          "ticks": 32400,
          "time": 26.644679999999997,
          "velocity": 0.6456692913385826
        },
        {
          "duration": 0.09703926666666618,
          "durationTicks": 118,
          "midi": 37,
          "name": "C#2",
          "ticks": 32520,
          "time": 26.743364,
          "velocity": 0.8031496062992126
        },
        {
          "duration": 0.1957232666666684,
          "durationTicks": 238,
          "midi": 35,
          "name": "B1",
          "ticks": 32640,
          "time": 26.842048,
          "velocity": 0.8031496062992126
        },
        {
          "duration": 0.1957232666666684,
          "durationTicks": 238,
          "midi": 42,
          "name": "F#2",
          "ticks": 32640,
          "time": 26.842048,
          "velocity": 0.6456692913385826
        },
        {
          "duration": 0.1957232666666684,
          "durationTicks": 238,
          "midi": 35,
          "name": "B1",
          "ticks": 32880,
          "time": 27.039416,
          "velocity": 0.8031496062992126
        },
        {
          "duration": 0.1957232666666684,
          "durationTicks": 238,
          "midi": 42,
          "name": "F#2",
          "ticks": 32880,
          "time": 27.039416,
          "velocity": 0.6456692913385826
        },
        {
          "duration": 0.19572326666666484,
          "durationTicks": 238,
          "midi": 37,
          "name": "C#2",
          "ticks": 33120,
          "time": 27.236784,
          "velocity": 0.8031496062992126
        },
        {
          "duration": 0.19572326666666484,
          "durationTicks": 238,
          "midi": 42,
          "name": "F#2",
          "ticks": 33120,
          "time": 27.236784,
          "velocity": 0.6456692913385826
        },
        {
          "duration": 0.09703926666666973,
          "durationTicks": 118,
          "midi": 42,
          "name": "F#2",
          "ticks": 33360,
          "time": 27.434151999999997,
          "velocity": 0.6456692913385826
        },
        {
          "duration": 0.09703926666666618,
          "durationTicks": 118,
          "midi": 37,
          "name": "C#2",
          "ticks": 33480,
          "time": 27.532836,
          "velocity": 0.8031496062992126
        },
        {
          "duration": 0.1957232666666684,
          "durationTicks": 238,
          "midi": 42,
          "name": "F#2",
          "ticks": 33600,
          "time": 27.63152,
          "velocity": 0.6456692913385826
        },
        {
          "duration": 0.1957232666666684,
          "durationTicks": 238,
          "midi": 42,
          "name": "F#2",
          "ticks": 33840,
          "time": 27.828888,
          "velocity": 0.6456692913385826
        },
        {
          "duration": 0.1957232666666684,
          "durationTicks": 238,
          "midi": 37,
          "name": "C#2",
          "ticks": 34080,
          "time": 28.026255999999997,
          "velocity": 0.8031496062992126
        },
        {
          "duration": 0.1957232666666684,
          "durationTicks": 238,
          "midi": 42,
          "name": "F#2",
          "ticks": 34080,
          "time": 28.026255999999997,
          "velocity": 0.6456692913385826
        },
        {
          "duration": 0.09703926666666973,
          "durationTicks": 118,
          "midi": 42,
          "name": "F#2",
          "ticks": 34320,
          "time": 28.223623999999997,
          "velocity": 0.6456692913385826
        },
        {
          "duration": 0.09703926666666618,
          "durationTicks": 118,
          "midi": 37,
          "name": "C#2",
          "ticks": 34440,
          "time": 28.322308,
          "velocity": 0.8031496062992126
        },
        {
          "duration": 0.1957232666666684,
          "durationTicks": 238,
          "midi": 42,
          "name": "F#2",
          "ticks": 34560,
          "time": 28.420992,
          "velocity": 0.6456692913385826
        },
        {
          "duration": 0.1957232666666684,
          "durationTicks": 238,
          "midi": 42,
          "name": "F#2",
          "ticks": 34800,
          "time": 28.61836,
          "velocity": 0.6456692913385826
        },
        {
          "duration": 0.19572326666666484,
          "durationTicks": 238,
          "midi": 37,
          "name": "C#2",
          "ticks": 35040,
          "time": 28.815728,
          "velocity": 0.8031496062992126
        },
        {
          "duration": 0.19572326666666484,
          "durationTicks": 238,
          "midi": 42,
          "name": "F#2",
          "ticks": 35040,
          "time": 28.815728,
          "velocity": 0.6456692913385826
        },
        {
          "duration": 0.09703926666666973,
          "durationTicks": 118,
          "midi": 42,
          "name": "F#2",
          "ticks": 35280,
          "time": 29.013095999999997,
          "velocity": 0.6456692913385826
        },
        {
          "duration": 0.09703926666666618,
          "durationTicks": 118,
          "midi": 37,
          "name": "C#2",
          "ticks": 35400,
          "time": 29.11178,
          "velocity": 0.8031496062992126
        },
        {
          "duration": 0.1957232666666684,
          "durationTicks": 238,
          "midi": 42,
          "name": "F#2",
          "ticks": 35520,
          "time": 29.210463999999998,
          "velocity": 0.6456692913385826
        },
        {
          "duration": 0.1957232666666684,
          "durationTicks": 238,
          "midi": 42,
          "name": "F#2",
          "ticks": 35760,
          "time": 29.407832,
          "velocity": 0.6456692913385826
        },
        {
          "duration": 0.1957232666666684,
          "durationTicks": 238,
          "midi": 37,
          "name": "C#2",
          "ticks": 36000,
          "time": 29.605199999999996,
          "velocity": 0.8031496062992126
        },
        {
          "duration": 0.1957232666666684,
          "durationTicks": 238,
          "midi": 42,
          "name": "F#2",
          "ticks": 36000,
          "time": 29.605199999999996,
          "velocity": 0.6456692913385826
        },
        {
          "duration": 0.09703926666666973,
          "durationTicks": 118,
          "midi": 42,
          "name": "F#2",
          "ticks": 36240,
          "time": 29.802567999999997,
          "velocity": 0.6456692913385826
        },
        {
          "duration": 0.09703926666666618,
          "durationTicks": 118,
          "midi": 37,
          "name": "C#2",
          "ticks": 36360,
          "time": 29.901252,
          "velocity": 0.8031496062992126
        },
        {
          "duration": 0.1957232666666684,
          "durationTicks": 238,
          "midi": 35,
          "name": "B1",
          "ticks": 36480,
          "time": 29.999935999999998,
          "velocity": 0.8031496062992126
        },
        {
          "duration": 0.1957232666666684,
          "durationTicks": 238,
          "midi": 42,
          "name": "F#2",
          "ticks": 36480,
          "time": 29.999935999999998,
          "velocity": 0.6456692913385826
        },
        {
          "duration": 0.1957232666666684,
          "durationTicks": 238,
          "midi": 42,
          "name": "F#2",
          "ticks": 36720,
          "time": 30.197304,
          "velocity": 0.6456692913385826
        },
        {
          "duration": 0.19572326666666484,
          "durationTicks": 238,
          "midi": 37,
          "name": "C#2",
          "ticks": 36960,
          "time": 30.394672,
          "velocity": 0.8031496062992126
        },
        {
          "duration": 0.19572326666666484,
          "durationTicks": 238,
          "midi": 42,
          "name": "F#2",
          "ticks": 36960,
          "time": 30.394672,
          "velocity": 0.6456692913385826
        },
        {
          "duration": 0.09703926666666973,
          "durationTicks": 118,
          "midi": 42,
          "name": "F#2",
          "ticks": 37200,
          "time": 30.592039999999997,
          "velocity": 0.6456692913385826
        },
        {
          "duration": 0.09703926666666618,
          "durationTicks": 118,
          "midi": 37,
          "name": "C#2",
          "ticks": 37320,
          "time": 30.690724,
          "velocity": 0.8031496062992126
        },
        {
          "duration": 0.1957232666666684,
          "durationTicks": 238,
          "midi": 42,
          "name": "F#2",
          "ticks": 37440,
          "time": 30.789407999999998,
          "velocity": 0.6456692913385826
        },
        {
          "duration": 0.1957232666666684,
          "durationTicks": 238,
          "midi": 42,
          "name": "F#2",
          "ticks": 37680,
          "time": 30.986776,
          "velocity": 0.6456692913385826
        },
        {
          "duration": 0.1957232666666684,
          "durationTicks": 238,
          "midi": 37,
          "name": "C#2",
          "ticks": 37920,
          "time": 31.184143999999996,
          "velocity": 0.8031496062992126
        },
        {
          "duration": 0.1957232666666684,
          "durationTicks": 238,
          "midi": 42,
          "name": "F#2",
          "ticks": 37920,
          "time": 31.184143999999996,
          "velocity": 0.6456692913385826
        },
        {
          "duration": 0.09703926666666973,
          "durationTicks": 118,
          "midi": 42,
          "name": "F#2",
          "ticks": 38160,
          "time": 31.381511999999997,
          "velocity": 0.6456692913385826
        },
        {
          "duration": 0.09703926666666618,
          "durationTicks": 118,
          "midi": 37,
          "name": "C#2",
          "ticks": 38280,
          "time": 31.480196,
          "velocity": 0.8031496062992126
        },
        {
          "duration": 0.1957232666666684,
          "durationTicks": 238,
          "midi": 42,
          "name": "F#2",
          "ticks": 38400,
          "time": 31.578879999999998,
          "velocity": 0.6456692913385826
        },
        {
          "duration": 0.1957232666666684,
          "durationTicks": 238,
          "midi": 42,
          "name": "F#2",
          "ticks": 38640,
          "time": 31.776248,
          "velocity": 0.6456692913385826
        },
        {
          "duration": 0.1957232666666684,
          "durationTicks": 238,
          "midi": 37,
          "name": "C#2",
          "ticks": 38880,
          "time": 31.973616,
          "velocity": 0.8031496062992126
        },
        {
          "duration": 0.1957232666666684,
          "durationTicks": 238,
          "midi": 42,
          "name": "F#2",
          "ticks": 38880,
          "time": 31.973616,
          "velocity": 0.6456692913385826
        },
        {
          "duration": 0.09703926666666973,
          "durationTicks": 118,
          "midi": 42,
          "name": "F#2",
          "ticks": 39120,
          "time": 32.170984,
          "velocity": 0.6456692913385826
        },
        {
          "duration": 0.09703926666666973,
          "durationTicks": 118,
          "midi": 37,
          "name": "C#2",
          "ticks": 39240,
          "time": 32.269667999999996,
          "velocity": 0.8031496062992126
        },
        {
          "duration": 0.1957232666666613,
          "durationTicks": 238,
          "midi": 42,
          "name": "F#2",
          "ticks": 39360,
          "time": 32.368352,
          "velocity": 0.6456692913385826
        },
        {
          "duration": 0.1957232666666684,
          "durationTicks": 238,
          "midi": 42,
          "name": "F#2",
          "ticks": 39600,
          "time": 32.56572,
          "velocity": 0.6456692913385826
        },
        {
          "duration": 0.1957232666666684,
          "durationTicks": 238,
          "midi": 37,
          "name": "C#2",
          "ticks": 39840,
          "time": 32.763087999999996,
          "velocity": 0.8031496062992126
        },
        {
          "duration": 0.1957232666666684,
          "durationTicks": 238,
          "midi": 42,
          "name": "F#2",
          "ticks": 39840,
          "time": 32.763087999999996,
          "velocity": 0.6456692913385826
        },
        {
          "duration": 0.09703926666666263,
          "durationTicks": 118,
          "midi": 42,
          "name": "F#2",
          "ticks": 40080,
          "time": 32.960456,
          "velocity": 0.6456692913385826
        },
        {
          "duration": 0.09703926666666973,
          "durationTicks": 118,
          "midi": 37,
          "name": "C#2",
          "ticks": 40200,
          "time": 33.05914,
          "velocity": 0.8031496062992126
        },
        {
          "duration": 0.1957232666666684,
          "durationTicks": 238,
          "midi": 35,
          "name": "B1",
          "ticks": 40320,
          "time": 33.157824,
          "velocity": 0.8031496062992126
        },
        {
          "duration": 0.1957232666666684,
          "durationTicks": 238,
          "midi": 42,
          "name": "F#2",
          "ticks": 40320,
          "time": 33.157824,
          "velocity": 0.6456692913385826
        },
        {
          "duration": 0.1957232666666684,
          "durationTicks": 238,
          "midi": 35,
          "name": "B1",
          "ticks": 40560,
          "time": 33.355191999999995,
          "velocity": 0.8031496062992126
        },
        {
          "duration": 0.1957232666666684,
          "durationTicks": 238,
          "midi": 42,
          "name": "F#2",
          "ticks": 40560,
          "time": 33.355191999999995,
          "velocity": 0.6456692913385826
        },
        {
          "duration": 0.1957232666666684,
          "durationTicks": 238,
          "midi": 37,
          "name": "C#2",
          "ticks": 40800,
          "time": 33.55256,
          "velocity": 0.8031496062992126
        },
        {
          "duration": 0.1957232666666684,
          "durationTicks": 238,
          "midi": 42,
          "name": "F#2",
          "ticks": 40800,
          "time": 33.55256,
          "velocity": 0.6456692913385826
        },
        {
          "duration": 0.09703926666666973,
          "durationTicks": 118,
          "midi": 42,
          "name": "F#2",
          "ticks": 41040,
          "time": 33.749928,
          "velocity": 0.6456692913385826
        },
        {
          "duration": 0.09703926666666973,
          "durationTicks": 118,
          "midi": 37,
          "name": "C#2",
          "ticks": 41160,
          "time": 33.848611999999996,
          "velocity": 0.8031496062992126
        },
        {
          "duration": 0.1957232666666684,
          "durationTicks": 238,
          "midi": 42,
          "name": "F#2",
          "ticks": 41280,
          "time": 33.947295999999994,
          "velocity": 0.6456692913385826
        },
        {
          "duration": 0.1957232666666684,
          "durationTicks": 238,
          "midi": 42,
          "name": "F#2",
          "ticks": 41520,
          "time": 34.144664,
          "velocity": 0.6456692913385826
        },
        {
          "duration": 0.1957232666666684,
          "durationTicks": 238,
          "midi": 37,
          "name": "C#2",
          "ticks": 41760,
          "time": 34.342031999999996,
          "velocity": 0.8031496062992126
        },
        {
          "duration": 0.1957232666666684,
          "durationTicks": 238,
          "midi": 42,
          "name": "F#2",
          "ticks": 41760,
          "time": 34.342031999999996,
          "velocity": 0.6456692913385826
        },
        {
          "duration": 0.09703926666666263,
          "durationTicks": 118,
          "midi": 42,
          "name": "F#2",
          "ticks": 42000,
          "time": 34.5394,
          "velocity": 0.6456692913385826
        },
        {
          "duration": 0.09703926666666973,
          "durationTicks": 118,
          "midi": 37,
          "name": "C#2",
          "ticks": 42120,
          "time": 34.638084,
          "velocity": 0.8031496062992126
        },
        {
          "duration": 0.1957232666666684,
          "durationTicks": 238,
          "midi": 42,
          "name": "F#2",
          "ticks": 42240,
          "time": 34.736768,
          "velocity": 0.6456692913385826
        },
        {
          "duration": 0.1957232666666684,
          "durationTicks": 238,
          "midi": 42,
          "name": "F#2",
          "ticks": 42480,
          "time": 34.934135999999995,
          "velocity": 0.6456692913385826
        },
        {
          "duration": 0.1957232666666684,
          "durationTicks": 238,
          "midi": 37,
          "name": "C#2",
          "ticks": 42720,
          "time": 35.131504,
          "velocity": 0.8031496062992126
        },
        {
          "duration": 0.1957232666666684,
          "durationTicks": 238,
          "midi": 42,
          "name": "F#2",
          "ticks": 42720,
          "time": 35.131504,
          "velocity": 0.6456692913385826
        },
        {
          "duration": 0.09703926666666973,
          "durationTicks": 118,
          "midi": 42,
          "name": "F#2",
          "ticks": 42960,
          "time": 35.328872,
          "velocity": 0.6456692913385826
        },
        {
          "duration": 0.09703926666666973,
          "durationTicks": 118,
          "midi": 37,
          "name": "C#2",
          "ticks": 43080,
          "time": 35.427555999999996,
          "velocity": 0.8031496062992126
        },
        {
          "duration": 0.1957232666666613,
          "durationTicks": 238,
          "midi": 42,
          "name": "F#2",
          "ticks": 43200,
          "time": 35.52624,
          "velocity": 0.6456692913385826
        },
        {
          "duration": 0.1957232666666684,
          "durationTicks": 238,
          "midi": 42,
          "name": "F#2",
          "ticks": 43440,
          "time": 35.723608,
          "velocity": 0.6456692913385826
        },
        {
          "duration": 0.1957232666666684,
          "durationTicks": 238,
          "midi": 37,
          "name": "C#2",
          "ticks": 43680,
          "time": 35.920975999999996,
          "velocity": 0.8031496062992126
        },
        {
          "duration": 0.1957232666666684,
          "durationTicks": 238,
          "midi": 42,
          "name": "F#2",
          "ticks": 43680,
          "time": 35.920975999999996,
          "velocity": 0.6456692913385826
        },
        {
          "duration": 0.09703926666666263,
          "durationTicks": 118,
          "midi": 42,
          "name": "F#2",
          "ticks": 43920,
          "time": 36.118344,
          "velocity": 0.6456692913385826
        },
        {
          "duration": 0.09703926666666973,
          "durationTicks": 118,
          "midi": 37,
          "name": "C#2",
          "ticks": 44040,
          "time": 36.217028,
          "velocity": 0.8031496062992126
        },
        {
          "duration": 0.1957232666666684,
          "durationTicks": 238,
          "midi": 35,
          "name": "B1",
          "ticks": 44160,
          "time": 36.315712,
          "velocity": 0.8031496062992126
        },
        {
          "duration": 0.1957232666666684,
          "durationTicks": 238,
          "midi": 42,
          "name": "F#2",
          "ticks": 44160,
          "time": 36.315712,
          "velocity": 0.6456692913385826
        },
        {
          "duration": 0.1957232666666684,
          "durationTicks": 238,
          "midi": 42,
          "name": "F#2",
          "ticks": 44400,
          "time": 36.513079999999995,
          "velocity": 0.6456692913385826
        },
        {
          "duration": 0.1957232666666684,
          "durationTicks": 238,
          "midi": 37,
          "name": "C#2",
          "ticks": 44640,
          "time": 36.710448,
          "velocity": 0.8031496062992126
        },
        {
          "duration": 0.1957232666666684,
          "durationTicks": 238,
          "midi": 42,
          "name": "F#2",
          "ticks": 44640,
          "time": 36.710448,
          "velocity": 0.6456692913385826
        },
        {
          "duration": 0.09703926666666973,
          "durationTicks": 118,
          "midi": 42,
          "name": "F#2",
          "ticks": 44880,
          "time": 36.907816,
          "velocity": 0.6456692913385826
        },
        {
          "duration": 0.09703926666666973,
          "durationTicks": 118,
          "midi": 37,
          "name": "C#2",
          "ticks": 45000,
          "time": 37.006499999999996,
          "velocity": 0.8031496062992126
        },
        {
          "duration": 0.1957232666666684,
          "durationTicks": 238,
          "midi": 42,
          "name": "F#2",
          "ticks": 45120,
          "time": 37.105183999999994,
          "velocity": 0.6456692913385826
        },
        {
          "duration": 0.1957232666666684,
          "durationTicks": 238,
          "midi": 42,
          "name": "F#2",
          "ticks": 45360,
          "time": 37.302552,
          "velocity": 0.6456692913385826
        },
        {
          "duration": 0.1957232666666684,
          "durationTicks": 238,
          "midi": 37,
          "name": "C#2",
          "ticks": 45600,
          "time": 37.499919999999996,
          "velocity": 0.8031496062992126
        },
        {
          "duration": 0.1957232666666684,
          "durationTicks": 238,
          "midi": 42,
          "name": "F#2",
          "ticks": 45600,
          "time": 37.499919999999996,
          "velocity": 0.6456692913385826
        },
        {
          "duration": 0.09703926666666263,
          "durationTicks": 118,
          "midi": 42,
          "name": "F#2",
          "ticks": 45840,
          "time": 37.697288,
          "velocity": 0.6456692913385826
        },
        {
          "duration": 0.09703926666666973,
          "durationTicks": 118,
          "midi": 37,
          "name": "C#2",
          "ticks": 45960,
          "time": 37.795972,
          "velocity": 0.8031496062992126
        },
        {
          "duration": 0.1957232666666684,
          "durationTicks": 238,
          "midi": 42,
          "name": "F#2",
          "ticks": 46080,
          "time": 37.894656,
          "velocity": 0.6456692913385826
        },
        {
          "duration": 0.1957232666666684,
          "durationTicks": 238,
          "midi": 42,
          "name": "F#2",
          "ticks": 46320,
          "time": 38.092023999999995,
          "velocity": 0.6456692913385826
        },
        {
          "duration": 0.1957232666666684,
          "durationTicks": 238,
          "midi": 37,
          "name": "C#2",
          "ticks": 46560,
          "time": 38.289392,
          "velocity": 0.8031496062992126
        },
        {
          "duration": 0.1957232666666684,
          "durationTicks": 238,
          "midi": 42,
          "name": "F#2",
          "ticks": 46560,
          "time": 38.289392,
          "velocity": 0.6456692913385826
        },
        {
          "duration": 0.09703926666666973,
          "durationTicks": 118,
          "midi": 42,
          "name": "F#2",
          "ticks": 46800,
          "time": 38.48676,
          "velocity": 0.6456692913385826
        },
        {
          "duration": 0.09703926666666973,
          "durationTicks": 118,
          "midi": 37,
          "name": "C#2",
          "ticks": 46920,
          "time": 38.585443999999995,
          "velocity": 0.8031496062992126
        },
        {
          "duration": 0.1957232666666613,
          "durationTicks": 238,
          "midi": 42,
          "name": "F#2",
          "ticks": 47040,
          "time": 38.684128,
          "velocity": 0.6456692913385826
        },
        {
          "duration": 0.1957232666666684,
          "durationTicks": 238,
          "midi": 42,
          "name": "F#2",
          "ticks": 47280,
          "time": 38.881496,
          "velocity": 0.6456692913385826
        },
        {
          "duration": 0.1957232666666684,
          "durationTicks": 238,
          "midi": 37,
          "name": "C#2",
          "ticks": 47520,
          "time": 39.078863999999996,
          "velocity": 0.8031496062992126
        },
        {
          "duration": 0.1957232666666684,
          "durationTicks": 238,
          "midi": 42,
          "name": "F#2",
          "ticks": 47520,
          "time": 39.078863999999996,
          "velocity": 0.6456692913385826
        },
        {
          "duration": 0.09703926666666263,
          "durationTicks": 118,
          "midi": 42,
          "name": "F#2",
          "ticks": 47760,
          "time": 39.276232,
          "velocity": 0.6456692913385826
        },
        {
          "duration": 0.09703926666666973,
          "durationTicks": 118,
          "midi": 37,
          "name": "C#2",
          "ticks": 47880,
          "time": 39.374916,
          "velocity": 0.8031496062992126
        },
        {
          "duration": 0.1957232666666684,
          "durationTicks": 238,
          "midi": 35,
          "name": "B1",
          "ticks": 48000,
          "time": 39.4736,
          "velocity": 0.8031496062992126
        },
        {
          "duration": 0.1957232666666684,
          "durationTicks": 238,
          "midi": 42,
          "name": "F#2",
          "ticks": 48000,
          "time": 39.4736,
          "velocity": 0.6456692913385826
        },
        {
          "duration": 0.1957232666666684,
          "durationTicks": 238,
          "midi": 35,
          "name": "B1",
          "ticks": 48240,
          "time": 39.670967999999995,
          "velocity": 0.8031496062992126
        },
        {
          "duration": 0.1957232666666684,
          "durationTicks": 238,
          "midi": 42,
          "name": "F#2",
          "ticks": 48240,
          "time": 39.670967999999995,
          "velocity": 0.6456692913385826
        },
        {
          "duration": 0.1957232666666684,
          "durationTicks": 238,
          "midi": 37,
          "name": "C#2",
          "ticks": 48480,
          "time": 39.868336,
          "velocity": 0.8031496062992126
        },
        {
          "duration": 0.1957232666666684,
          "durationTicks": 238,
          "midi": 42,
          "name": "F#2",
          "ticks": 48480,
          "time": 39.868336,
          "velocity": 0.6456692913385826
        },
        {
          "duration": 0.09703926666666973,
          "durationTicks": 118,
          "midi": 42,
          "name": "F#2",
          "ticks": 48720,
          "time": 40.065704,
          "velocity": 0.6456692913385826
        },
        {
          "duration": 0.09703926666666973,
          "durationTicks": 118,
          "midi": 37,
          "name": "C#2",
          "ticks": 48840,
          "time": 40.164387999999995,
          "velocity": 0.8031496062992126
        },
        {
          "duration": 0.1957232666666684,
          "durationTicks": 238,
          "midi": 42,
          "name": "F#2",
          "ticks": 48960,
          "time": 40.263071999999994,
          "velocity": 0.6456692913385826
        },
        {
          "duration": 0.1957232666666684,
          "durationTicks": 238,
          "midi": 42,
          "name": "F#2",
          "ticks": 49200,
          "time": 40.46044,
          "velocity": 0.6456692913385826
        },
        {
          "duration": 0.1957232666666684,
          "durationTicks": 238,
          "midi": 37,
          "name": "C#2",
          "ticks": 49440,
          "time": 40.657807999999996,
          "velocity": 0.8031496062992126
        },
        {
          "duration": 0.1957232666666684,
          "durationTicks": 238,
          "midi": 42,
          "name": "F#2",
          "ticks": 49440,
          "time": 40.657807999999996,
          "velocity": 0.6456692913385826
        },
        {
          "duration": 0.09703926666666263,
          "durationTicks": 118,
          "midi": 42,
          "name": "F#2",
          "ticks": 49680,
          "time": 40.855176,
          "velocity": 0.6456692913385826
        },
        {
          "duration": 0.09703926666666973,
          "durationTicks": 118,
          "midi": 37,
          "name": "C#2",
          "ticks": 49800,
          "time": 40.95386,
          "velocity": 0.8031496062992126
        },
        {
          "duration": 0.1957232666666684,
          "durationTicks": 238,
          "midi": 42,
          "name": "F#2",
          "ticks": 49920,
          "time": 41.052544,
          "velocity": 0.6456692913385826
        },
        {
          "duration": 0.1957232666666684,
          "durationTicks": 238,
          "midi": 42,
          "name": "F#2",
          "ticks": 50160,
          "time": 41.249911999999995,
          "velocity": 0.6456692913385826
        },
        {
          "duration": 0.1957232666666684,
          "durationTicks": 238,
          "midi": 37,
          "name": "C#2",
          "ticks": 50400,
          "time": 41.44728,
          "velocity": 0.8031496062992126
        },
        {
          "duration": 0.1957232666666684,
          "durationTicks": 238,
          "midi": 42,
          "name": "F#2",
          "ticks": 50400,
          "time": 41.44728,
          "velocity": 0.6456692913385826
        },
        {
          "duration": 0.09703926666666973,
          "durationTicks": 118,
          "midi": 42,
          "name": "F#2",
          "ticks": 50640,
          "time": 41.644648,
          "velocity": 0.6456692913385826
        },
        {
          "duration": 0.09703926666666973,
          "durationTicks": 118,
          "midi": 37,
          "name": "C#2",
          "ticks": 50760,
          "time": 41.743331999999995,
          "velocity": 0.8031496062992126
        },
        {
          "duration": 0.1957232666666613,
          "durationTicks": 238,
          "midi": 42,
          "name": "F#2",
          "ticks": 50880,
          "time": 41.842016,
          "velocity": 0.6456692913385826
        },
        {
          "duration": 0.1957232666666684,
          "durationTicks": 238,
          "midi": 42,
          "name": "F#2",
          "ticks": 51120,
          "time": 42.039384,
          "velocity": 0.6456692913385826
        },
        {
          "duration": 0.1957232666666684,
          "durationTicks": 238,
          "midi": 37,
          "name": "C#2",
          "ticks": 51360,
          "time": 42.236751999999996,
          "velocity": 0.8031496062992126
        },
        {
          "duration": 0.1957232666666684,
          "durationTicks": 238,
          "midi": 42,
          "name": "F#2",
          "ticks": 51360,
          "time": 42.236751999999996,
          "velocity": 0.6456692913385826
        },
        {
          "duration": 0.09703926666666263,
          "durationTicks": 118,
          "midi": 42,
          "name": "F#2",
          "ticks": 51600,
          "time": 42.43412,
          "velocity": 0.6456692913385826
        },
        {
          "duration": 0.09703926666666973,
          "durationTicks": 118,
          "midi": 37,
          "name": "C#2",
          "ticks": 51720,
          "time": 42.532804,
          "velocity": 0.8031496062992126
        },
        {
          "duration": 0.1957232666666684,
          "durationTicks": 238,
          "midi": 35,
          "name": "B1",
          "ticks": 51840,
          "time": 42.631488,
          "velocity": 0.8031496062992126
        },
        {
          "duration": 0.1957232666666684,
          "durationTicks": 238,
          "midi": 42,
          "name": "F#2",
          "ticks": 51840,
          "time": 42.631488,
          "velocity": 0.6456692913385826
        },
        {
          "duration": 0.1957232666666684,
          "durationTicks": 238,
          "midi": 42,
          "name": "F#2",
          "ticks": 52080,
          "time": 42.828855999999995,
          "velocity": 0.6456692913385826
        },
        {
          "duration": 0.1957232666666684,
          "durationTicks": 238,
          "midi": 37,
          "name": "C#2",
          "ticks": 52320,
          "time": 43.026224,
          "velocity": 0.8031496062992126
        },
        {
          "duration": 0.1957232666666684,
          "durationTicks": 238,
          "midi": 42,
          "name": "F#2",
          "ticks": 52320,
          "time": 43.026224,
          "velocity": 0.6456692913385826
        },
        {
          "duration": 0.09703926666666973,
          "durationTicks": 118,
          "midi": 42,
          "name": "F#2",
          "ticks": 52560,
          "time": 43.223592,
          "velocity": 0.6456692913385826
        },
        {
          "duration": 0.09703926666666973,
          "durationTicks": 118,
          "midi": 37,
          "name": "C#2",
          "ticks": 52680,
          "time": 43.322275999999995,
          "velocity": 0.8031496062992126
        },
        {
          "duration": 0.1957232666666684,
          "durationTicks": 238,
          "midi": 42,
          "name": "F#2",
          "ticks": 52800,
          "time": 43.420959999999994,
          "velocity": 0.6456692913385826
        },
        {
          "duration": 0.1957232666666684,
          "durationTicks": 238,
          "midi": 42,
          "name": "F#2",
          "ticks": 53040,
          "time": 43.618328,
          "velocity": 0.6456692913385826
        },
        {
          "duration": 0.1957232666666684,
          "durationTicks": 238,
          "midi": 37,
          "name": "C#2",
          "ticks": 53280,
          "time": 43.815695999999996,
          "velocity": 0.8031496062992126
        },
        {
          "duration": 0.1957232666666684,
          "durationTicks": 238,
          "midi": 42,
          "name": "F#2",
          "ticks": 53280,
          "time": 43.815695999999996,
          "velocity": 0.6456692913385826
        },
        {
          "duration": 0.09703926666666263,
          "durationTicks": 118,
          "midi": 42,
          "name": "F#2",
          "ticks": 53520,
          "time": 44.013064,
          "velocity": 0.6456692913385826
        },
        {
          "duration": 0.09703926666666973,
          "durationTicks": 118,
          "midi": 37,
          "name": "C#2",
          "ticks": 53640,
          "time": 44.111748,
          "velocity": 0.8031496062992126
        },
        {
          "duration": 0.1957232666666684,
          "durationTicks": 238,
          "midi": 42,
          "name": "F#2",
          "ticks": 53760,
          "time": 44.210432,
          "velocity": 0.6456692913385826
        },
        {
          "duration": 0.1957232666666684,
          "durationTicks": 238,
          "midi": 42,
          "name": "F#2",
          "ticks": 54000,
          "time": 44.407799999999995,
          "velocity": 0.6456692913385826
        },
        {
          "duration": 0.1957232666666684,
          "durationTicks": 238,
          "midi": 37,
          "name": "C#2",
          "ticks": 54240,
          "time": 44.605168,
          "velocity": 0.8031496062992126
        },
        {
          "duration": 0.1957232666666684,
          "durationTicks": 238,
          "midi": 42,
          "name": "F#2",
          "ticks": 54240,
          "time": 44.605168,
          "velocity": 0.6456692913385826
        },
        {
          "duration": 0.09703926666666973,
          "durationTicks": 118,
          "midi": 42,
          "name": "F#2",
          "ticks": 54480,
          "time": 44.802535999999996,
          "velocity": 0.6456692913385826
        },
        {
          "duration": 0.09703926666666973,
          "durationTicks": 118,
          "midi": 37,
          "name": "C#2",
          "ticks": 54600,
          "time": 44.901219999999995,
          "velocity": 0.8031496062992126
        },
        {
          "duration": 0.1957232666666613,
          "durationTicks": 238,
          "midi": 42,
          "name": "F#2",
          "ticks": 54720,
          "time": 44.999904,
          "velocity": 0.6456692913385826
        },
        {
          "duration": 0.1957232666666684,
          "durationTicks": 238,
          "midi": 42,
          "name": "F#2",
          "ticks": 54960,
          "time": 45.197272,
          "velocity": 0.6456692913385826
        },
        {
          "duration": 0.1957232666666684,
          "durationTicks": 238,
          "midi": 37,
          "name": "C#2",
          "ticks": 55200,
          "time": 45.394639999999995,
          "velocity": 0.8031496062992126
        },
        {
          "duration": 0.1957232666666684,
          "durationTicks": 238,
          "midi": 42,
          "name": "F#2",
          "ticks": 55200,
          "time": 45.394639999999995,
          "velocity": 0.6456692913385826
        },
        {
          "duration": 0.09703926666666263,
          "durationTicks": 118,
          "midi": 42,
          "name": "F#2",
          "ticks": 55440,
          "time": 45.592008,
          "velocity": 0.6456692913385826
        },
        {
          "duration": 0.09703926666666973,
          "durationTicks": 118,
          "midi": 37,
          "name": "C#2",
          "ticks": 55560,
          "time": 45.690692,
          "velocity": 0.8031496062992126
        },
        {
          "duration": 0.1957232666666684,
          "durationTicks": 238,
          "midi": 35,
          "name": "B1",
          "ticks": 55680,
          "time": 45.789376,
          "velocity": 0.8031496062992126
        },
        {
          "duration": 0.1957232666666684,
          "durationTicks": 238,
          "midi": 42,
          "name": "F#2",
          "ticks": 55680,
          "time": 45.789376,
          "velocity": 0.6456692913385826
        },
        {
          "duration": 0.1957232666666684,
          "durationTicks": 238,
          "midi": 35,
          "name": "B1",
          "ticks": 55920,
          "time": 45.986743999999995,
          "velocity": 0.8031496062992126
        },
        {
          "duration": 0.1957232666666684,
          "durationTicks": 238,
          "midi": 42,
          "name": "F#2",
          "ticks": 55920,
          "time": 45.986743999999995,
          "velocity": 0.6456692913385826
        },
        {
          "duration": 0.1957232666666684,
          "durationTicks": 238,
          "midi": 37,
          "name": "C#2",
          "ticks": 56160,
          "time": 46.184112,
          "velocity": 0.8031496062992126
        },
        {
          "duration": 0.1957232666666684,
          "durationTicks": 238,
          "midi": 42,
          "name": "F#2",
          "ticks": 56160,
          "time": 46.184112,
          "velocity": 0.6456692913385826
        },
        {
          "duration": 0.09703926666666973,
          "durationTicks": 118,
          "midi": 42,
          "name": "F#2",
          "ticks": 56400,
          "time": 46.381479999999996,
          "velocity": 0.6456692913385826
        },
        {
          "duration": 0.09703926666666973,
          "durationTicks": 118,
          "midi": 37,
          "name": "C#2",
          "ticks": 56520,
          "time": 46.480163999999995,
          "velocity": 0.8031496062992126
        },
        {
          "duration": 0.1957232666666684,
          "durationTicks": 238,
          "midi": 42,
          "name": "F#2",
          "ticks": 56640,
          "time": 46.578847999999994,
          "velocity": 0.6456692913385826
        },
        {
          "duration": 0.1957232666666684,
          "durationTicks": 238,
          "midi": 42,
          "name": "F#2",
          "ticks": 56880,
          "time": 46.776216,
          "velocity": 0.6456692913385826
        },
        {
          "duration": 0.1957232666666684,
          "durationTicks": 238,
          "midi": 37,
          "name": "C#2",
          "ticks": 57120,
          "time": 46.973583999999995,
          "velocity": 0.8031496062992126
        },
        {
          "duration": 0.1957232666666684,
          "durationTicks": 238,
          "midi": 42,
          "name": "F#2",
          "ticks": 57120,
          "time": 46.973583999999995,
          "velocity": 0.6456692913385826
        },
        {
          "duration": 0.09703926666666263,
          "durationTicks": 118,
          "midi": 42,
          "name": "F#2",
          "ticks": 57360,
          "time": 47.170952,
          "velocity": 0.6456692913385826
        },
        {
          "duration": 0.09703926666666973,
          "durationTicks": 118,
          "midi": 37,
          "name": "C#2",
          "ticks": 57480,
          "time": 47.269636,
          "velocity": 0.8031496062992126
        },
        {
          "duration": 0.1957232666666684,
          "durationTicks": 238,
          "midi": 42,
          "name": "F#2",
          "ticks": 57600,
          "time": 47.36832,
          "velocity": 0.6456692913385826
        },
        {
          "duration": 0.1957232666666684,
          "durationTicks": 238,
          "midi": 42,
          "name": "F#2",
          "ticks": 57840,
          "time": 47.565687999999994,
          "velocity": 0.6456692913385826
        },
        {
          "duration": 0.1957232666666684,
          "durationTicks": 238,
          "midi": 37,
          "name": "C#2",
          "ticks": 58080,
          "time": 47.763056,
          "velocity": 0.8031496062992126
        },
        {
          "duration": 0.1957232666666684,
          "durationTicks": 238,
          "midi": 42,
          "name": "F#2",
          "ticks": 58080,
          "time": 47.763056,
          "velocity": 0.6456692913385826
        },
        {
          "duration": 0.09703926666666973,
          "durationTicks": 118,
          "midi": 42,
          "name": "F#2",
          "ticks": 58320,
          "time": 47.960423999999996,
          "velocity": 0.6456692913385826
        },
        {
          "duration": 0.09703926666666973,
          "durationTicks": 118,
          "midi": 37,
          "name": "C#2",
          "ticks": 58440,
          "time": 48.059107999999995,
          "velocity": 0.8031496062992126
        },
        {
          "duration": 0.1957232666666613,
          "durationTicks": 238,
          "midi": 42,
          "name": "F#2",
          "ticks": 58560,
          "time": 48.157792,
          "velocity": 0.6456692913385826
        },
        {
          "duration": 0.1957232666666684,
          "durationTicks": 238,
          "midi": 42,
          "name": "F#2",
          "ticks": 58800,
          "time": 48.35516,
          "velocity": 0.6456692913385826
        },
        {
          "duration": 0.1957232666666684,
          "durationTicks": 238,
          "midi": 37,
          "name": "C#2",
          "ticks": 59040,
          "time": 48.552527999999995,
          "velocity": 0.8031496062992126
        },
        {
          "duration": 0.1957232666666684,
          "durationTicks": 238,
          "midi": 42,
          "name": "F#2",
          "ticks": 59040,
          "time": 48.552527999999995,
          "velocity": 0.6456692913385826
        },
        {
          "duration": 0.09703926666666263,
          "durationTicks": 118,
          "midi": 42,
          "name": "F#2",
          "ticks": 59280,
          "time": 48.749896,
          "velocity": 0.6456692913385826
        },
        {
          "duration": 0.09703926666666973,
          "durationTicks": 118,
          "midi": 37,
          "name": "C#2",
          "ticks": 59400,
          "time": 48.84858,
          "velocity": 0.8031496062992126
        },
        {
          "duration": 0.1957232666666684,
          "durationTicks": 238,
          "midi": 35,
          "name": "B1",
          "ticks": 59520,
          "time": 48.947264,
          "velocity": 0.8031496062992126
        },
        {
          "duration": 0.1957232666666684,
          "durationTicks": 238,
          "midi": 42,
          "name": "F#2",
          "ticks": 59520,
          "time": 48.947264,
          "velocity": 0.6456692913385826
        },
        {
          "duration": 0.1957232666666684,
          "durationTicks": 238,
          "midi": 42,
          "name": "F#2",
          "ticks": 59760,
          "time": 49.144631999999994,
          "velocity": 0.6456692913385826
        },
        {
          "duration": 0.1957232666666684,
          "durationTicks": 238,
          "midi": 37,
          "name": "C#2",
          "ticks": 60000,
          "time": 49.342,
          "velocity": 0.8031496062992126
        },
        {
          "duration": 0.1957232666666684,
          "durationTicks": 238,
          "midi": 42,
          "name": "F#2",
          "ticks": 60000,
          "time": 49.342,
          "velocity": 0.6456692913385826
        },
        {
          "duration": 0.09703926666666973,
          "durationTicks": 118,
          "midi": 42,
          "name": "F#2",
          "ticks": 60240,
          "time": 49.539367999999996,
          "velocity": 0.6456692913385826
        },
        {
          "duration": 0.09703926666666973,
          "durationTicks": 118,
          "midi": 37,
          "name": "C#2",
          "ticks": 60360,
          "time": 49.638051999999995,
          "velocity": 0.8031496062992126
        },
        {
          "duration": 0.1957232666666684,
          "durationTicks": 238,
          "midi": 42,
          "name": "F#2",
          "ticks": 60480,
          "time": 49.73673599999999,
          "velocity": 0.6456692913385826
        },
        {
          "duration": 0.1957232666666684,
          "durationTicks": 238,
          "midi": 42,
          "name": "F#2",
          "ticks": 60720,
          "time": 49.934104,
          "velocity": 0.6456692913385826
        },
        {
          "duration": 0.1957232666666684,
          "durationTicks": 238,
          "midi": 37,
          "name": "C#2",
          "ticks": 60960,
          "time": 50.131471999999995,
          "velocity": 0.8031496062992126
        },
        {
          "duration": 0.1957232666666684,
          "durationTicks": 238,
          "midi": 42,
          "name": "F#2",
          "ticks": 60960,
          "time": 50.131471999999995,
          "velocity": 0.6456692913385826
        },
        {
          "duration": 0.09703926666666263,
          "durationTicks": 118,
          "midi": 42,
          "name": "F#2",
          "ticks": 61200,
          "time": 50.32884,
          "velocity": 0.6456692913385826
        },
        {
          "duration": 0.09703926666666973,
          "durationTicks": 118,
          "midi": 37,
          "name": "C#2",
          "ticks": 61320,
          "time": 50.427524,
          "velocity": 0.8031496062992126
        },
        {
          "duration": 0.1957232666666684,
          "durationTicks": 238,
          "midi": 42,
          "name": "F#2",
          "ticks": 61440,
          "time": 50.526208,
          "velocity": 0.6456692913385826
        },
        {
          "duration": 0.1957232666666684,
          "durationTicks": 238,
          "midi": 42,
          "name": "F#2",
          "ticks": 61680,
          "time": 50.723575999999994,
          "velocity": 0.6456692913385826
        },
        {
          "duration": 0.1957232666666684,
          "durationTicks": 238,
          "midi": 37,
          "name": "C#2",
          "ticks": 61920,
          "time": 50.920944,
          "velocity": 0.8031496062992126
        },
        {
          "duration": 0.1957232666666684,
          "durationTicks": 238,
          "midi": 42,
          "name": "F#2",
          "ticks": 61920,
          "time": 50.920944,
          "velocity": 0.6456692913385826
        },
        {
          "duration": 0.09703926666666973,
          "durationTicks": 118,
          "midi": 42,
          "name": "F#2",
          "ticks": 62160,
          "time": 51.118311999999996,
          "velocity": 0.6456692913385826
        },
        {
          "duration": 0.09703926666666973,
          "durationTicks": 118,
          "midi": 37,
          "name": "C#2",
          "ticks": 62280,
          "time": 51.216995999999995,
          "velocity": 0.8031496062992126
        },
        {
          "duration": 0.1957232666666613,
          "durationTicks": 238,
          "midi": 42,
          "name": "F#2",
          "ticks": 62400,
          "time": 51.31568,
          "velocity": 0.6456692913385826
        },
        {
          "duration": 0.1957232666666684,
          "durationTicks": 238,
          "midi": 42,
          "name": "F#2",
          "ticks": 62640,
          "time": 51.513048,
          "velocity": 0.6456692913385826
        },
        {
          "duration": 0.1957232666666684,
          "durationTicks": 238,
          "midi": 37,
          "name": "C#2",
          "ticks": 62880,
          "time": 51.710415999999995,
          "velocity": 0.8031496062992126
        },
        {
          "duration": 0.1957232666666684,
          "durationTicks": 238,
          "midi": 42,
          "name": "F#2",
          "ticks": 62880,
          "time": 51.710415999999995,
          "velocity": 0.6456692913385826
        },
        {
          "duration": 0.09703926666666263,
          "durationTicks": 118,
          "midi": 42,
          "name": "F#2",
          "ticks": 63120,
          "time": 51.907784,
          "velocity": 0.6456692913385826
        },
        {
          "duration": 0.09703926666666973,
          "durationTicks": 118,
          "midi": 37,
          "name": "C#2",
          "ticks": 63240,
          "time": 52.006468,
          "velocity": 0.8031496062992126
        },
        {
          "duration": 0.1957232666666684,
          "durationTicks": 238,
          "midi": 35,
          "name": "B1",
          "ticks": 63360,
          "time": 52.105152,
          "velocity": 0.8031496062992126
        },
        {
          "duration": 0.1957232666666684,
          "durationTicks": 238,
          "midi": 42,
          "name": "F#2",
          "ticks": 63360,
          "time": 52.105152,
          "velocity": 0.6456692913385826
        },
        {
          "duration": 0.1957232666666684,
          "durationTicks": 238,
          "midi": 35,
          "name": "B1",
          "ticks": 63600,
          "time": 52.302519999999994,
          "velocity": 0.8031496062992126
        },
        {
          "duration": 0.1957232666666684,
          "durationTicks": 238,
          "midi": 42,
          "name": "F#2",
          "ticks": 63600,
          "time": 52.302519999999994,
          "velocity": 0.6456692913385826
        },
        {
          "duration": 0.1957232666666684,
          "durationTicks": 238,
          "midi": 37,
          "name": "C#2",
          "ticks": 63840,
          "time": 52.499888,
          "velocity": 0.8031496062992126
        },
        {
          "duration": 0.1957232666666684,
          "durationTicks": 238,
          "midi": 42,
          "name": "F#2",
          "ticks": 63840,
          "time": 52.499888,
          "velocity": 0.6456692913385826
        },
        {
          "duration": 0.09703926666666973,
          "durationTicks": 118,
          "midi": 42,
          "name": "F#2",
          "ticks": 64080,
          "time": 52.697255999999996,
          "velocity": 0.6456692913385826
        },
        {
          "duration": 0.09703926666666973,
          "durationTicks": 118,
          "midi": 37,
          "name": "C#2",
          "ticks": 64200,
          "time": 52.795939999999995,
          "velocity": 0.8031496062992126
        },
        {
          "duration": 0.1957232666666684,
          "durationTicks": 238,
          "midi": 42,
          "name": "F#2",
          "ticks": 64320,
          "time": 52.89462399999999,
          "velocity": 0.6456692913385826
        },
        {
          "duration": 0.1957232666666684,
          "durationTicks": 238,
          "midi": 42,
          "name": "F#2",
          "ticks": 64560,
          "time": 53.091992,
          "velocity": 0.6456692913385826
        },
        {
          "duration": 0.1957232666666684,
          "durationTicks": 238,
          "midi": 37,
          "name": "C#2",
          "ticks": 64800,
          "time": 53.289359999999995,
          "velocity": 0.8031496062992126
        },
        {
          "duration": 0.1957232666666684,
          "durationTicks": 238,
          "midi": 42,
          "name": "F#2",
          "ticks": 64800,
          "time": 53.289359999999995,
          "velocity": 0.6456692913385826
        },
        {
          "duration": 0.09703926666666263,
          "durationTicks": 118,
          "midi": 42,
          "name": "F#2",
          "ticks": 65040,
          "time": 53.486728,
          "velocity": 0.6456692913385826
        },
        {
          "duration": 0.09703926666666973,
          "durationTicks": 118,
          "midi": 37,
          "name": "C#2",
          "ticks": 65160,
          "time": 53.585412,
          "velocity": 0.8031496062992126
        },
        {
          "duration": 0.1957232666666684,
          "durationTicks": 238,
          "midi": 42,
          "name": "F#2",
          "ticks": 65280,
          "time": 53.684096,
          "velocity": 0.6456692913385826
        },
        {
          "duration": 0.1957232666666684,
          "durationTicks": 238,
          "midi": 42,
          "name": "F#2",
          "ticks": 65520,
          "time": 53.881463999999994,
          "velocity": 0.6456692913385826
        },
        {
          "duration": 0.1957232666666684,
          "durationTicks": 238,
          "midi": 37,
          "name": "C#2",
          "ticks": 65760,
          "time": 54.078832,
          "velocity": 0.8031496062992126
        },
        {
          "duration": 0.1957232666666684,
          "durationTicks": 238,
          "midi": 42,
          "name": "F#2",
          "ticks": 65760,
          "time": 54.078832,
          "velocity": 0.6456692913385826
        },
        {
          "duration": 0.09703926666666973,
          "durationTicks": 118,
          "midi": 42,
          "name": "F#2",
          "ticks": 66000,
          "time": 54.276199999999996,
          "velocity": 0.6456692913385826
        },
        {
          "duration": 0.09703926666666973,
          "durationTicks": 118,
          "midi": 37,
          "name": "C#2",
          "ticks": 66120,
          "time": 54.374883999999994,
          "velocity": 0.8031496062992126
        },
        {
          "duration": 0.1957232666666613,
          "durationTicks": 238,
          "midi": 42,
          "name": "F#2",
          "ticks": 66240,
          "time": 54.473568,
          "velocity": 0.6456692913385826
        },
        {
          "duration": 0.1957232666666684,
          "durationTicks": 238,
          "midi": 42,
          "name": "F#2",
          "ticks": 66480,
          "time": 54.670936,
          "velocity": 0.6456692913385826
        },
        {
          "duration": 0.1957232666666684,
          "durationTicks": 238,
          "midi": 37,
          "name": "C#2",
          "ticks": 66720,
          "time": 54.868303999999995,
          "velocity": 0.8031496062992126
        },
        {
          "duration": 0.1957232666666684,
          "durationTicks": 238,
          "midi": 42,
          "name": "F#2",
          "ticks": 66720,
          "time": 54.868303999999995,
          "velocity": 0.6456692913385826
        },
        {
          "duration": 0.09703926666666263,
          "durationTicks": 118,
          "midi": 42,
          "name": "F#2",
          "ticks": 66960,
          "time": 55.065672,
          "velocity": 0.6456692913385826
        },
        {
          "duration": 0.09703926666666973,
          "durationTicks": 118,
          "midi": 37,
          "name": "C#2",
          "ticks": 67080,
          "time": 55.164356,
          "velocity": 0.8031496062992126
        },
        {
          "duration": 0.1957232666666684,
          "durationTicks": 238,
          "midi": 35,
          "name": "B1",
          "ticks": 67200,
          "time": 55.26304,
          "velocity": 0.8031496062992126
        },
        {
          "duration": 0.1957232666666684,
          "durationTicks": 238,
          "midi": 42,
          "name": "F#2",
          "ticks": 67200,
          "time": 55.26304,
          "velocity": 0.6456692913385826
        },
        {
          "duration": 0.1957232666666684,
          "durationTicks": 238,
          "midi": 42,
          "name": "F#2",
          "ticks": 67440,
          "time": 55.460407999999994,
          "velocity": 0.6456692913385826
        },
        {
          "duration": 0.1957232666666684,
          "durationTicks": 238,
          "midi": 37,
          "name": "C#2",
          "ticks": 67680,
          "time": 55.657776,
          "velocity": 0.8031496062992126
        },
        {
          "duration": 0.1957232666666684,
          "durationTicks": 238,
          "midi": 42,
          "name": "F#2",
          "ticks": 67680,
          "time": 55.657776,
          "velocity": 0.6456692913385826
        },
        {
          "duration": 0.09703926666666973,
          "durationTicks": 118,
          "midi": 42,
          "name": "F#2",
          "ticks": 67920,
          "time": 55.855143999999996,
          "velocity": 0.6456692913385826
        },
        {
          "duration": 0.09703926666666973,
          "durationTicks": 118,
          "midi": 37,
          "name": "C#2",
          "ticks": 68040,
          "time": 55.953827999999994,
          "velocity": 0.8031496062992126
        },
        {
          "duration": 0.1957232666666684,
          "durationTicks": 238,
          "midi": 42,
          "name": "F#2",
          "ticks": 68160,
          "time": 56.05251199999999,
          "velocity": 0.6456692913385826
        },
        {
          "duration": 0.1957232666666684,
          "durationTicks": 238,
          "midi": 42,
          "name": "F#2",
          "ticks": 68400,
          "time": 56.24988,
          "velocity": 0.6456692913385826
        },
        {
          "duration": 0.1957232666666684,
          "durationTicks": 238,
          "midi": 37,
          "name": "C#2",
          "ticks": 68640,
          "time": 56.447247999999995,
          "velocity": 0.8031496062992126
        },
        {
          "duration": 0.1957232666666684,
          "durationTicks": 238,
          "midi": 42,
          "name": "F#2",
          "ticks": 68640,
          "time": 56.447247999999995,
          "velocity": 0.6456692913385826
        },
        {
          "duration": 0.09703926666666263,
          "durationTicks": 118,
          "midi": 42,
          "name": "F#2",
          "ticks": 68880,
          "time": 56.644616,
          "velocity": 0.6456692913385826
        },
        {
          "duration": 0.09703926666666973,
          "durationTicks": 118,
          "midi": 37,
          "name": "C#2",
          "ticks": 69000,
          "time": 56.7433,
          "velocity": 0.8031496062992126
        },
        {
          "duration": 0.1957232666666684,
          "durationTicks": 238,
          "midi": 42,
          "name": "F#2",
          "ticks": 69120,
          "time": 56.841984,
          "velocity": 0.6456692913385826
        },
        {
          "duration": 0.1957232666666684,
          "durationTicks": 238,
          "midi": 42,
          "name": "F#2",
          "ticks": 69360,
          "time": 57.039351999999994,
          "velocity": 0.6456692913385826
        },
        {
          "duration": 0.1957232666666684,
          "durationTicks": 238,
          "midi": 37,
          "name": "C#2",
          "ticks": 69600,
          "time": 57.23672,
          "velocity": 0.8031496062992126
        },
        {
          "duration": 0.1957232666666684,
          "durationTicks": 238,
          "midi": 42,
          "name": "F#2",
          "ticks": 69600,
          "time": 57.23672,
          "velocity": 0.6456692913385826
        },
        {
          "duration": 0.09703926666666973,
          "durationTicks": 118,
          "midi": 42,
          "name": "F#2",
          "ticks": 69840,
          "time": 57.434087999999996,
          "velocity": 0.6456692913385826
        },
        {
          "duration": 0.09703926666666973,
          "durationTicks": 118,
          "midi": 37,
          "name": "C#2",
          "ticks": 69960,
          "time": 57.532771999999994,
          "velocity": 0.8031496062992126
        },
        {
          "duration": 0.1957232666666613,
          "durationTicks": 238,
          "midi": 42,
          "name": "F#2",
          "ticks": 70080,
          "time": 57.631456,
          "velocity": 0.6456692913385826
        },
        {
          "duration": 0.1957232666666684,
          "durationTicks": 238,
          "midi": 42,
          "name": "F#2",
          "ticks": 70320,
          "time": 57.828824,
          "velocity": 0.6456692913385826
        },
        {
          "duration": 0.1957232666666684,
          "durationTicks": 238,
          "midi": 37,
          "name": "C#2",
          "ticks": 70560,
          "time": 58.026191999999995,
          "velocity": 0.8031496062992126
        },
        {
          "duration": 0.1957232666666684,
          "durationTicks": 238,
          "midi": 42,
          "name": "F#2",
          "ticks": 70560,
          "time": 58.026191999999995,
          "velocity": 0.6456692913385826
        },
        {
          "duration": 0.09703926666666263,
          "durationTicks": 118,
          "midi": 42,
          "name": "F#2",
          "ticks": 70800,
          "time": 58.22356,
          "velocity": 0.6456692913385826
        },
        {
          "duration": 0.09703926666666973,
          "durationTicks": 118,
          "midi": 37,
          "name": "C#2",
          "ticks": 70920,
          "time": 58.322244,
          "velocity": 0.8031496062992126
        },
        {
          "duration": 0.1957232666666684,
          "durationTicks": 238,
          "midi": 35,
          "name": "B1",
          "ticks": 71040,
          "time": 58.420927999999996,
          "velocity": 0.8031496062992126
        },
        {
          "duration": 0.1957232666666684,
          "durationTicks": 238,
          "midi": 42,
          "name": "F#2",
          "ticks": 71040,
          "time": 58.420927999999996,
          "velocity": 0.6456692913385826
        },
        {
          "duration": 0.1957232666666684,
          "durationTicks": 238,
          "midi": 35,
          "name": "B1",
          "ticks": 71280,
          "time": 58.618295999999994,
          "velocity": 0.8031496062992126
        },
        {
          "duration": 0.1957232666666684,
          "durationTicks": 238,
          "midi": 42,
          "name": "F#2",
          "ticks": 71280,
          "time": 58.618295999999994,
          "velocity": 0.6456692913385826
        },
        {
          "duration": 0.1957232666666684,
          "durationTicks": 238,
          "midi": 37,
          "name": "C#2",
          "ticks": 71520,
          "time": 58.815664,
          "velocity": 0.8031496062992126
        },
        {
          "duration": 0.1957232666666684,
          "durationTicks": 238,
          "midi": 42,
          "name": "F#2",
          "ticks": 71520,
          "time": 58.815664,
          "velocity": 0.6456692913385826
        },
        {
          "duration": 0.09703926666666973,
          "durationTicks": 118,
          "midi": 42,
          "name": "F#2",
          "ticks": 71760,
          "time": 59.013031999999995,
          "velocity": 0.6456692913385826
        },
        {
          "duration": 0.09703926666666973,
          "durationTicks": 118,
          "midi": 37,
          "name": "C#2",
          "ticks": 71880,
          "time": 59.111715999999994,
          "velocity": 0.8031496062992126
        },
        {
          "duration": 0.1957232666666684,
          "durationTicks": 238,
          "midi": 42,
          "name": "F#2",
          "ticks": 72000,
          "time": 59.21039999999999,
          "velocity": 0.6456692913385826
        },
        {
          "duration": 0.1957232666666684,
          "durationTicks": 238,
          "midi": 42,
          "name": "F#2",
          "ticks": 72240,
          "time": 59.407768,
          "velocity": 0.6456692913385826
        },
        {
          "duration": 0.1957232666666684,
          "durationTicks": 238,
          "midi": 37,
          "name": "C#2",
          "ticks": 72480,
          "time": 59.605135999999995,
          "velocity": 0.8031496062992126
        },
        {
          "duration": 0.1957232666666684,
          "durationTicks": 238,
          "midi": 42,
          "name": "F#2",
          "ticks": 72480,
          "time": 59.605135999999995,
          "velocity": 0.6456692913385826
        },
        {
          "duration": 0.09703926666666263,
          "durationTicks": 118,
          "midi": 42,
          "name": "F#2",
          "ticks": 72720,
          "time": 59.802504,
          "velocity": 0.6456692913385826
        },
        {
          "duration": 0.09703926666666973,
          "durationTicks": 118,
          "midi": 37,
          "name": "C#2",
          "ticks": 72840,
          "time": 59.901188,
          "velocity": 0.8031496062992126
        },
        {
          "duration": 0.1957232666666684,
          "durationTicks": 238,
          "midi": 42,
          "name": "F#2",
          "ticks": 72960,
          "time": 59.999871999999996,
          "velocity": 0.6456692913385826
        },
        {
          "duration": 0.1957232666666684,
          "durationTicks": 238,
          "midi": 42,
          "name": "F#2",
          "ticks": 73200,
          "time": 60.197239999999994,
          "velocity": 0.6456692913385826
        },
        {
          "duration": 0.1957232666666684,
          "durationTicks": 238,
          "midi": 37,
          "name": "C#2",
          "ticks": 73440,
          "time": 60.394608,
          "velocity": 0.8031496062992126
        },
        {
          "duration": 0.1957232666666684,
          "durationTicks": 238,
          "midi": 42,
          "name": "F#2",
          "ticks": 73440,
          "time": 60.394608,
          "velocity": 0.6456692913385826
        },
        {
          "duration": 0.09703926666666973,
          "durationTicks": 118,
          "midi": 42,
          "name": "F#2",
          "ticks": 73680,
          "time": 60.591975999999995,
          "velocity": 0.6456692913385826
        },
        {
          "duration": 0.09703926666666973,
          "durationTicks": 118,
          "midi": 37,
          "name": "C#2",
          "ticks": 73800,
          "time": 60.690659999999994,
          "velocity": 0.8031496062992126
        },
        {
          "duration": 0.1957232666666613,
          "durationTicks": 238,
          "midi": 42,
          "name": "F#2",
          "ticks": 73920,
          "time": 60.789344,
          "velocity": 0.6456692913385826
        },
        {
          "duration": 0.1957232666666684,
          "durationTicks": 238,
          "midi": 42,
          "name": "F#2",
          "ticks": 74160,
          "time": 60.986712,
          "velocity": 0.6456692913385826
        },
        {
          "duration": 0.1957232666666684,
          "durationTicks": 238,
          "midi": 37,
          "name": "C#2",
          "ticks": 74400,
          "time": 61.184079999999994,
          "velocity": 0.8031496062992126
        },
        {
          "duration": 0.1957232666666684,
          "durationTicks": 238,
          "midi": 42,
          "name": "F#2",
          "ticks": 74400,
          "time": 61.184079999999994,
          "velocity": 0.6456692913385826
        },
        {
          "duration": 0.09703926666666263,
          "durationTicks": 118,
          "midi": 42,
          "name": "F#2",
          "ticks": 74640,
          "time": 61.381448,
          "velocity": 0.6456692913385826
        },
        {
          "duration": 0.09703926666666973,
          "durationTicks": 118,
          "midi": 37,
          "name": "C#2",
          "ticks": 74760,
          "time": 61.480132,
          "velocity": 0.8031496062992126
        },
        {
          "duration": 0.1957232666666684,
          "durationTicks": 238,
          "midi": 35,
          "name": "B1",
          "ticks": 74880,
          "time": 61.578815999999996,
          "velocity": 0.8031496062992126
        },
        {
          "duration": 0.1957232666666684,
          "durationTicks": 238,
          "midi": 42,
          "name": "F#2",
          "ticks": 74880,
          "time": 61.578815999999996,
          "velocity": 0.6456692913385826
        },
        {
          "duration": 0.1957232666666684,
          "durationTicks": 238,
          "midi": 42,
          "name": "F#2",
          "ticks": 75120,
          "time": 61.77618399999999,
          "velocity": 0.6456692913385826
        },
        {
          "duration": 0.1957232666666684,
          "durationTicks": 238,
          "midi": 37,
          "name": "C#2",
          "ticks": 75360,
          "time": 61.973552,
          "velocity": 0.8031496062992126
        },
        {
          "duration": 0.1957232666666684,
          "durationTicks": 238,
          "midi": 42,
          "name": "F#2",
          "ticks": 75360,
          "time": 61.973552,
          "velocity": 0.6456692913385826
        },
        {
          "duration": 0.09703926666666973,
          "durationTicks": 118,
          "midi": 42,
          "name": "F#2",
          "ticks": 75600,
          "time": 62.170919999999995,
          "velocity": 0.6456692913385826
        },
        {
          "duration": 0.09703926666666973,
          "durationTicks": 118,
          "midi": 37,
          "name": "C#2",
          "ticks": 75720,
          "time": 62.269603999999994,
          "velocity": 0.8031496062992126
        },
        {
          "duration": 0.1957232666666684,
          "durationTicks": 238,
          "midi": 42,
          "name": "F#2",
          "ticks": 75840,
          "time": 62.36828799999999,
          "velocity": 0.6456692913385826
        },
        {
          "duration": 0.1957232666666684,
          "durationTicks": 238,
          "midi": 42,
          "name": "F#2",
          "ticks": 76080,
          "time": 62.565656,
          "velocity": 0.6456692913385826
        },
        {
          "duration": 0.1957232666666684,
          "durationTicks": 238,
          "midi": 37,
          "name": "C#2",
          "ticks": 76320,
          "time": 62.763023999999994,
          "velocity": 0.8031496062992126
        },
        {
          "duration": 0.1957232666666684,
          "durationTicks": 238,
          "midi": 42,
          "name": "F#2",
          "ticks": 76320,
          "time": 62.763023999999994,
          "velocity": 0.6456692913385826
        },
        {
          "duration": 0.09703926666666263,
          "durationTicks": 118,
          "midi": 42,
          "name": "F#2",
          "ticks": 76560,
          "time": 62.960392,
          "velocity": 0.6456692913385826
        },
        {
          "duration": 0.09703926666666973,
          "durationTicks": 118,
          "midi": 37,
          "name": "C#2",
          "ticks": 76680,
          "time": 63.059076,
          "velocity": 0.8031496062992126
        },
        {
          "duration": 0.1957232666666684,
          "durationTicks": 238,
          "midi": 42,
          "name": "F#2",
          "ticks": 76800,
          "time": 63.157759999999996,
          "velocity": 0.6456692913385826
        },
        {
          "duration": 0.1957232666666684,
          "durationTicks": 238,
          "midi": 42,
          "name": "F#2",
          "ticks": 77040,
          "time": 63.35512799999999,
          "velocity": 0.6456692913385826
        },
        {
          "duration": 0.1957232666666684,
          "durationTicks": 238,
          "midi": 37,
          "name": "C#2",
          "ticks": 77280,
          "time": 63.552496,
          "velocity": 0.8031496062992126
        },
        {
          "duration": 0.1957232666666684,
          "durationTicks": 238,
          "midi": 42,
          "name": "F#2",
          "ticks": 77280,
          "time": 63.552496,
          "velocity": 0.6456692913385826
        },
        {
          "duration": 0.09703926666666973,
          "durationTicks": 118,
          "midi": 42,
          "name": "F#2",
          "ticks": 77520,
          "time": 63.749863999999995,
          "velocity": 0.6456692913385826
        },
        {
          "duration": 0.09703926666666973,
          "durationTicks": 118,
          "midi": 37,
          "name": "C#2",
          "ticks": 77640,
          "time": 63.848547999999994,
          "velocity": 0.8031496062992126
        },
        {
          "duration": 0.1957232666666613,
          "durationTicks": 238,
          "midi": 42,
          "name": "F#2",
          "ticks": 77760,
          "time": 63.947232,
          "velocity": 0.6456692913385826
        },
        {
          "duration": 0.1957232666666613,
          "durationTicks": 238,
          "midi": 42,
          "name": "F#2",
          "ticks": 78000,
          "time": 64.1446,
          "velocity": 0.6456692913385826
        },
        {
          "duration": 0.1957232666666755,
          "durationTicks": 238,
          "midi": 37,
          "name": "C#2",
          "ticks": 78240,
          "time": 64.341968,
          "velocity": 0.8031496062992126
        },
        {
          "duration": 0.1957232666666755,
          "durationTicks": 238,
          "midi": 42,
          "name": "F#2",
          "ticks": 78240,
          "time": 64.341968,
          "velocity": 0.6456692913385826
        },
        {
          "duration": 0.09703926666666973,
          "durationTicks": 118,
          "midi": 42,
          "name": "F#2",
          "ticks": 78480,
          "time": 64.53933599999999,
          "velocity": 0.6456692913385826
        },
        {
          "duration": 0.09703926666666973,
          "durationTicks": 118,
          "midi": 37,
          "name": "C#2",
          "ticks": 78600,
          "time": 64.63802,
          "velocity": 0.8031496062992126
        },
        {
          "duration": 0.1957232666666613,
          "durationTicks": 238,
          "midi": 35,
          "name": "B1",
          "ticks": 78720,
          "time": 64.736704,
          "velocity": 0.8031496062992126
        },
        {
          "duration": 0.1957232666666613,
          "durationTicks": 238,
          "midi": 42,
          "name": "F#2",
          "ticks": 78720,
          "time": 64.736704,
          "velocity": 0.6456692913385826
        },
        {
          "duration": 0.1957232666666613,
          "durationTicks": 238,
          "midi": 35,
          "name": "B1",
          "ticks": 78960,
          "time": 64.934072,
          "velocity": 0.8031496062992126
        },
        {
          "duration": 0.1957232666666613,
          "durationTicks": 238,
          "midi": 42,
          "name": "F#2",
          "ticks": 78960,
          "time": 64.934072,
          "velocity": 0.6456692913385826
        },
        {
          "duration": 0.1957232666666613,
          "durationTicks": 238,
          "midi": 37,
          "name": "C#2",
          "ticks": 79200,
          "time": 65.13144,
          "velocity": 0.8031496062992126
        },
        {
          "duration": 0.1957232666666613,
          "durationTicks": 238,
          "midi": 42,
          "name": "F#2",
          "ticks": 79200,
          "time": 65.13144,
          "velocity": 0.6456692913385826
        },
        {
          "duration": 0.09703926666666973,
          "durationTicks": 118,
          "midi": 42,
          "name": "F#2",
          "ticks": 79440,
          "time": 65.328808,
          "velocity": 0.6456692913385826
        },
        {
          "duration": 0.09703926666666973,
          "durationTicks": 118,
          "midi": 37,
          "name": "C#2",
          "ticks": 79560,
          "time": 65.427492,
          "velocity": 0.8031496062992126
        },
        {
          "duration": 0.1957232666666755,
          "durationTicks": 238,
          "midi": 42,
          "name": "F#2",
          "ticks": 79680,
          "time": 65.52617599999999,
          "velocity": 0.6456692913385826
        },
        {
          "duration": 0.1957232666666755,
          "durationTicks": 238,
          "midi": 42,
          "name": "F#2",
          "ticks": 79920,
          "time": 65.72354399999999,
          "velocity": 0.6456692913385826
        },
        {
          "duration": 0.1957232666666613,
          "durationTicks": 238,
          "midi": 37,
          "name": "C#2",
          "ticks": 80160,
          "time": 65.920912,
          "velocity": 0.8031496062992126
        },
        {
          "duration": 0.1957232666666613,
          "durationTicks": 238,
          "midi": 42,
          "name": "F#2",
          "ticks": 80160,
          "time": 65.920912,
          "velocity": 0.6456692913385826
        },
        {
          "duration": 0.09703926666666973,
          "durationTicks": 118,
          "midi": 42,
          "name": "F#2",
          "ticks": 80400,
          "time": 66.11828,
          "velocity": 0.6456692913385826
        },
        {
          "duration": 0.09703926666666973,
          "durationTicks": 118,
          "midi": 37,
          "name": "C#2",
          "ticks": 80520,
          "time": 66.21696399999999,
          "velocity": 0.8031496062992126
        },
        {
          "duration": 0.1957232666666613,
          "durationTicks": 238,
          "midi": 42,
          "name": "F#2",
          "ticks": 80640,
          "time": 66.315648,
          "velocity": 0.6456692913385826
        },
        {
          "duration": 0.1957232666666755,
          "durationTicks": 238,
          "midi": 42,
          "name": "F#2",
          "ticks": 80880,
          "time": 66.513016,
          "velocity": 0.6456692913385826
        },
        {
          "duration": 0.1957232666666755,
          "durationTicks": 238,
          "midi": 37,
          "name": "C#2",
          "ticks": 81120,
          "time": 66.71038399999999,
          "velocity": 0.8031496062992126
        },
        {
          "duration": 0.1957232666666755,
          "durationTicks": 238,
          "midi": 42,
          "name": "F#2",
          "ticks": 81120,
          "time": 66.71038399999999,
          "velocity": 0.6456692913385826
        },
        {
          "duration": 0.09703926666665552,
          "durationTicks": 118,
          "midi": 42,
          "name": "F#2",
          "ticks": 81360,
          "time": 66.907752,
          "velocity": 0.6456692913385826
        },
        {
          "duration": 0.09703926666666973,
          "durationTicks": 118,
          "midi": 37,
          "name": "C#2",
          "ticks": 81480,
          "time": 67.006436,
          "velocity": 0.8031496062992126
        },
        {
          "duration": 0.1957232666666613,
          "durationTicks": 238,
          "midi": 42,
          "name": "F#2",
          "ticks": 81600,
          "time": 67.10512,
          "velocity": 0.6456692913385826
        },
        {
          "duration": 0.1957232666666613,
          "durationTicks": 238,
          "midi": 42,
          "name": "F#2",
          "ticks": 81840,
          "time": 67.302488,
          "velocity": 0.6456692913385826
        },
        {
          "duration": 0.1957232666666755,
          "durationTicks": 238,
          "midi": 37,
          "name": "C#2",
          "ticks": 82080,
          "time": 67.499856,
          "velocity": 0.8031496062992126
        },
        {
          "duration": 0.1957232666666755,
          "durationTicks": 238,
          "midi": 42,
          "name": "F#2",
          "ticks": 82080,
          "time": 67.499856,
          "velocity": 0.6456692913385826
        },
        {
          "duration": 0.09703926666666973,
          "durationTicks": 118,
          "midi": 42,
          "name": "F#2",
          "ticks": 82320,
          "time": 67.69722399999999,
          "velocity": 0.6456692913385826
        },
        {
          "duration": 0.09703926666666973,
          "durationTicks": 118,
          "midi": 37,
          "name": "C#2",
          "ticks": 82440,
          "time": 67.795908,
          "velocity": 0.8031496062992126
        },
        {
          "duration": 0.1957232666666755,
          "durationTicks": 238,
          "midi": 35,
          "name": "B1",
          "ticks": 82560,
          "time": 67.89459199999999,
          "velocity": 0.8031496062992126
        },
        {
          "duration": 0.1957232666666755,
          "durationTicks": 238,
          "midi": 42,
          "name": "F#2",
          "ticks": 82560,
          "time": 67.89459199999999,
          "velocity": 0.6456692913385826
        },
        {
          "duration": 0.1957232666666613,
          "durationTicks": 238,
          "midi": 42,
          "name": "F#2",
          "ticks": 82800,
          "time": 68.09196,
          "velocity": 0.6456692913385826
        },
        {
          "duration": 0.1957232666666613,
          "durationTicks": 238,
          "midi": 37,
          "name": "C#2",
          "ticks": 83040,
          "time": 68.289328,
          "velocity": 0.8031496062992126
        },
        {
          "duration": 0.1957232666666613,
          "durationTicks": 238,
          "midi": 42,
          "name": "F#2",
          "ticks": 83040,
          "time": 68.289328,
          "velocity": 0.6456692913385826
        },
        {
          "duration": 0.09703926666666973,
          "durationTicks": 118,
          "midi": 42,
          "name": "F#2",
          "ticks": 83280,
          "time": 68.486696,
          "velocity": 0.6456692913385826
        },
        {
          "duration": 0.09703926666666973,
          "durationTicks": 118,
          "midi": 37,
          "name": "C#2",
          "ticks": 83400,
          "time": 68.58538,
          "velocity": 0.8031496062992126
        },
        {
          "duration": 0.1957232666666755,
          "durationTicks": 238,
          "midi": 42,
          "name": "F#2",
          "ticks": 83520,
          "time": 68.68406399999999,
          "velocity": 0.6456692913385826
        },
        {
          "duration": 0.1957232666666755,
          "durationTicks": 238,
          "midi": 42,
          "name": "F#2",
          "ticks": 83760,
          "time": 68.88143199999999,
          "velocity": 0.6456692913385826
        },
        {
          "duration": 0.1957232666666613,
          "durationTicks": 238,
          "midi": 37,
          "name": "C#2",
          "ticks": 84000,
          "time": 69.0788,
          "velocity": 0.8031496062992126
        },
        {
          "duration": 0.1957232666666613,
          "durationTicks": 238,
          "midi": 42,
          "name": "F#2",
          "ticks": 84000,
          "time": 69.0788,
          "velocity": 0.6456692913385826
        },
        {
          "duration": 0.09703926666666973,
          "durationTicks": 118,
          "midi": 42,
          "name": "F#2",
          "ticks": 84240,
          "time": 69.276168,
          "velocity": 0.6456692913385826
        },
        {
          "duration": 0.09703926666666973,
          "durationTicks": 118,
          "midi": 37,
          "name": "C#2",
          "ticks": 84360,
          "time": 69.37485199999999,
          "velocity": 0.8031496062992126
        },
        {
          "duration": 0.1957232666666613,
          "durationTicks": 238,
          "midi": 42,
          "name": "F#2",
          "ticks": 84480,
          "time": 69.473536,
          "velocity": 0.6456692913385826
        },
        {
          "duration": 0.1957232666666755,
          "durationTicks": 238,
          "midi": 42,
          "name": "F#2",
          "ticks": 84720,
          "time": 69.670904,
          "velocity": 0.6456692913385826
        },
        {
          "duration": 0.1957232666666755,
          "durationTicks": 238,
          "midi": 37,
          "name": "C#2",
          "ticks": 84960,
          "time": 69.86827199999999,
          "velocity": 0.8031496062992126
        },
        {
          "duration": 0.1957232666666755,
          "durationTicks": 238,
          "midi": 42,
          "name": "F#2",
          "ticks": 84960,
          "time": 69.86827199999999,
          "velocity": 0.6456692913385826
        },
        {
          "duration": 0.09703926666665552,
          "durationTicks": 118,
          "midi": 42,
          "name": "F#2",
          "ticks": 85200,
          "time": 70.06564,
          "velocity": 0.6456692913385826
        },
        {
          "duration": 0.09703926666666973,
          "durationTicks": 118,
          "midi": 37,
          "name": "C#2",
          "ticks": 85320,
          "time": 70.164324,
          "velocity": 0.8031496062992126
        },
        {
          "duration": 0.1957232666666613,
          "durationTicks": 238,
          "midi": 42,
          "name": "F#2",
          "ticks": 85440,
          "time": 70.263008,
          "velocity": 0.6456692913385826
        },
        {
          "duration": 0.1957232666666613,
          "durationTicks": 238,
          "midi": 42,
          "name": "F#2",
          "ticks": 85680,
          "time": 70.460376,
          "velocity": 0.6456692913385826
        },
        {
          "duration": 0.1957232666666755,
          "durationTicks": 238,
          "midi": 37,
          "name": "C#2",
          "ticks": 85920,
          "time": 70.657744,
          "velocity": 0.8031496062992126
        },
        {
          "duration": 0.1957232666666755,
          "durationTicks": 238,
          "midi": 42,
          "name": "F#2",
          "ticks": 85920,
          "time": 70.657744,
          "velocity": 0.6456692913385826
        },
        {
          "duration": 0.09703926666666973,
          "durationTicks": 118,
          "midi": 42,
          "name": "F#2",
          "ticks": 86160,
          "time": 70.85511199999999,
          "velocity": 0.6456692913385826
        },
        {
          "duration": 0.09703926666666973,
          "durationTicks": 118,
          "midi": 37,
          "name": "C#2",
          "ticks": 86280,
          "time": 70.953796,
          "velocity": 0.8031496062992126
        },
        {
          "duration": 0.1957232666666613,
          "durationTicks": 238,
          "midi": 35,
          "name": "B1",
          "ticks": 86400,
          "time": 71.05248,
          "velocity": 0.8031496062992126
        },
        {
          "duration": 0.1957232666666613,
          "durationTicks": 238,
          "midi": 42,
          "name": "F#2",
          "ticks": 86400,
          "time": 71.05248,
          "velocity": 0.6456692913385826
        },
        {
          "duration": 0.1957232666666613,
          "durationTicks": 238,
          "midi": 35,
          "name": "B1",
          "ticks": 86640,
          "time": 71.249848,
          "velocity": 0.8031496062992126
        },
        {
          "duration": 0.1957232666666613,
          "durationTicks": 238,
          "midi": 42,
          "name": "F#2",
          "ticks": 86640,
          "time": 71.249848,
          "velocity": 0.6456692913385826
        },
        {
          "duration": 0.1957232666666613,
          "durationTicks": 238,
          "midi": 37,
          "name": "C#2",
          "ticks": 86880,
          "time": 71.447216,
          "velocity": 0.8031496062992126
        },
        {
          "duration": 0.1957232666666613,
          "durationTicks": 238,
          "midi": 42,
          "name": "F#2",
          "ticks": 86880,
          "time": 71.447216,
          "velocity": 0.6456692913385826
        },
        {
          "duration": 0.09703926666666973,
          "durationTicks": 118,
          "midi": 42,
          "name": "F#2",
          "ticks": 87120,
          "time": 71.644584,
          "velocity": 0.6456692913385826
        },
        {
          "duration": 0.09703926666666973,
          "durationTicks": 118,
          "midi": 37,
          "name": "C#2",
          "ticks": 87240,
          "time": 71.743268,
          "velocity": 0.8031496062992126
        },
        {
          "duration": 0.1957232666666755,
          "durationTicks": 238,
          "midi": 42,
          "name": "F#2",
          "ticks": 87360,
          "time": 71.84195199999999,
          "velocity": 0.6456692913385826
        },
        {
          "duration": 0.1957232666666755,
          "durationTicks": 238,
          "midi": 42,
          "name": "F#2",
          "ticks": 87600,
          "time": 72.03931999999999,
          "velocity": 0.6456692913385826
        },
        {
          "duration": 0.1957232666666613,
          "durationTicks": 238,
          "midi": 37,
          "name": "C#2",
          "ticks": 87840,
          "time": 72.236688,
          "velocity": 0.8031496062992126
        },
        {
          "duration": 0.1957232666666613,
          "durationTicks": 238,
          "midi": 42,
          "name": "F#2",
          "ticks": 87840,
          "time": 72.236688,
          "velocity": 0.6456692913385826
        },
        {
          "duration": 0.09703926666666973,
          "durationTicks": 118,
          "midi": 42,
          "name": "F#2",
          "ticks": 88080,
          "time": 72.434056,
          "velocity": 0.6456692913385826
        },
        {
          "duration": 0.09703926666666973,
          "durationTicks": 118,
          "midi": 37,
          "name": "C#2",
          "ticks": 88200,
          "time": 72.53273999999999,
          "velocity": 0.8031496062992126
        },
        {
          "duration": 0.1957232666666613,
          "durationTicks": 238,
          "midi": 42,
          "name": "F#2",
          "ticks": 88320,
          "time": 72.631424,
          "velocity": 0.6456692913385826
        },
        {
          "duration": 0.1957232666666755,
          "durationTicks": 238,
          "midi": 42,
          "name": "F#2",
          "ticks": 88560,
          "time": 72.82879199999999,
          "velocity": 0.6456692913385826
        },
        {
          "duration": 0.1957232666666755,
          "durationTicks": 238,
          "midi": 37,
          "name": "C#2",
          "ticks": 88800,
          "time": 73.02615999999999,
          "velocity": 0.8031496062992126
        },
        {
          "duration": 0.1957232666666755,
          "durationTicks": 238,
          "midi": 42,
          "name": "F#2",
          "ticks": 88800,
          "time": 73.02615999999999,
          "velocity": 0.6456692913385826
        },
        {
          "duration": 0.09703926666665552,
          "durationTicks": 118,
          "midi": 42,
          "name": "F#2",
          "ticks": 89040,
          "time": 73.223528,
          "velocity": 0.6456692913385826
        },
        {
          "duration": 0.09703926666666973,
          "durationTicks": 118,
          "midi": 37,
          "name": "C#2",
          "ticks": 89160,
          "time": 73.322212,
          "velocity": 0.8031496062992126
        },
        {
          "duration": 0.1957232666666613,
          "durationTicks": 238,
          "midi": 42,
          "name": "F#2",
          "ticks": 89280,
          "time": 73.420896,
          "velocity": 0.6456692913385826
        },
        {
          "duration": 0.1957232666666613,
          "durationTicks": 238,
          "midi": 42,
          "name": "F#2",
          "ticks": 89520,
          "time": 73.618264,
          "velocity": 0.6456692913385826
        },
        {
          "duration": 0.1957232666666755,
          "durationTicks": 238,
          "midi": 37,
          "name": "C#2",
          "ticks": 89760,
          "time": 73.815632,
          "velocity": 0.8031496062992126
        },
        {
          "duration": 0.1957232666666755,
          "durationTicks": 238,
          "midi": 42,
          "name": "F#2",
          "ticks": 89760,
          "time": 73.815632,
          "velocity": 0.6456692913385826
        },
        {
          "duration": 0.09703926666666973,
          "durationTicks": 118,
          "midi": 42,
          "name": "F#2",
          "ticks": 90000,
          "time": 74.01299999999999,
          "velocity": 0.6456692913385826
        },
        {
          "duration": 0.09703926666666973,
          "durationTicks": 118,
          "midi": 37,
          "name": "C#2",
          "ticks": 90120,
          "time": 74.111684,
          "velocity": 0.8031496062992126
        },
        {
          "duration": 0.1957232666666755,
          "durationTicks": 238,
          "midi": 35,
          "name": "B1",
          "ticks": 90240,
          "time": 74.21036799999999,
          "velocity": 0.8031496062992126
        },
        {
          "duration": 0.1957232666666755,
          "durationTicks": 238,
          "midi": 42,
          "name": "F#2",
          "ticks": 90240,
          "time": 74.21036799999999,
          "velocity": 0.6456692913385826
        },
        {
          "duration": 0.1957232666666613,
          "durationTicks": 238,
          "midi": 42,
          "name": "F#2",
          "ticks": 90480,
          "time": 74.407736,
          "velocity": 0.6456692913385826
        },
        {
          "duration": 0.1957232666666613,
          "durationTicks": 238,
          "midi": 37,
          "name": "C#2",
          "ticks": 90720,
          "time": 74.605104,
          "velocity": 0.8031496062992126
        },
        {
          "duration": 0.1957232666666613,
          "durationTicks": 238,
          "midi": 42,
          "name": "F#2",
          "ticks": 90720,
          "time": 74.605104,
          "velocity": 0.6456692913385826
        },
        {
          "duration": 0.09703926666666973,
          "durationTicks": 118,
          "midi": 42,
          "name": "F#2",
          "ticks": 90960,
          "time": 74.802472,
          "velocity": 0.6456692913385826
        },
        {
          "duration": 0.09703926666666973,
          "durationTicks": 118,
          "midi": 37,
          "name": "C#2",
          "ticks": 91080,
          "time": 74.901156,
          "velocity": 0.8031496062992126
        },
        {
          "duration": 0.1957232666666755,
          "durationTicks": 238,
          "midi": 42,
          "name": "F#2",
          "ticks": 91200,
          "time": 74.99983999999999,
          "velocity": 0.6456692913385826
        },
        {
          "duration": 0.1957232666666755,
          "durationTicks": 238,
          "midi": 42,
          "name": "F#2",
          "ticks": 91440,
          "time": 75.19720799999999,
          "velocity": 0.6456692913385826
        },
        {
          "duration": 0.1957232666666613,
          "durationTicks": 238,
          "midi": 37,
          "name": "C#2",
          "ticks": 91680,
          "time": 75.394576,
          "velocity": 0.8031496062992126
        },
        {
          "duration": 0.1957232666666613,
          "durationTicks": 238,
          "midi": 42,
          "name": "F#2",
          "ticks": 91680,
          "time": 75.394576,
          "velocity": 0.6456692913385826
        },
        {
          "duration": 0.09703926666666973,
          "durationTicks": 118,
          "midi": 42,
          "name": "F#2",
          "ticks": 91920,
          "time": 75.591944,
          "velocity": 0.6456692913385826
        },
        {
          "duration": 0.09703926666666973,
          "durationTicks": 118,
          "midi": 37,
          "name": "C#2",
          "ticks": 92040,
          "time": 75.69062799999999,
          "velocity": 0.8031496062992126
        },
        {
          "duration": 0.1957232666666613,
          "durationTicks": 238,
          "midi": 42,
          "name": "F#2",
          "ticks": 92160,
          "time": 75.789312,
          "velocity": 0.6456692913385826
        },
        {
          "duration": 0.1957232666666755,
          "durationTicks": 238,
          "midi": 42,
          "name": "F#2",
          "ticks": 92400,
          "time": 75.98667999999999,
          "velocity": 0.6456692913385826
        },
        {
          "duration": 0.1957232666666755,
          "durationTicks": 238,
          "midi": 37,
          "name": "C#2",
          "ticks": 92640,
          "time": 76.18404799999999,
          "velocity": 0.8031496062992126
        },
        {
          "duration": 0.1957232666666755,
          "durationTicks": 238,
          "midi": 42,
          "name": "F#2",
          "ticks": 92640,
          "time": 76.18404799999999,
          "velocity": 0.6456692913385826
        },
        {
          "duration": 0.09703926666665552,
          "durationTicks": 118,
          "midi": 42,
          "name": "F#2",
          "ticks": 92880,
          "time": 76.381416,
          "velocity": 0.6456692913385826
        },
        {
          "duration": 0.09703926666666973,
          "durationTicks": 118,
          "midi": 37,
          "name": "C#2",
          "ticks": 93000,
          "time": 76.4801,
          "velocity": 0.8031496062992126
        },
        {
          "duration": 0.1957232666666613,
          "durationTicks": 238,
          "midi": 42,
          "name": "F#2",
          "ticks": 93120,
          "time": 76.578784,
          "velocity": 0.6456692913385826
        },
        {
          "duration": 0.1957232666666613,
          "durationTicks": 238,
          "midi": 42,
          "name": "F#2",
          "ticks": 93360,
          "time": 76.776152,
          "velocity": 0.6456692913385826
        },
        {
          "duration": 0.1957232666666755,
          "durationTicks": 238,
          "midi": 37,
          "name": "C#2",
          "ticks": 93600,
          "time": 76.97352,
          "velocity": 0.8031496062992126
        },
        {
          "duration": 0.1957232666666755,
          "durationTicks": 238,
          "midi": 42,
          "name": "F#2",
          "ticks": 93600,
          "time": 76.97352,
          "velocity": 0.6456692913385826
        },
        {
          "duration": 0.09703926666666973,
          "durationTicks": 118,
          "midi": 42,
          "name": "F#2",
          "ticks": 93840,
          "time": 77.17088799999999,
          "velocity": 0.6456692913385826
        },
        {
          "duration": 0.09703926666666973,
          "durationTicks": 118,
          "midi": 37,
          "name": "C#2",
          "ticks": 93960,
          "time": 77.269572,
          "velocity": 0.8031496062992126
        },
        {
          "duration": 0.1957232666666613,
          "durationTicks": 238,
          "midi": 35,
          "name": "B1",
          "ticks": 94080,
          "time": 77.368256,
          "velocity": 0.8031496062992126
        },
        {
          "duration": 0.1957232666666613,
          "durationTicks": 238,
          "midi": 42,
          "name": "F#2",
          "ticks": 94080,
          "time": 77.368256,
          "velocity": 0.6456692913385826
        },
        {
          "duration": 0.1957232666666613,
          "durationTicks": 238,
          "midi": 35,
          "name": "B1",
          "ticks": 94320,
          "time": 77.565624,
          "velocity": 0.8031496062992126
        },
        {
          "duration": 0.1957232666666613,
          "durationTicks": 238,
          "midi": 42,
          "name": "F#2",
          "ticks": 94320,
          "time": 77.565624,
          "velocity": 0.6456692913385826
        },
        {
          "duration": 0.1957232666666613,
          "durationTicks": 238,
          "midi": 37,
          "name": "C#2",
          "ticks": 94560,
          "time": 77.762992,
          "velocity": 0.8031496062992126
        },
        {
          "duration": 0.1957232666666613,
          "durationTicks": 238,
          "midi": 42,
          "name": "F#2",
          "ticks": 94560,
          "time": 77.762992,
          "velocity": 0.6456692913385826
        },
        {
          "duration": 0.09703926666666973,
          "durationTicks": 118,
          "midi": 42,
          "name": "F#2",
          "ticks": 94800,
          "time": 77.96036,
          "velocity": 0.6456692913385826
        },
        {
          "duration": 0.09703926666666973,
          "durationTicks": 118,
          "midi": 37,
          "name": "C#2",
          "ticks": 94920,
          "time": 78.059044,
          "velocity": 0.8031496062992126
        },
        {
          "duration": 0.1957232666666755,
          "durationTicks": 238,
          "midi": 42,
          "name": "F#2",
          "ticks": 95040,
          "time": 78.15772799999999,
          "velocity": 0.6456692913385826
        },
        {
          "duration": 0.1957232666666755,
          "durationTicks": 238,
          "midi": 42,
          "name": "F#2",
          "ticks": 95280,
          "time": 78.35509599999999,
          "velocity": 0.6456692913385826
        },
        {
          "duration": 0.1957232666666613,
          "durationTicks": 238,
          "midi": 37,
          "name": "C#2",
          "ticks": 95520,
          "time": 78.552464,
          "velocity": 0.8031496062992126
        },
        {
          "duration": 0.1957232666666613,
          "durationTicks": 238,
          "midi": 42,
          "name": "F#2",
          "ticks": 95520,
          "time": 78.552464,
          "velocity": 0.6456692913385826
        },
        {
          "duration": 0.09703926666666973,
          "durationTicks": 118,
          "midi": 42,
          "name": "F#2",
          "ticks": 95760,
          "time": 78.749832,
          "velocity": 0.6456692913385826
        },
        {
          "duration": 0.09703926666666973,
          "durationTicks": 118,
          "midi": 37,
          "name": "C#2",
          "ticks": 95880,
          "time": 78.84851599999999,
          "velocity": 0.8031496062992126
        },
        {
          "duration": 0.1957232666666613,
          "durationTicks": 238,
          "midi": 42,
          "name": "F#2",
          "ticks": 96000,
          "time": 78.9472,
          "velocity": 0.6456692913385826
        },
        {
          "duration": 0.1957232666666755,
          "durationTicks": 238,
          "midi": 42,
          "name": "F#2",
          "ticks": 96240,
          "time": 79.14456799999999,
          "velocity": 0.6456692913385826
        },
        {
          "duration": 0.1957232666666755,
          "durationTicks": 238,
          "midi": 37,
          "name": "C#2",
          "ticks": 96480,
          "time": 79.34193599999999,
          "velocity": 0.8031496062992126
        },
        {
          "duration": 0.1957232666666755,
          "durationTicks": 238,
          "midi": 42,
          "name": "F#2",
          "ticks": 96480,
          "time": 79.34193599999999,
          "velocity": 0.6456692913385826
        },
        {
          "duration": 0.09703926666665552,
          "durationTicks": 118,
          "midi": 42,
          "name": "F#2",
          "ticks": 96720,
          "time": 79.539304,
          "velocity": 0.6456692913385826
        },
        {
          "duration": 0.09703926666666973,
          "durationTicks": 118,
          "midi": 37,
          "name": "C#2",
          "ticks": 96840,
          "time": 79.63798799999999,
          "velocity": 0.8031496062992126
        },
        {
          "duration": 0.1957232666666613,
          "durationTicks": 238,
          "midi": 42,
          "name": "F#2",
          "ticks": 96960,
          "time": 79.736672,
          "velocity": 0.6456692913385826
        },
        {
          "duration": 0.1957232666666613,
          "durationTicks": 238,
          "midi": 42,
          "name": "F#2",
          "ticks": 97200,
          "time": 79.93404,
          "velocity": 0.6456692913385826
        },
        {
          "duration": 0.1957232666666755,
          "durationTicks": 238,
          "midi": 37,
          "name": "C#2",
          "ticks": 97440,
          "time": 80.131408,
          "velocity": 0.8031496062992126
        },
        {
          "duration": 0.1957232666666755,
          "durationTicks": 238,
          "midi": 42,
          "name": "F#2",
          "ticks": 97440,
          "time": 80.131408,
          "velocity": 0.6456692913385826
        },
        {
          "duration": 0.09703926666666973,
          "durationTicks": 118,
          "midi": 42,
          "name": "F#2",
          "ticks": 97680,
          "time": 80.32877599999999,
          "velocity": 0.6456692913385826
        },
        {
          "duration": 0.09703926666666973,
          "durationTicks": 118,
          "midi": 37,
          "name": "C#2",
          "ticks": 97800,
          "time": 80.42746,
          "velocity": 0.8031496062992126
        },
        {
          "duration": 0.1957232666666755,
          "durationTicks": 238,
          "midi": 35,
          "name": "B1",
          "ticks": 97920,
          "time": 80.52614399999999,
          "velocity": 0.8031496062992126
        },
        {
          "duration": 0.1957232666666755,
          "durationTicks": 238,
          "midi": 42,
          "name": "F#2",
          "ticks": 97920,
          "time": 80.52614399999999,
          "velocity": 0.6456692913385826
        },
        {
          "duration": 0.1957232666666613,
          "durationTicks": 238,
          "midi": 42,
          "name": "F#2",
          "ticks": 98160,
          "time": 80.723512,
          "velocity": 0.6456692913385826
        },
        {
          "duration": 0.1957232666666613,
          "durationTicks": 238,
          "midi": 37,
          "name": "C#2",
          "ticks": 98400,
          "time": 80.92088,
          "velocity": 0.8031496062992126
        },
        {
          "duration": 0.1957232666666613,
          "durationTicks": 238,
          "midi": 42,
          "name": "F#2",
          "ticks": 98400,
          "time": 80.92088,
          "velocity": 0.6456692913385826
        },
        {
          "duration": 0.09703926666666973,
          "durationTicks": 118,
          "midi": 42,
          "name": "F#2",
          "ticks": 98640,
          "time": 81.118248,
          "velocity": 0.6456692913385826
        },
        {
          "duration": 0.09703926666666973,
          "durationTicks": 118,
          "midi": 37,
          "name": "C#2",
          "ticks": 98760,
          "time": 81.216932,
          "velocity": 0.8031496062992126
        },
        {
          "duration": 0.1957232666666755,
          "durationTicks": 238,
          "midi": 42,
          "name": "F#2",
          "ticks": 98880,
          "time": 81.31561599999999,
          "velocity": 0.6456692913385826
        },
        {
          "duration": 0.1957232666666755,
          "durationTicks": 238,
          "midi": 42,
          "name": "F#2",
          "ticks": 99120,
          "time": 81.51298399999999,
          "velocity": 0.6456692913385826
        },
        {
          "duration": 0.1957232666666613,
          "durationTicks": 238,
          "midi": 37,
          "name": "C#2",
          "ticks": 99360,
          "time": 81.710352,
          "velocity": 0.8031496062992126
        },
        {
          "duration": 0.1957232666666613,
          "durationTicks": 238,
          "midi": 42,
          "name": "F#2",
          "ticks": 99360,
          "time": 81.710352,
          "velocity": 0.6456692913385826
        },
        {
          "duration": 0.09703926666666973,
          "durationTicks": 118,
          "midi": 42,
          "name": "F#2",
          "ticks": 99600,
          "time": 81.90772,
          "velocity": 0.6456692913385826
        },
        {
          "duration": 0.09703926666666973,
          "durationTicks": 118,
          "midi": 37,
          "name": "C#2",
          "ticks": 99720,
          "time": 82.00640399999999,
          "velocity": 0.8031496062992126
        },
        {
          "duration": 0.1957232666666613,
          "durationTicks": 238,
          "midi": 42,
          "name": "F#2",
          "ticks": 99840,
          "time": 82.105088,
          "velocity": 0.6456692913385826
        },
        {
          "duration": 0.1957232666666755,
          "durationTicks": 238,
          "midi": 42,
          "name": "F#2",
          "ticks": 100080,
          "time": 82.30245599999999,
          "velocity": 0.6456692913385826
        },
        {
          "duration": 0.1957232666666755,
          "durationTicks": 238,
          "midi": 37,
          "name": "C#2",
          "ticks": 100320,
          "time": 82.49982399999999,
          "velocity": 0.8031496062992126
        },
        {
          "duration": 0.1957232666666755,
          "durationTicks": 238,
          "midi": 42,
          "name": "F#2",
          "ticks": 100320,
          "time": 82.49982399999999,
          "velocity": 0.6456692913385826
        },
        {
          "duration": 0.09703926666665552,
          "durationTicks": 118,
          "midi": 42,
          "name": "F#2",
          "ticks": 100560,
          "time": 82.697192,
          "velocity": 0.6456692913385826
        },
        {
          "duration": 0.09703926666666973,
          "durationTicks": 118,
          "midi": 37,
          "name": "C#2",
          "ticks": 100680,
          "time": 82.79587599999999,
          "velocity": 0.8031496062992126
        },
        {
          "duration": 0.1957232666666613,
          "durationTicks": 238,
          "midi": 42,
          "name": "F#2",
          "ticks": 100800,
          "time": 82.89456,
          "velocity": 0.6456692913385826
        },
        {
          "duration": 0.1957232666666613,
          "durationTicks": 238,
          "midi": 42,
          "name": "F#2",
          "ticks": 101040,
          "time": 83.091928,
          "velocity": 0.6456692913385826
        },
        {
          "duration": 0.1957232666666755,
          "durationTicks": 238,
          "midi": 37,
          "name": "C#2",
          "ticks": 101280,
          "time": 83.289296,
          "velocity": 0.8031496062992126
        },
        {
          "duration": 0.1957232666666755,
          "durationTicks": 238,
          "midi": 42,
          "name": "F#2",
          "ticks": 101280,
          "time": 83.289296,
          "velocity": 0.6456692913385826
        },
        {
          "duration": 0.09703926666666973,
          "durationTicks": 118,
          "midi": 42,
          "name": "F#2",
          "ticks": 101520,
          "time": 83.48666399999999,
          "velocity": 0.6456692913385826
        },
        {
          "duration": 0.09703926666666973,
          "durationTicks": 118,
          "midi": 37,
          "name": "C#2",
          "ticks": 101640,
          "time": 83.585348,
          "velocity": 0.8031496062992126
        },
        {
          "duration": 0.1957232666666613,
          "durationTicks": 238,
          "midi": 35,
          "name": "B1",
          "ticks": 101760,
          "time": 83.684032,
          "velocity": 0.8031496062992126
        },
        {
          "duration": 0.1957232666666613,
          "durationTicks": 238,
          "midi": 42,
          "name": "F#2",
          "ticks": 101760,
          "time": 83.684032,
          "velocity": 0.6456692913385826
        },
        {
          "duration": 0.1957232666666613,
          "durationTicks": 238,
          "midi": 35,
          "name": "B1",
          "ticks": 102000,
          "time": 83.8814,
          "velocity": 0.8031496062992126
        },
        {
          "duration": 0.1957232666666613,
          "durationTicks": 238,
          "midi": 42,
          "name": "F#2",
          "ticks": 102000,
          "time": 83.8814,
          "velocity": 0.6456692913385826
        },
        {
          "duration": 0.1957232666666613,
          "durationTicks": 238,
          "midi": 37,
          "name": "C#2",
          "ticks": 102240,
          "time": 84.078768,
          "velocity": 0.8031496062992126
        },
        {
          "duration": 0.1957232666666613,
          "durationTicks": 238,
          "midi": 42,
          "name": "F#2",
          "ticks": 102240,
          "time": 84.078768,
          "velocity": 0.6456692913385826
        },
        {
          "duration": 0.09703926666666973,
          "durationTicks": 118,
          "midi": 42,
          "name": "F#2",
          "ticks": 102480,
          "time": 84.276136,
          "velocity": 0.6456692913385826
        },
        {
          "duration": 0.09703926666666973,
          "durationTicks": 118,
          "midi": 37,
          "name": "C#2",
          "ticks": 102600,
          "time": 84.37482,
          "velocity": 0.8031496062992126
        },
        {
          "duration": 0.1957232666666755,
          "durationTicks": 238,
          "midi": 42,
          "name": "F#2",
          "ticks": 102720,
          "time": 84.47350399999999,
          "velocity": 0.6456692913385826
        },
        {
          "duration": 0.1957232666666755,
          "durationTicks": 238,
          "midi": 42,
          "name": "F#2",
          "ticks": 102960,
          "time": 84.67087199999999,
          "velocity": 0.6456692913385826
        },
        {
          "duration": 0.1957232666666613,
          "durationTicks": 238,
          "midi": 37,
          "name": "C#2",
          "ticks": 103200,
          "time": 84.86824,
          "velocity": 0.8031496062992126
        },
        {
          "duration": 0.1957232666666613,
          "durationTicks": 238,
          "midi": 42,
          "name": "F#2",
          "ticks": 103200,
          "time": 84.86824,
          "velocity": 0.6456692913385826
        },
        {
          "duration": 0.09703926666666973,
          "durationTicks": 118,
          "midi": 42,
          "name": "F#2",
          "ticks": 103440,
          "time": 85.065608,
          "velocity": 0.6456692913385826
        },
        {
          "duration": 0.09703926666666973,
          "durationTicks": 118,
          "midi": 37,
          "name": "C#2",
          "ticks": 103560,
          "time": 85.16429199999999,
          "velocity": 0.8031496062992126
        },
        {
          "duration": 0.1957232666666613,
          "durationTicks": 238,
          "midi": 42,
          "name": "F#2",
          "ticks": 103680,
          "time": 85.262976,
          "velocity": 0.6456692913385826
        },
        {
          "duration": 0.1957232666666755,
          "durationTicks": 238,
          "midi": 42,
          "name": "F#2",
          "ticks": 103920,
          "time": 85.46034399999999,
          "velocity": 0.6456692913385826
        },
        {
          "duration": 0.1957232666666755,
          "durationTicks": 238,
          "midi": 37,
          "name": "C#2",
          "ticks": 104160,
          "time": 85.65771199999999,
          "velocity": 0.8031496062992126
        },
        {
          "duration": 0.1957232666666755,
          "durationTicks": 238,
          "midi": 42,
          "name": "F#2",
          "ticks": 104160,
          "time": 85.65771199999999,
          "velocity": 0.6456692913385826
        },
        {
          "duration": 0.09703926666665552,
          "durationTicks": 118,
          "midi": 42,
          "name": "F#2",
          "ticks": 104400,
          "time": 85.85508,
          "velocity": 0.6456692913385826
        },
        {
          "duration": 0.09703926666666973,
          "durationTicks": 118,
          "midi": 37,
          "name": "C#2",
          "ticks": 104520,
          "time": 85.95376399999999,
          "velocity": 0.8031496062992126
        },
        {
          "duration": 0.1957232666666613,
          "durationTicks": 238,
          "midi": 42,
          "name": "F#2",
          "ticks": 104640,
          "time": 86.052448,
          "velocity": 0.6456692913385826
        },
        {
          "duration": 0.1957232666666613,
          "durationTicks": 238,
          "midi": 42,
          "name": "F#2",
          "ticks": 104880,
          "time": 86.249816,
          "velocity": 0.6456692913385826
        },
        {
          "duration": 0.1957232666666755,
          "durationTicks": 238,
          "midi": 37,
          "name": "C#2",
          "ticks": 105120,
          "time": 86.447184,
          "velocity": 0.8031496062992126
        },
        {
          "duration": 0.1957232666666755,
          "durationTicks": 238,
          "midi": 42,
          "name": "F#2",
          "ticks": 105120,
          "time": 86.447184,
          "velocity": 0.6456692913385826
        },
        {
          "duration": 0.09703926666666973,
          "durationTicks": 118,
          "midi": 42,
          "name": "F#2",
          "ticks": 105360,
          "time": 86.64455199999999,
          "velocity": 0.6456692913385826
        },
        {
          "duration": 0.09703926666666973,
          "durationTicks": 118,
          "midi": 37,
          "name": "C#2",
          "ticks": 105480,
          "time": 86.743236,
          "velocity": 0.8031496062992126
        },
        {
          "duration": 0.1957232666666755,
          "durationTicks": 238,
          "midi": 35,
          "name": "B1",
          "ticks": 105600,
          "time": 86.84191999999999,
          "velocity": 0.8031496062992126
        },
        {
          "duration": 0.1957232666666755,
          "durationTicks": 238,
          "midi": 42,
          "name": "F#2",
          "ticks": 105600,
          "time": 86.84191999999999,
          "velocity": 0.6456692913385826
        },
        {
          "duration": 0.1957232666666613,
          "durationTicks": 238,
          "midi": 42,
          "name": "F#2",
          "ticks": 105840,
          "time": 87.039288,
          "velocity": 0.6456692913385826
        },
        {
          "duration": 0.1957232666666613,
          "durationTicks": 238,
          "midi": 37,
          "name": "C#2",
          "ticks": 106080,
          "time": 87.236656,
          "velocity": 0.8031496062992126
        },
        {
          "duration": 0.1957232666666613,
          "durationTicks": 238,
          "midi": 42,
          "name": "F#2",
          "ticks": 106080,
          "time": 87.236656,
          "velocity": 0.6456692913385826
        },
        {
          "duration": 0.09703926666666973,
          "durationTicks": 118,
          "midi": 42,
          "name": "F#2",
          "ticks": 106320,
          "time": 87.434024,
          "velocity": 0.6456692913385826
        },
        {
          "duration": 0.09703926666666973,
          "durationTicks": 118,
          "midi": 37,
          "name": "C#2",
          "ticks": 106440,
          "time": 87.532708,
          "velocity": 0.8031496062992126
        },
        {
          "duration": 0.1957232666666755,
          "durationTicks": 238,
          "midi": 42,
          "name": "F#2",
          "ticks": 106560,
          "time": 87.63139199999999,
          "velocity": 0.6456692913385826
        },
        {
          "duration": 0.1957232666666755,
          "durationTicks": 238,
          "midi": 42,
          "name": "F#2",
          "ticks": 106800,
          "time": 87.82875999999999,
          "velocity": 0.6456692913385826
        },
        {
          "duration": 0.1957232666666613,
          "durationTicks": 238,
          "midi": 37,
          "name": "C#2",
          "ticks": 107040,
          "time": 88.026128,
          "velocity": 0.8031496062992126
        },
        {
          "duration": 0.1957232666666613,
          "durationTicks": 238,
          "midi": 42,
          "name": "F#2",
          "ticks": 107040,
          "time": 88.026128,
          "velocity": 0.6456692913385826
        },
        {
          "duration": 0.09703926666666973,
          "durationTicks": 118,
          "midi": 42,
          "name": "F#2",
          "ticks": 107280,
          "time": 88.223496,
          "velocity": 0.6456692913385826
        },
        {
          "duration": 0.09703926666666973,
          "durationTicks": 118,
          "midi": 37,
          "name": "C#2",
          "ticks": 107400,
          "time": 88.32217999999999,
          "velocity": 0.8031496062992126
        },
        {
          "duration": 0.1957232666666613,
          "durationTicks": 238,
          "midi": 42,
          "name": "F#2",
          "ticks": 107520,
          "time": 88.420864,
          "velocity": 0.6456692913385826
        },
        {
          "duration": 0.1957232666666755,
          "durationTicks": 238,
          "midi": 42,
          "name": "F#2",
          "ticks": 107760,
          "time": 88.61823199999999,
          "velocity": 0.6456692913385826
        },
        {
          "duration": 0.1957232666666755,
          "durationTicks": 238,
          "midi": 37,
          "name": "C#2",
          "ticks": 108000,
          "time": 88.81559999999999,
          "velocity": 0.8031496062992126
        },
        {
          "duration": 0.1957232666666755,
          "durationTicks": 238,
          "midi": 42,
          "name": "F#2",
          "ticks": 108000,
          "time": 88.81559999999999,
          "velocity": 0.6456692913385826
        },
        {
          "duration": 0.09703926666665552,
          "durationTicks": 118,
          "midi": 42,
          "name": "F#2",
          "ticks": 108240,
          "time": 89.012968,
          "velocity": 0.6456692913385826
        },
        {
          "duration": 0.09703926666666973,
          "durationTicks": 118,
          "midi": 37,
          "name": "C#2",
          "ticks": 108360,
          "time": 89.11165199999999,
          "velocity": 0.8031496062992126
        },
        {
          "duration": 0.1957232666666613,
          "durationTicks": 238,
          "midi": 42,
          "name": "F#2",
          "ticks": 108480,
          "time": 89.210336,
          "velocity": 0.6456692913385826
        },
        {
          "duration": 0.1957232666666613,
          "durationTicks": 238,
          "midi": 42,
          "name": "F#2",
          "ticks": 108720,
          "time": 89.407704,
          "velocity": 0.6456692913385826
        },
        {
          "duration": 0.1957232666666755,
          "durationTicks": 238,
          "midi": 37,
          "name": "C#2",
          "ticks": 108960,
          "time": 89.60507199999999,
          "velocity": 0.8031496062992126
        },
        {
          "duration": 0.1957232666666755,
          "durationTicks": 238,
          "midi": 42,
          "name": "F#2",
          "ticks": 108960,
          "time": 89.60507199999999,
          "velocity": 0.6456692913385826
        },
        {
          "duration": 0.09703926666666973,
          "durationTicks": 118,
          "midi": 42,
          "name": "F#2",
          "ticks": 109200,
          "time": 89.80243999999999,
          "velocity": 0.6456692913385826
        },
        {
          "duration": 0.09703926666666973,
          "durationTicks": 118,
          "midi": 37,
          "name": "C#2",
          "ticks": 109320,
          "time": 89.901124,
          "velocity": 0.8031496062992126
        },
        {
          "duration": 0.1957232666666613,
          "durationTicks": 238,
          "midi": 35,
          "name": "B1",
          "ticks": 109440,
          "time": 89.999808,
          "velocity": 0.8031496062992126
        },
        {
          "duration": 0.1957232666666613,
          "durationTicks": 238,
          "midi": 42,
          "name": "F#2",
          "ticks": 109440,
          "time": 89.999808,
          "velocity": 0.6456692913385826
        },
        {
          "duration": 0.1957232666666613,
          "durationTicks": 238,
          "midi": 35,
          "name": "B1",
          "ticks": 109680,
          "time": 90.197176,
          "velocity": 0.8031496062992126
        },
        {
          "duration": 0.1957232666666613,
          "durationTicks": 238,
          "midi": 42,
          "name": "F#2",
          "ticks": 109680,
          "time": 90.197176,
          "velocity": 0.6456692913385826
        },
        {
          "duration": 0.1957232666666613,
          "durationTicks": 238,
          "midi": 37,
          "name": "C#2",
          "ticks": 109920,
          "time": 90.394544,
          "velocity": 0.8031496062992126
        },
        {
          "duration": 0.1957232666666613,
          "durationTicks": 238,
          "midi": 42,
          "name": "F#2",
          "ticks": 109920,
          "time": 90.394544,
          "velocity": 0.6456692913385826
        },
        {
          "duration": 0.09703926666666973,
          "durationTicks": 118,
          "midi": 42,
          "name": "F#2",
          "ticks": 110160,
          "time": 90.591912,
          "velocity": 0.6456692913385826
        },
        {
          "duration": 0.09703926666666973,
          "durationTicks": 118,
          "midi": 37,
          "name": "C#2",
          "ticks": 110280,
          "time": 90.690596,
          "velocity": 0.8031496062992126
        },
        {
          "duration": 0.1957232666666755,
          "durationTicks": 238,
          "midi": 42,
          "name": "F#2",
          "ticks": 110400,
          "time": 90.78927999999999,
          "velocity": 0.6456692913385826
        },
        {
          "duration": 0.1957232666666755,
          "durationTicks": 238,
          "midi": 42,
          "name": "F#2",
          "ticks": 110640,
          "time": 90.98664799999999,
          "velocity": 0.6456692913385826
        },
        {
          "duration": 0.1957232666666613,
          "durationTicks": 238,
          "midi": 37,
          "name": "C#2",
          "ticks": 110880,
          "time": 91.184016,
          "velocity": 0.8031496062992126
        },
        {
          "duration": 0.1957232666666613,
          "durationTicks": 238,
          "midi": 42,
          "name": "F#2",
          "ticks": 110880,
          "time": 91.184016,
          "velocity": 0.6456692913385826
        },
        {
          "duration": 0.09703926666666973,
          "durationTicks": 118,
          "midi": 42,
          "name": "F#2",
          "ticks": 111120,
          "time": 91.381384,
          "velocity": 0.6456692913385826
        },
        {
          "duration": 0.09703926666666973,
          "durationTicks": 118,
          "midi": 37,
          "name": "C#2",
          "ticks": 111240,
          "time": 91.48006799999999,
          "velocity": 0.8031496062992126
        },
        {
          "duration": 0.1957232666666613,
          "durationTicks": 238,
          "midi": 42,
          "name": "F#2",
          "ticks": 111360,
          "time": 91.578752,
          "velocity": 0.6456692913385826
        },
        {
          "duration": 0.1957232666666755,
          "durationTicks": 238,
          "midi": 42,
          "name": "F#2",
          "ticks": 111600,
          "time": 91.77611999999999,
          "velocity": 0.6456692913385826
        },
        {
          "duration": 0.1957232666666755,
          "durationTicks": 238,
          "midi": 37,
          "name": "C#2",
          "ticks": 111840,
          "time": 91.97348799999999,
          "velocity": 0.8031496062992126
        },
        {
          "duration": 0.1957232666666755,
          "durationTicks": 238,
          "midi": 42,
          "name": "F#2",
          "ticks": 111840,
          "time": 91.97348799999999,
          "velocity": 0.6456692913385826
        },
        {
          "duration": 0.09703926666665552,
          "durationTicks": 118,
          "midi": 42,
          "name": "F#2",
          "ticks": 112080,
          "time": 92.170856,
          "velocity": 0.6456692913385826
        },
        {
          "duration": 0.09703926666666973,
          "durationTicks": 118,
          "midi": 37,
          "name": "C#2",
          "ticks": 112200,
          "time": 92.26953999999999,
          "velocity": 0.8031496062992126
        },
        {
          "duration": 0.1957232666666613,
          "durationTicks": 238,
          "midi": 42,
          "name": "F#2",
          "ticks": 112320,
          "time": 92.368224,
          "velocity": 0.6456692913385826
        },
        {
          "duration": 0.1957232666666613,
          "durationTicks": 238,
          "midi": 42,
          "name": "F#2",
          "ticks": 112560,
          "time": 92.565592,
          "velocity": 0.6456692913385826
        },
        {
          "duration": 0.1957232666666755,
          "durationTicks": 238,
          "midi": 37,
          "name": "C#2",
          "ticks": 112800,
          "time": 92.76295999999999,
          "velocity": 0.8031496062992126
        },
        {
          "duration": 0.1957232666666755,
          "durationTicks": 238,
          "midi": 42,
          "name": "F#2",
          "ticks": 112800,
          "time": 92.76295999999999,
          "velocity": 0.6456692913385826
        },
        {
          "duration": 0.09703926666666973,
          "durationTicks": 118,
          "midi": 42,
          "name": "F#2",
          "ticks": 113040,
          "time": 92.96032799999999,
          "velocity": 0.6456692913385826
        },
        {
          "duration": 0.09703926666666973,
          "durationTicks": 118,
          "midi": 37,
          "name": "C#2",
          "ticks": 113160,
          "time": 93.059012,
          "velocity": 0.8031496062992126
        },
        {
          "duration": 0.1957232666666755,
          "durationTicks": 238,
          "midi": 35,
          "name": "B1",
          "ticks": 113280,
          "time": 93.15769599999999,
          "velocity": 0.8031496062992126
        },
        {
          "duration": 0.1957232666666755,
          "durationTicks": 238,
          "midi": 42,
          "name": "F#2",
          "ticks": 113280,
          "time": 93.15769599999999,
          "velocity": 0.6456692913385826
        },
        {
          "duration": 0.1957232666666613,
          "durationTicks": 238,
          "midi": 42,
          "name": "F#2",
          "ticks": 113520,
          "time": 93.355064,
          "velocity": 0.6456692913385826
        },
        {
          "duration": 0.1957232666666613,
          "durationTicks": 238,
          "midi": 37,
          "name": "C#2",
          "ticks": 113760,
          "time": 93.552432,
          "velocity": 0.8031496062992126
        },
        {
          "duration": 0.1957232666666613,
          "durationTicks": 238,
          "midi": 42,
          "name": "F#2",
          "ticks": 113760,
          "time": 93.552432,
          "velocity": 0.6456692913385826
        },
        {
          "duration": 0.09703926666666973,
          "durationTicks": 118,
          "midi": 42,
          "name": "F#2",
          "ticks": 114000,
          "time": 93.7498,
          "velocity": 0.6456692913385826
        },
        {
          "duration": 0.09703926666666973,
          "durationTicks": 118,
          "midi": 37,
          "name": "C#2",
          "ticks": 114120,
          "time": 93.848484,
          "velocity": 0.8031496062992126
        },
        {
          "duration": 0.1957232666666755,
          "durationTicks": 238,
          "midi": 42,
          "name": "F#2",
          "ticks": 114240,
          "time": 93.94716799999999,
          "velocity": 0.6456692913385826
        },
        {
          "duration": 0.1957232666666755,
          "durationTicks": 238,
          "midi": 42,
          "name": "F#2",
          "ticks": 114480,
          "time": 94.14453599999999,
          "velocity": 0.6456692913385826
        },
        {
          "duration": 0.1957232666666613,
          "durationTicks": 238,
          "midi": 37,
          "name": "C#2",
          "ticks": 114720,
          "time": 94.341904,
          "velocity": 0.8031496062992126
        },
        {
          "duration": 0.1957232666666613,
          "durationTicks": 238,
          "midi": 42,
          "name": "F#2",
          "ticks": 114720,
          "time": 94.341904,
          "velocity": 0.6456692913385826
        },
        {
          "duration": 0.09703926666666973,
          "durationTicks": 118,
          "midi": 42,
          "name": "F#2",
          "ticks": 114960,
          "time": 94.539272,
          "velocity": 0.6456692913385826
        },
        {
          "duration": 0.09703926666666973,
          "durationTicks": 118,
          "midi": 37,
          "name": "C#2",
          "ticks": 115080,
          "time": 94.63795599999999,
          "velocity": 0.8031496062992126
        },
        {
          "duration": 0.1957232666666613,
          "durationTicks": 238,
          "midi": 42,
          "name": "F#2",
          "ticks": 115200,
          "time": 94.73664,
          "velocity": 0.6456692913385826
        },
        {
          "duration": 0.1957232666666755,
          "durationTicks": 238,
          "midi": 42,
          "name": "F#2",
          "ticks": 115440,
          "time": 94.93400799999999,
          "velocity": 0.6456692913385826
        },
        {
          "duration": 0.1957232666666755,
          "durationTicks": 238,
          "midi": 37,
          "name": "C#2",
          "ticks": 115680,
          "time": 95.13137599999999,
          "velocity": 0.8031496062992126
        },
        {
          "duration": 0.1957232666666755,
          "durationTicks": 238,
          "midi": 42,
          "name": "F#2",
          "ticks": 115680,
          "time": 95.13137599999999,
          "velocity": 0.6456692913385826
        },
        {
          "duration": 0.09703926666665552,
          "durationTicks": 118,
          "midi": 42,
          "name": "F#2",
          "ticks": 115920,
          "time": 95.328744,
          "velocity": 0.6456692913385826
        },
        {
          "duration": 0.09703926666666973,
          "durationTicks": 118,
          "midi": 37,
          "name": "C#2",
          "ticks": 116040,
          "time": 95.42742799999999,
          "velocity": 0.8031496062992126
        },
        {
          "duration": 0.1957232666666613,
          "durationTicks": 238,
          "midi": 42,
          "name": "F#2",
          "ticks": 116160,
          "time": 95.526112,
          "velocity": 0.6456692913385826
        },
        {
          "duration": 0.1957232666666613,
          "durationTicks": 238,
          "midi": 42,
          "name": "F#2",
          "ticks": 116400,
          "time": 95.72348,
          "velocity": 0.6456692913385826
        },
        {
          "duration": 0.1957232666666755,
          "durationTicks": 238,
          "midi": 37,
          "name": "C#2",
          "ticks": 116640,
          "time": 95.92084799999999,
          "velocity": 0.8031496062992126
        },
        {
          "duration": 0.1957232666666755,
          "durationTicks": 238,
          "midi": 42,
          "name": "F#2",
          "ticks": 116640,
          "time": 95.92084799999999,
          "velocity": 0.6456692913385826
        },
        {
          "duration": 0.09703926666666973,
          "durationTicks": 118,
          "midi": 42,
          "name": "F#2",
          "ticks": 116880,
          "time": 96.11821599999999,
          "velocity": 0.6456692913385826
        },
        {
          "duration": 0.09703926666666973,
          "durationTicks": 118,
          "midi": 37,
          "name": "C#2",
          "ticks": 117000,
          "time": 96.2169,
          "velocity": 0.8031496062992126
        },
        {
          "duration": 0.1957232666666613,
          "durationTicks": 238,
          "midi": 35,
          "name": "B1",
          "ticks": 117120,
          "time": 96.315584,
          "velocity": 0.8031496062992126
        },
        {
          "duration": 0.1957232666666613,
          "durationTicks": 238,
          "midi": 42,
          "name": "F#2",
          "ticks": 117120,
          "time": 96.315584,
          "velocity": 0.6456692913385826
        },
        {
          "duration": 0.1957232666666613,
          "durationTicks": 238,
          "midi": 35,
          "name": "B1",
          "ticks": 117360,
          "time": 96.512952,
          "velocity": 0.8031496062992126
        },
        {
          "duration": 0.1957232666666613,
          "durationTicks": 238,
          "midi": 42,
          "name": "F#2",
          "ticks": 117360,
          "time": 96.512952,
          "velocity": 0.6456692913385826
        },
        {
          "duration": 0.1957232666666613,
          "durationTicks": 238,
          "midi": 37,
          "name": "C#2",
          "ticks": 117600,
          "time": 96.71032,
          "velocity": 0.8031496062992126
        },
        {
          "duration": 0.1957232666666613,
          "durationTicks": 238,
          "midi": 42,
          "name": "F#2",
          "ticks": 117600,
          "time": 96.71032,
          "velocity": 0.6456692913385826
        },
        {
          "duration": 0.09703926666666973,
          "durationTicks": 118,
          "midi": 42,
          "name": "F#2",
          "ticks": 117840,
          "time": 96.907688,
          "velocity": 0.6456692913385826
        },
        {
          "duration": 0.09703926666666973,
          "durationTicks": 118,
          "midi": 37,
          "name": "C#2",
          "ticks": 117960,
          "time": 97.006372,
          "velocity": 0.8031496062992126
        },
        {
          "duration": 0.1957232666666755,
          "durationTicks": 238,
          "midi": 42,
          "name": "F#2",
          "ticks": 118080,
          "time": 97.10505599999999,
          "velocity": 0.6456692913385826
        },
        {
          "duration": 0.1957232666666755,
          "durationTicks": 238,
          "midi": 42,
          "name": "F#2",
          "ticks": 118320,
          "time": 97.30242399999999,
          "velocity": 0.6456692913385826
        },
        {
          "duration": 0.1957232666666613,
          "durationTicks": 238,
          "midi": 37,
          "name": "C#2",
          "ticks": 118560,
          "time": 97.499792,
          "velocity": 0.8031496062992126
        },
        {
          "duration": 0.1957232666666613,
          "durationTicks": 238,
          "midi": 42,
          "name": "F#2",
          "ticks": 118560,
          "time": 97.499792,
          "velocity": 0.6456692913385826
        },
        {
          "duration": 0.09703926666666973,
          "durationTicks": 118,
          "midi": 42,
          "name": "F#2",
          "ticks": 118800,
          "time": 97.69716,
          "velocity": 0.6456692913385826
        },
        {
          "duration": 0.09703926666666973,
          "durationTicks": 118,
          "midi": 37,
          "name": "C#2",
          "ticks": 118920,
          "time": 97.79584399999999,
          "velocity": 0.8031496062992126
        },
        {
          "duration": 0.1957232666666613,
          "durationTicks": 238,
          "midi": 42,
          "name": "F#2",
          "ticks": 119040,
          "time": 97.894528,
          "velocity": 0.6456692913385826
        },
        {
          "duration": 0.1957232666666755,
          "durationTicks": 238,
          "midi": 42,
          "name": "F#2",
          "ticks": 119280,
          "time": 98.09189599999999,
          "velocity": 0.6456692913385826
        },
        {
          "duration": 0.1957232666666755,
          "durationTicks": 238,
          "midi": 37,
          "name": "C#2",
          "ticks": 119520,
          "time": 98.28926399999999,
          "velocity": 0.8031496062992126
        },
        {
          "duration": 0.1957232666666755,
          "durationTicks": 238,
          "midi": 42,
          "name": "F#2",
          "ticks": 119520,
          "time": 98.28926399999999,
          "velocity": 0.6456692913385826
        },
        {
          "duration": 0.09703926666665552,
          "durationTicks": 118,
          "midi": 42,
          "name": "F#2",
          "ticks": 119760,
          "time": 98.486632,
          "velocity": 0.6456692913385826
        },
        {
          "duration": 0.09703926666666973,
          "durationTicks": 118,
          "midi": 37,
          "name": "C#2",
          "ticks": 119880,
          "time": 98.58531599999999,
          "velocity": 0.8031496062992126
        },
        {
          "duration": 0.1957232666666613,
          "durationTicks": 238,
          "midi": 42,
          "name": "F#2",
          "ticks": 120000,
          "time": 98.684,
          "velocity": 0.6456692913385826
        },
        {
          "duration": 0.1957232666666613,
          "durationTicks": 238,
          "midi": 42,
          "name": "F#2",
          "ticks": 120240,
          "time": 98.881368,
          "velocity": 0.6456692913385826
        },
        {
          "duration": 0.1957232666666755,
          "durationTicks": 238,
          "midi": 37,
          "name": "C#2",
          "ticks": 120480,
          "time": 99.07873599999999,
          "velocity": 0.8031496062992126
        },
        {
          "duration": 0.1957232666666755,
          "durationTicks": 238,
          "midi": 42,
          "name": "F#2",
          "ticks": 120480,
          "time": 99.07873599999999,
          "velocity": 0.6456692913385826
        },
        {
          "duration": 0.09703926666666973,
          "durationTicks": 118,
          "midi": 42,
          "name": "F#2",
          "ticks": 120720,
          "time": 99.27610399999999,
          "velocity": 0.6456692913385826
        },
        {
          "duration": 0.09703926666666973,
          "durationTicks": 118,
          "midi": 37,
          "name": "C#2",
          "ticks": 120840,
          "time": 99.374788,
          "velocity": 0.8031496062992126
        },
        {
          "duration": 0.1957232666666755,
          "durationTicks": 238,
          "midi": 35,
          "name": "B1",
          "ticks": 120960,
          "time": 99.47347199999999,
          "velocity": 0.8031496062992126
        },
        {
          "duration": 0.1957232666666755,
          "durationTicks": 238,
          "midi": 42,
          "name": "F#2",
          "ticks": 120960,
          "time": 99.47347199999999,
          "velocity": 0.6456692913385826
        },
        {
          "duration": 0.1957232666666613,
          "durationTicks": 238,
          "midi": 42,
          "name": "F#2",
          "ticks": 121200,
          "time": 99.67084,
          "velocity": 0.6456692913385826
        },
        {
          "duration": 0.1957232666666613,
          "durationTicks": 238,
          "midi": 37,
          "name": "C#2",
          "ticks": 121440,
          "time": 99.868208,
          "velocity": 0.8031496062992126
        },
        {
          "duration": 0.1957232666666613,
          "durationTicks": 238,
          "midi": 42,
          "name": "F#2",
          "ticks": 121440,
          "time": 99.868208,
          "velocity": 0.6456692913385826
        },
        {
          "duration": 0.09703926666666973,
          "durationTicks": 118,
          "midi": 42,
          "name": "F#2",
          "ticks": 121680,
          "time": 100.065576,
          "velocity": 0.6456692913385826
        },
        {
          "duration": 0.09703926666666973,
          "durationTicks": 118,
          "midi": 37,
          "name": "C#2",
          "ticks": 121800,
          "time": 100.16426,
          "velocity": 0.8031496062992126
        },
        {
          "duration": 0.1957232666666755,
          "durationTicks": 238,
          "midi": 42,
          "name": "F#2",
          "ticks": 121920,
          "time": 100.26294399999999,
          "velocity": 0.6456692913385826
        },
        {
          "duration": 0.1957232666666755,
          "durationTicks": 238,
          "midi": 42,
          "name": "F#2",
          "ticks": 122160,
          "time": 100.46031199999999,
          "velocity": 0.6456692913385826
        },
        {
          "duration": 0.1957232666666613,
          "durationTicks": 238,
          "midi": 37,
          "name": "C#2",
          "ticks": 122400,
          "time": 100.65768,
          "velocity": 0.8031496062992126
        },
        {
          "duration": 0.1957232666666613,
          "durationTicks": 238,
          "midi": 42,
          "name": "F#2",
          "ticks": 122400,
          "time": 100.65768,
          "velocity": 0.6456692913385826
        },
        {
          "duration": 0.09703926666666973,
          "durationTicks": 118,
          "midi": 42,
          "name": "F#2",
          "ticks": 122640,
          "time": 100.855048,
          "velocity": 0.6456692913385826
        },
        {
          "duration": 0.09703926666666973,
          "durationTicks": 118,
          "midi": 37,
          "name": "C#2",
          "ticks": 122760,
          "time": 100.95373199999999,
          "velocity": 0.8031496062992126
        },
        {
          "duration": 0.1957232666666613,
          "durationTicks": 238,
          "midi": 42,
          "name": "F#2",
          "ticks": 122880,
          "time": 101.052416,
          "velocity": 0.6456692913385826
        },
        {
          "duration": 0.1957232666666755,
          "durationTicks": 238,
          "midi": 42,
          "name": "F#2",
          "ticks": 123120,
          "time": 101.24978399999999,
          "velocity": 0.6456692913385826
        },
        {
          "duration": 0.1957232666666755,
          "durationTicks": 238,
          "midi": 37,
          "name": "C#2",
          "ticks": 123360,
          "time": 101.44715199999999,
          "velocity": 0.8031496062992126
        },
        {
          "duration": 0.1957232666666755,
          "durationTicks": 238,
          "midi": 42,
          "name": "F#2",
          "ticks": 123360,
          "time": 101.44715199999999,
          "velocity": 0.6456692913385826
        },
        {
          "duration": 0.09703926666665552,
          "durationTicks": 118,
          "midi": 42,
          "name": "F#2",
          "ticks": 123600,
          "time": 101.64452,
          "velocity": 0.6456692913385826
        },
        {
          "duration": 0.09703926666666973,
          "durationTicks": 118,
          "midi": 37,
          "name": "C#2",
          "ticks": 123720,
          "time": 101.74320399999999,
          "velocity": 0.8031496062992126
        },
        {
          "duration": 0.1957232666666613,
          "durationTicks": 238,
          "midi": 42,
          "name": "F#2",
          "ticks": 123840,
          "time": 101.841888,
          "velocity": 0.6456692913385826
        },
        {
          "duration": 0.1957232666666613,
          "durationTicks": 238,
          "midi": 42,
          "name": "F#2",
          "ticks": 124080,
          "time": 102.039256,
          "velocity": 0.6456692913385826
        },
        {
          "duration": 0.1957232666666755,
          "durationTicks": 238,
          "midi": 37,
          "name": "C#2",
          "ticks": 124320,
          "time": 102.23662399999999,
          "velocity": 0.8031496062992126
        },
        {
          "duration": 0.1957232666666755,
          "durationTicks": 238,
          "midi": 42,
          "name": "F#2",
          "ticks": 124320,
          "time": 102.23662399999999,
          "velocity": 0.6456692913385826
        },
        {
          "duration": 0.09703926666666973,
          "durationTicks": 118,
          "midi": 42,
          "name": "F#2",
          "ticks": 124560,
          "time": 102.43399199999999,
          "velocity": 0.6456692913385826
        },
        {
          "duration": 0.09703926666666973,
          "durationTicks": 118,
          "midi": 37,
          "name": "C#2",
          "ticks": 124680,
          "time": 102.532676,
          "velocity": 0.8031496062992126
        },
        {
          "duration": 0.1957232666666613,
          "durationTicks": 238,
          "midi": 35,
          "name": "B1",
          "ticks": 124800,
          "time": 102.63136,
          "velocity": 0.8031496062992126
        },
        {
          "duration": 0.1957232666666613,
          "durationTicks": 238,
          "midi": 42,
          "name": "F#2",
          "ticks": 124800,
          "time": 102.63136,
          "velocity": 0.6456692913385826
        },
        {
          "duration": 0.1957232666666613,
          "durationTicks": 238,
          "midi": 35,
          "name": "B1",
          "ticks": 125040,
          "time": 102.828728,
          "velocity": 0.8031496062992126
        },
        {
          "duration": 0.1957232666666613,
          "durationTicks": 238,
          "midi": 42,
          "name": "F#2",
          "ticks": 125040,
          "time": 102.828728,
          "velocity": 0.6456692913385826
        },
        {
          "duration": 0.1957232666666613,
          "durationTicks": 238,
          "midi": 37,
          "name": "C#2",
          "ticks": 125280,
          "time": 103.026096,
          "velocity": 0.8031496062992126
        },
        {
          "duration": 0.1957232666666613,
          "durationTicks": 238,
          "midi": 42,
          "name": "F#2",
          "ticks": 125280,
          "time": 103.026096,
          "velocity": 0.6456692913385826
        },
        {
          "duration": 0.09703926666666973,
          "durationTicks": 118,
          "midi": 42,
          "name": "F#2",
          "ticks": 125520,
          "time": 103.22346399999999,
          "velocity": 0.6456692913385826
        },
        {
          "duration": 0.09703926666666973,
          "durationTicks": 118,
          "midi": 37,
          "name": "C#2",
          "ticks": 125640,
          "time": 103.322148,
          "velocity": 0.8031496062992126
        },
        {
          "duration": 0.1957232666666755,
          "durationTicks": 238,
          "midi": 42,
          "name": "F#2",
          "ticks": 125760,
          "time": 103.42083199999999,
          "velocity": 0.6456692913385826
        },
        {
          "duration": 0.1957232666666755,
          "durationTicks": 238,
          "midi": 42,
          "name": "F#2",
          "ticks": 126000,
          "time": 103.61819999999999,
          "velocity": 0.6456692913385826
        },
        {
          "duration": 0.1957232666666613,
          "durationTicks": 238,
          "midi": 37,
          "name": "C#2",
          "ticks": 126240,
          "time": 103.815568,
          "velocity": 0.8031496062992126
        },
        {
          "duration": 0.1957232666666613,
          "durationTicks": 238,
          "midi": 42,
          "name": "F#2",
          "ticks": 126240,
          "time": 103.815568,
          "velocity": 0.6456692913385826
        },
        {
          "duration": 0.09703926666666973,
          "durationTicks": 118,
          "midi": 42,
          "name": "F#2",
          "ticks": 126480,
          "time": 104.012936,
          "velocity": 0.6456692913385826
        },
        {
          "duration": 0.09703926666666973,
          "durationTicks": 118,
          "midi": 37,
          "name": "C#2",
          "ticks": 126600,
          "time": 104.11161999999999,
          "velocity": 0.8031496062992126
        },
        {
          "duration": 0.1957232666666613,
          "durationTicks": 238,
          "midi": 42,
          "name": "F#2",
          "ticks": 126720,
          "time": 104.210304,
          "velocity": 0.6456692913385826
        },
        {
          "duration": 0.1957232666666755,
          "durationTicks": 238,
          "midi": 42,
          "name": "F#2",
          "ticks": 126960,
          "time": 104.40767199999999,
          "velocity": 0.6456692913385826
        },
        {
          "duration": 0.1957232666666755,
          "durationTicks": 238,
          "midi": 37,
          "name": "C#2",
          "ticks": 127200,
          "time": 104.60503999999999,
          "velocity": 0.8031496062992126
        },
        {
          "duration": 0.1957232666666755,
          "durationTicks": 238,
          "midi": 42,
          "name": "F#2",
          "ticks": 127200,
          "time": 104.60503999999999,
          "velocity": 0.6456692913385826
        },
        {
          "duration": 0.09703926666665552,
          "durationTicks": 118,
          "midi": 42,
          "name": "F#2",
          "ticks": 127440,
          "time": 104.802408,
          "velocity": 0.6456692913385826
        },
        {
          "duration": 0.09703926666666973,
          "durationTicks": 118,
          "midi": 37,
          "name": "C#2",
          "ticks": 127560,
          "time": 104.90109199999999,
          "velocity": 0.8031496062992126
        },
        {
          "duration": 0.1957232666666613,
          "durationTicks": 238,
          "midi": 42,
          "name": "F#2",
          "ticks": 127680,
          "time": 104.999776,
          "velocity": 0.6456692913385826
        },
        {
          "duration": 0.1957232666666613,
          "durationTicks": 238,
          "midi": 42,
          "name": "F#2",
          "ticks": 127920,
          "time": 105.197144,
          "velocity": 0.6456692913385826
        },
        {
          "duration": 0.1957232666666755,
          "durationTicks": 238,
          "midi": 37,
          "name": "C#2",
          "ticks": 128160,
          "time": 105.39451199999999,
          "velocity": 0.8031496062992126
        },
        {
          "duration": 0.1957232666666755,
          "durationTicks": 238,
          "midi": 42,
          "name": "F#2",
          "ticks": 128160,
          "time": 105.39451199999999,
          "velocity": 0.6456692913385826
        },
        {
          "duration": 0.09703926666666973,
          "durationTicks": 118,
          "midi": 42,
          "name": "F#2",
          "ticks": 128400,
          "time": 105.59187999999999,
          "velocity": 0.6456692913385826
        },
        {
          "duration": 0.09703926666666973,
          "durationTicks": 118,
          "midi": 37,
          "name": "C#2",
          "ticks": 128520,
          "time": 105.690564,
          "velocity": 0.8031496062992126
        },
        {
          "duration": 0.1957232666666755,
          "durationTicks": 238,
          "midi": 35,
          "name": "B1",
          "ticks": 128640,
          "time": 105.78924799999999,
          "velocity": 0.8031496062992126
        },
        {
          "duration": 0.1957232666666755,
          "durationTicks": 238,
          "midi": 42,
          "name": "F#2",
          "ticks": 128640,
          "time": 105.78924799999999,
          "velocity": 0.6456692913385826
        },
        {
          "duration": 0.1957232666666613,
          "durationTicks": 238,
          "midi": 42,
          "name": "F#2",
          "ticks": 128880,
          "time": 105.986616,
          "velocity": 0.6456692913385826
        },
        {
          "duration": 0.1957232666666613,
          "durationTicks": 238,
          "midi": 37,
          "name": "C#2",
          "ticks": 129120,
          "time": 106.183984,
          "velocity": 0.8031496062992126
        },
        {
          "duration": 0.1957232666666613,
          "durationTicks": 238,
          "midi": 42,
          "name": "F#2",
          "ticks": 129120,
          "time": 106.183984,
          "velocity": 0.6456692913385826
        },
        {
          "duration": 0.09703926666666973,
          "durationTicks": 118,
          "midi": 42,
          "name": "F#2",
          "ticks": 129360,
          "time": 106.38135199999999,
          "velocity": 0.6456692913385826
        },
        {
          "duration": 0.09703926666666973,
          "durationTicks": 118,
          "midi": 37,
          "name": "C#2",
          "ticks": 129480,
          "time": 106.480036,
          "velocity": 0.8031496062992126
        },
        {
          "duration": 0.1957232666666755,
          "durationTicks": 238,
          "midi": 42,
          "name": "F#2",
          "ticks": 129600,
          "time": 106.57871999999999,
          "velocity": 0.6456692913385826
        },
        {
          "duration": 0.1957232666666755,
          "durationTicks": 238,
          "midi": 42,
          "name": "F#2",
          "ticks": 129840,
          "time": 106.77608799999999,
          "velocity": 0.6456692913385826
        },
        {
          "duration": 0.1957232666666613,
          "durationTicks": 238,
          "midi": 37,
          "name": "C#2",
          "ticks": 130080,
          "time": 106.973456,
          "velocity": 0.8031496062992126
        },
        {
          "duration": 0.1957232666666613,
          "durationTicks": 238,
          "midi": 42,
          "name": "F#2",
          "ticks": 130080,
          "time": 106.973456,
          "velocity": 0.6456692913385826
        },
        {
          "duration": 0.09703926666666973,
          "durationTicks": 118,
          "midi": 42,
          "name": "F#2",
          "ticks": 130320,
          "time": 107.170824,
          "velocity": 0.6456692913385826
        },
        {
          "duration": 0.09703926666666973,
          "durationTicks": 118,
          "midi": 37,
          "name": "C#2",
          "ticks": 130440,
          "time": 107.26950799999999,
          "velocity": 0.8031496062992126
        },
        {
          "duration": 0.1957232666666613,
          "durationTicks": 238,
          "midi": 42,
          "name": "F#2",
          "ticks": 130560,
          "time": 107.368192,
          "velocity": 0.6456692913385826
        },
        {
          "duration": 0.1957232666666755,
          "durationTicks": 238,
          "midi": 42,
          "name": "F#2",
          "ticks": 130800,
          "time": 107.56555999999999,
          "velocity": 0.6456692913385826
        },
        {
          "duration": 0.1957232666666755,
          "durationTicks": 238,
          "midi": 37,
          "name": "C#2",
          "ticks": 131040,
          "time": 107.76292799999999,
          "velocity": 0.8031496062992126
        },
        {
          "duration": 0.1957232666666755,
          "durationTicks": 238,
          "midi": 42,
          "name": "F#2",
          "ticks": 131040,
          "time": 107.76292799999999,
          "velocity": 0.6456692913385826
        },
        {
          "duration": 0.09703926666665552,
          "durationTicks": 118,
          "midi": 42,
          "name": "F#2",
          "ticks": 131280,
          "time": 107.960296,
          "velocity": 0.6456692913385826
        },
        {
          "duration": 0.09703926666666973,
          "durationTicks": 118,
          "midi": 37,
          "name": "C#2",
          "ticks": 131400,
          "time": 108.05897999999999,
          "velocity": 0.8031496062992126
        },
        {
          "duration": 0.1957232666666613,
          "durationTicks": 238,
          "midi": 42,
          "name": "F#2",
          "ticks": 131520,
          "time": 108.157664,
          "velocity": 0.6456692913385826
        },
        {
          "duration": 0.1957232666666613,
          "durationTicks": 238,
          "midi": 42,
          "name": "F#2",
          "ticks": 131760,
          "time": 108.355032,
          "velocity": 0.6456692913385826
        },
        {
          "duration": 0.1957232666666755,
          "durationTicks": 238,
          "midi": 37,
          "name": "C#2",
          "ticks": 132000,
          "time": 108.55239999999999,
          "velocity": 0.8031496062992126
        },
        {
          "duration": 0.1957232666666755,
          "durationTicks": 238,
          "midi": 42,
          "name": "F#2",
          "ticks": 132000,
          "time": 108.55239999999999,
          "velocity": 0.6456692913385826
        },
        {
          "duration": 0.09703926666666973,
          "durationTicks": 118,
          "midi": 42,
          "name": "F#2",
          "ticks": 132240,
          "time": 108.74976799999999,
          "velocity": 0.6456692913385826
        },
        {
          "duration": 0.09703926666666973,
          "durationTicks": 118,
          "midi": 37,
          "name": "C#2",
          "ticks": 132360,
          "time": 108.848452,
          "velocity": 0.8031496062992126
        },
        {
          "duration": 0.1957232666666613,
          "durationTicks": 238,
          "midi": 35,
          "name": "B1",
          "ticks": 132480,
          "time": 108.947136,
          "velocity": 0.8031496062992126
        },
        {
          "duration": 0.1957232666666613,
          "durationTicks": 238,
          "midi": 42,
          "name": "F#2",
          "ticks": 132480,
          "time": 108.947136,
          "velocity": 0.6456692913385826
        },
        {
          "duration": 0.1957232666666613,
          "durationTicks": 238,
          "midi": 35,
          "name": "B1",
          "ticks": 132720,
          "time": 109.144504,
          "velocity": 0.8031496062992126
        },
        {
          "duration": 0.1957232666666613,
          "durationTicks": 238,
          "midi": 42,
          "name": "F#2",
          "ticks": 132720,
          "time": 109.144504,
          "velocity": 0.6456692913385826
        },
        {
          "duration": 0.1957232666666613,
          "durationTicks": 238,
          "midi": 37,
          "name": "C#2",
          "ticks": 132960,
          "time": 109.341872,
          "velocity": 0.8031496062992126
        },
        {
          "duration": 0.1957232666666613,
          "durationTicks": 238,
          "midi": 42,
          "name": "F#2",
          "ticks": 132960,
          "time": 109.341872,
          "velocity": 0.6456692913385826
        },
        {
          "duration": 0.09703926666666973,
          "durationTicks": 118,
          "midi": 42,
          "name": "F#2",
          "ticks": 133200,
          "time": 109.53923999999999,
          "velocity": 0.6456692913385826
        },
        {
          "duration": 0.09703926666666973,
          "durationTicks": 118,
          "midi": 37,
          "name": "C#2",
          "ticks": 133320,
          "time": 109.637924,
          "velocity": 0.8031496062992126
        },
        {
          "duration": 0.1957232666666755,
          "durationTicks": 238,
          "midi": 42,
          "name": "F#2",
          "ticks": 133440,
          "time": 109.73660799999999,
          "velocity": 0.6456692913385826
        },
        {
          "duration": 0.1957232666666755,
          "durationTicks": 238,
          "midi": 42,
          "name": "F#2",
          "ticks": 133680,
          "time": 109.93397599999999,
          "velocity": 0.6456692913385826
        },
        {
          "duration": 0.1957232666666613,
          "durationTicks": 238,
          "midi": 37,
          "name": "C#2",
          "ticks": 133920,
          "time": 110.131344,
          "velocity": 0.8031496062992126
        },
        {
          "duration": 0.1957232666666613,
          "durationTicks": 238,
          "midi": 42,
          "name": "F#2",
          "ticks": 133920,
          "time": 110.131344,
          "velocity": 0.6456692913385826
        },
        {
          "duration": 0.09703926666666973,
          "durationTicks": 118,
          "midi": 42,
          "name": "F#2",
          "ticks": 134160,
          "time": 110.328712,
          "velocity": 0.6456692913385826
        },
        {
          "duration": 0.09703926666666973,
          "durationTicks": 118,
          "midi": 37,
          "name": "C#2",
          "ticks": 134280,
          "time": 110.42739599999999,
          "velocity": 0.8031496062992126
        },
        {
          "duration": 0.1957232666666613,
          "durationTicks": 238,
          "midi": 42,
          "name": "F#2",
          "ticks": 134400,
          "time": 110.52608,
          "velocity": 0.6456692913385826
        },
        {
          "duration": 0.1957232666666755,
          "durationTicks": 238,
          "midi": 42,
          "name": "F#2",
          "ticks": 134640,
          "time": 110.72344799999999,
          "velocity": 0.6456692913385826
        },
        {
          "duration": 0.1957232666666755,
          "durationTicks": 238,
          "midi": 37,
          "name": "C#2",
          "ticks": 134880,
          "time": 110.92081599999999,
          "velocity": 0.8031496062992126
        },
        {
          "duration": 0.1957232666666755,
          "durationTicks": 238,
          "midi": 42,
          "name": "F#2",
          "ticks": 134880,
          "time": 110.92081599999999,
          "velocity": 0.6456692913385826
        },
        {
          "duration": 0.09703926666665552,
          "durationTicks": 118,
          "midi": 42,
          "name": "F#2",
          "ticks": 135120,
          "time": 111.118184,
          "velocity": 0.6456692913385826
        },
        {
          "duration": 0.09703926666666973,
          "durationTicks": 118,
          "midi": 37,
          "name": "C#2",
          "ticks": 135240,
          "time": 111.21686799999999,
          "velocity": 0.8031496062992126
        },
        {
          "duration": 0.1957232666666613,
          "durationTicks": 238,
          "midi": 42,
          "name": "F#2",
          "ticks": 135360,
          "time": 111.315552,
          "velocity": 0.6456692913385826
        },
        {
          "duration": 0.1957232666666613,
          "durationTicks": 238,
          "midi": 42,
          "name": "F#2",
          "ticks": 135600,
          "time": 111.51292,
          "velocity": 0.6456692913385826
        },
        {
          "duration": 0.1957232666666755,
          "durationTicks": 238,
          "midi": 37,
          "name": "C#2",
          "ticks": 135840,
          "time": 111.71028799999999,
          "velocity": 0.8031496062992126
        },
        {
          "duration": 0.1957232666666755,
          "durationTicks": 238,
          "midi": 42,
          "name": "F#2",
          "ticks": 135840,
          "time": 111.71028799999999,
          "velocity": 0.6456692913385826
        },
        {
          "duration": 0.09703926666666973,
          "durationTicks": 118,
          "midi": 42,
          "name": "F#2",
          "ticks": 136080,
          "time": 111.90765599999999,
          "velocity": 0.6456692913385826
        },
        {
          "duration": 0.09703926666666973,
          "durationTicks": 118,
          "midi": 37,
          "name": "C#2",
          "ticks": 136200,
          "time": 112.00634,
          "velocity": 0.8031496062992126
        },
        {
          "duration": 0.1957232666666755,
          "durationTicks": 238,
          "midi": 35,
          "name": "B1",
          "ticks": 136320,
          "time": 112.10502399999999,
          "velocity": 0.8031496062992126
        },
        {
          "duration": 0.1957232666666755,
          "durationTicks": 238,
          "midi": 42,
          "name": "F#2",
          "ticks": 136320,
          "time": 112.10502399999999,
          "velocity": 0.6456692913385826
        },
        {
          "duration": 0.1957232666666613,
          "durationTicks": 238,
          "midi": 42,
          "name": "F#2",
          "ticks": 136560,
          "time": 112.302392,
          "velocity": 0.6456692913385826
        },
        {
          "duration": 0.1957232666666613,
          "durationTicks": 238,
          "midi": 37,
          "name": "C#2",
          "ticks": 136800,
          "time": 112.49976,
          "velocity": 0.8031496062992126
        },
        {
          "duration": 0.1957232666666613,
          "durationTicks": 238,
          "midi": 42,
          "name": "F#2",
          "ticks": 136800,
          "time": 112.49976,
          "velocity": 0.6456692913385826
        },
        {
          "duration": 0.09703926666666973,
          "durationTicks": 118,
          "midi": 42,
          "name": "F#2",
          "ticks": 137040,
          "time": 112.69712799999999,
          "velocity": 0.6456692913385826
        },
        {
          "duration": 0.09703926666666973,
          "durationTicks": 118,
          "midi": 37,
          "name": "C#2",
          "ticks": 137160,
          "time": 112.795812,
          "velocity": 0.8031496062992126
        },
        {
          "duration": 0.1957232666666755,
          "durationTicks": 238,
          "midi": 42,
          "name": "F#2",
          "ticks": 137280,
          "time": 112.89449599999999,
          "velocity": 0.6456692913385826
        },
        {
          "duration": 0.1957232666666755,
          "durationTicks": 238,
          "midi": 42,
          "name": "F#2",
          "ticks": 137520,
          "time": 113.09186399999999,
          "velocity": 0.6456692913385826
        },
        {
          "duration": 0.1957232666666613,
          "durationTicks": 238,
          "midi": 37,
          "name": "C#2",
          "ticks": 137760,
          "time": 113.289232,
          "velocity": 0.8031496062992126
        },
        {
          "duration": 0.1957232666666613,
          "durationTicks": 238,
          "midi": 42,
          "name": "F#2",
          "ticks": 137760,
          "time": 113.289232,
          "velocity": 0.6456692913385826
        },
        {
          "duration": 0.09703926666666973,
          "durationTicks": 118,
          "midi": 42,
          "name": "F#2",
          "ticks": 138000,
          "time": 113.4866,
          "velocity": 0.6456692913385826
        },
        {
          "duration": 0.09703926666666973,
          "durationTicks": 118,
          "midi": 37,
          "name": "C#2",
          "ticks": 138120,
          "time": 113.58528399999999,
          "velocity": 0.8031496062992126
        },
        {
          "duration": 0.1957232666666613,
          "durationTicks": 238,
          "midi": 42,
          "name": "F#2",
          "ticks": 138240,
          "time": 113.683968,
          "velocity": 0.6456692913385826
        },
        {
          "duration": 0.1957232666666755,
          "durationTicks": 238,
          "midi": 42,
          "name": "F#2",
          "ticks": 138480,
          "time": 113.88133599999999,
          "velocity": 0.6456692913385826
        },
        {
          "duration": 0.1957232666666755,
          "durationTicks": 238,
          "midi": 37,
          "name": "C#2",
          "ticks": 138720,
          "time": 114.07870399999999,
          "velocity": 0.8031496062992126
        },
        {
          "duration": 0.1957232666666755,
          "durationTicks": 238,
          "midi": 42,
          "name": "F#2",
          "ticks": 138720,
          "time": 114.07870399999999,
          "velocity": 0.6456692913385826
        },
        {
          "duration": 0.09703926666665552,
          "durationTicks": 118,
          "midi": 42,
          "name": "F#2",
          "ticks": 138960,
          "time": 114.276072,
          "velocity": 0.6456692913385826
        },
        {
          "duration": 0.09703926666666973,
          "durationTicks": 118,
          "midi": 37,
          "name": "C#2",
          "ticks": 139080,
          "time": 114.37475599999999,
          "velocity": 0.8031496062992126
        },
        {
          "duration": 0.1957232666666613,
          "durationTicks": 238,
          "midi": 42,
          "name": "F#2",
          "ticks": 139200,
          "time": 114.47344,
          "velocity": 0.6456692913385826
        },
        {
          "duration": 0.1957232666666613,
          "durationTicks": 238,
          "midi": 42,
          "name": "F#2",
          "ticks": 139440,
          "time": 114.670808,
          "velocity": 0.6456692913385826
        },
        {
          "duration": 0.1957232666666755,
          "durationTicks": 238,
          "midi": 37,
          "name": "C#2",
          "ticks": 139680,
          "time": 114.86817599999999,
          "velocity": 0.8031496062992126
        },
        {
          "duration": 0.1957232666666755,
          "durationTicks": 238,
          "midi": 42,
          "name": "F#2",
          "ticks": 139680,
          "time": 114.86817599999999,
          "velocity": 0.6456692913385826
        },
        {
          "duration": 0.09703926666666973,
          "durationTicks": 118,
          "midi": 42,
          "name": "F#2",
          "ticks": 139920,
          "time": 115.06554399999999,
          "velocity": 0.6456692913385826
        },
        {
          "duration": 0.09703926666666973,
          "durationTicks": 118,
          "midi": 37,
          "name": "C#2",
          "ticks": 140040,
          "time": 115.164228,
          "velocity": 0.8031496062992126
        },
        {
          "duration": 0.1957232666666613,
          "durationTicks": 238,
          "midi": 35,
          "name": "B1",
          "ticks": 140160,
          "time": 115.262912,
          "velocity": 0.8031496062992126
        },
        {
          "duration": 0.1957232666666613,
          "durationTicks": 238,
          "midi": 42,
          "name": "F#2",
          "ticks": 140160,
          "time": 115.262912,
          "velocity": 0.6456692913385826
        },
        {
          "duration": 0.1957232666666613,
          "durationTicks": 238,
          "midi": 35,
          "name": "B1",
          "ticks": 140400,
          "time": 115.46028,
          "velocity": 0.8031496062992126
        },
        {
          "duration": 0.1957232666666613,
          "durationTicks": 238,
          "midi": 42,
          "name": "F#2",
          "ticks": 140400,
          "time": 115.46028,
          "velocity": 0.6456692913385826
        },
        {
          "duration": 0.1957232666666613,
          "durationTicks": 238,
          "midi": 37,
          "name": "C#2",
          "ticks": 140640,
          "time": 115.657648,
          "velocity": 0.8031496062992126
        },
        {
          "duration": 0.1957232666666613,
          "durationTicks": 238,
          "midi": 42,
          "name": "F#2",
          "ticks": 140640,
          "time": 115.657648,
          "velocity": 0.6456692913385826
        },
        {
          "duration": 0.09703926666666973,
          "durationTicks": 118,
          "midi": 42,
          "name": "F#2",
          "ticks": 140880,
          "time": 115.85501599999999,
          "velocity": 0.6456692913385826
        },
        {
          "duration": 0.09703926666666973,
          "durationTicks": 118,
          "midi": 37,
          "name": "C#2",
          "ticks": 141000,
          "time": 115.9537,
          "velocity": 0.8031496062992126
        },
        {
          "duration": 0.1957232666666755,
          "durationTicks": 238,
          "midi": 42,
          "name": "F#2",
          "ticks": 141120,
          "time": 116.05238399999999,
          "velocity": 0.6456692913385826
        },
        {
          "duration": 0.1957232666666755,
          "durationTicks": 238,
          "midi": 42,
          "name": "F#2",
          "ticks": 141360,
          "time": 116.24975199999999,
          "velocity": 0.6456692913385826
        },
        {
          "duration": 0.1957232666666613,
          "durationTicks": 238,
          "midi": 37,
          "name": "C#2",
          "ticks": 141600,
          "time": 116.44712,
          "velocity": 0.8031496062992126
        },
        {
          "duration": 0.1957232666666613,
          "durationTicks": 238,
          "midi": 42,
          "name": "F#2",
          "ticks": 141600,
          "time": 116.44712,
          "velocity": 0.6456692913385826
        },
        {
          "duration": 0.09703926666666973,
          "durationTicks": 118,
          "midi": 42,
          "name": "F#2",
          "ticks": 141840,
          "time": 116.644488,
          "velocity": 0.6456692913385826
        },
        {
          "duration": 0.09703926666666973,
          "durationTicks": 118,
          "midi": 37,
          "name": "C#2",
          "ticks": 141960,
          "time": 116.74317199999999,
          "velocity": 0.8031496062992126
        },
        {
          "duration": 0.1957232666666613,
          "durationTicks": 238,
          "midi": 42,
          "name": "F#2",
          "ticks": 142080,
          "time": 116.84185599999999,
          "velocity": 0.6456692913385826
        },
        {
          "duration": 0.1957232666666755,
          "durationTicks": 238,
          "midi": 42,
          "name": "F#2",
          "ticks": 142320,
          "time": 117.03922399999999,
          "velocity": 0.6456692913385826
        },
        {
          "duration": 0.1957232666666755,
          "durationTicks": 238,
          "midi": 37,
          "name": "C#2",
          "ticks": 142560,
          "time": 117.23659199999999,
          "velocity": 0.8031496062992126
        },
        {
          "duration": 0.1957232666666755,
          "durationTicks": 238,
          "midi": 42,
          "name": "F#2",
          "ticks": 142560,
          "time": 117.23659199999999,
          "velocity": 0.6456692913385826
        },
        {
          "duration": 0.09703926666665552,
          "durationTicks": 118,
          "midi": 42,
          "name": "F#2",
          "ticks": 142800,
          "time": 117.43396,
          "velocity": 0.6456692913385826
        },
        {
          "duration": 0.09703926666666973,
          "durationTicks": 118,
          "midi": 37,
          "name": "C#2",
          "ticks": 142920,
          "time": 117.53264399999999,
          "velocity": 0.8031496062992126
        },
        {
          "duration": 0.1957232666666613,
          "durationTicks": 238,
          "midi": 42,
          "name": "F#2",
          "ticks": 143040,
          "time": 117.631328,
          "velocity": 0.6456692913385826
        },
        {
          "duration": 0.1957232666666613,
          "durationTicks": 238,
          "midi": 42,
          "name": "F#2",
          "ticks": 143280,
          "time": 117.828696,
          "velocity": 0.6456692913385826
        },
        {
          "duration": 0.1957232666666755,
          "durationTicks": 238,
          "midi": 37,
          "name": "C#2",
          "ticks": 143520,
          "time": 118.02606399999999,
          "velocity": 0.8031496062992126
        },
        {
          "duration": 0.1957232666666755,
          "durationTicks": 238,
          "midi": 42,
          "name": "F#2",
          "ticks": 143520,
          "time": 118.02606399999999,
          "velocity": 0.6456692913385826
        },
        {
          "duration": 0.09703926666666973,
          "durationTicks": 118,
          "midi": 42,
          "name": "F#2",
          "ticks": 143760,
          "time": 118.22343199999999,
          "velocity": 0.6456692913385826
        },
        {
          "duration": 0.09703926666666973,
          "durationTicks": 118,
          "midi": 37,
          "name": "C#2",
          "ticks": 143880,
          "time": 118.322116,
          "velocity": 0.8031496062992126
        },
        {
          "duration": 0.1957232666666755,
          "durationTicks": 238,
          "midi": 35,
          "name": "B1",
          "ticks": 144000,
          "time": 118.42079999999999,
          "velocity": 0.8031496062992126
        },
        {
          "duration": 0.1957232666666755,
          "durationTicks": 238,
          "midi": 42,
          "name": "F#2",
          "ticks": 144000,
          "time": 118.42079999999999,
          "velocity": 0.6456692913385826
        },
        {
          "duration": 0.1957232666666613,
          "durationTicks": 238,
          "midi": 42,
          "name": "F#2",
          "ticks": 144240,
          "time": 118.618168,
          "velocity": 0.6456692913385826
        },
        {
          "duration": 0.1957232666666613,
          "durationTicks": 238,
          "midi": 37,
          "name": "C#2",
          "ticks": 144480,
          "time": 118.815536,
          "velocity": 0.8031496062992126
        },
        {
          "duration": 0.1957232666666613,
          "durationTicks": 238,
          "midi": 42,
          "name": "F#2",
          "ticks": 144480,
          "time": 118.815536,
          "velocity": 0.6456692913385826
        },
        {
          "duration": 0.09703926666666973,
          "durationTicks": 118,
          "midi": 42,
          "name": "F#2",
          "ticks": 144720,
          "time": 119.01290399999999,
          "velocity": 0.6456692913385826
        },
        {
          "duration": 0.09703926666666973,
          "durationTicks": 118,
          "midi": 37,
          "name": "C#2",
          "ticks": 144840,
          "time": 119.111588,
          "velocity": 0.8031496062992126
        },
        {
          "duration": 0.1957232666666755,
          "durationTicks": 238,
          "midi": 42,
          "name": "F#2",
          "ticks": 144960,
          "time": 119.21027199999999,
          "velocity": 0.6456692913385826
        },
        {
          "duration": 0.1957232666666755,
          "durationTicks": 238,
          "midi": 42,
          "name": "F#2",
          "ticks": 145200,
          "time": 119.40763999999999,
          "velocity": 0.6456692913385826
        },
        {
          "duration": 0.1957232666666613,
          "durationTicks": 238,
          "midi": 37,
          "name": "C#2",
          "ticks": 145440,
          "time": 119.605008,
          "velocity": 0.8031496062992126
        },
        {
          "duration": 0.1957232666666613,
          "durationTicks": 238,
          "midi": 42,
          "name": "F#2",
          "ticks": 145440,
          "time": 119.605008,
          "velocity": 0.6456692913385826
        },
        {
          "duration": 0.09703926666666973,
          "durationTicks": 118,
          "midi": 42,
          "name": "F#2",
          "ticks": 145680,
          "time": 119.802376,
          "velocity": 0.6456692913385826
        },
        {
          "duration": 0.09703926666666973,
          "durationTicks": 118,
          "midi": 37,
          "name": "C#2",
          "ticks": 145800,
          "time": 119.90105999999999,
          "velocity": 0.8031496062992126
        },
        {
          "duration": 0.1957232666666613,
          "durationTicks": 238,
          "midi": 42,
          "name": "F#2",
          "ticks": 145920,
          "time": 119.99974399999999,
          "velocity": 0.6456692913385826
        },
        {
          "duration": 0.1957232666666755,
          "durationTicks": 238,
          "midi": 42,
          "name": "F#2",
          "ticks": 146160,
          "time": 120.19711199999999,
          "velocity": 0.6456692913385826
        },
        {
          "duration": 0.1957232666666755,
          "durationTicks": 238,
          "midi": 37,
          "name": "C#2",
          "ticks": 146400,
          "time": 120.39447999999999,
          "velocity": 0.8031496062992126
        },
        {
          "duration": 0.1957232666666755,
          "durationTicks": 238,
          "midi": 42,
          "name": "F#2",
          "ticks": 146400,
          "time": 120.39447999999999,
          "velocity": 0.6456692913385826
        },
        {
          "duration": 0.09703926666665552,
          "durationTicks": 118,
          "midi": 42,
          "name": "F#2",
          "ticks": 146640,
          "time": 120.591848,
          "velocity": 0.6456692913385826
        },
        {
          "duration": 0.09703926666666973,
          "durationTicks": 118,
          "midi": 37,
          "name": "C#2",
          "ticks": 146760,
          "time": 120.69053199999999,
          "velocity": 0.8031496062992126
        },
        {
          "duration": 0.1957232666666613,
          "durationTicks": 238,
          "midi": 42,
          "name": "F#2",
          "ticks": 146880,
          "time": 120.789216,
          "velocity": 0.6456692913385826
        },
        {
          "duration": 0.1957232666666613,
          "durationTicks": 238,
          "midi": 42,
          "name": "F#2",
          "ticks": 147120,
          "time": 120.986584,
          "velocity": 0.6456692913385826
        },
        {
          "duration": 0.1957232666666755,
          "durationTicks": 238,
          "midi": 37,
          "name": "C#2",
          "ticks": 147360,
          "time": 121.18395199999999,
          "velocity": 0.8031496062992126
        },
        {
          "duration": 0.1957232666666755,
          "durationTicks": 238,
          "midi": 42,
          "name": "F#2",
          "ticks": 147360,
          "time": 121.18395199999999,
          "velocity": 0.6456692913385826
        },
        {
          "duration": 0.09703926666666973,
          "durationTicks": 118,
          "midi": 42,
          "name": "F#2",
          "ticks": 147600,
          "time": 121.38131999999999,
          "velocity": 0.6456692913385826
        },
        {
          "duration": 0.09703926666666973,
          "durationTicks": 118,
          "midi": 37,
          "name": "C#2",
          "ticks": 147720,
          "time": 121.480004,
          "velocity": 0.8031496062992126
        },
        {
          "duration": 0.1957232666666613,
          "durationTicks": 238,
          "midi": 35,
          "name": "B1",
          "ticks": 147840,
          "time": 121.578688,
          "velocity": 0.8031496062992126
        },
        {
          "duration": 0.1957232666666613,
          "durationTicks": 238,
          "midi": 42,
          "name": "F#2",
          "ticks": 147840,
          "time": 121.578688,
          "velocity": 0.6456692913385826
        },
        {
          "duration": 0.1957232666666613,
          "durationTicks": 238,
          "midi": 35,
          "name": "B1",
          "ticks": 148080,
          "time": 121.776056,
          "velocity": 0.8031496062992126
        },
        {
          "duration": 0.1957232666666613,
          "durationTicks": 238,
          "midi": 42,
          "name": "F#2",
          "ticks": 148080,
          "time": 121.776056,
          "velocity": 0.6456692913385826
        },
        {
          "duration": 0.1957232666666613,
          "durationTicks": 238,
          "midi": 37,
          "name": "C#2",
          "ticks": 148320,
          "time": 121.973424,
          "velocity": 0.8031496062992126
        },
        {
          "duration": 0.1957232666666613,
          "durationTicks": 238,
          "midi": 42,
          "name": "F#2",
          "ticks": 148320,
          "time": 121.973424,
          "velocity": 0.6456692913385826
        },
        {
          "duration": 0.09703926666666973,
          "durationTicks": 118,
          "midi": 42,
          "name": "F#2",
          "ticks": 148560,
          "time": 122.17079199999999,
          "velocity": 0.6456692913385826
        },
        {
          "duration": 0.09703926666666973,
          "durationTicks": 118,
          "midi": 37,
          "name": "C#2",
          "ticks": 148680,
          "time": 122.269476,
          "velocity": 0.8031496062992126
        },
        {
          "duration": 0.1957232666666755,
          "durationTicks": 238,
          "midi": 42,
          "name": "F#2",
          "ticks": 148800,
          "time": 122.36815999999999,
          "velocity": 0.6456692913385826
        },
        {
          "duration": 0.1957232666666755,
          "durationTicks": 238,
          "midi": 42,
          "name": "F#2",
          "ticks": 149040,
          "time": 122.56552799999999,
          "velocity": 0.6456692913385826
        },
        {
          "duration": 0.1957232666666613,
          "durationTicks": 238,
          "midi": 37,
          "name": "C#2",
          "ticks": 149280,
          "time": 122.762896,
          "velocity": 0.8031496062992126
        },
        {
          "duration": 0.1957232666666613,
          "durationTicks": 238,
          "midi": 42,
          "name": "F#2",
          "ticks": 149280,
          "time": 122.762896,
          "velocity": 0.6456692913385826
        },
        {
          "duration": 0.09703926666666973,
          "durationTicks": 118,
          "midi": 42,
          "name": "F#2",
          "ticks": 149520,
          "time": 122.960264,
          "velocity": 0.6456692913385826
        },
        {
          "duration": 0.09703926666666973,
          "durationTicks": 118,
          "midi": 37,
          "name": "C#2",
          "ticks": 149640,
          "time": 123.05894799999999,
          "velocity": 0.8031496062992126
        },
        {
          "duration": 0.1957232666666613,
          "durationTicks": 238,
          "midi": 42,
          "name": "F#2",
          "ticks": 149760,
          "time": 123.15763199999999,
          "velocity": 0.6456692913385826
        },
        {
          "duration": 0.1957232666666755,
          "durationTicks": 238,
          "midi": 42,
          "name": "F#2",
          "ticks": 150000,
          "time": 123.35499999999999,
          "velocity": 0.6456692913385826
        },
        {
          "duration": 0.1957232666666755,
          "durationTicks": 238,
          "midi": 37,
          "name": "C#2",
          "ticks": 150240,
          "time": 123.55236799999999,
          "velocity": 0.8031496062992126
        },
        {
          "duration": 0.1957232666666755,
          "durationTicks": 238,
          "midi": 42,
          "name": "F#2",
          "ticks": 150240,
          "time": 123.55236799999999,
          "velocity": 0.6456692913385826
        },
        {
          "duration": 0.09703926666665552,
          "durationTicks": 118,
          "midi": 42,
          "name": "F#2",
          "ticks": 150480,
          "time": 123.749736,
          "velocity": 0.6456692913385826
        },
        {
          "duration": 0.09703926666666973,
          "durationTicks": 118,
          "midi": 37,
          "name": "C#2",
          "ticks": 150600,
          "time": 123.84841999999999,
          "velocity": 0.8031496062992126
        },
        {
          "duration": 0.1957232666666613,
          "durationTicks": 238,
          "midi": 42,
          "name": "F#2",
          "ticks": 150720,
          "time": 123.947104,
          "velocity": 0.6456692913385826
        },
        {
          "duration": 0.1957232666666613,
          "durationTicks": 238,
          "midi": 42,
          "name": "F#2",
          "ticks": 150960,
          "time": 124.144472,
          "velocity": 0.6456692913385826
        },
        {
          "duration": 0.1957232666666755,
          "durationTicks": 238,
          "midi": 37,
          "name": "C#2",
          "ticks": 151200,
          "time": 124.34183999999999,
          "velocity": 0.8031496062992126
        },
        {
          "duration": 0.1957232666666755,
          "durationTicks": 238,
          "midi": 42,
          "name": "F#2",
          "ticks": 151200,
          "time": 124.34183999999999,
          "velocity": 0.6456692913385826
        },
        {
          "duration": 0.09703926666666973,
          "durationTicks": 118,
          "midi": 42,
          "name": "F#2",
          "ticks": 151440,
          "time": 124.53920799999999,
          "velocity": 0.6456692913385826
        },
        {
          "duration": 0.09703926666666973,
          "durationTicks": 118,
          "midi": 37,
          "name": "C#2",
          "ticks": 151560,
          "time": 124.637892,
          "velocity": 0.8031496062992126
        },
        {
          "duration": 0.1957232666666755,
          "durationTicks": 238,
          "midi": 35,
          "name": "B1",
          "ticks": 151680,
          "time": 124.73657599999999,
          "velocity": 0.8031496062992126
        },
        {
          "duration": 0.1957232666666755,
          "durationTicks": 238,
          "midi": 42,
          "name": "F#2",
          "ticks": 151680,
          "time": 124.73657599999999,
          "velocity": 0.6456692913385826
        },
        {
          "duration": 0.1957232666666613,
          "durationTicks": 238,
          "midi": 42,
          "name": "F#2",
          "ticks": 151920,
          "time": 124.933944,
          "velocity": 0.6456692913385826
        },
        {
          "duration": 0.1957232666666613,
          "durationTicks": 238,
          "midi": 37,
          "name": "C#2",
          "ticks": 152160,
          "time": 125.131312,
          "velocity": 0.8031496062992126
        },
        {
          "duration": 0.1957232666666613,
          "durationTicks": 238,
          "midi": 42,
          "name": "F#2",
          "ticks": 152160,
          "time": 125.131312,
          "velocity": 0.6456692913385826
        },
        {
          "duration": 0.09703926666666973,
          "durationTicks": 118,
          "midi": 42,
          "name": "F#2",
          "ticks": 152400,
          "time": 125.32867999999999,
          "velocity": 0.6456692913385826
        },
        {
          "duration": 0.09703926666666973,
          "durationTicks": 118,
          "midi": 37,
          "name": "C#2",
          "ticks": 152520,
          "time": 125.427364,
          "velocity": 0.8031496062992126
        },
        {
          "duration": 0.1957232666666755,
          "durationTicks": 238,
          "midi": 42,
          "name": "F#2",
          "ticks": 152640,
          "time": 125.52604799999999,
          "velocity": 0.6456692913385826
        },
        {
          "duration": 0.1957232666666755,
          "durationTicks": 238,
          "midi": 42,
          "name": "F#2",
          "ticks": 152880,
          "time": 125.72341599999999,
          "velocity": 0.6456692913385826
        },
        {
          "duration": 0.1957232666666613,
          "durationTicks": 238,
          "midi": 37,
          "name": "C#2",
          "ticks": 153120,
          "time": 125.920784,
          "velocity": 0.8031496062992126
        },
        {
          "duration": 0.1957232666666613,
          "durationTicks": 238,
          "midi": 42,
          "name": "F#2",
          "ticks": 153120,
          "time": 125.920784,
          "velocity": 0.6456692913385826
        },
        {
          "duration": 0.09703926666666973,
          "durationTicks": 118,
          "midi": 42,
          "name": "F#2",
          "ticks": 153360,
          "time": 126.118152,
          "velocity": 0.6456692913385826
        },
        {
          "duration": 0.09703926666666973,
          "durationTicks": 118,
          "midi": 37,
          "name": "C#2",
          "ticks": 153480,
          "time": 126.21683599999999,
          "velocity": 0.8031496062992126
        },
        {
          "duration": 0.1957232666666613,
          "durationTicks": 238,
          "midi": 42,
          "name": "F#2",
          "ticks": 153600,
          "time": 126.31551999999999,
          "velocity": 0.6456692913385826
        },
        {
          "duration": 0.1957232666666755,
          "durationTicks": 238,
          "midi": 42,
          "name": "F#2",
          "ticks": 153840,
          "time": 126.51288799999999,
          "velocity": 0.6456692913385826
        },
        {
          "duration": 0.1957232666666755,
          "durationTicks": 238,
          "midi": 37,
          "name": "C#2",
          "ticks": 154080,
          "time": 126.71025599999999,
          "velocity": 0.8031496062992126
        },
        {
          "duration": 0.1957232666666755,
          "durationTicks": 238,
          "midi": 42,
          "name": "F#2",
          "ticks": 154080,
          "time": 126.71025599999999,
          "velocity": 0.6456692913385826
        },
        {
          "duration": 0.09703926666665552,
          "durationTicks": 118,
          "midi": 42,
          "name": "F#2",
          "ticks": 154320,
          "time": 126.907624,
          "velocity": 0.6456692913385826
        },
        {
          "duration": 0.09703926666666973,
          "durationTicks": 118,
          "midi": 37,
          "name": "C#2",
          "ticks": 154440,
          "time": 127.00630799999999,
          "velocity": 0.8031496062992126
        },
        {
          "duration": 0.1957232666666613,
          "durationTicks": 238,
          "midi": 42,
          "name": "F#2",
          "ticks": 154560,
          "time": 127.104992,
          "velocity": 0.6456692913385826
        },
        {
          "duration": 0.1957232666666613,
          "durationTicks": 238,
          "midi": 42,
          "name": "F#2",
          "ticks": 154800,
          "time": 127.30236,
          "velocity": 0.6456692913385826
        },
        {
          "duration": 0.1957232666666755,
          "durationTicks": 238,
          "midi": 37,
          "name": "C#2",
          "ticks": 155040,
          "time": 127.49972799999999,
          "velocity": 0.8031496062992126
        },
        {
          "duration": 0.1957232666666755,
          "durationTicks": 238,
          "midi": 42,
          "name": "F#2",
          "ticks": 155040,
          "time": 127.49972799999999,
          "velocity": 0.6456692913385826
        },
        {
          "duration": 0.09703926666666973,
          "durationTicks": 118,
          "midi": 42,
          "name": "F#2",
          "ticks": 155280,
          "time": 127.69709599999999,
          "velocity": 0.6456692913385826
        },
        {
          "duration": 0.09703926666666973,
          "durationTicks": 118,
          "midi": 37,
          "name": "C#2",
          "ticks": 155400,
          "time": 127.79578,
          "velocity": 0.8031496062992126
        },
        {
          "duration": 0.19572326666664708,
          "durationTicks": 238,
          "midi": 35,
          "name": "B1",
          "ticks": 155520,
          "time": 127.894464,
          "velocity": 0.8031496062992126
        },
        {
          "duration": 0.19572326666664708,
          "durationTicks": 238,
          "midi": 42,
          "name": "F#2",
          "ticks": 155520,
          "time": 127.894464,
          "velocity": 0.6456692913385826
        },
        {
          "duration": 0.1957232666666755,
          "durationTicks": 238,
          "midi": 35,
          "name": "B1",
          "ticks": 155760,
          "time": 128.09183199999998,
          "velocity": 0.8031496062992126
        },
        {
          "duration": 0.1957232666666755,
          "durationTicks": 238,
          "midi": 42,
          "name": "F#2",
          "ticks": 155760,
          "time": 128.09183199999998,
          "velocity": 0.6456692913385826
        },
        {
          "duration": 0.1957232666666755,
          "durationTicks": 238,
          "midi": 37,
          "name": "C#2",
          "ticks": 156000,
          "time": 128.2892,
          "velocity": 0.8031496062992126
        },
        {
          "duration": 0.1957232666666755,
          "durationTicks": 238,
          "midi": 42,
          "name": "F#2",
          "ticks": 156000,
          "time": 128.2892,
          "velocity": 0.6456692913385826
        },
        {
          "duration": 0.09703926666665552,
          "durationTicks": 118,
          "midi": 42,
          "name": "F#2",
          "ticks": 156240,
          "time": 128.486568,
          "velocity": 0.6456692913385826
        },
        {
          "duration": 0.09703926666665552,
          "durationTicks": 118,
          "midi": 37,
          "name": "C#2",
          "ticks": 156360,
          "time": 128.585252,
          "velocity": 0.8031496062992126
        },
        {
          "duration": 0.1957232666666755,
          "durationTicks": 238,
          "midi": 42,
          "name": "F#2",
          "ticks": 156480,
          "time": 128.683936,
          "velocity": 0.6456692913385826
        },
        {
          "duration": 0.19572326666664708,
          "durationTicks": 238,
          "midi": 42,
          "name": "F#2",
          "ticks": 156720,
          "time": 128.881304,
          "velocity": 0.6456692913385826
        },
        {
          "duration": 0.1957232666666755,
          "durationTicks": 238,
          "midi": 37,
          "name": "C#2",
          "ticks": 156960,
          "time": 129.07867199999998,
          "velocity": 0.8031496062992126
        },
        {
          "duration": 0.1957232666666755,
          "durationTicks": 238,
          "midi": 42,
          "name": "F#2",
          "ticks": 156960,
          "time": 129.07867199999998,
          "velocity": 0.6456692913385826
        },
        {
          "duration": 0.09703926666665552,
          "durationTicks": 118,
          "midi": 42,
          "name": "F#2",
          "ticks": 157200,
          "time": 129.27604,
          "velocity": 0.6456692913385826
        },
        {
          "duration": 0.09703926666668394,
          "durationTicks": 118,
          "midi": 37,
          "name": "C#2",
          "ticks": 157320,
          "time": 129.374724,
          "velocity": 0.8031496062992126
        },
        {
          "duration": 0.19572326666664708,
          "durationTicks": 238,
          "midi": 42,
          "name": "F#2",
          "ticks": 157440,
          "time": 129.473408,
          "velocity": 0.6456692913385826
        },
        {
          "duration": 0.1957232666666755,
          "durationTicks": 238,
          "midi": 42,
          "name": "F#2",
          "ticks": 157680,
          "time": 129.670776,
          "velocity": 0.6456692913385826
        },
        {
          "duration": 0.19572326666664708,
          "durationTicks": 238,
          "midi": 37,
          "name": "C#2",
          "ticks": 157920,
          "time": 129.868144,
          "velocity": 0.8031496062992126
        },
        {
          "duration": 0.19572326666664708,
          "durationTicks": 238,
          "midi": 42,
          "name": "F#2",
          "ticks": 157920,
          "time": 129.868144,
          "velocity": 0.6456692913385826
        },
        {
          "duration": 0.09703926666668394,
          "durationTicks": 118,
          "midi": 42,
          "name": "F#2",
          "ticks": 158160,
          "time": 130.06551199999998,
          "velocity": 0.6456692913385826
        },
        {
          "duration": 0.09703926666665552,
          "durationTicks": 118,
          "midi": 37,
          "name": "C#2",
          "ticks": 158280,
          "time": 130.164196,
          "velocity": 0.8031496062992126
        },
        {
          "duration": 0.1957232666666755,
          "durationTicks": 238,
          "midi": 42,
          "name": "F#2",
          "ticks": 158400,
          "time": 130.26288,
          "velocity": 0.6456692913385826
        },
        {
          "duration": 0.1957232666666755,
          "durationTicks": 238,
          "midi": 42,
          "name": "F#2",
          "ticks": 158640,
          "time": 130.46024799999998,
          "velocity": 0.6456692913385826
        },
        {
          "duration": 0.1957232666666755,
          "durationTicks": 238,
          "midi": 37,
          "name": "C#2",
          "ticks": 158880,
          "time": 130.657616,
          "velocity": 0.8031496062992126
        },
        {
          "duration": 0.1957232666666755,
          "durationTicks": 238,
          "midi": 42,
          "name": "F#2",
          "ticks": 158880,
          "time": 130.657616,
          "velocity": 0.6456692913385826
        },
        {
          "duration": 0.09703926666665552,
          "durationTicks": 118,
          "midi": 42,
          "name": "F#2",
          "ticks": 159120,
          "time": 130.854984,
          "velocity": 0.6456692913385826
        },
        {
          "duration": 0.09703926666665552,
          "durationTicks": 118,
          "midi": 37,
          "name": "C#2",
          "ticks": 159240,
          "time": 130.953668,
          "velocity": 0.8031496062992126
        },
        {
          "duration": 0.1957232666666755,
          "durationTicks": 238,
          "midi": 35,
          "name": "B1",
          "ticks": 159360,
          "time": 131.05235199999998,
          "velocity": 0.8031496062992126
        },
        {
          "duration": 0.1957232666666755,
          "durationTicks": 238,
          "midi": 42,
          "name": "F#2",
          "ticks": 159360,
          "time": 131.05235199999998,
          "velocity": 0.6456692913385826
        },
        {
          "duration": 0.1957232666666755,
          "durationTicks": 238,
          "midi": 42,
          "name": "F#2",
          "ticks": 159600,
          "time": 131.24972,
          "velocity": 0.6456692913385826
        },
        {
          "duration": 0.1957232666666755,
          "durationTicks": 238,
          "midi": 37,
          "name": "C#2",
          "ticks": 159840,
          "time": 131.44708799999998,
          "velocity": 0.8031496062992126
        },
        {
          "duration": 0.1957232666666755,
          "durationTicks": 238,
          "midi": 42,
          "name": "F#2",
          "ticks": 159840,
          "time": 131.44708799999998,
          "velocity": 0.6456692913385826
        },
        {
          "duration": 0.09703926666665552,
          "durationTicks": 118,
          "midi": 42,
          "name": "F#2",
          "ticks": 160080,
          "time": 131.644456,
          "velocity": 0.6456692913385826
        },
        {
          "duration": 0.09703926666668394,
          "durationTicks": 118,
          "midi": 37,
          "name": "C#2",
          "ticks": 160200,
          "time": 131.74313999999998,
          "velocity": 0.8031496062992126
        },
        {
          "duration": 0.19572326666664708,
          "durationTicks": 238,
          "midi": 42,
          "name": "F#2",
          "ticks": 160320,
          "time": 131.841824,
          "velocity": 0.6456692913385826
        },
        {
          "duration": 0.1957232666666755,
          "durationTicks": 238,
          "midi": 42,
          "name": "F#2",
          "ticks": 160560,
          "time": 132.03919199999999,
          "velocity": 0.6456692913385826
        },
        {
          "duration": 0.1957232666666755,
          "durationTicks": 238,
          "midi": 37,
          "name": "C#2",
          "ticks": 160800,
          "time": 132.23656,
          "velocity": 0.8031496062992126
        },
        {
          "duration": 0.1957232666666755,
          "durationTicks": 238,
          "midi": 42,
          "name": "F#2",
          "ticks": 160800,
          "time": 132.23656,
          "velocity": 0.6456692913385826
        },
        {
          "duration": 0.09703926666668394,
          "durationTicks": 118,
          "midi": 42,
          "name": "F#2",
          "ticks": 161040,
          "time": 132.43392799999998,
          "velocity": 0.6456692913385826
        },
        {
          "duration": 0.09703926666665552,
          "durationTicks": 118,
          "midi": 37,
          "name": "C#2",
          "ticks": 161160,
          "time": 132.532612,
          "velocity": 0.8031496062992126
        },
        {
          "duration": 0.1957232666666755,
          "durationTicks": 238,
          "midi": 42,
          "name": "F#2",
          "ticks": 161280,
          "time": 132.631296,
          "velocity": 0.6456692913385826
        },
        {
          "duration": 0.19572326666664708,
          "durationTicks": 238,
          "midi": 42,
          "name": "F#2",
          "ticks": 161520,
          "time": 132.828664,
          "velocity": 0.6456692913385826
        },
        {
          "duration": 0.1957232666666755,
          "durationTicks": 238,
          "midi": 37,
          "name": "C#2",
          "ticks": 161760,
          "time": 133.026032,
          "velocity": 0.8031496062992126
        },
        {
          "duration": 0.1957232666666755,
          "durationTicks": 238,
          "midi": 42,
          "name": "F#2",
          "ticks": 161760,
          "time": 133.026032,
          "velocity": 0.6456692913385826
        },
        {
          "duration": 0.09703926666665552,
          "durationTicks": 118,
          "midi": 42,
          "name": "F#2",
          "ticks": 162000,
          "time": 133.2234,
          "velocity": 0.6456692913385826
        },
        {
          "duration": 0.09703926666668394,
          "durationTicks": 118,
          "midi": 37,
          "name": "C#2",
          "ticks": 162120,
          "time": 133.322084,
          "velocity": 0.8031496062992126
        },
        {
          "duration": 0.1957232666666755,
          "durationTicks": 238,
          "midi": 42,
          "name": "F#2",
          "ticks": 162240,
          "time": 133.42076799999998,
          "velocity": 0.6456692913385826
        },
        {
          "duration": 0.1957232666666755,
          "durationTicks": 238,
          "midi": 42,
          "name": "F#2",
          "ticks": 162480,
          "time": 133.618136,
          "velocity": 0.6456692913385826
        },
        {
          "duration": 0.19572326666664708,
          "durationTicks": 238,
          "midi": 37,
          "name": "C#2",
          "ticks": 162720,
          "time": 133.815504,
          "velocity": 0.8031496062992126
        },
        {
          "duration": 0.19572326666664708,
          "durationTicks": 238,
          "midi": 42,
          "name": "F#2",
          "ticks": 162720,
          "time": 133.815504,
          "velocity": 0.6456692913385826
        },
        {
          "duration": 0.09703926666668394,
          "durationTicks": 118,
          "midi": 42,
          "name": "F#2",
          "ticks": 162960,
          "time": 134.012872,
          "velocity": 0.6456692913385826
        },
        {
          "duration": 0.09703926666668394,
          "durationTicks": 118,
          "midi": 37,
          "name": "C#2",
          "ticks": 163080,
          "time": 134.11155599999998,
          "velocity": 0.8031496062992126
        },
        {
          "duration": 0.19572326666664708,
          "durationTicks": 238,
          "midi": 35,
          "name": "B1",
          "ticks": 163200,
          "time": 134.21024,
          "velocity": 0.8031496062992126
        },
        {
          "duration": 0.19572326666664708,
          "durationTicks": 238,
          "midi": 42,
          "name": "F#2",
          "ticks": 163200,
          "time": 134.21024,
          "velocity": 0.6456692913385826
        },
        {
          "duration": 0.1957232666666755,
          "durationTicks": 238,
          "midi": 35,
          "name": "B1",
          "ticks": 163440,
          "time": 134.40760799999998,
          "velocity": 0.8031496062992126
        },
        {
          "duration": 0.1957232666666755,
          "durationTicks": 238,
          "midi": 42,
          "name": "F#2",
          "ticks": 163440,
          "time": 134.40760799999998,
          "velocity": 0.6456692913385826
        },
        {
          "duration": 0.1957232666666755,
          "durationTicks": 238,
          "midi": 37,
          "name": "C#2",
          "ticks": 163680,
          "time": 134.604976,
          "velocity": 0.8031496062992126
        },
        {
          "duration": 0.1957232666666755,
          "durationTicks": 238,
          "midi": 42,
          "name": "F#2",
          "ticks": 163680,
          "time": 134.604976,
          "velocity": 0.6456692913385826
        },
        {
          "duration": 0.09703926666665552,
          "durationTicks": 118,
          "midi": 42,
          "name": "F#2",
          "ticks": 163920,
          "time": 134.802344,
          "velocity": 0.6456692913385826
        },
        {
          "duration": 0.09703926666665552,
          "durationTicks": 118,
          "midi": 37,
          "name": "C#2",
          "ticks": 164040,
          "time": 134.901028,
          "velocity": 0.8031496062992126
        },
        {
          "duration": 0.1957232666666755,
          "durationTicks": 238,
          "midi": 42,
          "name": "F#2",
          "ticks": 164160,
          "time": 134.999712,
          "velocity": 0.6456692913385826
        },
        {
          "duration": 0.19572326666664708,
          "durationTicks": 238,
          "midi": 42,
          "name": "F#2",
          "ticks": 164400,
          "time": 135.19708,
          "velocity": 0.6456692913385826
        },
        {
          "duration": 0.1957232666666755,
          "durationTicks": 238,
          "midi": 37,
          "name": "C#2",
          "ticks": 164640,
          "time": 135.39444799999998,
          "velocity": 0.8031496062992126
        },
        {
          "duration": 0.1957232666666755,
          "durationTicks": 238,
          "midi": 42,
          "name": "F#2",
          "ticks": 164640,
          "time": 135.39444799999998,
          "velocity": 0.6456692913385826
        },
        {
          "duration": 0.09703926666665552,
          "durationTicks": 118,
          "midi": 42,
          "name": "F#2",
          "ticks": 164880,
          "time": 135.591816,
          "velocity": 0.6456692913385826
        },
        {
          "duration": 0.09703926666668394,
          "durationTicks": 118,
          "midi": 37,
          "name": "C#2",
          "ticks": 165000,
          "time": 135.6905,
          "velocity": 0.8031496062992126
        },
        {
          "duration": 0.1957232666666755,
          "durationTicks": 238,
          "midi": 42,
          "name": "F#2",
          "ticks": 165120,
          "time": 135.78918399999998,
          "velocity": 0.6456692913385826
        },
        {
          "duration": 0.1957232666666755,
          "durationTicks": 238,
          "midi": 42,
          "name": "F#2",
          "ticks": 165360,
          "time": 135.986552,
          "velocity": 0.6456692913385826
        },
        {
          "duration": 0.19572326666664708,
          "durationTicks": 238,
          "midi": 37,
          "name": "C#2",
          "ticks": 165600,
          "time": 136.18392,
          "velocity": 0.8031496062992126
        },
        {
          "duration": 0.19572326666664708,
          "durationTicks": 238,
          "midi": 42,
          "name": "F#2",
          "ticks": 165600,
          "time": 136.18392,
          "velocity": 0.6456692913385826
        },
        {
          "duration": 0.09703926666668394,
          "durationTicks": 118,
          "midi": 42,
          "name": "F#2",
          "ticks": 165840,
          "time": 136.38128799999998,
          "velocity": 0.6456692913385826
        },
        {
          "duration": 0.09703926666665552,
          "durationTicks": 118,
          "midi": 37,
          "name": "C#2",
          "ticks": 165960,
          "time": 136.479972,
          "velocity": 0.8031496062992126
        },
        {
          "duration": 0.1957232666666755,
          "durationTicks": 238,
          "midi": 42,
          "name": "F#2",
          "ticks": 166080,
          "time": 136.578656,
          "velocity": 0.6456692913385826
        },
        {
          "duration": 0.1957232666666755,
          "durationTicks": 238,
          "midi": 42,
          "name": "F#2",
          "ticks": 166320,
          "time": 136.77602399999998,
          "velocity": 0.6456692913385826
        },
        {
          "duration": 0.1957232666666755,
          "durationTicks": 238,
          "midi": 37,
          "name": "C#2",
          "ticks": 166560,
          "time": 136.973392,
          "velocity": 0.8031496062992126
        },
        {
          "duration": 0.1957232666666755,
          "durationTicks": 238,
          "midi": 42,
          "name": "F#2",
          "ticks": 166560,
          "time": 136.973392,
          "velocity": 0.6456692913385826
        },
        {
          "duration": 0.09703926666665552,
          "durationTicks": 118,
          "midi": 42,
          "name": "F#2",
          "ticks": 166800,
          "time": 137.17076,
          "velocity": 0.6456692913385826
        },
        {
          "duration": 0.09703926666665552,
          "durationTicks": 118,
          "midi": 37,
          "name": "C#2",
          "ticks": 166920,
          "time": 137.269444,
          "velocity": 0.8031496062992126
        },
        {
          "duration": 0.1957232666666755,
          "durationTicks": 238,
          "midi": 35,
          "name": "B1",
          "ticks": 167040,
          "time": 137.36812799999998,
          "velocity": 0.8031496062992126
        },
        {
          "duration": 0.1957232666666755,
          "durationTicks": 238,
          "midi": 42,
          "name": "F#2",
          "ticks": 167040,
          "time": 137.36812799999998,
          "velocity": 0.6456692913385826
        },
        {
          "duration": 0.1957232666666755,
          "durationTicks": 238,
          "midi": 42,
          "name": "F#2",
          "ticks": 167280,
          "time": 137.565496,
          "velocity": 0.6456692913385826
        },
        {
          "duration": 0.1957232666666755,
          "durationTicks": 238,
          "midi": 37,
          "name": "C#2",
          "ticks": 167520,
          "time": 137.76286399999998,
          "velocity": 0.8031496062992126
        },
        {
          "duration": 0.1957232666666755,
          "durationTicks": 238,
          "midi": 42,
          "name": "F#2",
          "ticks": 167520,
          "time": 137.76286399999998,
          "velocity": 0.6456692913385826
        },
        {
          "duration": 0.09703926666665552,
          "durationTicks": 118,
          "midi": 42,
          "name": "F#2",
          "ticks": 167760,
          "time": 137.960232,
          "velocity": 0.6456692913385826
        },
        {
          "duration": 0.09703926666668394,
          "durationTicks": 118,
          "midi": 37,
          "name": "C#2",
          "ticks": 167880,
          "time": 138.05891599999998,
          "velocity": 0.8031496062992126
        },
        {
          "duration": 0.19572326666664708,
          "durationTicks": 238,
          "midi": 42,
          "name": "F#2",
          "ticks": 168000,
          "time": 138.1576,
          "velocity": 0.6456692913385826
        },
        {
          "duration": 0.1957232666666755,
          "durationTicks": 238,
          "midi": 42,
          "name": "F#2",
          "ticks": 168240,
          "time": 138.35496799999999,
          "velocity": 0.6456692913385826
        },
        {
          "duration": 0.1957232666666755,
          "durationTicks": 238,
          "midi": 37,
          "name": "C#2",
          "ticks": 168480,
          "time": 138.552336,
          "velocity": 0.8031496062992126
        },
        {
          "duration": 0.1957232666666755,
          "durationTicks": 238,
          "midi": 42,
          "name": "F#2",
          "ticks": 168480,
          "time": 138.552336,
          "velocity": 0.6456692913385826
        },
        {
          "duration": 0.09703926666668394,
          "durationTicks": 118,
          "midi": 42,
          "name": "F#2",
          "ticks": 168720,
          "time": 138.74970399999998,
          "velocity": 0.6456692913385826
        },
        {
          "duration": 0.09703926666665552,
          "durationTicks": 118,
          "midi": 37,
          "name": "C#2",
          "ticks": 168840,
          "time": 138.848388,
          "velocity": 0.8031496062992126
        },
        {
          "duration": 0.1957232666666755,
          "durationTicks": 238,
          "midi": 42,
          "name": "F#2",
          "ticks": 168960,
          "time": 138.947072,
          "velocity": 0.6456692913385826
        },
        {
          "duration": 0.19572326666664708,
          "durationTicks": 238,
          "midi": 42,
          "name": "F#2",
          "ticks": 169200,
          "time": 139.14444,
          "velocity": 0.6456692913385826
        },
        {
          "duration": 0.1957232666666755,
          "durationTicks": 238,
          "midi": 37,
          "name": "C#2",
          "ticks": 169440,
          "time": 139.341808,
          "velocity": 0.8031496062992126
        },
        {
          "duration": 0.1957232666666755,
          "durationTicks": 238,
          "midi": 42,
          "name": "F#2",
          "ticks": 169440,
          "time": 139.341808,
          "velocity": 0.6456692913385826
        },
        {
          "duration": 0.09703926666665552,
          "durationTicks": 118,
          "midi": 42,
          "name": "F#2",
          "ticks": 169680,
          "time": 139.539176,
          "velocity": 0.6456692913385826
        },
        {
          "duration": 0.09703926666668394,
          "durationTicks": 118,
          "midi": 37,
          "name": "C#2",
          "ticks": 169800,
          "time": 139.63786,
          "velocity": 0.8031496062992126
        },
        {
          "duration": 0.1957232666666755,
          "durationTicks": 238,
          "midi": 42,
          "name": "F#2",
          "ticks": 169920,
          "time": 139.73654399999998,
          "velocity": 0.6456692913385826
        },
        {
          "duration": 0.1957232666666755,
          "durationTicks": 238,
          "midi": 42,
          "name": "F#2",
          "ticks": 170160,
          "time": 139.933912,
          "velocity": 0.6456692913385826
        },
        {
          "duration": 0.19572326666664708,
          "durationTicks": 238,
          "midi": 37,
          "name": "C#2",
          "ticks": 170400,
          "time": 140.13128,
          "velocity": 0.8031496062992126
        },
        {
          "duration": 0.19572326666664708,
          "durationTicks": 238,
          "midi": 42,
          "name": "F#2",
          "ticks": 170400,
          "time": 140.13128,
          "velocity": 0.6456692913385826
        },
        {
          "duration": 0.09703926666668394,
          "durationTicks": 118,
          "midi": 42,
          "name": "F#2",
          "ticks": 170640,
          "time": 140.328648,
          "velocity": 0.6456692913385826
        },
        {
          "duration": 0.09703926666668394,
          "durationTicks": 118,
          "midi": 37,
          "name": "C#2",
          "ticks": 170760,
          "time": 140.42733199999998,
          "velocity": 0.8031496062992126
        },
        {
          "duration": 0.19572326666664708,
          "durationTicks": 238,
          "midi": 35,
          "name": "B1",
          "ticks": 170880,
          "time": 140.526016,
          "velocity": 0.8031496062992126
        },
        {
          "duration": 0.19572326666664708,
          "durationTicks": 238,
          "midi": 42,
          "name": "F#2",
          "ticks": 170880,
          "time": 140.526016,
          "velocity": 0.6456692913385826
        },
        {
          "duration": 0.1957232666666755,
          "durationTicks": 238,
          "midi": 35,
          "name": "B1",
          "ticks": 171120,
          "time": 140.72338399999998,
          "velocity": 0.8031496062992126
        },
        {
          "duration": 0.1957232666666755,
          "durationTicks": 238,
          "midi": 42,
          "name": "F#2",
          "ticks": 171120,
          "time": 140.72338399999998,
          "velocity": 0.6456692913385826
        },
        {
          "duration": 0.1957232666666755,
          "durationTicks": 238,
          "midi": 37,
          "name": "C#2",
          "ticks": 171360,
          "time": 140.920752,
          "velocity": 0.8031496062992126
        },
        {
          "duration": 0.1957232666666755,
          "durationTicks": 238,
          "midi": 42,
          "name": "F#2",
          "ticks": 171360,
          "time": 140.920752,
          "velocity": 0.6456692913385826
        },
        {
          "duration": 0.09703926666665552,
          "durationTicks": 118,
          "midi": 42,
          "name": "F#2",
          "ticks": 171600,
          "time": 141.11812,
          "velocity": 0.6456692913385826
        },
        {
          "duration": 0.09703926666665552,
          "durationTicks": 118,
          "midi": 37,
          "name": "C#2",
          "ticks": 171720,
          "time": 141.216804,
          "velocity": 0.8031496062992126
        },
        {
          "duration": 0.1957232666666755,
          "durationTicks": 238,
          "midi": 42,
          "name": "F#2",
          "ticks": 171840,
          "time": 141.315488,
          "velocity": 0.6456692913385826
        },
        {
          "duration": 0.19572326666664708,
          "durationTicks": 238,
          "midi": 42,
          "name": "F#2",
          "ticks": 172080,
          "time": 141.512856,
          "velocity": 0.6456692913385826
        },
        {
          "duration": 0.1957232666666755,
          "durationTicks": 238,
          "midi": 37,
          "name": "C#2",
          "ticks": 172320,
          "time": 141.71022399999998,
          "velocity": 0.8031496062992126
        },
        {
          "duration": 0.1957232666666755,
          "durationTicks": 238,
          "midi": 42,
          "name": "F#2",
          "ticks": 172320,
          "time": 141.71022399999998,
          "velocity": 0.6456692913385826
        },
        {
          "duration": 0.09703926666665552,
          "durationTicks": 118,
          "midi": 42,
          "name": "F#2",
          "ticks": 172560,
          "time": 141.907592,
          "velocity": 0.6456692913385826
        },
        {
          "duration": 0.09703926666668394,
          "durationTicks": 118,
          "midi": 37,
          "name": "C#2",
          "ticks": 172680,
          "time": 142.00627599999999,
          "velocity": 0.8031496062992126
        },
        {
          "duration": 0.19572326666664708,
          "durationTicks": 238,
          "midi": 42,
          "name": "F#2",
          "ticks": 172800,
          "time": 142.10496,
          "velocity": 0.6456692913385826
        },
        {
          "duration": 0.1957232666666755,
          "durationTicks": 238,
          "midi": 42,
          "name": "F#2",
          "ticks": 173040,
          "time": 142.302328,
          "velocity": 0.6456692913385826
        },
        {
          "duration": 0.19572326666664708,
          "durationTicks": 238,
          "midi": 37,
          "name": "C#2",
          "ticks": 173280,
          "time": 142.499696,
          "velocity": 0.8031496062992126
        },
        {
          "duration": 0.19572326666664708,
          "durationTicks": 238,
          "midi": 42,
          "name": "F#2",
          "ticks": 173280,
          "time": 142.499696,
          "velocity": 0.6456692913385826
        },
        {
          "duration": 0.09703926666668394,
          "durationTicks": 118,
          "midi": 42,
          "name": "F#2",
          "ticks": 173520,
          "time": 142.69706399999998,
          "velocity": 0.6456692913385826
        },
        {
          "duration": 0.09703926666665552,
          "durationTicks": 118,
          "midi": 37,
          "name": "C#2",
          "ticks": 173640,
          "time": 142.795748,
          "velocity": 0.8031496062992126
        },
        {
          "duration": 0.1957232666666755,
          "durationTicks": 238,
          "midi": 42,
          "name": "F#2",
          "ticks": 173760,
          "time": 142.894432,
          "velocity": 0.6456692913385826
        },
        {
          "duration": 0.1957232666666755,
          "durationTicks": 238,
          "midi": 42,
          "name": "F#2",
          "ticks": 174000,
          "time": 143.09179999999998,
          "velocity": 0.6456692913385826
        },
        {
          "duration": 0.1957232666666755,
          "durationTicks": 238,
          "midi": 37,
          "name": "C#2",
          "ticks": 174240,
          "time": 143.289168,
          "velocity": 0.8031496062992126
        },
        {
          "duration": 0.1957232666666755,
          "durationTicks": 238,
          "midi": 42,
          "name": "F#2",
          "ticks": 174240,
          "time": 143.289168,
          "velocity": 0.6456692913385826
        },
        {
          "duration": 0.09703926666665552,
          "durationTicks": 118,
          "midi": 42,
          "name": "F#2",
          "ticks": 174480,
          "time": 143.486536,
          "velocity": 0.6456692913385826
        },
        {
          "duration": 0.09703926666665552,
          "durationTicks": 118,
          "midi": 37,
          "name": "C#2",
          "ticks": 174600,
          "time": 143.58522,
          "velocity": 0.8031496062992126
        },
        {
          "duration": 0.1957232666666755,
          "durationTicks": 238,
          "midi": 35,
          "name": "B1",
          "ticks": 174720,
          "time": 143.68390399999998,
          "velocity": 0.8031496062992126
        },
        {
          "duration": 0.1957232666666755,
          "durationTicks": 238,
          "midi": 42,
          "name": "F#2",
          "ticks": 174720,
          "time": 143.68390399999998,
          "velocity": 0.6456692913385826
        },
        {
          "duration": 0.1957232666666755,
          "durationTicks": 238,
          "midi": 42,
          "name": "F#2",
          "ticks": 174960,
          "time": 143.881272,
          "velocity": 0.6456692913385826
        },
        {
          "duration": 0.1957232666666755,
          "durationTicks": 238,
          "midi": 37,
          "name": "C#2",
          "ticks": 175200,
          "time": 144.07863999999998,
          "velocity": 0.8031496062992126
        },
        {
          "duration": 0.1957232666666755,
          "durationTicks": 238,
          "midi": 42,
          "name": "F#2",
          "ticks": 175200,
          "time": 144.07863999999998,
          "velocity": 0.6456692913385826
        },
        {
          "duration": 0.09703926666665552,
          "durationTicks": 118,
          "midi": 42,
          "name": "F#2",
          "ticks": 175440,
          "time": 144.276008,
          "velocity": 0.6456692913385826
        },
        {
          "duration": 0.09703926666668394,
          "durationTicks": 118,
          "midi": 37,
          "name": "C#2",
          "ticks": 175560,
          "time": 144.37469199999998,
          "velocity": 0.8031496062992126
        },
        {
          "duration": 0.19572326666664708,
          "durationTicks": 238,
          "midi": 42,
          "name": "F#2",
          "ticks": 175680,
          "time": 144.473376,
          "velocity": 0.6456692913385826
        },
        {
          "duration": 0.1957232666666755,
          "durationTicks": 238,
          "midi": 42,
          "name": "F#2",
          "ticks": 175920,
          "time": 144.67074399999998,
          "velocity": 0.6456692913385826
        },
        {
          "duration": 0.1957232666666755,
          "durationTicks": 238,
          "midi": 37,
          "name": "C#2",
          "ticks": 176160,
          "time": 144.868112,
          "velocity": 0.8031496062992126
        },
        {
          "duration": 0.1957232666666755,
          "durationTicks": 238,
          "midi": 42,
          "name": "F#2",
          "ticks": 176160,
          "time": 144.868112,
          "velocity": 0.6456692913385826
        },
        {
          "duration": 0.09703926666668394,
          "durationTicks": 118,
          "midi": 42,
          "name": "F#2",
          "ticks": 176400,
          "time": 145.06547999999998,
          "velocity": 0.6456692913385826
        },
        {
          "duration": 0.09703926666665552,
          "durationTicks": 118,
          "midi": 37,
          "name": "C#2",
          "ticks": 176520,
          "time": 145.164164,
          "velocity": 0.8031496062992126
        },
        {
          "duration": 0.1957232666666755,
          "durationTicks": 238,
          "midi": 42,
          "name": "F#2",
          "ticks": 176640,
          "time": 145.262848,
          "velocity": 0.6456692913385826
        },
        {
          "duration": 0.19572326666664708,
          "durationTicks": 238,
          "midi": 42,
          "name": "F#2",
          "ticks": 176880,
          "time": 145.460216,
          "velocity": 0.6456692913385826
        },
        {
          "duration": 0.1957232666666755,
          "durationTicks": 238,
          "midi": 37,
          "name": "C#2",
          "ticks": 177120,
          "time": 145.65758399999999,
          "velocity": 0.8031496062992126
        },
        {
          "duration": 0.1957232666666755,
          "durationTicks": 238,
          "midi": 42,
          "name": "F#2",
          "ticks": 177120,
          "time": 145.65758399999999,
          "velocity": 0.6456692913385826
        },
        {
          "duration": 0.09703926666665552,
          "durationTicks": 118,
          "midi": 42,
          "name": "F#2",
          "ticks": 177360,
          "time": 145.854952,
          "velocity": 0.6456692913385826
        },
        {
          "duration": 0.09703926666668394,
          "durationTicks": 118,
          "midi": 37,
          "name": "C#2",
          "ticks": 177480,
          "time": 145.953636,
          "velocity": 0.8031496062992126
        },
        {
          "duration": 0.1957232666666755,
          "durationTicks": 238,
          "midi": 42,
          "name": "F#2",
          "ticks": 177600,
          "time": 146.05231999999998,
          "velocity": 0.6456692913385826
        },
        {
          "duration": 0.1957232666666755,
          "durationTicks": 238,
          "midi": 42,
          "name": "F#2",
          "ticks": 177840,
          "time": 146.249688,
          "velocity": 0.6456692913385826
        },
        {
          "duration": 0.19572326666664708,
          "durationTicks": 238,
          "midi": 37,
          "name": "C#2",
          "ticks": 178080,
          "time": 146.447056,
          "velocity": 0.8031496062992126
        },
        {
          "duration": 0.19572326666664708,
          "durationTicks": 238,
          "midi": 42,
          "name": "F#2",
          "ticks": 178080,
          "time": 146.447056,
          "velocity": 0.6456692913385826
        },
        {
          "duration": 0.09703926666668394,
          "durationTicks": 118,
          "midi": 42,
          "name": "F#2",
          "ticks": 178320,
          "time": 146.644424,
          "velocity": 0.6456692913385826
        },
        {
          "duration": 0.09703926666668394,
          "durationTicks": 118,
          "midi": 37,
          "name": "C#2",
          "ticks": 178440,
          "time": 146.74310799999998,
          "velocity": 0.8031496062992126
        },
        {
          "duration": 0.19572326666664708,
          "durationTicks": 238,
          "midi": 35,
          "name": "B1",
          "ticks": 178560,
          "time": 146.841792,
          "velocity": 0.8031496062992126
        },
        {
          "duration": 0.19572326666664708,
          "durationTicks": 238,
          "midi": 42,
          "name": "F#2",
          "ticks": 178560,
          "time": 146.841792,
          "velocity": 0.6456692913385826
        },
        {
          "duration": 0.1957232666666755,
          "durationTicks": 238,
          "midi": 35,
          "name": "B1",
          "ticks": 178800,
          "time": 147.03915999999998,
          "velocity": 0.8031496062992126
        },
        {
          "duration": 0.1957232666666755,
          "durationTicks": 238,
          "midi": 42,
          "name": "F#2",
          "ticks": 178800,
          "time": 147.03915999999998,
          "velocity": 0.6456692913385826
        },
        {
          "duration": 0.1957232666666755,
          "durationTicks": 238,
          "midi": 37,
          "name": "C#2",
          "ticks": 179040,
          "time": 147.236528,
          "velocity": 0.8031496062992126
        },
        {
          "duration": 0.1957232666666755,
          "durationTicks": 238,
          "midi": 42,
          "name": "F#2",
          "ticks": 179040,
          "time": 147.236528,
          "velocity": 0.6456692913385826
        },
        {
          "duration": 0.09703926666665552,
          "durationTicks": 118,
          "midi": 42,
          "name": "F#2",
          "ticks": 179280,
          "time": 147.433896,
          "velocity": 0.6456692913385826
        },
        {
          "duration": 0.09703926666665552,
          "durationTicks": 118,
          "midi": 37,
          "name": "C#2",
          "ticks": 179400,
          "time": 147.53258,
          "velocity": 0.8031496062992126
        },
        {
          "duration": 0.1957232666666755,
          "durationTicks": 238,
          "midi": 42,
          "name": "F#2",
          "ticks": 179520,
          "time": 147.631264,
          "velocity": 0.6456692913385826
        },
        {
          "duration": 0.19572326666664708,
          "durationTicks": 238,
          "midi": 42,
          "name": "F#2",
          "ticks": 179760,
          "time": 147.828632,
          "velocity": 0.6456692913385826
        },
        {
          "duration": 0.1957232666666755,
          "durationTicks": 238,
          "midi": 37,
          "name": "C#2",
          "ticks": 180000,
          "time": 148.02599999999998,
          "velocity": 0.8031496062992126
        },
        {
          "duration": 0.1957232666666755,
          "durationTicks": 238,
          "midi": 42,
          "name": "F#2",
          "ticks": 180000,
          "time": 148.02599999999998,
          "velocity": 0.6456692913385826
        },
        {
          "duration": 0.09703926666665552,
          "durationTicks": 118,
          "midi": 42,
          "name": "F#2",
          "ticks": 180240,
          "time": 148.223368,
          "velocity": 0.6456692913385826
        },
        {
          "duration": 0.09703926666668394,
          "durationTicks": 118,
          "midi": 37,
          "name": "C#2",
          "ticks": 180360,
          "time": 148.32205199999999,
          "velocity": 0.8031496062992126
        },
        {
          "duration": 0.1957232666666755,
          "durationTicks": 238,
          "midi": 42,
          "name": "F#2",
          "ticks": 180480,
          "time": 148.42073599999998,
          "velocity": 0.6456692913385826
        },
        {
          "duration": 0.1957232666666755,
          "durationTicks": 238,
          "midi": 42,
          "name": "F#2",
          "ticks": 180720,
          "time": 148.618104,
          "velocity": 0.6456692913385826
        },
        {
          "duration": 0.19572326666664708,
          "durationTicks": 238,
          "midi": 37,
          "name": "C#2",
          "ticks": 180960,
          "time": 148.815472,
          "velocity": 0.8031496062992126
        },
        {
          "duration": 0.19572326666664708,
          "durationTicks": 238,
          "midi": 42,
          "name": "F#2",
          "ticks": 180960,
          "time": 148.815472,
          "velocity": 0.6456692913385826
        },
        {
          "duration": 0.09703926666668394,
          "durationTicks": 118,
          "midi": 42,
          "name": "F#2",
          "ticks": 181200,
          "time": 149.01283999999998,
          "velocity": 0.6456692913385826
        },
        {
          "duration": 0.09703926666665552,
          "durationTicks": 118,
          "midi": 37,
          "name": "C#2",
          "ticks": 181320,
          "time": 149.111524,
          "velocity": 0.8031496062992126
        },
        {
          "duration": 0.1957232666666755,
          "durationTicks": 238,
          "midi": 42,
          "name": "F#2",
          "ticks": 181440,
          "time": 149.210208,
          "velocity": 0.6456692913385826
        },
        {
          "duration": 0.1957232666666755,
          "durationTicks": 238,
          "midi": 42,
          "name": "F#2",
          "ticks": 181680,
          "time": 149.40757599999998,
          "velocity": 0.6456692913385826
        },
        {
          "duration": 0.1957232666666755,
          "durationTicks": 238,
          "midi": 37,
          "name": "C#2",
          "ticks": 181920,
          "time": 149.604944,
          "velocity": 0.8031496062992126
        },
        {
          "duration": 0.1957232666666755,
          "durationTicks": 238,
          "midi": 42,
          "name": "F#2",
          "ticks": 181920,
          "time": 149.604944,
          "velocity": 0.6456692913385826
        },
        {
          "duration": 0.09703926666665552,
          "durationTicks": 118,
          "midi": 42,
          "name": "F#2",
          "ticks": 182160,
          "time": 149.802312,
          "velocity": 0.6456692913385826
        },
        {
          "duration": 0.09703926666665552,
          "durationTicks": 118,
          "midi": 37,
          "name": "C#2",
          "ticks": 182280,
          "time": 149.900996,
          "velocity": 0.8031496062992126
        },
        {
          "duration": 0.1957232666666755,
          "durationTicks": 238,
          "midi": 35,
          "name": "B1",
          "ticks": 182400,
          "time": 149.99967999999998,
          "velocity": 0.8031496062992126
        },
        {
          "duration": 0.1957232666666755,
          "durationTicks": 238,
          "midi": 42,
          "name": "F#2",
          "ticks": 182400,
          "time": 149.99967999999998,
          "velocity": 0.6456692913385826
        },
        {
          "duration": 0.1957232666666755,
          "durationTicks": 238,
          "midi": 42,
          "name": "F#2",
          "ticks": 182640,
          "time": 150.197048,
          "velocity": 0.6456692913385826
        },
        {
          "duration": 0.1957232666666755,
          "durationTicks": 238,
          "midi": 37,
          "name": "C#2",
          "ticks": 182880,
          "time": 150.39441599999998,
          "velocity": 0.8031496062992126
        },
        {
          "duration": 0.1957232666666755,
          "durationTicks": 238,
          "midi": 42,
          "name": "F#2",
          "ticks": 182880,
          "time": 150.39441599999998,
          "velocity": 0.6456692913385826
        },
        {
          "duration": 0.09703926666665552,
          "durationTicks": 118,
          "midi": 42,
          "name": "F#2",
          "ticks": 183120,
          "time": 150.591784,
          "velocity": 0.6456692913385826
        },
        {
          "duration": 0.09703926666668394,
          "durationTicks": 118,
          "midi": 37,
          "name": "C#2",
          "ticks": 183240,
          "time": 150.69046799999998,
          "velocity": 0.8031496062992126
        },
        {
          "duration": 0.19572326666664708,
          "durationTicks": 238,
          "midi": 42,
          "name": "F#2",
          "ticks": 183360,
          "time": 150.789152,
          "velocity": 0.6456692913385826
        },
        {
          "duration": 0.1957232666666755,
          "durationTicks": 238,
          "midi": 42,
          "name": "F#2",
          "ticks": 183600,
          "time": 150.98651999999998,
          "velocity": 0.6456692913385826
        },
        {
          "duration": 0.1957232666666755,
          "durationTicks": 238,
          "midi": 37,
          "name": "C#2",
          "ticks": 183840,
          "time": 151.183888,
          "velocity": 0.8031496062992126
        },
        {
          "duration": 0.1957232666666755,
          "durationTicks": 238,
          "midi": 42,
          "name": "F#2",
          "ticks": 183840,
          "time": 151.183888,
          "velocity": 0.6456692913385826
        },
        {
          "duration": 0.09703926666668394,
          "durationTicks": 118,
          "midi": 42,
          "name": "F#2",
          "ticks": 184080,
          "time": 151.38125599999998,
          "velocity": 0.6456692913385826
        },
        {
          "duration": 0.09703926666665552,
          "durationTicks": 118,
          "midi": 37,
          "name": "C#2",
          "ticks": 184200,
          "time": 151.47994,
          "velocity": 0.8031496062992126
        },
        {
          "duration": 0.1957232666666755,
          "durationTicks": 238,
          "midi": 42,
          "name": "F#2",
          "ticks": 184320,
          "time": 151.578624,
          "velocity": 0.6456692913385826
        },
        {
          "duration": 0.19572326666664708,
          "durationTicks": 238,
          "midi": 42,
          "name": "F#2",
          "ticks": 184560,
          "time": 151.775992,
          "velocity": 0.6456692913385826
        },
        {
          "duration": 0.1957232666666755,
          "durationTicks": 238,
          "midi": 37,
          "name": "C#2",
          "ticks": 184800,
          "time": 151.97335999999999,
          "velocity": 0.8031496062992126
        },
        {
          "duration": 0.1957232666666755,
          "durationTicks": 238,
          "midi": 42,
          "name": "F#2",
          "ticks": 184800,
          "time": 151.97335999999999,
          "velocity": 0.6456692913385826
        },
        {
          "duration": 0.09703926666665552,
          "durationTicks": 118,
          "midi": 42,
          "name": "F#2",
          "ticks": 185040,
          "time": 152.170728,
          "velocity": 0.6456692913385826
        },
        {
          "duration": 0.09703926666668394,
          "durationTicks": 118,
          "midi": 37,
          "name": "C#2",
          "ticks": 185160,
          "time": 152.269412,
          "velocity": 0.8031496062992126
        },
        {
          "duration": 0.1957232666666755,
          "durationTicks": 238,
          "midi": 42,
          "name": "F#2",
          "ticks": 185280,
          "time": 152.36809599999998,
          "velocity": 0.6456692913385826
        },
        {
          "duration": 0.1957232666666755,
          "durationTicks": 238,
          "midi": 42,
          "name": "F#2",
          "ticks": 185520,
          "time": 152.565464,
          "velocity": 0.6456692913385826
        },
        {
          "duration": 0.19572326666664708,
          "durationTicks": 238,
          "midi": 37,
          "name": "C#2",
          "ticks": 185760,
          "time": 152.762832,
          "velocity": 0.8031496062992126
        },
        {
          "duration": 0.19572326666664708,
          "durationTicks": 238,
          "midi": 42,
          "name": "F#2",
          "ticks": 185760,
          "time": 152.762832,
          "velocity": 0.6456692913385826
        },
        {
          "duration": 0.09703926666668394,
          "durationTicks": 118,
          "midi": 42,
          "name": "F#2",
          "ticks": 186000,
          "time": 152.9602,
          "velocity": 0.6456692913385826
        },
        {
          "duration": 0.09703926666668394,
          "durationTicks": 118,
          "midi": 37,
          "name": "C#2",
          "ticks": 186120,
          "time": 153.05888399999998,
          "velocity": 0.8031496062992126
        },
        {
          "duration": 0.19572326666664708,
          "durationTicks": 238,
          "midi": 35,
          "name": "B1",
          "ticks": 186240,
          "time": 153.157568,
          "velocity": 0.8031496062992126
        },
        {
          "duration": 0.19572326666664708,
          "durationTicks": 238,
          "midi": 42,
          "name": "F#2",
          "ticks": 186240,
          "time": 153.157568,
          "velocity": 0.6456692913385826
        },
        {
          "duration": 0.1957232666666755,
          "durationTicks": 238,
          "midi": 35,
          "name": "B1",
          "ticks": 186480,
          "time": 153.35493599999998,
          "velocity": 0.8031496062992126
        },
        {
          "duration": 0.1957232666666755,
          "durationTicks": 238,
          "midi": 42,
          "name": "F#2",
          "ticks": 186480,
          "time": 153.35493599999998,
          "velocity": 0.6456692913385826
        },
        {
          "duration": 0.1957232666666755,
          "durationTicks": 238,
          "midi": 37,
          "name": "C#2",
          "ticks": 186720,
          "time": 153.552304,
          "velocity": 0.8031496062992126
        },
        {
          "duration": 0.1957232666666755,
          "durationTicks": 238,
          "midi": 42,
          "name": "F#2",
          "ticks": 186720,
          "time": 153.552304,
          "velocity": 0.6456692913385826
        },
        {
          "duration": 0.09703926666665552,
          "durationTicks": 118,
          "midi": 42,
          "name": "F#2",
          "ticks": 186960,
          "time": 153.749672,
          "velocity": 0.6456692913385826
        },
        {
          "duration": 0.09703926666665552,
          "durationTicks": 118,
          "midi": 37,
          "name": "C#2",
          "ticks": 187080,
          "time": 153.848356,
          "velocity": 0.8031496062992126
        },
        {
          "duration": 0.1957232666666755,
          "durationTicks": 238,
          "midi": 42,
          "name": "F#2",
          "ticks": 187200,
          "time": 153.94704,
          "velocity": 0.6456692913385826
        },
        {
          "duration": 0.19572326666664708,
          "durationTicks": 238,
          "midi": 42,
          "name": "F#2",
          "ticks": 187440,
          "time": 154.144408,
          "velocity": 0.6456692913385826
        },
        {
          "duration": 0.1957232666666755,
          "durationTicks": 238,
          "midi": 37,
          "name": "C#2",
          "ticks": 187680,
          "time": 154.34177599999998,
          "velocity": 0.8031496062992126
        },
        {
          "duration": 0.1957232666666755,
          "durationTicks": 238,
          "midi": 42,
          "name": "F#2",
          "ticks": 187680,
          "time": 154.34177599999998,
          "velocity": 0.6456692913385826
        },
        {
          "duration": 0.09703926666665552,
          "durationTicks": 118,
          "midi": 42,
          "name": "F#2",
          "ticks": 187920,
          "time": 154.539144,
          "velocity": 0.6456692913385826
        },
        {
          "duration": 0.09703926666668394,
          "durationTicks": 118,
          "midi": 37,
          "name": "C#2",
          "ticks": 188040,
          "time": 154.63782799999998,
          "velocity": 0.8031496062992126
        },
        {
          "duration": 0.19572326666664708,
          "durationTicks": 238,
          "midi": 42,
          "name": "F#2",
          "ticks": 188160,
          "time": 154.736512,
          "velocity": 0.6456692913385826
        },
        {
          "duration": 0.1957232666666755,
          "durationTicks": 238,
          "midi": 42,
          "name": "F#2",
          "ticks": 188400,
          "time": 154.93388,
          "velocity": 0.6456692913385826
        },
        {
          "duration": 0.19572326666664708,
          "durationTicks": 238,
          "midi": 37,
          "name": "C#2",
          "ticks": 188640,
          "time": 155.131248,
          "velocity": 0.8031496062992126
        },
        {
          "duration": 0.19572326666664708,
          "durationTicks": 238,
          "midi": 42,
          "name": "F#2",
          "ticks": 188640,
          "time": 155.131248,
          "velocity": 0.6456692913385826
        },
        {
          "duration": 0.09703926666668394,
          "durationTicks": 118,
          "midi": 42,
          "name": "F#2",
          "ticks": 188880,
          "time": 155.32861599999998,
          "velocity": 0.6456692913385826
        },
        {
          "duration": 0.09703926666665552,
          "durationTicks": 118,
          "midi": 37,
          "name": "C#2",
          "ticks": 189000,
          "time": 155.4273,
          "velocity": 0.8031496062992126
        },
        {
          "duration": 0.1957232666666755,
          "durationTicks": 238,
          "midi": 42,
          "name": "F#2",
          "ticks": 189120,
          "time": 155.525984,
          "velocity": 0.6456692913385826
        },
        {
          "duration": 0.1957232666666755,
          "durationTicks": 238,
          "midi": 42,
          "name": "F#2",
          "ticks": 189360,
          "time": 155.72335199999998,
          "velocity": 0.6456692913385826
        },
        {
          "duration": 0.1957232666666755,
          "durationTicks": 238,
          "midi": 37,
          "name": "C#2",
          "ticks": 189600,
          "time": 155.92072,
          "velocity": 0.8031496062992126
        },
        {
          "duration": 0.1957232666666755,
          "durationTicks": 238,
          "midi": 42,
          "name": "F#2",
          "ticks": 189600,
          "time": 155.92072,
          "velocity": 0.6456692913385826
        },
        {
          "duration": 0.09703926666665552,
          "durationTicks": 118,
          "midi": 42,
          "name": "F#2",
          "ticks": 189840,
          "time": 156.118088,
          "velocity": 0.6456692913385826
        },
        {
          "duration": 0.09703926666665552,
          "durationTicks": 118,
          "midi": 37,
          "name": "C#2",
          "ticks": 189960,
          "time": 156.216772,
          "velocity": 0.8031496062992126
        },
        {
          "duration": 0.1957232666666755,
          "durationTicks": 238,
          "midi": 35,
          "name": "B1",
          "ticks": 190080,
          "time": 156.31545599999998,
          "velocity": 0.8031496062992126
        },
        {
          "duration": 0.1957232666666755,
          "durationTicks": 238,
          "midi": 42,
          "name": "F#2",
          "ticks": 190080,
          "time": 156.31545599999998,
          "velocity": 0.6456692913385826
        },
        {
          "duration": 0.1957232666666755,
          "durationTicks": 238,
          "midi": 42,
          "name": "F#2",
          "ticks": 190320,
          "time": 156.512824,
          "velocity": 0.6456692913385826
        },
        {
          "duration": 0.1957232666666755,
          "durationTicks": 238,
          "midi": 37,
          "name": "C#2",
          "ticks": 190560,
          "time": 156.71019199999998,
          "velocity": 0.8031496062992126
        },
        {
          "duration": 0.1957232666666755,
          "durationTicks": 238,
          "midi": 42,
          "name": "F#2",
          "ticks": 190560,
          "time": 156.71019199999998,
          "velocity": 0.6456692913385826
        },
        {
          "duration": 0.09703926666665552,
          "durationTicks": 118,
          "midi": 42,
          "name": "F#2",
          "ticks": 190800,
          "time": 156.90756,
          "velocity": 0.6456692913385826
        },
        {
          "duration": 0.09703926666668394,
          "durationTicks": 118,
          "midi": 37,
          "name": "C#2",
          "ticks": 190920,
          "time": 157.00624399999998,
          "velocity": 0.8031496062992126
        },
        {
          "duration": 0.19572326666664708,
          "durationTicks": 238,
          "midi": 42,
          "name": "F#2",
          "ticks": 191040,
          "time": 157.104928,
          "velocity": 0.6456692913385826
        },
        {
          "duration": 0.1957232666666755,
          "durationTicks": 238,
          "midi": 42,
          "name": "F#2",
          "ticks": 191280,
          "time": 157.30229599999998,
          "velocity": 0.6456692913385826
        },
        {
          "duration": 0.1957232666666755,
          "durationTicks": 238,
          "midi": 37,
          "name": "C#2",
          "ticks": 191520,
          "time": 157.499664,
          "velocity": 0.8031496062992126
        },
        {
          "duration": 0.1957232666666755,
          "durationTicks": 238,
          "midi": 42,
          "name": "F#2",
          "ticks": 191520,
          "time": 157.499664,
          "velocity": 0.6456692913385826
        },
        {
          "duration": 0.09703926666668394,
          "durationTicks": 118,
          "midi": 42,
          "name": "F#2",
          "ticks": 191760,
          "time": 157.69703199999998,
          "velocity": 0.6456692913385826
        },
        {
          "duration": 0.09703926666665552,
          "durationTicks": 118,
          "midi": 37,
          "name": "C#2",
          "ticks": 191880,
          "time": 157.795716,
          "velocity": 0.8031496062992126
        },
        {
          "duration": 0.1957232666666755,
          "durationTicks": 238,
          "midi": 42,
          "name": "F#2",
          "ticks": 192000,
          "time": 157.8944,
          "velocity": 0.6456692913385826
        },
        {
          "duration": 0.19572326666664708,
          "durationTicks": 238,
          "midi": 42,
          "name": "F#2",
          "ticks": 192240,
          "time": 158.091768,
          "velocity": 0.6456692913385826
        },
        {
          "duration": 0.1957232666666755,
          "durationTicks": 238,
          "midi": 37,
          "name": "C#2",
          "ticks": 192480,
          "time": 158.28913599999998,
          "velocity": 0.8031496062992126
        },
        {
          "duration": 0.1957232666666755,
          "durationTicks": 238,
          "midi": 42,
          "name": "F#2",
          "ticks": 192480,
          "time": 158.28913599999998,
          "velocity": 0.6456692913385826
        },
        {
          "duration": 0.09703926666665552,
          "durationTicks": 118,
          "midi": 42,
          "name": "F#2",
          "ticks": 192720,
          "time": 158.486504,
          "velocity": 0.6456692913385826
        },
        {
          "duration": 0.09703926666668394,
          "durationTicks": 118,
          "midi": 37,
          "name": "C#2",
          "ticks": 192840,
          "time": 158.585188,
          "velocity": 0.8031496062992126
        },
        {
          "duration": 0.1957232666666755,
          "durationTicks": 238,
          "midi": 42,
          "name": "F#2",
          "ticks": 192960,
          "time": 158.68387199999998,
          "velocity": 0.6456692913385826
        },
        {
          "duration": 0.1957232666666755,
          "durationTicks": 238,
          "midi": 42,
          "name": "F#2",
          "ticks": 193200,
          "time": 158.88124,
          "velocity": 0.6456692913385826
        },
        {
          "duration": 0.19572326666664708,
          "durationTicks": 238,
          "midi": 37,
          "name": "C#2",
          "ticks": 193440,
          "time": 159.078608,
          "velocity": 0.8031496062992126
        },
        {
          "duration": 0.19572326666664708,
          "durationTicks": 238,
          "midi": 42,
          "name": "F#2",
          "ticks": 193440,
          "time": 159.078608,
          "velocity": 0.6456692913385826
        },
        {
          "duration": 0.09703926666668394,
          "durationTicks": 118,
          "midi": 42,
          "name": "F#2",
          "ticks": 193680,
          "time": 159.27597599999999,
          "velocity": 0.6456692913385826
        },
        {
          "duration": 0.09703926666668394,
          "durationTicks": 118,
          "midi": 37,
          "name": "C#2",
          "ticks": 193800,
          "time": 159.37465999999998,
          "velocity": 0.8031496062992126
        },
        {
          "duration": 0.19572326666664708,
          "durationTicks": 238,
          "midi": 35,
          "name": "B1",
          "ticks": 193920,
          "time": 159.473344,
          "velocity": 0.8031496062992126
        },
        {
          "duration": 0.19572326666664708,
          "durationTicks": 238,
          "midi": 42,
          "name": "F#2",
          "ticks": 193920,
          "time": 159.473344,
          "velocity": 0.6456692913385826
        },
        {
          "duration": 0.1957232666666755,
          "durationTicks": 238,
          "midi": 35,
          "name": "B1",
          "ticks": 194160,
          "time": 159.67071199999998,
          "velocity": 0.8031496062992126
        },
        {
          "duration": 0.1957232666666755,
          "durationTicks": 238,
          "midi": 42,
          "name": "F#2",
          "ticks": 194160,
          "time": 159.67071199999998,
          "velocity": 0.6456692913385826
        },
        {
          "duration": 0.1957232666666755,
          "durationTicks": 238,
          "midi": 37,
          "name": "C#2",
          "ticks": 194400,
          "time": 159.86808,
          "velocity": 0.8031496062992126
        },
        {
          "duration": 0.1957232666666755,
          "durationTicks": 238,
          "midi": 42,
          "name": "F#2",
          "ticks": 194400,
          "time": 159.86808,
          "velocity": 0.6456692913385826
        },
        {
          "duration": 0.09703926666665552,
          "durationTicks": 118,
          "midi": 42,
          "name": "F#2",
          "ticks": 194640,
          "time": 160.065448,
          "velocity": 0.6456692913385826
        },
        {
          "duration": 0.09703926666665552,
          "durationTicks": 118,
          "midi": 37,
          "name": "C#2",
          "ticks": 194760,
          "time": 160.164132,
          "velocity": 0.8031496062992126
        },
        {
          "duration": 0.1957232666666755,
          "durationTicks": 238,
          "midi": 42,
          "name": "F#2",
          "ticks": 194880,
          "time": 160.262816,
          "velocity": 0.6456692913385826
        },
        {
          "duration": 0.19572326666664708,
          "durationTicks": 238,
          "midi": 42,
          "name": "F#2",
          "ticks": 195120,
          "time": 160.460184,
          "velocity": 0.6456692913385826
        },
        {
          "duration": 0.1957232666666755,
          "durationTicks": 238,
          "midi": 37,
          "name": "C#2",
          "ticks": 195360,
          "time": 160.65755199999998,
          "velocity": 0.8031496062992126
        },
        {
          "duration": 0.1957232666666755,
          "durationTicks": 238,
          "midi": 42,
          "name": "F#2",
          "ticks": 195360,
          "time": 160.65755199999998,
          "velocity": 0.6456692913385826
        },
        {
          "duration": 0.09703926666665552,
          "durationTicks": 118,
          "midi": 42,
          "name": "F#2",
          "ticks": 195600,
          "time": 160.85492,
          "velocity": 0.6456692913385826
        },
        {
          "duration": 0.09703926666668394,
          "durationTicks": 118,
          "midi": 37,
          "name": "C#2",
          "ticks": 195720,
          "time": 160.95360399999998,
          "velocity": 0.8031496062992126
        },
        {
          "duration": 0.1957232666666755,
          "durationTicks": 238,
          "midi": 42,
          "name": "F#2",
          "ticks": 195840,
          "time": 161.05228799999998,
          "velocity": 0.6456692913385826
        },
        {
          "duration": 0.1957232666666755,
          "durationTicks": 238,
          "midi": 42,
          "name": "F#2",
          "ticks": 196080,
          "time": 161.249656,
          "velocity": 0.6456692913385826
        },
        {
          "duration": 0.19572326666664708,
          "durationTicks": 238,
          "midi": 37,
          "name": "C#2",
          "ticks": 196320,
          "time": 161.447024,
          "velocity": 0.8031496062992126
        },
        {
          "duration": 0.19572326666664708,
          "durationTicks": 238,
          "midi": 42,
          "name": "F#2",
          "ticks": 196320,
          "time": 161.447024,
          "velocity": 0.6456692913385826
        },
        {
          "duration": 0.09703926666668394,
          "durationTicks": 118,
          "midi": 42,
          "name": "F#2",
          "ticks": 196560,
          "time": 161.64439199999998,
          "velocity": 0.6456692913385826
        },
        {
          "duration": 0.09703926666665552,
          "durationTicks": 118,
          "midi": 37,
          "name": "C#2",
          "ticks": 196680,
          "time": 161.743076,
          "velocity": 0.8031496062992126
        },
        {
          "duration": 0.1957232666666755,
          "durationTicks": 238,
          "midi": 42,
          "name": "F#2",
          "ticks": 196800,
          "time": 161.84176,
          "velocity": 0.6456692913385826
        },
        {
          "duration": 0.1957232666666755,
          "durationTicks": 238,
          "midi": 42,
          "name": "F#2",
          "ticks": 197040,
          "time": 162.03912799999998,
          "velocity": 0.6456692913385826
        },
        {
          "duration": 0.1957232666666755,
          "durationTicks": 238,
          "midi": 37,
          "name": "C#2",
          "ticks": 197280,
          "time": 162.236496,
          "velocity": 0.8031496062992126
        },
        {
          "duration": 0.1957232666666755,
          "durationTicks": 238,
          "midi": 42,
          "name": "F#2",
          "ticks": 197280,
          "time": 162.236496,
          "velocity": 0.6456692913385826
        },
        {
          "duration": 0.09703926666665552,
          "durationTicks": 118,
          "midi": 42,
          "name": "F#2",
          "ticks": 197520,
          "time": 162.433864,
          "velocity": 0.6456692913385826
        },
        {
          "duration": 0.09703926666665552,
          "durationTicks": 118,
          "midi": 37,
          "name": "C#2",
          "ticks": 197640,
          "time": 162.532548,
          "velocity": 0.8031496062992126
        },
        {
          "duration": 0.1957232666666755,
          "durationTicks": 238,
          "midi": 35,
          "name": "B1",
          "ticks": 197760,
          "time": 162.63123199999998,
          "velocity": 0.8031496062992126
        },
        {
          "duration": 0.1957232666666755,
          "durationTicks": 238,
          "midi": 42,
          "name": "F#2",
          "ticks": 197760,
          "time": 162.63123199999998,
          "velocity": 0.6456692913385826
        },
        {
          "duration": 0.1957232666666755,
          "durationTicks": 238,
          "midi": 42,
          "name": "F#2",
          "ticks": 198000,
          "time": 162.8286,
          "velocity": 0.6456692913385826
        },
        {
          "duration": 0.1957232666666755,
          "durationTicks": 238,
          "midi": 37,
          "name": "C#2",
          "ticks": 198240,
          "time": 163.02596799999998,
          "velocity": 0.8031496062992126
        },
        {
          "duration": 0.1957232666666755,
          "durationTicks": 238,
          "midi": 42,
          "name": "F#2",
          "ticks": 198240,
          "time": 163.02596799999998,
          "velocity": 0.6456692913385826
        },
        {
          "duration": 0.09703926666665552,
          "durationTicks": 118,
          "midi": 42,
          "name": "F#2",
          "ticks": 198480,
          "time": 163.223336,
          "velocity": 0.6456692913385826
        },
        {
          "duration": 0.09703926666668394,
          "durationTicks": 118,
          "midi": 37,
          "name": "C#2",
          "ticks": 198600,
          "time": 163.32201999999998,
          "velocity": 0.8031496062992126
        },
        {
          "duration": 0.19572326666664708,
          "durationTicks": 238,
          "midi": 42,
          "name": "F#2",
          "ticks": 198720,
          "time": 163.420704,
          "velocity": 0.6456692913385826
        },
        {
          "duration": 0.1957232666666755,
          "durationTicks": 238,
          "midi": 42,
          "name": "F#2",
          "ticks": 198960,
          "time": 163.61807199999998,
          "velocity": 0.6456692913385826
        },
        {
          "duration": 0.1957232666666755,
          "durationTicks": 238,
          "midi": 37,
          "name": "C#2",
          "ticks": 199200,
          "time": 163.81544,
          "velocity": 0.8031496062992126
        },
        {
          "duration": 0.1957232666666755,
          "durationTicks": 238,
          "midi": 42,
          "name": "F#2",
          "ticks": 199200,
          "time": 163.81544,
          "velocity": 0.6456692913385826
        },
        {
          "duration": 0.09703926666668394,
          "durationTicks": 118,
          "midi": 42,
          "name": "F#2",
          "ticks": 199440,
          "time": 164.01280799999998,
          "velocity": 0.6456692913385826
        },
        {
          "duration": 0.09703926666665552,
          "durationTicks": 118,
          "midi": 37,
          "name": "C#2",
          "ticks": 199560,
          "time": 164.111492,
          "velocity": 0.8031496062992126
        },
        {
          "duration": 0.1957232666666755,
          "durationTicks": 238,
          "midi": 42,
          "name": "F#2",
          "ticks": 199680,
          "time": 164.210176,
          "velocity": 0.6456692913385826
        },
        {
          "duration": 0.19572326666664708,
          "durationTicks": 238,
          "midi": 42,
          "name": "F#2",
          "ticks": 199920,
          "time": 164.407544,
          "velocity": 0.6456692913385826
        },
        {
          "duration": 0.1957232666666755,
          "durationTicks": 238,
          "midi": 37,
          "name": "C#2",
          "ticks": 200160,
          "time": 164.60491199999998,
          "velocity": 0.8031496062992126
        },
        {
          "duration": 0.1957232666666755,
          "durationTicks": 238,
          "midi": 42,
          "name": "F#2",
          "ticks": 200160,
          "time": 164.60491199999998,
          "velocity": 0.6456692913385826
        },
        {
          "duration": 0.09703926666665552,
          "durationTicks": 118,
          "midi": 42,
          "name": "F#2",
          "ticks": 200400,
          "time": 164.80228,
          "velocity": 0.6456692913385826
        },
        {
          "duration": 0.09703926666668394,
          "durationTicks": 118,
          "midi": 37,
          "name": "C#2",
          "ticks": 200520,
          "time": 164.900964,
          "velocity": 0.8031496062992126
        },
        {
          "duration": 0.1957232666666755,
          "durationTicks": 238,
          "midi": 42,
          "name": "F#2",
          "ticks": 200640,
          "time": 164.99964799999998,
          "velocity": 0.6456692913385826
        },
        {
          "duration": 0.1957232666666755,
          "durationTicks": 238,
          "midi": 42,
          "name": "F#2",
          "ticks": 200880,
          "time": 165.197016,
          "velocity": 0.6456692913385826
        },
        {
          "duration": 0.19572326666664708,
          "durationTicks": 238,
          "midi": 37,
          "name": "C#2",
          "ticks": 201120,
          "time": 165.394384,
          "velocity": 0.8031496062992126
        },
        {
          "duration": 0.19572326666664708,
          "durationTicks": 238,
          "midi": 42,
          "name": "F#2",
          "ticks": 201120,
          "time": 165.394384,
          "velocity": 0.6456692913385826
        },
        {
          "duration": 0.09703926666668394,
          "durationTicks": 118,
          "midi": 42,
          "name": "F#2",
          "ticks": 201360,
          "time": 165.59175199999999,
          "velocity": 0.6456692913385826
        },
        {
          "duration": 0.09703926666668394,
          "durationTicks": 118,
          "midi": 37,
          "name": "C#2",
          "ticks": 201480,
          "time": 165.69043599999998,
          "velocity": 0.8031496062992126
        },
        {
          "duration": 0.19572326666664708,
          "durationTicks": 238,
          "midi": 35,
          "name": "B1",
          "ticks": 201600,
          "time": 165.78912,
          "velocity": 0.8031496062992126
        },
        {
          "duration": 0.19572326666664708,
          "durationTicks": 238,
          "midi": 42,
          "name": "F#2",
          "ticks": 201600,
          "time": 165.78912,
          "velocity": 0.6456692913385826
        },
        {
          "duration": 0.1957232666666755,
          "durationTicks": 238,
          "midi": 35,
          "name": "B1",
          "ticks": 201840,
          "time": 165.98648799999998,
          "velocity": 0.8031496062992126
        },
        {
          "duration": 0.1957232666666755,
          "durationTicks": 238,
          "midi": 42,
          "name": "F#2",
          "ticks": 201840,
          "time": 165.98648799999998,
          "velocity": 0.6456692913385826
        },
        {
          "duration": 0.1957232666666755,
          "durationTicks": 238,
          "midi": 37,
          "name": "C#2",
          "ticks": 202080,
          "time": 166.183856,
          "velocity": 0.8031496062992126
        },
        {
          "duration": 0.1957232666666755,
          "durationTicks": 238,
          "midi": 42,
          "name": "F#2",
          "ticks": 202080,
          "time": 166.183856,
          "velocity": 0.6456692913385826
        },
        {
          "duration": 0.09703926666665552,
          "durationTicks": 118,
          "midi": 42,
          "name": "F#2",
          "ticks": 202320,
          "time": 166.381224,
          "velocity": 0.6456692913385826
        },
        {
          "duration": 0.09703926666665552,
          "durationTicks": 118,
          "midi": 37,
          "name": "C#2",
          "ticks": 202440,
          "time": 166.479908,
          "velocity": 0.8031496062992126
        },
        {
          "duration": 0.1957232666666755,
          "durationTicks": 238,
          "midi": 42,
          "name": "F#2",
          "ticks": 202560,
          "time": 166.578592,
          "velocity": 0.6456692913385826
        },
        {
          "duration": 0.19572326666664708,
          "durationTicks": 238,
          "midi": 42,
          "name": "F#2",
          "ticks": 202800,
          "time": 166.77596,
          "velocity": 0.6456692913385826
        },
        {
          "duration": 0.1957232666666755,
          "durationTicks": 238,
          "midi": 37,
          "name": "C#2",
          "ticks": 203040,
          "time": 166.97332799999998,
          "velocity": 0.8031496062992126
        },
        {
          "duration": 0.1957232666666755,
          "durationTicks": 238,
          "midi": 42,
          "name": "F#2",
          "ticks": 203040,
          "time": 166.97332799999998,
          "velocity": 0.6456692913385826
        },
        {
          "duration": 0.09703926666665552,
          "durationTicks": 118,
          "midi": 42,
          "name": "F#2",
          "ticks": 203280,
          "time": 167.170696,
          "velocity": 0.6456692913385826
        },
        {
          "duration": 0.09703926666668394,
          "durationTicks": 118,
          "midi": 37,
          "name": "C#2",
          "ticks": 203400,
          "time": 167.26937999999998,
          "velocity": 0.8031496062992126
        },
        {
          "duration": 0.19572326666664708,
          "durationTicks": 238,
          "midi": 42,
          "name": "F#2",
          "ticks": 203520,
          "time": 167.368064,
          "velocity": 0.6456692913385826
        },
        {
          "duration": 0.1957232666666755,
          "durationTicks": 238,
          "midi": 42,
          "name": "F#2",
          "ticks": 203760,
          "time": 167.565432,
          "velocity": 0.6456692913385826
        },
        {
          "duration": 0.19572326666664708,
          "durationTicks": 238,
          "midi": 37,
          "name": "C#2",
          "ticks": 204000,
          "time": 167.7628,
          "velocity": 0.8031496062992126
        },
        {
          "duration": 0.19572326666664708,
          "durationTicks": 238,
          "midi": 42,
          "name": "F#2",
          "ticks": 204000,
          "time": 167.7628,
          "velocity": 0.6456692913385826
        },
        {
          "duration": 0.09703926666668394,
          "durationTicks": 118,
          "midi": 42,
          "name": "F#2",
          "ticks": 204240,
          "time": 167.96016799999998,
          "velocity": 0.6456692913385826
        },
        {
          "duration": 0.09703926666665552,
          "durationTicks": 118,
          "midi": 37,
          "name": "C#2",
          "ticks": 204360,
          "time": 168.058852,
          "velocity": 0.8031496062992126
        },
        {
          "duration": 0.1957232666666755,
          "durationTicks": 238,
          "midi": 42,
          "name": "F#2",
          "ticks": 204480,
          "time": 168.157536,
          "velocity": 0.6456692913385826
        },
        {
          "duration": 0.1957232666666755,
          "durationTicks": 238,
          "midi": 42,
          "name": "F#2",
          "ticks": 204720,
          "time": 168.35490399999998,
          "velocity": 0.6456692913385826
        },
        {
          "duration": 0.1957232666666755,
          "durationTicks": 238,
          "midi": 37,
          "name": "C#2",
          "ticks": 204960,
          "time": 168.552272,
          "velocity": 0.8031496062992126
        },
        {
          "duration": 0.1957232666666755,
          "durationTicks": 238,
          "midi": 42,
          "name": "F#2",
          "ticks": 204960,
          "time": 168.552272,
          "velocity": 0.6456692913385826
        },
        {
          "duration": 0.09703926666665552,
          "durationTicks": 118,
          "midi": 42,
          "name": "F#2",
          "ticks": 205200,
          "time": 168.74964,
          "velocity": 0.6456692913385826
        },
        {
          "duration": 0.09703926666665552,
          "durationTicks": 118,
          "midi": 37,
          "name": "C#2",
          "ticks": 205320,
          "time": 168.848324,
          "velocity": 0.8031496062992126
        },
        {
          "duration": 0.1957232666666755,
          "durationTicks": 238,
          "midi": 35,
          "name": "B1",
          "ticks": 205440,
          "time": 168.94700799999998,
          "velocity": 0.8031496062992126
        },
        {
          "duration": 0.1957232666666755,
          "durationTicks": 238,
          "midi": 42,
          "name": "F#2",
          "ticks": 205440,
          "time": 168.94700799999998,
          "velocity": 0.6456692913385826
        },
        {
          "duration": 0.1957232666666755,
          "durationTicks": 238,
          "midi": 42,
          "name": "F#2",
          "ticks": 205680,
          "time": 169.144376,
          "velocity": 0.6456692913385826
        },
        {
          "duration": 0.1957232666666755,
          "durationTicks": 238,
          "midi": 37,
          "name": "C#2",
          "ticks": 205920,
          "time": 169.34174399999998,
          "velocity": 0.8031496062992126
        },
        {
          "duration": 0.1957232666666755,
          "durationTicks": 238,
          "midi": 42,
          "name": "F#2",
          "ticks": 205920,
          "time": 169.34174399999998,
          "velocity": 0.6456692913385826
        },
        {
          "duration": 0.09703926666665552,
          "durationTicks": 118,
          "midi": 42,
          "name": "F#2",
          "ticks": 206160,
          "time": 169.539112,
          "velocity": 0.6456692913385826
        },
        {
          "duration": 0.09703926666668394,
          "durationTicks": 118,
          "midi": 37,
          "name": "C#2",
          "ticks": 206280,
          "time": 169.63779599999998,
          "velocity": 0.8031496062992126
        },
        {
          "duration": 0.19572326666664708,
          "durationTicks": 238,
          "midi": 42,
          "name": "F#2",
          "ticks": 206400,
          "time": 169.73648,
          "velocity": 0.6456692913385826
        },
        {
          "duration": 0.1957232666666755,
          "durationTicks": 238,
          "midi": 42,
          "name": "F#2",
          "ticks": 206640,
          "time": 169.93384799999998,
          "velocity": 0.6456692913385826
        },
        {
          "duration": 0.1957232666666755,
          "durationTicks": 238,
          "midi": 37,
          "name": "C#2",
          "ticks": 206880,
          "time": 170.131216,
          "velocity": 0.8031496062992126
        },
        {
          "duration": 0.1957232666666755,
          "durationTicks": 238,
          "midi": 42,
          "name": "F#2",
          "ticks": 206880,
          "time": 170.131216,
          "velocity": 0.6456692913385826
        },
        {
          "duration": 0.09703926666668394,
          "durationTicks": 118,
          "midi": 42,
          "name": "F#2",
          "ticks": 207120,
          "time": 170.32858399999998,
          "velocity": 0.6456692913385826
        },
        {
          "duration": 0.09703926666665552,
          "durationTicks": 118,
          "midi": 37,
          "name": "C#2",
          "ticks": 207240,
          "time": 170.427268,
          "velocity": 0.8031496062992126
        },
        {
          "duration": 0.1957232666666755,
          "durationTicks": 238,
          "midi": 42,
          "name": "F#2",
          "ticks": 207360,
          "time": 170.525952,
          "velocity": 0.6456692913385826
        },
        {
          "duration": 0.19572326666664708,
          "durationTicks": 238,
          "midi": 42,
          "name": "F#2",
          "ticks": 207600,
          "time": 170.72332,
          "velocity": 0.6456692913385826
        },
        {
          "duration": 0.1957232666666755,
          "durationTicks": 238,
          "midi": 37,
          "name": "C#2",
          "ticks": 207840,
          "time": 170.92068799999998,
          "velocity": 0.8031496062992126
        },
        {
          "duration": 0.1957232666666755,
          "durationTicks": 238,
          "midi": 42,
          "name": "F#2",
          "ticks": 207840,
          "time": 170.92068799999998,
          "velocity": 0.6456692913385826
        },
        {
          "duration": 0.09703926666665552,
          "durationTicks": 118,
          "midi": 42,
          "name": "F#2",
          "ticks": 208080,
          "time": 171.118056,
          "velocity": 0.6456692913385826
        },
        {
          "duration": 0.09703926666668394,
          "durationTicks": 118,
          "midi": 37,
          "name": "C#2",
          "ticks": 208200,
          "time": 171.21674,
          "velocity": 0.8031496062992126
        },
        {
          "duration": 0.1957232666666755,
          "durationTicks": 238,
          "midi": 42,
          "name": "F#2",
          "ticks": 208320,
          "time": 171.31542399999998,
          "velocity": 0.6456692913385826
        },
        {
          "duration": 0.1957232666666755,
          "durationTicks": 238,
          "midi": 42,
          "name": "F#2",
          "ticks": 208560,
          "time": 171.512792,
          "velocity": 0.6456692913385826
        },
        {
          "duration": 0.19572326666664708,
          "durationTicks": 238,
          "midi": 37,
          "name": "C#2",
          "ticks": 208800,
          "time": 171.71016,
          "velocity": 0.8031496062992126
        },
        {
          "duration": 0.19572326666664708,
          "durationTicks": 238,
          "midi": 42,
          "name": "F#2",
          "ticks": 208800,
          "time": 171.71016,
          "velocity": 0.6456692913385826
        },
        {
          "duration": 0.09703926666668394,
          "durationTicks": 118,
          "midi": 42,
          "name": "F#2",
          "ticks": 209040,
          "time": 171.90752799999999,
          "velocity": 0.6456692913385826
        },
        {
          "duration": 0.09703926666668394,
          "durationTicks": 118,
          "midi": 37,
          "name": "C#2",
          "ticks": 209160,
          "time": 172.00621199999998,
          "velocity": 0.8031496062992126
        },
        {
          "duration": 0.19572326666664708,
          "durationTicks": 238,
          "midi": 35,
          "name": "B1",
          "ticks": 209280,
          "time": 172.104896,
          "velocity": 0.8031496062992126
        },
        {
          "duration": 0.19572326666664708,
          "durationTicks": 238,
          "midi": 42,
          "name": "F#2",
          "ticks": 209280,
          "time": 172.104896,
          "velocity": 0.6456692913385826
        },
        {
          "duration": 0.1957232666666755,
          "durationTicks": 238,
          "midi": 35,
          "name": "B1",
          "ticks": 209520,
          "time": 172.30226399999998,
          "velocity": 0.8031496062992126
        },
        {
          "duration": 0.1957232666666755,
          "durationTicks": 238,
          "midi": 42,
          "name": "F#2",
          "ticks": 209520,
          "time": 172.30226399999998,
          "velocity": 0.6456692913385826
        },
        {
          "duration": 0.1957232666666755,
          "durationTicks": 238,
          "midi": 37,
          "name": "C#2",
          "ticks": 209760,
          "time": 172.499632,
          "velocity": 0.8031496062992126
        },
        {
          "duration": 0.1957232666666755,
          "durationTicks": 238,
          "midi": 42,
          "name": "F#2",
          "ticks": 209760,
          "time": 172.499632,
          "velocity": 0.6456692913385826
        },
        {
          "duration": 0.09703926666665552,
          "durationTicks": 118,
          "midi": 42,
          "name": "F#2",
          "ticks": 210000,
          "time": 172.697,
          "velocity": 0.6456692913385826
        },
        {
          "duration": 0.09703926666665552,
          "durationTicks": 118,
          "midi": 37,
          "name": "C#2",
          "ticks": 210120,
          "time": 172.795684,
          "velocity": 0.8031496062992126
        },
        {
          "duration": 0.1957232666666755,
          "durationTicks": 238,
          "midi": 42,
          "name": "F#2",
          "ticks": 210240,
          "time": 172.894368,
          "velocity": 0.6456692913385826
        },
        {
          "duration": 0.19572326666664708,
          "durationTicks": 238,
          "midi": 42,
          "name": "F#2",
          "ticks": 210480,
          "time": 173.091736,
          "velocity": 0.6456692913385826
        },
        {
          "duration": 0.1957232666666755,
          "durationTicks": 238,
          "midi": 37,
          "name": "C#2",
          "ticks": 210720,
          "time": 173.28910399999998,
          "velocity": 0.8031496062992126
        },
        {
          "duration": 0.1957232666666755,
          "durationTicks": 238,
          "midi": 42,
          "name": "F#2",
          "ticks": 210720,
          "time": 173.28910399999998,
          "velocity": 0.6456692913385826
        },
        {
          "duration": 0.09703926666665552,
          "durationTicks": 118,
          "midi": 42,
          "name": "F#2",
          "ticks": 210960,
          "time": 173.486472,
          "velocity": 0.6456692913385826
        },
        {
          "duration": 0.09703926666668394,
          "durationTicks": 118,
          "midi": 37,
          "name": "C#2",
          "ticks": 211080,
          "time": 173.58515599999998,
          "velocity": 0.8031496062992126
        },
        {
          "duration": 0.1957232666666755,
          "durationTicks": 238,
          "midi": 42,
          "name": "F#2",
          "ticks": 211200,
          "time": 173.68383999999998,
          "velocity": 0.6456692913385826
        },
        {
          "duration": 0.1957232666666755,
          "durationTicks": 238,
          "midi": 42,
          "name": "F#2",
          "ticks": 211440,
          "time": 173.881208,
          "velocity": 0.6456692913385826
        },
        {
          "duration": 0.19572326666664708,
          "durationTicks": 238,
          "midi": 37,
          "name": "C#2",
          "ticks": 211680,
          "time": 174.078576,
          "velocity": 0.8031496062992126
        },
        {
          "duration": 0.19572326666664708,
          "durationTicks": 238,
          "midi": 42,
          "name": "F#2",
          "ticks": 211680,
          "time": 174.078576,
          "velocity": 0.6456692913385826
        },
        {
          "duration": 0.09703926666668394,
          "durationTicks": 118,
          "midi": 42,
          "name": "F#2",
          "ticks": 211920,
          "time": 174.27594399999998,
          "velocity": 0.6456692913385826
        },
        {
          "duration": 0.09703926666665552,
          "durationTicks": 118,
          "midi": 37,
          "name": "C#2",
          "ticks": 212040,
          "time": 174.374628,
          "velocity": 0.8031496062992126
        },
        {
          "duration": 0.1957232666666755,
          "durationTicks": 238,
          "midi": 42,
          "name": "F#2",
          "ticks": 212160,
          "time": 174.473312,
          "velocity": 0.6456692913385826
        },
        {
          "duration": 0.1957232666666755,
          "durationTicks": 238,
          "midi": 42,
          "name": "F#2",
          "ticks": 212400,
          "time": 174.67067999999998,
          "velocity": 0.6456692913385826
        },
        {
          "duration": 0.1957232666666755,
          "durationTicks": 238,
          "midi": 37,
          "name": "C#2",
          "ticks": 212640,
          "time": 174.868048,
          "velocity": 0.8031496062992126
        },
        {
          "duration": 0.1957232666666755,
          "durationTicks": 238,
          "midi": 42,
          "name": "F#2",
          "ticks": 212640,
          "time": 174.868048,
          "velocity": 0.6456692913385826
        },
        {
          "duration": 0.09703926666665552,
          "durationTicks": 118,
          "midi": 42,
          "name": "F#2",
          "ticks": 212880,
          "time": 175.065416,
          "velocity": 0.6456692913385826
        },
        {
          "duration": 0.09703926666665552,
          "durationTicks": 118,
          "midi": 37,
          "name": "C#2",
          "ticks": 213000,
          "time": 175.1641,
          "velocity": 0.8031496062992126
        },
        {
          "duration": 0.1957232666666755,
          "durationTicks": 238,
          "midi": 35,
          "name": "B1",
          "ticks": 213120,
          "time": 175.26278399999998,
          "velocity": 0.8031496062992126
        },
        {
          "duration": 0.1957232666666755,
          "durationTicks": 238,
          "midi": 42,
          "name": "F#2",
          "ticks": 213120,
          "time": 175.26278399999998,
          "velocity": 0.6456692913385826
        },
        {
          "duration": 0.1957232666666755,
          "durationTicks": 238,
          "midi": 42,
          "name": "F#2",
          "ticks": 213360,
          "time": 175.460152,
          "velocity": 0.6456692913385826
        },
        {
          "duration": 0.1957232666666755,
          "durationTicks": 238,
          "midi": 37,
          "name": "C#2",
          "ticks": 213600,
          "time": 175.65751999999998,
          "velocity": 0.8031496062992126
        },
        {
          "duration": 0.1957232666666755,
          "durationTicks": 238,
          "midi": 42,
          "name": "F#2",
          "ticks": 213600,
          "time": 175.65751999999998,
          "velocity": 0.6456692913385826
        },
        {
          "duration": 0.09703926666665552,
          "durationTicks": 118,
          "midi": 42,
          "name": "F#2",
          "ticks": 213840,
          "time": 175.854888,
          "velocity": 0.6456692913385826
        },
        {
          "duration": 0.09703926666668394,
          "durationTicks": 118,
          "midi": 37,
          "name": "C#2",
          "ticks": 213960,
          "time": 175.95357199999998,
          "velocity": 0.8031496062992126
        },
        {
          "duration": 0.19572326666664708,
          "durationTicks": 238,
          "midi": 42,
          "name": "F#2",
          "ticks": 214080,
          "time": 176.052256,
          "velocity": 0.6456692913385826
        },
        {
          "duration": 0.1957232666666755,
          "durationTicks": 238,
          "midi": 42,
          "name": "F#2",
          "ticks": 214320,
          "time": 176.24962399999998,
          "velocity": 0.6456692913385826
        },
        {
          "duration": 0.1957232666666755,
          "durationTicks": 238,
          "midi": 37,
          "name": "C#2",
          "ticks": 214560,
          "time": 176.446992,
          "velocity": 0.8031496062992126
        },
        {
          "duration": 0.1957232666666755,
          "durationTicks": 238,
          "midi": 42,
          "name": "F#2",
          "ticks": 214560,
          "time": 176.446992,
          "velocity": 0.6456692913385826
        },
        {
          "duration": 0.09703926666668394,
          "durationTicks": 118,
          "midi": 42,
          "name": "F#2",
          "ticks": 214800,
          "time": 176.64435999999998,
          "velocity": 0.6456692913385826
        },
        {
          "duration": 0.09703926666665552,
          "durationTicks": 118,
          "midi": 37,
          "name": "C#2",
          "ticks": 214920,
          "time": 176.743044,
          "velocity": 0.8031496062992126
        },
        {
          "duration": 0.1957232666666755,
          "durationTicks": 238,
          "midi": 42,
          "name": "F#2",
          "ticks": 215040,
          "time": 176.841728,
          "velocity": 0.6456692913385826
        },
        {
          "duration": 0.19572326666664708,
          "durationTicks": 238,
          "midi": 42,
          "name": "F#2",
          "ticks": 215280,
          "time": 177.039096,
          "velocity": 0.6456692913385826
        },
        {
          "duration": 0.1957232666666755,
          "durationTicks": 238,
          "midi": 37,
          "name": "C#2",
          "ticks": 215520,
          "time": 177.23646399999998,
          "velocity": 0.8031496062992126
        },
        {
          "duration": 0.1957232666666755,
          "durationTicks": 238,
          "midi": 42,
          "name": "F#2",
          "ticks": 215520,
          "time": 177.23646399999998,
          "velocity": 0.6456692913385826
        },
        {
          "duration": 0.09703926666665552,
          "durationTicks": 118,
          "midi": 42,
          "name": "F#2",
          "ticks": 215760,
          "time": 177.433832,
          "velocity": 0.6456692913385826
        },
        {
          "duration": 0.09703926666668394,
          "durationTicks": 118,
          "midi": 37,
          "name": "C#2",
          "ticks": 215880,
          "time": 177.532516,
          "velocity": 0.8031496062992126
        },
        {
          "duration": 0.1957232666666755,
          "durationTicks": 238,
          "midi": 42,
          "name": "F#2",
          "ticks": 216000,
          "time": 177.63119999999998,
          "velocity": 0.6456692913385826
        },
        {
          "duration": 0.1957232666666755,
          "durationTicks": 238,
          "midi": 42,
          "name": "F#2",
          "ticks": 216240,
          "time": 177.828568,
          "velocity": 0.6456692913385826
        },
        {
          "duration": 0.19572326666664708,
          "durationTicks": 238,
          "midi": 37,
          "name": "C#2",
          "ticks": 216480,
          "time": 178.025936,
          "velocity": 0.8031496062992126
        },
        {
          "duration": 0.19572326666664708,
          "durationTicks": 238,
          "midi": 42,
          "name": "F#2",
          "ticks": 216480,
          "time": 178.025936,
          "velocity": 0.6456692913385826
        },
        {
          "duration": 0.09703926666668394,
          "durationTicks": 118,
          "midi": 42,
          "name": "F#2",
          "ticks": 216720,
          "time": 178.22330399999998,
          "velocity": 0.6456692913385826
        },
        {
          "duration": 0.09703926666668394,
          "durationTicks": 118,
          "midi": 37,
          "name": "C#2",
          "ticks": 216840,
          "time": 178.32198799999998,
          "velocity": 0.8031496062992126
        },
        {
          "duration": 0.19572326666664708,
          "durationTicks": 238,
          "midi": 35,
          "name": "B1",
          "ticks": 216960,
          "time": 178.420672,
          "velocity": 0.8031496062992126
        },
        {
          "duration": 0.19572326666664708,
          "durationTicks": 238,
          "midi": 42,
          "name": "F#2",
          "ticks": 216960,
          "time": 178.420672,
          "velocity": 0.6456692913385826
        },
        {
          "duration": 0.1957232666666755,
          "durationTicks": 238,
          "midi": 35,
          "name": "B1",
          "ticks": 217200,
          "time": 178.61803999999998,
          "velocity": 0.8031496062992126
        },
        {
          "duration": 0.1957232666666755,
          "durationTicks": 238,
          "midi": 42,
          "name": "F#2",
          "ticks": 217200,
          "time": 178.61803999999998,
          "velocity": 0.6456692913385826
        },
        {
          "duration": 0.1957232666666755,
          "durationTicks": 238,
          "midi": 37,
          "name": "C#2",
          "ticks": 217440,
          "time": 178.815408,
          "velocity": 0.8031496062992126
        },
        {
          "duration": 0.1957232666666755,
          "durationTicks": 238,
          "midi": 42,
          "name": "F#2",
          "ticks": 217440,
          "time": 178.815408,
          "velocity": 0.6456692913385826
        },
        {
          "duration": 0.09703926666665552,
          "durationTicks": 118,
          "midi": 42,
          "name": "F#2",
          "ticks": 217680,
          "time": 179.012776,
          "velocity": 0.6456692913385826
        },
        {
          "duration": 0.09703926666665552,
          "durationTicks": 118,
          "midi": 37,
          "name": "C#2",
          "ticks": 217800,
          "time": 179.11146,
          "velocity": 0.8031496062992126
        },
        {
          "duration": 0.1957232666666755,
          "durationTicks": 238,
          "midi": 42,
          "name": "F#2",
          "ticks": 217920,
          "time": 179.21014399999999,
          "velocity": 0.6456692913385826
        },
        {
          "duration": 0.19572326666664708,
          "durationTicks": 238,
          "midi": 42,
          "name": "F#2",
          "ticks": 218160,
          "time": 179.407512,
          "velocity": 0.6456692913385826
        },
        {
          "duration": 0.1957232666666755,
          "durationTicks": 238,
          "midi": 37,
          "name": "C#2",
          "ticks": 218400,
          "time": 179.60487999999998,
          "velocity": 0.8031496062992126
        },
        {
          "duration": 0.1957232666666755,
          "durationTicks": 238,
          "midi": 42,
          "name": "F#2",
          "ticks": 218400,
          "time": 179.60487999999998,
          "velocity": 0.6456692913385826
        },
        {
          "duration": 0.09703926666665552,
          "durationTicks": 118,
          "midi": 42,
          "name": "F#2",
          "ticks": 218640,
          "time": 179.802248,
          "velocity": 0.6456692913385826
        },
        {
          "duration": 0.09703926666668394,
          "durationTicks": 118,
          "midi": 37,
          "name": "C#2",
          "ticks": 218760,
          "time": 179.90093199999998,
          "velocity": 0.8031496062992126
        },
        {
          "duration": 0.19572326666664708,
          "durationTicks": 238,
          "midi": 42,
          "name": "F#2",
          "ticks": 218880,
          "time": 179.999616,
          "velocity": 0.6456692913385826
        },
        {
          "duration": 0.1957232666666755,
          "durationTicks": 238,
          "midi": 42,
          "name": "F#2",
          "ticks": 219120,
          "time": 180.196984,
          "velocity": 0.6456692913385826
        },
        {
          "duration": 0.19572326666664708,
          "durationTicks": 238,
          "midi": 37,
          "name": "C#2",
          "ticks": 219360,
          "time": 180.394352,
          "velocity": 0.8031496062992126
        },
        {
          "duration": 0.19572326666664708,
          "durationTicks": 238,
          "midi": 42,
          "name": "F#2",
          "ticks": 219360,
          "time": 180.394352,
          "velocity": 0.6456692913385826
        },
        {
          "duration": 0.09703926666668394,
          "durationTicks": 118,
          "midi": 42,
          "name": "F#2",
          "ticks": 219600,
          "time": 180.59171999999998,
          "velocity": 0.6456692913385826
        },
        {
          "duration": 0.09703926666665552,
          "durationTicks": 118,
          "midi": 37,
          "name": "C#2",
          "ticks": 219720,
          "time": 180.690404,
          "velocity": 0.8031496062992126
        },
        {
          "duration": 0.1957232666666755,
          "durationTicks": 238,
          "midi": 42,
          "name": "F#2",
          "ticks": 219840,
          "time": 180.789088,
          "velocity": 0.6456692913385826
        },
        {
          "duration": 0.1957232666666755,
          "durationTicks": 238,
          "midi": 42,
          "name": "F#2",
          "ticks": 220080,
          "time": 180.98645599999998,
          "velocity": 0.6456692913385826
        },
        {
          "duration": 0.1957232666666755,
          "durationTicks": 238,
          "midi": 37,
          "name": "C#2",
          "ticks": 220320,
          "time": 181.183824,
          "velocity": 0.8031496062992126
        },
        {
          "duration": 0.1957232666666755,
          "durationTicks": 238,
          "midi": 42,
          "name": "F#2",
          "ticks": 220320,
          "time": 181.183824,
          "velocity": 0.6456692913385826
        },
        {
          "duration": 0.09703926666665552,
          "durationTicks": 118,
          "midi": 42,
          "name": "F#2",
          "ticks": 220560,
          "time": 181.381192,
          "velocity": 0.6456692913385826
        },
        {
          "duration": 0.09703926666665552,
          "durationTicks": 118,
          "midi": 37,
          "name": "C#2",
          "ticks": 220680,
          "time": 181.479876,
          "velocity": 0.8031496062992126
        },
        {
          "duration": 0.1957232666666755,
          "durationTicks": 238,
          "midi": 35,
          "name": "B1",
          "ticks": 220800,
          "time": 181.57855999999998,
          "velocity": 0.8031496062992126
        },
        {
          "duration": 0.1957232666666755,
          "durationTicks": 238,
          "midi": 42,
          "name": "F#2",
          "ticks": 220800,
          "time": 181.57855999999998,
          "velocity": 0.6456692913385826
        },
        {
          "duration": 0.1957232666666755,
          "durationTicks": 238,
          "midi": 42,
          "name": "F#2",
          "ticks": 221040,
          "time": 181.775928,
          "velocity": 0.6456692913385826
        },
        {
          "duration": 0.1957232666666755,
          "durationTicks": 238,
          "midi": 37,
          "name": "C#2",
          "ticks": 221280,
          "time": 181.97329599999998,
          "velocity": 0.8031496062992126
        },
        {
          "duration": 0.1957232666666755,
          "durationTicks": 238,
          "midi": 42,
          "name": "F#2",
          "ticks": 221280,
          "time": 181.97329599999998,
          "velocity": 0.6456692913385826
        },
        {
          "duration": 0.09703926666665552,
          "durationTicks": 118,
          "midi": 42,
          "name": "F#2",
          "ticks": 221520,
          "time": 182.170664,
          "velocity": 0.6456692913385826
        },
        {
          "duration": 0.09703926666668394,
          "durationTicks": 118,
          "midi": 37,
          "name": "C#2",
          "ticks": 221640,
          "time": 182.26934799999998,
          "velocity": 0.8031496062992126
        },
        {
          "duration": 0.19572326666664708,
          "durationTicks": 238,
          "midi": 42,
          "name": "F#2",
          "ticks": 221760,
          "time": 182.368032,
          "velocity": 0.6456692913385826
        },
        {
          "duration": 0.1957232666666755,
          "durationTicks": 238,
          "midi": 42,
          "name": "F#2",
          "ticks": 222000,
          "time": 182.56539999999998,
          "velocity": 0.6456692913385826
        },
        {
          "duration": 0.1957232666666755,
          "durationTicks": 238,
          "midi": 37,
          "name": "C#2",
          "ticks": 222240,
          "time": 182.762768,
          "velocity": 0.8031496062992126
        },
        {
          "duration": 0.1957232666666755,
          "durationTicks": 238,
          "midi": 42,
          "name": "F#2",
          "ticks": 222240,
          "time": 182.762768,
          "velocity": 0.6456692913385826
        },
        {
          "duration": 0.09703926666668394,
          "durationTicks": 118,
          "midi": 42,
          "name": "F#2",
          "ticks": 222480,
          "time": 182.96013599999998,
          "velocity": 0.6456692913385826
        },
        {
          "duration": 0.09703926666665552,
          "durationTicks": 118,
          "midi": 37,
          "name": "C#2",
          "ticks": 222600,
          "time": 183.05882,
          "velocity": 0.8031496062992126
        },
        {
          "duration": 0.1957232666666755,
          "durationTicks": 238,
          "midi": 42,
          "name": "F#2",
          "ticks": 222720,
          "time": 183.157504,
          "velocity": 0.6456692913385826
        },
        {
          "duration": 0.19572326666664708,
          "durationTicks": 238,
          "midi": 42,
          "name": "F#2",
          "ticks": 222960,
          "time": 183.354872,
          "velocity": 0.6456692913385826
        },
        {
          "duration": 0.1957232666666755,
          "durationTicks": 238,
          "midi": 37,
          "name": "C#2",
          "ticks": 223200,
          "time": 183.55223999999998,
          "velocity": 0.8031496062992126
        },
        {
          "duration": 0.1957232666666755,
          "durationTicks": 238,
          "midi": 42,
          "name": "F#2",
          "ticks": 223200,
          "time": 183.55223999999998,
          "velocity": 0.6456692913385826
        },
        {
          "duration": 0.09703926666665552,
          "durationTicks": 118,
          "midi": 42,
          "name": "F#2",
          "ticks": 223440,
          "time": 183.749608,
          "velocity": 0.6456692913385826
        },
        {
          "duration": 0.09703926666668394,
          "durationTicks": 118,
          "midi": 37,
          "name": "C#2",
          "ticks": 223560,
          "time": 183.848292,
          "velocity": 0.8031496062992126
        },
        {
          "duration": 0.1957232666666755,
          "durationTicks": 238,
          "midi": 42,
          "name": "F#2",
          "ticks": 223680,
          "time": 183.94697599999998,
          "velocity": 0.6456692913385826
        },
        {
          "duration": 0.1957232666666755,
          "durationTicks": 238,
          "midi": 42,
          "name": "F#2",
          "ticks": 223920,
          "time": 184.144344,
          "velocity": 0.6456692913385826
        },
        {
          "duration": 0.19572326666664708,
          "durationTicks": 238,
          "midi": 37,
          "name": "C#2",
          "ticks": 224160,
          "time": 184.341712,
          "velocity": 0.8031496062992126
        },
        {
          "duration": 0.19572326666664708,
          "durationTicks": 238,
          "midi": 42,
          "name": "F#2",
          "ticks": 224160,
          "time": 184.341712,
          "velocity": 0.6456692913385826
        },
        {
          "duration": 0.09703926666668394,
          "durationTicks": 118,
          "midi": 42,
          "name": "F#2",
          "ticks": 224400,
          "time": 184.53907999999998,
          "velocity": 0.6456692913385826
        },
        {
          "duration": 36.412751266666646,
          "durationTicks": 44278,
          "midi": 37,
          "name": "C#2",
          "ticks": 224520,
          "time": 184.63776399999998,
          "velocity": 0.8031496062992126
        },
        {
          "duration": 0.19572326666664708,
          "durationTicks": 238,
          "midi": 35,
          "name": "B1",
          "ticks": 268800,
          "time": 221.05216,
          "velocity": 0.8031496062992126
        },
        {
          "duration": 0.19572326666664708,
          "durationTicks": 238,
          "midi": 42,
          "name": "F#2",
          "ticks": 268800,
          "time": 221.05216,
          "velocity": 0.6456692913385826
        },
        {
          "duration": 0.19572326666664708,
          "durationTicks": 238,
          "midi": 42,
          "name": "F#2",
          "ticks": 269040,
          "time": 221.249528,
          "velocity": 0.6456692913385826
        },
        {
          "duration": 0.19572326666664708,
          "durationTicks": 238,
          "midi": 37,
          "name": "C#2",
          "ticks": 269280,
          "time": 221.44689599999998,
          "velocity": 0.8031496062992126
        },
        {
          "duration": 0.19572326666664708,
          "durationTicks": 238,
          "midi": 42,
          "name": "F#2",
          "ticks": 269280,
          "time": 221.44689599999998,
          "velocity": 0.6456692913385826
        },
        {
          "duration": 0.0970392666666271,
          "durationTicks": 118,
          "midi": 42,
          "name": "F#2",
          "ticks": 269520,
          "time": 221.644264,
          "velocity": 0.6456692913385826
        },
        {
          "duration": 0.09703926666665552,
          "durationTicks": 118,
          "midi": 37,
          "name": "C#2",
          "ticks": 269640,
          "time": 221.74294799999998,
          "velocity": 0.8031496062992126
        },
        {
          "duration": 0.19572326666664708,
          "durationTicks": 238,
          "midi": 35,
          "name": "B1",
          "ticks": 269760,
          "time": 221.84163199999998,
          "velocity": 0.8031496062992126
        },
        {
          "duration": 0.19572326666664708,
          "durationTicks": 238,
          "midi": 42,
          "name": "F#2",
          "ticks": 269760,
          "time": 221.84163199999998,
          "velocity": 0.6456692913385826
        },
        {
          "duration": 0.19572326666664708,
          "durationTicks": 238,
          "midi": 35,
          "name": "B1",
          "ticks": 270000,
          "time": 222.039,
          "velocity": 0.8031496062992126
        },
        {
          "duration": 0.19572326666664708,
          "durationTicks": 238,
          "midi": 42,
          "name": "F#2",
          "ticks": 270000,
          "time": 222.039,
          "velocity": 0.6456692913385826
        },
        {
          "duration": 0.19572326666664708,
          "durationTicks": 238,
          "midi": 37,
          "name": "C#2",
          "ticks": 270240,
          "time": 222.236368,
          "velocity": 0.8031496062992126
        },
        {
          "duration": 0.19572326666664708,
          "durationTicks": 238,
          "midi": 42,
          "name": "F#2",
          "ticks": 270240,
          "time": 222.236368,
          "velocity": 0.6456692913385826
        },
        {
          "duration": 0.09703926666665552,
          "durationTicks": 118,
          "midi": 35,
          "name": "B1",
          "ticks": 270480,
          "time": 222.43373599999998,
          "velocity": 0.8031496062992126
        },
        {
          "duration": 0.09703926666665552,
          "durationTicks": 118,
          "midi": 42,
          "name": "F#2",
          "ticks": 270480,
          "time": 222.43373599999998,
          "velocity": 0.6456692913385826
        },
        {
          "duration": 0.09703926666665552,
          "durationTicks": 118,
          "midi": 37,
          "name": "C#2",
          "ticks": 270600,
          "time": 222.53241999999997,
          "velocity": 0.8031496062992126
        },
        {
          "duration": 0.19572326666664708,
          "durationTicks": 238,
          "midi": 42,
          "name": "F#2",
          "ticks": 270720,
          "time": 222.631104,
          "velocity": 0.6456692913385826
        },
        {
          "duration": 0.19572326666664708,
          "durationTicks": 238,
          "midi": 35,
          "name": "B1",
          "ticks": 270960,
          "time": 222.82847199999998,
          "velocity": 0.8031496062992126
        },
        {
          "duration": 0.19572326666664708,
          "durationTicks": 238,
          "midi": 42,
          "name": "F#2",
          "ticks": 270960,
          "time": 222.82847199999998,
          "velocity": 0.6456692913385826
        },
        {
          "duration": 0.19572326666664708,
          "durationTicks": 238,
          "midi": 37,
          "name": "C#2",
          "ticks": 271200,
          "time": 223.02584,
          "velocity": 0.8031496062992126
        },
        {
          "duration": 0.19572326666664708,
          "durationTicks": 238,
          "midi": 42,
          "name": "F#2",
          "ticks": 271200,
          "time": 223.02584,
          "velocity": 0.6456692913385826
        },
        {
          "duration": 0.0970392666666271,
          "durationTicks": 118,
          "midi": 42,
          "name": "F#2",
          "ticks": 271440,
          "time": 223.223208,
          "velocity": 0.6456692913385826
        },
        {
          "duration": 0.0970392666666271,
          "durationTicks": 118,
          "midi": 37,
          "name": "C#2",
          "ticks": 271560,
          "time": 223.321892,
          "velocity": 0.8031496062992126
        },
        {
          "duration": 0.19572326666664708,
          "durationTicks": 238,
          "midi": 35,
          "name": "B1",
          "ticks": 271680,
          "time": 223.42057599999998,
          "velocity": 0.8031496062992126
        },
        {
          "duration": 0.19572326666664708,
          "durationTicks": 238,
          "midi": 42,
          "name": "F#2",
          "ticks": 271680,
          "time": 223.42057599999998,
          "velocity": 0.6456692913385826
        },
        {
          "duration": 0.19572326666664708,
          "durationTicks": 238,
          "midi": 35,
          "name": "B1",
          "ticks": 271920,
          "time": 223.617944,
          "velocity": 0.8031496062992126
        },
        {
          "duration": 0.19572326666664708,
          "durationTicks": 238,
          "midi": 42,
          "name": "F#2",
          "ticks": 271920,
          "time": 223.617944,
          "velocity": 0.6456692913385826
        },
        {
          "duration": 0.19572326666664708,
          "durationTicks": 238,
          "midi": 37,
          "name": "C#2",
          "ticks": 272160,
          "time": 223.81531199999998,
          "velocity": 0.8031496062992126
        },
        {
          "duration": 0.19572326666664708,
          "durationTicks": 238,
          "midi": 42,
          "name": "F#2",
          "ticks": 272160,
          "time": 223.81531199999998,
          "velocity": 0.6456692913385826
        },
        {
          "duration": 0.09703926666665552,
          "durationTicks": 118,
          "midi": 42,
          "name": "F#2",
          "ticks": 272400,
          "time": 224.01268,
          "velocity": 0.6456692913385826
        },
        {
          "duration": 0.09703926666665552,
          "durationTicks": 118,
          "midi": 37,
          "name": "C#2",
          "ticks": 272520,
          "time": 224.11136399999998,
          "velocity": 0.8031496062992126
        },
        {
          "duration": 0.19572326666664708,
          "durationTicks": 238,
          "midi": 35,
          "name": "B1",
          "ticks": 272640,
          "time": 224.21004799999997,
          "velocity": 0.8031496062992126
        },
        {
          "duration": 0.19572326666664708,
          "durationTicks": 238,
          "midi": 42,
          "name": "F#2",
          "ticks": 272640,
          "time": 224.21004799999997,
          "velocity": 0.6456692913385826
        },
        {
          "duration": 0.19572326666664708,
          "durationTicks": 238,
          "midi": 42,
          "name": "F#2",
          "ticks": 272880,
          "time": 224.40741599999998,
          "velocity": 0.6456692913385826
        },
        {
          "duration": 0.19572326666664708,
          "durationTicks": 238,
          "midi": 37,
          "name": "C#2",
          "ticks": 273120,
          "time": 224.604784,
          "velocity": 0.8031496062992126
        },
        {
          "duration": 0.19572326666664708,
          "durationTicks": 238,
          "midi": 42,
          "name": "F#2",
          "ticks": 273120,
          "time": 224.604784,
          "velocity": 0.6456692913385826
        },
        {
          "duration": 0.09703926666665552,
          "durationTicks": 118,
          "midi": 42,
          "name": "F#2",
          "ticks": 273360,
          "time": 224.80215199999998,
          "velocity": 0.6456692913385826
        },
        {
          "duration": 0.0970392666666271,
          "durationTicks": 118,
          "midi": 37,
          "name": "C#2",
          "ticks": 273480,
          "time": 224.900836,
          "velocity": 0.8031496062992126
        },
        {
          "duration": 0.19572326666664708,
          "durationTicks": 238,
          "midi": 35,
          "name": "B1",
          "ticks": 273600,
          "time": 224.99952,
          "velocity": 0.8031496062992126
        },
        {
          "duration": 0.19572326666664708,
          "durationTicks": 238,
          "midi": 42,
          "name": "F#2",
          "ticks": 273600,
          "time": 224.99952,
          "velocity": 0.6456692913385826
        },
        {
          "duration": 0.19572326666664708,
          "durationTicks": 238,
          "midi": 35,
          "name": "B1",
          "ticks": 273840,
          "time": 225.19688799999997,
          "velocity": 0.8031496062992126
        },
        {
          "duration": 0.19572326666664708,
          "durationTicks": 238,
          "midi": 42,
          "name": "F#2",
          "ticks": 273840,
          "time": 225.19688799999997,
          "velocity": 0.6456692913385826
        },
        {
          "duration": 0.19572326666664708,
          "durationTicks": 238,
          "midi": 37,
          "name": "C#2",
          "ticks": 274080,
          "time": 225.39425599999998,
          "velocity": 0.8031496062992126
        },
        {
          "duration": 0.19572326666664708,
          "durationTicks": 238,
          "midi": 42,
          "name": "F#2",
          "ticks": 274080,
          "time": 225.39425599999998,
          "velocity": 0.6456692913385826
        },
        {
          "duration": 0.0970392666666271,
          "durationTicks": 118,
          "midi": 35,
          "name": "B1",
          "ticks": 274320,
          "time": 225.591624,
          "velocity": 0.8031496062992126
        },
        {
          "duration": 0.0970392666666271,
          "durationTicks": 118,
          "midi": 42,
          "name": "F#2",
          "ticks": 274320,
          "time": 225.591624,
          "velocity": 0.6456692913385826
        },
        {
          "duration": 0.09703926666665552,
          "durationTicks": 118,
          "midi": 37,
          "name": "C#2",
          "ticks": 274440,
          "time": 225.690308,
          "velocity": 0.8031496062992126
        },
        {
          "duration": 0.19572326666664708,
          "durationTicks": 238,
          "midi": 42,
          "name": "F#2",
          "ticks": 274560,
          "time": 225.78899199999998,
          "velocity": 0.6456692913385826
        },
        {
          "duration": 0.19572326666664708,
          "durationTicks": 238,
          "midi": 35,
          "name": "B1",
          "ticks": 274800,
          "time": 225.98636,
          "velocity": 0.8031496062992126
        },
        {
          "duration": 0.19572326666664708,
          "durationTicks": 238,
          "midi": 42,
          "name": "F#2",
          "ticks": 274800,
          "time": 225.98636,
          "velocity": 0.6456692913385826
        },
        {
          "duration": 0.19572326666664708,
          "durationTicks": 238,
          "midi": 37,
          "name": "C#2",
          "ticks": 275040,
          "time": 226.18372799999997,
          "velocity": 0.8031496062992126
        },
        {
          "duration": 0.19572326666664708,
          "durationTicks": 238,
          "midi": 42,
          "name": "F#2",
          "ticks": 275040,
          "time": 226.18372799999997,
          "velocity": 0.6456692913385826
        },
        {
          "duration": 0.09703926666665552,
          "durationTicks": 118,
          "midi": 42,
          "name": "F#2",
          "ticks": 275280,
          "time": 226.38109599999999,
          "velocity": 0.6456692913385826
        },
        {
          "duration": 0.09703926666665552,
          "durationTicks": 118,
          "midi": 37,
          "name": "C#2",
          "ticks": 275400,
          "time": 226.47977999999998,
          "velocity": 0.8031496062992126
        },
        {
          "duration": 0.19572326666664708,
          "durationTicks": 238,
          "midi": 35,
          "name": "B1",
          "ticks": 275520,
          "time": 226.578464,
          "velocity": 0.8031496062992126
        },
        {
          "duration": 0.19572326666664708,
          "durationTicks": 238,
          "midi": 42,
          "name": "F#2",
          "ticks": 275520,
          "time": 226.578464,
          "velocity": 0.6456692913385826
        },
        {
          "duration": 0.19572326666664708,
          "durationTicks": 238,
          "midi": 35,
          "name": "B1",
          "ticks": 275760,
          "time": 226.77583199999998,
          "velocity": 0.8031496062992126
        },
        {
          "duration": 0.19572326666664708,
          "durationTicks": 238,
          "midi": 42,
          "name": "F#2",
          "ticks": 275760,
          "time": 226.77583199999998,
          "velocity": 0.6456692913385826
        },
        {
          "duration": 0.19572326666664708,
          "durationTicks": 238,
          "midi": 37,
          "name": "C#2",
          "ticks": 276000,
          "time": 226.9732,
          "velocity": 0.8031496062992126
        },
        {
          "duration": 0.19572326666664708,
          "durationTicks": 238,
          "midi": 42,
          "name": "F#2",
          "ticks": 276000,
          "time": 226.9732,
          "velocity": 0.6456692913385826
        },
        {
          "duration": 0.09703926666665552,
          "durationTicks": 118,
          "midi": 42,
          "name": "F#2",
          "ticks": 276240,
          "time": 227.17056799999997,
          "velocity": 0.6456692913385826
        },
        {
          "duration": 0.0970392666666271,
          "durationTicks": 118,
          "midi": 37,
          "name": "C#2",
          "ticks": 276360,
          "time": 227.269252,
          "velocity": 0.8031496062992126
        },
        {
          "duration": 0.19572326666664708,
          "durationTicks": 238,
          "midi": 35,
          "name": "B1",
          "ticks": 276480,
          "time": 227.367936,
          "velocity": 0.8031496062992126
        },
        {
          "duration": 0.19572326666664708,
          "durationTicks": 238,
          "midi": 42,
          "name": "F#2",
          "ticks": 276480,
          "time": 227.367936,
          "velocity": 0.6456692913385826
        },
        {
          "duration": 0.19572326666664708,
          "durationTicks": 238,
          "midi": 42,
          "name": "F#2",
          "ticks": 276720,
          "time": 227.565304,
          "velocity": 0.6456692913385826
        },
        {
          "duration": 0.19572326666664708,
          "durationTicks": 238,
          "midi": 37,
          "name": "C#2",
          "ticks": 276960,
          "time": 227.76267199999998,
          "velocity": 0.8031496062992126
        },
        {
          "duration": 0.19572326666664708,
          "durationTicks": 238,
          "midi": 42,
          "name": "F#2",
          "ticks": 276960,
          "time": 227.76267199999998,
          "velocity": 0.6456692913385826
        },
        {
          "duration": 0.0970392666666271,
          "durationTicks": 118,
          "midi": 42,
          "name": "F#2",
          "ticks": 277200,
          "time": 227.96004,
          "velocity": 0.6456692913385826
        },
        {
          "duration": 0.09703926666665552,
          "durationTicks": 118,
          "midi": 37,
          "name": "C#2",
          "ticks": 277320,
          "time": 228.05872399999998,
          "velocity": 0.8031496062992126
        },
        {
          "duration": 0.19572326666664708,
          "durationTicks": 238,
          "midi": 35,
          "name": "B1",
          "ticks": 277440,
          "time": 228.15740799999998,
          "velocity": 0.8031496062992126
        },
        {
          "duration": 0.19572326666664708,
          "durationTicks": 238,
          "midi": 42,
          "name": "F#2",
          "ticks": 277440,
          "time": 228.15740799999998,
          "velocity": 0.6456692913385826
        },
        {
          "duration": 0.19572326666664708,
          "durationTicks": 238,
          "midi": 35,
          "name": "B1",
          "ticks": 277680,
          "time": 228.354776,
          "velocity": 0.8031496062992126
        },
        {
          "duration": 0.19572326666664708,
          "durationTicks": 238,
          "midi": 42,
          "name": "F#2",
          "ticks": 277680,
          "time": 228.354776,
          "velocity": 0.6456692913385826
        },
        {
          "duration": 0.19572326666664708,
          "durationTicks": 238,
          "midi": 37,
          "name": "C#2",
          "ticks": 277920,
          "time": 228.552144,
          "velocity": 0.8031496062992126
        },
        {
          "duration": 0.19572326666664708,
          "durationTicks": 238,
          "midi": 42,
          "name": "F#2",
          "ticks": 277920,
          "time": 228.552144,
          "velocity": 0.6456692913385826
        },
        {
          "duration": 0.09703926666665552,
          "durationTicks": 118,
          "midi": 35,
          "name": "B1",
          "ticks": 278160,
          "time": 228.74951199999998,
          "velocity": 0.8031496062992126
        },
        {
          "duration": 0.09703926666665552,
          "durationTicks": 118,
          "midi": 42,
          "name": "F#2",
          "ticks": 278160,
          "time": 228.74951199999998,
          "velocity": 0.6456692913385826
        },
        {
          "duration": 0.09703926666665552,
          "durationTicks": 118,
          "midi": 37,
          "name": "C#2",
          "ticks": 278280,
          "time": 228.84819599999997,
          "velocity": 0.8031496062992126
        },
        {
          "duration": 0.19572326666664708,
          "durationTicks": 238,
          "midi": 42,
          "name": "F#2",
          "ticks": 278400,
          "time": 228.94688,
          "velocity": 0.6456692913385826
        },
        {
          "duration": 0.19572326666664708,
          "durationTicks": 238,
          "midi": 35,
          "name": "B1",
          "ticks": 278640,
          "time": 229.14424799999998,
          "velocity": 0.8031496062992126
        },
        {
          "duration": 0.19572326666664708,
          "durationTicks": 238,
          "midi": 42,
          "name": "F#2",
          "ticks": 278640,
          "time": 229.14424799999998,
          "velocity": 0.6456692913385826
        },
        {
          "duration": 0.19572326666664708,
          "durationTicks": 238,
          "midi": 37,
          "name": "C#2",
          "ticks": 278880,
          "time": 229.341616,
          "velocity": 0.8031496062992126
        },
        {
          "duration": 0.19572326666664708,
          "durationTicks": 238,
          "midi": 42,
          "name": "F#2",
          "ticks": 278880,
          "time": 229.341616,
          "velocity": 0.6456692913385826
        },
        {
          "duration": 0.0970392666666271,
          "durationTicks": 118,
          "midi": 42,
          "name": "F#2",
          "ticks": 279120,
          "time": 229.538984,
          "velocity": 0.6456692913385826
        },
        {
          "duration": 0.0970392666666271,
          "durationTicks": 118,
          "midi": 37,
          "name": "C#2",
          "ticks": 279240,
          "time": 229.637668,
          "velocity": 0.8031496062992126
        },
        {
          "duration": 0.19572326666664708,
          "durationTicks": 238,
          "midi": 35,
          "name": "B1",
          "ticks": 279360,
          "time": 229.73635199999998,
          "velocity": 0.8031496062992126
        },
        {
          "duration": 0.19572326666664708,
          "durationTicks": 238,
          "midi": 42,
          "name": "F#2",
          "ticks": 279360,
          "time": 229.73635199999998,
          "velocity": 0.6456692913385826
        },
        {
          "duration": 0.19572326666664708,
          "durationTicks": 238,
          "midi": 35,
          "name": "B1",
          "ticks": 279600,
          "time": 229.93372,
          "velocity": 0.8031496062992126
        },
        {
          "duration": 0.19572326666664708,
          "durationTicks": 238,
          "midi": 42,
          "name": "F#2",
          "ticks": 279600,
          "time": 229.93372,
          "velocity": 0.6456692913385826
        },
        {
          "duration": 0.19572326666664708,
          "durationTicks": 238,
          "midi": 37,
          "name": "C#2",
          "ticks": 279840,
          "time": 230.13108799999998,
          "velocity": 0.8031496062992126
        },
        {
          "duration": 0.19572326666664708,
          "durationTicks": 238,
          "midi": 42,
          "name": "F#2",
          "ticks": 279840,
          "time": 230.13108799999998,
          "velocity": 0.6456692913385826
        },
        {
          "duration": 0.09703926666665552,
          "durationTicks": 118,
          "midi": 42,
          "name": "F#2",
          "ticks": 280080,
          "time": 230.328456,
          "velocity": 0.6456692913385826
        },
        {
          "duration": 0.09703926666665552,
          "durationTicks": 118,
          "midi": 37,
          "name": "C#2",
          "ticks": 280200,
          "time": 230.42713999999998,
          "velocity": 0.8031496062992126
        },
        {
          "duration": 0.19572326666661866,
          "durationTicks": 238,
          "midi": 35,
          "name": "B1",
          "ticks": 280320,
          "time": 230.525824,
          "velocity": 0.8031496062992126
        },
        {
          "duration": 0.19572326666661866,
          "durationTicks": 238,
          "midi": 42,
          "name": "F#2",
          "ticks": 280320,
          "time": 230.525824,
          "velocity": 0.6456692913385826
        },
        {
          "duration": 0.19572326666664708,
          "durationTicks": 238,
          "midi": 42,
          "name": "F#2",
          "ticks": 280560,
          "time": 230.72319199999998,
          "velocity": 0.6456692913385826
        },
        {
          "duration": 0.19572326666664708,
          "durationTicks": 238,
          "midi": 37,
          "name": "C#2",
          "ticks": 280800,
          "time": 230.92056,
          "velocity": 0.8031496062992126
        },
        {
          "duration": 0.19572326666664708,
          "durationTicks": 238,
          "midi": 42,
          "name": "F#2",
          "ticks": 280800,
          "time": 230.92056,
          "velocity": 0.6456692913385826
        },
        {
          "duration": 0.09703926666665552,
          "durationTicks": 118,
          "midi": 42,
          "name": "F#2",
          "ticks": 281040,
          "time": 231.11792799999998,
          "velocity": 0.6456692913385826
        },
        {
          "duration": 0.0970392666666271,
          "durationTicks": 118,
          "midi": 37,
          "name": "C#2",
          "ticks": 281160,
          "time": 231.216612,
          "velocity": 0.8031496062992126
        },
        {
          "duration": 0.19572326666664708,
          "durationTicks": 238,
          "midi": 35,
          "name": "B1",
          "ticks": 281280,
          "time": 231.315296,
          "velocity": 0.8031496062992126
        },
        {
          "duration": 0.19572326666664708,
          "durationTicks": 238,
          "midi": 42,
          "name": "F#2",
          "ticks": 281280,
          "time": 231.315296,
          "velocity": 0.6456692913385826
        },
        {
          "duration": 0.19572326666664708,
          "durationTicks": 238,
          "midi": 35,
          "name": "B1",
          "ticks": 281520,
          "time": 231.51266399999997,
          "velocity": 0.8031496062992126
        },
        {
          "duration": 0.19572326666664708,
          "durationTicks": 238,
          "midi": 42,
          "name": "F#2",
          "ticks": 281520,
          "time": 231.51266399999997,
          "velocity": 0.6456692913385826
        },
        {
          "duration": 0.19572326666664708,
          "durationTicks": 238,
          "midi": 37,
          "name": "C#2",
          "ticks": 281760,
          "time": 231.71003199999998,
          "velocity": 0.8031496062992126
        },
        {
          "duration": 0.19572326666664708,
          "durationTicks": 238,
          "midi": 42,
          "name": "F#2",
          "ticks": 281760,
          "time": 231.71003199999998,
          "velocity": 0.6456692913385826
        },
        {
          "duration": 0.0970392666666271,
          "durationTicks": 118,
          "midi": 35,
          "name": "B1",
          "ticks": 282000,
          "time": 231.9074,
          "velocity": 0.8031496062992126
        },
        {
          "duration": 0.0970392666666271,
          "durationTicks": 118,
          "midi": 42,
          "name": "F#2",
          "ticks": 282000,
          "time": 231.9074,
          "velocity": 0.6456692913385826
        },
        {
          "duration": 0.09703926666665552,
          "durationTicks": 118,
          "midi": 37,
          "name": "C#2",
          "ticks": 282120,
          "time": 232.006084,
          "velocity": 0.8031496062992126
        },
        {
          "duration": 0.19572326666664708,
          "durationTicks": 238,
          "midi": 42,
          "name": "F#2",
          "ticks": 282240,
          "time": 232.10476799999998,
          "velocity": 0.6456692913385826
        },
        {
          "duration": 0.19572326666664708,
          "durationTicks": 238,
          "midi": 35,
          "name": "B1",
          "ticks": 282480,
          "time": 232.302136,
          "velocity": 0.8031496062992126
        },
        {
          "duration": 0.19572326666664708,
          "durationTicks": 238,
          "midi": 42,
          "name": "F#2",
          "ticks": 282480,
          "time": 232.302136,
          "velocity": 0.6456692913385826
        },
        {
          "duration": 0.19572326666664708,
          "durationTicks": 238,
          "midi": 37,
          "name": "C#2",
          "ticks": 282720,
          "time": 232.49950399999997,
          "velocity": 0.8031496062992126
        },
        {
          "duration": 0.19572326666664708,
          "durationTicks": 238,
          "midi": 42,
          "name": "F#2",
          "ticks": 282720,
          "time": 232.49950399999997,
          "velocity": 0.6456692913385826
        },
        {
          "duration": 0.09703926666665552,
          "durationTicks": 118,
          "midi": 42,
          "name": "F#2",
          "ticks": 282960,
          "time": 232.69687199999998,
          "velocity": 0.6456692913385826
        },
        {
          "duration": 0.09703926666665552,
          "durationTicks": 118,
          "midi": 37,
          "name": "C#2",
          "ticks": 283080,
          "time": 232.79555599999998,
          "velocity": 0.8031496062992126
        },
        {
          "duration": 0.19572326666664708,
          "durationTicks": 238,
          "midi": 35,
          "name": "B1",
          "ticks": 283200,
          "time": 232.89424,
          "velocity": 0.8031496062992126
        },
        {
          "duration": 0.19572326666664708,
          "durationTicks": 238,
          "midi": 42,
          "name": "F#2",
          "ticks": 283200,
          "time": 232.89424,
          "velocity": 0.6456692913385826
        },
        {
          "duration": 0.19572326666664708,
          "durationTicks": 238,
          "midi": 35,
          "name": "B1",
          "ticks": 283440,
          "time": 233.09160799999998,
          "velocity": 0.8031496062992126
        },
        {
          "duration": 0.19572326666664708,
          "durationTicks": 238,
          "midi": 42,
          "name": "F#2",
          "ticks": 283440,
          "time": 233.09160799999998,
          "velocity": 0.6456692913385826
        },
        {
          "duration": 0.19572326666664708,
          "durationTicks": 238,
          "midi": 37,
          "name": "C#2",
          "ticks": 283680,
          "time": 233.288976,
          "velocity": 0.8031496062992126
        },
        {
          "duration": 0.19572326666664708,
          "durationTicks": 238,
          "midi": 42,
          "name": "F#2",
          "ticks": 283680,
          "time": 233.288976,
          "velocity": 0.6456692913385826
        },
        {
          "duration": 0.09703926666665552,
          "durationTicks": 118,
          "midi": 42,
          "name": "F#2",
          "ticks": 283920,
          "time": 233.48634399999997,
          "velocity": 0.6456692913385826
        },
        {
          "duration": 0.0970392666666271,
          "durationTicks": 118,
          "midi": 37,
          "name": "C#2",
          "ticks": 284040,
          "time": 233.585028,
          "velocity": 0.8031496062992126
        },
        {
          "duration": 0.19572326666664708,
          "durationTicks": 238,
          "midi": 35,
          "name": "B1",
          "ticks": 284160,
          "time": 233.68371199999999,
          "velocity": 0.8031496062992126
        },
        {
          "duration": 0.19572326666664708,
          "durationTicks": 238,
          "midi": 42,
          "name": "F#2",
          "ticks": 284160,
          "time": 233.68371199999999,
          "velocity": 0.6456692913385826
        },
        {
          "duration": 0.19572326666664708,
          "durationTicks": 238,
          "midi": 42,
          "name": "F#2",
          "ticks": 284400,
          "time": 233.88108,
          "velocity": 0.6456692913385826
        },
        {
          "duration": 0.19572326666664708,
          "durationTicks": 238,
          "midi": 37,
          "name": "C#2",
          "ticks": 284640,
          "time": 234.07844799999998,
          "velocity": 0.8031496062992126
        },
        {
          "duration": 0.19572326666664708,
          "durationTicks": 238,
          "midi": 42,
          "name": "F#2",
          "ticks": 284640,
          "time": 234.07844799999998,
          "velocity": 0.6456692913385826
        },
        {
          "duration": 0.0970392666666271,
          "durationTicks": 118,
          "midi": 42,
          "name": "F#2",
          "ticks": 284880,
          "time": 234.275816,
          "velocity": 0.6456692913385826
        },
        {
          "duration": 0.09703926666665552,
          "durationTicks": 118,
          "midi": 37,
          "name": "C#2",
          "ticks": 285000,
          "time": 234.37449999999998,
          "velocity": 0.8031496062992126
        },
        {
          "duration": 0.19572326666664708,
          "durationTicks": 238,
          "midi": 35,
          "name": "B1",
          "ticks": 285120,
          "time": 234.47318399999997,
          "velocity": 0.8031496062992126
        },
        {
          "duration": 0.19572326666664708,
          "durationTicks": 238,
          "midi": 42,
          "name": "F#2",
          "ticks": 285120,
          "time": 234.47318399999997,
          "velocity": 0.6456692913385826
        },
        {
          "duration": 0.19572326666664708,
          "durationTicks": 238,
          "midi": 35,
          "name": "B1",
          "ticks": 285360,
          "time": 234.670552,
          "velocity": 0.8031496062992126
        },
        {
          "duration": 0.19572326666664708,
          "durationTicks": 238,
          "midi": 42,
          "name": "F#2",
          "ticks": 285360,
          "time": 234.670552,
          "velocity": 0.6456692913385826
        },
        {
          "duration": 0.19572326666664708,
          "durationTicks": 238,
          "midi": 37,
          "name": "C#2",
          "ticks": 285600,
          "time": 234.86792,
          "velocity": 0.8031496062992126
        },
        {
          "duration": 0.19572326666664708,
          "durationTicks": 238,
          "midi": 42,
          "name": "F#2",
          "ticks": 285600,
          "time": 234.86792,
          "velocity": 0.6456692913385826
        },
        {
          "duration": 0.09703926666665552,
          "durationTicks": 118,
          "midi": 35,
          "name": "B1",
          "ticks": 285840,
          "time": 235.06528799999998,
          "velocity": 0.8031496062992126
        },
        {
          "duration": 0.09703926666665552,
          "durationTicks": 118,
          "midi": 42,
          "name": "F#2",
          "ticks": 285840,
          "time": 235.06528799999998,
          "velocity": 0.6456692913385826
        },
        {
          "duration": 0.09703926666665552,
          "durationTicks": 118,
          "midi": 37,
          "name": "C#2",
          "ticks": 285960,
          "time": 235.16397199999997,
          "velocity": 0.8031496062992126
        },
        {
          "duration": 0.19572326666664708,
          "durationTicks": 238,
          "midi": 42,
          "name": "F#2",
          "ticks": 286080,
          "time": 235.262656,
          "velocity": 0.6456692913385826
        },
        {
          "duration": 0.19572326666664708,
          "durationTicks": 238,
          "midi": 35,
          "name": "B1",
          "ticks": 286320,
          "time": 235.46002399999998,
          "velocity": 0.8031496062992126
        },
        {
          "duration": 0.19572326666664708,
          "durationTicks": 238,
          "midi": 42,
          "name": "F#2",
          "ticks": 286320,
          "time": 235.46002399999998,
          "velocity": 0.6456692913385826
        },
        {
          "duration": 0.19572326666664708,
          "durationTicks": 238,
          "midi": 37,
          "name": "C#2",
          "ticks": 286560,
          "time": 235.657392,
          "velocity": 0.8031496062992126
        },
        {
          "duration": 0.19572326666664708,
          "durationTicks": 238,
          "midi": 42,
          "name": "F#2",
          "ticks": 286560,
          "time": 235.657392,
          "velocity": 0.6456692913385826
        },
        {
          "duration": 0.0970392666666271,
          "durationTicks": 118,
          "midi": 42,
          "name": "F#2",
          "ticks": 286800,
          "time": 235.85476,
          "velocity": 0.6456692913385826
        },
        {
          "duration": 0.0970392666666271,
          "durationTicks": 118,
          "midi": 37,
          "name": "C#2",
          "ticks": 286920,
          "time": 235.953444,
          "velocity": 0.8031496062992126
        },
        {
          "duration": 0.19572326666664708,
          "durationTicks": 238,
          "midi": 35,
          "name": "B1",
          "ticks": 287040,
          "time": 236.05212799999998,
          "velocity": 0.8031496062992126
        },
        {
          "duration": 0.19572326666664708,
          "durationTicks": 238,
          "midi": 42,
          "name": "F#2",
          "ticks": 287040,
          "time": 236.05212799999998,
          "velocity": 0.6456692913385826
        },
        {
          "duration": 0.19572326666664708,
          "durationTicks": 238,
          "midi": 35,
          "name": "B1",
          "ticks": 287280,
          "time": 236.249496,
          "velocity": 0.8031496062992126
        },
        {
          "duration": 0.19572326666664708,
          "durationTicks": 238,
          "midi": 42,
          "name": "F#2",
          "ticks": 287280,
          "time": 236.249496,
          "velocity": 0.6456692913385826
        },
        {
          "duration": 0.19572326666664708,
          "durationTicks": 238,
          "midi": 37,
          "name": "C#2",
          "ticks": 287520,
          "time": 236.44686399999998,
          "velocity": 0.8031496062992126
        },
        {
          "duration": 0.19572326666664708,
          "durationTicks": 238,
          "midi": 42,
          "name": "F#2",
          "ticks": 287520,
          "time": 236.44686399999998,
          "velocity": 0.6456692913385826
        },
        {
          "duration": 0.09703926666665552,
          "durationTicks": 118,
          "midi": 42,
          "name": "F#2",
          "ticks": 287760,
          "time": 236.644232,
          "velocity": 0.6456692913385826
        },
        {
          "duration": 0.09703926666665552,
          "durationTicks": 118,
          "midi": 37,
          "name": "C#2",
          "ticks": 287880,
          "time": 236.74291599999998,
          "velocity": 0.8031496062992126
        },
        {
          "duration": 0.19572326666664708,
          "durationTicks": 238,
          "midi": 35,
          "name": "B1",
          "ticks": 288000,
          "time": 236.84159999999997,
          "velocity": 0.8031496062992126
        },
        {
          "duration": 0.19572326666664708,
          "durationTicks": 238,
          "midi": 42,
          "name": "F#2",
          "ticks": 288000,
          "time": 236.84159999999997,
          "velocity": 0.6456692913385826
        },
        {
          "duration": 0.19572326666664708,
          "durationTicks": 238,
          "midi": 42,
          "name": "F#2",
          "ticks": 288240,
          "time": 237.03896799999998,
          "velocity": 0.6456692913385826
        },
        {
          "duration": 0.19572326666664708,
          "durationTicks": 238,
          "midi": 37,
          "name": "C#2",
          "ticks": 288480,
          "time": 237.236336,
          "velocity": 0.8031496062992126
        },
        {
          "duration": 0.19572326666664708,
          "durationTicks": 238,
          "midi": 42,
          "name": "F#2",
          "ticks": 288480,
          "time": 237.236336,
          "velocity": 0.6456692913385826
        },
        {
          "duration": 0.09703926666665552,
          "durationTicks": 118,
          "midi": 42,
          "name": "F#2",
          "ticks": 288720,
          "time": 237.43370399999998,
          "velocity": 0.6456692913385826
        },
        {
          "duration": 0.0970392666666271,
          "durationTicks": 118,
          "midi": 37,
          "name": "C#2",
          "ticks": 288840,
          "time": 237.532388,
          "velocity": 0.8031496062992126
        },
        {
          "duration": 0.19572326666664708,
          "durationTicks": 238,
          "midi": 35,
          "name": "B1",
          "ticks": 288960,
          "time": 237.631072,
          "velocity": 0.8031496062992126
        },
        {
          "duration": 0.19572326666664708,
          "durationTicks": 238,
          "midi": 42,
          "name": "F#2",
          "ticks": 288960,
          "time": 237.631072,
          "velocity": 0.6456692913385826
        },
        {
          "duration": 0.19572326666664708,
          "durationTicks": 238,
          "midi": 35,
          "name": "B1",
          "ticks": 289200,
          "time": 237.82843999999997,
          "velocity": 0.8031496062992126
        },
        {
          "duration": 0.19572326666664708,
          "durationTicks": 238,
          "midi": 42,
          "name": "F#2",
          "ticks": 289200,
          "time": 237.82843999999997,
          "velocity": 0.6456692913385826
        },
        {
          "duration": 0.19572326666664708,
          "durationTicks": 238,
          "midi": 37,
          "name": "C#2",
          "ticks": 289440,
          "time": 238.02580799999998,
          "velocity": 0.8031496062992126
        },
        {
          "duration": 0.19572326666664708,
          "durationTicks": 238,
          "midi": 42,
          "name": "F#2",
          "ticks": 289440,
          "time": 238.02580799999998,
          "velocity": 0.6456692913385826
        },
        {
          "duration": 0.0970392666666271,
          "durationTicks": 118,
          "midi": 35,
          "name": "B1",
          "ticks": 289680,
          "time": 238.223176,
          "velocity": 0.8031496062992126
        },
        {
          "duration": 0.0970392666666271,
          "durationTicks": 118,
          "midi": 42,
          "name": "F#2",
          "ticks": 289680,
          "time": 238.223176,
          "velocity": 0.6456692913385826
        },
        {
          "duration": 0.09703926666665552,
          "durationTicks": 118,
          "midi": 37,
          "name": "C#2",
          "ticks": 289800,
          "time": 238.32186,
          "velocity": 0.8031496062992126
        },
        {
          "duration": 0.19572326666664708,
          "durationTicks": 238,
          "midi": 42,
          "name": "F#2",
          "ticks": 289920,
          "time": 238.42054399999998,
          "velocity": 0.6456692913385826
        },
        {
          "duration": 0.19572326666664708,
          "durationTicks": 238,
          "midi": 35,
          "name": "B1",
          "ticks": 290160,
          "time": 238.617912,
          "velocity": 0.8031496062992126
        },
        {
          "duration": 0.19572326666664708,
          "durationTicks": 238,
          "midi": 42,
          "name": "F#2",
          "ticks": 290160,
          "time": 238.617912,
          "velocity": 0.6456692913385826
        },
        {
          "duration": 0.19572326666664708,
          "durationTicks": 238,
          "midi": 37,
          "name": "C#2",
          "ticks": 290400,
          "time": 238.81527999999997,
          "velocity": 0.8031496062992126
        },
        {
          "duration": 0.19572326666664708,
          "durationTicks": 238,
          "midi": 42,
          "name": "F#2",
          "ticks": 290400,
          "time": 238.81527999999997,
          "velocity": 0.6456692913385826
        },
        {
          "duration": 0.09703926666665552,
          "durationTicks": 118,
          "midi": 42,
          "name": "F#2",
          "ticks": 290640,
          "time": 239.01264799999998,
          "velocity": 0.6456692913385826
        },
        {
          "duration": 0.09703926666665552,
          "durationTicks": 118,
          "midi": 37,
          "name": "C#2",
          "ticks": 290760,
          "time": 239.11133199999998,
          "velocity": 0.8031496062992126
        },
        {
          "duration": 0.19572326666664708,
          "durationTicks": 238,
          "midi": 35,
          "name": "B1",
          "ticks": 290880,
          "time": 239.210016,
          "velocity": 0.8031496062992126
        },
        {
          "duration": 0.19572326666664708,
          "durationTicks": 238,
          "midi": 42,
          "name": "F#2",
          "ticks": 290880,
          "time": 239.210016,
          "velocity": 0.6456692913385826
        },
        {
          "duration": 0.19572326666664708,
          "durationTicks": 238,
          "midi": 35,
          "name": "B1",
          "ticks": 291120,
          "time": 239.40738399999998,
          "velocity": 0.8031496062992126
        },
        {
          "duration": 0.19572326666664708,
          "durationTicks": 238,
          "midi": 42,
          "name": "F#2",
          "ticks": 291120,
          "time": 239.40738399999998,
          "velocity": 0.6456692913385826
        },
        {
          "duration": 0.19572326666664708,
          "durationTicks": 238,
          "midi": 37,
          "name": "C#2",
          "ticks": 291360,
          "time": 239.604752,
          "velocity": 0.8031496062992126
        },
        {
          "duration": 0.19572326666664708,
          "durationTicks": 238,
          "midi": 42,
          "name": "F#2",
          "ticks": 291360,
          "time": 239.604752,
          "velocity": 0.6456692913385826
        },
        {
          "duration": 0.09703926666665552,
          "durationTicks": 118,
          "midi": 42,
          "name": "F#2",
          "ticks": 291600,
          "time": 239.80211999999997,
          "velocity": 0.6456692913385826
        },
        {
          "duration": 0.0970392666666271,
          "durationTicks": 118,
          "midi": 37,
          "name": "C#2",
          "ticks": 291720,
          "time": 239.900804,
          "velocity": 0.8031496062992126
        },
        {
          "duration": 0.19572326666664708,
          "durationTicks": 238,
          "midi": 35,
          "name": "B1",
          "ticks": 291840,
          "time": 239.99948799999999,
          "velocity": 0.8031496062992126
        },
        {
          "duration": 0.19572326666664708,
          "durationTicks": 238,
          "midi": 42,
          "name": "F#2",
          "ticks": 291840,
          "time": 239.99948799999999,
          "velocity": 0.6456692913385826
        },
        {
          "duration": 0.19572326666664708,
          "durationTicks": 238,
          "midi": 42,
          "name": "F#2",
          "ticks": 292080,
          "time": 240.196856,
          "velocity": 0.6456692913385826
        },
        {
          "duration": 0.19572326666664708,
          "durationTicks": 238,
          "midi": 37,
          "name": "C#2",
          "ticks": 292320,
          "time": 240.39422399999998,
          "velocity": 0.8031496062992126
        },
        {
          "duration": 0.19572326666664708,
          "durationTicks": 238,
          "midi": 42,
          "name": "F#2",
          "ticks": 292320,
          "time": 240.39422399999998,
          "velocity": 0.6456692913385826
        },
        {
          "duration": 0.0970392666666271,
          "durationTicks": 118,
          "midi": 42,
          "name": "F#2",
          "ticks": 292560,
          "time": 240.591592,
          "velocity": 0.6456692913385826
        },
        {
          "duration": 0.09703926666665552,
          "durationTicks": 118,
          "midi": 37,
          "name": "C#2",
          "ticks": 292680,
          "time": 240.69027599999998,
          "velocity": 0.8031496062992126
        },
        {
          "duration": 0.19572326666664708,
          "durationTicks": 238,
          "midi": 35,
          "name": "B1",
          "ticks": 292800,
          "time": 240.78895999999997,
          "velocity": 0.8031496062992126
        },
        {
          "duration": 0.19572326666664708,
          "durationTicks": 238,
          "midi": 42,
          "name": "F#2",
          "ticks": 292800,
          "time": 240.78895999999997,
          "velocity": 0.6456692913385826
        },
        {
          "duration": 0.19572326666664708,
          "durationTicks": 238,
          "midi": 35,
          "name": "B1",
          "ticks": 293040,
          "time": 240.986328,
          "velocity": 0.8031496062992126
        },
        {
          "duration": 0.19572326666664708,
          "durationTicks": 238,
          "midi": 42,
          "name": "F#2",
          "ticks": 293040,
          "time": 240.986328,
          "velocity": 0.6456692913385826
        },
        {
          "duration": 0.19572326666664708,
          "durationTicks": 238,
          "midi": 37,
          "name": "C#2",
          "ticks": 293280,
          "time": 241.183696,
          "velocity": 0.8031496062992126
        },
        {
          "duration": 0.19572326666664708,
          "durationTicks": 238,
          "midi": 42,
          "name": "F#2",
          "ticks": 293280,
          "time": 241.183696,
          "velocity": 0.6456692913385826
        },
        {
          "duration": 0.09703926666665552,
          "durationTicks": 118,
          "midi": 35,
          "name": "B1",
          "ticks": 293520,
          "time": 241.38106399999998,
          "velocity": 0.8031496062992126
        },
        {
          "duration": 0.09703926666665552,
          "durationTicks": 118,
          "midi": 42,
          "name": "F#2",
          "ticks": 293520,
          "time": 241.38106399999998,
          "velocity": 0.6456692913385826
        },
        {
          "duration": 0.09703926666665552,
          "durationTicks": 118,
          "midi": 37,
          "name": "C#2",
          "ticks": 293640,
          "time": 241.47974799999997,
          "velocity": 0.8031496062992126
        },
        {
          "duration": 0.19572326666664708,
          "durationTicks": 238,
          "midi": 42,
          "name": "F#2",
          "ticks": 293760,
          "time": 241.578432,
          "velocity": 0.6456692913385826
        },
        {
          "duration": 0.19572326666664708,
          "durationTicks": 238,
          "midi": 35,
          "name": "B1",
          "ticks": 294000,
          "time": 241.77579999999998,
          "velocity": 0.8031496062992126
        },
        {
          "duration": 0.19572326666664708,
          "durationTicks": 238,
          "midi": 42,
          "name": "F#2",
          "ticks": 294000,
          "time": 241.77579999999998,
          "velocity": 0.6456692913385826
        },
        {
          "duration": 0.19572326666664708,
          "durationTicks": 238,
          "midi": 37,
          "name": "C#2",
          "ticks": 294240,
          "time": 241.973168,
          "velocity": 0.8031496062992126
        },
        {
          "duration": 0.19572326666664708,
          "durationTicks": 238,
          "midi": 42,
          "name": "F#2",
          "ticks": 294240,
          "time": 241.973168,
          "velocity": 0.6456692913385826
        },
        {
          "duration": 0.0970392666666271,
          "durationTicks": 118,
          "midi": 42,
          "name": "F#2",
          "ticks": 294480,
          "time": 242.170536,
          "velocity": 0.6456692913385826
        },
        {
          "duration": 0.0970392666666271,
          "durationTicks": 118,
          "midi": 37,
          "name": "C#2",
          "ticks": 294600,
          "time": 242.26922,
          "velocity": 0.8031496062992126
        },
        {
          "duration": 0.19572326666664708,
          "durationTicks": 238,
          "midi": 35,
          "name": "B1",
          "ticks": 294720,
          "time": 242.36790399999998,
          "velocity": 0.8031496062992126
        },
        {
          "duration": 0.19572326666664708,
          "durationTicks": 238,
          "midi": 42,
          "name": "F#2",
          "ticks": 294720,
          "time": 242.36790399999998,
          "velocity": 0.6456692913385826
        },
        {
          "duration": 0.19572326666664708,
          "durationTicks": 238,
          "midi": 35,
          "name": "B1",
          "ticks": 294960,
          "time": 242.565272,
          "velocity": 0.8031496062992126
        },
        {
          "duration": 0.19572326666664708,
          "durationTicks": 238,
          "midi": 42,
          "name": "F#2",
          "ticks": 294960,
          "time": 242.565272,
          "velocity": 0.6456692913385826
        },
        {
          "duration": 0.19572326666664708,
          "durationTicks": 238,
          "midi": 37,
          "name": "C#2",
          "ticks": 295200,
          "time": 242.76263999999998,
          "velocity": 0.8031496062992126
        },
        {
          "duration": 0.19572326666664708,
          "durationTicks": 238,
          "midi": 42,
          "name": "F#2",
          "ticks": 295200,
          "time": 242.76263999999998,
          "velocity": 0.6456692913385826
        },
        {
          "duration": 0.09703926666665552,
          "durationTicks": 118,
          "midi": 42,
          "name": "F#2",
          "ticks": 295440,
          "time": 242.960008,
          "velocity": 0.6456692913385826
        },
        {
          "duration": 0.09703926666665552,
          "durationTicks": 118,
          "midi": 37,
          "name": "C#2",
          "ticks": 295560,
          "time": 243.05869199999998,
          "velocity": 0.8031496062992126
        },
        {
          "duration": 0.19572326666661866,
          "durationTicks": 238,
          "midi": 35,
          "name": "B1",
          "ticks": 295680,
          "time": 243.157376,
          "velocity": 0.8031496062992126
        },
        {
          "duration": 0.19572326666661866,
          "durationTicks": 238,
          "midi": 42,
          "name": "F#2",
          "ticks": 295680,
          "time": 243.157376,
          "velocity": 0.6456692913385826
        },
        {
          "duration": 0.19572326666664708,
          "durationTicks": 238,
          "midi": 42,
          "name": "F#2",
          "ticks": 295920,
          "time": 243.35474399999998,
          "velocity": 0.6456692913385826
        },
        {
          "duration": 0.19572326666664708,
          "durationTicks": 238,
          "midi": 37,
          "name": "C#2",
          "ticks": 296160,
          "time": 243.552112,
          "velocity": 0.8031496062992126
        },
        {
          "duration": 0.19572326666664708,
          "durationTicks": 238,
          "midi": 42,
          "name": "F#2",
          "ticks": 296160,
          "time": 243.552112,
          "velocity": 0.6456692913385826
        },
        {
          "duration": 0.09703926666665552,
          "durationTicks": 118,
          "midi": 42,
          "name": "F#2",
          "ticks": 296400,
          "time": 243.74947999999998,
          "velocity": 0.6456692913385826
        },
        {
          "duration": 0.0970392666666271,
          "durationTicks": 118,
          "midi": 37,
          "name": "C#2",
          "ticks": 296520,
          "time": 243.848164,
          "velocity": 0.8031496062992126
        },
        {
          "duration": 0.19572326666664708,
          "durationTicks": 238,
          "midi": 35,
          "name": "B1",
          "ticks": 296640,
          "time": 243.946848,
          "velocity": 0.8031496062992126
        },
        {
          "duration": 0.19572326666664708,
          "durationTicks": 238,
          "midi": 42,
          "name": "F#2",
          "ticks": 296640,
          "time": 243.946848,
          "velocity": 0.6456692913385826
        },
        {
          "duration": 0.19572326666664708,
          "durationTicks": 238,
          "midi": 35,
          "name": "B1",
          "ticks": 296880,
          "time": 244.14421599999997,
          "velocity": 0.8031496062992126
        },
        {
          "duration": 0.19572326666664708,
          "durationTicks": 238,
          "midi": 42,
          "name": "F#2",
          "ticks": 296880,
          "time": 244.14421599999997,
          "velocity": 0.6456692913385826
        },
        {
          "duration": 0.19572326666664708,
          "durationTicks": 238,
          "midi": 37,
          "name": "C#2",
          "ticks": 297120,
          "time": 244.34158399999998,
          "velocity": 0.8031496062992126
        },
        {
          "duration": 0.19572326666664708,
          "durationTicks": 238,
          "midi": 42,
          "name": "F#2",
          "ticks": 297120,
          "time": 244.34158399999998,
          "velocity": 0.6456692913385826
        },
        {
          "duration": 0.0970392666666271,
          "durationTicks": 118,
          "midi": 35,
          "name": "B1",
          "ticks": 297360,
          "time": 244.538952,
          "velocity": 0.8031496062992126
        },
        {
          "duration": 0.0970392666666271,
          "durationTicks": 118,
          "midi": 42,
          "name": "F#2",
          "ticks": 297360,
          "time": 244.538952,
          "velocity": 0.6456692913385826
        },
        {
          "duration": 0.09703926666665552,
          "durationTicks": 118,
          "midi": 37,
          "name": "C#2",
          "ticks": 297480,
          "time": 244.637636,
          "velocity": 0.8031496062992126
        },
        {
          "duration": 0.19572326666664708,
          "durationTicks": 238,
          "midi": 42,
          "name": "F#2",
          "ticks": 297600,
          "time": 244.73631999999998,
          "velocity": 0.6456692913385826
        },
        {
          "duration": 0.19572326666664708,
          "durationTicks": 238,
          "midi": 35,
          "name": "B1",
          "ticks": 297840,
          "time": 244.933688,
          "velocity": 0.8031496062992126
        },
        {
          "duration": 0.19572326666664708,
          "durationTicks": 238,
          "midi": 42,
          "name": "F#2",
          "ticks": 297840,
          "time": 244.933688,
          "velocity": 0.6456692913385826
        },
        {
          "duration": 0.19572326666664708,
          "durationTicks": 238,
          "midi": 37,
          "name": "C#2",
          "ticks": 298080,
          "time": 245.13105599999997,
          "velocity": 0.8031496062992126
        },
        {
          "duration": 0.19572326666664708,
          "durationTicks": 238,
          "midi": 42,
          "name": "F#2",
          "ticks": 298080,
          "time": 245.13105599999997,
          "velocity": 0.6456692913385826
        },
        {
          "duration": 0.09703926666665552,
          "durationTicks": 118,
          "midi": 42,
          "name": "F#2",
          "ticks": 298320,
          "time": 245.32842399999998,
          "velocity": 0.6456692913385826
        },
        {
          "duration": 0.09703926666665552,
          "durationTicks": 118,
          "midi": 37,
          "name": "C#2",
          "ticks": 298440,
          "time": 245.42710799999998,
          "velocity": 0.8031496062992126
        },
        {
          "duration": 0.19572326666664708,
          "durationTicks": 238,
          "midi": 35,
          "name": "B1",
          "ticks": 298560,
          "time": 245.525792,
          "velocity": 0.8031496062992126
        },
        {
          "duration": 0.19572326666664708,
          "durationTicks": 238,
          "midi": 42,
          "name": "F#2",
          "ticks": 298560,
          "time": 245.525792,
          "velocity": 0.6456692913385826
        },
        {
          "duration": 0.19572326666664708,
          "durationTicks": 238,
          "midi": 35,
          "name": "B1",
          "ticks": 298800,
          "time": 245.72315999999998,
          "velocity": 0.8031496062992126
        },
        {
          "duration": 0.19572326666664708,
          "durationTicks": 238,
          "midi": 42,
          "name": "F#2",
          "ticks": 298800,
          "time": 245.72315999999998,
          "velocity": 0.6456692913385826
        },
        {
          "duration": 0.19572326666664708,
          "durationTicks": 238,
          "midi": 37,
          "name": "C#2",
          "ticks": 299040,
          "time": 245.920528,
          "velocity": 0.8031496062992126
        },
        {
          "duration": 0.19572326666664708,
          "durationTicks": 238,
          "midi": 42,
          "name": "F#2",
          "ticks": 299040,
          "time": 245.920528,
          "velocity": 0.6456692913385826
        },
        {
          "duration": 0.09703926666665552,
          "durationTicks": 118,
          "midi": 42,
          "name": "F#2",
          "ticks": 299280,
          "time": 246.11789599999997,
          "velocity": 0.6456692913385826
        },
        {
          "duration": 0.0970392666666271,
          "durationTicks": 118,
          "midi": 37,
          "name": "C#2",
          "ticks": 299400,
          "time": 246.21658,
          "velocity": 0.8031496062992126
        },
        {
          "duration": 0.19572326666664708,
          "durationTicks": 238,
          "midi": 35,
          "name": "B1",
          "ticks": 299520,
          "time": 246.31526399999998,
          "velocity": 0.8031496062992126
        },
        {
          "duration": 0.19572326666664708,
          "durationTicks": 238,
          "midi": 42,
          "name": "F#2",
          "ticks": 299520,
          "time": 246.31526399999998,
          "velocity": 0.6456692913385826
        },
        {
          "duration": 0.19572326666664708,
          "durationTicks": 238,
          "midi": 42,
          "name": "F#2",
          "ticks": 299760,
          "time": 246.512632,
          "velocity": 0.6456692913385826
        },
        {
          "duration": 0.19572326666664708,
          "durationTicks": 238,
          "midi": 37,
          "name": "C#2",
          "ticks": 300000,
          "time": 246.70999999999998,
          "velocity": 0.8031496062992126
        },
        {
          "duration": 0.19572326666664708,
          "durationTicks": 238,
          "midi": 42,
          "name": "F#2",
          "ticks": 300000,
          "time": 246.70999999999998,
          "velocity": 0.6456692913385826
        },
        {
          "duration": 0.0970392666666271,
          "durationTicks": 118,
          "midi": 42,
          "name": "F#2",
          "ticks": 300240,
          "time": 246.907368,
          "velocity": 0.6456692913385826
        },
        {
          "duration": 0.09703926666665552,
          "durationTicks": 118,
          "midi": 37,
          "name": "C#2",
          "ticks": 300360,
          "time": 247.00605199999998,
          "velocity": 0.8031496062992126
        },
        {
          "duration": 0.19572326666664708,
          "durationTicks": 238,
          "midi": 35,
          "name": "B1",
          "ticks": 300480,
          "time": 247.10473599999997,
          "velocity": 0.8031496062992126
        },
        {
          "duration": 0.19572326666664708,
          "durationTicks": 238,
          "midi": 42,
          "name": "F#2",
          "ticks": 300480,
          "time": 247.10473599999997,
          "velocity": 0.6456692913385826
        },
        {
          "duration": 0.19572326666664708,
          "durationTicks": 238,
          "midi": 35,
          "name": "B1",
          "ticks": 300720,
          "time": 247.30210399999999,
          "velocity": 0.8031496062992126
        },
        {
          "duration": 0.19572326666664708,
          "durationTicks": 238,
          "midi": 42,
          "name": "F#2",
          "ticks": 300720,
          "time": 247.30210399999999,
          "velocity": 0.6456692913385826
        },
        {
          "duration": 0.19572326666664708,
          "durationTicks": 238,
          "midi": 37,
          "name": "C#2",
          "ticks": 300960,
          "time": 247.499472,
          "velocity": 0.8031496062992126
        },
        {
          "duration": 0.19572326666664708,
          "durationTicks": 238,
          "midi": 42,
          "name": "F#2",
          "ticks": 300960,
          "time": 247.499472,
          "velocity": 0.6456692913385826
        },
        {
          "duration": 0.09703926666665552,
          "durationTicks": 118,
          "midi": 35,
          "name": "B1",
          "ticks": 301200,
          "time": 247.69683999999998,
          "velocity": 0.8031496062992126
        },
        {
          "duration": 0.09703926666665552,
          "durationTicks": 118,
          "midi": 42,
          "name": "F#2",
          "ticks": 301200,
          "time": 247.69683999999998,
          "velocity": 0.6456692913385826
        },
        {
          "duration": 0.09703926666665552,
          "durationTicks": 118,
          "midi": 37,
          "name": "C#2",
          "ticks": 301320,
          "time": 247.79552399999997,
          "velocity": 0.8031496062992126
        },
        {
          "duration": 0.19572326666664708,
          "durationTicks": 238,
          "midi": 42,
          "name": "F#2",
          "ticks": 301440,
          "time": 247.894208,
          "velocity": 0.6456692913385826
        },
        {
          "duration": 0.19572326666664708,
          "durationTicks": 238,
          "midi": 35,
          "name": "B1",
          "ticks": 301680,
          "time": 248.09157599999998,
          "velocity": 0.8031496062992126
        },
        {
          "duration": 0.19572326666664708,
          "durationTicks": 238,
          "midi": 42,
          "name": "F#2",
          "ticks": 301680,
          "time": 248.09157599999998,
          "velocity": 0.6456692913385826
        },
        {
          "duration": 0.19572326666664708,
          "durationTicks": 238,
          "midi": 37,
          "name": "C#2",
          "ticks": 301920,
          "time": 248.288944,
          "velocity": 0.8031496062992126
        },
        {
          "duration": 0.19572326666664708,
          "durationTicks": 238,
          "midi": 42,
          "name": "F#2",
          "ticks": 301920,
          "time": 248.288944,
          "velocity": 0.6456692913385826
        },
        {
          "duration": 0.0970392666666271,
          "durationTicks": 118,
          "midi": 42,
          "name": "F#2",
          "ticks": 302160,
          "time": 248.486312,
          "velocity": 0.6456692913385826
        },
        {
          "duration": 0.0970392666666271,
          "durationTicks": 118,
          "midi": 37,
          "name": "C#2",
          "ticks": 302280,
          "time": 248.584996,
          "velocity": 0.8031496062992126
        },
        {
          "duration": 0.19572326666664708,
          "durationTicks": 238,
          "midi": 35,
          "name": "B1",
          "ticks": 302400,
          "time": 248.68367999999998,
          "velocity": 0.8031496062992126
        },
        {
          "duration": 0.19572326666664708,
          "durationTicks": 238,
          "midi": 42,
          "name": "F#2",
          "ticks": 302400,
          "time": 248.68367999999998,
          "velocity": 0.6456692913385826
        },
        {
          "duration": 0.19572326666664708,
          "durationTicks": 238,
          "midi": 35,
          "name": "B1",
          "ticks": 302640,
          "time": 248.881048,
          "velocity": 0.8031496062992126
        },
        {
          "duration": 0.19572326666664708,
          "durationTicks": 238,
          "midi": 42,
          "name": "F#2",
          "ticks": 302640,
          "time": 248.881048,
          "velocity": 0.6456692913385826
        },
        {
          "duration": 0.19572326666664708,
          "durationTicks": 238,
          "midi": 37,
          "name": "C#2",
          "ticks": 302880,
          "time": 249.07841599999998,
          "velocity": 0.8031496062992126
        },
        {
          "duration": 0.19572326666664708,
          "durationTicks": 238,
          "midi": 42,
          "name": "F#2",
          "ticks": 302880,
          "time": 249.07841599999998,
          "velocity": 0.6456692913385826
        },
        {
          "duration": 0.09703926666665552,
          "durationTicks": 118,
          "midi": 42,
          "name": "F#2",
          "ticks": 303120,
          "time": 249.275784,
          "velocity": 0.6456692913385826
        },
        {
          "duration": 0.09703926666665552,
          "durationTicks": 118,
          "midi": 37,
          "name": "C#2",
          "ticks": 303240,
          "time": 249.37446799999998,
          "velocity": 0.8031496062992126
        },
        {
          "duration": 0.19572326666664708,
          "durationTicks": 238,
          "midi": 35,
          "name": "B1",
          "ticks": 303360,
          "time": 249.47315199999997,
          "velocity": 0.8031496062992126
        },
        {
          "duration": 0.19572326666664708,
          "durationTicks": 238,
          "midi": 42,
          "name": "F#2",
          "ticks": 303360,
          "time": 249.47315199999997,
          "velocity": 0.6456692913385826
        },
        {
          "duration": 0.19572326666664708,
          "durationTicks": 238,
          "midi": 42,
          "name": "F#2",
          "ticks": 303600,
          "time": 249.67051999999998,
          "velocity": 0.6456692913385826
        },
        {
          "duration": 0.19572326666664708,
          "durationTicks": 238,
          "midi": 37,
          "name": "C#2",
          "ticks": 303840,
          "time": 249.867888,
          "velocity": 0.8031496062992126
        },
        {
          "duration": 0.19572326666664708,
          "durationTicks": 238,
          "midi": 42,
          "name": "F#2",
          "ticks": 303840,
          "time": 249.867888,
          "velocity": 0.6456692913385826
        },
        {
          "duration": 0.09703926666665552,
          "durationTicks": 118,
          "midi": 42,
          "name": "F#2",
          "ticks": 304080,
          "time": 250.06525599999998,
          "velocity": 0.6456692913385826
        },
        {
          "duration": 0.0970392666666271,
          "durationTicks": 118,
          "midi": 37,
          "name": "C#2",
          "ticks": 304200,
          "time": 250.16394,
          "velocity": 0.8031496062992126
        },
        {
          "duration": 0.19572326666664708,
          "durationTicks": 238,
          "midi": 35,
          "name": "B1",
          "ticks": 304320,
          "time": 250.262624,
          "velocity": 0.8031496062992126
        },
        {
          "duration": 0.19572326666664708,
          "durationTicks": 238,
          "midi": 42,
          "name": "F#2",
          "ticks": 304320,
          "time": 250.262624,
          "velocity": 0.6456692913385826
        },
        {
          "duration": 0.19572326666664708,
          "durationTicks": 238,
          "midi": 35,
          "name": "B1",
          "ticks": 304560,
          "time": 250.45999199999997,
          "velocity": 0.8031496062992126
        },
        {
          "duration": 0.19572326666664708,
          "durationTicks": 238,
          "midi": 42,
          "name": "F#2",
          "ticks": 304560,
          "time": 250.45999199999997,
          "velocity": 0.6456692913385826
        },
        {
          "duration": 0.19572326666664708,
          "durationTicks": 238,
          "midi": 37,
          "name": "C#2",
          "ticks": 304800,
          "time": 250.65735999999998,
          "velocity": 0.8031496062992126
        },
        {
          "duration": 0.19572326666664708,
          "durationTicks": 238,
          "midi": 42,
          "name": "F#2",
          "ticks": 304800,
          "time": 250.65735999999998,
          "velocity": 0.6456692913385826
        },
        {
          "duration": 0.0970392666666271,
          "durationTicks": 118,
          "midi": 35,
          "name": "B1",
          "ticks": 305040,
          "time": 250.854728,
          "velocity": 0.8031496062992126
        },
        {
          "duration": 0.0970392666666271,
          "durationTicks": 118,
          "midi": 42,
          "name": "F#2",
          "ticks": 305040,
          "time": 250.854728,
          "velocity": 0.6456692913385826
        },
        {
          "duration": 0.09703926666665552,
          "durationTicks": 118,
          "midi": 37,
          "name": "C#2",
          "ticks": 305160,
          "time": 250.953412,
          "velocity": 0.8031496062992126
        },
        {
          "duration": 0.19572326666664708,
          "durationTicks": 238,
          "midi": 42,
          "name": "F#2",
          "ticks": 305280,
          "time": 251.05209599999998,
          "velocity": 0.6456692913385826
        },
        {
          "duration": 0.19572326666664708,
          "durationTicks": 238,
          "midi": 35,
          "name": "B1",
          "ticks": 305520,
          "time": 251.249464,
          "velocity": 0.8031496062992126
        },
        {
          "duration": 0.19572326666664708,
          "durationTicks": 238,
          "midi": 42,
          "name": "F#2",
          "ticks": 305520,
          "time": 251.249464,
          "velocity": 0.6456692913385826
        },
        {
          "duration": 0.19572326666664708,
          "durationTicks": 238,
          "midi": 37,
          "name": "C#2",
          "ticks": 305760,
          "time": 251.44683199999997,
          "velocity": 0.8031496062992126
        },
        {
          "duration": 0.19572326666664708,
          "durationTicks": 238,
          "midi": 42,
          "name": "F#2",
          "ticks": 305760,
          "time": 251.44683199999997,
          "velocity": 0.6456692913385826
        },
        {
          "duration": 0.09703926666665552,
          "durationTicks": 118,
          "midi": 42,
          "name": "F#2",
          "ticks": 306000,
          "time": 251.64419999999998,
          "velocity": 0.6456692913385826
        },
        {
          "duration": 0.09703926666665552,
          "durationTicks": 118,
          "midi": 37,
          "name": "C#2",
          "ticks": 306120,
          "time": 251.74288399999998,
          "velocity": 0.8031496062992126
        },
        {
          "duration": 0.19572326666664708,
          "durationTicks": 238,
          "midi": 35,
          "name": "B1",
          "ticks": 306240,
          "time": 251.841568,
          "velocity": 0.8031496062992126
        },
        {
          "duration": 0.19572326666664708,
          "durationTicks": 238,
          "midi": 42,
          "name": "F#2",
          "ticks": 306240,
          "time": 251.841568,
          "velocity": 0.6456692913385826
        },
        {
          "duration": 0.19572326666664708,
          "durationTicks": 238,
          "midi": 35,
          "name": "B1",
          "ticks": 306480,
          "time": 252.03893599999998,
          "velocity": 0.8031496062992126
        },
        {
          "duration": 0.19572326666664708,
          "durationTicks": 238,
          "midi": 42,
          "name": "F#2",
          "ticks": 306480,
          "time": 252.03893599999998,
          "velocity": 0.6456692913385826
        },
        {
          "duration": 0.19572326666664708,
          "durationTicks": 238,
          "midi": 37,
          "name": "C#2",
          "ticks": 306720,
          "time": 252.236304,
          "velocity": 0.8031496062992126
        },
        {
          "duration": 0.19572326666664708,
          "durationTicks": 238,
          "midi": 42,
          "name": "F#2",
          "ticks": 306720,
          "time": 252.236304,
          "velocity": 0.6456692913385826
        },
        {
          "duration": 0.09703926666665552,
          "durationTicks": 118,
          "midi": 42,
          "name": "F#2",
          "ticks": 306960,
          "time": 252.43367199999997,
          "velocity": 0.6456692913385826
        },
        {
          "duration": 0.0970392666666271,
          "durationTicks": 118,
          "midi": 37,
          "name": "C#2",
          "ticks": 307080,
          "time": 252.532356,
          "velocity": 0.8031496062992126
        },
        {
          "duration": 0.19572326666664708,
          "durationTicks": 238,
          "midi": 35,
          "name": "B1",
          "ticks": 307200,
          "time": 252.63103999999998,
          "velocity": 0.8031496062992126
        },
        {
          "duration": 0.19572326666664708,
          "durationTicks": 238,
          "midi": 42,
          "name": "F#2",
          "ticks": 307200,
          "time": 252.63103999999998,
          "velocity": 0.6456692913385826
        },
        {
          "duration": 0.19572326666664708,
          "durationTicks": 238,
          "midi": 42,
          "name": "F#2",
          "ticks": 307440,
          "time": 252.828408,
          "velocity": 0.6456692913385826
        },
        {
          "duration": 0.19572326666664708,
          "durationTicks": 238,
          "midi": 37,
          "name": "C#2",
          "ticks": 307680,
          "time": 253.02577599999998,
          "velocity": 0.8031496062992126
        },
        {
          "duration": 0.19572326666664708,
          "durationTicks": 238,
          "midi": 42,
          "name": "F#2",
          "ticks": 307680,
          "time": 253.02577599999998,
          "velocity": 0.6456692913385826
        },
        {
          "duration": 0.0970392666666271,
          "durationTicks": 118,
          "midi": 42,
          "name": "F#2",
          "ticks": 307920,
          "time": 253.223144,
          "velocity": 0.6456692913385826
        },
        {
          "duration": 0.09703926666665552,
          "durationTicks": 118,
          "midi": 37,
          "name": "C#2",
          "ticks": 308040,
          "time": 253.32182799999998,
          "velocity": 0.8031496062992126
        },
        {
          "duration": 0.19572326666664708,
          "durationTicks": 238,
          "midi": 35,
          "name": "B1",
          "ticks": 308160,
          "time": 253.42051199999997,
          "velocity": 0.8031496062992126
        },
        {
          "duration": 0.19572326666664708,
          "durationTicks": 238,
          "midi": 42,
          "name": "F#2",
          "ticks": 308160,
          "time": 253.42051199999997,
          "velocity": 0.6456692913385826
        },
        {
          "duration": 0.19572326666664708,
          "durationTicks": 238,
          "midi": 35,
          "name": "B1",
          "ticks": 308400,
          "time": 253.61787999999999,
          "velocity": 0.8031496062992126
        },
        {
          "duration": 0.19572326666664708,
          "durationTicks": 238,
          "midi": 42,
          "name": "F#2",
          "ticks": 308400,
          "time": 253.61787999999999,
          "velocity": 0.6456692913385826
        },
        {
          "duration": 0.19572326666664708,
          "durationTicks": 238,
          "midi": 37,
          "name": "C#2",
          "ticks": 308640,
          "time": 253.815248,
          "velocity": 0.8031496062992126
        },
        {
          "duration": 0.19572326666664708,
          "durationTicks": 238,
          "midi": 42,
          "name": "F#2",
          "ticks": 308640,
          "time": 253.815248,
          "velocity": 0.6456692913385826
        },
        {
          "duration": 0.09703926666665552,
          "durationTicks": 118,
          "midi": 35,
          "name": "B1",
          "ticks": 308880,
          "time": 254.01261599999998,
          "velocity": 0.8031496062992126
        },
        {
          "duration": 0.09703926666665552,
          "durationTicks": 118,
          "midi": 42,
          "name": "F#2",
          "ticks": 308880,
          "time": 254.01261599999998,
          "velocity": 0.6456692913385826
        },
        {
          "duration": 0.09703926666665552,
          "durationTicks": 118,
          "midi": 37,
          "name": "C#2",
          "ticks": 309000,
          "time": 254.11129999999997,
          "velocity": 0.8031496062992126
        },
        {
          "duration": 0.19572326666664708,
          "durationTicks": 238,
          "midi": 42,
          "name": "F#2",
          "ticks": 309120,
          "time": 254.209984,
          "velocity": 0.6456692913385826
        },
        {
          "duration": 0.19572326666664708,
          "durationTicks": 238,
          "midi": 35,
          "name": "B1",
          "ticks": 309360,
          "time": 254.40735199999997,
          "velocity": 0.8031496062992126
        },
        {
          "duration": 0.19572326666664708,
          "durationTicks": 238,
          "midi": 42,
          "name": "F#2",
          "ticks": 309360,
          "time": 254.40735199999997,
          "velocity": 0.6456692913385826
        },
        {
          "duration": 0.19572326666664708,
          "durationTicks": 238,
          "midi": 37,
          "name": "C#2",
          "ticks": 309600,
          "time": 254.60472,
          "velocity": 0.8031496062992126
        },
        {
          "duration": 0.19572326666664708,
          "durationTicks": 238,
          "midi": 42,
          "name": "F#2",
          "ticks": 309600,
          "time": 254.60472,
          "velocity": 0.6456692913385826
        },
        {
          "duration": 0.0970392666666271,
          "durationTicks": 118,
          "midi": 42,
          "name": "F#2",
          "ticks": 309840,
          "time": 254.802088,
          "velocity": 0.6456692913385826
        },
        {
          "duration": 0.0970392666666271,
          "durationTicks": 118,
          "midi": 37,
          "name": "C#2",
          "ticks": 309960,
          "time": 254.900772,
          "velocity": 0.8031496062992126
        },
        {
          "duration": 0.19572326666664708,
          "durationTicks": 238,
          "midi": 35,
          "name": "B1",
          "ticks": 310080,
          "time": 254.99945599999998,
          "velocity": 0.8031496062992126
        },
        {
          "duration": 0.19572326666664708,
          "durationTicks": 238,
          "midi": 42,
          "name": "F#2",
          "ticks": 310080,
          "time": 254.99945599999998,
          "velocity": 0.6456692913385826
        },
        {
          "duration": 0.19572326666664708,
          "durationTicks": 238,
          "midi": 35,
          "name": "B1",
          "ticks": 310320,
          "time": 255.196824,
          "velocity": 0.8031496062992126
        },
        {
          "duration": 0.19572326666664708,
          "durationTicks": 238,
          "midi": 42,
          "name": "F#2",
          "ticks": 310320,
          "time": 255.196824,
          "velocity": 0.6456692913385826
        },
        {
          "duration": 0.19572326666664708,
          "durationTicks": 238,
          "midi": 37,
          "name": "C#2",
          "ticks": 310560,
          "time": 255.39419199999998,
          "velocity": 0.8031496062992126
        },
        {
          "duration": 0.19572326666664708,
          "durationTicks": 238,
          "midi": 42,
          "name": "F#2",
          "ticks": 310560,
          "time": 255.39419199999998,
          "velocity": 0.6456692913385826
        },
        {
          "duration": 0.09703926666665552,
          "durationTicks": 118,
          "midi": 42,
          "name": "F#2",
          "ticks": 310800,
          "time": 255.59156,
          "velocity": 0.6456692913385826
        },
        {
          "duration": 0.09703926666665552,
          "durationTicks": 118,
          "midi": 37,
          "name": "C#2",
          "ticks": 310920,
          "time": 255.69024399999998,
          "velocity": 0.8031496062992126
        },
        {
          "duration": 0.19572326666661866,
          "durationTicks": 238,
          "midi": 35,
          "name": "B1",
          "ticks": 311040,
          "time": 255.788928,
          "velocity": 0.8031496062992126
        },
        {
          "duration": 0.19572326666661866,
          "durationTicks": 238,
          "midi": 42,
          "name": "F#2",
          "ticks": 311040,
          "time": 255.788928,
          "velocity": 0.6456692913385826
        },
        {
          "duration": 0.1957232666666755,
          "durationTicks": 238,
          "midi": 42,
          "name": "F#2",
          "ticks": 311280,
          "time": 255.98629599999998,
          "velocity": 0.6456692913385826
        },
        {
          "duration": 0.1957232666666755,
          "durationTicks": 238,
          "midi": 37,
          "name": "C#2",
          "ticks": 311520,
          "time": 256.18366399999996,
          "velocity": 0.8031496062992126
        },
        {
          "duration": 0.1957232666666755,
          "durationTicks": 238,
          "midi": 42,
          "name": "F#2",
          "ticks": 311520,
          "time": 256.18366399999996,
          "velocity": 0.6456692913385826
        },
        {
          "duration": 0.0970392666666271,
          "durationTicks": 118,
          "midi": 42,
          "name": "F#2",
          "ticks": 311760,
          "time": 256.381032,
          "velocity": 0.6456692913385826
        },
        {
          "duration": 0.0970392666666271,
          "durationTicks": 118,
          "midi": 37,
          "name": "C#2",
          "ticks": 311880,
          "time": 256.479716,
          "velocity": 0.8031496062992126
        },
        {
          "duration": 0.19572326666661866,
          "durationTicks": 238,
          "midi": 35,
          "name": "B1",
          "ticks": 312000,
          "time": 256.5784,
          "velocity": 0.8031496062992126
        },
        {
          "duration": 0.19572326666661866,
          "durationTicks": 238,
          "midi": 42,
          "name": "F#2",
          "ticks": 312000,
          "time": 256.5784,
          "velocity": 0.6456692913385826
        },
        {
          "duration": 0.1957232666666755,
          "durationTicks": 238,
          "midi": 35,
          "name": "B1",
          "ticks": 312240,
          "time": 256.77576799999997,
          "velocity": 0.8031496062992126
        },
        {
          "duration": 0.1957232666666755,
          "durationTicks": 238,
          "midi": 42,
          "name": "F#2",
          "ticks": 312240,
          "time": 256.77576799999997,
          "velocity": 0.6456692913385826
        },
        {
          "duration": 0.19572326666661866,
          "durationTicks": 238,
          "midi": 37,
          "name": "C#2",
          "ticks": 312480,
          "time": 256.973136,
          "velocity": 0.8031496062992126
        },
        {
          "duration": 0.19572326666661866,
          "durationTicks": 238,
          "midi": 42,
          "name": "F#2",
          "ticks": 312480,
          "time": 256.973136,
          "velocity": 0.6456692913385826
        },
        {
          "duration": 0.0970392666666271,
          "durationTicks": 118,
          "midi": 35,
          "name": "B1",
          "ticks": 312720,
          "time": 257.170504,
          "velocity": 0.8031496062992126
        },
        {
          "duration": 0.0970392666666271,
          "durationTicks": 118,
          "midi": 42,
          "name": "F#2",
          "ticks": 312720,
          "time": 257.170504,
          "velocity": 0.6456692913385826
        },
        {
          "duration": 0.0970392666666271,
          "durationTicks": 118,
          "midi": 37,
          "name": "C#2",
          "ticks": 312840,
          "time": 257.269188,
          "velocity": 0.8031496062992126
        },
        {
          "duration": 0.1957232666666755,
          "durationTicks": 238,
          "midi": 42,
          "name": "F#2",
          "ticks": 312960,
          "time": 257.367872,
          "velocity": 0.6456692913385826
        },
        {
          "duration": 0.1957232666666755,
          "durationTicks": 238,
          "midi": 35,
          "name": "B1",
          "ticks": 313200,
          "time": 257.56523999999996,
          "velocity": 0.8031496062992126
        },
        {
          "duration": 0.1957232666666755,
          "durationTicks": 238,
          "midi": 42,
          "name": "F#2",
          "ticks": 313200,
          "time": 257.56523999999996,
          "velocity": 0.6456692913385826
        },
        {
          "duration": 0.19572326666661866,
          "durationTicks": 238,
          "midi": 37,
          "name": "C#2",
          "ticks": 313440,
          "time": 257.762608,
          "velocity": 0.8031496062992126
        },
        {
          "duration": 0.19572326666661866,
          "durationTicks": 238,
          "midi": 42,
          "name": "F#2",
          "ticks": 313440,
          "time": 257.762608,
          "velocity": 0.6456692913385826
        },
        {
          "duration": 0.0970392666666271,
          "durationTicks": 118,
          "midi": 42,
          "name": "F#2",
          "ticks": 313680,
          "time": 257.959976,
          "velocity": 0.6456692913385826
        },
        {
          "duration": 0.0970392666666271,
          "durationTicks": 118,
          "midi": 37,
          "name": "C#2",
          "ticks": 313800,
          "time": 258.05866,
          "velocity": 0.8031496062992126
        },
        {
          "duration": 0.1957232666666755,
          "durationTicks": 238,
          "midi": 35,
          "name": "B1",
          "ticks": 313920,
          "time": 258.15734399999997,
          "velocity": 0.8031496062992126
        },
        {
          "duration": 0.1957232666666755,
          "durationTicks": 238,
          "midi": 42,
          "name": "F#2",
          "ticks": 313920,
          "time": 258.15734399999997,
          "velocity": 0.6456692913385826
        },
        {
          "duration": 0.19572326666661866,
          "durationTicks": 238,
          "midi": 35,
          "name": "B1",
          "ticks": 314160,
          "time": 258.354712,
          "velocity": 0.8031496062992126
        },
        {
          "duration": 0.19572326666661866,
          "durationTicks": 238,
          "midi": 42,
          "name": "F#2",
          "ticks": 314160,
          "time": 258.354712,
          "velocity": 0.6456692913385826
        },
        {
          "duration": 0.19572326666661866,
          "durationTicks": 238,
          "midi": 37,
          "name": "C#2",
          "ticks": 314400,
          "time": 258.55208,
          "velocity": 0.8031496062992126
        },
        {
          "duration": 0.19572326666661866,
          "durationTicks": 238,
          "midi": 42,
          "name": "F#2",
          "ticks": 314400,
          "time": 258.55208,
          "velocity": 0.6456692913385826
        },
        {
          "duration": 0.09703926666668394,
          "durationTicks": 118,
          "midi": 42,
          "name": "F#2",
          "ticks": 314640,
          "time": 258.749448,
          "velocity": 0.6456692913385826
        },
        {
          "duration": 0.09703926666668394,
          "durationTicks": 118,
          "midi": 37,
          "name": "C#2",
          "ticks": 314760,
          "time": 258.84813199999996,
          "velocity": 0.8031496062992126
        },
        {
          "duration": 0.19572326666661866,
          "durationTicks": 238,
          "midi": 35,
          "name": "B1",
          "ticks": 314880,
          "time": 258.946816,
          "velocity": 0.8031496062992126
        },
        {
          "duration": 0.19572326666661866,
          "durationTicks": 238,
          "midi": 42,
          "name": "F#2",
          "ticks": 314880,
          "time": 258.946816,
          "velocity": 0.6456692913385826
        },
        {
          "duration": 0.19572326666661866,
          "durationTicks": 238,
          "midi": 42,
          "name": "F#2",
          "ticks": 315120,
          "time": 259.144184,
          "velocity": 0.6456692913385826
        },
        {
          "duration": 0.1957232666666755,
          "durationTicks": 238,
          "midi": 37,
          "name": "C#2",
          "ticks": 315360,
          "time": 259.341552,
          "velocity": 0.8031496062992126
        },
        {
          "duration": 0.1957232666666755,
          "durationTicks": 238,
          "midi": 42,
          "name": "F#2",
          "ticks": 315360,
          "time": 259.341552,
          "velocity": 0.6456692913385826
        },
        {
          "duration": 0.09703926666668394,
          "durationTicks": 118,
          "midi": 42,
          "name": "F#2",
          "ticks": 315600,
          "time": 259.53891999999996,
          "velocity": 0.6456692913385826
        },
        {
          "duration": 0.0970392666666271,
          "durationTicks": 118,
          "midi": 37,
          "name": "C#2",
          "ticks": 315720,
          "time": 259.637604,
          "velocity": 0.8031496062992126
        },
        {
          "duration": 0.19572326666661866,
          "durationTicks": 238,
          "midi": 35,
          "name": "B1",
          "ticks": 315840,
          "time": 259.736288,
          "velocity": 0.8031496062992126
        },
        {
          "duration": 0.19572326666661866,
          "durationTicks": 238,
          "midi": 42,
          "name": "F#2",
          "ticks": 315840,
          "time": 259.736288,
          "velocity": 0.6456692913385826
        },
        {
          "duration": 0.19572326666661866,
          "durationTicks": 238,
          "midi": 35,
          "name": "B1",
          "ticks": 316080,
          "time": 259.933656,
          "velocity": 0.8031496062992126
        },
        {
          "duration": 0.19572326666661866,
          "durationTicks": 238,
          "midi": 42,
          "name": "F#2",
          "ticks": 316080,
          "time": 259.933656,
          "velocity": 0.6456692913385826
        },
        {
          "duration": 0.1957232666666755,
          "durationTicks": 238,
          "midi": 37,
          "name": "C#2",
          "ticks": 316320,
          "time": 260.13102399999997,
          "velocity": 0.8031496062992126
        },
        {
          "duration": 0.1957232666666755,
          "durationTicks": 238,
          "midi": 42,
          "name": "F#2",
          "ticks": 316320,
          "time": 260.13102399999997,
          "velocity": 0.6456692913385826
        },
        {
          "duration": 0.0970392666666271,
          "durationTicks": 118,
          "midi": 35,
          "name": "B1",
          "ticks": 316560,
          "time": 260.328392,
          "velocity": 0.8031496062992126
        },
        {
          "duration": 0.0970392666666271,
          "durationTicks": 118,
          "midi": 42,
          "name": "F#2",
          "ticks": 316560,
          "time": 260.328392,
          "velocity": 0.6456692913385826
        },
        {
          "duration": 0.0970392666666271,
          "durationTicks": 118,
          "midi": 37,
          "name": "C#2",
          "ticks": 316680,
          "time": 260.427076,
          "velocity": 0.8031496062992126
        },
        {
          "duration": 0.19572326666661866,
          "durationTicks": 238,
          "midi": 42,
          "name": "F#2",
          "ticks": 316800,
          "time": 260.52576,
          "velocity": 0.6456692913385826
        },
        {
          "duration": 0.1957232666666755,
          "durationTicks": 238,
          "midi": 35,
          "name": "B1",
          "ticks": 317040,
          "time": 260.723128,
          "velocity": 0.8031496062992126
        },
        {
          "duration": 0.1957232666666755,
          "durationTicks": 238,
          "midi": 42,
          "name": "F#2",
          "ticks": 317040,
          "time": 260.723128,
          "velocity": 0.6456692913385826
        },
        {
          "duration": 0.1957232666666755,
          "durationTicks": 238,
          "midi": 37,
          "name": "C#2",
          "ticks": 317280,
          "time": 260.92049599999996,
          "velocity": 0.8031496062992126
        },
        {
          "duration": 0.1957232666666755,
          "durationTicks": 238,
          "midi": 42,
          "name": "F#2",
          "ticks": 317280,
          "time": 260.92049599999996,
          "velocity": 0.6456692913385826
        },
        {
          "duration": 0.0970392666666271,
          "durationTicks": 118,
          "midi": 42,
          "name": "F#2",
          "ticks": 317520,
          "time": 261.117864,
          "velocity": 0.6456692913385826
        },
        {
          "duration": 0.0970392666666271,
          "durationTicks": 118,
          "midi": 37,
          "name": "C#2",
          "ticks": 317640,
          "time": 261.216548,
          "velocity": 0.8031496062992126
        },
        {
          "duration": 0.1957232666666755,
          "durationTicks": 238,
          "midi": 35,
          "name": "B1",
          "ticks": 317760,
          "time": 261.315232,
          "velocity": 0.8031496062992126
        },
        {
          "duration": 0.1957232666666755,
          "durationTicks": 238,
          "midi": 42,
          "name": "F#2",
          "ticks": 317760,
          "time": 261.315232,
          "velocity": 0.6456692913385826
        },
        {
          "duration": 0.1957232666666755,
          "durationTicks": 238,
          "midi": 35,
          "name": "B1",
          "ticks": 318000,
          "time": 261.51259999999996,
          "velocity": 0.8031496062992126
        },
        {
          "duration": 0.1957232666666755,
          "durationTicks": 238,
          "midi": 42,
          "name": "F#2",
          "ticks": 318000,
          "time": 261.51259999999996,
          "velocity": 0.6456692913385826
        },
        {
          "duration": 0.19572326666661866,
          "durationTicks": 238,
          "midi": 37,
          "name": "C#2",
          "ticks": 318240,
          "time": 261.709968,
          "velocity": 0.8031496062992126
        },
        {
          "duration": 0.19572326666661866,
          "durationTicks": 238,
          "midi": 42,
          "name": "F#2",
          "ticks": 318240,
          "time": 261.709968,
          "velocity": 0.6456692913385826
        },
        {
          "duration": 0.0970392666666271,
          "durationTicks": 118,
          "midi": 42,
          "name": "F#2",
          "ticks": 318480,
          "time": 261.907336,
          "velocity": 0.6456692913385826
        },
        {
          "duration": 0.0970392666666271,
          "durationTicks": 118,
          "midi": 37,
          "name": "C#2",
          "ticks": 318600,
          "time": 262.00602,
          "velocity": 0.8031496062992126
        },
        {
          "duration": 0.1957232666666755,
          "durationTicks": 238,
          "midi": 35,
          "name": "B1",
          "ticks": 318720,
          "time": 262.10470399999997,
          "velocity": 0.8031496062992126
        },
        {
          "duration": 0.1957232666666755,
          "durationTicks": 238,
          "midi": 42,
          "name": "F#2",
          "ticks": 318720,
          "time": 262.10470399999997,
          "velocity": 0.6456692913385826
        },
        {
          "duration": 0.19572326666661866,
          "durationTicks": 238,
          "midi": 42,
          "name": "F#2",
          "ticks": 318960,
          "time": 262.302072,
          "velocity": 0.6456692913385826
        },
        {
          "duration": 0.19572326666661866,
          "durationTicks": 238,
          "midi": 37,
          "name": "C#2",
          "ticks": 319200,
          "time": 262.49944,
          "velocity": 0.8031496062992126
        },
        {
          "duration": 0.19572326666661866,
          "durationTicks": 238,
          "midi": 42,
          "name": "F#2",
          "ticks": 319200,
          "time": 262.49944,
          "velocity": 0.6456692913385826
        },
        {
          "duration": 0.0970392666666271,
          "durationTicks": 118,
          "midi": 42,
          "name": "F#2",
          "ticks": 319440,
          "time": 262.696808,
          "velocity": 0.6456692913385826
        },
        {
          "duration": 0.09703926666668394,
          "durationTicks": 118,
          "midi": 37,
          "name": "C#2",
          "ticks": 319560,
          "time": 262.79549199999997,
          "velocity": 0.8031496062992126
        },
        {
          "duration": 0.1957232666666755,
          "durationTicks": 238,
          "midi": 35,
          "name": "B1",
          "ticks": 319680,
          "time": 262.89417599999996,
          "velocity": 0.8031496062992126
        },
        {
          "duration": 0.1957232666666755,
          "durationTicks": 238,
          "midi": 42,
          "name": "F#2",
          "ticks": 319680,
          "time": 262.89417599999996,
          "velocity": 0.6456692913385826
        },
        {
          "duration": 0.19572326666661866,
          "durationTicks": 238,
          "midi": 35,
          "name": "B1",
          "ticks": 319920,
          "time": 263.091544,
          "velocity": 0.8031496062992126
        },
        {
          "duration": 0.19572326666661866,
          "durationTicks": 238,
          "midi": 42,
          "name": "F#2",
          "ticks": 319920,
          "time": 263.091544,
          "velocity": 0.6456692913385826
        },
        {
          "duration": 0.1957232666666755,
          "durationTicks": 238,
          "midi": 37,
          "name": "C#2",
          "ticks": 320160,
          "time": 263.288912,
          "velocity": 0.8031496062992126
        },
        {
          "duration": 0.1957232666666755,
          "durationTicks": 238,
          "midi": 42,
          "name": "F#2",
          "ticks": 320160,
          "time": 263.288912,
          "velocity": 0.6456692913385826
        },
        {
          "duration": 0.09703926666668394,
          "durationTicks": 118,
          "midi": 35,
          "name": "B1",
          "ticks": 320400,
          "time": 263.48627999999997,
          "velocity": 0.8031496062992126
        },
        {
          "duration": 0.09703926666668394,
          "durationTicks": 118,
          "midi": 42,
          "name": "F#2",
          "ticks": 320400,
          "time": 263.48627999999997,
          "velocity": 0.6456692913385826
        },
        {
          "duration": 0.09703926666668394,
          "durationTicks": 118,
          "midi": 37,
          "name": "C#2",
          "ticks": 320520,
          "time": 263.58496399999996,
          "velocity": 0.8031496062992126
        },
        {
          "duration": 0.19572326666661866,
          "durationTicks": 238,
          "midi": 42,
          "name": "F#2",
          "ticks": 320640,
          "time": 263.683648,
          "velocity": 0.6456692913385826
        },
        {
          "duration": 0.19572326666661866,
          "durationTicks": 238,
          "midi": 35,
          "name": "B1",
          "ticks": 320880,
          "time": 263.881016,
          "velocity": 0.8031496062992126
        },
        {
          "duration": 0.19572326666661866,
          "durationTicks": 238,
          "midi": 42,
          "name": "F#2",
          "ticks": 320880,
          "time": 263.881016,
          "velocity": 0.6456692913385826
        },
        {
          "duration": 0.1957232666666755,
          "durationTicks": 238,
          "midi": 37,
          "name": "C#2",
          "ticks": 321120,
          "time": 264.07838399999997,
          "velocity": 0.8031496062992126
        },
        {
          "duration": 0.1957232666666755,
          "durationTicks": 238,
          "midi": 42,
          "name": "F#2",
          "ticks": 321120,
          "time": 264.07838399999997,
          "velocity": 0.6456692913385826
        },
        {
          "duration": 0.0970392666666271,
          "durationTicks": 118,
          "midi": 42,
          "name": "F#2",
          "ticks": 321360,
          "time": 264.275752,
          "velocity": 0.6456692913385826
        },
        {
          "duration": 0.0970392666666271,
          "durationTicks": 118,
          "midi": 37,
          "name": "C#2",
          "ticks": 321480,
          "time": 264.374436,
          "velocity": 0.8031496062992126
        },
        {
          "duration": 0.19572326666661866,
          "durationTicks": 238,
          "midi": 35,
          "name": "B1",
          "ticks": 321600,
          "time": 264.47312,
          "velocity": 0.8031496062992126
        },
        {
          "duration": 0.19572326666661866,
          "durationTicks": 238,
          "midi": 42,
          "name": "F#2",
          "ticks": 321600,
          "time": 264.47312,
          "velocity": 0.6456692913385826
        },
        {
          "duration": 0.1957232666666755,
          "durationTicks": 238,
          "midi": 35,
          "name": "B1",
          "ticks": 321840,
          "time": 264.670488,
          "velocity": 0.8031496062992126
        },
        {
          "duration": 0.1957232666666755,
          "durationTicks": 238,
          "midi": 42,
          "name": "F#2",
          "ticks": 321840,
          "time": 264.670488,
          "velocity": 0.6456692913385826
        },
        {
          "duration": 0.1957232666666755,
          "durationTicks": 238,
          "midi": 37,
          "name": "C#2",
          "ticks": 322080,
          "time": 264.86785599999996,
          "velocity": 0.8031496062992126
        },
        {
          "duration": 0.1957232666666755,
          "durationTicks": 238,
          "midi": 42,
          "name": "F#2",
          "ticks": 322080,
          "time": 264.86785599999996,
          "velocity": 0.6456692913385826
        },
        {
          "duration": 0.0970392666666271,
          "durationTicks": 118,
          "midi": 42,
          "name": "F#2",
          "ticks": 322320,
          "time": 265.065224,
          "velocity": 0.6456692913385826
        },
        {
          "duration": 0.0970392666666271,
          "durationTicks": 118,
          "midi": 37,
          "name": "C#2",
          "ticks": 322440,
          "time": 265.163908,
          "velocity": 0.8031496062992126
        },
        {
          "duration": 0.19572326666661866,
          "durationTicks": 238,
          "midi": 35,
          "name": "B1",
          "ticks": 322560,
          "time": 265.262592,
          "velocity": 0.8031496062992126
        },
        {
          "duration": 0.19572326666661866,
          "durationTicks": 238,
          "midi": 42,
          "name": "F#2",
          "ticks": 322560,
          "time": 265.262592,
          "velocity": 0.6456692913385826
        },
        {
          "duration": 0.1957232666666755,
          "durationTicks": 238,
          "midi": 42,
          "name": "F#2",
          "ticks": 322800,
          "time": 265.45995999999997,
          "velocity": 0.6456692913385826
        },
        {
          "duration": 0.19572326666661866,
          "durationTicks": 238,
          "midi": 37,
          "name": "C#2",
          "ticks": 323040,
          "time": 265.657328,
          "velocity": 0.8031496062992126
        },
        {
          "duration": 0.19572326666661866,
          "durationTicks": 238,
          "midi": 42,
          "name": "F#2",
          "ticks": 323040,
          "time": 265.657328,
          "velocity": 0.6456692913385826
        },
        {
          "duration": 0.0970392666666271,
          "durationTicks": 118,
          "midi": 42,
          "name": "F#2",
          "ticks": 323280,
          "time": 265.854696,
          "velocity": 0.6456692913385826
        },
        {
          "duration": 0.0970392666666271,
          "durationTicks": 118,
          "midi": 37,
          "name": "C#2",
          "ticks": 323400,
          "time": 265.95338,
          "velocity": 0.8031496062992126
        },
        {
          "duration": 0.1957232666666755,
          "durationTicks": 238,
          "midi": 35,
          "name": "B1",
          "ticks": 323520,
          "time": 266.052064,
          "velocity": 0.8031496062992126
        },
        {
          "duration": 0.1957232666666755,
          "durationTicks": 238,
          "midi": 42,
          "name": "F#2",
          "ticks": 323520,
          "time": 266.052064,
          "velocity": 0.6456692913385826
        },
        {
          "duration": 0.1957232666666755,
          "durationTicks": 238,
          "midi": 35,
          "name": "B1",
          "ticks": 323760,
          "time": 266.24943199999996,
          "velocity": 0.8031496062992126
        },
        {
          "duration": 0.1957232666666755,
          "durationTicks": 238,
          "midi": 42,
          "name": "F#2",
          "ticks": 323760,
          "time": 266.24943199999996,
          "velocity": 0.6456692913385826
        },
        {
          "duration": 0.19572326666661866,
          "durationTicks": 238,
          "midi": 37,
          "name": "C#2",
          "ticks": 324000,
          "time": 266.4468,
          "velocity": 0.8031496062992126
        },
        {
          "duration": 0.19572326666661866,
          "durationTicks": 238,
          "midi": 42,
          "name": "F#2",
          "ticks": 324000,
          "time": 266.4468,
          "velocity": 0.6456692913385826
        },
        {
          "duration": 0.0970392666666271,
          "durationTicks": 118,
          "midi": 35,
          "name": "B1",
          "ticks": 324240,
          "time": 266.644168,
          "velocity": 0.8031496062992126
        },
        {
          "duration": 0.0970392666666271,
          "durationTicks": 118,
          "midi": 42,
          "name": "F#2",
          "ticks": 324240,
          "time": 266.644168,
          "velocity": 0.6456692913385826
        },
        {
          "duration": 0.09703926666668394,
          "durationTicks": 118,
          "midi": 37,
          "name": "C#2",
          "ticks": 324360,
          "time": 266.74285199999997,
          "velocity": 0.8031496062992126
        },
        {
          "duration": 0.1957232666666755,
          "durationTicks": 238,
          "midi": 42,
          "name": "F#2",
          "ticks": 324480,
          "time": 266.84153599999996,
          "velocity": 0.6456692913385826
        },
        {
          "duration": 0.19572326666661866,
          "durationTicks": 238,
          "midi": 35,
          "name": "B1",
          "ticks": 324720,
          "time": 267.038904,
          "velocity": 0.8031496062992126
        },
        {
          "duration": 0.19572326666661866,
          "durationTicks": 238,
          "midi": 42,
          "name": "F#2",
          "ticks": 324720,
          "time": 267.038904,
          "velocity": 0.6456692913385826
        },
        {
          "duration": 0.19572326666661866,
          "durationTicks": 238,
          "midi": 37,
          "name": "C#2",
          "ticks": 324960,
          "time": 267.236272,
          "velocity": 0.8031496062992126
        },
        {
          "duration": 0.19572326666661866,
          "durationTicks": 238,
          "midi": 42,
          "name": "F#2",
          "ticks": 324960,
          "time": 267.236272,
          "velocity": 0.6456692913385826
        },
        {
          "duration": 0.09703926666668394,
          "durationTicks": 118,
          "midi": 42,
          "name": "F#2",
          "ticks": 325200,
          "time": 267.43363999999997,
          "velocity": 0.6456692913385826
        },
        {
          "duration": 0.09703926666668394,
          "durationTicks": 118,
          "midi": 37,
          "name": "C#2",
          "ticks": 325320,
          "time": 267.53232399999996,
          "velocity": 0.8031496062992126
        },
        {
          "duration": 0.19572326666661866,
          "durationTicks": 238,
          "midi": 35,
          "name": "B1",
          "ticks": 325440,
          "time": 267.631008,
          "velocity": 0.8031496062992126
        },
        {
          "duration": 0.19572326666661866,
          "durationTicks": 238,
          "midi": 42,
          "name": "F#2",
          "ticks": 325440,
          "time": 267.631008,
          "velocity": 0.6456692913385826
        },
        {
          "duration": 0.19572326666661866,
          "durationTicks": 238,
          "midi": 35,
          "name": "B1",
          "ticks": 325680,
          "time": 267.828376,
          "velocity": 0.8031496062992126
        },
        {
          "duration": 0.19572326666661866,
          "durationTicks": 238,
          "midi": 42,
          "name": "F#2",
          "ticks": 325680,
          "time": 267.828376,
          "velocity": 0.6456692913385826
        },
        {
          "duration": 0.1957232666666755,
          "durationTicks": 238,
          "midi": 37,
          "name": "C#2",
          "ticks": 325920,
          "time": 268.025744,
          "velocity": 0.8031496062992126
        },
        {
          "duration": 0.1957232666666755,
          "durationTicks": 238,
          "midi": 42,
          "name": "F#2",
          "ticks": 325920,
          "time": 268.025744,
          "velocity": 0.6456692913385826
        },
        {
          "duration": 0.09703926666668394,
          "durationTicks": 118,
          "midi": 42,
          "name": "F#2",
          "ticks": 326160,
          "time": 268.22311199999996,
          "velocity": 0.6456692913385826
        },
        {
          "duration": 0.0970392666666271,
          "durationTicks": 118,
          "midi": 37,
          "name": "C#2",
          "ticks": 326280,
          "time": 268.321796,
          "velocity": 0.8031496062992126
        },
        {
          "duration": 0.19572326666661866,
          "durationTicks": 238,
          "midi": 35,
          "name": "B1",
          "ticks": 326400,
          "time": 268.42048,
          "velocity": 0.8031496062992126
        },
        {
          "duration": 0.19572326666661866,
          "durationTicks": 238,
          "midi": 42,
          "name": "F#2",
          "ticks": 326400,
          "time": 268.42048,
          "velocity": 0.6456692913385826
        },
        {
          "duration": 0.1957232666666755,
          "durationTicks": 238,
          "midi": 42,
          "name": "F#2",
          "ticks": 326640,
          "time": 268.617848,
          "velocity": 0.6456692913385826
        },
        {
          "duration": 0.1957232666666755,
          "durationTicks": 238,
          "midi": 37,
          "name": "C#2",
          "ticks": 326880,
          "time": 268.81521599999996,
          "velocity": 0.8031496062992126
        },
        {
          "duration": 0.1957232666666755,
          "durationTicks": 238,
          "midi": 42,
          "name": "F#2",
          "ticks": 326880,
          "time": 268.81521599999996,
          "velocity": 0.6456692913385826
        },
        {
          "duration": 0.0970392666666271,
          "durationTicks": 118,
          "midi": 42,
          "name": "F#2",
          "ticks": 327120,
          "time": 269.012584,
          "velocity": 0.6456692913385826
        },
        {
          "duration": 0.0970392666666271,
          "durationTicks": 118,
          "midi": 37,
          "name": "C#2",
          "ticks": 327240,
          "time": 269.111268,
          "velocity": 0.8031496062992126
        },
        {
          "duration": 0.19572326666661866,
          "durationTicks": 238,
          "midi": 35,
          "name": "B1",
          "ticks": 327360,
          "time": 269.209952,
          "velocity": 0.8031496062992126
        },
        {
          "duration": 0.19572326666661866,
          "durationTicks": 238,
          "midi": 42,
          "name": "F#2",
          "ticks": 327360,
          "time": 269.209952,
          "velocity": 0.6456692913385826
        },
        {
          "duration": 0.1957232666666755,
          "durationTicks": 238,
          "midi": 35,
          "name": "B1",
          "ticks": 327600,
          "time": 269.40731999999997,
          "velocity": 0.8031496062992126
        },
        {
          "duration": 0.1957232666666755,
          "durationTicks": 238,
          "midi": 42,
          "name": "F#2",
          "ticks": 327600,
          "time": 269.40731999999997,
          "velocity": 0.6456692913385826
        },
        {
          "duration": 0.19572326666661866,
          "durationTicks": 238,
          "midi": 37,
          "name": "C#2",
          "ticks": 327840,
          "time": 269.604688,
          "velocity": 0.8031496062992126
        },
        {
          "duration": 0.19572326666661866,
          "durationTicks": 238,
          "midi": 42,
          "name": "F#2",
          "ticks": 327840,
          "time": 269.604688,
          "velocity": 0.6456692913385826
        },
        {
          "duration": 0.0970392666666271,
          "durationTicks": 118,
          "midi": 35,
          "name": "B1",
          "ticks": 328080,
          "time": 269.802056,
          "velocity": 0.8031496062992126
        },
        {
          "duration": 0.0970392666666271,
          "durationTicks": 118,
          "midi": 42,
          "name": "F#2",
          "ticks": 328080,
          "time": 269.802056,
          "velocity": 0.6456692913385826
        },
        {
          "duration": 0.0970392666666271,
          "durationTicks": 118,
          "midi": 37,
          "name": "C#2",
          "ticks": 328200,
          "time": 269.90074,
          "velocity": 0.8031496062992126
        },
        {
          "duration": 0.1957232666666755,
          "durationTicks": 238,
          "midi": 42,
          "name": "F#2",
          "ticks": 328320,
          "time": 269.999424,
          "velocity": 0.6456692913385826
        },
        {
          "duration": 0.1957232666666755,
          "durationTicks": 238,
          "midi": 35,
          "name": "B1",
          "ticks": 328560,
          "time": 270.19679199999996,
          "velocity": 0.8031496062992126
        },
        {
          "duration": 0.1957232666666755,
          "durationTicks": 238,
          "midi": 42,
          "name": "F#2",
          "ticks": 328560,
          "time": 270.19679199999996,
          "velocity": 0.6456692913385826
        },
        {
          "duration": 0.19572326666661866,
          "durationTicks": 238,
          "midi": 37,
          "name": "C#2",
          "ticks": 328800,
          "time": 270.39416,
          "velocity": 0.8031496062992126
        },
        {
          "duration": 0.19572326666661866,
          "durationTicks": 238,
          "midi": 42,
          "name": "F#2",
          "ticks": 328800,
          "time": 270.39416,
          "velocity": 0.6456692913385826
        },
        {
          "duration": 0.0970392666666271,
          "durationTicks": 118,
          "midi": 42,
          "name": "F#2",
          "ticks": 329040,
          "time": 270.591528,
          "velocity": 0.6456692913385826
        },
        {
          "duration": 0.0970392666666271,
          "durationTicks": 118,
          "midi": 37,
          "name": "C#2",
          "ticks": 329160,
          "time": 270.690212,
          "velocity": 0.8031496062992126
        },
        {
          "duration": 0.1957232666666755,
          "durationTicks": 238,
          "midi": 35,
          "name": "B1",
          "ticks": 329280,
          "time": 270.78889599999997,
          "velocity": 0.8031496062992126
        },
        {
          "duration": 0.1957232666666755,
          "durationTicks": 238,
          "midi": 42,
          "name": "F#2",
          "ticks": 329280,
          "time": 270.78889599999997,
          "velocity": 0.6456692913385826
        },
        {
          "duration": 0.19572326666661866,
          "durationTicks": 238,
          "midi": 35,
          "name": "B1",
          "ticks": 329520,
          "time": 270.986264,
          "velocity": 0.8031496062992126
        },
        {
          "duration": 0.19572326666661866,
          "durationTicks": 238,
          "midi": 42,
          "name": "F#2",
          "ticks": 329520,
          "time": 270.986264,
          "velocity": 0.6456692913385826
        },
        {
          "duration": 0.19572326666661866,
          "durationTicks": 238,
          "midi": 37,
          "name": "C#2",
          "ticks": 329760,
          "time": 271.183632,
          "velocity": 0.8031496062992126
        },
        {
          "duration": 0.19572326666661866,
          "durationTicks": 238,
          "midi": 42,
          "name": "F#2",
          "ticks": 329760,
          "time": 271.183632,
          "velocity": 0.6456692913385826
        },
        {
          "duration": 0.09703926666668394,
          "durationTicks": 118,
          "midi": 42,
          "name": "F#2",
          "ticks": 330000,
          "time": 271.381,
          "velocity": 0.6456692913385826
        },
        {
          "duration": 0.09703926666668394,
          "durationTicks": 118,
          "midi": 37,
          "name": "C#2",
          "ticks": 330120,
          "time": 271.47968399999996,
          "velocity": 0.8031496062992126
        },
        {
          "duration": 0.1957232666666755,
          "durationTicks": 238,
          "midi": 35,
          "name": "B1",
          "ticks": 330240,
          "time": 271.57836799999995,
          "velocity": 0.8031496062992126
        },
        {
          "duration": 0.1957232666666755,
          "durationTicks": 238,
          "midi": 42,
          "name": "F#2",
          "ticks": 330240,
          "time": 271.57836799999995,
          "velocity": 0.6456692913385826
        },
        {
          "duration": 0.19572326666661866,
          "durationTicks": 238,
          "midi": 42,
          "name": "F#2",
          "ticks": 330480,
          "time": 271.775736,
          "velocity": 0.6456692913385826
        },
        {
          "duration": 0.1957232666666755,
          "durationTicks": 238,
          "midi": 37,
          "name": "C#2",
          "ticks": 330720,
          "time": 271.973104,
          "velocity": 0.8031496062992126
        },
        {
          "duration": 0.1957232666666755,
          "durationTicks": 238,
          "midi": 42,
          "name": "F#2",
          "ticks": 330720,
          "time": 271.973104,
          "velocity": 0.6456692913385826
        },
        {
          "duration": 0.09703926666668394,
          "durationTicks": 118,
          "midi": 42,
          "name": "F#2",
          "ticks": 330960,
          "time": 272.17047199999996,
          "velocity": 0.6456692913385826
        },
        {
          "duration": 0.0970392666666271,
          "durationTicks": 118,
          "midi": 37,
          "name": "C#2",
          "ticks": 331080,
          "time": 272.269156,
          "velocity": 0.8031496062992126
        },
        {
          "duration": 0.19572326666661866,
          "durationTicks": 238,
          "midi": 35,
          "name": "B1",
          "ticks": 331200,
          "time": 272.36784,
          "velocity": 0.8031496062992126
        },
        {
          "duration": 0.19572326666661866,
          "durationTicks": 238,
          "midi": 42,
          "name": "F#2",
          "ticks": 331200,
          "time": 272.36784,
          "velocity": 0.6456692913385826
        },
        {
          "duration": 0.19572326666661866,
          "durationTicks": 238,
          "midi": 35,
          "name": "B1",
          "ticks": 331440,
          "time": 272.565208,
          "velocity": 0.8031496062992126
        },
        {
          "duration": 0.19572326666661866,
          "durationTicks": 238,
          "midi": 42,
          "name": "F#2",
          "ticks": 331440,
          "time": 272.565208,
          "velocity": 0.6456692913385826
        },
        {
          "duration": 0.1957232666666755,
          "durationTicks": 238,
          "midi": 37,
          "name": "C#2",
          "ticks": 331680,
          "time": 272.76257599999997,
          "velocity": 0.8031496062992126
        },
        {
          "duration": 0.1957232666666755,
          "durationTicks": 238,
          "midi": 42,
          "name": "F#2",
          "ticks": 331680,
          "time": 272.76257599999997,
          "velocity": 0.6456692913385826
        },
        {
          "duration": 0.0970392666666271,
          "durationTicks": 118,
          "midi": 35,
          "name": "B1",
          "ticks": 331920,
          "time": 272.959944,
          "velocity": 0.8031496062992126
        },
        {
          "duration": 0.0970392666666271,
          "durationTicks": 118,
          "midi": 42,
          "name": "F#2",
          "ticks": 331920,
          "time": 272.959944,
          "velocity": 0.6456692913385826
        },
        {
          "duration": 0.0970392666666271,
          "durationTicks": 118,
          "midi": 37,
          "name": "C#2",
          "ticks": 332040,
          "time": 273.058628,
          "velocity": 0.8031496062992126
        },
        {
          "duration": 0.19572326666661866,
          "durationTicks": 238,
          "midi": 42,
          "name": "F#2",
          "ticks": 332160,
          "time": 273.157312,
          "velocity": 0.6456692913385826
        },
        {
          "duration": 0.1957232666666755,
          "durationTicks": 238,
          "midi": 35,
          "name": "B1",
          "ticks": 332400,
          "time": 273.35468,
          "velocity": 0.8031496062992126
        },
        {
          "duration": 0.1957232666666755,
          "durationTicks": 238,
          "midi": 42,
          "name": "F#2",
          "ticks": 332400,
          "time": 273.35468,
          "velocity": 0.6456692913385826
        },
        {
          "duration": 0.1957232666666755,
          "durationTicks": 238,
          "midi": 37,
          "name": "C#2",
          "ticks": 332640,
          "time": 273.55204799999996,
          "velocity": 0.8031496062992126
        },
        {
          "duration": 0.1957232666666755,
          "durationTicks": 238,
          "midi": 42,
          "name": "F#2",
          "ticks": 332640,
          "time": 273.55204799999996,
          "velocity": 0.6456692913385826
        },
        {
          "duration": 0.0970392666666271,
          "durationTicks": 118,
          "midi": 42,
          "name": "F#2",
          "ticks": 332880,
          "time": 273.749416,
          "velocity": 0.6456692913385826
        },
        {
          "duration": 0.0970392666666271,
          "durationTicks": 118,
          "midi": 37,
          "name": "C#2",
          "ticks": 333000,
          "time": 273.8481,
          "velocity": 0.8031496062992126
        },
        {
          "duration": 0.1957232666666755,
          "durationTicks": 238,
          "midi": 35,
          "name": "B1",
          "ticks": 333120,
          "time": 273.946784,
          "velocity": 0.8031496062992126
        },
        {
          "duration": 0.1957232666666755,
          "durationTicks": 238,
          "midi": 42,
          "name": "F#2",
          "ticks": 333120,
          "time": 273.946784,
          "velocity": 0.6456692913385826
        },
        {
          "duration": 0.1957232666666755,
          "durationTicks": 238,
          "midi": 35,
          "name": "B1",
          "ticks": 333360,
          "time": 274.14415199999996,
          "velocity": 0.8031496062992126
        },
        {
          "duration": 0.1957232666666755,
          "durationTicks": 238,
          "midi": 42,
          "name": "F#2",
          "ticks": 333360,
          "time": 274.14415199999996,
          "velocity": 0.6456692913385826
        },
        {
          "duration": 0.19572326666661866,
          "durationTicks": 238,
          "midi": 37,
          "name": "C#2",
          "ticks": 333600,
          "time": 274.34152,
          "velocity": 0.8031496062992126
        },
        {
          "duration": 0.19572326666661866,
          "durationTicks": 238,
          "midi": 42,
          "name": "F#2",
          "ticks": 333600,
          "time": 274.34152,
          "velocity": 0.6456692913385826
        },
        {
          "duration": 0.0970392666666271,
          "durationTicks": 118,
          "midi": 42,
          "name": "F#2",
          "ticks": 333840,
          "time": 274.538888,
          "velocity": 0.6456692913385826
        },
        {
          "duration": 0.0970392666666271,
          "durationTicks": 118,
          "midi": 37,
          "name": "C#2",
          "ticks": 333960,
          "time": 274.637572,
          "velocity": 0.8031496062992126
        },
        {
          "duration": 0.1957232666666755,
          "durationTicks": 238,
          "midi": 35,
          "name": "B1",
          "ticks": 334080,
          "time": 274.73625599999997,
          "velocity": 0.8031496062992126
        },
        {
          "duration": 0.1957232666666755,
          "durationTicks": 238,
          "midi": 42,
          "name": "F#2",
          "ticks": 334080,
          "time": 274.73625599999997,
          "velocity": 0.6456692913385826
        },
        {
          "duration": 0.19572326666661866,
          "durationTicks": 238,
          "midi": 42,
          "name": "F#2",
          "ticks": 334320,
          "time": 274.933624,
          "velocity": 0.6456692913385826
        },
        {
          "duration": 0.19572326666661866,
          "durationTicks": 238,
          "midi": 37,
          "name": "C#2",
          "ticks": 334560,
          "time": 275.130992,
          "velocity": 0.8031496062992126
        },
        {
          "duration": 0.19572326666661866,
          "durationTicks": 238,
          "midi": 42,
          "name": "F#2",
          "ticks": 334560,
          "time": 275.130992,
          "velocity": 0.6456692913385826
        },
        {
          "duration": 0.0970392666666271,
          "durationTicks": 118,
          "midi": 42,
          "name": "F#2",
          "ticks": 334800,
          "time": 275.32836,
          "velocity": 0.6456692913385826
        },
        {
          "duration": 0.09703926666668394,
          "durationTicks": 118,
          "midi": 37,
          "name": "C#2",
          "ticks": 334920,
          "time": 275.42704399999997,
          "velocity": 0.8031496062992126
        },
        {
          "duration": 0.1957232666666755,
          "durationTicks": 238,
          "midi": 35,
          "name": "B1",
          "ticks": 335040,
          "time": 275.52572799999996,
          "velocity": 0.8031496062992126
        },
        {
          "duration": 0.1957232666666755,
          "durationTicks": 238,
          "midi": 42,
          "name": "F#2",
          "ticks": 335040,
          "time": 275.52572799999996,
          "velocity": 0.6456692913385826
        },
        {
          "duration": 0.19572326666661866,
          "durationTicks": 238,
          "midi": 35,
          "name": "B1",
          "ticks": 335280,
          "time": 275.723096,
          "velocity": 0.8031496062992126
        },
        {
          "duration": 0.19572326666661866,
          "durationTicks": 238,
          "midi": 42,
          "name": "F#2",
          "ticks": 335280,
          "time": 275.723096,
          "velocity": 0.6456692913385826
        },
        {
          "duration": 0.1957232666666755,
          "durationTicks": 238,
          "midi": 37,
          "name": "C#2",
          "ticks": 335520,
          "time": 275.920464,
          "velocity": 0.8031496062992126
        },
        {
          "duration": 0.1957232666666755,
          "durationTicks": 238,
          "midi": 42,
          "name": "F#2",
          "ticks": 335520,
          "time": 275.920464,
          "velocity": 0.6456692913385826
        },
        {
          "duration": 0.09703926666668394,
          "durationTicks": 118,
          "midi": 35,
          "name": "B1",
          "ticks": 335760,
          "time": 276.11783199999996,
          "velocity": 0.8031496062992126
        },
        {
          "duration": 0.09703926666668394,
          "durationTicks": 118,
          "midi": 42,
          "name": "F#2",
          "ticks": 335760,
          "time": 276.11783199999996,
          "velocity": 0.6456692913385826
        },
        {
          "duration": 0.09703926666668394,
          "durationTicks": 118,
          "midi": 37,
          "name": "C#2",
          "ticks": 335880,
          "time": 276.21651599999996,
          "velocity": 0.8031496062992126
        },
        {
          "duration": 0.19572326666661866,
          "durationTicks": 238,
          "midi": 42,
          "name": "F#2",
          "ticks": 336000,
          "time": 276.3152,
          "velocity": 0.6456692913385826
        },
        {
          "duration": 0.19572326666661866,
          "durationTicks": 238,
          "midi": 35,
          "name": "B1",
          "ticks": 336240,
          "time": 276.512568,
          "velocity": 0.8031496062992126
        },
        {
          "duration": 0.19572326666661866,
          "durationTicks": 238,
          "midi": 42,
          "name": "F#2",
          "ticks": 336240,
          "time": 276.512568,
          "velocity": 0.6456692913385826
        },
        {
          "duration": 0.1957232666666755,
          "durationTicks": 238,
          "midi": 37,
          "name": "C#2",
          "ticks": 336480,
          "time": 276.70993599999997,
          "velocity": 0.8031496062992126
        },
        {
          "duration": 0.1957232666666755,
          "durationTicks": 238,
          "midi": 42,
          "name": "F#2",
          "ticks": 336480,
          "time": 276.70993599999997,
          "velocity": 0.6456692913385826
        },
        {
          "duration": 0.0970392666666271,
          "durationTicks": 118,
          "midi": 42,
          "name": "F#2",
          "ticks": 336720,
          "time": 276.907304,
          "velocity": 0.6456692913385826
        },
        {
          "duration": 0.0970392666666271,
          "durationTicks": 118,
          "midi": 37,
          "name": "C#2",
          "ticks": 336840,
          "time": 277.005988,
          "velocity": 0.8031496062992126
        },
        {
          "duration": 0.19572326666661866,
          "durationTicks": 238,
          "midi": 35,
          "name": "B1",
          "ticks": 336960,
          "time": 277.104672,
          "velocity": 0.8031496062992126
        },
        {
          "duration": 0.19572326666661866,
          "durationTicks": 238,
          "midi": 42,
          "name": "F#2",
          "ticks": 336960,
          "time": 277.104672,
          "velocity": 0.6456692913385826
        },
        {
          "duration": 0.1957232666666755,
          "durationTicks": 238,
          "midi": 35,
          "name": "B1",
          "ticks": 337200,
          "time": 277.30204,
          "velocity": 0.8031496062992126
        },
        {
          "duration": 0.1957232666666755,
          "durationTicks": 238,
          "midi": 42,
          "name": "F#2",
          "ticks": 337200,
          "time": 277.30204,
          "velocity": 0.6456692913385826
        },
        {
          "duration": 0.1957232666666755,
          "durationTicks": 238,
          "midi": 37,
          "name": "C#2",
          "ticks": 337440,
          "time": 277.49940799999996,
          "velocity": 0.8031496062992126
        },
        {
          "duration": 0.1957232666666755,
          "durationTicks": 238,
          "midi": 42,
          "name": "F#2",
          "ticks": 337440,
          "time": 277.49940799999996,
          "velocity": 0.6456692913385826
        },
        {
          "duration": 0.0970392666666271,
          "durationTicks": 118,
          "midi": 42,
          "name": "F#2",
          "ticks": 337680,
          "time": 277.696776,
          "velocity": 0.6456692913385826
        },
        {
          "duration": 0.0970392666666271,
          "durationTicks": 118,
          "midi": 37,
          "name": "C#2",
          "ticks": 337800,
          "time": 277.79546,
          "velocity": 0.8031496062992126
        },
        {
          "duration": 0.19572326666661866,
          "durationTicks": 238,
          "midi": 35,
          "name": "B1",
          "ticks": 337920,
          "time": 277.894144,
          "velocity": 0.8031496062992126
        },
        {
          "duration": 0.19572326666661866,
          "durationTicks": 238,
          "midi": 42,
          "name": "F#2",
          "ticks": 337920,
          "time": 277.894144,
          "velocity": 0.6456692913385826
        },
        {
          "duration": 0.1957232666666755,
          "durationTicks": 238,
          "midi": 42,
          "name": "F#2",
          "ticks": 338160,
          "time": 278.09151199999997,
          "velocity": 0.6456692913385826
        },
        {
          "duration": 0.19572326666661866,
          "durationTicks": 238,
          "midi": 37,
          "name": "C#2",
          "ticks": 338400,
          "time": 278.28888,
          "velocity": 0.8031496062992126
        },
        {
          "duration": 0.19572326666661866,
          "durationTicks": 238,
          "midi": 42,
          "name": "F#2",
          "ticks": 338400,
          "time": 278.28888,
          "velocity": 0.6456692913385826
        },
        {
          "duration": 0.0970392666666271,
          "durationTicks": 118,
          "midi": 42,
          "name": "F#2",
          "ticks": 338640,
          "time": 278.486248,
          "velocity": 0.6456692913385826
        },
        {
          "duration": 0.0970392666666271,
          "durationTicks": 118,
          "midi": 37,
          "name": "C#2",
          "ticks": 338760,
          "time": 278.584932,
          "velocity": 0.8031496062992126
        },
        {
          "duration": 0.1957232666666755,
          "durationTicks": 238,
          "midi": 35,
          "name": "B1",
          "ticks": 338880,
          "time": 278.683616,
          "velocity": 0.8031496062992126
        },
        {
          "duration": 0.1957232666666755,
          "durationTicks": 238,
          "midi": 42,
          "name": "F#2",
          "ticks": 338880,
          "time": 278.683616,
          "velocity": 0.6456692913385826
        },
        {
          "duration": 0.1957232666666755,
          "durationTicks": 238,
          "midi": 35,
          "name": "B1",
          "ticks": 339120,
          "time": 278.88098399999996,
          "velocity": 0.8031496062992126
        },
        {
          "duration": 0.1957232666666755,
          "durationTicks": 238,
          "midi": 42,
          "name": "F#2",
          "ticks": 339120,
          "time": 278.88098399999996,
          "velocity": 0.6456692913385826
        },
        {
          "duration": 0.19572326666661866,
          "durationTicks": 238,
          "midi": 37,
          "name": "C#2",
          "ticks": 339360,
          "time": 279.078352,
          "velocity": 0.8031496062992126
        },
        {
          "duration": 0.19572326666661866,
          "durationTicks": 238,
          "midi": 42,
          "name": "F#2",
          "ticks": 339360,
          "time": 279.078352,
          "velocity": 0.6456692913385826
        },
        {
          "duration": 0.0970392666666271,
          "durationTicks": 118,
          "midi": 35,
          "name": "B1",
          "ticks": 339600,
          "time": 279.27572,
          "velocity": 0.8031496062992126
        },
        {
          "duration": 0.0970392666666271,
          "durationTicks": 118,
          "midi": 42,
          "name": "F#2",
          "ticks": 339600,
          "time": 279.27572,
          "velocity": 0.6456692913385826
        },
        {
          "duration": 0.09703926666668394,
          "durationTicks": 118,
          "midi": 37,
          "name": "C#2",
          "ticks": 339720,
          "time": 279.37440399999997,
          "velocity": 0.8031496062992126
        },
        {
          "duration": 0.1957232666666755,
          "durationTicks": 238,
          "midi": 42,
          "name": "F#2",
          "ticks": 339840,
          "time": 279.47308799999996,
          "velocity": 0.6456692913385826
        },
        {
          "duration": 0.19572326666661866,
          "durationTicks": 238,
          "midi": 35,
          "name": "B1",
          "ticks": 340080,
          "time": 279.670456,
          "velocity": 0.8031496062992126
        },
        {
          "duration": 0.19572326666661866,
          "durationTicks": 238,
          "midi": 42,
          "name": "F#2",
          "ticks": 340080,
          "time": 279.670456,
          "velocity": 0.6456692913385826
        },
        {
          "duration": 0.19572326666661866,
          "durationTicks": 238,
          "midi": 37,
          "name": "C#2",
          "ticks": 340320,
          "time": 279.867824,
          "velocity": 0.8031496062992126
        },
        {
          "duration": 0.19572326666661866,
          "durationTicks": 238,
          "midi": 42,
          "name": "F#2",
          "ticks": 340320,
          "time": 279.867824,
          "velocity": 0.6456692913385826
        },
        {
          "duration": 0.09703926666668394,
          "durationTicks": 118,
          "midi": 42,
          "name": "F#2",
          "ticks": 340560,
          "time": 280.06519199999997,
          "velocity": 0.6456692913385826
        },
        {
          "duration": 0.09703926666668394,
          "durationTicks": 118,
          "midi": 37,
          "name": "C#2",
          "ticks": 340680,
          "time": 280.16387599999996,
          "velocity": 0.8031496062992126
        },
        {
          "duration": 0.19572326666661866,
          "durationTicks": 238,
          "midi": 35,
          "name": "B1",
          "ticks": 340800,
          "time": 280.26256,
          "velocity": 0.8031496062992126
        },
        {
          "duration": 0.19572326666661866,
          "durationTicks": 238,
          "midi": 42,
          "name": "F#2",
          "ticks": 340800,
          "time": 280.26256,
          "velocity": 0.6456692913385826
        },
        {
          "duration": 0.19572326666661866,
          "durationTicks": 238,
          "midi": 35,
          "name": "B1",
          "ticks": 341040,
          "time": 280.459928,
          "velocity": 0.8031496062992126
        },
        {
          "duration": 0.19572326666661866,
          "durationTicks": 238,
          "midi": 42,
          "name": "F#2",
          "ticks": 341040,
          "time": 280.459928,
          "velocity": 0.6456692913385826
        },
        {
          "duration": 0.1957232666666755,
          "durationTicks": 238,
          "midi": 37,
          "name": "C#2",
          "ticks": 341280,
          "time": 280.657296,
          "velocity": 0.8031496062992126
        },
        {
          "duration": 0.1957232666666755,
          "durationTicks": 238,
          "midi": 42,
          "name": "F#2",
          "ticks": 341280,
          "time": 280.657296,
          "velocity": 0.6456692913385826
        },
        {
          "duration": 0.09703926666668394,
          "durationTicks": 118,
          "midi": 42,
          "name": "F#2",
          "ticks": 341520,
          "time": 280.85466399999996,
          "velocity": 0.6456692913385826
        },
        {
          "duration": 0.0970392666666271,
          "durationTicks": 118,
          "midi": 37,
          "name": "C#2",
          "ticks": 341640,
          "time": 280.953348,
          "velocity": 0.8031496062992126
        },
        {
          "duration": 0.19572326666661866,
          "durationTicks": 238,
          "midi": 35,
          "name": "B1",
          "ticks": 341760,
          "time": 281.052032,
          "velocity": 0.8031496062992126
        },
        {
          "duration": 0.19572326666661866,
          "durationTicks": 238,
          "midi": 42,
          "name": "F#2",
          "ticks": 341760,
          "time": 281.052032,
          "velocity": 0.6456692913385826
        },
        {
          "duration": 0.1957232666666755,
          "durationTicks": 238,
          "midi": 42,
          "name": "F#2",
          "ticks": 342000,
          "time": 281.2494,
          "velocity": 0.6456692913385826
        },
        {
          "duration": 0.1957232666666755,
          "durationTicks": 238,
          "midi": 37,
          "name": "C#2",
          "ticks": 342240,
          "time": 281.44676799999996,
          "velocity": 0.8031496062992126
        },
        {
          "duration": 0.1957232666666755,
          "durationTicks": 238,
          "midi": 42,
          "name": "F#2",
          "ticks": 342240,
          "time": 281.44676799999996,
          "velocity": 0.6456692913385826
        },
        {
          "duration": 0.0970392666666271,
          "durationTicks": 118,
          "midi": 42,
          "name": "F#2",
          "ticks": 342480,
          "time": 281.644136,
          "velocity": 0.6456692913385826
        },
        {
          "duration": 0.0970392666666271,
          "durationTicks": 118,
          "midi": 37,
          "name": "C#2",
          "ticks": 342600,
          "time": 281.74282,
          "velocity": 0.8031496062992126
        },
        {
          "duration": 0.19572326666661866,
          "durationTicks": 238,
          "midi": 35,
          "name": "B1",
          "ticks": 342720,
          "time": 281.841504,
          "velocity": 0.8031496062992126
        },
        {
          "duration": 0.19572326666661866,
          "durationTicks": 238,
          "midi": 42,
          "name": "F#2",
          "ticks": 342720,
          "time": 281.841504,
          "velocity": 0.6456692913385826
        },
        {
          "duration": 0.1957232666666755,
          "durationTicks": 238,
          "midi": 35,
          "name": "B1",
          "ticks": 342960,
          "time": 282.03887199999997,
          "velocity": 0.8031496062992126
        },
        {
          "duration": 0.1957232666666755,
          "durationTicks": 238,
          "midi": 42,
          "name": "F#2",
          "ticks": 342960,
          "time": 282.03887199999997,
          "velocity": 0.6456692913385826
        },
        {
          "duration": 0.19572326666661866,
          "durationTicks": 238,
          "midi": 37,
          "name": "C#2",
          "ticks": 343200,
          "time": 282.23624,
          "velocity": 0.8031496062992126
        },
        {
          "duration": 0.19572326666661866,
          "durationTicks": 238,
          "midi": 42,
          "name": "F#2",
          "ticks": 343200,
          "time": 282.23624,
          "velocity": 0.6456692913385826
        },
        {
          "duration": 0.0970392666666271,
          "durationTicks": 118,
          "midi": 35,
          "name": "B1",
          "ticks": 343440,
          "time": 282.433608,
          "velocity": 0.8031496062992126
        },
        {
          "duration": 0.0970392666666271,
          "durationTicks": 118,
          "midi": 42,
          "name": "F#2",
          "ticks": 343440,
          "time": 282.433608,
          "velocity": 0.6456692913385826
        },
        {
          "duration": 0.0970392666666271,
          "durationTicks": 118,
          "midi": 37,
          "name": "C#2",
          "ticks": 343560,
          "time": 282.532292,
          "velocity": 0.8031496062992126
        },
        {
          "duration": 0.1957232666666755,
          "durationTicks": 238,
          "midi": 42,
          "name": "F#2",
          "ticks": 343680,
          "time": 282.630976,
          "velocity": 0.6456692913385826
        },
        {
          "duration": 0.1957232666666755,
          "durationTicks": 238,
          "midi": 35,
          "name": "B1",
          "ticks": 343920,
          "time": 282.82834399999996,
          "velocity": 0.8031496062992126
        },
        {
          "duration": 0.1957232666666755,
          "durationTicks": 238,
          "midi": 42,
          "name": "F#2",
          "ticks": 343920,
          "time": 282.82834399999996,
          "velocity": 0.6456692913385826
        },
        {
          "duration": 0.19572326666661866,
          "durationTicks": 238,
          "midi": 37,
          "name": "C#2",
          "ticks": 344160,
          "time": 283.025712,
          "velocity": 0.8031496062992126
        },
        {
          "duration": 0.19572326666661866,
          "durationTicks": 238,
          "midi": 42,
          "name": "F#2",
          "ticks": 344160,
          "time": 283.025712,
          "velocity": 0.6456692913385826
        },
        {
          "duration": 0.0970392666666271,
          "durationTicks": 118,
          "midi": 42,
          "name": "F#2",
          "ticks": 344400,
          "time": 283.22308,
          "velocity": 0.6456692913385826
        },
        {
          "duration": 0.0970392666666271,
          "durationTicks": 118,
          "midi": 37,
          "name": "C#2",
          "ticks": 344520,
          "time": 283.321764,
          "velocity": 0.8031496062992126
        },
        {
          "duration": 0.1957232666666755,
          "durationTicks": 238,
          "midi": 35,
          "name": "B1",
          "ticks": 344640,
          "time": 283.42044799999996,
          "velocity": 0.8031496062992126
        },
        {
          "duration": 0.1957232666666755,
          "durationTicks": 238,
          "midi": 42,
          "name": "F#2",
          "ticks": 344640,
          "time": 283.42044799999996,
          "velocity": 0.6456692913385826
        },
        {
          "duration": 0.19572326666661866,
          "durationTicks": 238,
          "midi": 35,
          "name": "B1",
          "ticks": 344880,
          "time": 283.617816,
          "velocity": 0.8031496062992126
        },
        {
          "duration": 0.19572326666661866,
          "durationTicks": 238,
          "midi": 42,
          "name": "F#2",
          "ticks": 344880,
          "time": 283.617816,
          "velocity": 0.6456692913385826
        },
        {
          "duration": 0.19572326666661866,
          "durationTicks": 238,
          "midi": 37,
          "name": "C#2",
          "ticks": 345120,
          "time": 283.815184,
          "velocity": 0.8031496062992126
        },
        {
          "duration": 0.19572326666661866,
          "durationTicks": 238,
          "midi": 42,
          "name": "F#2",
          "ticks": 345120,
          "time": 283.815184,
          "velocity": 0.6456692913385826
        },
        {
          "duration": 0.09703926666668394,
          "durationTicks": 118,
          "midi": 42,
          "name": "F#2",
          "ticks": 345360,
          "time": 284.01255199999997,
          "velocity": 0.6456692913385826
        },
        {
          "duration": 0.09703926666668394,
          "durationTicks": 118,
          "midi": 37,
          "name": "C#2",
          "ticks": 345480,
          "time": 284.11123599999996,
          "velocity": 0.8031496062992126
        },
        {
          "duration": 0.19572326666661866,
          "durationTicks": 238,
          "midi": 35,
          "name": "B1",
          "ticks": 345600,
          "time": 284.20992,
          "velocity": 0.8031496062992126
        },
        {
          "duration": 0.19572326666661866,
          "durationTicks": 238,
          "midi": 42,
          "name": "F#2",
          "ticks": 345600,
          "time": 284.20992,
          "velocity": 0.6456692913385826
        },
        {
          "duration": 0.19572326666661866,
          "durationTicks": 238,
          "midi": 42,
          "name": "F#2",
          "ticks": 345840,
          "time": 284.407288,
          "velocity": 0.6456692913385826
        },
        {
          "duration": 0.1957232666666755,
          "durationTicks": 238,
          "midi": 37,
          "name": "C#2",
          "ticks": 346080,
          "time": 284.604656,
          "velocity": 0.8031496062992126
        },
        {
          "duration": 0.1957232666666755,
          "durationTicks": 238,
          "midi": 42,
          "name": "F#2",
          "ticks": 346080,
          "time": 284.604656,
          "velocity": 0.6456692913385826
        },
        {
          "duration": 0.09703926666668394,
          "durationTicks": 118,
          "midi": 42,
          "name": "F#2",
          "ticks": 346320,
          "time": 284.80202399999996,
          "velocity": 0.6456692913385826
        },
        {
          "duration": 0.0970392666666271,
          "durationTicks": 118,
          "midi": 37,
          "name": "C#2",
          "ticks": 346440,
          "time": 284.900708,
          "velocity": 0.8031496062992126
        },
        {
          "duration": 0.19572326666661866,
          "durationTicks": 238,
          "midi": 35,
          "name": "B1",
          "ticks": 346560,
          "time": 284.999392,
          "velocity": 0.8031496062992126
        },
        {
          "duration": 0.19572326666661866,
          "durationTicks": 238,
          "midi": 42,
          "name": "F#2",
          "ticks": 346560,
          "time": 284.999392,
          "velocity": 0.6456692913385826
        },
        {
          "duration": 0.19572326666661866,
          "durationTicks": 238,
          "midi": 35,
          "name": "B1",
          "ticks": 346800,
          "time": 285.19676,
          "velocity": 0.8031496062992126
        },
        {
          "duration": 0.19572326666661866,
          "durationTicks": 238,
          "midi": 42,
          "name": "F#2",
          "ticks": 346800,
          "time": 285.19676,
          "velocity": 0.6456692913385826
        },
        {
          "duration": 0.1957232666666755,
          "durationTicks": 238,
          "midi": 37,
          "name": "C#2",
          "ticks": 347040,
          "time": 285.39412799999997,
          "velocity": 0.8031496062992126
        },
        {
          "duration": 0.1957232666666755,
          "durationTicks": 238,
          "midi": 42,
          "name": "F#2",
          "ticks": 347040,
          "time": 285.39412799999997,
          "velocity": 0.6456692913385826
        },
        {
          "duration": 0.0970392666666271,
          "durationTicks": 118,
          "midi": 35,
          "name": "B1",
          "ticks": 347280,
          "time": 285.591496,
          "velocity": 0.8031496062992126
        },
        {
          "duration": 0.0970392666666271,
          "durationTicks": 118,
          "midi": 42,
          "name": "F#2",
          "ticks": 347280,
          "time": 285.591496,
          "velocity": 0.6456692913385826
        },
        {
          "duration": 0.0970392666666271,
          "durationTicks": 118,
          "midi": 37,
          "name": "C#2",
          "ticks": 347400,
          "time": 285.69018,
          "velocity": 0.8031496062992126
        },
        {
          "duration": 0.19572326666661866,
          "durationTicks": 238,
          "midi": 42,
          "name": "F#2",
          "ticks": 347520,
          "time": 285.788864,
          "velocity": 0.6456692913385826
        },
        {
          "duration": 0.1957232666666755,
          "durationTicks": 238,
          "midi": 35,
          "name": "B1",
          "ticks": 347760,
          "time": 285.986232,
          "velocity": 0.8031496062992126
        },
        {
          "duration": 0.1957232666666755,
          "durationTicks": 238,
          "midi": 42,
          "name": "F#2",
          "ticks": 347760,
          "time": 285.986232,
          "velocity": 0.6456692913385826
        },
        {
          "duration": 0.1957232666666755,
          "durationTicks": 238,
          "midi": 37,
          "name": "C#2",
          "ticks": 348000,
          "time": 286.18359999999996,
          "velocity": 0.8031496062992126
        },
        {
          "duration": 0.1957232666666755,
          "durationTicks": 238,
          "midi": 42,
          "name": "F#2",
          "ticks": 348000,
          "time": 286.18359999999996,
          "velocity": 0.6456692913385826
        },
        {
          "duration": 0.0970392666666271,
          "durationTicks": 118,
          "midi": 42,
          "name": "F#2",
          "ticks": 348240,
          "time": 286.380968,
          "velocity": 0.6456692913385826
        },
        {
          "duration": 0.0970392666666271,
          "durationTicks": 118,
          "midi": 37,
          "name": "C#2",
          "ticks": 348360,
          "time": 286.479652,
          "velocity": 0.8031496062992126
        },
        {
          "duration": 0.1957232666666755,
          "durationTicks": 238,
          "midi": 35,
          "name": "B1",
          "ticks": 348480,
          "time": 286.578336,
          "velocity": 0.8031496062992126
        },
        {
          "duration": 0.1957232666666755,
          "durationTicks": 238,
          "midi": 42,
          "name": "F#2",
          "ticks": 348480,
          "time": 286.578336,
          "velocity": 0.6456692913385826
        },
        {
          "duration": 0.1957232666666755,
          "durationTicks": 238,
          "midi": 35,
          "name": "B1",
          "ticks": 348720,
          "time": 286.77570399999996,
          "velocity": 0.8031496062992126
        },
        {
          "duration": 0.1957232666666755,
          "durationTicks": 238,
          "midi": 42,
          "name": "F#2",
          "ticks": 348720,
          "time": 286.77570399999996,
          "velocity": 0.6456692913385826
        },
        {
          "duration": 0.19572326666661866,
          "durationTicks": 238,
          "midi": 37,
          "name": "C#2",
          "ticks": 348960,
          "time": 286.973072,
          "velocity": 0.8031496062992126
        },
        {
          "duration": 0.19572326666661866,
          "durationTicks": 238,
          "midi": 42,
          "name": "F#2",
          "ticks": 348960,
          "time": 286.973072,
          "velocity": 0.6456692913385826
        },
        {
          "duration": 0.0970392666666271,
          "durationTicks": 118,
          "midi": 42,
          "name": "F#2",
          "ticks": 349200,
          "time": 287.17044,
          "velocity": 0.6456692913385826
        },
        {
          "duration": 0.0970392666666271,
          "durationTicks": 118,
          "midi": 37,
          "name": "C#2",
          "ticks": 349320,
          "time": 287.269124,
          "velocity": 0.8031496062992126
        },
        {
          "duration": 0.1957232666666755,
          "durationTicks": 238,
          "midi": 35,
          "name": "B1",
          "ticks": 349440,
          "time": 287.36780799999997,
          "velocity": 0.8031496062992126
        },
        {
          "duration": 0.1957232666666755,
          "durationTicks": 238,
          "midi": 42,
          "name": "F#2",
          "ticks": 349440,
          "time": 287.36780799999997,
          "velocity": 0.6456692913385826
        },
        {
          "duration": 0.19572326666661866,
          "durationTicks": 238,
          "midi": 42,
          "name": "F#2",
          "ticks": 349680,
          "time": 287.565176,
          "velocity": 0.6456692913385826
        },
        {
          "duration": 0.19572326666661866,
          "durationTicks": 238,
          "midi": 37,
          "name": "C#2",
          "ticks": 349920,
          "time": 287.762544,
          "velocity": 0.8031496062992126
        },
        {
          "duration": 0.19572326666661866,
          "durationTicks": 238,
          "midi": 42,
          "name": "F#2",
          "ticks": 349920,
          "time": 287.762544,
          "velocity": 0.6456692913385826
        },
        {
          "duration": 0.0970392666666271,
          "durationTicks": 118,
          "midi": 42,
          "name": "F#2",
          "ticks": 350160,
          "time": 287.959912,
          "velocity": 0.6456692913385826
        },
        {
          "duration": 0.09703926666668394,
          "durationTicks": 118,
          "midi": 37,
          "name": "C#2",
          "ticks": 350280,
          "time": 288.05859599999997,
          "velocity": 0.8031496062992126
        },
        {
          "duration": 0.1957232666666755,
          "durationTicks": 238,
          "midi": 35,
          "name": "B1",
          "ticks": 350400,
          "time": 288.15727999999996,
          "velocity": 0.8031496062992126
        },
        {
          "duration": 0.1957232666666755,
          "durationTicks": 238,
          "midi": 42,
          "name": "F#2",
          "ticks": 350400,
          "time": 288.15727999999996,
          "velocity": 0.6456692913385826
        },
        {
          "duration": 0.19572326666661866,
          "durationTicks": 238,
          "midi": 35,
          "name": "B1",
          "ticks": 350640,
          "time": 288.354648,
          "velocity": 0.8031496062992126
        },
        {
          "duration": 0.19572326666661866,
          "durationTicks": 238,
          "midi": 42,
          "name": "F#2",
          "ticks": 350640,
          "time": 288.354648,
          "velocity": 0.6456692913385826
        },
        {
          "duration": 0.1957232666666755,
          "durationTicks": 238,
          "midi": 37,
          "name": "C#2",
          "ticks": 350880,
          "time": 288.552016,
          "velocity": 0.8031496062992126
        },
        {
          "duration": 0.1957232666666755,
          "durationTicks": 238,
          "midi": 42,
          "name": "F#2",
          "ticks": 350880,
          "time": 288.552016,
          "velocity": 0.6456692913385826
        },
        {
          "duration": 0.09703926666668394,
          "durationTicks": 118,
          "midi": 35,
          "name": "B1",
          "ticks": 351120,
          "time": 288.74938399999996,
          "velocity": 0.8031496062992126
        },
        {
          "duration": 0.09703926666668394,
          "durationTicks": 118,
          "midi": 42,
          "name": "F#2",
          "ticks": 351120,
          "time": 288.74938399999996,
          "velocity": 0.6456692913385826
        },
        {
          "duration": 0.09703926666668394,
          "durationTicks": 118,
          "midi": 37,
          "name": "C#2",
          "ticks": 351240,
          "time": 288.84806799999996,
          "velocity": 0.8031496062992126
        },
        {
          "duration": 0.19572326666661866,
          "durationTicks": 238,
          "midi": 42,
          "name": "F#2",
          "ticks": 351360,
          "time": 288.946752,
          "velocity": 0.6456692913385826
        },
        {
          "duration": 0.19572326666661866,
          "durationTicks": 238,
          "midi": 35,
          "name": "B1",
          "ticks": 351600,
          "time": 289.14412,
          "velocity": 0.8031496062992126
        },
        {
          "duration": 0.19572326666661866,
          "durationTicks": 238,
          "midi": 42,
          "name": "F#2",
          "ticks": 351600,
          "time": 289.14412,
          "velocity": 0.6456692913385826
        },
        {
          "duration": 0.1957232666666755,
          "durationTicks": 238,
          "midi": 37,
          "name": "C#2",
          "ticks": 351840,
          "time": 289.34148799999997,
          "velocity": 0.8031496062992126
        },
        {
          "duration": 0.1957232666666755,
          "durationTicks": 238,
          "midi": 42,
          "name": "F#2",
          "ticks": 351840,
          "time": 289.34148799999997,
          "velocity": 0.6456692913385826
        },
        {
          "duration": 0.0970392666666271,
          "durationTicks": 118,
          "midi": 42,
          "name": "F#2",
          "ticks": 352080,
          "time": 289.538856,
          "velocity": 0.6456692913385826
        },
        {
          "duration": 0.0970392666666271,
          "durationTicks": 118,
          "midi": 37,
          "name": "C#2",
          "ticks": 352200,
          "time": 289.63754,
          "velocity": 0.8031496062992126
        },
        {
          "duration": 0.19572326666661866,
          "durationTicks": 238,
          "midi": 35,
          "name": "B1",
          "ticks": 352320,
          "time": 289.736224,
          "velocity": 0.8031496062992126
        },
        {
          "duration": 0.19572326666661866,
          "durationTicks": 238,
          "midi": 42,
          "name": "F#2",
          "ticks": 352320,
          "time": 289.736224,
          "velocity": 0.6456692913385826
        },
        {
          "duration": 0.1957232666666755,
          "durationTicks": 238,
          "midi": 35,
          "name": "B1",
          "ticks": 352560,
          "time": 289.933592,
          "velocity": 0.8031496062992126
        },
        {
          "duration": 0.1957232666666755,
          "durationTicks": 238,
          "midi": 42,
          "name": "F#2",
          "ticks": 352560,
          "time": 289.933592,
          "velocity": 0.6456692913385826
        },
        {
          "duration": 0.1957232666666755,
          "durationTicks": 238,
          "midi": 37,
          "name": "C#2",
          "ticks": 352800,
          "time": 290.13095999999996,
          "velocity": 0.8031496062992126
        },
        {
          "duration": 0.1957232666666755,
          "durationTicks": 238,
          "midi": 42,
          "name": "F#2",
          "ticks": 352800,
          "time": 290.13095999999996,
          "velocity": 0.6456692913385826
        },
        {
          "duration": 0.0970392666666271,
          "durationTicks": 118,
          "midi": 42,
          "name": "F#2",
          "ticks": 353040,
          "time": 290.328328,
          "velocity": 0.6456692913385826
        },
        {
          "duration": 0.0970392666666271,
          "durationTicks": 118,
          "midi": 37,
          "name": "C#2",
          "ticks": 353160,
          "time": 290.427012,
          "velocity": 0.8031496062992126
        },
        {
          "duration": 0.19572326666661866,
          "durationTicks": 238,
          "midi": 35,
          "name": "B1",
          "ticks": 353280,
          "time": 290.525696,
          "velocity": 0.8031496062992126
        },
        {
          "duration": 0.19572326666661866,
          "durationTicks": 238,
          "midi": 42,
          "name": "F#2",
          "ticks": 353280,
          "time": 290.525696,
          "velocity": 0.6456692913385826
        },
        {
          "duration": 0.1957232666666755,
          "durationTicks": 238,
          "midi": 42,
          "name": "F#2",
          "ticks": 353520,
          "time": 290.72306399999997,
          "velocity": 0.6456692913385826
        },
        {
          "duration": 0.19572326666661866,
          "durationTicks": 238,
          "midi": 37,
          "name": "C#2",
          "ticks": 353760,
          "time": 290.920432,
          "velocity": 0.8031496062992126
        },
        {
          "duration": 0.19572326666661866,
          "durationTicks": 238,
          "midi": 42,
          "name": "F#2",
          "ticks": 353760,
          "time": 290.920432,
          "velocity": 0.6456692913385826
        },
        {
          "duration": 0.0970392666666271,
          "durationTicks": 118,
          "midi": 42,
          "name": "F#2",
          "ticks": 354000,
          "time": 291.1178,
          "velocity": 0.6456692913385826
        },
        {
          "duration": 0.0970392666666271,
          "durationTicks": 118,
          "midi": 37,
          "name": "C#2",
          "ticks": 354120,
          "time": 291.216484,
          "velocity": 0.8031496062992126
        },
        {
          "duration": 0.1957232666666755,
          "durationTicks": 238,
          "midi": 35,
          "name": "B1",
          "ticks": 354240,
          "time": 291.31516799999997,
          "velocity": 0.8031496062992126
        },
        {
          "duration": 0.1957232666666755,
          "durationTicks": 238,
          "midi": 42,
          "name": "F#2",
          "ticks": 354240,
          "time": 291.31516799999997,
          "velocity": 0.6456692913385826
        },
        {
          "duration": 0.1957232666666755,
          "durationTicks": 238,
          "midi": 35,
          "name": "B1",
          "ticks": 354480,
          "time": 291.51253599999995,
          "velocity": 0.8031496062992126
        },
        {
          "duration": 0.1957232666666755,
          "durationTicks": 238,
          "midi": 42,
          "name": "F#2",
          "ticks": 354480,
          "time": 291.51253599999995,
          "velocity": 0.6456692913385826
        },
        {
          "duration": 0.19572326666661866,
          "durationTicks": 238,
          "midi": 37,
          "name": "C#2",
          "ticks": 354720,
          "time": 291.709904,
          "velocity": 0.8031496062992126
        },
        {
          "duration": 0.19572326666661866,
          "durationTicks": 238,
          "midi": 42,
          "name": "F#2",
          "ticks": 354720,
          "time": 291.709904,
          "velocity": 0.6456692913385826
        },
        {
          "duration": 0.0970392666666271,
          "durationTicks": 118,
          "midi": 35,
          "name": "B1",
          "ticks": 354960,
          "time": 291.907272,
          "velocity": 0.8031496062992126
        },
        {
          "duration": 0.0970392666666271,
          "durationTicks": 118,
          "midi": 42,
          "name": "F#2",
          "ticks": 354960,
          "time": 291.907272,
          "velocity": 0.6456692913385826
        },
        {
          "duration": 0.09703926666668394,
          "durationTicks": 118,
          "midi": 37,
          "name": "C#2",
          "ticks": 355080,
          "time": 292.00595599999997,
          "velocity": 0.8031496062992126
        },
        {
          "duration": 0.1957232666666755,
          "durationTicks": 238,
          "midi": 42,
          "name": "F#2",
          "ticks": 355200,
          "time": 292.10463999999996,
          "velocity": 0.6456692913385826
        },
        {
          "duration": 0.19572326666661866,
          "durationTicks": 238,
          "midi": 35,
          "name": "B1",
          "ticks": 355440,
          "time": 292.302008,
          "velocity": 0.8031496062992126
        },
        {
          "duration": 0.19572326666661866,
          "durationTicks": 238,
          "midi": 42,
          "name": "F#2",
          "ticks": 355440,
          "time": 292.302008,
          "velocity": 0.6456692913385826
        },
        {
          "duration": 0.19572326666661866,
          "durationTicks": 238,
          "midi": 37,
          "name": "C#2",
          "ticks": 355680,
          "time": 292.499376,
          "velocity": 0.8031496062992126
        },
        {
          "duration": 0.19572326666661866,
          "durationTicks": 238,
          "midi": 42,
          "name": "F#2",
          "ticks": 355680,
          "time": 292.499376,
          "velocity": 0.6456692913385826
        },
        {
          "duration": 0.09703926666668394,
          "durationTicks": 118,
          "midi": 42,
          "name": "F#2",
          "ticks": 355920,
          "time": 292.69674399999997,
          "velocity": 0.6456692913385826
        },
        {
          "duration": 0.09703926666668394,
          "durationTicks": 118,
          "midi": 37,
          "name": "C#2",
          "ticks": 356040,
          "time": 292.79542799999996,
          "velocity": 0.8031496062992126
        },
        {
          "duration": 0.19572326666661866,
          "durationTicks": 238,
          "midi": 35,
          "name": "B1",
          "ticks": 356160,
          "time": 292.894112,
          "velocity": 0.8031496062992126
        },
        {
          "duration": 0.19572326666661866,
          "durationTicks": 238,
          "midi": 42,
          "name": "F#2",
          "ticks": 356160,
          "time": 292.894112,
          "velocity": 0.6456692913385826
        },
        {
          "duration": 0.19572326666661866,
          "durationTicks": 238,
          "midi": 35,
          "name": "B1",
          "ticks": 356400,
          "time": 293.09148,
          "velocity": 0.8031496062992126
        },
        {
          "duration": 0.19572326666661866,
          "durationTicks": 238,
          "midi": 42,
          "name": "F#2",
          "ticks": 356400,
          "time": 293.09148,
          "velocity": 0.6456692913385826
        },
        {
          "duration": 0.1957232666666755,
          "durationTicks": 238,
          "midi": 37,
          "name": "C#2",
          "ticks": 356640,
          "time": 293.288848,
          "velocity": 0.8031496062992126
        },
        {
          "duration": 0.1957232666666755,
          "durationTicks": 238,
          "midi": 42,
          "name": "F#2",
          "ticks": 356640,
          "time": 293.288848,
          "velocity": 0.6456692913385826
        },
        {
          "duration": 0.09703926666668394,
          "durationTicks": 118,
          "midi": 42,
          "name": "F#2",
          "ticks": 356880,
          "time": 293.48621599999996,
          "velocity": 0.6456692913385826
        },
        {
          "duration": 0.0970392666666271,
          "durationTicks": 118,
          "midi": 37,
          "name": "C#2",
          "ticks": 357000,
          "time": 293.5849,
          "velocity": 0.8031496062992126
        },
        {
          "duration": 0.19572326666661866,
          "durationTicks": 238,
          "midi": 35,
          "name": "B1",
          "ticks": 357120,
          "time": 293.683584,
          "velocity": 0.8031496062992126
        },
        {
          "duration": 0.19572326666661866,
          "durationTicks": 238,
          "midi": 42,
          "name": "F#2",
          "ticks": 357120,
          "time": 293.683584,
          "velocity": 0.6456692913385826
        },
        {
          "duration": 0.1957232666666755,
          "durationTicks": 238,
          "midi": 42,
          "name": "F#2",
          "ticks": 357360,
          "time": 293.880952,
          "velocity": 0.6456692913385826
        },
        {
          "duration": 0.1957232666666755,
          "durationTicks": 238,
          "midi": 37,
          "name": "C#2",
          "ticks": 357600,
          "time": 294.07831999999996,
          "velocity": 0.8031496062992126
        },
        {
          "duration": 0.1957232666666755,
          "durationTicks": 238,
          "midi": 42,
          "name": "F#2",
          "ticks": 357600,
          "time": 294.07831999999996,
          "velocity": 0.6456692913385826
        },
        {
          "duration": 0.0970392666666271,
          "durationTicks": 118,
          "midi": 42,
          "name": "F#2",
          "ticks": 357840,
          "time": 294.275688,
          "velocity": 0.6456692913385826
        },
        {
          "duration": 0.0970392666666271,
          "durationTicks": 118,
          "midi": 37,
          "name": "C#2",
          "ticks": 357960,
          "time": 294.374372,
          "velocity": 0.8031496062992126
        },
        {
          "duration": 0.19572326666661866,
          "durationTicks": 238,
          "midi": 35,
          "name": "B1",
          "ticks": 358080,
          "time": 294.473056,
          "velocity": 0.8031496062992126
        },
        {
          "duration": 0.19572326666661866,
          "durationTicks": 238,
          "midi": 42,
          "name": "F#2",
          "ticks": 358080,
          "time": 294.473056,
          "velocity": 0.6456692913385826
        },
        {
          "duration": 0.1957232666666755,
          "durationTicks": 238,
          "midi": 35,
          "name": "B1",
          "ticks": 358320,
          "time": 294.67042399999997,
          "velocity": 0.8031496062992126
        },
        {
          "duration": 0.1957232666666755,
          "durationTicks": 238,
          "midi": 42,
          "name": "F#2",
          "ticks": 358320,
          "time": 294.67042399999997,
          "velocity": 0.6456692913385826
        },
        {
          "duration": 0.19572326666661866,
          "durationTicks": 238,
          "midi": 37,
          "name": "C#2",
          "ticks": 358560,
          "time": 294.867792,
          "velocity": 0.8031496062992126
        },
        {
          "duration": 0.19572326666661866,
          "durationTicks": 238,
          "midi": 42,
          "name": "F#2",
          "ticks": 358560,
          "time": 294.867792,
          "velocity": 0.6456692913385826
        },
        {
          "duration": 0.0970392666666271,
          "durationTicks": 118,
          "midi": 35,
          "name": "B1",
          "ticks": 358800,
          "time": 295.06516,
          "velocity": 0.8031496062992126
        },
        {
          "duration": 0.0970392666666271,
          "durationTicks": 118,
          "midi": 42,
          "name": "F#2",
          "ticks": 358800,
          "time": 295.06516,
          "velocity": 0.6456692913385826
        },
        {
          "duration": 0.0970392666666271,
          "durationTicks": 118,
          "midi": 37,
          "name": "C#2",
          "ticks": 358920,
          "time": 295.163844,
          "velocity": 0.8031496062992126
        },
        {
          "duration": 0.1957232666666755,
          "durationTicks": 238,
          "midi": 42,
          "name": "F#2",
          "ticks": 359040,
          "time": 295.262528,
          "velocity": 0.6456692913385826
        },
        {
          "duration": 0.1957232666666755,
          "durationTicks": 238,
          "midi": 35,
          "name": "B1",
          "ticks": 359280,
          "time": 295.45989599999996,
          "velocity": 0.8031496062992126
        },
        {
          "duration": 0.1957232666666755,
          "durationTicks": 238,
          "midi": 42,
          "name": "F#2",
          "ticks": 359280,
          "time": 295.45989599999996,
          "velocity": 0.6456692913385826
        },
        {
          "duration": 0.19572326666661866,
          "durationTicks": 238,
          "midi": 37,
          "name": "C#2",
          "ticks": 359520,
          "time": 295.657264,
          "velocity": 0.8031496062992126
        },
        {
          "duration": 0.19572326666661866,
          "durationTicks": 238,
          "midi": 42,
          "name": "F#2",
          "ticks": 359520,
          "time": 295.657264,
          "velocity": 0.6456692913385826
        },
        {
          "duration": 0.0970392666666271,
          "durationTicks": 118,
          "midi": 42,
          "name": "F#2",
          "ticks": 359760,
          "time": 295.854632,
          "velocity": 0.6456692913385826
        },
        {
          "duration": 0.0970392666666271,
          "durationTicks": 118,
          "midi": 37,
          "name": "C#2",
          "ticks": 359880,
          "time": 295.953316,
          "velocity": 0.8031496062992126
        },
        {
          "duration": 0.1957232666666755,
          "durationTicks": 238,
          "midi": 35,
          "name": "B1",
          "ticks": 360000,
          "time": 296.05199999999996,
          "velocity": 0.8031496062992126
        },
        {
          "duration": 0.1957232666666755,
          "durationTicks": 238,
          "midi": 42,
          "name": "F#2",
          "ticks": 360000,
          "time": 296.05199999999996,
          "velocity": 0.6456692913385826
        },
        {
          "duration": 0.19572326666661866,
          "durationTicks": 238,
          "midi": 35,
          "name": "B1",
          "ticks": 360240,
          "time": 296.249368,
          "velocity": 0.8031496062992126
        },
        {
          "duration": 0.19572326666661866,
          "durationTicks": 238,
          "midi": 42,
          "name": "F#2",
          "ticks": 360240,
          "time": 296.249368,
          "velocity": 0.6456692913385826
        },
        {
          "duration": 0.19572326666661866,
          "durationTicks": 238,
          "midi": 37,
          "name": "C#2",
          "ticks": 360480,
          "time": 296.446736,
          "velocity": 0.8031496062992126
        },
        {
          "duration": 0.19572326666661866,
          "durationTicks": 238,
          "midi": 42,
          "name": "F#2",
          "ticks": 360480,
          "time": 296.446736,
          "velocity": 0.6456692913385826
        },
        {
          "duration": 0.09703926666668394,
          "durationTicks": 118,
          "midi": 42,
          "name": "F#2",
          "ticks": 360720,
          "time": 296.64410399999997,
          "velocity": 0.6456692913385826
        },
        {
          "duration": 0.09703926666668394,
          "durationTicks": 118,
          "midi": 37,
          "name": "C#2",
          "ticks": 360840,
          "time": 296.74278799999996,
          "velocity": 0.8031496062992126
        },
        {
          "duration": 0.1957232666666755,
          "durationTicks": 238,
          "midi": 35,
          "name": "B1",
          "ticks": 360960,
          "time": 296.84147199999995,
          "velocity": 0.8031496062992126
        },
        {
          "duration": 0.1957232666666755,
          "durationTicks": 238,
          "midi": 42,
          "name": "F#2",
          "ticks": 360960,
          "time": 296.84147199999995,
          "velocity": 0.6456692913385826
        },
        {
          "duration": 0.19572326666661866,
          "durationTicks": 238,
          "midi": 42,
          "name": "F#2",
          "ticks": 361200,
          "time": 297.03884,
          "velocity": 0.6456692913385826
        },
        {
          "duration": 0.1957232666666755,
          "durationTicks": 238,
          "midi": 37,
          "name": "C#2",
          "ticks": 361440,
          "time": 297.236208,
          "velocity": 0.8031496062992126
        },
        {
          "duration": 0.1957232666666755,
          "durationTicks": 238,
          "midi": 42,
          "name": "F#2",
          "ticks": 361440,
          "time": 297.236208,
          "velocity": 0.6456692913385826
        },
        {
          "duration": 0.09703926666668394,
          "durationTicks": 118,
          "midi": 42,
          "name": "F#2",
          "ticks": 361680,
          "time": 297.43357599999996,
          "velocity": 0.6456692913385826
        },
        {
          "duration": 0.0970392666666271,
          "durationTicks": 118,
          "midi": 37,
          "name": "C#2",
          "ticks": 361800,
          "time": 297.53226,
          "velocity": 0.8031496062992126
        },
        {
          "duration": 0.19572326666661866,
          "durationTicks": 238,
          "midi": 35,
          "name": "B1",
          "ticks": 361920,
          "time": 297.630944,
          "velocity": 0.8031496062992126
        },
        {
          "duration": 0.19572326666661866,
          "durationTicks": 238,
          "midi": 42,
          "name": "F#2",
          "ticks": 361920,
          "time": 297.630944,
          "velocity": 0.6456692913385826
        },
        {
          "duration": 0.19572326666661866,
          "durationTicks": 238,
          "midi": 35,
          "name": "B1",
          "ticks": 362160,
          "time": 297.828312,
          "velocity": 0.8031496062992126
        },
        {
          "duration": 0.19572326666661866,
          "durationTicks": 238,
          "midi": 42,
          "name": "F#2",
          "ticks": 362160,
          "time": 297.828312,
          "velocity": 0.6456692913385826
        },
        {
          "duration": 0.1957232666666755,
          "durationTicks": 238,
          "midi": 37,
          "name": "C#2",
          "ticks": 362400,
          "time": 298.02567999999997,
          "velocity": 0.8031496062992126
        },
        {
          "duration": 0.1957232666666755,
          "durationTicks": 238,
          "midi": 42,
          "name": "F#2",
          "ticks": 362400,
          "time": 298.02567999999997,
          "velocity": 0.6456692913385826
        },
        {
          "duration": 0.0970392666666271,
          "durationTicks": 118,
          "midi": 35,
          "name": "B1",
          "ticks": 362640,
          "time": 298.223048,
          "velocity": 0.8031496062992126
        },
        {
          "duration": 0.0970392666666271,
          "durationTicks": 118,
          "midi": 42,
          "name": "F#2",
          "ticks": 362640,
          "time": 298.223048,
          "velocity": 0.6456692913385826
        },
        {
          "duration": 0.0970392666666271,
          "durationTicks": 118,
          "midi": 37,
          "name": "C#2",
          "ticks": 362760,
          "time": 298.321732,
          "velocity": 0.8031496062992126
        },
        {
          "duration": 0.19572326666661866,
          "durationTicks": 238,
          "midi": 42,
          "name": "F#2",
          "ticks": 362880,
          "time": 298.420416,
          "velocity": 0.6456692913385826
        },
        {
          "duration": 0.1957232666666755,
          "durationTicks": 238,
          "midi": 35,
          "name": "B1",
          "ticks": 363120,
          "time": 298.617784,
          "velocity": 0.8031496062992126
        },
        {
          "duration": 0.1957232666666755,
          "durationTicks": 238,
          "midi": 42,
          "name": "F#2",
          "ticks": 363120,
          "time": 298.617784,
          "velocity": 0.6456692913385826
        },
        {
          "duration": 0.1957232666666755,
          "durationTicks": 238,
          "midi": 37,
          "name": "C#2",
          "ticks": 363360,
          "time": 298.81515199999996,
          "velocity": 0.8031496062992126
        },
        {
          "duration": 0.1957232666666755,
          "durationTicks": 238,
          "midi": 42,
          "name": "F#2",
          "ticks": 363360,
          "time": 298.81515199999996,
          "velocity": 0.6456692913385826
        },
        {
          "duration": 0.0970392666666271,
          "durationTicks": 118,
          "midi": 42,
          "name": "F#2",
          "ticks": 363600,
          "time": 299.01252,
          "velocity": 0.6456692913385826
        },
        {
          "duration": 0.0970392666666271,
          "durationTicks": 118,
          "midi": 37,
          "name": "C#2",
          "ticks": 363720,
          "time": 299.111204,
          "velocity": 0.8031496062992126
        },
        {
          "duration": 0.1957232666666755,
          "durationTicks": 238,
          "midi": 35,
          "name": "B1",
          "ticks": 363840,
          "time": 299.209888,
          "velocity": 0.8031496062992126
        },
        {
          "duration": 0.1957232666666755,
          "durationTicks": 238,
          "midi": 42,
          "name": "F#2",
          "ticks": 363840,
          "time": 299.209888,
          "velocity": 0.6456692913385826
        },
        {
          "duration": 0.1957232666666755,
          "durationTicks": 238,
          "midi": 35,
          "name": "B1",
          "ticks": 364080,
          "time": 299.40725599999996,
          "velocity": 0.8031496062992126
        },
        {
          "duration": 0.1957232666666755,
          "durationTicks": 238,
          "midi": 42,
          "name": "F#2",
          "ticks": 364080,
          "time": 299.40725599999996,
          "velocity": 0.6456692913385826
        },
        {
          "duration": 0.19572326666661866,
          "durationTicks": 238,
          "midi": 37,
          "name": "C#2",
          "ticks": 364320,
          "time": 299.604624,
          "velocity": 0.8031496062992126
        },
        {
          "duration": 0.19572326666661866,
          "durationTicks": 238,
          "midi": 42,
          "name": "F#2",
          "ticks": 364320,
          "time": 299.604624,
          "velocity": 0.6456692913385826
        },
        {
          "duration": 0.0970392666666271,
          "durationTicks": 118,
          "midi": 42,
          "name": "F#2",
          "ticks": 364560,
          "time": 299.801992,
          "velocity": 0.6456692913385826
        },
        {
          "duration": 0.0970392666666271,
          "durationTicks": 118,
          "midi": 37,
          "name": "C#2",
          "ticks": 364680,
          "time": 299.900676,
          "velocity": 0.8031496062992126
        },
        {
          "duration": 0.1957232666666755,
          "durationTicks": 238,
          "midi": 35,
          "name": "B1",
          "ticks": 364800,
          "time": 299.99935999999997,
          "velocity": 0.8031496062992126
        },
        {
          "duration": 0.1957232666666755,
          "durationTicks": 238,
          "midi": 42,
          "name": "F#2",
          "ticks": 364800,
          "time": 299.99935999999997,
          "velocity": 0.6456692913385826
        },
        {
          "duration": 0.19572326666661866,
          "durationTicks": 238,
          "midi": 42,
          "name": "F#2",
          "ticks": 365040,
          "time": 300.196728,
          "velocity": 0.6456692913385826
        },
        {
          "duration": 0.19572326666661866,
          "durationTicks": 238,
          "midi": 37,
          "name": "C#2",
          "ticks": 365280,
          "time": 300.394096,
          "velocity": 0.8031496062992126
        },
        {
          "duration": 0.19572326666661866,
          "durationTicks": 238,
          "midi": 42,
          "name": "F#2",
          "ticks": 365280,
          "time": 300.394096,
          "velocity": 0.6456692913385826
        },
        {
          "duration": 0.0970392666666271,
          "durationTicks": 118,
          "midi": 42,
          "name": "F#2",
          "ticks": 365520,
          "time": 300.591464,
          "velocity": 0.6456692913385826
        },
        {
          "duration": 0.09703926666668394,
          "durationTicks": 118,
          "midi": 37,
          "name": "C#2",
          "ticks": 365640,
          "time": 300.69014799999997,
          "velocity": 0.8031496062992126
        },
        {
          "duration": 0.1957232666666755,
          "durationTicks": 238,
          "midi": 35,
          "name": "B1",
          "ticks": 365760,
          "time": 300.78883199999996,
          "velocity": 0.8031496062992126
        },
        {
          "duration": 0.1957232666666755,
          "durationTicks": 238,
          "midi": 42,
          "name": "F#2",
          "ticks": 365760,
          "time": 300.78883199999996,
          "velocity": 0.6456692913385826
        },
        {
          "duration": 0.19572326666661866,
          "durationTicks": 238,
          "midi": 35,
          "name": "B1",
          "ticks": 366000,
          "time": 300.9862,
          "velocity": 0.8031496062992126
        },
        {
          "duration": 0.19572326666661866,
          "durationTicks": 238,
          "midi": 42,
          "name": "F#2",
          "ticks": 366000,
          "time": 300.9862,
          "velocity": 0.6456692913385826
        },
        {
          "duration": 0.1957232666666755,
          "durationTicks": 238,
          "midi": 37,
          "name": "C#2",
          "ticks": 366240,
          "time": 301.183568,
          "velocity": 0.8031496062992126
        },
        {
          "duration": 0.1957232666666755,
          "durationTicks": 238,
          "midi": 42,
          "name": "F#2",
          "ticks": 366240,
          "time": 301.183568,
          "velocity": 0.6456692913385826
        },
        {
          "duration": 0.09703926666668394,
          "durationTicks": 118,
          "midi": 35,
          "name": "B1",
          "ticks": 366480,
          "time": 301.38093599999996,
          "velocity": 0.8031496062992126
        },
        {
          "duration": 0.09703926666668394,
          "durationTicks": 118,
          "midi": 42,
          "name": "F#2",
          "ticks": 366480,
          "time": 301.38093599999996,
          "velocity": 0.6456692913385826
        },
        {
          "duration": 0.09703926666668394,
          "durationTicks": 118,
          "midi": 37,
          "name": "C#2",
          "ticks": 366600,
          "time": 301.47961999999995,
          "velocity": 0.8031496062992126
        },
        {
          "duration": 0.19572326666661866,
          "durationTicks": 238,
          "midi": 42,
          "name": "F#2",
          "ticks": 366720,
          "time": 301.578304,
          "velocity": 0.6456692913385826
        },
        {
          "duration": 0.19572326666661866,
          "durationTicks": 238,
          "midi": 35,
          "name": "B1",
          "ticks": 366960,
          "time": 301.775672,
          "velocity": 0.8031496062992126
        },
        {
          "duration": 0.19572326666661866,
          "durationTicks": 238,
          "midi": 42,
          "name": "F#2",
          "ticks": 366960,
          "time": 301.775672,
          "velocity": 0.6456692913385826
        },
        {
          "duration": 0.1957232666666755,
          "durationTicks": 238,
          "midi": 37,
          "name": "C#2",
          "ticks": 367200,
          "time": 301.97303999999997,
          "velocity": 0.8031496062992126
        },
        {
          "duration": 0.1957232666666755,
          "durationTicks": 238,
          "midi": 42,
          "name": "F#2",
          "ticks": 367200,
          "time": 301.97303999999997,
          "velocity": 0.6456692913385826
        },
        {
          "duration": 0.0970392666666271,
          "durationTicks": 118,
          "midi": 42,
          "name": "F#2",
          "ticks": 367440,
          "time": 302.170408,
          "velocity": 0.6456692913385826
        },
        {
          "duration": 0.0970392666666271,
          "durationTicks": 118,
          "midi": 37,
          "name": "C#2",
          "ticks": 367560,
          "time": 302.269092,
          "velocity": 0.8031496062992126
        },
        {
          "duration": 0.19572326666661866,
          "durationTicks": 238,
          "midi": 35,
          "name": "B1",
          "ticks": 367680,
          "time": 302.367776,
          "velocity": 0.8031496062992126
        },
        {
          "duration": 0.19572326666661866,
          "durationTicks": 238,
          "midi": 42,
          "name": "F#2",
          "ticks": 367680,
          "time": 302.367776,
          "velocity": 0.6456692913385826
        },
        {
          "duration": 0.1957232666666755,
          "durationTicks": 238,
          "midi": 35,
          "name": "B1",
          "ticks": 367920,
          "time": 302.565144,
          "velocity": 0.8031496062992126
        },
        {
          "duration": 0.1957232666666755,
          "durationTicks": 238,
          "midi": 42,
          "name": "F#2",
          "ticks": 367920,
          "time": 302.565144,
          "velocity": 0.6456692913385826
        },
        {
          "duration": 0.1957232666666755,
          "durationTicks": 238,
          "midi": 37,
          "name": "C#2",
          "ticks": 368160,
          "time": 302.76251199999996,
          "velocity": 0.8031496062992126
        },
        {
          "duration": 0.1957232666666755,
          "durationTicks": 238,
          "midi": 42,
          "name": "F#2",
          "ticks": 368160,
          "time": 302.76251199999996,
          "velocity": 0.6456692913385826
        },
        {
          "duration": 0.0970392666666271,
          "durationTicks": 118,
          "midi": 42,
          "name": "F#2",
          "ticks": 368400,
          "time": 302.95988,
          "velocity": 0.6456692913385826
        },
        {
          "duration": 0.0970392666666271,
          "durationTicks": 118,
          "midi": 37,
          "name": "C#2",
          "ticks": 368520,
          "time": 303.058564,
          "velocity": 0.8031496062992126
        }
      ],
      "endOfTrackTicks": 368638
    }
  ]
}